<svg xmlns="http://www.w3.org/2000/svg" width="512" height="512" viewBox="0 0 512 512"><defs><style>.a{fill:#f7f0f0;}</style></defs><path class="a" d="M256,46.1227c68.352,0,76.4587.256,103.4453,1.4933,27.904,1.28,56.64,7.6373,76.9707,27.968,20.5227,20.5227,26.688,48.9813,27.968,76.9707,1.2374,26.9866,1.4933,35.0933,1.4933,103.4453s-.2559,76.4587-1.4933,103.4453c-1.2587,27.7547-7.7653,56.768-27.968,76.9707-20.5227,20.5227-48.96,26.688-76.9707,27.968-26.9867,1.2374-35.0933,1.4933-103.4453,1.4933s-76.4587-.2559-103.4453-1.4933c-27.5414-1.2587-56.9387-7.9147-76.9707-27.968C55.168,416,48.896,387.264,47.616,359.4453,46.3786,332.4586,46.1226,324.352,46.1226,256s.256-76.4587,1.4934-103.4453c1.2586-27.648,7.8293-56.8321,27.968-76.9707,20.48-20.48,49.0453-26.688,76.9707-27.968C179.5413,46.3787,187.648,46.1227,256,46.1227M256,0c-69.5253,0-78.2507.2987-105.5573,1.536C110.8693,3.3493,71.5733,14.3573,42.9653,42.9653,14.2507,71.68,3.3493,110.8907,1.536,150.4427.2987,177.7493,0,186.4747,0,256s.2987,78.2507,1.536,105.5573C3.3493,401.088,14.4,440.4907,42.9653,469.0347c28.6934,28.6933,67.968,39.616,107.4774,41.4293C177.7493,511.7013,186.4747,512,256,512s78.2507-.2987,105.5573-1.536c39.552-1.8133,78.8907-12.8426,107.4774-41.4293,28.736-28.736,39.616-67.9254,41.4293-107.4774C511.7013,334.2507,512,325.5253,512,256s-.2987-78.2507-1.536-105.5573c-1.8133-39.5734-12.8426-78.8907-41.4293-107.4774C440.384,14.3147,401.0027,3.328,361.5573,1.536,334.2507.2987,325.5253,0,256,0Z"/><path class="a" d="M256,124.544A131.456,131.456,0,1,0,387.456,256,131.4609,131.4609,0,0,0,256,124.544Zm0,216.7893A85.3333,85.3333,0,1,1,341.3333,256,85.3371,85.3371,0,0,1,256,341.3333Z"/><circle class="a" cx="392.6613" cy="119.3387" r="30.72"/></svg>