<svg xmlns="http://www.w3.org/2000/svg" width="511.1479" height="512" viewBox="0 0 511.1479 512"><defs><style>.a{fill:#f7f0f0;}</style></defs><path class="a" d="M256.2133,0C114.944,0,.4267,114.5173.4267,255.7867c0,108.4159,67.3706,201.0453,162.5173,238.3146-2.3253-20.2026-4.2027-51.3707.832-73.472,4.6293-20.0106,29.888-127.168,29.888-127.168s-7.5733-15.36-7.5733-37.888c0-35.584,20.6293-62.1013,46.3147-62.1013,21.888,0,32.4266,16.4266,32.4266,36.0106,0,21.888-13.888,54.7414-21.2693,85.2694-6.1013,25.472,12.8427,46.3146,37.888,46.3146,45.4827,0,80.4267-48,80.4267-117.056,0-61.2693-43.9894-104-106.944-104-72.832,0-115.5841,54.528-115.5841,110.9547,0,21.888,8.4267,45.4827,18.944,58.3253A7.478,7.478,0,0,1,160,316.6293c-1.8987,8-6.3147,25.472-7.168,29.0561-1.0453,4.6293-3.7973,5.6746-8.64,3.3706-32-14.9546-52.0107-61.4826-52.0107-99.1573,0-80.64,58.5174-154.7307,169.0454-154.7307,88.64,0,157.6746,63.168,157.6746,147.7974,0,88.2133-55.5733,159.168-132.6293,159.168-25.8987,0-50.3253-13.4827-58.5173-29.4827,0,0-12.8427,48.832-16,60.8427-5.6747,22.3146-21.2694,50.112-31.7867,67.1573A258.2345,258.2345,0,0,0,255.7867,512c141.2693,0,255.7866-114.5173,255.7866-255.7867C512,114.5173,397.4827,0,256.2133,0Z" transform="translate(-0.4267)"/></svg>