<svg xmlns="http://www.w3.org/2000/svg" width="20" height="20" viewBox="0 0 20 20"><defs><style>.a{fill:#fff;}.b{fill:#1d1d1b;}</style></defs><circle class="a" cx="10" cy="10" r="10"/><path class="b" d="M15.4785,8.2034H11.7966V4.5215a.5244.5244,0,0,0-.5244-.5244H8.7278a.5244.5244,0,0,0-.5244.5244V8.2034H4.5215a.5244.5244,0,0,0-.5244.5244v2.5444a.5244.5244,0,0,0,.5244.5244H8.2034v3.6819a.5244.5244,0,0,0,.5244.5244h2.5444a.5244.5244,0,0,0,.5244-.5244V11.7966h3.6819a.5244.5244,0,0,0,.5244-.5244V8.7278A.5244.5244,0,0,0,15.4785,8.2034Z"/></svg>