<svg xmlns="http://www.w3.org/2000/svg" width="200" height="200" viewBox="0 0 200 200"><defs><style>.a{fill:#ff9c00;}.b{fill:#fff;}</style></defs><path class="a" d="M188.29,100c0,9.0768-9.5352,16.5361-12.1946,24.7263-2.7562,8.4883.4782,20.109-4.6638,27.1744-5.1934,7.136-17.28,7.626-24.4156,12.8193-7.0653,5.1419-11.2379,16.514-19.7261,19.27-8.19,2.6593-18.2128-4.0014-27.2894-4.0014s-19.1,6.6606-27.29,4.0012c-8.4883-2.7562-12.6609-14.1284-19.7263-19.27-7.1359-5.1934-19.2221-5.6835-24.4154-12.82-5.1419-7.0654-1.9073-18.6859-4.6634-27.1741-2.6593-8.19-12.1945-15.6493-12.1945-24.7259s9.5352-16.5361,12.1946-24.7263c2.7562-8.4883-.4782-20.109,4.6638-27.1744,5.1934-7.136,17.28-7.626,24.4156-12.8193C60.05,30.1381,64.2224,18.766,72.7106,16.01c8.19-2.6593,18.2128,4.0014,27.2894,4.0014s19.1-6.6606,27.29-4.0012c8.4883,2.7562,12.6609,14.1284,19.7263,19.27,7.1359,5.1934,19.2221,5.6835,24.4154,12.8195,5.1419,7.0654,1.9073,18.6859,4.6634,27.1741C178.7543,83.4642,188.29,90.9234,188.29,100Z"/><path class="b" d="M118.414,83.326a35.2573,35.2573,0,0,0,8.7359-2.4077,21.6375,21.6375,0,0,0,10.6122-9.8125,16.9417,16.9417,0,0,0,.4094-14.7428,9.9505,9.9505,0,0,0-3.6021-4.3021,6.6442,6.6442,0,0,0-6.4529-.4732c-3.1494,1.5773-3.7963,5.324-4.0087,6.5543-.0426.2458-.0829.4941-.1234.7435a7.7085,7.7085,0,0,1-1.121,3.5715c-.63.7428-1.8581,1.2016-3.6492,1.3637-.2006.018-.404.0325-.61.0457a33.28,33.28,0,0,0-.8363-5.9506A18.8689,18.8689,0,0,0,110.72,46.7244a15.4937,15.4937,0,0,0-9.1357-2.7262A18.2566,18.2566,0,0,0,92.47,46.5646c-5.56,3.3449-9.5812,9.6976-11.0317,17.43-1.2545,6.6926-.61,13.3885.0128,19.8639.136,1.4128.2816,2.9094.446,4.5833A13.5322,13.5322,0,0,1,73.12,82.5505c-.2273-.3679-.4447-.76-.675-1.1746a17.3134,17.3134,0,0,0-1.8471-2.8525,6.768,6.768,0,0,0-5.9261-2.6377c-2.7407.3569-4.9028,2.7185-5.784,6.3175a20.5327,20.5327,0,0,0,.5583,11.3655,22.1931,22.1931,0,0,0,6.2033,9.5149,24.9035,24.9035,0,0,0,16.5955,6.1387q.8307,0,1.6658-.0536c.1307,1.4192.25,2.7446.3609,4.0078.02.2239.0351.4481.0486.6749a89.5052,89.5052,0,0,0-11.7406,1.5925,20.866,20.866,0,0,0-4.4236,1.3989c-1.7328.8352-2.6454,1.9518-2.72,3.32a2.3531,2.3531,0,0,0-.0012.3493,3.1547,3.1547,0,0,0,.31,1.195l8.7867,27.6808c.1814,1.4082,1.218,2.5823,3.0882,3.4948a23.809,23.809,0,0,0,5.4551,1.6894,86.3791,86.3791,0,0,0,16.64,1.4307,86.3787,86.3787,0,0,0,16.64-1.4307,23.8074,23.8074,0,0,0,5.4551-1.6894c1.87-.9125,2.9069-2.0865,3.0882-3.4948l8.7876-27.6836a3.1446,3.1446,0,0,0,.3151-1.3585c0-.97-.4456-2.3512-2.5685-3.4245a18.9092,18.9092,0,0,0-4.1146-1.37,79.7033,79.7033,0,0,0-10.3942-1.5421c.15-1.1414.2174-2.244.2761-3.2148C117.75,101.6825,118.1564,92.4531,118.414,83.326Z"/></svg>