<?xml version="1.0" encoding="utf-8"?>
<!-- Generator: Adobe Illustrator 25.2.3, SVG Export Plug-In . SVG Version: 6.00 Build 0)  -->
<svg version="1.1" id="Capa_1" xmlns="http://www.w3.org/2000/svg" xmlns:xlink="http://www.w3.org/1999/xlink" x="0px" y="0px"
	 viewBox="0 0 40 38.5" style="enable-background:new 0 0 40 38.5;" xml:space="preserve">
<style type="text/css">
	.st0{fill:#231F20;}
</style>
<path class="st0" d="M38.5,15.1c-0.3-0.5-0.6-1.1-0.8-1.6c-0.2-0.6-0.3-1.2-0.3-1.8c0-1.5-0.5-2.9-1.2-4.2c-1-1.1-2.2-2-3.6-2.5
	c-0.6-0.2-1.1-0.5-1.6-0.8c-0.4-0.4-0.9-0.8-1.2-1.3c-0.9-1.2-2.1-2.1-3.5-2.7c-1.4-0.3-2.9-0.3-4.2,0.1c-1.2,0.3-2.5,0.3-3.7,0
	c-1.4-0.4-2.9-0.5-4.3-0.1c-1.4,0.6-2.6,1.5-3.5,2.7C10,3.4,9.5,3.8,9.1,4.2C8.6,4.5,8,4.8,7.4,5C6,5.5,4.8,6.4,3.8,7.5
	c-0.8,1.3-1.2,2.7-1.2,4.2c0,0.6-0.2,1.2-0.3,1.8C2.1,14,1.8,14.5,1.5,15c-0.9,1.2-1.4,2.7-1.5,4.2c0.1,1.5,0.6,2.9,1.5,4.2
	c0.3,0.5,0.6,1,0.8,1.6c0.2,0.6,0.3,1.2,0.3,1.8c0,1.5,0.5,2.9,1.2,4.2c1,1.1,2.2,2,3.6,2.5C8,33.7,8.5,34,9.1,34.3
	c0.5,0.4,0.9,0.8,1.3,1.3c0.9,1.2,2.1,2.1,3.5,2.7c0.5,0.2,1.1,0.2,1.7,0.3c0.9,0,1.7-0.1,2.6-0.3c1.2-0.3,2.5-0.3,3.7,0
	c1.4,0.4,2.9,0.5,4.3,0.1c1.4-0.6,2.6-1.5,3.5-2.7c0.4-0.5,0.8-0.9,1.3-1.3c0.5-0.3,1.1-0.6,1.6-0.8c1.4-0.5,2.6-1.3,3.6-2.5
	c0.8-1.2,1.2-2.7,1.2-4.2c0-0.6,0.1-1.2,0.3-1.8c0.2-0.6,0.5-1.1,0.8-1.6c0.9-1.2,1.4-2.7,1.5-4.2C39.9,17.7,39.4,16.3,38.5,15.1z
	 M29.1,16.7l-9.7,9.7c-0.8,0.8-2,0.8-2.7,0l0,0l-5.8-5.8c-0.8-0.8-0.8-2,0-2.7s2-0.8,2.7,0l4.4,4.4l8.3-8.3c0.8-0.8,2-0.8,2.7,0
	C29.8,14.8,29.9,16,29.1,16.7z"/>
</svg>
