<?xml version="1.0" encoding="utf-8"?>
<!-- Generator: Adobe Illustrator 25.2.3, SVG Export Plug-In . SVG Version: 6.00 Build 0)  -->
<svg version="1.1" id="Capa_1" xmlns="http://www.w3.org/2000/svg" xmlns:xlink="http://www.w3.org/1999/xlink" x="0px" y="0px"
	 viewBox="0 0 800 800" style="enable-background:new 0 0 800 800;" xml:space="preserve">
<g>
	<path d="M733.3,166.7h-66.7h-45.5l-35.8-76c-16.4-34.8-51.9-57.4-90.5-57.4H305.1c-38.5,0-74,22.5-90.5,57.4l-35.8,76h-45.5H66.7
		c-18.4,0-33.3,14.9-33.3,33.3s14.9,33.3,33.3,33.3h36.8l49.4,444.4c5.6,50.7,48.4,89,99.4,89h295.5c51,0,93.8-38.2,99.4-89
		l49.4-444.4h36.8c18.4,0,33.3-14.9,33.3-33.3S751.7,166.7,733.3,166.7z M275,119.1c5.5-11.6,17.3-19.1,30.2-19.1h189.7
		c12.8,0,24.7,7.5,30.2,19.1l22.4,47.5H252.6L275,119.1z M580.9,670.4c-1.9,16.9-16.1,29.6-33.1,29.6H252.3
		c-17,0-31.3-12.7-33.1-29.7l-48.6-437H200h400h29.4L580.9,670.4z"/>
	<path d="M333.3,333.3c-18.4,0-33.3,14.9-33.3,33.3v166.7c0,18.4,14.9,33.3,33.3,33.3s33.3-14.9,33.3-33.3V366.7
		C366.7,348.3,351.7,333.3,333.3,333.3z"/>
	<path d="M466.7,333.3c-18.4,0-33.3,14.9-33.3,33.3v166.7c0,18.4,14.9,33.3,33.3,33.3s33.3-14.9,33.3-33.3V366.7
		C500,348.3,485.1,333.3,466.7,333.3z"/>
</g>
</svg>
