<svg width="32" height="44" viewBox="0 0 32 44" fill="none" xmlns="http://www.w3.org/2000/svg">
<path d="M3.7003 0.456055C1.65649 0.456055 0 2.11255 0 4.15635V26.7311V39.8437C0 41.8875 1.65649 43.544 3.7003 43.544H28.2997C30.3435 43.544 32 41.8875 32 39.8437V26.7311V12.8175L19.639 0.456055H3.7003Z" fill="#D78E55"/>
<path d="M32 12.8175H23.2575C21.2587 12.8175 19.6385 11.1974 19.6385 9.1986V0.456055L32 12.8175Z" fill="#FFA879"/>
<path d="M8.24076 28.6755H5.87427C5.4118 28.6755 5.03645 28.3007 5.03645 27.8377V23.12C5.03645 22.6571 5.4118 22.2822 5.87427 22.2822H8.24076C9.71629 22.2822 10.917 23.4829 10.917 24.9585V25.9993C10.917 27.4753 9.71629 28.6755 8.24076 28.6755ZM6.7121 26.9999H8.24076C8.79229 26.9999 9.24136 26.5508 9.24136 25.9993V24.9585C9.24136 24.4069 8.79229 23.9579 8.24076 23.9579H6.7121V26.9999Z" fill="white"/>
<path d="M5.87427 31.9048C5.4118 31.9048 5.03645 31.53 5.03645 31.067V27.8364C5.03645 27.3734 5.4118 26.9985 5.87427 26.9985C6.33675 26.9985 6.7121 27.3734 6.7121 27.8364V31.067C6.7121 31.53 6.33675 31.9048 5.87427 31.9048Z" fill="white"/>
<path d="M17.7591 31.9212C17.4618 31.9212 17.1798 31.7622 17.029 31.4937L14.122 26.3207V31.068C14.122 31.531 13.7466 31.9059 13.2842 31.9059C12.8217 31.9059 12.4464 31.531 12.4464 31.068V23.1202C12.4464 22.7391 12.7034 22.4064 13.0721 22.3097C13.4412 22.213 13.8285 22.3777 14.0148 22.7094L16.9218 27.8824V23.1202C16.9218 22.6573 17.2966 22.2824 17.7596 22.2824C18.2225 22.2824 18.5974 22.6573 18.5974 23.1202V31.0834C18.5974 31.4644 18.3403 31.7972 17.9717 31.8939C17.9008 31.9121 17.829 31.9212 17.7591 31.9212Z" fill="white"/>
<path d="M24.6144 31.9207H23.0737C21.6509 31.9207 20.4932 30.7631 20.4932 29.3402V24.8552C20.4932 23.4381 21.6461 22.2805 23.0632 22.2747L24.9504 22.2666C24.9519 22.2666 24.9533 22.2666 24.9543 22.2666C25.4153 22.2666 25.7902 22.6391 25.7921 23.1006C25.794 23.5636 25.4206 23.9403 24.9581 23.9422L23.0704 23.9504C22.5729 23.9523 22.1689 24.3583 22.1689 24.8552V29.3402C22.1689 29.8391 22.5749 30.2451 23.0737 30.2451H24.6144C24.9859 30.2451 25.288 29.943 25.288 29.5715V28.1472C25.288 27.7761 24.9859 27.474 24.6144 27.474C24.1514 27.474 23.7765 27.0992 23.7765 26.6362C23.7765 26.1732 24.1514 25.7984 24.6144 25.7984C25.9099 25.7984 26.9636 26.8521 26.9636 28.1472V29.5715C26.9636 30.867 25.9099 31.9207 24.6144 31.9207Z" fill="white"/>
</svg>
