<svg xmlns="http://www.w3.org/2000/svg" xmlns:xlink="http://www.w3.org/1999/xlink" width="200" height="200" viewBox="0 0 200 200"><defs><style>.a,.b{fill:#83b70f;}.a,.f{stroke:#637a00;stroke-linecap:round;stroke-linejoin:round;stroke-width:5px;}.c{clip-path:url(#a);}.d{opacity:0.25;}.e{fill:#fff;}.f{fill:none;}.g{fill:#d38616;}.h{fill:#ff9c00;}.i{fill:#ffd800;}</style><clipPath id="a"><path class="a" d="M188.29,100c0,9.0768-9.5352,16.5361-12.1946,24.7263-2.7562,8.4883.4782,20.109-4.6638,27.1744-5.1934,7.136-17.28,7.626-24.4156,12.8193-7.0653,5.1419-11.2379,16.514-19.7261,19.27-8.19,2.6593-18.2128-4.0014-27.2894-4.0014s-19.1,6.6606-27.29,4.0012c-8.4883-2.7562-12.6609-14.1284-19.7263-19.27-7.1359-5.1934-19.2221-5.6835-24.4154-12.82-5.1419-7.0654-1.9073-18.6859-4.6634-27.1741-2.6593-8.19-12.1945-15.6493-12.1945-24.7259s9.5352-16.5361,12.1946-24.7263c2.7562-8.4883-.4782-20.109,4.6638-27.1744,5.1934-7.136,17.28-7.626,24.4156-12.8193C60.05,30.1381,64.2224,18.766,72.7106,16.01c8.19-2.6593,18.2128,4.0014,27.2894,4.0014s19.1-6.6606,27.29-4.0012c8.4883,2.7562,12.6609,14.1284,19.7263,19.27,7.1359,5.1934,19.2221,5.6835,24.4154,12.8195,5.1419,7.0654,1.9073,18.6859,4.6634,27.1741C178.7543,83.4642,188.29,90.9234,188.29,100Z"/></clipPath></defs><path class="b" d="M188.29,100c0,9.0768-9.5352,16.5361-12.1946,24.7263-2.7562,8.4883.4782,20.109-4.6638,27.1744-5.1934,7.136-17.28,7.626-24.4156,12.8193-7.0653,5.1419-11.2379,16.514-19.7261,19.27-8.19,2.6593-18.2128-4.0014-27.2894-4.0014s-19.1,6.6606-27.29,4.0012c-8.4883-2.7562-12.6609-14.1284-19.7263-19.27-7.1359-5.1934-19.2221-5.6835-24.4154-12.82-5.1419-7.0654-1.9073-18.6859-4.6634-27.1741-2.6593-8.19-12.1945-15.6493-12.1945-24.7259s9.5352-16.5361,12.1946-24.7263c2.7562-8.4883-.4782-20.109,4.6638-27.1744,5.1934-7.136,17.28-7.626,24.4156-12.8193C60.05,30.1381,64.2224,18.766,72.7106,16.01c8.19-2.6593,18.2128,4.0014,27.2894,4.0014s19.1-6.6606,27.29-4.0012c8.4883,2.7562,12.6609,14.1284,19.7263,19.27,7.1359,5.1934,19.2221,5.6835,24.4154,12.8195,5.1419,7.0654,1.9073,18.6859,4.6634,27.1741C178.7543,83.4642,188.29,90.9234,188.29,100Z"/><g class="c"><g class="d"><path class="e" d="M100,100.0069H7.064A92.5652,92.5652,0,0,1,14.11,64.4182l.0276.0138Z"/><path class="e" d="M100,100.0069l-65.717,65.717-.0138.0138A92.7826,92.7826,0,0,1,14.11,135.5818l.0276-.0138Z"/><path class="e" d="M100,100.0069v92.936a92.7533,92.7533,0,0,1-35.5749-7.0461l.0138-.0276Z"/><path class="e" d="M165.717,165.7239l.0138.0138a92.7826,92.7826,0,0,1-30.1559,20.1591l-.0138-.0276L100,100.0069Z"/><path class="e" d="M100,100.0069h92.936a92.7533,92.7533,0,0,1-7.0461,35.5749l-.0276-.0138Z"/><path class="e" d="M185.89,64.4182l-.0276.0138L100,100.0069,165.717,34.29l.0276-.0138A92.8325,92.8325,0,0,1,185.89,64.4182Z"/><path class="e" d="M135.5749,14.1032l-.0138.0276L100,100.0069V7.0571A92.7533,92.7533,0,0,1,135.5749,14.1032Z"/><path class="e" d="M34.2554,34.2761a92.8793,92.8793,0,0,1,30.17-20.1729l.0138.0276L100,100.0069,34.283,34.29Z"/></g></g><path class="f" d="M188.29,100c0,9.0768-9.5352,16.5361-12.1946,24.7263-2.7562,8.4883.4782,20.109-4.6638,27.1744-5.1934,7.136-17.28,7.626-24.4156,12.8193-7.0653,5.1419-11.2379,16.514-19.7261,19.27-8.19,2.6593-18.2128-4.0014-27.2894-4.0014s-19.1,6.6606-27.29,4.0012c-8.4883-2.7562-12.6609-14.1284-19.7263-19.27-7.1359-5.1934-19.2221-5.6835-24.4154-12.82-5.1419-7.0654-1.9073-18.6859-4.6634-27.1741-2.6593-8.19-12.1945-15.6493-12.1945-24.7259s9.5352-16.5361,12.1946-24.7263c2.7562-8.4883-.4782-20.109,4.6638-27.1744,5.1934-7.136,17.28-7.626,24.4156-12.8193C60.05,30.1381,64.2224,18.766,72.7106,16.01c8.19-2.6593,18.2128,4.0014,27.2894,4.0014s19.1-6.6606,27.29-4.0012c8.4883,2.7562,12.6609,14.1284,19.7263,19.27,7.1359,5.1934,19.2221,5.6835,24.4154,12.8195,5.1419,7.0654,1.9073,18.6859,4.6634,27.1741C178.7543,83.4642,188.29,90.9234,188.29,100Z"/><path class="g" d="M156.68,90.08A38.73,38.73,0,0,0,165.934,64.647c0-20.2227-14.7193-36.6166-32.8765-36.6166S100.181,44.4243,100.181,64.647A38.73,38.73,0,0,0,109.4355,90.08a43.1525,43.1525,0,0,0-13.4269,31.787c0,22.7892,16.5874,41.2635,37.0489,41.2635s37.0489-18.4743,37.0489-41.2635A43.1525,43.1525,0,0,0,156.68,90.08Z"/><ellipse class="h" cx="137.8973" cy="61.026" rx="22.2116" ry="26.1501" transform="translate(-9.036 27.1076) rotate(-10.8731)"/><path class="h" d="M162.3737,119.48c1.29,15.7509-7.911,29.3584-20.55,30.3934s-23.931-10.8947-25.2206-26.6457,7.911-29.3587,20.55-30.3935S161.0838,103.7291,162.3737,119.48Z"/><path d="M133.0576,166.3086c-22.1816,0-40.2275-19.9365-40.2275-44.4414a46.7018,46.7018,0,0,1,12.3349-32.03,42.1546,42.1546,0,0,1-8.1626-25.19c0-21.9434,16.1744-39.7954,36.0552-39.7954s36.0547,17.852,36.0547,39.7954a42.16,42.16,0,0,1-8.1621,25.19,46.7014,46.7014,0,0,1,12.335,32.03C173.2852,146.3721,155.2393,166.3086,133.0576,166.3086Zm0-135.1c-16.375,0-29.6972,15-29.6972,33.438a35.5139,35.5139,0,0,0,8.4755,23.3486,3.18,3.18,0,0,1-.2441,4.42,39.981,39.981,0,0,0-12.4043,29.4517c0,21,15.1943,38.084,33.87,38.084s33.87-17.084,33.87-38.084a39.981,39.981,0,0,0-12.4043-29.4517,3.1792,3.1792,0,0,1-.2441-4.4194,35.5191,35.5191,0,0,0,8.4756-23.3491C162.7549,46.21,149.4326,31.209,133.0576,31.209Z"/><path class="e" d="M154.126,53.1123a2.56,2.56,0,0,1-2.4024-1.6787q-.1025-.28-.22-.563a2.5581,2.5581,0,1,1,4.7227-1.9678c.1074.2574.208.5147.3017.77a2.56,2.56,0,0,1-2.4023,3.4394Z"/><path class="e" d="M157.4336,66.7832a2.5607,2.5607,0,0,1-2.5352-2.9268,14.9485,14.9485,0,0,0-.5029-5.458,2.5584,2.5584,0,0,1,4.93-1.3711,19.8606,19.8606,0,0,1,.6357,7.5777A2.56,2.56,0,0,1,157.4336,66.7832Z"/><path class="e" d="M155.3086,107.0947a2.5564,2.5564,0,0,1-2.2617-1.3593c-.0928-.1739-.1895-.3467-.292-.5206a2.5586,2.5586,0,0,1,4.4043-2.6054q.2152.3633.4072.7275a2.5588,2.5588,0,0,1-2.2578,3.7578Z"/><path class="e" d="M160.4512,120.1855H160.42a2.5592,2.5592,0,0,1-2.5283-2.5771,14.952,14.952,0,0,0-1.2451-5.3369,2.5583,2.5583,0,1,1,4.6953-2.0332,19.8624,19.8624,0,0,1,1.667,7.4189A2.56,2.56,0,0,1,160.4512,120.1855Z"/><path class="i" d="M98.24,94.8591A38.095,38.095,0,0,0,86.9881,70.7333c-14.0657-14.0657-35.7059-15.23-48.335-2.6013s-11.4642,34.2691,2.6015,48.3348A38.095,38.095,0,0,0,65.38,127.7191a42.447,42.447,0,0,0,12.77,31.4478c15.8507,15.8507,40.2374,17.1631,54.4689,2.9314s12.9193-38.6182-2.9314-54.4689A42.447,42.447,0,0,0,98.24,94.8591Z"/><path class="h" d="M120.6553,168.08a32.7182,32.7182,0,0,1-8.5078-1.2168c-8.795-2.3779-17.9654-8.0137-25.8223-15.8711-8.5049-8.5049-14.4326-18.64-16.3833-27.9619-7.4014-2.32-15.021-7.1543-21.5586-13.6924C33.7285,94.6831,28.8662,75.7,37.5435,67.0225s27.6616-3.815,42.3159,10.84C86.397,84.4,91.2305,92.019,93.5518,99.42c9.3232,1.9517,19.458,7.8794,27.9619,16.3833,16.4375,16.4375,21.917,37.7022,12.2148,47.4043C130.5049,166.4316,126.0059,168.08,120.6553,168.08Zm-71.31-102.334c-3.8779,0-7.2129,1.125-9.5835,3.4951-7.4536,7.4546-2.5913,24.4463,10.84,37.8779,6.44,6.4405,13.9438,11.1182,21.1289,13.1719a1.5685,1.5685,0,0,1,1.1128,1.23c1.624,8.9658,7.3466,18.8994,15.7,27.2529,7.4756,7.4756,16.1485,12.8243,24.4229,15.0606,7.9668,2.1543,14.5537,1.1435,18.543-2.8447s5-10.5752,2.8457-18.544c-2.2373-8.2744-7.585-16.9473-15.0606-24.4228-8.3525-8.3526-18.2861-14.0752-27.2534-15.7a1.57,1.57,0,0,1-1.229-1.1123c-2.0537-7.1851-6.7319-14.689-13.1719-21.1289C68.4805,70.9209,57.6636,65.7461,49.3457,65.7461Z"/><path class="h" d="M129.5957,164.7041c-7.94.001-22.3232-10.2617-34.522-22.46-8.5263-8.5263-15.5649-17.5732-19.3842-24.9023a106.2749,106.2749,0,0,1-19.543-15.7666C42.94,88.3672,32.3086,72.2578,37.5439,67.0225c5.2339-5.2378,21.3457,5.3955,34.5523,18.603a106.2517,106.2517,0,0,1,15.7671,19.5434c7.331,3.8194,16.3779,10.8584,24.9023,19.3838,7.7608,7.7608,14.253,15.8887,18.2783,22.8868,4.4092,7.663,5.3379,13.1162,2.6846,15.7685A5.6028,5.6028,0,0,1,129.5957,164.7041Zm-88.293-95.917a2.1543,2.1543,0,0,0-1.54.4541C37.416,71.5879,43.4961,84.4863,58.3652,99.356a102.0022,102.0022,0,0,0,19.3062,15.5122,1.5684,1.5684,0,0,1,.6045.6416c3.6235,7.1181,10.5552,16.0537,19.0166,24.5156,17.0923,17.0918,31.4438,23.7275,34.2173,20.9639,2.7675-2.7676-3.8692-17.1241-20.9629-34.2178-8.46-8.461-17.396-15.3926-24.5157-19.0166a1.5692,1.5692,0,0,1-.6416-.6045A102.0027,102.0027,0,0,0,69.8774,87.8442c-6.708-6.708-13.7016-12.3007-19.6928-15.7475C46.0718,69.7305,43.064,68.7871,41.3027,68.7871Z"/><path class="h" d="M132.6191,163.668a1.5641,1.5641,0,0,1-1.1093-.46L37.5435,69.2412a1.5689,1.5689,0,1,1,2.2187-2.2187l93.9663,93.9668a1.5694,1.5694,0,0,1-1.1094,2.6787Z"/><path class="h" d="M78.75,80.5405a1.5688,1.5688,0,0,1-1.1094-2.6782l8.2383-8.2383a1.5689,1.5689,0,1,1,2.2188,2.2188l-8.2383,8.2383A1.5628,1.5628,0,0,1,78.75,80.5405Z"/><path class="h" d="M116.3281,113.72a1.5693,1.5693,0,0,1-1.1093-2.6787l8.2382-8.2383a1.5689,1.5689,0,0,1,2.2188,2.2188l-8.2383,8.2383A1.564,1.564,0,0,1,116.3281,113.72Z"/><path class="h" d="M64.0244,81.8271a1.5688,1.5688,0,0,1-1.1094-2.6782l7.4893-7.49a1.5689,1.5689,0,0,1,2.2187,2.2187l-7.4892,7.49A1.5628,1.5628,0,0,1,64.0244,81.8271Z"/><path class="h" d="M81.8105,112.8584a1.5694,1.5694,0,0,1-1.1093-2.6787l4.9326-4.9326a1.5689,1.5689,0,1,1,2.2187,2.2187L82.92,112.3984A1.5628,1.5628,0,0,1,81.8105,112.8584Z"/><path class="h" d="M57.2559,102.0342a1.5686,1.5686,0,0,1-1.1094-2.6782l6.8657-6.8653A1.5689,1.5689,0,1,1,65.231,94.71l-6.8658,6.8657A1.5659,1.5659,0,0,1,57.2559,102.0342Z"/><path class="h" d="M92.6343,137.4131a1.5694,1.5694,0,0,1-1.1094-2.6787l6.8652-6.8653a1.5689,1.5689,0,1,1,2.2188,2.2188l-6.8652,6.8652A1.5632,1.5632,0,0,1,92.6343,137.4131Z"/><path class="h" d="M43.29,102.5625A1.5694,1.5694,0,0,1,42.18,99.8838l7.49-7.4907a1.5689,1.5689,0,0,1,2.2188,2.2187l-7.49,7.4907A1.5628,1.5628,0,0,1,43.29,102.5625Z"/><path class="h" d="M113.9561,129.5312a1.5693,1.5693,0,0,1-1.1094-2.6787l8.6953-8.6963a1.5689,1.5689,0,0,1,2.2187,2.2188l-8.6953,8.6963A1.5639,1.5639,0,0,1,113.9561,129.5312Z"/><path class="h" d="M89.7871,153.6992a1.5693,1.5693,0,0,1-1.1094-2.6787l8.6958-8.6953a1.5689,1.5689,0,0,1,2.2188,2.2187l-8.6958,8.6954A1.5633,1.5633,0,0,1,89.7871,153.6992Z"/><path class="h" d="M65.38,129.2881a1.5694,1.5694,0,0,1-1.1094-2.6787L70.19,120.69a1.5689,1.5689,0,0,1,2.2188,2.2188L66.49,128.8281A1.5628,1.5628,0,0,1,65.38,129.2881Z"/><path d="M108.0781,175.125a46.9312,46.9312,0,0,1-45.8867-44.56,41.515,41.515,0,0,1-23.1846-11.8506c-15.2827-15.2822-16.45-38.9824-2.602-52.83s37.55-12.6812,52.831,2.6015a41.5216,41.5216,0,0,1,11.8511,23.1836,47.06,47.06,0,0,1,44.5225,43.6314,36.9422,36.9422,0,0,1-37.5313,39.8242ZM60.4331,62.5605A27.2828,27.2828,0,0,0,40.9,70.38C29.5317,81.749,30.6987,101.415,43.502,114.2188a34.8855,34.8855,0,0,0,22.1025,10.3291,3.1788,3.1788,0,0,1,2.9521,3.2978,39.2743,39.2743,0,0,0,11.8418,29.0732c14.5855,14.5879,37.0039,15.9,49.9727,2.9317a31.2952,31.2952,0,0,0,8.89-24.208,40.5836,40.5836,0,0,0-40.893-37.6074,3.1675,3.1675,0,0,1-3.2984-2.9522A35.6772,35.6772,0,0,0,60.4331,62.5605Z"/><path class="e" d="M61.8154,72.9438a2.7294,2.7294,0,0,1-.791-.1176q-.3024-.0916-.6167-.1719a2.7257,2.7257,0,0,1,1.3438-5.2832q.4342.1106.853.2373a2.7263,2.7263,0,0,1-.7891,5.3354Z"/><path class="e" d="M75.5732,78.8809a2.7194,2.7194,0,0,1-1.935-.8062,15.9583,15.9583,0,0,0-4.97-3.0649,2.7258,2.7258,0,1,1,1.9882-5.0762,21.1573,21.1573,0,0,1,6.8609,4.31,2.7261,2.7261,0,0,1-1.9439,4.6372Z"/></svg>