<svg xmlns="http://www.w3.org/2000/svg" width="50" height="50" viewBox="0 0 50 50"><defs><style>.a{fill:#413a3a;}</style></defs><path class="a" d="M24.9938,2.5367a19.7285,19.7285,0,0,1,3.24,39.1858,19.3212,19.3212,0,0,1-8.7318-.516,2.175,2.175,0,0,0-1.7381.1817c-1.6458.88-3.2948,1.7557-4.9571,2.6044a2.3025,2.3025,0,0,1-3.3819-1.4162,4.976,4.976,0,0,1,.0431-1.7838c.2083-1.4844.4558-2.9637.7152-4.44a1.7528,1.7528,0,0,0-.3906-1.5151A19.2672,19.2672,0,0,1,5.4483,24.7744,19.2363,19.2363,0,0,1,9.7713,9.78,19.14,19.14,0,0,1,22.5741,2.7079C23.3745,2.6036,24.1869,2.5915,24.9938,2.5367Zm-11.8589,37.36c1.05-.55,2.0185-1.0412,2.971-1.5613a5.5313,5.5313,0,0,1,4.4268-.4491,15.4652,15.4652,0,0,0,7.937.2494A16.2366,16.2366,0,0,0,23.1112,6.15a15.57,15.57,0,0,0-10.15,5.2451A15.8751,15.8751,0,0,0,8.8894,24.2667a15.9571,15.9571,0,0,0,3.6849,8.4921,4.8886,4.8886,0,0,1,1.0532,4.0494C13.4717,37.8076,13.3091,38.806,13.1349,39.8969Z"/><path class="a" d="M31.101,17.7622a5.9566,5.9566,0,0,1-3.16,5.3755,2.07,2.07,0,0,0-1.2152,1.9679,1.744,1.744,0,1,1-3.48-.0689,5.2934,5.2934,0,0,1,2.9617-4.9,2.6252,2.6252,0,0,0,1.3178-3.0337,2.5107,2.5107,0,0,0-2.4592-1.9048,2.5719,2.5719,0,0,0-2.586,1.8651,4.484,4.484,0,0,0-.13.8689,1.7327,1.7327,0,0,1-3.4608-.0751,6.0412,6.0412,0,0,1,5.7248-6.1259,5.9268,5.9268,0,0,1,6.3746,5.0065C31.053,17.0981,31.07,17.4667,31.101,17.7622Z"/><path class="a" d="M24.99,29.4177a1.7094,1.7094,0,0,1,1.7419,1.6785,1.7417,1.7417,0,1,1-3.4829-.006A1.6866,1.6866,0,0,1,24.99,29.4177Z"/></svg>