<svg xmlns="http://www.w3.org/2000/svg" width="50" height="50" viewBox="0 0 50 50"><defs><style>.a{fill:#413a3a;}</style></defs><path class="a" d="M25.023,2.9592q9.3172,0,18.6346,0a4.5764,4.5764,0,0,1,4.8856,4.8683q.0018,10.0551,0,20.11a4.5776,4.5776,0,0,1-4.8576,4.8492q-18.6835.0015-37.3673,0A4.5779,4.5779,0,0,1,1.457,27.941q-.0023-10.08,0-20.1591A4.57,4.57,0,0,1,6.29,2.96Q15.6566,2.957,25.023,2.9592Zm-.0476,26.6885q9.2933,0,18.5865,0c1.3464,0,1.8424-.4892,1.8425-1.818q0-9.9575,0-19.9149c0-1.3128-.4969-1.8155-1.7949-1.8156q-18.6355,0-37.2711,0c-1.211,0-1.7424.5238-1.7425,1.7186q-.0008,10.031,0,20.062c0,1.2617.5141,1.7678,1.7931,1.7678Q15.6822,29.6479,24.9754,29.6477Z"/><path class="a" d="M33.6782,42.207q-6.57,0-13.1393-.0078a.5427.5427,0,0,0-.62.4376,6.2569,6.2569,0,0,1-11.8161-.0076A.5382.5382,0,0,0,7.4787,42.2c-1.4215.0173-2.8435.0094-4.2652.0065a1.5787,1.5787,0,1,1-.007-3.1383c1.4381-.0028,2.8763-.0079,4.3143.0051a.48.48,0,0,0,.5606-.3767,6.26,6.26,0,0,1,11.8513-.0208c.1311.378.3324.396.6469.3958q13.0166-.0078,26.0333-.0028a3.41,3.41,0,0,1,.6828.0365A1.5639,1.5639,0,0,1,47.0134,42.2c-1.1763.0206-2.3532.0067-3.53.0068Q38.5809,42.2072,33.6782,42.207ZM17.1508,40.6232a3.1382,3.1382,0,1,0-3.1381,3.1529A3.1442,3.1442,0,0,0,17.1508,40.6232Z"/><path class="a" d="M19.5925,17.8535c0-2.01.01-4.0208-.0054-6.0311A1.5631,1.5631,0,0,1,22.27,10.5387q3.7767,3.007,7.5653,5.9992a1.5763,1.5763,0,0,1,.02,2.6544Q26.071,22.2292,22.28,25.2578a1.57,1.57,0,0,1-1.7686.3155,1.5909,1.5909,0,0,1-.923-1.5906C19.6007,21.94,19.5925,19.8966,19.5925,17.8535Zm3.086-2.967v5.9751l3.7316-2.99Z"/></svg>