<?xml version="1.0" encoding="utf-8"?>
<!-- Generator: Adobe Illustrator 25.2.3, SVG Export Plug-In . SVG Version: 6.00 Build 0)  -->
<svg version="1.1" id="Capa_1" xmlns="http://www.w3.org/2000/svg" xmlns:xlink="http://www.w3.org/1999/xlink" x="0px" y="0px"
	 viewBox="0 0 19.8 16.9" style="enable-background:new 0 0 19.8 16.9;" xml:space="preserve">
<style type="text/css">
	.st0{fill:#1D1D1B;}
</style>
<path class="st0" d="M18.4,7h-13l5.1-4.4c0.6-0.5,0.7-1.4,0.1-2c-0.5-0.6-1.4-0.7-2-0.1l-8,7c0,0,0,0,0,0c0,0-0.1,0.1-0.1,0.1
	c0,0,0,0.1-0.1,0.1c0,0.1-0.1,0.1-0.1,0.2c0,0,0,0.1,0,0.1c0,0.1-0.1,0.1-0.1,0.2c0,0,0,0,0,0.1c0,0.1,0,0.2,0,0.3s0,0.2,0,0.3
	c0,0,0,0,0,0.1c0,0.1,0,0.1,0.1,0.2c0,0,0,0.1,0,0.1c0,0.1,0.1,0.1,0.1,0.2c0,0,0,0.1,0.1,0.1c0,0,0.1,0.1,0.1,0.1c0,0,0,0,0,0l8,7
	c0.3,0.2,0.6,0.4,1,0.4c0.4,0,0.8-0.2,1.1-0.5c0.5-0.6,0.5-1.5-0.1-2L5.3,9.9h13c0.8,0,1.5-0.6,1.5-1.5S19.2,7,18.4,7z"/>
</svg>
