<svg width="50" height="48" viewBox="0 0 50 48" fill="none" xmlns="http://www.w3.org/2000/svg">
<path d="M25.0002 36.8002C19.7002 36.8002 15.3877 32.4877 15.3877 27.1877C15.3877 21.8877 19.7002 17.5752 25.0002 17.5752C30.3002 17.5752 34.6127 21.8877 34.6127 27.1877C34.6127 32.4877 30.3002 36.8002 25.0002 36.8002ZM25.0002 21.4127C21.8189 21.4127 19.2314 24.0002 19.2314 27.1814C19.2314 30.3627 21.8189 32.9502 25.0002 32.9502C28.1814 32.9502 30.7689 30.3627 30.7689 27.1814C30.7689 24.0064 28.1814 21.4127 25.0002 21.4127Z" fill="#282828"/>
<path d="M30.1312 47.0563H19.875C12.2937 47.0563 8.4875 47.0562 5.41875 45.0062C4.08125 44.1125 2.95 42.9813 2.05625 41.6437C1.33125 40.5562 0.84375 39.3438 0.53125 37.8312C0.31875 36.7937 0.98125 35.775 2.025 35.5563C3.0625 35.3438 4.08125 36.0062 4.3 37.05C4.5125 38.0625 4.8125 38.8437 5.25625 39.5062C5.86875 40.4187 6.64375 41.1938 7.55625 41.8063C9.65625 43.2125 13.075 43.2125 19.875 43.2125H30.1312C36.9375 43.2125 40.35 43.2125 42.4562 41.8063C43.3687 41.1938 44.1437 40.4187 44.7562 39.5062C46.1625 37.4062 46.1625 33.9875 46.1625 27.1875C46.1625 20.3813 46.1625 16.9688 44.7562 14.8687C44.1437 13.9562 43.3687 13.1813 42.4562 12.5688C40.3562 11.1625 36.9375 11.1625 30.1375 11.1625H19.8687C13.0625 11.1625 9.65 11.1625 7.54375 12.5688C6.63125 13.1813 5.85625 13.9562 5.24375 14.8687C3.84375 16.9625 3.84375 20.375 3.84375 27.1812L1.91875 27.1875L0 27.1812C0 19.6 0 15.8 2.05 12.725C2.94375 11.3875 4.075 10.2563 5.4125 9.3625C8.4875 7.3125 12.2875 7.3125 19.8687 7.3125H30.125C37.7062 7.3125 41.5125 7.3125 44.5812 9.3625C45.9187 10.2563 47.05 11.3875 47.9437 12.725C49.9937 15.8 49.9937 19.6 49.9937 27.1812C49.9937 34.7625 49.9937 38.5688 47.9437 41.6375C47.05 42.975 45.9187 44.1063 44.5812 45C41.5125 47.0563 37.7125 47.0563 30.1312 47.0563Z" fill="#282828"/>
<path d="M40.3874 21.4125H39.1062C38.0437 21.4125 37.1812 20.55 37.1812 19.4875C37.1812 18.425 38.0437 17.5625 39.1062 17.5625H40.3874C41.4499 17.5625 42.3124 18.425 42.3124 19.4875C42.3124 20.55 41.4437 21.4125 40.3874 21.4125Z" fill="#282828"/>
<path d="M31.4126 4.75039H18.5876C17.5251 4.75039 16.6626 3.88789 16.6626 2.82539C16.6626 1.76289 17.5251 0.900391 18.5876 0.900391H31.4063C32.4688 0.900391 33.3313 1.76289 33.3313 2.82539C33.3313 3.88789 32.4751 4.75039 31.4126 4.75039Z" fill="#282828"/>
</svg>
