<svg xmlns="http://www.w3.org/2000/svg" xmlns:xlink="http://www.w3.org/1999/xlink" width="200" height="200" viewBox="0 0 200 200"><defs><style>.a,.b{fill:#d877b5;}.a,.f{stroke:#99427f;stroke-linecap:round;stroke-linejoin:round;stroke-width:5px;}.c{clip-path:url(#a);}.d{opacity:0.25;}.e{fill:#fff;}.f{fill:none;}.g{fill:#83b70f;}.h{fill:#aace78;}.i{fill:#ffd800;}.j{fill:#ff9c00;}.k{fill:#f3e667;}</style><clipPath id="a"><path class="a" d="M188.29,100c0,9.0768-9.5352,16.5361-12.1946,24.7263-2.7562,8.4883.4782,20.109-4.6638,27.1744-5.1934,7.136-17.28,7.626-24.4156,12.8193-7.0653,5.1419-11.2379,16.514-19.7261,19.27-8.19,2.6593-18.2128-4.0014-27.2894-4.0014s-19.1,6.6606-27.29,4.0012c-8.4883-2.7562-12.6609-14.1284-19.7263-19.27-7.1359-5.1934-19.2221-5.6835-24.4154-12.82-5.1419-7.0654-1.9073-18.6859-4.6634-27.1741-2.6593-8.19-12.1945-15.6493-12.1945-24.7259s9.5352-16.5361,12.1946-24.7263c2.7562-8.4883-.4782-20.109,4.6638-27.1744,5.1934-7.136,17.28-7.626,24.4156-12.8193C60.05,30.1381,64.2224,18.766,72.7106,16.01c8.19-2.6593,18.2128,4.0014,27.2894,4.0014s19.1-6.6606,27.29-4.0012c8.4883,2.7562,12.6609,14.1284,19.7263,19.27,7.1359,5.1934,19.2221,5.6835,24.4154,12.8195,5.1419,7.0654,1.9073,18.6859,4.6634,27.1741C178.7543,83.4642,188.29,90.9234,188.29,100Z"/></clipPath></defs><path class="b" d="M188.29,100c0,9.0768-9.5352,16.5361-12.1946,24.7263-2.7562,8.4883.4782,20.109-4.6638,27.1744-5.1934,7.136-17.28,7.626-24.4156,12.8193-7.0653,5.1419-11.2379,16.514-19.7261,19.27-8.19,2.6593-18.2128-4.0014-27.2894-4.0014s-19.1,6.6606-27.29,4.0012c-8.4883-2.7562-12.6609-14.1284-19.7263-19.27-7.1359-5.1934-19.2221-5.6835-24.4154-12.82-5.1419-7.0654-1.9073-18.6859-4.6634-27.1741-2.6593-8.19-12.1945-15.6493-12.1945-24.7259s9.5352-16.5361,12.1946-24.7263c2.7562-8.4883-.4782-20.109,4.6638-27.1744,5.1934-7.136,17.28-7.626,24.4156-12.8193C60.05,30.1381,64.2224,18.766,72.7106,16.01c8.19-2.6593,18.2128,4.0014,27.2894,4.0014s19.1-6.6606,27.29-4.0012c8.4883,2.7562,12.6609,14.1284,19.7263,19.27,7.1359,5.1934,19.2221,5.6835,24.4154,12.8195,5.1419,7.0654,1.9073,18.6859,4.6634,27.1741C178.7543,83.4642,188.29,90.9234,188.29,100Z"/><g class="c"><g class="d"><path class="e" d="M100,100.0069H7.064A92.5652,92.5652,0,0,1,14.11,64.4182l.0276.0138Z"/><path class="e" d="M100,100.0069l-65.717,65.717-.0138.0138A92.7826,92.7826,0,0,1,14.11,135.5818l.0276-.0138Z"/><path class="e" d="M100,100.0069v92.936a92.7533,92.7533,0,0,1-35.5749-7.0461l.0138-.0276Z"/><path class="e" d="M165.717,165.7239l.0138.0138a92.7826,92.7826,0,0,1-30.1559,20.1591l-.0138-.0276L100,100.0069Z"/><path class="e" d="M100,100.0069h92.936a92.7533,92.7533,0,0,1-7.0461,35.5749l-.0276-.0138Z"/><path class="e" d="M185.89,64.4182l-.0276.0138L100,100.0069,165.717,34.29l.0276-.0138A92.8325,92.8325,0,0,1,185.89,64.4182Z"/><path class="e" d="M135.5749,14.1032l-.0138.0276L100,100.0069V7.0571A92.7533,92.7533,0,0,1,135.5749,14.1032Z"/><path class="e" d="M34.2554,34.2761a92.8793,92.8793,0,0,1,30.17-20.1729l.0138.0276L100,100.0069,34.283,34.29Z"/></g></g><path class="f" d="M188.29,100c0,9.0768-9.5352,16.5361-12.1946,24.7263-2.7562,8.4883.4782,20.109-4.6638,27.1744-5.1934,7.136-17.28,7.626-24.4156,12.8193-7.0653,5.1419-11.2379,16.514-19.7261,19.27-8.19,2.6593-18.2128-4.0014-27.2894-4.0014s-19.1,6.6606-27.29,4.0012c-8.4883-2.7562-12.6609-14.1284-19.7263-19.27-7.1359-5.1934-19.2221-5.6835-24.4154-12.82-5.1419-7.0654-1.9073-18.6859-4.6634-27.1741-2.6593-8.19-12.1945-15.6493-12.1945-24.7259s9.5352-16.5361,12.1946-24.7263c2.7562-8.4883-.4782-20.109,4.6638-27.1744,5.1934-7.136,17.28-7.626,24.4156-12.8193C60.05,30.1381,64.2224,18.766,72.7106,16.01c8.19-2.6593,18.2128,4.0014,27.2894,4.0014s19.1-6.6606,27.29-4.0012c8.4883,2.7562,12.6609,14.1284,19.7263,19.27,7.1359,5.1934,19.2221,5.6835,24.4154,12.8195,5.1419,7.0654,1.9073,18.6859,4.6634,27.1741C178.7543,83.4642,188.29,90.9234,188.29,100Z"/><path d="M18.91,82.8768c.311-1.2872.6362-2.5712.93-3.8623a33.8712,33.8712,0,0,1,5.0038-11.5992c.9205-1.358,2.0022-1.9575,3.5842-1.1972,1.3986,1.403,1.4331,2.1927.2774,3.9959-4.759,7.4248-6.3651,15.5207-4.1352,24.0263,3.2576,12.4257,11.5142,20.6628,23.0667,25.7555,7.2389,3.1912,14.1772,2.0054,20.8314-1.8616a39.3655,39.3655,0,0,0,12.0115-9.87c8.9063-10.5518,10.6633-24.1638,4.5317-35.6583A28.2818,28.2818,0,0,0,69.81,59.4381c-.1378.3627-.25.6-.3192.8492q-1.3857,5.0169-2.7571,10.0377a2.3906,2.3906,0,1,1-4.678-.945,19.9135,19.9135,0,0,1,.4478-2.0034c.8414-3.13,1.6965-6.2565,2.6646-9.818L54.39,56.9962l-7.3427.7875,2.44,8.033c.1893.9729.3685,1.9479.57,2.9182.4808,2.3178-.0427,3.1652-2.3146,3.7177a3.0282,3.0282,0,0,1-2.3237-2.6288c-.818-3.4849-1.8247-6.9255-2.8271-10.6489-2.1174,1.1484-3.91,2.0179-5.5921,3.0647-1.4117.8785-2.6283.9149-3.831-.2647-.6882-1.96-.4713-2.7385,1.3324-3.8,1.9867-1.1692,4.0432-2.22,6.1387-3.36-3.3567-7.2372-7.5376-13.8426-14.4231-18.3465-1.4321-.9368-1.8056-2.3027-1.0515-3.486.8116-1.2735,2.1516-1.4543,3.7262-.43,6.23,4.0514,10.5848,9.7437,14.0581,16.1893.82,1.5216,1.5467,3.0935,2.3688,4.7477a44.3914,44.3914,0,0,1,21.5266-.0327c1.4771-2.7127,2.8066-5.3979,4.3563-7.9494A39.26,39.26,0,0,1,83.5975,32.4028c.9919-.6319,2.0993-.8711,2.8867.0131a4.1637,4.1637,0,0,1,.8112,2.5009c.0147.4715-.5992,1.11-1.0892,1.4276C79.2421,40.8539,75,47.4859,71.6193,54.8463c1.8431.9778,3.6943,1.8589,5.4454,2.907A32.0579,32.0579,0,0,1,91.0076,74.3888a1.9424,1.9424,0,0,0,2.1307,1.4969,358.8689,358.8689,0,0,1,43.1863,3.6969,2.2261,2.2261,0,0,0,1.6888-.657,10.7575,10.7575,0,0,1,18.4878,3.6229,2.0464,2.0464,0,0,0,1.5923,1.4294c5.6008,1.8154,11.2408,3.54,16.7394,5.6315,5.149,1.9587,7.2036,5.5656,5.8528,10.8846-1.1229,4.4214-1.2292,8.9578-2.2575,13.354a35.7259,35.7259,0,0,1-10.816,18.21,2.2708,2.2708,0,0,0-.78,2.4429c1.3294,6.3963,2.5937,12.8061,3.8575,19.2158a1.5617,1.5617,0,0,0,1.536,1.4624,27.7436,27.7436,0,0,1,4.3331.8629,6.0459,6.0459,0,0,1,4.25,7.0193,5.9468,5.9468,0,0,1-6.36,4.9676,70.3591,70.3591,0,0,1-10.7181-1.9432c-4.3394-1.2276-6.9936-4.3808-7.9667-8.8036-1.0974-4.9872-2.0954-9.9964-3.1251-14.9405-4.0574,1.4412-7.9785,3.0826-12.0415,4.2136-4.9622,1.3812-10.0512,2.3021-15.07,3.4881-1.987.4695-3.9112,1.2119-5.904,1.6467a16.72,16.72,0,0,1-3.6191.1921c-2.9922-.0159-5.9841-.0943-8.9764-.1268-1.896-.0206-3.7924-.0039-5.7977-.0039.1419,1.6318.4788,2.71,2.2446,2.7725a18.363,18.363,0,0,1,3.2643.583,6.5112,6.5112,0,0,1,5.1028,6.8584,6.4334,6.4334,0,0,1-6.1506,6.0932c-3.3758.0985-6.7675.1858-10.1326-.0289a8.2753,8.2753,0,0,1-7.5927-5.7691c-1.3353-3.5445-2.5621-7.13-3.9186-10.6663a2.2043,2.2043,0,0,0-1.305-1.2467,69.0086,69.0086,0,0,1-22.5282-8.3688c-1.5425,4.2283-3.0483,8.3572-4.555,12.4857-.9378,2.57-1.8542,5.1477-2.8211,7.7065a8.6657,8.6657,0,0,1-8.4786,5.9172c-2.9036.0172-5.8075.0241-8.711-.002a6.51,6.51,0,0,1-6.7119-6.0254,6.1336,6.1336,0,0,1,5.4738-6.9229c3.6694-.319,5.177-2.0967,6.2079-5.4487,1.8377-5.9754,4.192-11.7933,6.3836-17.6572a1.942,1.942,0,0,0-.3489-2.4051,2.7347,2.7347,0,0,1-.6312-.9042c-1.7826-4.2487-5.2226-6.71-8.9267-9.2489-8.8025-6.0345-14.8766-14.22-17.39-24.7865-.2348-.9873-.5285-1.9606-.7949-2.94Zm140.6743,27.2248a2.746,2.746,0,0,1,2.9245,2.6829c.148,1.122.4676,2.2214.7348,3.4434.3647-.1593.6057-.2375.82-.362,6.4258-3.7425,10.7305-9.0327,12.08-16.5.4788-2.649-.1806-4.2069-2.6578-5.1638-4.0175-1.552-8.0943-2.952-12.16-4.3773-1.1038-.3869-2.2565-.6342-3.606-1.0059.8087,4.0651,1.55,7.8241,2.3065,11.58.4133,2.0529.1533,2.6473-1.6933,3.7193-2.0411-.2086-2.5307-.6426-2.9434-2.6246-.4347-2.0879-.8646-4.1769-1.3627-6.5851-1.3641,2.8827-2.6519,5.4625-3.7932,8.1054a4.5612,4.5612,0,0,0-.2932,2.5469c1.6936,8.4674,3.4644,16.9193,5.2135,25.3756q2.56,12.3751,5.1165,24.751c.5853,2.8424,2.0261,5.098,4.9073,5.8445a85.49,85.49,0,0,0,9.3174,1.6972,1.8787,1.8787,0,0,0,1.4931-1.1182,1.9938,1.9938,0,0,0-1.0811-1.5437,15.0233,15.0233,0,0,0-3.0835-.6353c-3.8685-.7008-5.1509-1.9561-5.9022-5.7246q-4.0308-20.2176-8.0767-40.4322C157.4275,111.688,157.68,111.1294,159.5843,110.1016Zm-61.8311,9.5756a2.9115,2.9115,0,0,1,3.7494-1.4024c2.1778.6039,4.4419.8956,6.6221,1.4927a1.9084,1.9084,0,0,0,2.4457-.9613q11.4282-16.7092,22.9347-33.3649c.2592-.3766.4771-.7816.8117-1.3345a363.6234,363.6234,0,0,0-41.5544-3.483,35.1971,35.1971,0,0,1-1.02,17.1465,42.2808,42.2808,0,0,1-8.6939,14.8946c2.2974.7934,4.3774,1.5134,6.4585,2.23,1.9923.6861,2.3693,1.253,2.24,3.3819a2.681,2.681,0,0,1-3.6474,1.1888c-2.5176-.9281-5.0768-1.7464-7.5765-2.7189a1.9385,1.9385,0,0,0-2.2482.4124,42.0388,42.0388,0,0,1-4.4206,3.3242c-6.4946,4.1209-13.3479,7.0121-21.3038,5.7989-.8211-.1252-1.6384-.2757-2.7395-.4622a39.5,39.5,0,0,0,10.911,10.8056c.4391-3.63,2.77-5.524,5.63-7.0662,3.1053-1.6742,6.1175-3.52,9.1813-5.2721,7.1931-4.113,14.99-1.2629,17.8406,6.5259,1.8267,4.9913,3.6159,9.9964,5.4572,14.9823.18.4883.5868,1.2436.9263,1.2647,1.9549.1215,3.9212.0592,6.1044.0592-6.0969-8.004-5.0226-15.4346.9024-22.7208-2.2842-.5271-4.3342-.9823-6.375-1.4759C98.2175,122.3974,97.8341,121.9039,97.7532,119.6772Zm8.3338,16.5552.437.172a10.7256,10.7256,0,0,0,20.1778,5.1139c1.0665-1.995,1.9782-4.0734,2.9443-6.1214q10.9538-23.22,21.8962-46.445c1.5463-3.285.6293-6.6283-2.21-8.2817a6.0039,6.0039,0,0,0-8.0892,1.9435q-16.4407,23.8305-32.7822,47.7289C107.2979,132.0531,106.8609,134.2573,106.087,136.2324Zm-5.6083,27.1039c1.4254,0,2.8512-.0187,4.2762.0058,1.1809.02,2.1461-.29,2.2989-1.6211.1658-1.4444-.8232-1.9159-2.0189-2.1276-1.2976-.23-2.5889-.551-3.897-.653a3.8889,3.8889,0,0,1-3.7289-3.0056c-2.76-7.9042-5.6553-15.7615-8.5315-23.6249-1.773-4.8475-6.3874-6.5163-10.8776-3.9543q-5.2875,3.0169-10.54,6.0944c-1.9424,1.1347-2.5378,2.8382-1.6237,4.4882s2.8611,2.0548,4.8181.9513c2.1579-1.2167,4.2909-2.4776,6.4374-3.7146q5.2977-3.053,7.3979,2.6833,3.8643,10.6138,7.7287,21.2277c.8965,2.45,2.05,3.2381,4.618,3.2495C98.05,163.3408,99.2644,163.3364,100.4787,163.3363Zm30.2905-19.1509a84.69,84.69,0,0,0,20.8323-6.9055c-.796-3.8267-1.5728-7.5613-2.3539-11.3163a52.31,52.31,0,0,1-7.3671.81c-2.4787-.0653-3.549.9969-4.461,3.1308C135.3965,134.6376,133.09,139.25,130.7692,144.1854ZM50.978,134.9046c-2.6129,7.1931-5.2155,14.2575-7.729,21.3534a3.5345,3.5345,0,0,1-3.1693,2.6214c-1.5146.19-3.0169.483-4.52.7542-1.1658.21-2.0044.7765-1.8348,2.1142.157,1.238,1.0317,1.5964,2.1631,1.5917,2.8494-.0119,5.699.0092,8.5483-.0093a3.8707,3.8707,0,0,0,3.8945-2.6814q3.7655-10.2285,7.4324-20.4927a1.6569,1.6569,0,0,0-.3368-1.442C54.0442,137.4227,52.5605,136.2406,50.978,134.9046ZM172.9893,115.581c-2.869,1.8577-5.55,3.5784-8.2048,5.3382a1.0962,1.0962,0,0,0-.4441.8628c.32,1.83.7166,3.6474,1.143,5.7353A31.1886,31.1886,0,0,0,172.9893,115.581Zm-24.7138,5.6811c-.6859-3.2868-1.328-6.3638-2.0592-9.8679-1.7894,3.809-3.3758,7.1857-5.0612,10.7734Zm-66.5442,23.95-1.8653-5.1433-5.5647,3.2385c2.1209.5826,3.837,1.0634,5.559,1.5216C80.4008,144.9723,80.9575,145.0554,81.7313,145.2117Z"/><path class="g" d="M68.4688,118.1342c-6.6542,3.867-13.5925,5.0528-20.8314,1.8616-11.5525-5.0927-19.8091-13.33-23.0667-25.7555-2.23-8.5056-.6238-16.6015,4.1352-24.0263,1.1557-1.8032,1.1212-2.5929-.2774-3.9959q2.3708-2.1209,4.74-4.2433c1.2027,1.18,2.4193,1.1433,3.831.2648,1.6822-1.0468,3.4747-1.9163,5.5921-3.0647,1.0024,3.7234,2.0091,7.164,2.8271,10.6489a3.0282,3.0282,0,0,0,2.3237,2.6288c-.3173,3.6217-.7836,7.2391-.8875,10.8668A26.2079,26.2079,0,0,0,47.76,88.6c-.4352.9993,6.0544,16.3911,6.3707,16.8407a37.581,37.581,0,0,0,8.0806,8.7809C64.1776,115.6861,66.375,116.8406,68.4688,118.1342ZM34.786,88.4686h.0058c0-.6853.041-1.3736-.0086-2.0553a2.1957,2.1957,0,0,0-2.2223-2.2247,2.0752,2.0752,0,0,0-2.3744,1.8558,21.3746,21.3746,0,0,0,.0306,4.8709,2.0527,2.0527,0,0,0,2.4366,1.7594,2.1712,2.1712,0,0,0,2.122-2.1512C34.8336,89.8432,34.786,89.1539,34.786,88.4686Z"/><path class="h" d="M68.4688,118.1342c-2.0938-1.2936-4.2912-2.4481-6.258-3.9123A37.581,37.581,0,0,1,54.13,105.441a37.36,37.36,0,0,1-7.2755-22.1216c0-3.6292.57-7.2451.8875-10.8668,2.2719-.5525,2.7954-1.4,2.3146-3.7177-.2014-.97-.3806-1.9453-.57-2.9183l4.9028-8.82,10.7785.5624c-.9681,3.5615-1.8232,6.6879-2.6646,9.818a19.9135,19.9135,0,0,0-.4478,2.0034,2.3906,2.3906,0,1,0,4.678.945q1.3619-5.0234,2.7571-10.0377c.0688-.2493.1814-.4865.3192-.8492A28.2818,28.2818,0,0,1,85.012,72.6064c6.1316,11.4945,4.3746,25.1065-4.5317,35.6583A39.3655,39.3655,0,0,1,68.4688,118.1342Zm9.0049-29.7368h-.0053c0,.6853-.0341,1.3727.0073,2.0555a2.1749,2.1749,0,0,0,2.0585,2.2139,2.08,2.08,0,0,0,2.53-1.8332A20.7935,20.7935,0,0,0,82.04,85.965a2.0538,2.0538,0,0,0-2.428-1.7727,2.1772,2.1772,0,0,0-2.1288,2.15C77.4287,87.0233,77.4737,87.7121,77.4737,88.3974Z"/><path class="h" d="M106.087,136.2324c.7739-1.9751,1.2109-4.1793,2.3741-5.89q16.28-23.94,32.7822-47.7289a6.0039,6.0039,0,0,1,8.0892-1.9435c2.8391,1.6534,3.7561,4.9967,2.21,8.2817q-10.9344,23.229-21.8962,46.445c-.9661,2.048-1.8778,4.1264-2.9443,6.1214a10.7256,10.7256,0,0,1-20.1778-5.1139Z"/><path class="g" d="M91.7468,118.2769c.13-2.1289-.2473-2.6958-2.24-3.3819-2.0811-.7167-4.1611-1.4367-6.4585-2.23A42.2808,42.2808,0,0,0,91.7426,97.77a35.1971,35.1971,0,0,0,1.02-17.1465,363.6234,363.6234,0,0,1,41.5544,3.483c-.3346.5529-.5525.9579-.8117,1.3345q-11.4744,16.6776-22.9347,33.3649a1.9084,1.9084,0,0,1-2.4457.9613c-2.18-.5971-4.4443-.8888-6.6221-1.4927a2.9118,2.9118,0,0,0-3.7494,1.402Q94.75,118.9765,91.7468,118.2769Z"/><path class="i" d="M91.7468,118.2769q3.0032.7,6.0064,1.4c.0809,2.2271.4643,2.7206,2.6362,3.246,2.0408.4936,4.0908.9488,6.375,1.4759-5.925,7.2862-6.9993,14.7168-.9024,22.7208-2.1832,0-4.1495.0623-6.1044-.0592-.34-.0211-.746-.7764-.9263-1.2647-1.8413-4.9859-3.63-9.991-5.4572-14.9823-2.85-7.7888-10.6475-10.6389-17.8406-6.5259-3.0638,1.7519-6.076,3.5979-9.1813,5.2721-2.8607,1.5422-5.1913,3.4363-5.63,7.0662A39.5,39.5,0,0,1,49.8108,125.82c1.1011.1865,1.9184.337,2.7395.4622,7.9559,1.2132,14.8092-1.678,21.3038-5.7989a42.0388,42.0388,0,0,0,4.4206-3.3242,1.9385,1.9385,0,0,1,2.2482-.4124c2.5.9725,5.0589,1.7908,7.5765,2.7189A2.681,2.681,0,0,0,91.7468,118.2769Z"/><path class="j" d="M159.5842,110.1016c-1.9047,1.0278-2.1567,1.5864-1.7391,3.6736q4.0446,20.2149,8.0767,40.4322c.7513,3.7685,2.0337,5.0238,5.9022,5.7246a15.0233,15.0233,0,0,1,3.0835.6353,1.9938,1.9938,0,0,1,1.0811,1.5437,1.8787,1.8787,0,0,1-1.4931,1.1182,85.49,85.49,0,0,1-9.3174-1.6972c-2.8812-.7465-4.322-3.0021-4.9073-5.8445q-2.5488-12.3774-5.1165-24.751c-1.7491-8.4563-3.52-16.9082-5.2135-25.3756a4.5612,4.5612,0,0,1,.2932-2.5469c1.1413-2.6429,2.4291-5.2227,3.7932-8.1054.4981,2.4082.928,4.4972,1.3627,6.5851.4127,1.982.9023,2.416,2.943,2.6246Q158.9581,107.11,159.5842,110.1016Z"/><path class="h" d="M100.4787,163.3363c-1.2143,0-2.4285.0045-3.6428-.0009-2.5679-.0114-3.7215-.799-4.618-3.2495q-3.8809-10.6079-7.7287-21.2277-2.0871-5.732-7.3979-2.6833c-2.1465,1.237-4.2795,2.4979-6.4374,3.7146-1.957,1.1035-3.9036.7-4.8181-.9513s-.3187-3.3535,1.6237-4.4882q5.2565-3.0707,10.54-6.0944c4.49-2.562,9.1046-.8932,10.8776,3.9543,2.8762,7.8634,5.7714,15.7207,8.5315,23.6249a3.8889,3.8889,0,0,0,3.7289,3.0056c1.3081.102,2.5994.4233,3.897.653,1.1957.2117,2.1847.6832,2.0189,2.1276-.1528,1.3311-1.118,1.6415-2.2989,1.6211C103.33,163.3176,101.9041,163.3363,100.4787,163.3363Z"/><path class="g" d="M159.5842,110.1016q-.6258-2.9916-1.2513-5.9833c1.847-1.072,2.107-1.6664,1.6937-3.7193-.7563-3.7561-1.4978-7.5151-2.3065-11.58,1.35.3717,2.5022.619,3.606,1.0059,4.0654,1.4253,8.1422,2.8253,12.16,4.3773,2.4772.9569,3.1366,2.5148,2.6578,5.1638-1.35,7.4674-5.6546,12.7576-12.08,16.5-.2139.1245-.4549.2027-.82.362-.2672-1.222-.5868-2.3214-.7348-3.4434A2.746,2.746,0,0,0,159.5842,110.1016Z"/><path class="i" d="M130.7692,144.1854c2.32-4.9359,4.6273-9.5478,6.65-14.2812.912-2.1339,1.9823-3.1961,4.461-3.1308a52.31,52.31,0,0,0,7.3671-.81c.7811,3.755,1.5579,7.49,2.3539,11.3163A84.69,84.69,0,0,1,130.7692,144.1854Z"/><path class="g" d="M50.978,134.9046c1.5825,1.336,3.0662,2.5181,4.448,3.81a1.6569,1.6569,0,0,1,.3368,1.442q-3.6579,10.267-7.4324,20.4927a3.8707,3.8707,0,0,1-3.8945,2.6814c-2.8493.0185-5.6989-.0026-8.5483.0093-1.1314.0047-2.0061-.3537-2.1631-1.5917-.17-1.3377.669-1.904,1.8348-2.1142,1.5035-.2712,3.0058-.5644,4.52-.7542a3.5345,3.5345,0,0,0,3.1693-2.6214C45.7625,149.1621,48.3651,142.0977,50.978,134.9046Z"/><path class="k" d="M172.9893,115.581a31.1886,31.1886,0,0,1-7.5059,11.9363c-.4264-2.0879-.8228-3.9049-1.143-5.7353a1.0962,1.0962,0,0,1,.4441-.8628C167.4394,119.1594,170.12,117.4387,172.9893,115.581Z"/><path class="g" d="M148.2755,121.2621l-7.12.9055c1.6854-3.5877,3.2718-6.9644,5.0612-10.7734C146.9475,114.8983,147.59,117.9753,148.2755,121.2621Z"/><path class="g" d="M54.39,56.9962l-4.9028,8.82c-.777-2.5577-1.5539-5.1156-2.44-8.0329Z"/><path class="k" d="M81.7313,145.2117c-.7738-.1563-1.3305-.2394-1.871-.3832-1.722-.4582-3.4381-.939-5.559-1.5216l5.5647-3.2385Z"/><path d="M34.786,88.4686c0,.6853.0476,1.3746-.01,2.0549a2.1712,2.1712,0,0,1-2.122,2.1512,2.0527,2.0527,0,0,1-2.4366-1.7594,21.3746,21.3746,0,0,1-.0306-4.8709,2.0752,2.0752,0,0,1,2.3744-1.8558,2.1957,2.1957,0,0,1,2.2223,2.2247c.05.6817.0086,1.37.0086,2.0553Z"/><path d="M77.4737,88.3974c0-.6853-.045-1.3741.01-2.055a2.1772,2.1772,0,0,1,2.1288-2.15A2.0538,2.0538,0,0,1,82.04,85.965a20.7935,20.7935,0,0,1,.0238,4.8686,2.08,2.08,0,0,1-2.53,1.8332,2.1749,2.1749,0,0,1-2.0585-2.2139c-.0414-.6828-.0073-1.37-.0073-2.0555Z"/><path d="M55.814,104.96c-4.5747,0-8.2959-3.3614-8.2959-7.4922a1.9131,1.9131,0,1,1,3.8261,0c0,2.0215,2.0054,3.666,4.47,3.666s4.47-1.6445,4.47-3.666a1.9131,1.9131,0,1,1,3.8262,0C64.11,101.5986,60.3887,104.96,55.814,104.96Z"/></svg>