<svg width="32" height="44" viewBox="0 0 32 44" fill="none" xmlns="http://www.w3.org/2000/svg">
<path d="M3.7003 0.456055C1.65649 0.456055 0 2.11255 0 4.15635V26.7311V39.8437C0 41.8875 1.65649 43.544 3.7003 43.544H28.2997C30.3435 43.544 32 41.8875 32 39.8437V26.7311V12.8175L19.639 0.456055H3.7003Z" fill="#BC4749"/>
<path d="M32 12.8175H23.2575C21.2587 12.8175 19.6385 11.1974 19.6385 9.1986V0.456055L32 12.8175Z" fill="#F2979C"/>
<path d="M8.87417 22.9331H6.02845C5.56597 22.9331 5.19063 23.308 5.19063 23.7709V28.4886V31.7192C5.19063 32.1822 5.56597 32.557 6.02845 32.557C6.49093 32.557 6.86627 32.1822 6.86627 31.7192V29.3264H8.87417C10.0854 29.3264 11.0707 28.3406 11.0707 27.1299V25.1301C11.0707 23.9189 10.0854 22.9331 8.87417 22.9331ZM9.39506 27.1299C9.39506 27.4171 9.16142 27.6508 8.87417 27.6508H6.86627V24.6087H8.87417C9.16142 24.6087 9.39506 24.8424 9.39506 25.1301V27.1299Z" fill="white"/>
<path d="M15.3788 22.9331H13.8248C13.3623 22.9331 12.987 23.308 12.987 23.7709V31.7192C12.987 32.1822 13.3623 32.557 13.8248 32.557H15.3788C17.3025 32.557 18.8671 30.992 18.8671 29.0684V26.4223C18.8671 24.4982 17.3025 22.9331 15.3788 22.9331ZM17.1914 29.0684C17.1914 30.068 16.3785 30.8814 15.3788 30.8814H14.6626V24.6087H15.3788C16.3785 24.6087 17.1914 25.4222 17.1914 26.4218V29.0684Z" fill="white"/>
<path d="M25.9714 22.9331H21.767C21.304 22.9331 20.9292 23.308 20.9292 23.7709V31.7192C20.9292 32.1822 21.304 32.557 21.767 32.557C22.2299 32.557 22.6048 32.1822 22.6048 31.7192V28.5829H24.5203C24.9833 28.5829 25.3581 28.208 25.3581 27.7451C25.3581 27.2821 24.9833 26.9073 24.5203 26.9073H22.6048V24.6087H25.9714C26.4344 24.6087 26.8092 24.2339 26.8092 23.7709C26.8092 23.308 26.4344 22.9331 25.9714 22.9331Z" fill="white"/>
</svg>
