<svg xmlns="http://www.w3.org/2000/svg" width="200" height="200" viewBox="0 0 200 200"><defs><style>.a{fill:#83b70f;}.b{fill:#fff;}</style></defs><path class="a" d="M188.29,100c0,9.0768-9.5352,16.5361-12.1946,24.7263-2.7562,8.4883.4782,20.109-4.6638,27.1744-5.1934,7.136-17.28,7.626-24.4156,12.8193-7.0653,5.1419-11.2379,16.514-19.7261,19.27-8.19,2.6593-18.2128-4.0014-27.2894-4.0014s-19.1,6.6606-27.29,4.0012c-8.4883-2.7562-12.6609-14.1284-19.7263-19.27-7.1359-5.1934-19.2221-5.6835-24.4154-12.82-5.1419-7.0654-1.9073-18.6859-4.6634-27.1741-2.6593-8.19-12.1945-15.6493-12.1945-24.7259s9.5352-16.5361,12.1946-24.7263c2.7562-8.4883-.4782-20.109,4.6638-27.1744,5.1934-7.136,17.28-7.626,24.4156-12.8193C60.05,30.1381,64.2224,18.766,72.7106,16.01c8.19-2.6593,18.2128,4.0014,27.2894,4.0014s19.1-6.6606,27.29-4.0012c8.4883,2.7562,12.6609,14.1284,19.7263,19.27,7.1359,5.1934,19.2221,5.6835,24.4154,12.8195,5.1419,7.0654,1.9073,18.6859,4.6634,27.1741C178.7543,83.4642,188.29,90.9234,188.29,100Z"/><path class="b" d="M137.8867,92.68a30.3553,30.3553,0,0,0,5.8768-18.1372c0-15.7992-11.6452-28.6527-25.9594-28.6527s-25.96,12.8535-25.96,28.6527A30.3518,30.3518,0,0,0,97.7214,92.68c-.4327.46-.8461.9369-1.25,1.4222-.5612-.0487-1.1233-.0857-1.6863-.1032a29.8954,29.8954,0,0,0-8.5328-16.6922C75.25,66.303,58.1851,65.4631,48.2141,75.4334s-9.13,27.0348,1.8734,38.038A29.8913,29.8913,0,0,0,66.78,122.0038a33.7905,33.7905,0,0,0,33.0384,32.0829,27.1687,27.1687,0,0,0,17.7522-6.3543c.078.0006.155.0065.2331.0065,15.9708,0,28.9638-14.3543,28.9638-31.9978A33.6247,33.6247,0,0,0,137.8867,92.68Z"/></svg>