<?xml version="1.0" encoding="utf-8"?>
<!-- Generator: Adobe Illustrator 25.2.3, SVG Export Plug-In . SVG Version: 6.00 Build 0)  -->
<svg version="1.1" id="Capa_1" xmlns="http://www.w3.org/2000/svg" xmlns:xlink="http://www.w3.org/1999/xlink" x="0px" y="0px"
	 viewBox="0 0 20 20" style="enable-background:new 0 0 20 20;" xml:space="preserve">
<path d="M19.8,9.9l-1.2-1.4c0.7-0.6,1.1-1,1.2-1.1l-1.4-1.2l0,0c0,0-0.8,0.8-2.2,1.7c-1.1,0.6-2.3,1.1-3.5,1.4c-0.1,0-0.1,0-0.2,0
	c-0.8,0.2-1.7,0.2-2.5,0.2c-0.9,0-1.7-0.1-2.5-0.2c0,0,0,0,0,0c-0.1,0-0.1,0-0.2,0C6,9.1,4.9,8.6,3.8,8C3.6,7.9,3.4,7.8,3.3,7.7
	c0,0-0.1-0.1-0.1-0.1c-1-0.7-1.6-1.3-1.6-1.3l0,0L0.2,7.5c0,0,0.4,0.5,1.2,1.1L0.2,9.9c-0.3,0.4-0.3,1,0.1,1.3
	c0.2,0.1,0.4,0.2,0.6,0.2c0.3,0,0.5-0.1,0.7-0.3l1.3-1.5c0.9,0.5,1.9,1,2.9,1.3c0.1,0,0.1,0,0.2,0.1l-0.5,1.6
	c-0.2,0.5,0.1,1,0.6,1.1c0.1,0,0.2,0,0.3,0c0.4,0,0.7-0.2,0.9-0.6l0.6-1.8c0.7,0.1,1.4,0.2,2.2,0.2c0.7,0,1.5-0.1,2.2-0.2l0.6,1.8
	c0.1,0.4,0.5,0.6,0.9,0.6c0.1,0,0.2,0,0.3,0c0.5-0.2,0.7-0.7,0.6-1.1L14,10.9c0.1,0,0.1,0,0.2-0.1c1-0.3,2-0.7,2.9-1.3l1.3,1.5
	c0.2,0.2,0.4,0.3,0.7,0.3c0.2,0,0.4-0.1,0.6-0.2C20.1,10.9,20.1,10.3,19.8,9.9z"/>
</svg>
