<svg xmlns="http://www.w3.org/2000/svg" xmlns:xlink="http://www.w3.org/1999/xlink" width="200" height="200" viewBox="0 0 200 200"><defs><style>.a,.b{fill:#ff9c00;}.a,.f{stroke:#bc6f00;stroke-linecap:round;stroke-linejoin:round;stroke-width:5px;}.c{clip-path:url(#a);}.d{opacity:0.25;}.e{fill:#fff;}.f{fill:none;}.g{fill:#83b70f;}.h{fill:#d877b5;}.i{fill:#1b6303;}.j{fill:#eeffc0;}</style><clipPath id="a"><path class="a" d="M188.29,100c0,9.0768-9.5352,16.5361-12.1946,24.7263-2.7562,8.4883.4782,20.109-4.6638,27.1744-5.1934,7.136-17.28,7.626-24.4156,12.8193-7.0653,5.1419-11.2379,16.514-19.7261,19.27-8.19,2.6593-18.2128-4.0014-27.2894-4.0014s-19.1,6.6606-27.29,4.0012c-8.4883-2.7562-12.6609-14.1284-19.7263-19.27-7.1359-5.1934-19.2221-5.6835-24.4154-12.82-5.1419-7.0654-1.9073-18.6859-4.6634-27.1741-2.6593-8.19-12.1945-15.6493-12.1945-24.7259s9.5352-16.5361,12.1946-24.7263c2.7562-8.4883-.4782-20.109,4.6638-27.1744,5.1934-7.136,17.28-7.626,24.4156-12.8193C60.05,30.1381,64.2224,18.766,72.7106,16.01c8.19-2.6593,18.2128,4.0014,27.2894,4.0014s19.1-6.6606,27.29-4.0012c8.4883,2.7562,12.6609,14.1284,19.7263,19.27,7.1359,5.1934,19.2221,5.6835,24.4154,12.8195,5.1419,7.0654,1.9073,18.6859,4.6634,27.1741C178.7543,83.4642,188.29,90.9234,188.29,100Z"/></clipPath></defs><path class="b" d="M188.29,100c0,9.0768-9.5352,16.5361-12.1946,24.7263-2.7562,8.4883.4782,20.109-4.6638,27.1744-5.1934,7.136-17.28,7.626-24.4156,12.8193-7.0653,5.1419-11.2379,16.514-19.7261,19.27-8.19,2.6593-18.2128-4.0014-27.2894-4.0014s-19.1,6.6606-27.29,4.0012c-8.4883-2.7562-12.6609-14.1284-19.7263-19.27-7.1359-5.1934-19.2221-5.6835-24.4154-12.82-5.1419-7.0654-1.9073-18.6859-4.6634-27.1741-2.6593-8.19-12.1945-15.6493-12.1945-24.7259s9.5352-16.5361,12.1946-24.7263c2.7562-8.4883-.4782-20.109,4.6638-27.1744,5.1934-7.136,17.28-7.626,24.4156-12.8193C60.05,30.1381,64.2224,18.766,72.7106,16.01c8.19-2.6593,18.2128,4.0014,27.2894,4.0014s19.1-6.6606,27.29-4.0012c8.4883,2.7562,12.6609,14.1284,19.7263,19.27,7.1359,5.1934,19.2221,5.6835,24.4154,12.8195,5.1419,7.0654,1.9073,18.6859,4.6634,27.1741C178.7543,83.4642,188.29,90.9234,188.29,100Z"/><g class="c"><g class="d"><path class="e" d="M100,100.0069H7.064A92.5652,92.5652,0,0,1,14.11,64.4182l.0276.0138Z"/><path class="e" d="M100,100.0069l-65.717,65.717-.0138.0138A92.7826,92.7826,0,0,1,14.11,135.5818l.0276-.0138Z"/><path class="e" d="M100,100.0069v92.936a92.7533,92.7533,0,0,1-35.5749-7.0461l.0138-.0276Z"/><path class="e" d="M165.717,165.7239l.0138.0138a92.7826,92.7826,0,0,1-30.1559,20.1591l-.0138-.0276L100,100.0069Z"/><path class="e" d="M100,100.0069h92.936a92.7533,92.7533,0,0,1-7.0461,35.5749l-.0276-.0138Z"/><path class="e" d="M185.89,64.4182l-.0276.0138L100,100.0069,165.717,34.29l.0276-.0138A92.8325,92.8325,0,0,1,185.89,64.4182Z"/><path class="e" d="M135.5749,14.1032l-.0138.0276L100,100.0069V7.0571A92.7533,92.7533,0,0,1,135.5749,14.1032Z"/><path class="e" d="M34.2554,34.2761a92.8793,92.8793,0,0,1,30.17-20.1729l.0138.0276L100,100.0069,34.283,34.29Z"/></g></g><path class="f" d="M188.29,100c0,9.0768-9.5352,16.5361-12.1946,24.7263-2.7562,8.4883.4782,20.109-4.6638,27.1744-5.1934,7.136-17.28,7.626-24.4156,12.8193-7.0653,5.1419-11.2379,16.514-19.7261,19.27-8.19,2.6593-18.2128-4.0014-27.2894-4.0014s-19.1,6.6606-27.29,4.0012c-8.4883-2.7562-12.6609-14.1284-19.7263-19.27-7.1359-5.1934-19.2221-5.6835-24.4154-12.82-5.1419-7.0654-1.9073-18.6859-4.6634-27.1741-2.6593-8.19-12.1945-15.6493-12.1945-24.7259s9.5352-16.5361,12.1946-24.7263c2.7562-8.4883-.4782-20.109,4.6638-27.1744,5.1934-7.136,17.28-7.626,24.4156-12.8193C60.05,30.1381,64.2224,18.766,72.7106,16.01c8.19-2.6593,18.2128,4.0014,27.2894,4.0014s19.1-6.6606,27.29-4.0012c8.4883,2.7562,12.6609,14.1284,19.7263,19.27,7.1359,5.1934,19.2221,5.6835,24.4154,12.8195,5.1419,7.0654,1.9073,18.6859,4.6634,27.1741C178.7543,83.4642,188.29,90.9234,188.29,100Z"/><path class="g" d="M82.8313,84.1656l.0414-.0049c.0835-.01.1681-.0214.2525-.0323.0731-.01.1457-.0186.2195-.0284.0842-.0113.1695-.0232.2545-.0348.0764-.0105.1522-.0207.2292-.0315l.2262-.0322c.2474-.0353.4969-.0714.75-.1083.378-.055.7606-.1107,1.1466-.1642a19.3884,19.3884,0,0,1,7.9424.1034A8.9889,8.9889,0,0,1,96.92,85.3471a8.8117,8.8117,0,0,1,2.0341,2.2342c.0655.1017.1289.2058.1914.311.1488.2508.2914.5088.4228.78a14.9978,14.9978,0,0,1,1.3168,4.8489,12.8657,12.8657,0,0,1,.0823,1.3369,15.2918,15.2918,0,0,1-2.4887,8.2928,17.2244,17.2244,0,0,1-3.162,3.6805l-.0005,0-.0025.002q-.2681.2349-.5471.46c-.0607.0493-.123.0972-.1844.1459-.1285.1018-.2579.2027-.39.3017-.0724.0544-.1457.1081-.2191.1617q-.1893.1385-.3829.273c-.0749.0521-.15.1042-.2256.1554-.14.0946-.2823.1872-.4255.2789-.0652.0418-.1295.0844-.1954.1256q-.3126.1954-.6347.3822c-.03.0174-.061.0337-.0911.0509q-.2809.16-.5689.3143c-.0766.0408-.1547.08-.2321.12q-.2241.1163-.4521.2288c-.0871.0428-.175.0848-.263.1267q-.2241.1065-.4525.2091c-.0874.0394-.1746.0789-.263.1174-.1694.0739-.341.1456-.5137.2164-.0714.0292-.1418.0595-.2138.0882q-.3658.1462-.7411.2834c-.05.0182-.1013.0351-.1515.0531q-.3047.109-.6148.2125c-.09.03-.182.0585-.2731.0877q-.2574.0825-.5186.1612-.1494.0447-.3.0881-.261.0753-.5262.1462c-.0975.0262-.1947.0527-.2931.0781-.0437.0113-.0863.0236-.13.0347.1971,2.1326.3755,4.1118.5406,5.9936.0693.7877.1065,1.5458.1425,2.2788.0339.6909.066,1.3433.1219,1.9582a5.6553,5.6553,0,0,0,1.3121,3.7152,4.6751,4.6751,0,0,0,.3644.3408q.14.1177.2891.2327a19.11,19.11,0,0,0,6.0813,2.78,39.117,39.117,0,0,0,7.6244,1.401c5.5178.4324,12.6377-1.6563,15.2324-7.2661a11.6022,11.6022,0,0,0,.6177-1.6714,32.3227,32.3227,0,0,0,.92-6.9006c.738-12.2263,1.2918-24.6093,1.649-36.8647-.0182.0015-.0363.0017-.0545.0031-.1406.0108-.2808.0194-.42.024l-.03.0008c-.0917.0027-.1833.0043-.2745.0043-.0324,0-.0645-.0019-.0969-.0023-.07-.0007-.14-.0026-.2092-.0049q-.1242-.0041-.2476-.0115c-.07-.0042-.1395-.009-.2089-.0148-.082-.0069-.1637-.0154-.2452-.0244-.0684-.0077-.1368-.0152-.2048-.0244-.0832-.0112-.1659-.0247-.2485-.0382-.0653-.0107-.1308-.0207-.1957-.0329-.0884-.0165-.1761-.0359-.2638-.0551-.0582-.0128-.1167-.0241-.1746-.038-.1189-.0287-.2369-.0608-.3546-.0943-.04-.0115-.08-.0227-.12-.0347-.127-.0382-.2534-.0788-.3789-.1228-.0518-.0182-.1029-.0388-.1544-.0579-.0894-.0333-.1787-.0665-.2672-.1027-.0573-.0234-.114-.0489-.171-.0736-.0818-.0355-.1636-.0712-.2447-.1092-.0584-.0274-.1163-.0563-.1743-.085-.0787-.039-.1572-.0787-.2351-.12-.0581-.0308-.1158-.0626-.1733-.0948q-.1158-.0647-.23-.1329c-.0565-.0337-.1128-.0678-.1689-.1028-.0769-.048-.1531-.0978-.2291-.1483-.0541-.0359-.1082-.0716-.1619-.1088-.0783-.0543-.1557-.1108-.233-.1678-.05-.0367-.1-.0725-.1493-.11-.0847-.0648-.1683-.1325-.2518-.2006-.0405-.0331-.0817-.0647-.122-.0986q-.1847-.1551-.3652-.32-.1305-.12-.2578-.245a14.6067,14.6067,0,0,1-4.0554-9.5459q-.0254-.5783-.0029-1.1541.011-.276.0332-.552a14.0662,14.0662,0,0,1,.4087-2.3929c.0769-.2969.161-.5926.2569-.8856.0687-.21.1437-.4182.2219-.6255a15.136,15.136,0,0,1,.6443-1.47l.0117-.0222a15.2917,15.2917,0,0,1,1.513-2.4054,14.8351,14.8351,0,0,1,7.2735-5.1421q.311-.0961.6293-.18l.0437-.0116q.3126-.0817.6362-.1527l.0192-.0046a40.3676,40.3676,0,0,0-1.0051-7.3631c-1.2452-5.1725-3.8025-9.3389-7.2013-11.7333-4.9247-3.4692-12.4159-3.4547-18.2174.0352C88.1717,35.0674,83.7,42.2892,82.0292,51.1959c-1.572,8.3861-.7222,17.218.1,25.7591C82.34,79.1514,82.5683,81.4924,82.8313,84.1656Z"/><path class="g" d="M145.9281,38.9506a3.3474,3.3474,0,0,0-1.7278-.5247,1.8689,1.8689,0,0,0-.8345.1757c-.9319.4667-1.6428,1.98-2.0564,4.3751-.0554.32-.1076.6424-.16.966-.43,2.6517-.9178,5.6573-3.0233,8.14-2.0231,2.3853-5.2069,3.79-9.463,4.1748-.8406.0758-1.6671.1169-2.4662.1568-.6454.0321-1.2549.0625-1.8557.1093q-.1175.0093-.2311.0192a15.0708,15.0708,0,0,0-2.2209.3359c-.1954.0472-.383.0983-.5644.1544A8.5776,8.5776,0,0,0,116.07,62.115a7.6445,7.6445,0,0,0-.5122,2.43,8.1607,8.1607,0,0,0,2.21,5.878q.0855.0786.17.1477c.0318.0261.0631.0491.0946.0734.024.0185.0484.0386.0722.056.0337.0246.0669.0462.1.0687.0211.0142.0425.03.0634.0435.0367.0235.0728.0441.1089.0652.0171.01.0345.0214.0515.0308.0293.0164.0581.03.0871.0451.0232.012.0469.0252.07.0362.0214.01.0422.0184.0634.0279.03.0133.06.0275.09.0394.0159.0064.0314.0113.0472.0173.0342.0129.0684.0261.1019.0372l.0313.0092c.0381.012.0762.0238.1135.0335l.0191.0044c.0409.01.0815.02.1213.0279l.001,0a2.5837,2.5837,0,0,0,.8322.021c1.2306-.1538,2.2586-.2835,3.3244-.43a49.0955,49.0955,0,0,0,13.0983-3.2426,23.5167,23.5167,0,0,0,11.5709-10.599l0,0a17.1924,17.1924,0,0,0,.5029-14.7435A7.4932,7.4932,0,0,0,145.9281,38.9506Z"/><path class="g" d="M73.8474,130.1521l.0972.0114q.2742.0319.5518.063l.1335.015q.2775.0309.5581.0613l.119.0127q.2946.0317.5922.0625l.0331.0034q1.326.1368,2.7139.2584l.0361.0032q.3242.0284.6517.0558l.089.0075q.3231.027.649.0532l.0757.006q1.7773.142,3.6356.2592l.0081.0005-.0112-.0094c-.1092-.092-.2145-.1852-.3177-.279-.0327-.03-.0642-.06-.0963-.09q-.1055-.0981-.2071-.1973-.0519-.0509-.1027-.1021-.0977-.0983-.1912-.1975c-.03-.0319-.0606-.0637-.09-.0957q-.1166-.1266-.2271-.2547l-.0341-.0387c-.0841-.0984-.1651-.1974-.244-.297-.0235-.03-.046-.06-.0691-.09q-.0828-.1067-.1619-.2139-.0391-.0534-.0773-.1071-.0734-.1028-.1434-.206c-.0234-.0345-.047-.0688-.07-.1034q-.0807-.1223-.1568-.2451c-.0128-.0206-.0263-.0411-.0389-.0618q-.0939-.1536-.1811-.3083c-.0156-.0278-.03-.0556-.0457-.0835-.0421-.0761-.0834-.1524-.1232-.2288-.019-.0364-.0373-.0727-.0557-.1091q-.0533-.105-.1037-.21c-.0172-.0361-.0345-.0721-.0513-.1081q-.0549-.1179-.1061-.2358c-.0113-.0258-.0232-.0517-.0342-.0775q-.0667-.1558-.128-.312c-.01-.0244-.0184-.0488-.0279-.0733q-.0464-.12-.09-.241c-.013-.0361-.0255-.0722-.0381-.1083q-.0366-.105-.071-.21c-.0121-.0369-.0242-.0737-.0358-.1106-.0237-.0745-.0463-.1489-.0684-.2232-.0067-.0225-.0141-.0451-.0207-.0676A101.7875,101.7875,0,0,0,62.96,128.2544a73.0714,73.0714,0,0,0,9.6792,1.7511Q73.2347,130.08,73.8474,130.1521Z"/><path class="g" d="M81.4965,105.8962c.12-.0182.2386-.0386.3582-.0589l.025-.0042c.1049-.0183.207-.0389.3107-.0581.1353-.0251.2719-.0491.4052-.0758.0965-.0193.19-.0408.2855-.061.1372-.029.2756-.057.4107-.0877.0942-.0215.1856-.0451.2787-.0674.1334-.0319.2679-.0628.399-.0964.0784-.02.1543-.0422.232-.0629.1429-.0381.2866-.0756.4268-.1158.07-.02.1373-.042.2064-.0625.1452-.0431.2909-.0857.433-.131.0714-.0228.14-.0475.2108-.0708.1372-.0454.2752-.09.41-.1376.0625-.0221.1225-.0459.1844-.0684.14-.051.28-.1015.4168-.1548.0512-.02.1-.0415.1512-.0618.1446-.0578.2894-.1156.43-.176.0447-.0192.0874-.04.1318-.0592.1448-.0635.2894-.1271.43-.1934.033-.0155.0644-.0322.0972-.0479.15-.0718.2995-.1441.4452-.2192.0295-.0152.0575-.0314.0867-.0467.1472-.077.2934-.1546.4359-.2349.023-.013.0448-.0269.0677-.04.317-.1808.6237-.3692.9175-.5667.0332-.0224.0646-.046.0975-.0686.1232-.0844.246-.1691.365-.2565.0317-.0232.0615-.0478.0929-.0713.1179-.0882.2354-.1767.3491-.2679.07-.0564.1372-.1151.2059-.1726.072-.06.1457-.12.2159-.181A9.8755,9.8755,0,0,0,94.3619,96.06c.014-.0977.0267-.1953.0368-.2929q.0258-.2471.0343-.4927c.0031-.0881.0048-.176.0046-.2636a6.6458,6.6458,0,0,0-.0428-.7458c-.0188-.1637-.0411-.3337-.0675-.5072A5.6932,5.6932,0,0,0,93.104,90.67a1.957,1.957,0,0,0-.1686-.1461c-1.325-1.02-4.3065-.5858-7.19-.1661-1.2218.1779-2.48.361-3.725.4542q-.2668.02-.5326.0341c-.5433.029-1.0971.04-1.6445.0323a26.4969,26.4969,0,0,1-12.0916-3.12,24.2184,24.2184,0,0,1-9.2556-8.562c-.3953-.64-.749-1.2771-1.091-1.8934a18.8847,18.8847,0,0,0-1.8569-2.9319,3.495,3.495,0,0,0-2.2525-1.3939,1.0194,1.0194,0,0,0-.1313.0082c-.9508.1238-2.0155,1.7427-2.5312,3.8492C48.72,84.6541,51.6973,93.73,58.0412,99.42a28.5424,28.5424,0,0,0,23.43,6.48Z"/><path class="g" d="M123.1474,125.9141q-.0821.1776-.1683.3528c-.0182.037-.0373.0734-.0557.11-.04.08-.08.1593-.1207.2382-.0224.0431-.0458.0855-.0686.1283-.0384.0722-.0766.1445-.1161.2161-.0246.0446-.05.0887-.0751.133-.0389.0689-.0774.138-.1172.2064-.0267.0458-.0544.0912-.0815.1368-.04.0662-.0786.1325-.119.1982-.0284.0463-.0577.092-.0866.138-.04.0641-.08.1284-.1214.192-.03.0466-.0611.0927-.0918.139-.0411.0622-.0821.1246-.124.1864-.0317.0465-.0642.0925-.0963.1387-.0423.0608-.0844.1217-.1275.182-.033.0462-.0667.0919-.1.1377-.0434.06-.0867.119-.1309.178-.0345.046-.07.0915-.1047.1371-.0444.058-.0888.1161-.1341.1736-.036.0458-.0726.0911-.1091.1365-.0454.0565-.0908.113-.1369.1691-.0376.0456-.0758.0908-.114.136-.0462.055-.0925.11-.1395.1645-.0393.0454-.0791.09-.1188.1355-.047.0534-.0941.1067-.1419.16-.0409.0454-.0824.09-.1239.1353q-.0716.0777-.144.1548-.0639.0675-.1286.1343-.073.0757-.1468.1508-.0662.0669-.1331.133c-.0294.0291-.058.0586-.0876.0875q.6417-.0444,1.2733-.0919l.0644-.0049q1.2575-.0948,2.4734-.2017l.0683-.0061q1.2081-.1067,2.3707-.225l.0819-.0084q1.1516-.1179,2.2539-.2471l.0947-.0111q.5476-.0647,1.0828-.1318a73.149,73.149,0,0,0,9.67-1.7486,96.7634,96.7634,0,0,0-15.8447-2.3968Z"/><path class="h" d="M138.2206,135.1731c-.11.0234-.2208.0467-.3329.07l-.0992.0206q-.1653.034-.3342.0679l-.1056.0211c-.1145.0228-.23.0455-.3469.0682l-.0936.018c-.124.0239-.2488.0478-.3757.0715l-.0284.0053q-.87.1626-1.8325.3214l-.0705.0117c-.1393.0228-.28.0455-.4227.0683l-.1128.018q-.21.0332-.4235.0662l-.1145.0176q-.22.0338-.444.0672l-.0935.0139c-.16.0238-.3213.0475-.4849.0711l-.0116.0017c-.3681.053-.7435.1058-1.13.158a237.81,237.81,0,0,1-30.371,1.7465,237.8125,237.8125,0,0,1-30.3711-1.7465c-.5687-.0769-1.1153-.1548-1.645-.2336l-.0648-.01q-.2352-.0351-.4653-.07l-.0921-.0142q-.2245-.0346-.4446-.0695l-.086-.0138c-.1508-.024-.3-.0482-.448-.0724l-.0344-.0057q-1.2155-.2-2.283-.4063l-.0664-.0128q-.1858-.036-.3671-.0722l-.0842-.0168q-.1773-.0355-.35-.0712l-.0829-.0172c-.1175-.0244-.234-.0488-.3487-.0733l-.0507-.0109q-.8286-.1776-1.5648-.3586l10.2122,32.1713q.0259.0814.0474.1641c.5954.4172,2.7161,1.5883,8.8151,2.6387a121.6567,121.6567,0,0,0,19.7748,1.4719,121.6567,121.6567,0,0,0,19.7748-1.4719c6.0989-1.05,8.22-2.2215,8.8151-2.6387q.0215-.0826.0474-.1641l10.2121-32.1713q-.7285.1792-1.5494.3553Z"/><path d="M149.4021,33.4179a9.2285,9.2285,0,0,0-8.9625-.6572c-4.3741,2.1907-5.2726,7.3945-5.5676,9.1031-.0591.3414-.1151.6863-.1713,1.0327-.3224,1.9869-.6269,3.8636-1.557,4.96-.8751,1.0317-2.5807,1.669-5.0684,1.894-.2786.0251-.561.0452-.8465.0636a46.2117,46.2117,0,0,0-1.1615-8.2648c-1.6163-6.7145-5.0931-12.2347-9.79-15.5435A21.5179,21.5179,0,0,0,103.589,22.22,25.357,25.357,0,0,0,90.93,25.7842C83.2072,30.43,77.6227,39.2531,75.6082,49.9919c-1.7424,9.2954-.8476,18.5952.0177,27.5889.1889,1.9621.3912,4.0408.62,6.3655a18.7938,18.7938,0,0,1-12.19-8.1817c-.3157-.511-.6177-1.0552-.9376-1.6314a24.04,24.04,0,0,0-2.5653-3.9618,9.4,9.4,0,0,0-8.2308-3.6635c-3.8064.4957-6.8095,3.7757-8.0333,8.7743a28.5186,28.5186,0,0,0,.7755,15.7856,30.8231,30.8231,0,0,0,8.6156,13.2151,34.5884,34.5884,0,0,0,23.0492,8.5259q1.1539,0,2.3137-.0744c.1815,1.9711.3473,3.8118.5012,5.5663.0274.311.0487.6223.0676.9374A124.267,124.267,0,0,0,63.3045,121.45a28.9777,28.9777,0,0,0-6.144,1.9427c-2.4067,1.16-3.6742,2.7109-3.7779,4.6107a3.2327,3.2327,0,0,0-.0016.4852,4.3789,4.3789,0,0,0,.4309,1.66l12.2038,38.4455c.2519,1.9558,1.6916,3.5866,4.2891,4.854a33.0756,33.0756,0,0,0,7.5766,2.3463,119.9686,119.9686,0,0,0,23.1114,1.987,119.9693,119.9693,0,0,0,23.1114-1.987,33.0756,33.0756,0,0,0,7.5766-2.3463c2.5976-1.2675,4.0373-2.8981,4.2891-4.854l12.205-38.4494a4.367,4.367,0,0,0,.4377-1.8869c0-1.3469-.6189-3.2655-3.5674-4.7563a26.26,26.26,0,0,0-5.7147-1.9031,110.6984,110.6984,0,0,0-14.4364-2.1417c.2088-1.5854.3019-3.1167.3834-4.4651.764-12.6546,1.3287-25.4732,1.6865-38.15a48.9675,48.9675,0,0,0,12.1332-3.344,30.0523,30.0523,0,0,0,14.7392-13.6285,23.53,23.53,0,0,0,.5685-20.4761A13.8206,13.8206,0,0,0,149.4021,33.4179ZM82.0292,51.1959C83.7,42.2892,88.1717,35.0674,94.2976,31.3821c5.8015-3.49,13.2927-3.5044,18.2174-.0352,3.3988,2.3944,5.9561,6.5608,7.2013,11.7333a40.3676,40.3676,0,0,1,1.0051,7.3631l-.0192.0046q-.3242.0711-.6362.1527l-.0437.0116q-.3186.0843-.6293.18a14.8351,14.8351,0,0,0-7.2735,5.1421,15.2917,15.2917,0,0,0-1.513,2.4054l-.0117.0222a15.136,15.136,0,0,0-.6443,1.47c-.0782.2073-.1532.4156-.2219.6255-.0959.293-.18.5887-.2569.8856a14.0662,14.0662,0,0,0-.4087,2.3929q-.0224.276-.0332.552-.0226.5751.0029,1.1541a14.6067,14.6067,0,0,0,4.0554,9.5459q.1274.125.2578.245.18.1658.3652.32c.04.0339.0815.0655.122.0986.0835.0681.1671.1358.2518.2006.0494.0378.0995.0736.1493.11.0773.057.1547.1135.233.1678.0537.0372.1078.0729.1619.1088.076.05.1522.1.2291.1483.0561.035.1124.0691.1689.1028q.1146.0683.23.1329c.0575.0322.1152.064.1733.0948.0779.0414.1564.0811.2351.12.058.0287.1159.0576.1743.085.0811.038.1629.0737.2447.1092.057.0247.1137.05.171.0736.0885.0362.1778.0694.2672.1027.0515.0191.1026.04.1544.0579.1255.044.2519.0846.3789.1228.04.012.08.0232.12.0347.1177.0335.2357.0656.3546.0943.0579.0139.1164.0252.1746.038.0877.0192.1754.0386.2638.0551.0649.0122.13.0222.1957.0329.0826.0135.1653.027.2485.0382.068.0092.1364.0167.2048.0244.0815.009.1632.0175.2452.0244.0694.0058.1391.0106.2089.0148q.1235.0073.2476.0115c.07.0023.1393.0042.2092.0049.0324,0,.0645.0023.0969.0023.0912,0,.1828-.0016.2745-.0043l.03-.0008c.1395-.0046.28-.0132.42-.024.0182-.0014.0363-.0016.0545-.0031-.3572,12.2554-.911,24.6384-1.649,36.8647a32.3227,32.3227,0,0,1-.92,6.9006,11.6022,11.6022,0,0,1-.6177,1.6714c-2.5947,5.61-9.7146,7.6985-15.2324,7.2661a39.117,39.117,0,0,1-7.6244-1.401,19.11,19.11,0,0,1-6.0813-2.78q-.1493-.1149-.2891-.2327a4.6751,4.6751,0,0,1-.3644-.3408,5.6553,5.6553,0,0,1-1.3121-3.7152c-.0559-.6149-.088-1.2673-.1219-1.9582-.036-.733-.0732-1.4911-.1425-2.2788-.1651-1.8818-.3435-3.861-.5406-5.9936.0439-.0111.0865-.0234.13-.0347.0984-.0254.1956-.0519.2931-.0781q.265-.0712.5262-.1462.1507-.0433.3-.0881.2614-.0785.5186-.1612c.0911-.0292.1828-.0578.2731-.0877q.3106-.1031.6148-.2125c.05-.018.1015-.0349.1515-.0531q.3754-.1369.7411-.2834c.072-.0287.1424-.059.2138-.0882.1727-.0708.3443-.1425.5137-.2164.0884-.0385.1756-.078.263-.1174q.2281-.1026.4525-.2091c.088-.0419.1759-.0839.263-.1267q.2284-.112.4521-.2288c.0774-.04.1555-.08.2321-.12q.2882-.1538.5689-.3143c.03-.0172.0611-.0335.0911-.0509q.3227-.1863.6347-.3822c.0659-.0412.13-.0838.1954-.1256.1432-.0917.2855-.1843.4255-.2789.0759-.0512.1507-.1033.2256-.1554q.1935-.1347.3829-.273c.0734-.0536.1467-.1073.2191-.1617.1317-.099.2611-.2.39-.3017.0614-.0487.1237-.0966.1844-.1459q.2782-.2259.5471-.46l.0025-.002.0005,0a17.2244,17.2244,0,0,0,3.162-3.6805,15.2918,15.2918,0,0,0,2.4887-8.2928,12.8657,12.8657,0,0,0-.0823-1.3369,14.9978,14.9978,0,0,0-1.3168-4.8489c-.1314-.2709-.274-.5289-.4228-.78-.0625-.1052-.1259-.2093-.1914-.311A8.8117,8.8117,0,0,0,96.92,85.3471a8.9889,8.9889,0,0,0-3.0265-1.5147,19.3884,19.3884,0,0,0-7.9424-.1034c-.386.0535-.7686.1092-1.1466.1642-.2531.0369-.5026.073-.75.1083l-.2262.0322c-.077.0108-.1528.021-.2292.0315-.085.0116-.17.0235-.2545.0348-.0738.01-.1464.0189-.2195.0284-.0844.0109-.169.022-.2525.0323l-.0414.0049c-.263-2.6732-.4911-5.0142-.7025-7.2106C81.307,68.4139,80.4572,59.582,82.0292,51.1959ZM58.0412,99.42c-6.3439-5.69-9.3208-14.7656-7.4076-22.5844.5157-2.1065,1.58-3.7254,2.5312-3.8492a1.0194,1.0194,0,0,1,.1313-.0082,3.495,3.495,0,0,1,2.2525,1.3939,18.8847,18.8847,0,0,1,1.8569,2.9319c.342.6163.6957,1.2534,1.091,1.8934a24.2184,24.2184,0,0,0,9.2556,8.562,26.4969,26.4969,0,0,0,12.0916,3.12c.5474.0075,1.1012-.0033,1.6445-.0323q.2656-.0139.5326-.0341c1.245-.0932,2.5032-.2763,3.725-.4542,2.8831-.42,5.8646-.8537,7.19.1661a1.957,1.957,0,0,1,.1686.1461,5.6932,5.6932,0,0,1,1.2233,3.0875c.0264.1735.0487.3435.0675.5072a6.6458,6.6458,0,0,1,.0428.7458c0,.0876-.0015.1755-.0046.2636q-.0087.2456-.0343.4927c-.01.0976-.0228.1952-.0368.2929a9.8755,9.8755,0,0,1-3.3523,5.8593c-.07.0615-.1439.1207-.2159.181-.0687.0575-.1356.1162-.2059.1726-.1137.0912-.2312.18-.3491.2679-.0314.0235-.0612.0481-.0929.0713-.119.0874-.2418.1721-.365.2565-.0329.0226-.0643.0462-.0975.0686-.2938.1975-.6.3859-.9175.5667-.0229.0131-.0447.027-.0677.04-.1425.08-.2887.1579-.4359.2349-.0292.0153-.0572.0315-.0867.0467-.1457.0751-.2951.1474-.4452.2192-.0328.0157-.0642.0324-.0972.0479-.141.0663-.2856.13-.43.1934-.0444.0194-.0871.04-.1318.0592-.141.06-.2858.1182-.43.176-.0508.02-.1.0418-.1512.0618-.1367.0533-.277.1038-.4168.1548-.0619.0225-.1219.0463-.1844.0684-.1344.0475-.2724.0922-.41.1376-.0706.0233-.1394.048-.2108.0708-.1421.0453-.2878.0879-.433.131-.0691.02-.1366.0424-.2064.0625-.14.04-.2839.0777-.4268.1158-.0777.0207-.1536.0428-.232.0629-.1311.0336-.2656.0645-.399.0964-.0931.0223-.1845.0459-.2787.0674-.1351.0307-.2735.0587-.4107.0877-.0954.02-.189.0417-.2855.061-.1333.0267-.27.0507-.4052.0758-.1037.0192-.2058.04-.3107.0581l-.025.0042c-.12.02-.2384.0407-.3582.0589l-.0248.0038A28.5424,28.5424,0,0,1,58.0412,99.42Zm22.3307,26.31c.0066.0225.014.0451.0207.0676.0221.0743.0447.1487.0684.2232.0116.0369.0237.0737.0358.1106q.0344.1049.071.21c.0126.0361.0251.0722.0381.1083q.0432.12.09.241c.01.0245.0183.0489.0279.0733q.0612.156.128.312c.011.0258.0229.0517.0342.0775q.0515.1179.1061.2358c.0168.036.0341.072.0513.1081q.0506.1051.1037.21c.0184.0364.0367.0727.0557.1091.04.0764.0811.1527.1232.2288.0153.0279.03.0557.0457.0835q.0873.1547.1811.3083c.0126.0207.0261.0412.0389.0618q.0763.1228.1568.2451c.0228.0346.0464.0689.07.1034q.07.1032.1434.206.0382.0537.0773.1071.0789.1074.1619.2139c.0231.03.0456.06.0691.09.0789.1.16.1986.244.297l.0341.0387q.1106.1281.2271.2547c.03.032.06.0638.09.0957q.0938.0992.1912.1975.0508.0512.1027.1021.1014.0993.2071.1973c.0321.03.0636.06.0963.09.1032.0938.2085.187.3177.279l.0112.0094-.0081-.0005q-1.8562-.117-3.6356-.2592l-.0757-.006q-.326-.0263-.649-.0532l-.089-.0075q-.3273-.0275-.6517-.0558l-.0361-.0032q-1.3867-.1215-2.7139-.2584l-.0331-.0034q-.2979-.0309-.5922-.0625l-.119-.0127q-.2806-.03-.5581-.0613l-.1335-.015q-.2773-.0312-.5518-.063l-.0972-.0114q-.6121-.0717-1.2085-.1466a73.0714,73.0714,0,0,1-9.6792-1.7511A101.7875,101.7875,0,0,1,80.3719,125.73Zm59.47,9.0722L129.63,166.9736q-.0258.0814-.0474.1641c-.5954.4172-2.7162,1.5883-8.8151,2.6387a121.6567,121.6567,0,0,1-19.7748,1.4719,121.6567,121.6567,0,0,1-19.7748-1.4719c-6.099-1.05-8.22-2.2215-8.8151-2.6387q-.0216-.0826-.0474-.1641L62.1433,134.8023q.7354.1809,1.5648.3586l.0507.0109c.1147.0245.2312.0489.3487.0733l.0829.0172q.1731.0357.35.0712l.0842.0168q.1815.0362.3671.0722l.0664.0128q1.0694.2061,2.283.4063l.0344.0057c.1475.0242.2972.0484.448.0724l.086.0138q.22.0348.4446.0695l.0921.0142q.23.0352.4653.07l.0648.01c.53.0788,1.0763.1567,1.645.2336a237.8125,237.8125,0,0,0,30.3711,1.7465,237.81,237.81,0,0,0,30.371-1.7465c.3863-.0522.7617-.105,1.13-.158l.0116-.0017c.1636-.0236.3248-.0473.4849-.0711l.0935-.0139q.2244-.0335.444-.0672l.1145-.0176q.2138-.033.4235-.0662l.1128-.018c.1422-.0228.2834-.0455.4227-.0683l.0705-.0117q.9627-.1587,1.8325-.3214l.0284-.0053c.1269-.0237.2517-.0476.3757-.0715l.0936-.018c.117-.0227.2324-.0454.3469-.0682l.1056-.0211q.1689-.0339.3342-.0679l.0992-.0206c.1121-.0233.2233-.0466.3329-.07l.0722-.0155Q139.1128,134.9817,139.8422,134.8023Zm-.8251-6.5454a73.149,73.149,0,0,1-9.67,1.7486q-.5344.0673-1.0828.1318l-.0947.0111q-1.1017.1291-2.2539.2471l-.0819.0084q-1.1619.1183-2.3707.225l-.0683.0061q-1.2153.1068-2.4734.2017l-.0644.0049q-.6318.0474-1.2733.0919c.03-.0289.0582-.0584.0876-.0875q.0667-.0663.1331-.133.074-.075.1468-.1508.0645-.0669.1286-.1343.0726-.0769.144-.1548c.0415-.045.083-.09.1239-.1353.0478-.0529.0949-.1062.1419-.16.04-.045.0795-.09.1188-.1355.047-.0545.0933-.1095.1395-.1645.0382-.0452.0764-.09.114-.136.0461-.0561.0915-.1126.1369-.1691.0365-.0454.0731-.0907.1091-.1365.0453-.0575.09-.1156.1341-.1736.035-.0456.07-.0911.1047-.1371.0442-.059.0875-.1185.1309-.178.0335-.0458.0672-.0915.1-.1377.0431-.06.0852-.1212.1275-.182.0321-.0462.0646-.0922.0963-.1387.0419-.0618.0829-.1242.124-.1864.0307-.0463.0617-.0924.0918-.139.0411-.0636.0812-.1279.1214-.192.0289-.046.0582-.0917.0866-.138.04-.0657.0795-.132.119-.1982.0271-.0456.0548-.091.0815-.1368.04-.0684.0783-.1375.1172-.2064.025-.0443.05-.0884.0751-.133.04-.0716.0777-.1439.1161-.2161.0228-.0428.0462-.0852.0686-.1283.0411-.0789.0809-.1586.1207-.2382.0184-.0368.0375-.0732.0557-.11q.0861-.1752.1683-.3528l.025-.054A96.7634,96.7634,0,0,1,139.0171,128.2569Zm8.982-71.3212,0,0a23.5167,23.5167,0,0,1-11.5709,10.599A49.0955,49.0955,0,0,1,123.33,70.7775c-1.0658.1468-2.0938.2765-3.3244.43a2.5837,2.5837,0,0,1-.8322-.021l-.001,0c-.04-.0079-.08-.0175-.1213-.0279l-.0191-.0044c-.0373-.01-.0754-.0215-.1135-.0335l-.0313-.0092c-.0335-.0111-.0677-.0243-.1019-.0372-.0158-.006-.0313-.0109-.0472-.0173-.03-.0119-.06-.0261-.09-.0394-.0212-.0095-.042-.0177-.0634-.0279-.023-.011-.0467-.0242-.07-.0362-.029-.0149-.0578-.0287-.0871-.0451-.017-.0094-.0344-.0208-.0515-.0308-.0361-.0211-.0722-.0417-.1089-.0652-.0209-.0135-.0423-.0293-.0634-.0435-.0334-.0225-.0666-.0441-.1-.0687-.0238-.0174-.0482-.0375-.0722-.056-.0315-.0243-.0628-.0473-.0946-.0734q-.0841-.0691-.17-.1477a8.1607,8.1607,0,0,1-2.21-5.878,7.6445,7.6445,0,0,1,.5122-2.43,8.5776,8.5776,0,0,1,5.2548-5.0821c.1814-.0561.369-.1072.5644-.1544a15.0708,15.0708,0,0,1,2.2209-.3359q.1137-.01.2311-.0192c.6008-.0468,1.21-.0772,1.8557-.1093.7991-.04,1.6256-.081,2.4662-.1568,4.2561-.3849,7.44-1.79,9.463-4.1748,2.1055-2.4825,2.5931-5.4881,3.0233-8.14.0526-.3236.1048-.6458.16-.966.4136-2.3956,1.1245-3.9084,2.0564-4.3751a1.8689,1.8689,0,0,1,.8345-.1757,3.3474,3.3474,0,0,1,1.7278.5247,7.4932,7.4932,0,0,1,2.5739,3.2416A17.1924,17.1924,0,0,1,147.9991,56.9357Z"/><path class="i" d="M89.1164,55.981a1.1964,1.1964,0,0,1-.8737-.3772l-3.0636-3.2523A1.2,1.2,0,1,1,86.926,50.706L89.99,53.9583a1.2,1.2,0,0,1-.8732,2.0227Z"/><path class="i" d="M97.7911,44.7a1.1945,1.1945,0,0,1-.7593-.2714,4.6577,4.6577,0,0,1-1.6947-3.7008,1.2,1.2,0,1,1,2.399.0625,2.2718,2.2718,0,0,0,.8157,1.7811A1.2,1.2,0,0,1,97.7911,44.7Z"/><path class="i" d="M108.3658,42.13a1.2,1.2,0,0,1-1.1423-.8339L106.1153,37.84a1.2,1.2,0,0,1,2.2853-.7327l1.1081,3.4567a1.2007,1.2007,0,0,1-1.1429,1.5665Z"/><path class="i" d="M100.4314,60.6355a1.1985,1.1985,0,0,1-.9852-.5136L97.38,57.1591a1.2,1.2,0,0,1,1.9683-1.373l2.0667,2.9629a1.2,1.2,0,0,1-.9831,1.8865Z"/><path class="i" d="M63.1777,93.827a1.1985,1.1985,0,0,1-.9852-.5136l-2.0666-2.9628a1.2,1.2,0,0,1,1.9683-1.373L64.1608,91.94a1.2,1.2,0,0,1-.9831,1.8866Z"/><path class="i" d="M93.2381,72.0617a1.1972,1.1972,0,0,1-.8974-.403L89.61,68.5849a1.2,1.2,0,1,1,1.7941-1.5938l2.7308,3.0737a1.2,1.2,0,0,1-.8967,1.9969Z"/><path class="i" d="M90.2486,79.9166a1.2,1.2,0,0,1-.3478-.0517l-2.5769-.7795a1.2,1.2,0,0,1,.6948-2.2971l2.5769.7795a1.2,1.2,0,0,1-.347,2.3488Z"/><path class="i" d="M108.9147,87.1268a1.2,1.2,0,0,1-.3264-2.3547l2.8287-.8013a1.2,1.2,0,0,1,.6541,2.309l-2.8287.8013A1.2,1.2,0,0,1,108.9147,87.1268Z"/><path class="i" d="M106.2959,118.108a1.2,1.2,0,0,1-.0535-2.3986l2.8365-.1289a1.2,1.2,0,0,1,.109,2.3974l-2.8366.1288C106.3328,118.1076,106.3143,118.108,106.2959,118.108Z"/><path class="i" d="M108.4008,104.95a1.2,1.2,0,0,1-1.0905-.6979,2.3663,2.3663,0,0,0-1.6029-1.2941,1.2,1.2,0,1,1,.5224-2.3423,4.748,4.748,0,0,1,3.26,2.6319,1.2,1.2,0,0,1-1.089,1.7024Z"/><path class="i" d="M143.9011,56.2627a1.2,1.2,0,0,1-1.0825-1.7161l1.2892-2.7075a1.2,1.2,0,0,1,2.1668,1.0317l-1.2894,2.7077A1.2,1.2,0,0,1,143.9011,56.2627Z"/><path class="i" d="M136.81,59.6148a1.2,1.2,0,0,1-1.0064-1.8518l1.4182-2.1918a1.2,1.2,0,0,1,2.0149,1.3035l-1.4182,2.1919A1.1988,1.1988,0,0,1,136.81,59.6148Z"/><path class="i" d="M124.5123,65.4529a1.2,1.2,0,0,1-1.1726-.9509l-.6829-3.2152a1.2,1.2,0,1,1,2.3475-.4987l.6829,3.2153a1.2013,1.2013,0,0,1-1.1749,1.45Z"/><path class="i" d="M81.4884,100a1.2,1.2,0,0,1-1.1726-.9508l-.6829-3.2152a1.2,1.2,0,0,1,2.3475-.4987l.6829,3.2152A1.2008,1.2008,0,0,1,81.4884,100Z"/><path class="i" d="M99.6917,78.4378a1.2,1.2,0,0,1-.2994-2.362l3.8756-1.0016a1.2,1.2,0,1,1,.6006,2.3234l-3.8757,1.0018A1.2025,1.2025,0,0,1,99.6917,78.4378Z"/><path class="j" d="M77.5673,163.7019a2.0468,2.0468,0,0,1-1.661-1.2135l-4.4574-19.7973a1.7936,1.7936,0,0,1,1.2532-1.8613,2.2814,2.2814,0,0,1,2.2165,1.1672l4.4574,19.7973a1.832,1.832,0,0,1-1.3122,1.844A3.5032,3.5032,0,0,1,77.5673,163.7019Z"/></svg>