<?xml version="1.0" encoding="utf-8"?>
<!-- Generator: Adobe Illustrator 25.2.3, SVG Export Plug-In . SVG Version: 6.00 Build 0)  -->
<svg version="1.1" id="Capa_1" xmlns="http://www.w3.org/2000/svg" xmlns:xlink="http://www.w3.org/1999/xlink" x="0px" y="0px"
	 viewBox="0 0 19.8 16.9" style="enable-background:new 0 0 19.8 16.9;" xml:space="preserve">
<style type="text/css">
	.st0{fill:#1D1D1B;}
</style>
<path class="st0" d="M1.6,10.2h13l-5.1,4.4c-0.6,0.5-0.7,1.4-0.1,2c0.5,0.6,1.4,0.7,2,0.1l8-7l0,0l0.1-0.1c0,0,0-0.1,0.1-0.1
	c0-0.1,0.1-0.1,0.1-0.2V9.2c0-0.1,0.1-0.1,0.1-0.2c0,0,0,0,0-0.1s0-0.2,0-0.3s0-0.2,0-0.3c0,0,0,0,0-0.1s0-0.1-0.1-0.2V7.9
	c0-0.1-0.1-0.1-0.1-0.2c0,0,0-0.1-0.1-0.1l-0.1-0.1l0,0l-8-7c-0.3-0.2-0.6-0.4-1-0.4S9.6,0.3,9.3,0.6c-0.5,0.6-0.5,1.5,0.1,2
	l5.3,4.7h-13c-0.8,0-1.5,0.6-1.5,1.5S0.8,10.2,1.6,10.2z"/>
</svg>
