<?xml version="1.0" encoding="utf-8"?>
<!-- Generator: Adobe Illustrator 25.2.3, SVG Export Plug-In . SVG Version: 6.00 Build 0)  -->
<svg version="1.1" id="Capa_1" xmlns="http://www.w3.org/2000/svg" xmlns:xlink="http://www.w3.org/1999/xlink" x="0px" y="0px"
	 viewBox="0 0 800 800" style="enable-background:new 0 0 800 800;" xml:space="preserve">
<g>
	<path d="M418.6,240c42.4,0,81.9,22.1,108.5,60.5c12.5,18.2,37.5,22.7,55.6,10.2c18.2-12.6,22.7-37.5,10.2-55.6
		c-19.8-28.6-45.6-52.4-74.7-68.8c-30.6-17.2-65-26.3-99.6-26.3c-59.3,0-114.7,25.5-156.1,71.9c-18,20.1-32.3,43.1-42.7,68.1H200
		c-22.1,0-40,17.9-40,40s17.9,40,40,40h0.7c-0.5,6.6-0.7,13.3-0.7,20c0,6.7,0.2,13.4,0.7,20H200c-22.1,0-40,17.9-40,40
		s17.9,40,40,40h19.7c10.4,24.9,24.8,47.9,42.7,68.1c41.4,46.4,96.9,71.9,156.1,71.9c34.6,0,69-9.1,99.6-26.3
		c29.1-16.3,54.9-40.1,74.7-68.8c12.6-18.2,8-43.1-10.2-55.6c-18.2-12.5-43.1-8-55.6,10.2C500.5,537.9,461,560,418.6,560
		c-43.7,0-82.7-23.4-108.1-60H360c22.1,0,40-17.9,40-40s-17.9-40-40-40h-78.9c-0.7-6.6-1.1-13.2-1.1-20c0-6.8,0.4-13.4,1.1-20H360
		c22.1,0,40-17.9,40-40s-17.9-40-40-40h-49.5C335.9,263.4,374.9,240,418.6,240z"/>
	<path d="M768.6,244.3c-20.1-47.6-49-90.4-85.7-127.1c-36.7-36.7-79.5-65.6-127.1-85.7C506.4,10.6,454,0,400,0
		c-54,0-106.4,10.6-155.7,31.5c-47.6,20.1-90.4,49-127.1,85.7c-36.7,36.7-65.6,79.5-85.7,127.1C10.6,293.6,0,346,0,400
		c0,54,10.6,106.4,31.5,155.7c20.1,47.6,49,90.4,85.7,127.1c36.7,36.7,79.5,65.6,127.1,85.7C293.6,789.4,346,800,400,800
		c54,0,106.4-10.6,155.7-31.4c47.6-20.1,90.4-49,127.1-85.7c36.7-36.7,65.6-79.5,85.7-127.1C789.4,506.4,800,454,800,400
		C800,346,789.4,293.6,768.6,244.3z M400,720C223.6,720,80,576.4,80,400S223.6,80,400,80s320,143.6,320,320S576.4,720,400,720z"/>
</g>
</svg>
