<?xml version="1.0" encoding="utf-8"?>
<!-- Generator: Adobe Illustrator 25.2.3, SVG Export Plug-In . SVG Version: 6.00 Build 0)  -->
<svg version="1.1" id="Capa_1" xmlns="http://www.w3.org/2000/svg" xmlns:xlink="http://www.w3.org/1999/xlink" x="0px" y="0px"
	 viewBox="0 0 800 800" style="enable-background:new 0 0 800 800;" xml:space="preserve">
<path d="M518.5,484.9l-15.2,16c0,0-36.1,38-134.6-65.7c-98.5-103.7-62.4-141.7-62.4-141.7l9.6-10.1c23.6-24.8,25.8-64.6,5.2-93.7
	l-42-59.4c-25.4-36-74.6-40.7-103.7-10l-52.3,55.1c-14.5,15.2-24.1,34.9-23,56.8c3,56,26.9,176.4,160.4,317
	c141.6,149,274.4,155,328.7,149.6c17.2-1.7,32.1-11,44.2-23.6l47.4-49.9c32-33.7,23-91.3-17.9-114.9l-63.7-36.7
	C572.2,458.3,539.5,462.8,518.5,484.9z"/>
</svg>
