<svg xmlns="http://www.w3.org/2000/svg" width="50" height="50" viewBox="0 0 50 50"><defs><style>.a{fill:#413a3a;}</style></defs><path class="a" d="M45.8244,22.5539c-1.2544.683-2.417,1.299-3.5551,1.9572a.7865.7865,0,0,0-.2223.5908q-.0211,4.288-.0076,8.5761A7.0782,7.0782,0,0,1,38.5865,40.01a24.8091,24.8091,0,0,1-13.3572,4.1717A24.1143,24.1143,0,0,1,12.667,40.7635a14.9879,14.9879,0,0,1-2.5182-1.7441,6.5616,6.5616,0,0,1-2.1969-5.0487q-.0153-4.4062.0066-8.8125A.7834.7834,0,0,0,7.47,24.34c-1.1036-.5663-2.19-1.1674-3.2733-1.7716A6.8219,6.8219,0,0,1,.39,16.3413,6.7672,6.7672,0,0,1,4.18,10.0491q8.0282-4.405,16.0793-8.7682a9.3884,9.3884,0,0,1,9.4335-.02c5.336,2.8834,10.6552,5.7979,15.98,8.7017a7.025,7.025,0,0,1,3.92,6.7429c-.0556,5.1046.0086,10.2106.0174,15.3161a1.9014,1.9014,0,0,1-1.6923,2.0588,1.8744,1.8744,0,0,1-2.09-1.955c-.01-2.9375-.0033-5.8751-.0033-8.8127ZM25.0615,28.7723a5.8657,5.8657,0,0,0,2.9319-.8073q7.9548-4.3483,15.9186-8.68a3.2939,3.2939,0,0,0-.0107-5.9818Q35.9106,8.9578,27.9281,4.598a5.82,5.82,0,0,0-5.9174.0367q-7.9548,4.3482-15.9185,8.68a3.2849,3.2849,0,0,0-.04,5.95q8.0655,4.3917,16.1275,8.79A5.6538,5.6538,0,0,0,25.0615,28.7723ZM11.7539,26.6835c0,2.5833-.0349,5.0654.0168,7.5456a3.0256,3.0256,0,0,0,1.4134,2.4126,20.3755,20.3755,0,0,0,23.546.0572,3.3927,3.3927,0,0,0,1.5224-2.9642c-.01-1.36-.0021-2.7207-.0021-4.081V26.6991c-.2626.1358-.4512.2289-.6357.3294q-4.0211,2.1894-8.0422,4.3786a9.56,9.56,0,0,1-6.2373,1.0186,12.5631,12.5631,0,0,1-4.0309-1.6215C16.8227,29.4394,14.3327,28.09,11.7539,26.6835Z"/></svg>