<svg width="32" height="44" viewBox="0 0 32 44" fill="none" xmlns="http://www.w3.org/2000/svg">
<path d="M3.7003 0.456055C1.65649 0.456055 0 2.11255 0 4.15635V26.7311V39.8437C0 41.8875 1.65649 43.544 3.7003 43.544H28.2997C30.3435 43.544 32 41.8875 32 39.8437V26.7311V12.8175L19.639 0.456055H3.7003Z" fill="#2A9D8F"/>
<path d="M32 12.8175H23.2575C21.2587 12.8175 19.6385 11.1974 19.6385 9.1986V0.456055L32 12.8175Z" fill="#97E8DA"/>
<path d="M16.0372 28.6755H13.6711C13.2087 28.6755 12.8333 28.3007 12.8333 27.8377V23.12C12.8333 22.6571 13.2087 22.2822 13.6711 22.2822H16.0372C17.5127 22.2822 18.7134 23.4829 18.7134 24.9585V25.9993C18.7134 27.4753 17.5127 28.6755 16.0372 28.6755ZM14.509 26.9999H16.0372C16.5887 26.9999 17.0378 26.5508 17.0378 25.9993V24.9585C17.0378 24.4069 16.5887 23.9579 16.0372 23.9579H14.509V26.9999Z" fill="white"/>
<path d="M13.6711 31.9048C13.2087 31.9048 12.8333 31.53 12.8333 31.067V27.8364C12.8333 27.3734 13.2087 26.9985 13.6711 26.9985C14.1336 26.9985 14.509 27.3734 14.509 27.8364V31.067C14.509 31.53 14.1336 31.9048 13.6711 31.9048Z" fill="white"/>
<path d="M8.95363 31.9057H6.99935C5.91688 31.9057 5.03645 31.0248 5.03645 29.9423V28.7325C5.03645 28.2695 5.4118 27.8947 5.87427 27.8947C6.33675 27.8947 6.7121 28.2695 6.7121 28.7325V29.9423C6.7121 30.1008 6.84088 30.23 6.99935 30.23H8.95363C9.1121 30.23 9.24136 30.1008 9.24136 29.9423V23.12C9.24136 22.6571 9.6167 22.2822 10.0792 22.2822C10.5417 22.2822 10.917 22.6571 10.917 23.12V29.9428C10.917 31.0253 10.0361 31.9057 8.95363 31.9057Z" fill="white"/>
<path d="M24.6144 31.9207H23.0737C21.6509 31.9207 20.4932 30.7631 20.4932 29.3402V24.8552C20.4932 23.4381 21.6461 22.2805 23.0632 22.2747L24.9504 22.2666C24.9519 22.2666 24.9533 22.2666 24.9543 22.2666C25.4153 22.2666 25.7902 22.6391 25.7921 23.1006C25.794 23.5636 25.4206 23.9403 24.9581 23.9422L23.0704 23.9504C22.5729 23.9523 22.1689 24.3583 22.1689 24.8552V29.3402C22.1689 29.8391 22.5749 30.2451 23.0737 30.2451H24.6144C24.9859 30.2451 25.288 29.943 25.288 29.5715V28.1472C25.288 27.7761 24.9859 27.474 24.6144 27.474C24.1514 27.474 23.7765 27.0992 23.7765 26.6362C23.7765 26.1732 24.1514 25.7984 24.6144 25.7984C25.9099 25.7984 26.9636 26.8521 26.9636 28.1472V29.5715C26.9636 30.867 25.9099 31.9207 24.6144 31.9207Z" fill="white"/>
</svg>
