<?xml version="1.0" encoding="utf-8"?>
<!-- Generator: Adobe Illustrator 25.2.3, SVG Export Plug-In . SVG Version: 6.00 Build 0)  -->
<svg version="1.1" id="Capa_1" xmlns="http://www.w3.org/2000/svg" xmlns:xlink="http://www.w3.org/1999/xlink" x="0px" y="0px"
	 viewBox="0 0 20 20" style="enable-background:new 0 0 20 20;" xml:space="preserve">
<g>
	<path d="M19.5,8.4C19.5,8.4,19.5,8.4,19.5,8.4c-0.8-1-2-2.4-3.6-3.7c-2-1.5-4-2.3-5.9-2.3c-1.9,0-3.9,0.8-5.9,2.3
		C2.5,6,1.3,7.5,0.5,8.4C0.2,8.9,0,9.4,0,10c0,0.6,0.2,1.1,0.5,1.6c0.8,1,2,2.4,3.6,3.7c2,1.5,4,2.3,5.9,2.3c1.9,0,3.9-0.8,5.9-2.3
		c1.6-1.2,2.8-2.7,3.6-3.7c0.3-0.5,0.5-1,0.5-1.6C20,9.4,19.8,8.9,19.5,8.4z M18,10.4c-1.2,1.6-4.4,5.2-8,5.2c-3.6,0-6.8-3.7-8-5.2
		c-0.2-0.2-0.2-0.6,0-0.8C3.2,8,6.4,4.3,10,4.3c3.6,0,6.8,3.7,8,5.2C18.2,9.8,18.2,10.2,18,10.4z"/>
	<path d="M10,6.2c-2.1,0-3.8,1.7-3.8,3.8c0,2.1,1.7,3.8,3.8,3.8c2.1,0,3.8-1.7,3.8-3.8C13.8,7.9,12.1,6.2,10,6.2z M10,11.9
		c-1,0-1.9-0.8-1.9-1.9S9,8.1,10,8.1S11.9,9,11.9,10S11,11.9,10,11.9z"/>
</g>
</svg>
