<svg xmlns="http://www.w3.org/2000/svg" width="200" height="200" viewBox="0 0 200 200"><defs><style>.a{fill:#d877b5;}.b{fill:#fff;}</style></defs><path class="a" d="M188.29,100c0,9.0768-9.5352,16.5361-12.1946,24.7263-2.7562,8.4883.4782,20.109-4.6638,27.1744-5.1934,7.136-17.28,7.626-24.4156,12.8193-7.0653,5.1419-11.2379,16.514-19.7261,19.27-8.19,2.6593-18.2128-4.0014-27.2894-4.0014s-19.1,6.6606-27.29,4.0012c-8.4883-2.7562-12.6609-14.1284-19.7263-19.27-7.1359-5.1934-19.2221-5.6835-24.4154-12.82-5.1419-7.0654-1.9073-18.6859-4.6634-27.1741-2.6593-8.19-12.1945-15.6493-12.1945-24.7259s9.5352-16.5361,12.1946-24.7263c2.7562-8.4883-.4782-20.109,4.6638-27.1744,5.1934-7.136,17.28-7.626,24.4156-12.8193C60.05,30.1381,64.2224,18.766,72.7106,16.01c8.19-2.6593,18.2128,4.0014,27.2894,4.0014s19.1-6.6606,27.29-4.0012c8.4883,2.7562,12.6609,14.1284,19.7263,19.27,7.1359,5.1934,19.2221,5.6835,24.4154,12.8195,5.1419,7.0654,1.9073,18.6859,4.6634,27.1741C178.7543,83.4642,188.29,90.9234,188.29,100Z"/><path class="b" d="M156.1224,139.35a19.98,19.98,0,0,0-3.12-.6213,1.1244,1.1244,0,0,1-1.106-1.0529c-.91-4.615-1.82-9.23-2.7774-13.8354a1.6351,1.6351,0,0,1,.5616-1.7589,25.7228,25.7228,0,0,0,7.7876-13.111c.74-3.1653.8168-6.4315,1.6253-9.6149.9727-3.83-.5067-6.4266-4.2139-7.8369-3.9591-1.5062-8.02-2.7476-12.0524-4.0547a1.4731,1.4731,0,0,1-1.1464-1.0292A7.7455,7.7455,0,0,0,128.37,83.8264a1.6032,1.6032,0,0,1-1.2159.473A258.3772,258.3772,0,0,0,96.06,81.6377,1.3988,1.3988,0,0,1,94.5255,80.56,23.0819,23.0819,0,0,0,84.4867,68.5823c-1.2609-.7547-2.5937-1.389-3.9208-2.0931C83,61.19,86.0544,56.4147,91.0685,53.1679c.3528-.2284.7948-.6884.7843-1.0279a2.9982,2.9982,0,0,0-.5842-1.8007c-.5668-.6365-1.3641-.4643-2.0783-.0094a28.2686,28.2686,0,0,0-8.9257,9.435c-1.1157,1.8371-2.073,3.77-3.1365,5.7236a31.962,31.962,0,0,0-15.4991.0235c-.5919-1.191-1.1153-2.3227-1.7056-3.4184A30.7075,30.7075,0,0,0,49.8016,50.4374c-1.1338-.7373-2.0986-.6071-2.6829.31a1.756,1.756,0,0,0,.7571,2.51C52.8334,56.5,55.8436,61.2559,58.26,66.4666c-1.5087.8208-2.9894,1.5774-4.42,2.4192a52.0624,52.0624,0,0,0-6.9527,6.6531A24.39,24.39,0,0,0,43.2852,83.89c-.2119.93-.446,1.854-.67,2.7808v6.3863c.1917.7054.4032,1.4062.5723,2.117a29.4338,29.4338,0,0,0,12.5211,17.8464c2.6669,1.8283,5.1437,3.6,6.4272,6.6591a1.9666,1.9666,0,0,0,.4545.651,1.3985,1.3985,0,0,1,.2512,1.7318c-1.5779,4.2219-3.2731,8.4109-4.5962,12.7132-.7422,2.4133-1.8277,3.6933-4.47,3.923a4.4162,4.4162,0,0,0-3.9411,4.9845,4.6871,4.6871,0,0,0,4.8325,4.3382c2.09.0189,4.1814.0139,6.272.0015a6.2391,6.2391,0,0,0,6.1045-4.26c.6962-1.8424,1.356-3.6985,2.0312-5.5488,1.0849-2.9725,2.169-5.9453,3.28-8.99a49.6883,49.6883,0,0,0,16.22,6.0255,1.587,1.587,0,0,1,.94.8976c.9767,2.546,1.86,5.1277,2.8214,7.68a5.9583,5.9583,0,0,0,5.4667,4.1537c2.423.1546,4.865.0917,7.2956.0208a4.6322,4.6322,0,0,0,4.4284-4.3871,4.6882,4.6882,0,0,0-3.6741-4.9381,13.2285,13.2285,0,0,0-2.35-.42c-1.2715-.0447-1.514-.8213-1.6162-1.9962,1.4439,0,2.8093-.012,4.1744.0028,2.1544.0234,4.3086.08,6.463.0913a12.0381,12.0381,0,0,0,2.6057-.1383c1.4348-.3131,2.82-.8476,4.2509-1.1857,3.6134-.8539,7.2774-1.5169,10.85-2.5114,2.9254-.8143,5.7486-1.9961,8.67-3.0337.7413,3.56,1.46,7.1663,2.25,10.7571a7.9178,7.9178,0,0,0,5.736,6.3386,50.67,50.67,0,0,0,7.717,1.3991,4.2818,4.2818,0,0,0,4.5794-3.5767A4.3532,4.3532,0,0,0,156.1224,139.35Z"/></svg>