<svg xmlns="http://www.w3.org/2000/svg" width="39.6685" height="38.2877" viewBox="0 0 39.6685 38.2877"><defs><style>.a{fill:#231f20;}</style></defs><path class="a" d="M15.8813,38.3994a6.83,6.83,0,0,1-1.9936-.29l-.1118-.04a8.7071,8.7071,0,0,1-3.8067-2.96,7.6453,7.6453,0,0,0-.873-.8682,7.0577,7.0577,0,0,0-1.1909-.5937,8.899,8.899,0,0,1-3.8877-2.6758l-.1148-.1572a8.8465,8.8465,0,0,1-1.3491-4.5567,5.8658,5.8658,0,0,0-.2-1.28,5.733,5.733,0,0,0-.581-1.1211A8.9958,8.9958,0,0,1,.1733,19.3457L.1665,19.249l.0064-.0962a9.0384,9.0384,0,0,1,1.6171-4.58,6.7212,6.7212,0,0,0,.5913-1.1674A5.7791,5.7791,0,0,0,2.61,12.1543a8.7607,8.7607,0,0,1,1.2817-4.459L4.019,7.519A8.9407,8.9407,0,0,1,7.9751,4.8257,7.1423,7.1423,0,0,0,9.1138,4.251a7.8313,7.8313,0,0,0,.9292-.94A8.7637,8.7637,0,0,1,13.8311.4209l.1865-.06a8.8894,8.8894,0,0,1,4.7187.1475A6.1491,6.1491,0,0,0,21.4629.4839,8.7762,8.7762,0,0,1,26.01.3594l.2041.0649a8.8549,8.8549,0,0,1,3.7949,2.9522,7.6369,7.6369,0,0,0,.8525.8808,7.0967,7.0967,0,0,0,1.1826.5879A8.8784,8.8784,0,0,1,35.9287,7.521l.1152.1577a8.8811,8.8811,0,0,1,1.35,4.5523,5.7516,5.7516,0,0,0,.2539,1.2563,6.8148,6.8148,0,0,0,.581,1.1489,9.0435,9.0435,0,0,1,1.5986,4.5088l.0079.1065-.0088.1064a9.0221,9.0221,0,0,1-1.6817,4.5581,6.6907,6.6907,0,0,0-.5537,1.0879,5.9178,5.9178,0,0,0-.1982,1.3057,8.8072,8.8072,0,0,1-1.35,4.5224l-.1143.1573a8.96,8.96,0,0,1-3.9346,2.6933,6.9741,6.9741,0,0,0-1.1435.5762,7.7229,7.7229,0,0,0-.9287.9385,8.6015,8.6015,0,0,1-3.752,2.8906l-.1914.0605a9.0817,9.0817,0,0,1-4.7-.1259,5.74,5.74,0,0,0-2.7217.0156A13.2131,13.2131,0,0,1,15.8813,38.3994ZM14.748,35.4775a3.9338,3.9338,0,0,0,1.0918.1553,10.3472,10.3472,0,0,0,2.0586-.2822,8.5409,8.5409,0,0,1,4.1094.0039,6.405,6.405,0,0,0,3.2276.125,5.9146,5.9146,0,0,0,2.5039-1.9815,10.6158,10.6158,0,0,1,1.4082-1.4228l.1406-.1025a9.7964,9.7964,0,0,1,1.7607-.89A6.2521,6.2521,0,0,0,33.75,29.2783a6.0579,6.0579,0,0,0,.876-3.0449,8.8169,8.8169,0,0,1,.3183-2.042l.043-.1309a9.5762,9.5762,0,0,1,.875-1.707A6.3575,6.3575,0,0,0,37.0586,19.24a6.2811,6.2811,0,0,0-1.1133-3.0415L35.91,16.146a9.5158,9.5158,0,0,1-.8741-1.7481,8.5592,8.5592,0,0,1-.4062-2.0424A6.2012,6.2012,0,0,0,33.749,9.23a6.1679,6.1679,0,0,0-2.6533-1.7857,9.9559,9.9559,0,0,1-1.8076-.9082l-.1572-.1172a10.3926,10.3926,0,0,1-1.3125-1.3525,6.1678,6.1678,0,0,0-2.5479-2.0376,6.1356,6.1356,0,0,0-3.0879.1255,9.0377,9.0377,0,0,1-4.1714.0229,6.272,6.272,0,0,0-3.247-.1489A6.0887,6.0887,0,0,0,12.2173,5.021a10.6109,10.6109,0,0,1-1.4009,1.4136l-.14.102a9.8924,9.8924,0,0,1-1.7583.89A6.2482,6.2482,0,0,0,6.2026,9.2236a6.11,6.11,0,0,0-.8291,3.0386,8.5456,8.5456,0,0,1-.3862,2.0689,9.5656,9.5656,0,0,1-.9028,1.788,6.3347,6.3347,0,0,0-1.1436,3.1231A6.2666,6.2666,0,0,0,4.0547,22.293a8.5424,8.5424,0,0,1,.9111,1.77l.0362.11a8.6762,8.6762,0,0,1,.3173,2.0087,6.107,6.107,0,0,0,.877,3.0791,6.1857,6.1857,0,0,0,2.6548,1.7872,9.8714,9.8714,0,0,1,1.8071.9072l.1406.1025a10.4268,10.4268,0,0,1,1.3535,1.3535A6.05,6.05,0,0,0,14.748,35.4775Z" transform="translate(-0.1665 -0.1117)"/><path class="a" d="M29.0839,14a1.9366,1.9366,0,0,0-2.7387.019l-8.2738,8.2932L13.6548,17.876a1.9367,1.9367,0,0,0-2.7387,2.7391L16.702,26.401l.0112.0112a1.9288,1.9288,0,0,0,2.7275-.0112l9.6622-9.6626A1.9366,1.9366,0,0,0,29.0839,14Z" transform="translate(-0.1665 -0.1117)"/></svg>