<svg xmlns="http://www.w3.org/2000/svg" width="13.7927" height="20" viewBox="0 0 13.7927 20"><path d="M6.9589,19.8206.6751,13.537a.6121.6121,0,0,1,0-.8657l0,0L1.941,11.405a.6124.6124,0,0,1,.866,0L7.3921,15.99l4.5853-4.585a.6122.6122,0,0,1,.866,0h0l1.2657,1.2659a.6122.6122,0,0,1,0,.8658l0,0L7.8249,19.8207a.6122.6122,0,0,1-.8658,0Z" transform="translate(-0.4957 0)"/><path d="M7.8253.1794,14.1091,6.463a.6121.6121,0,0,1,0,.8657l0,0L12.8432,8.595a.6124.6124,0,0,1-.866,0L7.3921,4.01,2.8068,8.595a.6122.6122,0,0,1-.866,0h0L.6751,7.3291a.6122.6122,0,0,1,0-.8658l0,0L6.9593.1793a.6122.6122,0,0,1,.8658,0Z" transform="translate(-0.4957 0)"/></svg>