<svg xmlns="http://www.w3.org/2000/svg" width="512" height="384" viewBox="0 0 512 384"><defs><style>.a{fill:#47403e;}</style></defs><path class="a" d="M489.0667,121.4933a41.2521,41.2521,0,0,0-43.4561,3.904l-41.472,40.1494C396.3733,108.3093,347.3067,64,288,64H117.3333A117.472,117.472,0,0,0,0,181.3333V330.6667A117.472,117.472,0,0,0,117.3333,448H288c59.136,0,108.096-44.0533,116.0747-101.0347l41.536,39.3814a41.325,41.325,0,0,0,45.76,2.688C504.8107,381.2694,512,365.8241,512,350.2934V158.592A41.2471,41.2471,0,0,0,489.0667,121.4933ZM341.3333,330.6667A53.38,53.38,0,0,1,288,384H117.3333A53.3939,53.3939,0,0,1,64,330.6667V181.3333A53.3939,53.3939,0,0,1,117.3333,128H288a53.38,53.38,0,0,1,53.3333,53.3333V330.6667Z" transform="translate(0 -64)"/></svg>