<svg xmlns="http://www.w3.org/2000/svg" width="512.0131" height="469.8335" viewBox="0 0 512.0131 469.8335"><defs><style>.a{fill:#47403e;}</style></defs><path class="a" d="M470.549,111.573,313.237,36.629a111.489,111.489,0,0,0-112.704-.96L41.451,111.573c-.597.299-1.216.619-1.792.96A78.7415,78.7415,0,0,0,41.451,250.24l43.883,20.907V375.68a106.817,106.817,0,0,0,75.072,101.931,331.8827,331.8827,0,0,0,95.595,13.056,331.9,331.9,0,0,0,95.595-12.949,106.8161,106.8161,0,0,0,75.072-101.931V271.104l42.667-20.395V426.666a21.333,21.333,0,1,0,42.666,0v-256C512.143,145.615,492.363,122.473,470.549,111.573ZM384,375.787a64,64,0,0,1-44.8,61.077A289.9623,289.9623,0,0,1,256,448a289.9623,289.9623,0,0,1-83.2-11.136A64.0006,64.0006,0,0,1,128,375.787V291.478l70.763,33.707A112.47,112.47,0,0,0,256.47,340.95a106.6663,106.6663,0,0,0,54.976-14.805L384,291.477Zm68.267-164.054-160.896,76.8a70.272,70.272,0,0,1-72.32-.96L61.632,212.693a36.0961,36.0961,0,0,1-.789-63.104L220.736,73.216a70.4008,70.4008,0,0,1,72.32.96L450.368,149.12a36.8615,36.8615,0,0,1,18.965,31.787,36.2662,36.2662,0,0,1-17.066,30.826Z" transform="translate(0.0114 -20.8543)"/></svg>