<svg xmlns="http://www.w3.org/2000/svg" width="512" height="403.652" viewBox="0 0 512 403.652"><defs><style>.a{fill:#47403e;}</style></defs><path class="a" d="M473.759,107.286c-19.12-31.867-53.112-53.112-91.353-53.112H127.469c-38.241,0-72.232,21.245-91.353,53.112C12.747,149.776,0,196.515,0,245.378,0,362.224,46.739,457.826,106.224,457.826c31.867,0,57.361-29.743,76.481-91.353,2.124-8.498,10.622-14.871,21.245-14.871h104.1c8.498,0,16.996,6.373,21.245,14.871,19.12,61.61,44.614,91.353,76.481,91.353C465.261,457.826,512,362.224,512,245.378,509.876,196.515,497.129,149.776,473.759,107.286Zm-70.108,308.05c-6.373,0-21.245-16.996-36.116-61.61-8.498-27.618-33.992-44.614-61.61-44.614H203.95c-27.618,0-53.112,19.12-61.61,44.614-14.871,44.614-29.743,61.61-36.116,61.61-21.245,0-63.734-65.859-63.734-169.958,0-40.365,10.622-80.73,29.743-116.846,12.747-19.12,33.992-31.867,55.237-31.867H382.408c21.245,0,42.49,12.747,55.237,31.867,19.12,36.116,29.743,76.481,29.743,116.846C467.386,349.477,424.896,415.336,403.651,415.336Z" transform="translate(0 -54.174)"/><path class="a" d="M192,192H170.667V170.667c0-12.8-8.533-21.333-21.333-21.333s-21.333,8.533-21.333,21.333V192H106.668c-12.8,0-21.333,8.533-21.333,21.333s8.533,21.333,21.333,21.333H128V256c0,12.8,8.533,21.333,21.333,21.333S170.666,268.8,170.666,256V234.667H192c12.8,0,21.333-8.533,21.333-21.333S204.8,192,192,192Z" transform="translate(0 -54.174)"/><circle class="a" cx="394.667" cy="127.159" r="32"/><circle class="a" cx="330.667" cy="191.159" r="32"/></svg>