<svg xmlns="http://www.w3.org/2000/svg" width="510.4705" height="511.6429" viewBox="0 0 510.4705 511.6429"><defs><style>.a{fill:#47403e;}</style></defs><path class="a" d="M234.6667,128a21.3333,21.3333,0,0,1-21.3334,21.3333A21.3334,21.3334,0,0,0,192,170.6667a21.3334,21.3334,0,0,1-42.6667,0,64,64,0,0,1,64-64A21.3333,21.3333,0,0,1,234.6667,128Zm64,21.3333a21.3334,21.3334,0,1,0,0,42.6667A21.3333,21.3333,0,0,1,320,213.3333a21.3334,21.3334,0,1,0,42.6667,0A64,64,0,0,0,298.6667,149.3333Zm169.024,138.368L439.9574,426.368A106.9441,106.9441,0,0,1,335.3813,512H176.6187A106.944,106.944,0,0,1,72.0853,426.2613L44.352,287.5947A85.4827,85.4827,0,0,1,43.2853,139.264a85.4826,85.4826,0,0,1,70.016-73.984,73.728,73.728,0,0,1,78.9334-43.008,75.0293,75.0293,0,0,1,120.512,20.3947A74.2185,74.2185,0,0,1,363.776,66.4533a85.5674,85.5674,0,0,1,104.9813,72.832,85.4827,85.4827,0,0,1-1.0666,148.416ZM180.992,469.3333,170.6667,342.656a43.072,43.072,0,0,0-42.1431-43.9813q-.2618-.0057-.5236-.008H90.0267L113.856,417.8773A64.6186,64.6186,0,0,0,180.992,469.3333Zm106.0693,0L298.6667,340.864a42.6673,42.6673,0,0,0-85.3334.4693l10.3894,128ZM421.9734,298.6667H384a42.6666,42.6666,0,0,0-42.6667,42.6666l-11.456,128a64.8106,64.8106,0,0,0,68.2667-51.456Zm47.36-85.3334a42.6666,42.6666,0,0,0-28.48-39.9786,21.3332,21.3332,0,0,1-14.1867-20.096,42.9227,42.9227,0,0,0-61.2694-42.0694,21.3333,21.3333,0,0,1-28.1173-8.96,32,32,0,0,0-27.9467-16.896,24.1067,24.1067,0,0,1-32.6186-16.256,32,32,0,0,0-58.432-11.2213c-9.472,15.3173-23.68,8.2773-36.9494,6.144a32,32,0,0,0-31.36,25.6,21.3333,21.3333,0,0,1-22.8693,17.0667,42.6667,42.6667,0,0,0-41.7707,42.6666,22.3361,22.3361,0,0,1-14.1866,24.0214A42.6666,42.6666,0,0,0,85.3333,256H128a84.8,84.8,0,0,1,64,29.4827,85.2059,85.2059,0,0,1,127.872-.1494A85.5043,85.5043,0,0,1,384,256h42.6667A42.6666,42.6666,0,0,0,469.3333,213.3333Z" transform="translate(-0.8228 -0.3571)"/></svg>