<svg xmlns="http://www.w3.org/2000/svg" width="120" height="37.2388" viewBox="0 0 120 37.2388"><defs><style>.a{fill:#f7f0f0;}.b{fill:#ff9486;}</style></defs><path class="a" d="M10.7778,30.3488C7.4733,30.255,1.6147,29.579,0,28.5839L.0563,23.89c2.0654,1.2581,9.088,4.8257,12.13,5.52,3.53.7885,5.3138-2.1219,4.0745-3.68C11.6605,20.1343.0188,19.402.0188,10.314c0-4.7693,4.6-7.1164,9.7452-7.1164,1.8589,0,6.7221-.0188,9.82,1.1642l-.15,4.7505C18.2318,8.305,12.8808,3.6482,7.0411,3.9116a2.1359,2.1359,0,0,0-2.084,2.61c2.5536,7.1913,17.5938,8.9,16.3171,16.0729C20.4667,27.1192,16.6738,30.3113,10.7778,30.3488Z" transform="translate(0 -0.381)"/><path class="a" d="M22.8294,37.62l-.0939-24.9591c1.3523.1315,5.9335-.3942,6.985-2.0653l.0188,1.6336a5.9129,5.9129,0,0,1,4.2248-1.6522,9.4688,9.4688,0,0,1,9.3362,9.6q-.0012.0918-.0043.1836c-.0564,8.3369-7.5669,13.1062-13.4818,7.5858V37.62Zm6.9851-22.2737V27.2882c7.2667,5.99,8.3744-15.4716,2.7977-15.9414-1.2957,0-2.46,1.333-2.7977,3.9994Z" transform="translate(0 -0.381)"/><path class="a" d="M44.9982,30.2174,45.017,12.53a7.254,7.254,0,0,0,6.9663-2.0655V30.2174Z" transform="translate(0 -0.381)"/><path class="a" d="M61.7753,12.2105a6.7453,6.7453,0,0,0-1.5585,3.4549,13.5021,13.5021,0,0,0,.0939,4.6567,7.5265,7.5265,0,0,0,2.1782,4.225A6.7121,6.7121,0,0,0,66.9765,26.35c1.84.0937,3.4736-.8638,4.8819-2.873a8.6454,8.6454,0,0,1-3.1921,5.22A8.8509,8.8509,0,0,1,63.39,30.4432a9.4176,9.4176,0,0,1-6.8723-2.6478,10.1636,10.1636,0,0,1-2.8541-7.3044,10.1664,10.1664,0,0,1,1.3333-5.1448,9.6149,9.6149,0,0,1,3.699-3.755,9.27,9.27,0,0,1,5.8017-.92A7.0738,7.0738,0,0,1,67.54,11.723a6.6777,6.6777,0,0,1,1.9716,1.8216,4.0171,4.0171,0,0,1,.6572,2.2532,2.9062,2.9062,0,0,1-.9015,2.1594,2.9361,2.9361,0,0,1-2.1593.9015,2.9775,2.9775,0,0,1-2.1782-.9015,2.9066,2.9066,0,0,1-.9016-2.1594,2.9782,2.9782,0,0,1,.9016-2.1781,3.949,3.949,0,0,1,2.6476-.9577,4.6975,4.6975,0,0,0-2.6849-1.3713A3.0136,3.0136,0,0,0,61.7753,12.2105Z" transform="translate(0 -0.381)"/><path class="a" d="M87.342,12.7174q2.901,2.7039,3.0418,8.1868l-11.3223.1127a6.97,6.97,0,0,0,2.5722,3.943,8.0854,8.0854,0,0,0,4.2435,1.2581c1.69.0752,3.3048-.845,4.8633-2.7415a8.6431,8.6431,0,0,1-3.2671,5.22,9.4407,9.4407,0,0,1-5.3889,1.7274,9.8088,9.8088,0,0,1-7.0226-2.6286,10.031,10.031,0,0,1-2.91-7.2854,10.3013,10.3013,0,0,1,2.0468-6.3467A8.7509,8.7509,0,0,1,80.2254,10.69,8.0248,8.0248,0,0,1,87.342,12.7174Zm-5.22,7.5108c1.1829-.15,1.69-.9016,1.54-2.2345a16.9307,16.9307,0,0,0-.3567-1.7462,15.6127,15.6127,0,0,0-.9577-2.779c-.6385-1.3707-1.4081-2.0841-2.3283-2.1217-.9575-.0375-1.5021.8265-1.6711,2.61a21.847,21.847,0,0,0,.5633,6.478A27.8634,27.8634,0,0,0,82.1221,20.2282Z" transform="translate(0 -0.381)"/><path class="a" d="M111.8452,3.3478l.0751,27.02c-2.1592-1.4459-5.971-2.4222-7.1352-1.2581-1.1829,1.2581-2.1218,1.2957-4.0745,1.2581a9.5333,9.5333,0,0,1-9.3335-9.729h0l.0013-.0538C91.4347,12.2481,98.9456,7.46,104.86,12.98V5.2256C105.0855,5.2256,110.5307,4.8879,111.8452,3.3478ZM104.86,25.8424v-12.43c-7.2667-6.0085-8.3745,15.96-2.7979,16.43C103.358,29.8419,104.5222,28.5088,104.86,25.8424Z" transform="translate(0 -0.381)"/><path class="a" d="M114.2226,24.4279a3.8075,3.8075,0,0,1,4.9027.0194,3.6645,3.6645,0,0,1,.8652,2.634,3.5172,3.5172,0,0,1-.8459,2.5571,3.289,3.289,0,0,1-2.4609.8652,3.2459,3.2459,0,0,1-2.4611-.8845,3.5842,3.5842,0,0,1-.8459-2.5764A3.6458,3.6458,0,0,1,114.2226,24.4279Z" transform="translate(0 -0.381)"/><path class="b" d="M52.099,6.7678c0-.02.0029-.0387.0029-.0584,0-.0418-.0018-.0793-.0032-.1179a4.258,4.258,0,0,0-.5243-1.8032.2172.2172,0,0,0-.2162-.13.2306.2306,0,0,0-.2069.1641,3.8816,3.8816,0,0,1-.16.3745,1.0136,1.0136,0,0,1-.9412.5907.6963.6963,0,0,1-.7153-.904c.0861-.3423.1593-.6875.2262-1.0338a3.0721,3.0721,0,0,0-.0376-1.4642A4.4492,4.4492,0,0,0,48.24.4394a.214.214,0,0,0-.3475.0811c-.0291.0657-.0417.1389-.07.2049-.157.3618-.2955.7338-.48,1.0812A10.4129,10.4129,0,0,1,46.1165,3.448a14.87,14.87,0,0,0-.9346,1.2244,3.4626,3.4626,0,0,0-.5866,1.9135c-.0014.04-.0032.08-.0032.1236a3.7527,3.7527,0,0,0,7.5038.1121l.0027-.0323C52.099,6.7821,52.0983,6.7755,52.099,6.7678Z" transform="translate(0 -0.381)"/></svg>