<svg xmlns="http://www.w3.org/2000/svg" width="120" height="37.2388" viewBox="0 0 120 37.2388"><defs><style>.a{fill:#1b1b1b;}.b{fill:#ff9486;}</style></defs><path class="a" d="M10.7778,30.349C7.4733,30.2552,1.6147,29.5792,0,28.5841L.0563,23.89c2.0654,1.2581,9.088,4.8257,12.13,5.52,3.53.7885,5.3138-2.1219,4.0745-3.68C11.6605,20.1345.0188,19.4022.0188,10.3142c0-4.7693,4.6-7.1164,9.7452-7.1164,1.8589,0,6.7221-.0188,9.82,1.1642l-.15,4.7505c-1.2021-.8073-6.5531-5.4641-12.3928-5.2007a2.1358,2.1358,0,0,0-2.084,2.61c2.5536,7.1915,17.5938,8.9,16.3171,16.0729C20.4667,27.1194,16.6738,30.3115,10.7778,30.349Z" transform="translate(0 -0.3812)"/><path class="a" d="M22.8294,37.62l-.0939-24.9589c1.3523.1315,5.9335-.3942,6.985-2.0654l.0188,1.6336a5.9133,5.9133,0,0,1,4.2248-1.6522,9.4688,9.4688,0,0,1,9.3363,9.6q-.0012.0917-.0043.1833c-.0564,8.3369-7.5669,13.1061-13.4818,7.5858V37.62Zm6.9851-22.2738V27.2884c7.2667,5.99,8.3744-15.4716,2.7977-15.9414-1.2957,0-2.46,1.333-2.7977,3.9994Z" transform="translate(0 -0.3812)"/><path class="a" d="M44.9982,30.2176,45.017,12.53a7.2543,7.2543,0,0,0,6.9663-2.0655V30.2176Z" transform="translate(0 -0.3812)"/><path class="a" d="M61.7753,12.2107a6.745,6.745,0,0,0-1.5585,3.4548,13.5026,13.5026,0,0,0,.0939,4.6568,7.5265,7.5265,0,0,0,2.1782,4.225A6.7121,6.7121,0,0,0,66.9764,26.35c1.84.0937,3.4737-.8638,4.882-2.873a8.6457,8.6457,0,0,1-3.1921,5.22A8.8508,8.8508,0,0,1,63.39,30.4432a9.4174,9.4174,0,0,1-6.8723-2.6476,10.1636,10.1636,0,0,1-2.8541-7.3044,10.1674,10.1674,0,0,1,1.3333-5.1448,9.6135,9.6135,0,0,1,3.699-3.755,9.2684,9.2684,0,0,1,5.8017-.92A7.0752,7.0752,0,0,1,67.54,11.7232a6.6793,6.6793,0,0,1,1.9716,1.8213,4.0173,4.0173,0,0,1,.6572,2.2532,2.906,2.906,0,0,1-.9015,2.1594,2.9357,2.9357,0,0,1-2.1593.9016,2.9776,2.9776,0,0,1-2.1782-.9016,2.9066,2.9066,0,0,1-.9016-2.1594,2.9781,2.9781,0,0,1,.9016-2.178,3.9491,3.9491,0,0,1,2.6476-.9578,4.6978,4.6978,0,0,0-2.6846-1.371A3.0135,3.0135,0,0,0,61.7753,12.2107Z" transform="translate(0 -0.3812)"/><path class="a" d="M87.342,12.7176q2.901,2.7039,3.0418,8.1868l-11.3223.1125A6.97,6.97,0,0,0,81.6337,24.96a8.0854,8.0854,0,0,0,4.2435,1.2581c1.69.0752,3.3048-.845,4.8633-2.7415a8.6431,8.6431,0,0,1-3.2671,5.22,9.4408,9.4408,0,0,1-5.3889,1.7273,9.8088,9.8088,0,0,1-7.0227-2.6288,10.0307,10.0307,0,0,1-2.91-7.2854,10.3009,10.3009,0,0,1,2.0468-6.3465A8.7509,8.7509,0,0,1,80.2254,10.69,8.0249,8.0249,0,0,1,87.342,12.7176Zm-5.22,7.5108c1.183-.15,1.69-.9016,1.54-2.2345a16.938,16.938,0,0,0-.3567-1.7463,15.6117,15.6117,0,0,0-.9577-2.7789c-.6385-1.3707-1.4081-2.0841-2.3283-2.1217-.9575-.0375-1.5021.8265-1.6711,2.61a21.8461,21.8461,0,0,0,.5633,6.4779A27.86,27.86,0,0,0,82.122,20.2284Z" transform="translate(0 -0.3812)"/><path class="a" d="M111.8452,3.348l.0751,27.02c-2.1593-1.4459-5.9711-2.4222-7.1352-1.2581-1.1829,1.2581-2.1218,1.2956-4.0746,1.2581a9.5334,9.5334,0,0,1-9.3334-9.729l.0013-.0538C91.4347,12.2483,98.9456,7.46,104.86,12.98V5.2258C105.0855,5.2258,110.5307,4.888,111.8452,3.348ZM104.86,25.8426v-12.43c-7.2667-6.0085-8.3745,15.96-2.7979,16.43C103.358,29.8421,104.5222,28.509,104.86,25.8426Z" transform="translate(0 -0.3812)"/><path class="a" d="M114.2226,24.4281a3.8076,3.8076,0,0,1,4.9027.0194,3.6645,3.6645,0,0,1,.8652,2.634,3.5172,3.5172,0,0,1-.8459,2.5571,3.289,3.289,0,0,1-2.4609.8652,3.2455,3.2455,0,0,1-2.4611-.8845,3.5842,3.5842,0,0,1-.8459-2.5764A3.6458,3.6458,0,0,1,114.2226,24.4281Z" transform="translate(0 -0.3812)"/><path class="b" d="M52.099,6.768c0-.02.0029-.0387.0029-.0585,0-.0417-.0018-.0792-.0032-.1178a4.258,4.258,0,0,0-.5243-1.8032.2171.2171,0,0,0-.2162-.13.2305.2305,0,0,0-.2069.1641,3.8816,3.8816,0,0,1-.16.3745,1.0133,1.0133,0,0,1-.9412.5906.6962.6962,0,0,1-.7153-.9039c.0861-.3423.1593-.6875.2262-1.0338a3.0725,3.0725,0,0,0-.0376-1.4643A4.4505,4.4505,0,0,0,48.24.44a.214.214,0,0,0-.3475.0811c-.0291.0657-.0417.1389-.07.2049-.157.3618-.2955.7338-.48,1.0812a10.4345,10.4345,0,0,1-1.2259,1.6414,14.8515,14.8515,0,0,0-.9346,1.2243,3.4624,3.4624,0,0,0-.5866,1.9135c-.0014.04-.0032.08-.0032.1236a3.7527,3.7527,0,0,0,7.5038.1121l.0027-.0323C52.099,6.7823,52.0983,6.7752,52.099,6.768Z" transform="translate(0 -0.3812)"/></svg>