<svg xmlns="http://www.w3.org/2000/svg" xmlns:xlink="http://www.w3.org/1999/xlink" viewBox="0 0 200 200"><defs><style>.cls-1,.cls-7{fill:none;}.cls-2{fill:#fff;}.cls-3{fill:#cb93ff;}.cls-4{clip-path:url(#clip-path);}.cls-5{fill:#e47659;}.cls-6{clip-path:url(#clip-path-2);}.cls-7{stroke:#000;stroke-linecap:round;stroke-linejoin:round;stroke-width:1.1571px;}.cls-8{fill:#e35a52;}</style><clipPath id="clip-path"><rect class="cls-1" width="200" height="200"/></clipPath><clipPath id="clip-path-2"><path class="cls-2" d="M57.614,161.8155a52.1375,52.1375,0,0,0,23.5746-7.1179c27.4581-16.5945,25.6631-51.1486,25.6631-51.1486s2.3768-45.7545-40.1779-57.248a45.5861,45.5861,0,0,0-5-1.0134c-8.6286-1.32-37.3462-5.1227-81.8731-5.1227V166.9682Z"/></clipPath></defs><g id="Fondos"><rect class="cls-3" width="200" height="200"/></g><g id="Gatos"><g class="cls-4"><path class="cls-2" d="M99.8952,83.13S121.23,64.018,117.0927,53.28c-3.7494-9.7322-43.3678-1.8928-43.3678-1.8928"/><path class="cls-5" d="M99.8952,123.968s21.3344,19.1122,17.1975,29.85c-3.7494,9.7323-43.3678,1.8928-43.3678,1.8928"/><path class="cls-2" d="M57.614,161.8155a52.1375,52.1375,0,0,0,23.5746-7.1179c27.4581-16.5945,25.6631-51.1486,25.6631-51.1486s2.3768-45.7545-40.1779-57.248a45.5861,45.5861,0,0,0-5-1.0134c-8.6286-1.32-37.3462-5.1227-81.8731-5.1227V166.9682Z"/><g class="cls-6"><circle class="cls-5" cx="82.5719" cy="141.3318" r="35.0531"/></g><path d="M71.456,107.2242c2.1181-1.1353-.6518-3.91-.6518-3.91s2.77-2.7752.6518-3.91c-1.4592-.7821-3.653,1.3692-4.8768,2.7834a1.7177,1.7177,0,0,0,0,2.2542C67.803,105.855,69.9968,108.0063,71.456,107.2242Z"/><path class="cls-7" d="M80.1416,64.8455s-2.39,10.5171-7.8878,18.6439"/><path class="cls-7" d="M65.37,83.4894s-2.39-10.5171-7.8878-18.6439"/><path class="cls-7" d="M69.524,63.264s1.4413,10.6886-.8648,20.2254"/><path class="cls-7" d="M80.1416,142.2876s-2.39-10.5171-7.8878-18.644"/><path class="cls-7" d="M65.37,123.6436s-2.39,10.5171-7.8878,18.644"/><path class="cls-7" d="M69.524,143.869s1.4413-10.6885-.8648-20.2254"/><path d="M80.5943,81.6233c-1.7206,0-2.4478,1.9018-2.4478,4.2478s.7272,4.2478,2.4478,4.2478a4.2763,4.2763,0,0,0,0-8.4956Z"/><path d="M80.5943,116.5085c-1.7206,0-2.4478,1.9018-2.4478,4.2478s.7272,4.2478,2.4478,4.2478a4.2763,4.2763,0,0,0,0-8.4956Z"/><path class="cls-8" d="M110.5113,53.3685s-18.9-5.85-21.8208,4.703C94.6105,62.8785,104.3108,60.8765,110.5113,53.3685Z"/><path class="cls-8" d="M110.78,152.9681s-22.1016,9.1764-26.5947-.232C93.9474,146.7533,104.0743,146.6956,110.78,152.9681Z"/><path class="cls-7" d="M111.6728,52.1749s-13.9622,15.76-24.0947,4.8176"/><path class="cls-7" d="M111.6728,153.7752s-11.7568-12.2408-28.2161-.536"/><path class="cls-7" d="M67.4535,103.5665s-7.4237,3.9039-3.109,10.4676"/><path class="cls-7" d="M67.4535,103.5665S60.03,99.6627,64.3445,93.099"/></g></g></svg>