<svg xmlns="http://www.w3.org/2000/svg" xmlns:xlink="http://www.w3.org/1999/xlink" viewBox="0 0 200 200"><defs><style>.cls-1{fill:none;}.cls-2{fill:#ffc762;}.cls-3{clip-path:url(#clip-path);}.cls-4{fill:#524b45;}.cls-5{fill:#3d332c;}.cls-6{fill:#ffb9b2;}.cls-7{fill:#fff;}.cls-8{fill:#27221d;}.cls-9{fill:#39322d;}</style><clipPath id="clip-path"><rect class="cls-1" width="200" height="200"/></clipPath></defs><g id="Fondos"><rect class="cls-2" y="-0.1779" width="200" height="200.2372"/></g><g id="Gatos"><g class="cls-3"><path class="cls-4" d="M116.6817-.6764C97.2707,11.33,76.2135,33.04,62.293,51.1276S40.8457,91.1017,31.087,111.7342c-1.18,2.4941-5.438,4.7264-6.7561,11.8058-.8123,4.3633.44,8.269,4.1231,10.746,1.2644.8505,2.805,1.4745,3.5327,2.8134a8.0847,8.0847,0,0,1,.6407,2.88c.5944,4.5965,4.7067,9.3713,9.1649,8.1043.9505-.27,1.9679-.7945,2.865-.38s1.1588,1.5308,1.49,2.4624a8.1071,8.1071,0,0,0,15.1612.301c.5673-1.4133.941-3.2133,2.3824-3.7048a5.1321,5.1321,0,0,1,1.92-.0785c5.4156.2729,10.37-5.14,9.6194-10.51-.4206-3.01-2.2881-5.6416-2.9133-8.6161-1.0052-4.783,1.3133-9.5976,3.8441-13.7788a102.7789,102.7789,0,0,1,16.704-20.9035c31.5666-9.0328,65.1545-4.3253,97.971-3.2667a5.3137,5.3137,0,0,0,2.2009-.2411,4.4553,4.4553,0,0,0,2.2176-2.8111c.896-2.539,2.9646-5.123,2.9927-7.8152.1986-18.9945-.0754-79.4358-.0754-79.4358Z"/><path class="cls-4" d="M123.8428,39.1821c-7.1115-.0925-14.2282,1.1977-20.2729,4.9451-10.3,6.3859-18.1628,17.2693-19.1654,29.3472a56.3126,56.3126,0,0,0,.8776,13.41A50.47,50.47,0,0,0,87.9405,97.73a25.7166,25.7166,0,0,1,1.6091,4.4882,19.5428,19.5428,0,0,1-.0744,5.7162,102.0355,102.0355,0,0,0-.35,16.3462,25.7916,25.7916,0,0,0,1.6026,8.52c.5974,1.4225,1.6584,2.9041,3.198,3.0043a4.6229,4.6229,0,0,0,2.2535-.6212,47.0848,47.0848,0,0,0,14.4393-11.1649c8.54,5.2395,17.6445,10.6482,27.6634,10.7064a5.16,5.16,0,0,1,3.3209.7114,3.9664,3.9664,0,0,1,.9534,1.3119c2.2609,4.4548,1.8742,10.0294,4.7067,14.1446a2.735,2.735,0,0,0,.9608.9489,2.6248,2.6248,0,0,0,1.4295.1757c2.7223-.2588,5.1088-1.8926,7.2033-3.6506a53.9777,53.9777,0,0,0,14.4691-19.751c8.853-6.5057,18.125-13.5377,22.2159-23.734,3.9391-9.8179,2.3274-21.1569-1.9443-30.8347A60.994,60.994,0,0,0,165.6,45.578C154.1618,39.2341,140.805,39.4028,123.8428,39.1821Z"/><path class="cls-5" d="M123.8388,39.4907a41.1924,41.1924,0,0,0-15.7456,2.92,41.1261,41.1261,0,0,0-21.2645,22.912A35.7056,35.7056,0,0,0,85.0916,81.12a104.0308,104.0308,0,0,0,1.573,10.681,38.9611,38.9611,0,0,0,2.3964,7.6984,14.6641,14.6641,0,0,1,.7916,2.66.3087.3087,0,0,1-.6054.12,36.5208,36.5208,0,0,0-1.914-5.0227A52.46,52.46,0,0,1,84.7176,86.64a61.9284,61.9284,0,0,1-1.0277-10.9c.048-9.2667,4.2816-18.1627,10.5932-24.8188a39.6687,39.6687,0,0,1,13.41-9.4779,38.9253,38.9253,0,0,1,14.7875-2.5952l1.3661.0261a.3086.3086,0,0,1-.008.6172Z"/><path class="cls-5" d="M193.2548,104.7674c.4089-1.2095.7879-2.4513,1.0909-3.6916.122-.572.256-1.3075.3737-1.885.0316-.2276.2335-1.639.2688-1.9011a39.8329,39.8329,0,0,0-.3257-10.71c-1.47-9.1532-5.63-17.7313-11.1188-25.1463-.22-.2916-.7108-.94-.9429-1.23-.3118-.4125-.6418-.81-.963-1.216a.3088.3088,0,0,1,.4655-.4054c.7078.7684,1.4048,1.5489,2.065,2.3605a54.99,54.99,0,0,1,10.372,19.28,38.9194,38.9194,0,0,1,1,19.5281c-.1772.7116-.381,1.5925-.6229,2.2866-.1308.3975-.3345,1.1057-.5035,1.4955l-.5863,1.4638a.3086.3086,0,0,1-.5728-.23Z"/><path class="cls-6" d="M39.3553,126.5518a9.6711,9.6711,0,0,0,1.9635,5.96,18.595,18.595,0,0,0,5.2373,5.3643,12.8723,12.8723,0,0,0,7.1111,2.1872,12.86,12.86,0,0,0,9.7772-4.9162,10.16,10.16,0,0,0,2.0784-6.4074,5.8826,5.8826,0,0,0-1.8432-4.3209c-1.76-1.4777-4.4144-1.3267-6.3416-2.5778a16.9881,16.9881,0,0,1-2.496-2.3673,12.1988,12.1988,0,0,0-6.1159-3.2566,7.5664,7.5664,0,0,0-3.5412.0285,7.175,7.175,0,0,0-4.2677,3.8734A17.3567,17.3567,0,0,0,39.3553,126.5518Z"/><path class="cls-6" d="M68.9508,135.2442a3.8257,3.8257,0,1,1-4.0494,5.9854,3.2223,3.2223,0,0,1-.5988-1.3213,4,4,0,0,1,.3912-2.3531,4.759,4.759,0,0,1,1.5308-1.9617A3.106,3.106,0,0,1,68.9508,135.2442Z"/><path class="cls-6" d="M50.8385,149.1113a5.1725,5.1725,0,0,0,6.451.6879,4.3133,4.3133,0,0,0,1.9144-3.1515,3.3406,3.3406,0,0,0-1.6883-3.18,4.4412,4.4412,0,0,0-1.8122-.4169,6.0685,6.0685,0,0,0-4.3335,1.3007C50.21,145.375,49.2653,147.4546,50.8385,149.1113Z"/><path class="cls-6" d="M37.3059,138.6022a2.98,2.98,0,0,0-.0881,2.7725,5.3688,5.3688,0,0,0,3.7621,3.6587,4.4125,4.4125,0,0,0,2.5772-.3789,4.2689,4.2689,0,0,0,2.3338-2.4807,4.0761,4.0761,0,0,0-1.5794-4.3658,5.63,5.63,0,0,0-4.7412-.7231A4.3274,4.3274,0,0,0,37.3059,138.6022Z"/><path class="cls-6" d="M28.6223,123.8034a3.4486,3.4486,0,0,0-.1747,3.33,4.7548,4.7548,0,0,0,4.8877,2.7539,4.47,4.47,0,0,0,3.7225-4.1213,6.26,6.26,0,0,0-.2619-1.83,3.7622,3.7622,0,0,0-.5738-1.3069,3.1619,3.1619,0,0,0-1.38-.9673A5.2884,5.2884,0,0,0,28.6223,123.8034Z"/><path class="cls-7" d="M72.2841,143.4933a7.9476,7.9476,0,0,1-.37,3.9231,1.516,1.516,0,0,1-.2995.5593.5835.5835,0,0,1-.5778.1835.8831.8831,0,0,1-.4388-.4716q-.6405-1.1807-1.2811-2.3612a.4972.4972,0,0,1-.0736-.2007c-.01-.1732.1532-.3.2989-.3947A7.263,7.263,0,0,1,72.2841,143.4933Z"/><path class="cls-7" d="M55.8191,154.1334a7.9482,7.9482,0,0,1-1.3732,3.6935,1.5152,1.5152,0,0,1-.4342.4626.5834.5834,0,0,1-.6056.0276.8829.8829,0,0,1-.3016-.5692q-.3129-1.3062-.6257-2.6125a.4935.4935,0,0,1-.0191-.2129c.0349-.17.2258-.2505.3909-.3038A7.2655,7.2655,0,0,1,55.8191,154.1334Z"/><path class="cls-7" d="M37.3276,146.6663l-2.9593,1.7754c-.2307.1384-.5372.2741-.7481.1072-.1922-.152-.1617-.4477-.1056-.6862a11.9109,11.9109,0,0,1,1-2.7146c.1166-.2268.283-.4781.5375-.4927a.7707.7707,0,0,1,.4961.2311A10.7444,10.7444,0,0,1,37.3276,146.6663Z"/><path class="cls-7" d="M28.2164,132.5607a13.7049,13.7049,0,0,0-2.9332,1.6075,4.3471,4.3471,0,0,1-1.2081.7122.5512.5512,0,0,1-.47-.02.4945.4945,0,0,1-.1736-.2658,2.0025,2.0025,0,0,1,.0563-1.1,12.306,12.306,0,0,1,1.2206-3.0069c.1313-.23.3033-.48.5657-.5179a.8581.8581,0,0,1,.6251.2539C26.6354,130.8171,27.2267,131.589,28.2164,132.5607Z"/><path class="cls-6" d="M151.11,145.715a3.6,3.6,0,0,0,2.5761-1.2874c4.0541-3.7829,7.599-8.2743,9.4146-13.5135.0966-.2789.1434-.6718-.1262-.7918a.6166.6166,0,0,0-.4613.05A48.433,48.433,0,0,1,151.96,132.91a14.2746,14.2746,0,0,0-3.0112.6179,1.4237,1.4237,0,0,0-.81.586,1.4936,1.4936,0,0,0-.1314.6131,21.0946,21.0946,0,0,0,.7756,6.2007,17.2928,17.2928,0,0,0,1.2607,3.7745C150.2365,145.0832,150.4173,145.6528,151.11,145.715Z"/><path class="cls-6" d="M106.804,121.4611c-2.6774,2.3876-5.3593,4.7789-8.2415,6.9147a6.2843,6.2843,0,0,1-1.4629.8808,2.2757,2.2757,0,0,1-1.6713.0417,3.1429,3.1429,0,0,1-1.4559-1.7544c-1.8651-4.1791-1.3812-14.5721-.4313-17.8172a1.2666,1.2666,0,0,1,.6855-.8517,1.2312,1.2312,0,0,1,1.0361.1839c.9539.5586,4.0847,5.038,7.14,8.4513A26.3469,26.3469,0,0,0,106.804,121.4611Z"/><path class="cls-8" d="M127.14,99.3257a6.0532,6.0532,0,0,1-1.6754,1.7753,11.9251,11.9251,0,0,1-4.5556,2.2121,8.3752,8.3752,0,0,1-5.0115-.35c-.3507-.1451-.7437-.4043-.72-.7831a.65.65,0,0,1,.3278-.4883,1.6448,1.6448,0,0,1,.5776-.1885c1.66-.2984,3.4012-.04,5.0263-.4915a8.5178,8.5178,0,0,0,2.6277-1.3381,13.4659,13.4659,0,0,1,2.091-1.3871,1.6818,1.6818,0,0,1,.66-.1836.7473.7473,0,0,1,.6114.2612A.8326.8326,0,0,1,127.14,99.3257Z"/><path class="cls-8" d="M148.9278,105.8357c-.7986,3.6406,2.3185,6.9245,5.3054,8.8757a4.07,4.07,0,0,0,2.7248.8329c.3282-.0483.6991-.2267.7377-.5562a.816.816,0,0,0-.209-.5548,10.9208,10.9208,0,0,0-2.3622-1.985,11.906,11.906,0,0,1-4.0444-5.5768,3.419,3.419,0,0,0-.6769-1.364C150.0412,105.1448,149.1274,104.9255,148.9278,105.8357Z"/><path class="cls-7" d="M104.7917,82.4879A248.5755,248.5755,0,0,1,54.3634,66.1252l-3.2209-1.47a.0772.0772,0,1,1,.0643-.14l3.2353,1.4322A276.2879,276.2879,0,0,0,97.938,80.71c1.6989.4248,5.1739,1.2462,6.8863,1.6273a.0772.0772,0,1,1-.0326.1509Z"/><path class="cls-7" d="M107.7091,77.21A190.2988,190.2988,0,0,1,55.751,51.4841l-3.148-2.2672a.0771.0771,0,1,1,.0907-.1248l3.1689,2.232a201.617,201.617,0,0,0,44.5774,23.18c1.7987.6679,5.49,1.96,7.3164,2.56a.0772.0772,0,1,1-.0473.1469Z"/><path class="cls-7" d="M167.8692,101.9174A183.8927,183.8927,0,0,0,213.5858,115.06l3.1493.4479a.0772.0772,0,1,1-.0193.1531l-3.1581-.4079A168.7,168.7,0,0,1,173.66,104.5684c-1.4593-.596-4.413-1.8622-5.8531-2.51a.0771.0771,0,1,1,.0624-.141Z"/><path class="cls-7" d="M169.042,98.46c13.0895,4.5584,27.26,3.0244,40.7223,1.2216l2.7218-.3674a.0772.0772,0,0,1,.022.1528l-2.7166.4078c-12.5932,1.8527-25.7937,3.3115-38.1928-.3943l-2.609-.8753a.0772.0772,0,1,1,.0523-.1452Z"/><path class="cls-9" d="M140.1194,98.5952a.3239.3239,0,0,1-.3069-.4266,26.15,26.15,0,0,0,1.3257-6.7542.3236.3236,0,1,1,.646.0385,26.8023,26.8023,0,0,1-1.358,6.9215A.3239.3239,0,0,1,140.1194,98.5952Z"/><path class="cls-6" d="M136.0938,100.6892c.1818.3853.4584.6008,1.1529.4342a6.5572,6.5572,0,0,1,1.64-.4567,2.0465,2.0465,0,0,1,1.2213.6143,3.3811,3.3811,0,0,0,1.1406.785.8369.8369,0,0,0,.3462.0423.7205.7205,0,0,0,.317-.1253,1.2294,1.2294,0,0,0,.468-1.0763,3.1592,3.1592,0,0,0-.3512-1.1663,4.5378,4.5378,0,0,0-1.2816-1.7887,1.9839,1.9839,0,0,0-.5553-.3,2.3105,2.3105,0,0,0-1.3968.0463C137.78,98.0086,135.7058,99.8668,136.0938,100.6892Z"/><path class="cls-7" d="M152.104,92.7117a5.5621,5.5621,0,0,1,.4773,2.76,19.6452,19.6452,0,0,1-.6181,4.4252,15.4453,15.4453,0,0,1-1.5921-1.3494c-.8219-.7993-1.5824-1.6665-2.3914-2.4788q1.5217-1.6624,3.0386-3.3266c.21-.23.5113-.4805.7945-.3543A.6766.6766,0,0,1,152.104,92.7117Z"/><path class="cls-8" d="M165.8117,83.0457a19.5986,19.5986,0,0,1,1.4141,8.4638,13.4047,13.4047,0,0,1-3.168,7.8877,8.5107,8.5107,0,0,1-3.5208,2.4691c-2.9011,1.0032-6.05-.1019-8.5738-1.9691a19.6452,19.6452,0,0,0,.6181-4.4252,5.5621,5.5621,0,0,0-.4773-2.76.6766.6766,0,0,0-.2912-.3236c-.2832-.1262-.5841.1246-.7945.3543q-1.5192,1.6625-3.0386,3.3266a15.1783,15.1783,0,0,0-1.7037-1.5047c-2.9464-2.1811-6.8-2.6924-10.4652-2.6988-1.8235-.0033-3.6535.0987-5.477.1278a31.3442,31.3442,0,0,1-.5388-4.6259.7568.7568,0,0,0-.2281-.5566c-.2605-.1925-.6229.0049-.877.2071a15.1333,15.1333,0,0,0-2.1228,2.0614,5.1866,5.1866,0,0,0-1.351,2.6519c-.1294-.02-.2573-.04-.3851-.0615-3.6146-.61-7.2729-2.495-8.8262-5.8151-1.9432-4.1566-.55-8.9136,2.2814-12.2871a20.25,20.25,0,0,1,7.2325-5.2908,25.44,25.44,0,0,0,6.2454,7.0868,32.247,32.247,0,0,0,25.4172,6.7681,15.9917,15.9917,0,0,0,6.8749-2.7166A25.1936,25.1936,0,0,1,165.8117,83.0457Z"/><path class="cls-6" d="M164.0562,79.415a15.9917,15.9917,0,0,1-6.8749,2.7166,32.247,32.247,0,0,1-25.4172-6.7681,25.44,25.44,0,0,1-6.2454-7.0868,29.645,29.645,0,0,1,3.9155-1.4384,32.2178,32.2178,0,0,1,21.4191,1.0565A28.1255,28.1255,0,0,1,164.0562,79.415Z"/><path class="cls-7" d="M130.3338,91.9933a31.4148,31.4148,0,0,1-5.1177-.2621,5.1866,5.1866,0,0,1,1.351-2.6519,15.1333,15.1333,0,0,1,2.1228-2.0614c.2541-.2022.6165-.4.877-.2071a.7568.7568,0,0,1,.2281.5566A31.3442,31.3442,0,0,0,130.3338,91.9933Z"/><path class="cls-5" d="M72.9844,106.8429c-.4272.46-.7922.9876-1.1716,1.4873l-1.1384,1.4991c-.1767.2327.2264.5472.408.3148l1.1589-1.4833c.3862-.4944.8034-.9819,1.1391-1.5123A.2532.2532,0,0,0,72.9844,106.8429Z"/><path class="cls-5" d="M72.1954,105.4787a.2787.2787,0,0,0-.3639.0216,3.4468,3.4468,0,0,0-.28.3327l-.2772.3352-.5543.67a.2833.2833,0,0,0,0,.3916.28.28,0,0,0,.3914,0l.5658-.6782.2786-.3339a3.8787,3.8787,0,0,0,.3107-.382A.2766.2766,0,0,0,72.1954,105.4787Z"/><path class="cls-5" d="M74.6824,104.1319a.2382.2382,0,0,0-.2531-.0863.8545.8545,0,0,0-.246.1369c-.0657.0508-.1288.1051-.1926.1583l-.3494.2916-.6989.5831a.2779.2779,0,0,0,0,.3915.2842.2842,0,0,0,.3915,0l.6871-.5761.3384-.2837a1.37,1.37,0,0,0,.3418-.3479A.2424.2424,0,0,0,74.6824,104.1319Z"/><path class="cls-5" d="M179.93,57.4546l-.5743-1.1232c-.0941-.1841-.187-.3688-.2847-.551-.119-.2219-.2114-.4778-.498-.5036a.24.24,0,0,0-.2112.1211c-.1327.2414.04.4731.1526.6839.1009.1881.2063.3736.3108.56l.6169,1.0983a.2826.2826,0,1,0,.4879-.2852Z"/><path class="cls-5" d="M177.8794,56.7832a7.2608,7.2608,0,0,0-.5016-.8647c-.101-.1492-.2072-.295-.3206-.435a1.1339,1.1339,0,0,0-.1766-.1932.9178.9178,0,0,0-.3014-.1182.1647.1647,0,0,0-.2006.2006c.0055.0233.0117.0464.0178.0695a.4273.4273,0,0,0,.094.2775c.0508.0657.1032.13.1553.195q.016.0206.0027.0033-.0205-.0268.0173.0223c.0192.0249.0388.05.0583.0742l.0273.0349.0126.0167c.048.0639.0954.1282.1416.1936a7.2888,7.2888,0,0,1,.4926.8049.281.281,0,0,0,.3813.1A.2858.2858,0,0,0,177.8794,56.7832Z"/><path class="cls-5" d="M175.3761,55.4039c-.1481-.2312-.309-.453-.479-.6685a4.9335,4.9335,0,0,0-.5009-.5669.535.535,0,0,0-.4709-.1878.2128.2128,0,0,0-.1512.1867.38.38,0,0,0,.0793.2676,6.619,6.619,0,0,0,.5185.6162q.0355.0431.07.0868l.0232.0292.0227.029.0131.0171.0373.05c.02.0265.0394.0532.0589.08q.1313.1809.2515.3693a.3053.3053,0,0,0,.5272-.3082Z"/><path class="cls-5" d="M135.223,131.5842a1.7505,1.7505,0,0,0-.521-.0226l-.4525,0-.9229.001a.3356.3356,0,0,0,0,.6712l.9229.001.4525,0a1.76,1.76,0,0,0,.521-.0225A.3291.3291,0,0,0,135.223,131.5842Z"/><path class="cls-5" d="M134.2923,130.2241a1.1863,1.1863,0,0,0-.4068-.0216l-.3327.0005-.6786.001a.3375.3375,0,0,0,0,.675l.6786.001.3327,0a1.1932,1.1932,0,0,0,.4068-.0216.34.34,0,0,0,.2416-.3173A.3479.3479,0,0,0,134.2923,130.2241Z"/><path class="cls-5" d="M80.0677,43.9725a.2752.2752,0,0,0-.26-.1981.57.57,0,0,0-.46.2967q-.1494.199-.3013.3962-.3006.39-.6118.7708-.6316.7759-1.3016,1.52c-.2928.3255.1854.8084.4826.4827q.6838-.7492,1.33-1.5315.3182-.3856.6265-.7792.16-.2041.3178-.41A.5949.5949,0,0,0,80.0677,43.9725Z"/><path class="cls-5" d="M79.6841,47.1145a.9739.9739,0,0,0-.1789.1429,1.3819,1.3819,0,0,0-.1395.2059q-.1044.1722-.2182.3384a6.3458,6.3458,0,0,1-.4766.6155,7.6,7.6,0,0,1-1.1527,1.0946.3129.3129,0,0,0-.1089.4151.3061.3061,0,0,0,.4151.1088,7.3694,7.3694,0,0,0,1.3244-1.14,8.2233,8.2233,0,0,0,.5572-.6972q.1233-.172.2364-.3509a1.7076,1.7076,0,0,0,.1016-.1739.7952.7952,0,0,0,.0681-.3131A.2861.2861,0,0,0,79.6841,47.1145Z"/><path class="cls-5" d="M75.0024,48.5049c-.1371.1523-.254.3242-.3759.4887l-.3308.4463-.6721.9069a.2791.2791,0,0,0,.4377.3378l.7006-.885.3447-.4355c.1271-.16.2632-.3178.3746-.49A.3061.3061,0,0,0,75.0024,48.5049Z"/></g></g></svg>