<svg xmlns="http://www.w3.org/2000/svg" xmlns:xlink="http://www.w3.org/1999/xlink" viewBox="0 0 200 200"><defs><style>.cls-1,.cls-10,.cls-13,.cls-8{fill:none;}.cls-2{fill:#ffc762;}.cls-3{clip-path:url(#clip-path);}.cls-4{fill:#ffa392;}.cls-5{clip-path:url(#clip-path-2);}.cls-6{fill:#c470b1;}.cls-7{fill:#fbffff;}.cls-8{stroke:#6c6c6c;}.cls-10,.cls-13,.cls-8{stroke-linecap:round;stroke-linejoin:round;stroke-width:0.4277px;}.cls-9{fill:#6c6c6c;}.cls-10{stroke:#525252;}.cls-11{fill:#ffb4bf;}.cls-12{fill:#a1a1a1;}.cls-13{stroke:#000;}</style><clipPath id="clip-path"><rect class="cls-1" y="-220" width="200" height="200"/></clipPath><clipPath id="clip-path-2"><rect class="cls-1" width="200" height="200.1186"/></clipPath></defs><g id="Fondos"><rect class="cls-2" y="-0.1186" width="200" height="200.2372"/></g><g id="Gatos"><g class="cls-3"><path class="cls-4" d="M166.6849-55.84c-5.3229-2.9953-10.8506-.3758-14.8276,2.6877a53.1561,53.1561,0,0,0-43.4566-53.7548A53.16,53.16,0,0,0,46.4578-64.3034a52.9692,52.9692,0,0,0,.4653,21.5986c.5014,5.3617,3.07,25.5339,14.0464,37.2341C69.6394,3.7706,81.8657,8.2,95.7287,8.3806l1.3228,13.5415s5.9491,16.0635,17.6753,13.341,14.3718-15.47,14.3718-15.47l-1.2573-18.717a29.3937,29.3937,0,0,0,22.0144-25.6311c6.65,2.7978,17.0154-2.1953,20.3481-6.75C175.2105-38.1491,176.5889-50.2675,166.6849-55.84Z"/></g><g class="cls-5"><path class="cls-6" d="M8.7212,176.9922c0-6.6146,39.6424-11.9769,88.5438-11.9769s88.5439,5.3623,88.5439,11.9769-39.6424,28.2393-88.5439,28.2393S8.7212,183.6069,8.7212,176.9922Z"/><ellipse class="cls-7" cx="29.068" cy="163.3656" rx="19.0348" ry="18.0773"/><polygon class="cls-7" points="34.926 142.441 22.367 146.441 37.451 179.598 47.053 176.71 34.926 142.441"/><ellipse class="cls-7" cx="40.5279" cy="159.7226" rx="19.0348" ry="18.0773"/><ellipse cx="27.2861" cy="163.3656" rx="4.9191" ry="4.5701"/><path class="cls-7" d="M92.6176,40.0407c-3.5845,18.7158-10.87,32.44-23.0084,50.838C59.537,106.1439,36.4857,124.8814,19.688,143.4453c-4.1644,4.6022-10.8819,14.9171-9.83,20.9024A17.4577,17.4577,0,0,0,21.65,177.9744a19.8949,19.8949,0,0,1-.735-18.7167,21.7941,21.7941,0,0,1,15.606-11.4517,2.7318,2.7318,0,0,1-2.8639-2.1854c-.2728-1.2585,2.2581-3.2257,3.3569-3.9753,14.8118-10.1045,28.9311-26.691,44.8528-45.5966a91.8124,91.8124,0,0,0,20.9667-56.513A43.4894,43.4894,0,0,0,92.6176,40.0407Z"/><path class="cls-8" d="M36.4478,141.8a119.3327,119.3327,0,0,0-16.76,5.6977"/><path class="cls-8" d="M38.1708,179.382a19.0213,19.0213,0,0,0,9.7809-18.3032c-.3608-3.0775-.7565-6.0611-5.5068-10.5725a19.8289,19.8289,0,0,0-10.71-4.974,20.241,20.241,0,0,0-10.6839,1.3045A18.898,18.898,0,0,0,10.26,160.57"/><path class="cls-9" d="M66.9736,77.1207c2.0486,7.7689-1.3559,15.7851-3.9985,23.3727s-4.3694,16.6505.3755,23.1344a28.7519,28.7519,0,0,0,3.0873,19.0267c3.0429,5.8059,6.5512,17.2381,11.6656,21.3382,22.7108,18.2068,69.5009,10.7311,78.897-1.5889,4.104-5.3812,4.6049-12.78,3.2854-19.4173-2.6816-13.4888-11.82-24.68-21.0421-34.8818s-19.0882-20.4318-23.8332-33.34A69.7977,69.7977,0,0,1,66.9736,77.1207Z"/><path class="cls-9" d="M65.1078,117.8969a355.5933,355.5933,0,0,0,7.35,48.0621,15.8545,15.8545,0,0,0-4.8051,2.5876,7.5,7.5,0,0,0-1.8606,3.8295,2.2191,2.2191,0,0,0,2.0821,2.6665c4.3078.1767,13.2808-.0893,14.391-.2885-.4506-18.255,5.448-37.7185,2.8254-55.79-.09-.62-7.6655-1.58-8.1756-1.9443a2.3616,2.3616,0,0,0-1.4365-.2815A41.7011,41.7011,0,0,0,65.1078,117.8969Z"/><path class="cls-9" d="M79.0366,117.8189l1.4627,49.3863a7.0554,7.0554,0,0,0-8.3381,5.745,1.4935,1.4935,0,0,0,1.3466,1.7248c4.2351.3986,15.9619-.2171,17.0133-.0866q11.1075-25.6231,20.7285-51.8571a6.2182,6.2182,0,0,0,.5522-3.5226c-.3776-1.5678-1.878-2.5751-3.3137-3.31C99.8579,111.483,89.1116,111.4724,79.0366,117.8189Z"/><path class="cls-10" d="M79.1992,118.0435c-.0749,16.4319.1629,32.8651.8053,49.3233a6.8255,6.8255,0,0,0-7.8564,6.67"/><path class="cls-10" d="M104.4324,141.2446q-6.01,16.7181-13.5737,32.8225"/><path class="cls-9" d="M148.3033,119.9146c-5.1258-6.2389-16.7142-8.3417-24.6722-6.975a23.4755,23.4755,0,0,0-17.7329,14.8348c-2.0183,5.5708-1.8057,11.7685-.3239,17.5054,1.5541,6.0172,4.4359,11.6074,7.4775,17.0194a1.956,1.956,0,0,1,.19,1.5417c-.3876,1.2188-1.6375,1.1418-2.6707,1.0915-3.8789-.1887-8.8112.4868-10.0792,2.3087-2.097,3.0127-.7045,5.5722,1.1458,6.7218,3.9983,2.4841,17.753,1.1984,28.8138,1.6208,8.0625.3079,20.002-.4536,25.8274-.607a4.1812,4.1812,0,0,0,4.0267-3.5629c1.2329-8.2424,1.6777-19.24.0047-27.3944C158.3746,134.583,155.9663,129.2418,148.3033,119.9146Z"/><path class="cls-10" d="M126.432,112.76c-7.33-.5456-14.5019,3.9359-18.2474,10.2606s-4.3631,14.1653-2.8477,21.3581,5.0088,13.8257,9.0483,19.9668a28.1982,28.1982,0,0,1-5.5957.4256,15.4748,15.4748,0,0,0-5.52.8811,6.1568,6.1568,0,0,0-3.76,3.9054c-.4716,1.8139,1.7876,4.6424,3.5593,5.2537"/><path class="cls-9" d="M104.0106,37.4051l12.17-16.0366c.764-1.0067,1.9195-2.1315,3.0642-1.6336.8307.3614,1.1265,1.3942,1.3129,2.3a126.0367,126.0367,0,0,1,2.54,28.49A61.4,61.4,0,0,0,104.0106,37.4051Z"/><path class="cls-11" d="M105.5371,37.4729c2.5779-3.1918,6-7.1931,8.9655-11.2532a2.2276,2.2276,0,0,1,2.1332-.9186c1.1134.2279,1.4877,1.6409,1.64,2.7958.8135,6.1857,1.6286,12.4387,1.0313,18.65A34.9951,34.9951,0,0,0,105.5371,37.4729Z"/><path class="cls-9" d="M86.6413,36.6375,72.7545,22.1449c-.8717-.91-2.1457-1.89-3.2269-1.2607a2.99,2.99,0,0,0-1.0464,2.44,126.1115,126.1115,0,0,0,.6705,28.6011A61.9322,61.9322,0,0,1,86.6413,36.6375Z"/><path class="cls-11" d="M82.6356,37.4081c-2.8425-2.9456-6.6715-6.8271-9.9747-10.6024-.5343-.6106-1.84-2.04-2.614-1.835-.8525.2255-.4584,3.6284-.4779,4.7937a150.8079,150.8079,0,0,0,.2737,17.8461A34.1714,34.1714,0,0,1,82.6356,37.4081Z"/><path class="cls-9" d="M106.7929,36.8869c8.3049,3.8509,15.1833,8.6152,20.467,15.3967,1.0357,1.3293,2.0115,2.9044,1.81,4.5775s-2.2021,3.1227-3.6087,2.1947a16.8583,16.8583,0,0,1,3.5328,4.8311,5.7232,5.7232,0,0,1-.4819,5.7113c-1.2656,1.5569-3.9943,1.8672-5.2361.2913a7.1747,7.1747,0,0,1-.2167,8.4822,10.4878,10.4878,0,0,1-7.9536,3.8344,20.0673,20.0673,0,0,1-8.8252-1.9782,9.5367,9.5367,0,0,1-17.9,3.3234,24.1373,24.1373,0,0,1-6.5316,3.744,8.1638,8.1638,0,0,1-7.2414-.7786c-2.3656-1.73-3.1359-4.8595-3.7723-8.316a6.5295,6.5295,0,1,1-6.9119-10.9993,4.5611,4.5611,0,0,1-5.4026-.7367c-1.6554-1.7012-1.6635-4.5209-.6144-6.65A15.1973,15.1973,0,0,1,62.75,54.6873a7.2616,7.2616,0,0,1-2.8688-.167A2.4733,2.4733,0,0,1,58.1,52.4617a3.5119,3.5119,0,0,1,.9655-2.1831A43.9268,43.9268,0,0,1,88.4144,33.8477C91.2512,33.1012,99.5223,33.5156,106.7929,36.8869Z"/><path class="cls-12" d="M79.7548,53.6745C77.5522,57.95,81.9017,63.2528,85.9007,64.36c3.6667,1.0154,8.9764.8036,12.1237-1.2881s4.8029-6.4385,3.0433-9.7262a8.6361,8.6361,0,0,0-5.5865-3.9726,21.5539,21.5539,0,0,0-7.0862-.3015,13.65,13.65,0,0,0-5.0888,1.1528A8.7277,8.7277,0,0,0,79.7548,53.6745Z"/><path class="cls-13" d="M90.4231,55.1594c.1242.1445-.1555,3.9688-.1187,4.3131"/><path class="cls-13" d="M96.0615,55.4039c-2.9844,6.7617-10.5591,4.04-11.521-.2666"/><path class="cls-6" d="M89.753,55.4426a.6992.6992,0,0,0,.9168.1845,5.4454,5.4454,0,0,0,2.4746-3.0983,1.6442,1.6442,0,0,0-.07-1.15,1.48,1.48,0,0,0-1.1572-.6389c-.4528-.0465-.903.0265-1.3562.018-.8073-.0153-1.7718-.2415-2.293.33a1.2941,1.2941,0,0,0-.2217,1.1831,6.9784,6.9784,0,0,0,.5617,1.1585A7.2636,7.2636,0,0,0,89.753,55.4426Z"/><path d="M102.4712,56.439q3.2883-.724,6.6073-1.2981c2.2114-.387,4.4333-.7092,6.6559-1.0253,2.2272-.2818,4.4557-.5549,6.6907-.7654q3.3517-.3235,6.716-.4878l-6.68.8149c-2.2248.2779-4.45.5472-6.67.8618-2.2241.28-4.4416.6083-6.6612.9253Z"/><path d="M103.3248,59.1642q2.3973-.1485,4.8-.1554c1.6013-.009,3.202.0439,4.8023.0991,1.5987.09,3.1974.1846,4.7913.3384q2.3915.2227,4.766.5931l-4.7906-.265c-1.5956-.0856-3.19-.1835-4.7862-.24-1.5949-.0907-3.1914-.1371-4.7882-.1984Z"/><path d="M103.2161,62.0573q2.7083.4166,5.4024.9032l5.38,1.015,5.3606,1.112q2.6766.5742,5.338,1.2251-2.7086-.4155-5.4027-.9025l-5.38-1.0157-5.36-1.1127Q105.8775,62.7078,103.2161,62.0573Z"/><path d="M76.8928,56.3659l-6.2443-2.5637c-2.0833-.847-4.1619-1.7044-6.2584-2.5171-2.0838-.8448-4.1842-1.6473-6.2819-2.458l-6.3031-2.4152q3.232.98,6.4171,2.1065c2.1239.7478,4.2264,1.5547,6.3255,2.37,2.0863.847,4.1706,1.7,6.2289,2.6127Q73.8681,54.8609,76.8928,56.3659Z"/><path d="M75.4351,58.8064l-4.6978-.9974c-1.5654-.3282-3.127-.671-4.6976-.97-1.5638-.3332-3.1356-.6255-4.7057-.93l-4.7162-.9065q2.3941.22,4.7719.5823c1.585.2379,3.1605.5343,4.7347.8355,1.5673.3351,3.1345.6726,4.6872,1.07Q73.1429,58.0766,75.4351,58.8064Z"/><path d="M74.8737,61.6436q-2.737-.018-5.4707-.1074l-5.4653-.2212-5.4607-.32q-2.7294-.1787-5.4552-.4353,2.7372.0169,5.4708.1067l5.4653.2219,5.4606.3208Q72.1481,61.3874,74.8737,61.6436Z"/><path d="M76.4855,48.9493c.241-1.5631,1.2434-2.6991,2.239-2.5373s1.6074,1.56,1.3664,3.1231-1.2435,2.699-2.2391,2.5373S76.2445,50.5124,76.4855,48.9493Z"/><ellipse cx="104.131" cy="48.7677" rx="2.8637" ry="1.8262" transform="translate(40.5964 144.6057) rotate(-81.5532)"/><path class="cls-9" d="M151.7084,163.9844c8.4543.1652,15.6939-7.2609,17.5637-15.5075s-.5931-16.9069-4.3237-24.4955-8.7162-14.5106-12.389-22.1273c-4.6654-9.675-7.1377-20.7361-4.9806-31.2583.8784-4.2848,2.6734-8.6314,6.1881-11.2348s9.0559-2.7844,11.9166.5243c2.5518,2.9514,2.2127,7.3415,1.7124,11.2108-1.4088,10.8951-2.9263,22.1063-.1764,32.7424,2.4066,9.3082,7.9036,17.46,12.05,26.1345,4.2723,8.9385,7.0422,19.8107,2.2849,28.5009-3.877,7.0822-11.7919,10.8911-19.4624,13.4116-2.8957.9516-6.1046,1.7754-8.9238.6166S148.645,167.3048,151.7084,163.9844Z"/><path class="cls-10" d="M161.22,160.3189a34.13,34.13,0,0,1-.8668,12.135"/><path class="cls-7" d="M107.4638,32.7c5.1438,6.7726,14.249,12.6685,16.5474,14.2186,6.2715,4.23,11.6686,14.4358,10.2138,24.4906-1.2067,8.3406-2.0464,10.8524-6.7913,17.8171-14.8994,21.87-55.4034,3.3808-66.7408,16.8924-.6773-3.9319-2.2239-8.8218,4.87-14.473,14.8915.3653,30.5.5758,43.7586-6.2148a27.3651,27.3651,0,0,0,9.76-7.8024,15.4566,15.4566,0,0,0,3.0528-11.8657c-.97-4.9813-3.3856-7.3041-7.3725-10.4438-5.3743-4.2322-9.0466-7.9416-15.8576-15.4963-.5541-.6147-4.2618-5.8278-3.9324-6.587C95.2876,32.5088,102.8757,30.2507,107.4638,32.7Z"/><path class="cls-8" d="M60.2,102.2643a3.7556,3.7556,0,0,0,1.2832,3.2609"/><path class="cls-7" d="M137.6208,106.3835a16.8468,16.8468,0,0,1,19.5486,19.9821,23.6088,23.6088,0,0,1-6.1487,10.9661c-5.2157,5.6366-11.962,9.575-18.5525,13.517s-13.2546,8.0765-18.1684,13.9781-7.8629,13.9629-5.7017,20.9519c-6.2144,3.24-13.8659,1.947-19.6125,3.1866-2.4506-7.364-.6542-15.681,3.426-22.283s10.2275-11.6845,16.7465-15.896,13.4983-7.6675,20.0691-11.7976c5.4877-3.4493,11.0644-7.9362,12.3854-14.2818C142.8859,118.5905,139.8614,112.4869,137.6208,106.3835Z"/></g></g></svg>