<svg xmlns="http://www.w3.org/2000/svg" xmlns:xlink="http://www.w3.org/1999/xlink" viewBox="0 0 200 200"><defs><style>.cls-1,.cls-10{fill:none;}.cls-2{isolation:isolate;}.cls-3{fill:#cb93ff;}.cls-4{clip-path:url(#clip-path);}.cls-5{fill:#f7ad56;}.cls-6{mix-blend-mode:multiply;}.cls-7{fill:#eaab86;}.cls-8{fill:#fbc9a4;}.cls-9{fill:#4b0911;}.cls-10{stroke:#fbc9a4;stroke-linecap:round;stroke-linejoin:round;stroke-width:2px;}</style><clipPath id="clip-path"><rect class="cls-1" width="200" height="200"/></clipPath></defs><g class="cls-2"><g id="Fondos"><rect class="cls-3" width="200" height="200"/></g><g id="Gatos"><g class="cls-4"><path class="cls-5" d="M60.1369,137.9433c-.1494.0976-.305.1951-.4627.2926-.2033.1266-.4108.2532-.6267.38A30.3977,30.3977,0,0,1,52.2,141.5975a30.0494,30.0494,0,0,1-5.9532,1.1184c-.0664.0083-.1328.0125-.1972.0166a32.8373,32.8373,0,0,1-11.8277-1.27q-.5415-1.6746-1.0831-3.3533c-.1225-.3714-.2407-.7428-.3611-1.1142v-.0021q-.4794-1.4786-.9545-2.9528c-.1743-.5416-.3507-1.0832-.525-1.6227-.0332-.1016-.0643-.2033-.0975-.3029q-.8217-2.54-1.6414-5.08-1.9079-5.9076-3.8138-11.809c-.0934-.2843-.1847-.5665-.276-.8508l-.0187-.0622q-.4421-1.3665-.884-2.7349-.9648-2.9787-1.93-5.9616-.94-2.9072-1.8778-5.8163-1.5625-4.8432-3.1292-9.6883c-5.337-5.53-7.41-11.2778-5.4636-14.11a4.491,4.491,0,0,1,2.3967-1.6621,4.9659,4.9659,0,0,1,.1349-6.3081A4.909,4.909,0,0,1,19.96,66.8071a4.7616,4.7616,0,0,1,8.7567-2.8677,4.5032,4.5032,0,0,1,4.2808-1.5584,4.6136,4.6136,0,0,1,3.5151,4.5547A5.2771,5.2771,0,0,1,38.77,68.1123a6.2373,6.2373,0,0,1,1.7368,5.1751q3.0659,9.294,6.1338,18.5944Q47.74,95.206,48.8383,98.53q.6134,1.8551,1.2243,3.7081c.1847.5664.3736,1.135.5582,1.7015.5478,1.6766,1.2907,3.9239,1.8634,5.6565.0872.2594.1681.5063.2448.7387.06.1806.1162.3507.17.5105.1411.4254.2594.7781.3383,1.0209v.0021c.0746.2179.1182.3486.1244.3693.2636.7968.6143,1.9526,1.0832,3.6147.5665,2.0149,1.3073,4.7747,2.2784,8.5367C57.6407,127.9417,58.7632,132.3864,60.1369,137.9433Z"/><g class="cls-6"><path class="cls-7" d="M22.3969,84.1689a4.2481,4.2481,0,0,0,6.2508,5.313c1.33-.916,2.1082-2.5624,3.5886-3.2072.9165-.3991,1.9693-.3474,2.9171-.6652a3.8957,3.8957,0,0,0,1.0675-6.8338c-1.0661-.7829-2.4611-.98-3.582-1.6821-1.0545-.6606-1.8332-1.7478-2.9869-2.2139-2.4821-1.0027-4.2309,1.13-4.6247,3.3009a10.9037,10.9037,0,0,1-.4663,2.7234C24.0354,82.1165,22.96,82.9779,22.3969,84.1689Z"/></g><g class="cls-6"><ellipse class="cls-7" cx="21.3991" cy="72.0871" rx="3.5102" ry="4.3709" transform="translate(-38.6202 26.7865) rotate(-36.4221)"/></g><g class="cls-6"><ellipse class="cls-7" cx="18.4977" cy="79.9669" rx="2.9796" ry="3.7102" transform="translate(-60.4879 57.6477) rotate(-61.1967)"/></g><g class="cls-6"><path class="cls-7" d="M38.3536,72.1942c-.7075,1.923-2.5331,3.0213-4.0774,2.4531S32.0534,72.06,32.761,70.1364s2.5331-3.0213,4.0775-2.453S39.0612,70.2712,38.3536,72.1942Z"/></g><g class="cls-6"><path class="cls-7" d="M31.6327,68.4189c.5119,2.359-.4522,4.5707-2.1534,4.94s-3.4953-1.2439-4.0072-3.603.4522-4.5707,2.1534-4.94S31.1208,66.06,31.6327,68.4189Z"/></g><g class="cls-6"><path class="cls-7" d="M23.4861,89.22a4.3761,4.3761,0,0,0,5.161.26c1.33-.915,2.1084-2.5606,3.59-3.2056.9153-.3982,1.969-.3481,2.9152-.667a3.978,3.978,0,0,0,2.6132-3.09A3.7258,3.7258,0,0,0,37.793,81.6a3.993,3.993,0,0,1-2.52,2.6636c-.9462.3189-2.0007.2655-2.9152.667-1.4812.645-2.26,2.2906-3.59,3.2056a4.2132,4.2132,0,0,1-6.6218-3.2649A4.397,4.397,0,0,0,23.4861,89.22Z"/><path class="cls-7" d="M18.575,74.1706c1.4337,1.9434,3.8582,2.5841,5.4189,1.4331a3.3049,3.3049,0,0,0,1.2285-2.9995,2.994,2.994,0,0,1-1.1072,1.655c-1.5607,1.1509-3.9853.51-5.419-1.4332a5.0735,5.0735,0,0,1-.9984-2.6023A4.6951,4.6951,0,0,0,18.575,74.1706Z"/><path class="cls-7" d="M17.0606,82.5776c1.7974.9868,3.8961.6174,4.688-.8245a2.5132,2.5132,0,0,0,.2633-1.6577,2.02,2.02,0,0,1-.142.3131c-.792,1.4419-2.8906,1.8113-4.6848.8238a3.9707,3.9707,0,0,1-2.0806-2.7358A3.513,3.513,0,0,0,17.0606,82.5776Z"/><path class="cls-7" d="M34.2773,74.6458c1.5419.5706,3.3687-.5279,4.077-2.4508a4.362,4.362,0,0,0,.2689-1.8379,3.6627,3.6627,0,0,1-.1484.49c-.7075,1.9262-2.5311,3.024-4.0762,2.4541a2.9484,2.9484,0,0,1-1.7862-2.6793A3.2857,3.2857,0,0,0,34.2773,74.6458Z"/><path class="cls-7" d="M25.4715,69.7552a4.6161,4.6161,0,0,0,2.7753,3.542,2.3853,2.3853,0,0,0,1.0828.0886,1.157,1.157,0,0,0,.1494-.0256c1.44-.3124,2.352-1.9457,2.2857-3.8691A3.07,3.07,0,0,1,29.6,72.0124c-1.7.3688-3.4946-1.2415-4.0067-3.6017a5.8372,5.8372,0,0,1-.1316-1.0661A5.6082,5.6082,0,0,0,25.4715,69.7552Z"/></g><path class="cls-5" d="M140.3232,132.0921c.123,1.2188.85,7.1849,5.7756,10.77,5.4432,3.9617,13.8036,3.4079,20.0606-1.8422q1.2024-3.7095,2.3991-7.4236l2.2637-7.0055q2.4981-7.729,4.9922-15.4555.9669-2.9809,1.9307-5.9625,2.5023-7.7487,5.0062-15.5041c5.3372-5.53,7.4108-11.2787,5.4645-14.1105a4.4982,4.4982,0,0,0-2.3963-1.6627,4.9648,4.9648,0,0,0-.1354-6.3076,4.9109,4.9109,0,0,0-5.2621-1.2245,4.7622,4.7622,0,0,0-8.7572-2.8675,4.5089,4.5089,0,0,0-4.2809-1.5589,4.6156,4.6156,0,0,0-3.5149,4.5552,5.2867,5.2867,0,0,0-2.2584,1.1758,6.2434,6.2434,0,0,0-1.7357,5.1754Q156.81,82.138,153.74,91.4382q-1.0983,3.3242-2.1965,6.6483-.6141,1.8546-1.2249,3.71c-.1847.5657-.3734,1.134-.5582,1.7q-1.37,4.1481-2.7406,8.2994Q143.672,121.9421,140.3232,132.0921Z"/><g class="cls-6"><path class="cls-7" d="M177.9849,83.7259a4.2481,4.2481,0,0,1-6.2508,5.313c-1.33-.916-2.1082-2.5625-3.5886-3.2072-.9165-.3991-1.9693-.3475-2.9171-.6652a3.8957,3.8957,0,0,1-1.0675-6.8338c1.0661-.7829,2.4611-.98,3.582-1.6821,1.0544-.6606,1.8332-1.7478,2.9869-2.2139,2.4821-1.0027,4.2309,1.13,4.6247,3.3009a10.8946,10.8946,0,0,0,.4663,2.7234C176.3463,81.6735,177.4222,82.5349,177.9849,83.7259Z"/></g><g class="cls-6"><path class="cls-7" d="M176.1581,69.56c-1.4332,1.9424-1.3305,4.45.2294,5.6011s3.9865.5095,5.42-1.433,1.3305-4.45-.23-5.6012S177.5914,67.6175,176.1581,69.56Z"/></g><g class="cls-6"><ellipse class="cls-7" cx="181.8841" cy="79.5239" rx="3.7102" ry="2.9796" transform="translate(-15.8121 97.4707) rotate(-28.8031)"/></g><g class="cls-6"><path class="cls-7" d="M162.0282,71.7512c.7075,1.923,2.5331,3.0213,4.0774,2.453s2.2228-2.5878,1.5152-4.5108-2.5331-3.0213-4.0775-2.4531S161.3206,69.8282,162.0282,71.7512Z"/></g><g class="cls-6"><path class="cls-7" d="M168.7491,67.9759c-.5119,2.359.4522,4.5707,2.1534,4.94s3.4953-1.2439,4.0072-3.603-.4522-4.5707-2.1534-4.94S169.261,65.6168,168.7491,67.9759Z"/></g><g class="cls-6"><path class="cls-7" d="M176.8957,88.7774a4.3761,4.3761,0,0,1-5.161.26c-1.33-.915-2.1084-2.5606-3.59-3.2056-.9153-.3982-1.969-.3481-2.9153-.667a3.978,3.978,0,0,1-2.6131-3.09,3.7257,3.7257,0,0,1-.0279-.9182,3.993,3.993,0,0,0,2.52,2.6637c.9462.3189,2.0007.2655,2.9152.667,1.4812.645,2.26,2.2906,3.59,3.2056a4.2132,4.2132,0,0,0,6.6218-3.2649A4.3971,4.3971,0,0,1,176.8957,88.7774Z"/><path class="cls-7" d="M181.8068,73.7276c-1.4337,1.9434-3.8582,2.5841-5.4189,1.4331a3.3049,3.3049,0,0,1-1.2285-3,2.9934,2.9934,0,0,0,1.1072,1.6549c1.5607,1.151,3.9853.51,5.419-1.4331a5.0724,5.0724,0,0,0,.9983-2.6023A4.6947,4.6947,0,0,1,181.8068,73.7276Z"/><path class="cls-7" d="M183.3212,82.1346c-1.7974.9868-3.8961.6174-4.688-.8245a2.5132,2.5132,0,0,1-.2633-1.6577,2.0145,2.0145,0,0,0,.142.313c.792,1.442,2.8906,1.8114,4.6848.8239a3.9709,3.9709,0,0,0,2.0806-2.7358A3.513,3.513,0,0,1,183.3212,82.1346Z"/><path class="cls-7" d="M166.1045,74.2028c-1.5419.5706-3.3687-.5279-4.077-2.4509a4.3614,4.3614,0,0,1-.2689-1.8378,3.6627,3.6627,0,0,0,.1484.49c.7075,1.9261,2.531,3.024,4.0762,2.4541a2.9484,2.9484,0,0,0,1.7862-2.6793A3.2858,3.2858,0,0,1,166.1045,74.2028Z"/><path class="cls-7" d="M174.91,69.3122a4.6161,4.6161,0,0,1-2.7753,3.542,2.3839,2.3839,0,0,1-1.0828.0885,1.137,1.137,0,0,1-.1494-.0255c-1.44-.3124-2.352-1.9457-2.2857-3.8692a3.07,3.07,0,0,0,2.1652,2.5213c1.7.3688,3.4945-1.2414,4.0067-3.6017a5.826,5.826,0,0,0,.1315-1.066A5.6065,5.6065,0,0,1,174.91,69.3122Z"/></g><path class="cls-5" d="M147.89,204.7822a67.9926,67.9926,0,0,0,.5043,21.0782,64.2043,64.2043,0,0,0,3.789,12.7511q1.189,3.7008,2.1207,7.4908a99.8958,99.8958,0,0,1,2.8054,19.2709q.053,1.18.0789,2.3717c.23,14.5522-3.2765,28.9426-14.519,37.2863-3.3055,3.3242-15.3553,6.1359-22.51,8.076-17.2083,5.75-35.4083,6.6754-51.7762,1.3965-13.5541-4.37-25.8508-12.9959-35.288-26.6559a24.8293,24.8293,0,0,1-3.0109-9.6987,34.11,34.11,0,0,1-.1743-4.2061c.1266-7.2377,2.31-14.7908,4.397-21.7193.8384-2.7847,1.6621-5.4677,2.3324-7.9889,2.3178-8.6363,7.2169-17.2871,9.6094-26.1081a40.5919,40.5919,0,0,0,1.0832-5.2353,30.872,30.872,0,0,0,.2864-3.5234c.0394-1.7554-1.3945-7.8975-4.21-19.4845q-1.0988-4.5257-2.48-10.18c-.83-3.4114-3.4238-14.0563-5.8931-27.4216-.2988-1.6144-.5643-3.1084-.803-4.4945-.6806-3.9841-1.1184-7.07-1.3488-9.4974-.0415-.4565-.0788-.8861-.1058-1.2948v-.0021a19.1588,19.1588,0,0,1,.1847-5.37c.0373-.1639.0768-.32.12-.469a5.7826,5.7826,0,0,1,1.37-2.4236c2.5523-2.7868,7.1339-3.9633,11.6513-3.54q.8186.0747,1.6289.222.8715.1557,1.7181.3963h.0021a15.9934,15.9934,0,0,1,4.3721,1.9361h.002c.1.0643.1951.1286.2926.1929.1806.1266.359.2532.5333.3881h.0021c3.5711,2.7141,4.4551,6.37,5.02,9.91q.112.7253.2178,1.4422v.002c.5292,3.5608,1.06,6.8476,4.1169,8.7256a8.7379,8.7379,0,0,0,7.0531.7241c4.343-1.0852,9.2857-4.0857,15.1187-5.6565h.002a24.8907,24.8907,0,0,1,12.749-.2884,17.6767,17.6767,0,0,1,3.9281,1.4525h.002c4.5547,2.3572,5.76,5.7416,12.0062,6.0466a21.33,21.33,0,0,0,7.9806-1.22l.0248-.0083.0063-.0021a32.6472,32.6472,0,0,0,13.2864-9.0388,44.2614,44.2614,0,0,0,3.6209-4.8556l.0021-.002c.0768-.1183.1515-.2325.2262-.3487v-.002c.2345-.3632.4524-.71.6536-1.0355.8985-1.4587,1.44-2.4713,1.44-2.4713.2428-.4545.4648-.8861.6682-1.299.0663-.1328.1307-.2615.1909-.39.7159-1.4837,1.1973-2.6955,1.5791-3.6873.1-.2553.1909-.498.278-.7242.61-1.5708,1.0168-2.4838,1.9921-3.03a5.6128,5.6128,0,0,1,3.6458-.3673c4.97.8363,12.1078,5.6732,15.0751,11.4065a13.94,13.94,0,0,1,1.16,3.1022c.0165.0622.0311.1265.0435.1888a14.9714,14.9714,0,0,1,.2739,1.4733v.002a18.1464,18.1464,0,0,1,.1639,2.0668c.1951,7.5323-3.6976,16.8492-8.0884,27.5481-4.0193,9.7983-8.46,20.7545-10.5578,32.5614Q148.16,202.6491,147.89,204.7822Z"/><g class="cls-6"><path class="cls-8" d="M139.1666,135.0424v.0021c.0456.0353.0913.0706.1349.1058C139.2559,135.1151,139.2122,135.0777,139.1666,135.0424Zm0,0v.0021c.0456.0353.0913.0706.1349.1058C139.2559,135.1151,139.2122,135.0777,139.1666,135.0424Zm0,0v.0021c.0456.0353.0913.0706.1349.1058C139.2559,135.1151,139.2122,135.0777,139.1666,135.0424Zm0,.0021c.0456.0353.0913.0706.1349.1058-.0456-.0352-.0893-.0726-.1349-.1079Zm50.8155,217.6543C188.26,342.415,183.371,332.986,178.8972,323.57a413.4612,413.4612,0,0,1-17.4323-42.71q-2.2473-6.5208-4.2766-13.1142-.0249-1.192-.0789-2.3717a99.8958,99.8958,0,0,0-2.8054-19.2709q-.9276-3.7911-2.1207-7.4908a64.2043,64.2043,0,0,1-3.789-12.7511,67.9926,67.9926,0,0,1-.5043-21.0782q.2678-2.1321.6433-4.231c2.0978-11.8069,6.5385-22.7631,10.5578-32.5614,4.3908-10.6989,8.2835-20.0158,8.0884-27.5481-.2407-.1038-.4855-.21-.73-.3217a29.9282,29.9282,0,0,1-9.736-7.0426,28.6442,28.6442,0,0,1-2.434-3.0565c-.1992-.2864-.3922-.5748-.5748-.8653a29.3536,29.3536,0,0,1-3.2412-6.9535,32.8312,32.8312,0,0,1-1.1164-4.7124c-.0208-.1286-.0415-.2573-.06-.3859a38.3623,38.3623,0,0,1-.1431-10.0162c.0145-.1328.0311-.2614.0456-.3859a28.8766,28.8766,0,0,1,.5706-3.206q-.57,1.7212-1.1371,3.4446c-.0477.1473-.0975.2967-.1473.444v.0021q-.7252,2.2068-1.4546,4.41-.9587,2.907-1.9173,5.8121c-.054.1639-.1079.3279-.164.4939q-1.1423,3.4674-2.2908,6.9389c-.085.2614-.1722.5229-.2573.7844-.0311.0954-.0623.1909-.0954.2863-.0436.1287-.0872.2594-.1287.388l-.002.0063v.002l-.0083.0249c.0207-.1743.0435-.3465.06-.5229.0062-.0726.0125-.1452.0166-.2158.0062-.0726.0125-.1432.0166-.2158.0063-.0788.01-.1556.0124-.2324.0042-.0622.0083-.1224.01-.1826a.0452.0452,0,0,0,.0021-.0166l.0062-.1867c.0021-.0249.0021-.0478.0021-.0727,0-.0228.0021-.0477.0021-.0705.0021-.05.0021-.1017.0021-.1536l.002-.01c.0042-.1536.0042-.3071.0021-.4607v-.054c0-.1286-.0021-.2593-.0062-.388-.0021-.1411-.0083-.2822-.0166-.4233-.0041-.1079-.01-.2137-.0187-.3216-.0041-.0892-.0124-.18-.0187-.27-.0041-.0518-.0083-.1037-.0145-.1556-.01-.1411-.0249-.2822-.0415-.4212-.01-.1038-.0228-.2055-.0373-.3071-.0125-.1059-.027-.21-.0415-.3134v-.002c-.0146-.1038-.0291-.2075-.0478-.3113-.0228-.1515-.0477-.305-.0788-.4565-.0228-.1162-.0436-.2324-.0664-.3465a.103.103,0,0,0-.0042-.0249c-.0124-.0623-.0249-.1266-.0394-.1909a.112.112,0,0,0-.0083-.0332c-.0145-.0727-.0311-.1453-.0477-.2179a.5054.5054,0,0,0-.0208-.0934,1.2494,1.2494,0,0,0-.0353-.1473.0183.0183,0,0,0-.002-.0145.3541.3541,0,0,0-.01-.0457.0115.0115,0,0,0-.0042-.01c-.0373-.1556-.0767-.3092-.1162-.4627-.0415-.1536-.085-.3071-.1286-.4607-.0477-.17-.1-.3382-.1536-.5063-.0207-.0684-.0436-.1369-.0643-.2054l-.137-.4046c-.2033.2573-.4046.51-.61.7615-.0125.0166-.0249.0311-.0373.0457-14.49,17.8909-36.0517,26.1848-54.7954,21.462-17.283-4.3555-27.1249-18.5051-30.9035-25.0269l-.0021-.0021c-.6515-1.1268-1.1225-2.0253-1.4214-2.6063a57.8015,57.8015,0,0,1-2.4609,5.2748c-.0768.1473-.1557.2946-.2366.4461a62.729,62.729,0,0,1-4.5609,7.2315c-.21.2863-.4234.5727-.6433.8632-.2324.305-.4668.61-.7138.9192v.0021a57.41,57.41,0,0,1-11.6077,11.1346l-.2553.1806c.23,2.4278.6682,5.5133,1.3488,9.4974.2387,1.3861.5042,2.88.803,4.4945,2.4693,13.3653,5.0631,24.01,5.8931,27.4216q1.3789,5.6647,2.48,10.18c2.8158,11.587,4.25,17.7291,4.21,19.4845a30.872,30.872,0,0,1-.2864,3.5234,40.5919,40.5919,0,0,1-1.0832,5.2353c-2.3925,8.821-7.2916,17.4718-9.6094,26.1081-.67,2.5212-1.494,5.2042-2.3324,7.9889-2.0875,6.9285-4.27,14.4816-4.397,21.7193q-.3174.9867-.6411,1.9755-.2211.6755-.4462,1.3529-.3923,1.192-.7968,2.3842l-.0021.0021c-.12.3569-.2407.7117-.361,1.0686-.1536.4524-.3092.9068-.4648,1.3592a413.0307,413.0307,0,0,1-17.4344,42.71q-.42.8839-.8425,1.7658-.4234.884-.8467,1.7679t-.8465,1.7721c-.11.2262-.2179.4545-.3258.6827q-.4982,1.0489-.9878,2.102c-.1182.2552-.2365.5125-.3548.7678-.139.2967-.2739.5934-.4087.8922-.1183.2553-.2325.51-.3466.7678Q4.2377,336.5653,3.7,337.825q-.1308.3081-.2614.6163-.6942,1.65-1.3323,3.318c-.058.1514-.1162.305-.1721.4564-.0581.1515-.1163.3051-.17.4566-.056.1514-.1121.3029-.166.4544l-.0042.01c-.0539.1494-.1079.3009-.1618.4523-.1079.3051-.2158.6122-.32.9193-.1038.305-.2054.61-.3071.9151-.1.3112-.1992.6225-.2967.9358-.0477.1536-.0955.3071-.1411.4607l-.0042.01-.1369.4607c-.0478.1577-.0934.3154-.1391.471-.0435.1536-.0871.3071-.1286.4628-.083.2967-.1639.5934-.2428.8922-.0062.027-.0145.054-.0207.0809-.0374.1453-.0747.2906-.1121.4379q-.24.943-.444,1.8945c-.0208.0954-.0416.193-.0623.2884-.0373.1743-.0726.3486-.1058.525-.0125.0477-.0208.0954-.0291.1411-.0415.2033-.0788.4046-.1162.608-.0519.278-.1016.554-.1473.8321-1.1018,6.5841-4.453,17.1273,4.7332,19.7169,10.122,2.8511,13.2034-11.1263,17.6813-17.1045a107.7848,107.7848,0,0,1,24.77-23.9313c7.9079-5.4822,16.787-10.1179,22.4-17.9324.0415-.0561.081-.1142.12-.17,16.3679,5.2789,34.5679,4.3534,51.7762-1.3965.0768.1141.1577.2283.2386.34,5.6151,7.8125,14.4942,12.45,22.4,17.9324a107.7432,107.7432,0,0,1,24.77,23.9314c4.48,5.9761,7.5614,19.9556,17.6813,17.1045C194.4372,369.8261,191.0839,359.2808,189.9821,352.6988ZM122.8486,149.4639c.3984-.1867.7947-.38,1.191-.5831a35.3618,35.3618,0,0,0,6.7625-4.54c.4752-.4047,1.0438-.8881,1.6684-1.4505l.1245-.112c.0788-.0706.1618-.1453.2448-.2221s.166-.1535.2511-.2324.17-.1577.2553-.2386c.085-.0788.1722-.1618.2614-.2469.06-.056.1183-.1142.1784-.1723.0851-.0809.17-.1639.2553-.2469.2407-.2386.4876-.4855.7345-.7428q.1494-.1525.2988-.3113c.027-.027.0519-.0539.0789-.083.0519-.0581.1079-.1183.1639-.1785.0872-.0933.1743-.1888.2635-.2863.0831-.0913.1661-.1826.249-.276a.0961.0961,0,0,0,.0187-.0228c.1391-.1556.276-.3133.4129-.4731a.1954.1954,0,0,0,.0208-.0228c.2013-.2366.4-.4794.6018-.7263.0684-.083.1369-.17.2054-.2573.137-.1743.2718-.3507.4067-.5291.1079-.1411.2137-.2843.32-.43.0561-.0747.1121-.1515.1661-.23.05-.0685.0975-.139.1452-.2075.11-.16.222-.3237.332-.4876.0975-.1453.193-.2926.2884-.442.0893-.1411.1785-.2822.2657-.4233.0207-.0332.0414-.0664.06-.1.0312-.0478.0623-.0976.0913-.1474h.0021v.0021c.0456.0353.0913.0706.1349.1058.1182.0955.2345.193.3507.2926.0456.0374.0913.0747.1369.1142l-.0021.002a44.2614,44.2614,0,0,1-3.6209,4.8556,32.6472,32.6472,0,0,1-13.2864,9.0388l-.0063.0021Zm-58.84-1.0582c-3.0565-1.878-3.5877-5.1648-4.1169-8.7256.0354.0436.0727.0872.11.1308.3985.4793.8031.94,1.2077,1.3819.1784.193.3548.3818.5312.5665q.4357.4577.8695.884c.05.05.1.1.1514.1473.1889.1868.3777.3673.5644.5437.1806.17.3611.3382.54.498.4212.3859.8362.747,1.2367,1.0852.0747.0644.1494.1266.2241.1889.89.7449,1.7119,1.3715,2.407,1.8758.9753.7076,1.7077,1.1744,2.0439,1.384.3217.2013.6412.3943.9628.579.1079.0622.2138.1245.3217.1846A8.7379,8.7379,0,0,1,64.0089,148.4057Zm75.1577-13.3633v.0021c.0456.0353.0913.0706.1349.1058C139.2559,135.1151,139.2122,135.0777,139.1666,135.0424Zm0,0v.0021c.0456.0353.0913.0706.1349.1058C139.2559,135.1151,139.2122,135.0777,139.1666,135.0424Zm0,0v.0021c.0456.0353.0913.0706.1349.1058C139.2559,135.1151,139.2122,135.0777,139.1666,135.0424Zm0,0v.0021c.0456.0353.0913.0706.1349.1058C139.2559,135.1151,139.2122,135.0777,139.1666,135.0424Z"/></g><g class="cls-6"><path class="cls-7" d="M26.6747,102.4615c12.06,3.5424,23.18,9.7991,33.444,16.9647l-.4784.658c-10.074-7.362-21.0205-13.832-32.9656-17.6227Z"/></g><g class="cls-6"><path class="cls-7" d="M50.5971,121.6773l-.1624.5517q-1.5582-.4338-3.1256-.812c-3.6328-.8832-7.3079-1.5661-11.01-2.1134q-1.8486-.2736-3.704-.505c-4.0889-.5139-8.1955-.892-12.2977-1.2235q-.9245-.0768-1.8487-.1491c-.683-.0534-1.3637-.1067-2.0467-.1579l1.9888.12c.6274.04,1.257.0779,1.8865.12,4.2513.2715,8.5092.594,12.7449,1.0634q1.6585.1836,3.3147.4c3.7686.4938,7.5171,1.1256,11.2256,1.9665Q49.0843,121.2825,50.5971,121.6773Z"/></g><g class="cls-6"><path class="cls-7" d="M17.945,141.48A118.7055,118.7055,0,0,1,33.33,133.2822c5.0091-2.1641,10.2227-4.1277,15.6732-4.7947a1.8568,1.8568,0,0,1,1.11.0378l.04.5755a1.8219,1.8219,0,0,1-1.0538.2879c-5.3935.5356-10.5593,2.3529-15.5642,4.3751a136.86,136.86,0,0,0-15.59,7.7158Z"/></g><g class="cls-6"><path class="cls-7" d="M33.64,146.7262c4.5917-5.5873,10.7562-12.516,17.8078-14.7561l.1419.5594c-6.9944,2.0542-13.273,8.7865-17.95,14.1967Z"/></g><g class="cls-6"><path class="cls-7" d="M38.8925,153.013c3.55-5.4067,9.3685-13.8188,15.6444-15.9453l.1532.5563c-6.1842,1.9523-12.1651,10.1535-15.7976,15.389Z"/></g><path class="cls-5" d="M140.153,115.6349s-26.3493-4.6645-29.6092-22.4678c0,0,10.395-17.1234,19.3752-21.9335l.0058-.0016c3.5224-1.889,6.83-1.8759,9.205,1.8178C147.5444,86.1518,140.153,115.6349,140.153,115.6349Z"/><g class="cls-6"><path class="cls-7" d="M140.1527,115.6336a20.014,20.014,0,0,0-5.0812-6.1838,80.3454,80.3454,0,0,0-11.5791-8.23c-4.4146-12.9244.3021-22.2643,3.6668-26.8317a21.8308,21.8308,0,0,1,2.7566-3.1513l.0083-.0023c3.5263-1.8941,6.8287-1.8776,9.2052,1.8129C147.5422,86.1484,140.1527,115.6336,140.1527,115.6336Z"/></g><path class="cls-5" d="M145.033,106.5187a33.1214,33.1214,0,0,1-3.2353,7.2627,18.2288,18.2288,0,0,1-1.2668,1.81q-.2817.3641-.59.6983c-.0686-.0928-.13-.1814-.1981-.2743-.25-.3529-.5065-.7041-.761-1.05.06-.0533.1179-.1124.1778-.1658a25.4734,25.4734,0,0,0,2.581-2.8281A25.9423,25.9423,0,0,0,145.033,106.5187Z"/><path class="cls-5" d="M146.8559,110.8015a33.1906,33.1906,0,0,1-6.325,4.79c-.2579.1441-.5216.29-.7884.424-.25-.3529-.5065-.7041-.761-1.05.06-.0533.1179-.1124.1778-.1658.69-.2178,1.41-.4813,2.1588-.8016.1609-.0684.3218-.1367.48-.2166A25.4875,25.4875,0,0,0,146.8559,110.8015Z"/><path class="cls-5" d="M52.4815,116.3648a60.2869,60.2869,0,0,0,32.734-16.5686,75.1615,75.1615,0,0,0-20.5008-27.324L64.709,72.47c-3.4332-2.0466-6.7382-2.1833-9.2778,1.3994C46.432,86.5774,52.4815,116.3648,52.4815,116.3648Z"/><g class="cls-6"><path class="cls-7" d="M69.7813,102.7186a83.6184,83.6184,0,0,0-10.9468,6.91c-2.7572,2.1227-5.251,4.4944-6.351,6.74,0,0-6.0512-29.7921,2.945-42.5006,2.5426-3.5819,5.85-3.44,9.2805-1.3984l.0085-.0013a24.2769,24.2769,0,0,1,3.6589,4.9641C71.3,82.5558,74.2352,91.3751,69.7813,102.7186Z"/></g><path class="cls-5" d="M48.0189,107.037a33.1291,33.1291,0,0,0,2.9033,7.4017,18.2257,18.2257,0,0,0,1.1836,1.8653q.265.3765.5581.7244c.0727-.09.1378-.1754.21-.2651.2661-.3413.5378-.6806.8078-1.0142-.0573-.0561-.1128-.1178-.17-.1738a25.4717,25.4717,0,0,1-2.45-2.942A25.9441,25.9441,0,0,1,48.0189,107.037Z"/><path class="cls-5" d="M46.004,111.2329a33.1977,33.1977,0,0,0,6.1018,5.0711c.2511.1557.508.3131.7684.4593.2661-.3413.5378-.6806.8078-1.0142-.0573-.0561-.1128-.1178-.17-.1738-.6791-.2488-1.387-.5445-2.12-.8986-.1577-.0755-.3154-.1511-.4694-.238A25.4886,25.4886,0,0,1,46.004,111.2329Z"/><path class="cls-5" d="M145.4621,130.0486c-.8966,9.9819-8.7962,16.72-12.2377,19.6524a37.9172,37.9172,0,0,1-7.25,4.8675c-10.16,5.2412-21.21,5.2078-30.1237,5.1878-10.1933-.0311-18.9561-.0556-28.05-5.74-.36-.2247-1.1457-.7253-2.1913-1.4839-4.863-3.526-15.4056-12.627-15.4522-25.6077-.0534-14.5624,13.1141-29.0982,32.424-32.622h.0066q1.1079-.3537,2.2269-.6585a54.4711,54.4711,0,0,1,6.3291-1.357c.5851-.0934,1.1746-.1735,1.7619-.2425.38-.0467.7608-.0867,1.1412-.1246.4338-.0445.8654-.0823,1.2992-.1134a48.7613,48.7613,0,0,1,7.4325.0178c.3025.0267.6073.0534.91.0845.8721.0846,1.7464.2,2.6162.34a31.4231,31.4231,0,0,1,3.9754.9343c8.6361,2.5495,20.7514,9.141,28.2973,18.1285C143.1774,116.792,146.0805,123.1611,145.4621,130.0486Z"/><g class="cls-6"><path class="cls-8" d="M138.5768,111.3127c-1.5216,2.9121-4.9542,5.744-10.9185,8.2557a19.1128,19.1128,0,0,1-8.745,1.8842c-3.0032-.2336-6.0509-1.8731-7.2233-4.6472-2.9544-6.9943-1.2014-8.06-9.121-9.0276-5.8819-.7185-10.0487.8654-11.3923-6.903a9.16,9.16,0,0,1,2.87-8.9542c.4338-.0445.8654-.0823,1.2992-.1134a48.7613,48.7613,0,0,1,7.4325.0178c.3025.0267.6073.0534.91.0845.8721.0846,1.7464.2,2.6162.34a31.4231,31.4231,0,0,1,3.9754.9343C118.9156,95.7337,131.0309,102.3252,138.5768,111.3127Z"/></g><g class="cls-6"><path class="cls-8" d="M145.5422,128.042q.01.9944-.08,2.0066c-.8966,9.9819-8.7962,16.72-12.2377,19.6524a37.9172,37.9172,0,0,1-7.25,4.8675c-10.16,5.2412-21.21,5.2078-30.1237,5.1878-10.1933-.0311-18.9561-.0556-28.05-5.74-.36-.2247-1.1457-.7253-2.1913-1.4839-4.863-3.526-15.4056-12.627-15.4522-25.6077-.0023-.3181.0044-.6385.0155-.9566.2737-1.09.4249-1.6951.4249-1.6951s37.9033,55.5134,94.1464,4.4893Q145.1473,128.3956,145.5422,128.042Z"/></g><g class="cls-6"><path class="cls-7" d="M168.7179,104.2445c-12.2644,2.7506-23.7685,8.2708-34.4766,14.7536l.4345.6878c10.5315-6.6913,21.8757-12.4357,34.0421-15.4414Z"/></g><g class="cls-6"><path class="cls-7" d="M178.006,119.6883c-11.4886-.0619-23.0888-.0023-34.4106,2.1747l.1271.5629c11.2415-2.3553,22.8314-2.6081,34.2835-2.7376Z"/></g><g class="cls-6"><path class="cls-7" d="M174.8914,143.7477a118.7025,118.7025,0,0,0-14.819-9.1807c-4.8577-2.4852-9.9326-4.7837-15.3281-5.8038a1.8568,1.8568,0,0,0-1.11-.0345l-.0775.5717a1.822,1.822,0,0,0,1.0329.3559c5.3472.8852,10.3839,3.0345,15.2467,5.378a136.8709,136.8709,0,0,1,15.055,8.7134Z"/></g><g class="cls-6"><path class="cls-7" d="M158.8886,147.9624c-4.2186-5.874-9.9194-13.189-16.81-15.883l-.1779.549c6.8459,2.5047,12.6734,9.6311,16.9883,15.334Z"/></g><g class="cls-6"><path class="cls-7" d="M153.2382,153.8944c-3.1909-5.6263-8.45-14.399-14.5742-16.9291l-.1892.5452c6.0442,2.35,11.4791,10.9232,14.7634,16.3839Z"/></g><path class="cls-9" d="M102.5273,132.7222a6.12,6.12,0,0,1-2.2347-.4138,6.99,6.99,0,0,1-4.0694-4.9367,7.009,7.009,0,0,1-2.3511,3.2178,5.9147,5.9147,0,0,1-4.4876,1.204,4.9305,4.9305,0,0,1-.5238-.12,6.546,6.546,0,0,1-4.4677-5.4054L85,126.1768a5.927,5.927,0,0,0,4.0294,4.9066,4.3521,4.3521,0,0,0,.46.1053A5.2952,5.2952,0,0,0,93.502,130.1a6.4762,6.4762,0,0,0,2.4943-4.446l.612.0243a6.6391,6.6391,0,0,0,3.9076,6.0584,5.955,5.955,0,0,0,4.3433-.0805,7.443,7.443,0,0,0,4.159-4.1358l.5681.2333a8.0591,8.0591,0,0,1-4.5051,4.4749A7.0242,7.0242,0,0,1,102.5273,132.7222Z"/><path class="cls-9" d="M91.7291,122.2429a.6872.6872,0,0,0,.6732.67,3.4869,3.4869,0,0,1,1.6749.46,3.5564,3.5564,0,0,1,1.5847,1.9713,1.0161,1.0161,0,0,0,1.3955.1043,2.9979,2.9979,0,0,1,1.556-1.7181c1.1618-.4683,2.4424.2,2.8145-.3922l.1706-1.0028h0a9.4775,9.4775,0,0,0-3.7819-1.5267,9.7636,9.7636,0,0,0-6.0984,1.0326Q91.7236,122.0419,91.7291,122.2429Z"/><circle class="cls-9" cx="116.3145" cy="119.3233" r="3.7318" transform="translate(-44.453 75.495) rotate(-30.4822)"/><circle class="cls-9" cx="76.483" cy="117.9808" r="3.7318" transform="translate(-56.0092 70.9176) rotate(-37.4902)"/><rect class="cls-9" x="76.7877" y="168.7317" width="9.4423" height="0.6226" transform="translate(-100.1987 122.1217) rotate(-49.7788)"/><rect class="cls-9" x="105.5813" y="174.3059" width="0.6225" height="7.2902" transform="translate(-21.3036 14.5468) rotate(-7.1423)"/><rect class="cls-9" x="137.1229" y="159.3979" width="0.6227" height="3.9207" transform="translate(-73.9416 145.7084) rotate(-45.3435)"/><rect class="cls-9" x="45.4678" y="154.8697" width="2.7724" height="0.6226" transform="matrix(0.8002, -0.5997, 0.5997, 0.8002, -83.7019, 59.0998)"/><rect class="cls-9" x="37.9671" y="114.9473" width="5.021" height="0.6227" transform="translate(-78.5435 142.7719) rotate(-83.6653)"/><path class="cls-9" d="M168.1221,107.7419a4.1062,4.1062,0,0,1-2.75-4.4269l.6148.0977a3.4647,3.4647,0,0,0,2.32,3.7349Z"/><g class="cls-6"><path class="cls-8" d="M69.707,197.8578a36.1458,36.1458,0,0,1-22.3751,15.0336,30.872,30.872,0,0,0,.2864-3.5234c.0394-1.7554-1.3945-7.8975-4.21-19.4845q-1.0988-4.5257-2.48-10.18c-.83-3.4114-3.4238-14.0563-5.8931-27.4216-.2988-1.6144-.5643-3.1084-.803-4.4945,12.637.84,23.5122,8.1528,17.1315,20.7067,6.4284-5.3017,17.2165-1.6994,21.0574,5.6939C76.262,181.5833,74.3135,190.9148,69.707,197.8578Z"/></g><g class="cls-6"><path class="cls-8" d="M38.1644,114.7486a6.9956,6.9956,0,0,1-.8259.5561q-.1961.1121-.3984.2117a11.6247,11.6247,0,0,1-6.14.9047,17.5779,17.5779,0,0,1-5.0547-1.1952c-.0934-.2843-.1847-.5665-.276-.8508q-.8622-.0716-1.7244-.139c-.0187-.0125-.0373-.0228-.054-.0353.5852.0374,1.1725.0726,1.76.1121q-.4421-1.3665-.884-2.7349-.9648-2.9787-1.93-5.9616-.94-2.9072-1.8778-5.8163c.0643-.0623.1327-.1224.2012-.1826l.0934-1.2388a7.9427,7.9427,0,0,1,11.5206,1.6144c.1577.249.2987.5084.4337.7719.0082.0145.0145.029.0228.0436v.002a14.4715,14.4715,0,0,0,1.9484,3.4446c1.34,1.4587,3.5006,2.0335,4.6523,3.6458C41.1275,110.001,40.1959,113.1592,38.1644,114.7486Z"/></g><g class="cls-6"><path class="cls-10" d="M144.7435,128.7628q.4038-.3672.7987-.7208.01.9944-.08,2.0066c-.8966,9.9819-8.7962,16.72-12.2377,19.6524a37.9172,37.9172,0,0,1-7.25,4.8675c-10.16,5.2412-21.21,5.2078-30.1237,5.1878-10.1933-.0311-18.9561-.0556-28.05-5.74-.36-.2247-1.1457-.7253-2.1913-1.4839-4.863-3.526-15.4056-12.627-15.4522-25.6077-.0023-.3181.0044-.6385.0155-.9566.2737-1.09.4249-1.6951.4249-1.6951"/></g></g></g></g></svg>