<svg xmlns="http://www.w3.org/2000/svg" xmlns:xlink="http://www.w3.org/1999/xlink" viewBox="0 0 200 200"><defs><style>.cls-1{fill:none;}.cls-2{fill:#cb93ff;}.cls-3{clip-path:url(#clip-path);}.cls-4{fill:#79b0fa;}.cls-5{fill:#d17a1c;}.cls-6{fill:#e2881b;}.cls-7{fill:#b76b18;}.cls-8{clip-path:url(#clip-path-2);}.cls-9{fill:#fbeee5;}.cls-10{fill:#ffa392;}.cls-11{fill:#472444;}.cls-12{fill:#e0ccbf;}.cls-13{fill:#ffbeff;}.cls-14{clip-path:url(#clip-path-3);}.cls-15{fill:#fff;}.cls-16{fill:#311824;}.cls-17{fill:#404040;}</style><clipPath id="clip-path"><rect class="cls-1" x="-220" width="200" height="200.1186"/></clipPath><clipPath id="clip-path-2"><rect class="cls-1" width="200" height="200"/></clipPath><clipPath id="clip-path-3"><rect class="cls-1" y="-220" width="200" height="200.1186"/></clipPath></defs><g id="Fondos"><rect class="cls-2" width="200" height="200"/></g><g id="Gatos"><g class="cls-3"><path class="cls-4" d="M7.6988,138.6753c0,4.3507-51.5029,7.8776-115.0349,7.8776s-115.035-3.5269-115.035-7.8776,51.503-7.8779,115.035-7.8779S7.6988,134.3245,7.6988,138.6753Z"/><path class="cls-5" d="M-63.7782,94.676c4.5012-2.7666,9.3283-5.2364,14.5618-5.9618s10.9719.5385,14.6375,4.3439c2.9475,3.06,4.2892,7.4044,7.2839,10.4185a18.46,18.46,0,0,0,7.6387,4.2938,33.5512,33.5512,0,0,0,31.0523-6.1137c2.2944-1.9157,4.7593-4.3017,7.7325-3.9942,3.5168.3637,5.5356,4.6755,4.6535,8.099s-3.747,5.96-6.7008,7.9026C4.5087,121.9327-14.0449,124.07-28.2554,119.12c-7.5343-2.6243-11.5977-15.1064-18.78-14.0575-4.5862.67-7.2086,5.5542-8.6477,9.3636-1.358,3.5948-3.4038,5.3814-7.2453,5.4889s-7.8783-1.3644-10.1342-4.4751C-78.4258,108.0451-69.7307,98.3347-63.7782,94.676Z"/><path class="cls-6" d="M-66.7156,135.3353l66.9013-1.77c1.1812-.0313,2.5248-.14,3.2518-1.0717s-.143-2.7588-1.226-2.2862a1.2768,1.2768,0,1,0,.0785-2.443,1.39,1.39,0,0,0,1.1428-2.1371c-6.0838.577-12.2359,1.1529-18.2852.2863-5.3789-.7706-10.5247-2.6607-15.6237-4.5389-5.66-2.0847-11.5354-4.3081-15.6749-8.6955-1.7366-1.8406-3.1093-4.0091-4.9273-5.7691a19.2356,19.2356,0,0,0-12.5178-5.04,31.6275,31.6275,0,0,0-13.4157,2.6977,47.1579,47.1579,0,0,0-21.0617,17.3513c-1.6723,2.5192-3.1442,5.3905-2.9354,8.4073.4965,7.1715,7.6885,6.1419,12.6593,5.8348C-81.1459,135.7161-73.93,135.5261-66.7156,135.3353Z"/><path class="cls-7" d="M19.0534,97.6627c-2.3654-.2445-4.4088,1.2157-6.301,2.7876a16.4872,16.4872,0,0,1,1.3055,1.98c1.7828,3.1742,2.8357,6.772,5.0534,9.6593l.0254.0325a12.423,12.423,0,0,0,4.57-6.36C24.5891,102.3382,22.57,98.0266,19.0534,97.6627Z"/><path class="cls-7" d="M3.5949,107.8348c-.1729-.4017-.3292-.8106-.4719-1.2239a33.9494,33.9494,0,0,1-4.3825,1.49c.9346,4.0364,1.1647,8.3764,2.9368,12.0424a53.658,53.658,0,0,0,6.7515-2.1061C7.6991,114.4687,5.0817,111.2894,3.5949,107.8348Z"/></g><g class="cls-8"><path class="cls-9" d="M84.6346,65.9925s17.8262-4.2443,28.0126-8.2057,35.65-5.76,53.4785,3.3954c20.9388,10.7524,33.3888,36.5014,36.5014,53.1957s11.0352,74.7,2.5464,77.8127S190.1769,139.2781,186.2157,135.6s-29.4274,25.1831-29.4274,25.1831L65.6765,137.2974,48.6992,113.2462Z"/><path class="cls-10" d="M166.6849,164.16c-5.3229-2.9953-10.8506-.3758-14.8276,2.6877A53.1542,53.1542,0,1,0,46.9231,177.2952c.5014,5.3617,3.07,25.5339,14.0464,37.2341,8.67,9.2413,20.8962,13.671,34.7592,13.8513l1.3228,13.5415s5.9491,16.0635,17.6753,13.341,14.3718-15.47,14.3718-15.47l-1.2573-18.717a29.3937,29.3937,0,0,0,22.0144-25.6311c6.65,2.7978,17.0154-2.1953,20.3481-6.75C175.2105,181.8509,176.5889,169.7325,166.6849,164.16Z"/><path class="cls-11" d="M41.4919,153.3752s21.8567,3.18,38.4947-16.763c0,0-2.0057,18.6207,15.3978,13.2072s29.189-19.3475,29.189-19.3475-8.4982,14.83,1.57,16.4047,15.7549-4.2795,15.7549-4.2795-10.3946,14.1914,3.9225,33.2419l6.0859-8.0105s9.8859-7.1638,19.4293.3567c0,0,10.02-18.0017,7.452-30.5626s-17.6865-17.947-17.6865-17.947-12.0186-17.4742-33.2064-24.271S82.483,98.2268,82.483,98.2268s-20.5268.5193-31.9619,15.67S41.4919,153.3752,41.4919,153.3752Z"/><path class="cls-11" d="M75.8859,178.2256a6.7909,6.7909,0,1,1-5.4423-7.9129A6.7908,6.7908,0,0,1,75.8859,178.2256Z"/><path class="cls-11" d="M126.5635,174.9385a6.7909,6.7909,0,1,1-5.4424-7.9129A6.7912,6.7912,0,0,1,126.5635,174.9385Z"/><path class="cls-11" d="M57.7,167.3322a1.2467,1.2467,0,0,1-1.0471-1.922c1.8767-2.9149,7.2973-7.5756,14.37-4.35A1.247,1.247,0,1,1,69.99,163.33c-6.8995-3.1494-11.066,3.16-11.24,3.4312A1.2444,1.2444,0,0,1,57.7,167.3322Z"/><path class="cls-11" d="M126.4864,160.93a1.2406,1.2406,0,0,1-.9106-.3952c-5.2615-5.6276-11.53-1.3791-11.7949-1.1957a1.2468,1.2468,0,0,1-1.4318-2.0415c2.84-1.9992,9.64-4.25,15.0481,1.5342a1.2468,1.2468,0,0,1-.9108,2.0982Z"/><path class="cls-11" d="M151.7222,189.9033a1.2469,1.2469,0,0,1-1.1826-1.64c.2287-.6876,5.7339-16.8526,16.9442-17.77a1.26,1.26,0,0,1,1.3443,1.1414,1.2468,1.2468,0,0,1-1.1414,1.344c-9.5684.7827-14.7306,15.92-14.7819,16.0727A1.248,1.248,0,0,1,151.7222,189.9033Z"/><path class="cls-9" d="M49.548,116.6417s2.5467,32.8228,9.0545,35.6523,12.45-49.8,12.45-49.8Z"/><path class="cls-9" d="M171.5019,95.42s-14.7136-.849-18.9581,10.4693a66.4838,66.4838,0,0,0-3.9614,22.3533s-25.4659,19.2412-22.07,26.315,40.4626-10.7524,40.4626-10.7524l18.3921-16.9771Z"/><path class="cls-12" d="M130.6374,157.0805q-.5967,0-1.1323-.0446a5.38,5.38,0,0,1-3.9668-1.699,3.8465,3.8465,0,0,1-.7557-2.9666c.8613-7.2745,18.4906-21.5355,22.4566-24.6595-.18-1.9053-.0682-7.0968,3.4-18.9874,4.6014-15.7762,23.2235-20.8112,24.0141-21.0172a1.2466,1.2466,0,0,1,.6307,2.4121c-.1794.0472-18.049,4.897-22.25,19.3031-4.2338,14.5141-3.2711,18.4175-3.2606,18.4524a1.2463,1.2463,0,0,1-.4261,1.3531c-5.9157,4.5951-21.4167,17.7632-22.0888,23.4363a1.3675,1.3675,0,0,0,.2264,1.1161,3.1219,3.1219,0,0,0,2.0253.7525c9.2678.9958,35.9639-10.6269,37.4226-11.807,1.8637-1.6576,15.1056-14.2672,15.24-14.394a1.2464,1.2464,0,1,1,1.7191,1.8052c-.5462.5212-13.4068,12.7665-15.31,14.46C166.74,146.232,141.4607,157.08,130.6374,157.0805Z"/><path class="cls-9" d="M83.0782,92.8734s3.1126,43.2921,9.9036,44.424,12.733-49.2343,12.733-49.2343Z"/><path class="cls-9" d="M80.5468,46.2848c-1.8953-.1971-4.4743-.3932-7.5334-.4445C68.7692,41.7555,52.29,26.3312,47.4966,28.3594c-4.5939,1.9437-5.3623,17.7055-5.4911,22.9316A53.2346,53.2346,0,0,0,25.78,61.7482,39.66,39.66,0,0,0,14.5664,81.0238C8.3091,83.0356-3.8051,87.5655-3.6474,92.4488c.1767,5.4846,14.0622,14.5032,18.6789,17.3536.4707,1.9539.9574,3.6308,1.3775,4.9526a6.5937,6.5937,0,0,0,4.5793,4.3774c8.9375,2.3815,33.6946,6.1737,53.46-17.2045C94.92,77.7143,89.362,57.7818,85.8844,50.1234A6.6066,6.6066,0,0,0,80.5468,46.2848Z"/><path class="cls-12" d="M113.3482,83.4753a1.25,1.25,0,0,0-1.7517.2078c-.2264.2883-5.5618,7.0651-6.8484,8.9937-.4536.6811-.8619,2.596-2.275,9.8517-1.212,6.2266-2.8727,14.7536-4.7136,21.6628-2.9862,11.203-4.8045,11.8434-5.0026,11.8791a.4554.4554,0,0,1-.2969-.1258c-1.0123-.7565-4.5692-5.6137-7.8387-36.3374l-.0919-.8579c-.2864-2.5845,2.5918-11.4791,4.5967-16.8274a1.2457,1.2457,0,0,0-.7295-1.6047,1.2228,1.2228,0,0,0-.5236-.0749A43.4209,43.4209,0,0,0,90.69,63.5952c-.2192-4.3913-3.1845-13.8688-4.6325-16.2827a1.2466,1.2466,0,1,0-2.138,1.2825c1.1153,1.86,4.0771,11.0611,4.28,15.1252.6014,12.0027-5.8524,26.6937-18.1715,41.3668-18.1431,21.6066-49.7566,13.2664-50.0731,13.182a1.2466,1.2466,0,0,0-.66,2.4042,64.8118,64.8118,0,0,0,15.2623,1.7289c11.3062,0,26.5622-2.8271,37.38-15.7111A99.7574,99.7574,0,0,0,84.1915,88.63c-1.2274,3.934-2.371,8.317-2.141,10.3942l.0919.8466c2.414,22.6895,5.3831,35.4982,8.8248,38.07a2.9046,2.9046,0,0,0,1.7638.6252,2.5812,2.5812,0,0,0,.4748-.0432c4.1827-.7654,7.3444-13.0732,11.7153-35.5174.8-4.1082,1.6267-8.3565,1.9018-8.9458,1.2314-1.8476,6.6779-8.7641,6.7331-8.833A1.2481,1.2481,0,0,0,113.3482,83.4753Z"/><path class="cls-13" d="M47.638,50.0763S49.3359,32.9575,51.67,33.5941,66.1011,45.1953,66.1011,45.1953,51.67,45.62,47.638,50.0763Z"/><path class="cls-13" d="M14.7445,104.8281s-4.6688-9.3374-1.4855-16.3407c0,0-13.1574.6367-13.1574,4.6688S14.7445,104.8281,14.7445,104.8281Z"/><path class="cls-11" d="M38.722,94.8733a5.1064,5.1064,0,1,1-7.2214-.0662A5.1064,5.1064,0,0,1,38.722,94.8733Z"/><path class="cls-11" d="M68.0879,65.0194a5.1065,5.1065,0,1,1-7.2214-.0661A5.1068,5.1068,0,0,1,68.0879,65.0194Z"/><path class="cls-11" d="M65.8255,80.73a1.2467,1.2467,0,0,0-2.431.5545c.01.0421.9212,4.2337-1.3573,5.64-.9116.5624-3.7064-.1185-6.078-1.1357l.2258-3.8067a1.2466,1.2466,0,0,0-2.4888-.1477l-.2232,3.7607L48.8975,86.79a1.2466,1.2466,0,1,0,.63,2.4123l4.3683-1.1408c1.0435,2.9147,1.6683,6.2017,1.0206,7.0818C53.947,96.4594,50.82,96.396,49.801,96.27a1.2468,1.2468,0,0,0-.3118,2.474,13.0166,13.0166,0,0,0,1.54.0867c1.7539,0,4.5106-.3278,5.8952-2.2085,1.3134-1.7834.6307-5.272-.1583-7.8517,2.1081.7143,4.902,1.3133,6.5814.2759C67.1454,86.7018,65.8816,80.9731,65.8255,80.73Z"/></g><g class="cls-14"><polygon class="cls-15" points="59.568 -70.075 38.695 21.885 162.796 21.885 131.676 -70.454 59.568 -70.075"/><path class="cls-16" d="M111.2849-43.6807a27.0866,27.0866,0,0,0-2.2644-1.6762,20.2316,20.2316,0,0,0-2.8416-1.5575C100.8473-49.285,94.7513-48.2983,89.91-45.27c-4.953,3.0978-8.7452,7.8638-11.7,12.8231-.1357.2277-.2648.4587-.396.6886a48.6688,48.6688,0,0,0-2.9446,6.232c-.0168.0437-.035.0868-.0516.1305-.0122.0316-.0234.0637-.0355.0955a56.04,56.04,0,0,0-3.09,12.6093,100.9565,100.9565,0,0,0-.1669,20.8329c.3579,4.59.8745,9.1654,1.3566,13.7438h61.9938q.0085-1.8947-.02-3.79a113.53,113.53,0,0,0-2.3207-22.2531A83.87,83.87,0,0,0,126.39-22.0684a82.4993,82.4993,0,0,0-8.4854-14.3977,43.6445,43.6445,0,0,0-6.066-6.743c-.1492-.129-.2981-.2583-.45-.3843C111.3545-43.6225,111.32-43.6518,111.2849-43.6807Z"/><path class="cls-17" d="M70.9537-49.2611a25.9349,25.9349,0,0,0,2.2942,4.8684l.6676,1.1243c.1407.2409.2951.5051.4605.788.373.6481.865,1.508,1.31,2.3267a124.5016,124.5016,0,0,1,5.5067,11.38c1.6758,3.9762,3.0307,7.8682,3.9251,10.7707.4306,1.4563.7968,2.6511,1.0054,3.4953l.3485,1.3138s.5043,1.8946,1.11,4.8684a85.3424,85.3424,0,0,1,1.56,11.3319,76.2635,76.2635,0,0,1-.143,12.5464c-.1052,1.4555-.3,2.6363-.3763,3.2287a26.0322,26.0322,0,0,0-.21,5.3745,15.8141,15.8141,0,0,0,1.6466-5.1716c.0839-.6039.2852-1.8093.3943-3.2939a77.45,77.45,0,0,0,.1447-12.7862,86.6223,86.6223,0,0,0-1.59-11.518c-.6167-3.0189-1.13-4.94-1.13-4.94l-.3524-1.3326c-.2113-.8565-.5813-2.0677-1.0171-3.5443-.9045-2.9423-2.2749-6.8851-3.97-10.91a125.2162,125.2162,0,0,0-5.5714-11.5165c-.45-.8284-.9489-1.699-1.3272-2.3551l-.4684-.7973-.6826-1.1359A15.8431,15.8431,0,0,0,70.9537-49.2611Z"/><path class="cls-17" d="M125.2242-50.3965a16.1686,16.1686,0,0,0-2.9215,4.5663c-.1219.278-.3049.6953-.5319,1.2126-.3842.94-.8428,2.0628-1.3467,3.2959-1.3517,3.5212-2.8711,7.7065-4.0719,11.7909a145.089,145.089,0,0,0-3.843,15.7842s-.0893.4756-.2477,1.32c-.0792.4222-.1757.9365-.2869,1.53l-.2883,2.017c-.1942,1.4878-.4833,3.2323-.6878,5.1454-.1674,1.9176-.3485,3.9919-.5338,6.1144-.0647,2.1306-.1309,4.31-.1953,6.4278.012,2.1011.1211,4.2169.168,6.0268a32.0135,32.0135,0,0,0,.2381,3.2977,19.55,19.55,0,0,0,1.2657,5.2672,19.7265,19.7265,0,0,0,.18-5.389c-.0518-.5968-.2145-1.7869-.2246-3.2519-.0452-1.7855-.1533-3.8717-.1657-5.9452.063-2.0915.1278-4.2429.1912-6.3465.1822-2.0976.36-4.1476.5251-6.0428.201-1.8913.4866-3.6173.6773-5.0888.1045-.7347.2-1.4042.2835-1.9953.11-.5869.2051-1.096.2832-1.5138l.2443-1.3064a144.06,144.06,0,0,1,3.8141-15.6275c1.1908-4.0458,2.6971-8.1915,4.0342-11.6785.4974-1.2208.95-2.3318,1.33-3.2628.2216-.5125.4-.9258.5194-1.2011A25.0992,25.0992,0,0,0,125.2242-50.3965Z"/></g></g></svg>