<?xml version="1.0" encoding="utf-8"?>
<!-- Generator: Adobe Illustrator 25.2.3, SVG Export Plug-In . SVG Version: 6.00 Build 0)  -->
<svg version="1.1" id="Capa_1" xmlns="http://www.w3.org/2000/svg" xmlns:xlink="http://www.w3.org/1999/xlink" x="0px" y="0px"
	 viewBox="0 0 199.5 199.5" style="enable-background:new 0 0 199.5 199.5;" xml:space="preserve">
<style type="text/css">
	.st0{fill:#CB93FF;}
	.st1{fill:#FBEEE5;}
	.st2{fill:#DDB1C6;}
	.st3{fill:#FF5D4D;}
	.st4{fill:#FFBEFF;}
	.st5{fill:#472444;}
	.st6{fill:none;stroke:#472444;stroke-width:1.4975;stroke-linecap:round;stroke-linejoin:round;stroke-miterlimit:10;}
	.st7{fill:#FFFFFF;}
	.st8{fill:#433E72;}
	.st9{opacity:0.3;fill:#433E72;}
	.st10{fill:#26013F;}
	.st11{fill:#6A9AA5;}
	.st12{fill:none;stroke:#6A9AA5;stroke-width:0.2007;stroke-miterlimit:10;}
	.st13{fill:none;stroke:#472444;stroke-width:1.1207;stroke-linecap:round;stroke-linejoin:round;stroke-miterlimit:10;}
	.st14{fill:#FFC762;}
	.st15{fill:none;stroke:#B6B6B6;stroke-width:1.975;stroke-miterlimit:10;stroke-dasharray:11.9325,11.9325;}
</style>
<circle class="st0" cx="99.7" cy="99.7" r="90"/>
<path class="st1" d="M59.1,90c1.5,4.4,2.2,9,2.2,13.6c-0.3,6.5-6.3,28.1,3,50.7s42.7,26.8,62.2,22.1c18-4.4,29.4-14.2,34.6-23.7
	s12.5-24.5,12.8-46.3s-4.1-46.1-10.1-42.8c-6,3.3-7.6,17.7-8.2,25.1c-0.3,6.4-0.2,12.7,0.3,19.1c0,0-6.8-12.3-7.9-17.2
	s-4.6-14.4-6.3-13.4s-4.9,8.5-0.5,19.1c0,0-6.5-5.5-15.5,0l-23.4-24.8L59.1,90z"/>
<polygon class="st2" points="90.4,100.6 117.6,87.8 123.2,93.6 97.1,106.3 "/>
<path class="st2" d="M62.8,93c0,0,14,5.6,26,0s14.7-19.8,14.7-19.8L62.8,93z"/>
<path class="st1" d="M112.4,50.5c0,0-1.1,24.9-27.3,38.4c-22.7,11.7-42.6-0.5-42.6-0.5s-2.9-6.3-2.6-12.3
	c-4.3-5.6-14.5-19.9-10.4-23.2c3.3-2.7,13.2-3,19.8-3c4-4.7,9.2-8.3,15-10.4c1.7-0.6,3.4-1.2,5.1-1.6c3.2-0.9,6.6,3.7,9.5,3.5
	c2.2-5.4,6.4-10.9,11.9-10.7c5.8,0.3,10.9,5.3,13,12.1c0,0,0,0,0,0C107.1,44.9,110,47.5,112.4,50.5z"/>
<path class="st3" d="M103.9,42.8c-1.2,2.1-3.1,3.8-5.4,4.9c-1.7,0.7-3.6,1.1-5.5,1.2c-3.8,0.2-7.8-0.5-10.6-3
	c-0.3-0.3-0.6-0.5-0.9-0.6c-0.3,0-0.7,0.1-0.9,0.2c-2,0.8-4.3,1.5-6.3,0.8c-2.9-1.1-5.1-5.3-4.8-8.4c3-0.8,6.1-1.3,9.2-1.5
	c2.2-5.4,6.8-14.8,12.3-14.5C96.7,22.1,101.7,36,103.9,42.8C103.8,42.8,103.8,42.8,103.9,42.8z"/>
<path class="st3" d="M44.8,73.2c0.2,2.3,1.1,4.6,2.5,6.4c2.5,3,6.7,4.1,10.5,3.7c5.4-0.5,10.2-3.7,12.7-8.5c2.4-4.9,1.6-10.8-2-14.9
	c-3.7-4-11.2-4.8-16.2-2.6C46.8,59.7,44.1,67.6,44.8,73.2z"/>
<path class="st4" d="M40.7,73.2c0,0-11.4-16.2-9.3-17.8s15.8-0.9,15.8-0.9S42.5,65.6,40.7,73.2z"/>
<path class="st4" d="M85.4,37.2c0,0,4.7-11.6,7.3-11.6s7.5,14.5,7.5,14.5S89.9,36.3,85.4,37.2z"/>
<g>
	<path class="st5" d="M85.1,57.3c-1.3-1.9-0.8-4.5,1.1-5.8c1.9-1.3,4.5-0.8,5.8,1.1c1.3,1.9,0.8,4.5-1.1,5.8
		C89,59.7,86.4,59.2,85.1,57.3C85.1,57.3,85.1,57.3,85.1,57.3z"/>
	<path class="st6" d="M55.7,72.3c1.5-2.7,4.9-3.7,7.6-2.2"/>
</g>
<path class="st5" d="M77.7,68L77.7,68l-4.6-0.2c-0.3,0-0.5-0.3-0.5-0.6s0.3-0.5,0.6-0.5l0,0l4.2,0.2l1.2-3.2
	c0.1-0.3,0.4-0.4,0.7-0.3c0.3,0.1,0.4,0.4,0.3,0.7l-1.4,3.6C78.2,67.8,78,68,77.7,68z"/>
<path class="st5" d="M74.5,76.1c-1.3-0.1-2.5-0.3-3.6-0.8c-0.3-0.1-0.4-0.5-0.3-0.7c0.1-0.3,0.5-0.4,0.7-0.3
	c0.9,0.4,3.5,1.3,4.7,0.3c1.1-0.8,1.3-4.8,1.1-7.1c0-0.3,0.2-0.6,0.5-0.6c0.2,0,0.3,0,0.4,0.1c1.4,1.3,4.1,3.3,5.4,2.9
	c2.5-0.6,2.8-4.5,2.8-4.5c0-0.3,0.3-0.5,0.6-0.5s0.5,0.3,0.5,0.6c0,0,0,0,0,0c0,0.2-0.4,4.7-3.6,5.5c-1.7,0.4-4.1-1.3-5.4-2.4
	c0.1,2-0.1,5.7-1.6,6.8C76.1,75.9,75.3,76.1,74.5,76.1z"/>
<path class="st5" d="M98.2,57.4c-0.3,0-0.5-0.2-0.5-0.5c0-0.1,0.1-0.3,0.2-0.4l15.6-15.1c0.2-0.2,0.6-0.2,0.8,0
	c0.2,0.2,0.2,0.6,0,0.8L98.6,57.3C98.5,57.4,98.4,57.4,98.2,57.4z"/>
<path class="st5" d="M100.2,59.5c-0.3,0-0.5-0.2-0.5-0.5c0-0.2,0.1-0.4,0.3-0.5l17.3-7.9c0.3-0.1,0.6,0,0.7,0.3s0,0.6-0.3,0.7
	c0,0,0,0,0,0l-17.3,7.9C100.3,59.5,100.2,59.5,100.2,59.5z"/>
<path class="st5" d="M35.1,89.4c-0.3,0-0.5-0.2-0.5-0.5c0-0.2,0.1-0.4,0.3-0.5l20.4-8.2c0.3-0.1,0.6,0,0.7,0.3
	c0.1,0.3,0,0.6-0.3,0.7l-20.4,8.2C35.2,89.4,35.2,89.4,35.1,89.4z"/>
<g>
	<g>
		<g>
			<g>
				<path class="st7" d="M81.4,87.3l2.4,4.6l35.4-18.5l-2.4-4.6c-0.5-1-1.7-1.3-2.7-0.8L82.2,84.6C81.3,85.1,80.9,86.3,81.4,87.3z"
					/>
				<path class="st7" d="M83.1,90.6l7.2,13.8c0.5,1,1.7,1.4,2.7,0.9l31.8-16.6c1-0.5,1.4-1.7,0.9-2.7l-7.2-13.8L83.1,90.6z"/>
				
					<rect x="84.1" y="80.5" transform="matrix(0.8863 -0.4632 0.4632 0.8863 -28.7121 58.1657)" class="st8" width="39.9" height="14.1"/>
				<polygon class="st9" points="115.2,81.3 120.2,91 102,100.5 96.8,90.8 				"/>
				<path class="st10" d="M83.2,84.1l2.2-1.1c0.2-0.1,0.3-0.3,0.2-0.5l-0.1-0.3C85.3,82,85,82,84.8,82.1l-2.2,1.1
					c-0.2,0.1-0.3,0.3-0.2,0.5l0.1,0.3C82.7,84.2,83,84.2,83.2,84.1z"/>
				<polygon class="st7" points="107.2,72.3 103.7,68.1 92.6,73.9 94,79.2 				"/>
				<polygon class="st9" points="105.2,72.6 103.3,70.9 95.1,75.2 95.4,77.7 				"/>
				
					<rect x="94" y="76" transform="matrix(0.8863 -0.4632 0.4632 0.8863 -24.6199 56.0908)" class="st9" width="15.7" height="4.4"/>
				<path class="st10" d="M111.8,67.4l-3.4,1.8c-0.3,0.2-0.4,0.5-0.3,0.8l0.4,0.8l4.5-2.4l-0.4-0.8
					C112.5,67.4,112.1,67.2,111.8,67.4z"/>
				<path class="st10" d="M91.9,79.5l-5,2.6c-0.1,0-0.1,0-0.2-0.1l-0.5-1c0-0.1,0-0.1,0.1-0.2l5-2.6c0.1,0,0.1,0,0.2,0.1l0.5,1
					C92,79.3,92,79.4,91.9,79.5z"/>
				<path class="st9" d="M92,82.9c-0.4-0.7-1.3-1-2-0.6c-0.7,0.4-1,1.3-0.6,2c0.4,0.7,1.3,1,2,0.6C92.1,84.5,92.4,83.6,92,82.9z"/>
				<path class="st8" d="M91.4,83.2c-0.2-0.4-0.6-0.5-1-0.3c-0.4,0.2-0.5,0.6-0.3,1c0.2,0.4,0.6,0.5,1,0.3
					C91.4,84,91.5,83.6,91.4,83.2z"/>
				<path class="st10" d="M110.9,75.1l-2.6,3.8l2.6,1.8l2.6-3.8c0.5-0.7,0.3-1.7-0.4-2.2l0,0C112.4,74.2,111.4,74.4,110.9,75.1z"/>
				<path class="st11" d="M112.7,75.4c-0.4-0.3-1-0.2-1.4,0.2c-0.3,0.4-0.2,1,0.2,1.4c0.4,0.3,1,0.2,1.4-0.2
					C113.3,76.3,113.2,75.7,112.7,75.4z"/>
				<path class="st11" d="M112.4,75.8c-0.2-0.1-0.5-0.1-0.6,0.1c-0.1,0.2-0.1,0.5,0.1,0.6c0.2,0.1,0.5,0.1,0.6-0.1
					C112.7,76.2,112.6,75.9,112.4,75.8z"/>
				
					<ellipse transform="matrix(0.8546 -0.5193 0.5193 0.8546 -29.2727 67.5628)" class="st10" cx="106" cy="86.1" rx="10.4" ry="10.4"/>
				<circle class="st12" cx="106" cy="86.1" r="8.7"/>
				<g>
					<path class="st11" d="M106,81c1.9,0,3.6,1,4.5,2.7c1.3,2.5,0.3,5.5-2.1,6.8c-0.7,0.4-1.5,0.6-2.3,0.6c-1.9,0-3.6-1-4.5-2.7
						c-0.6-1.2-0.7-2.5-0.3-3.8c0.4-1.3,1.3-2.3,2.5-2.9C104.4,81.2,105.2,81,106,81 M106,79.2c-1.1,0-2.1,0.3-3.2,0.8
						c-3.3,1.7-4.6,5.9-2.9,9.2c1.2,2.3,3.6,3.7,6.1,3.7c1.1,0,2.1-0.2,3.2-0.8c3.3-1.7,4.6-5.9,2.9-9.2
						C110.8,80.6,108.5,79.2,106,79.2L106,79.2z"/>
				</g>
				<path class="st11" d="M104.6,83.4c-1.5,0.8-2,2.6-1.3,4c0.8,1.5,2.6,2,4,1.3c1.5-0.8,2-2.6,1.3-4
					C107.9,83.2,106.1,82.6,104.6,83.4z"/>
				<path class="st11" d="M105.2,84.5c-0.9,0.4-1.2,1.5-0.7,2.3s1.5,1.2,2.3,0.7c0.9-0.4,1.2-1.5,0.7-2.3
					C107.1,84.4,106.1,84.1,105.2,84.5z"/>
				<path class="st7" d="M105.2,82.4c-0.8,0.4-1.1,1.3-0.7,2.1c0.4,0.8,1.3,1.1,2.1,0.7c0.8-0.4,1.1-1.3,0.7-2.1S106,82,105.2,82.4z
					"/>
				<path class="st8" d="M114.7,69.8l-4.6,2.4c-0.2,0.1-0.2,0.3-0.2,0.5l0.6,1.2c0.1,0.2,0.3,0.2,0.5,0.2l4.6-2.4
					c0.2-0.1,0.2-0.3,0.2-0.5l-0.6-1.2C115.1,69.8,114.8,69.7,114.7,69.8z"/>
			</g>
			<g>
				<path class="st10" d="M91,72.2C90.9,72.3,90.9,72.3,91,72.2c-0.2,0.3-0.4,0.3-0.6,0.2l-2.4-1.6c-0.2-0.1-0.2-0.4-0.1-0.6
					c0.1-0.2,0.4-0.2,0.6-0.1l2.4,1.6C91,71.8,91,72,91,72.2z"/>
			</g>
			<g>
				<g>
					<path class="st10" d="M89.7,74.1c-0.1,0.2-0.3,0.3-0.4,0.2l-3-0.4c-0.2,0-0.4-0.2-0.4-0.5c0-0.2,0.2-0.4,0.5-0.4l3,0.4
						c0.2,0,0.4,0.2,0.4,0.5C89.7,74.1,89.7,74.1,89.7,74.1z"/>
				</g>
				<g>
					<path class="st10" d="M92.2,70.3c0,0.1-0.1,0.1-0.2,0.2c-0.2,0.1-0.5,0.1-0.6-0.2l-1.6-2.6c-0.1-0.2-0.1-0.5,0.2-0.6
						c0.2-0.1,0.5-0.1,0.6,0.2l1.6,2.6C92.3,70.1,92.3,70.2,92.2,70.3z"/>
				</g>
			</g>
		</g>
	</g>
	<path class="st13" d="M105.6,70.3l-1.9-2.2l-11.1,5.8l1.2,4.6l-11.6,6.1c-1,0.5-1.3,1.7-0.8,2.7l3.3,6.4l-1-1.8"/>
</g>
<path class="st5" d="M43.7,97c-0.3,0-0.5-0.2-0.5-0.5c0-0.1,0.1-0.3,0.1-0.4l13.1-13.9c0.2-0.2,0.6-0.2,0.8,0c0.2,0.2,0.2,0.6,0,0.8
	L44.1,96.9C44,97,43.8,97,43.7,97z"/>
<path class="st1" d="M131.9,63.2c-2.4-1.9-10-3.3-13.8,3.4s-2.2,15.1,0.8,16.7c3.1,1.6,8.7-0.8,11.6-5.6
	C133.4,73,136.2,66.7,131.9,63.2z"/>
<path class="st5" d="M118,83.4c-0.3-0.1-0.4-0.4-0.3-0.6l1.3-5.3c0.1-0.3,0.4-0.5,0.7-0.4c0.3,0.1,0.5,0.4,0.4,0.7l-1.3,5.3
	C118.6,83.4,118.3,83.5,118,83.4C118,83.5,118,83.5,118,83.4L118,83.4z"/>
<path class="st5" d="M120.4,84.2c-0.3-0.1-0.4-0.4-0.3-0.7l1.6-5.5c0.1-0.3,0.4-0.5,0.7-0.4c0.3,0.1,0.4,0.4,0.4,0.7l-1.6,5.5
	C121.1,84.1,120.7,84.3,120.4,84.2C120.5,84.2,120.5,84.2,120.4,84.2C120.4,84.2,120.4,84.2,120.4,84.2z"/>
<path class="st1" d="M58.9,128.2c0,0,6.2-17.4,9.3-21.1s21.5-18.8,23.3-18.2c3.3,1.1,3.3,6.2,1.6,11.4s-7.3,13.3-7.5,15.6
	s-0.5,22.4-0.5,22.4S59.4,140,58.9,128.2z"/>
<path class="st1" d="M93,140.7c0,0,3.8-16.2,15.8-18s17.4,6,17.4,6s-1.5-20.4,3.1-19.4s5.3,7.5,8.5,13.8
	c3.3,6.4,11.4,15.1,11.8,19.8s-5.8,12.9-5.8,12.9l-34,6.7L93,140.7z"/>
<path class="st5" d="M89.3,109.3c1.9-3.3,3.5-6.7,4.8-10.3c1.7-5,0.7-7.7-0.1-8.9c-0.5-0.9-1.5-1.6-2.5-1.7c0,0,0,0-0.1,0
	c-2.7,0-18.2,12.8-21.1,15.5c-3.8,3.6-9.6,21.1-9.8,21.8c-0.1,0.3,0.1,0.6,0.3,0.7c0.3,0.1,0.6-0.1,0.7-0.3c0.1-0.2,5.9-18,9.5-21.3
	c4.5-4.2,18.5-15.2,20.3-15.2l0,0c0.1,0,0.2,0,0.3,0.1l-3.8,3.7c-0.2,0.2-0.2,0.6,0,0.8c0.2,0.2,0.6,0.2,0.8,0c0,0,0,0,0,0l4-3.9
	c0.2,0.2,0.3,0.4,0.5,0.6c0.5,0.8,1.6,3.2,0,7.9c-1.3,3.5-2.9,6.9-4.8,10.1c-1.5,2.8-2.4,4.4-2.4,5.3c0,0.9,0.1,1.8,0.2,2.8
	c0.4,4.5,1.3,13-1,17.3c-0.1,0.3,0,0.6,0.2,0.7c0.3,0.1,0.6,0,0.7-0.2c2.4-4.6,1.6-13.2,1.1-17.9c-0.1-1.2-0.2-2.2-0.2-2.6
	C87.1,113.4,88.2,111.4,89.3,109.3z"/>
<path class="st5" d="M148.8,141.5c-0.5-3.5-3.6-7.9-6.7-12.1c-1.8-2.3-3.3-4.7-4.6-7.3c-0.4-1.1-0.8-2.3-1.3-3.5
	c-1.6-4.6-3.2-9.4-6.8-9.9c-0.6-0.1-1.1,0.1-1.5,0.5c-2.6,2.4-2.4,14-2.3,18.2c-3.8-3.1-8.4-5-13.3-5.6c-9.1-1.1-15.4,8.2-15.6,8.6
	c-0.2,0.3-0.1,0.6,0.2,0.8c0.3,0.2,0.6,0.1,0.8-0.2c0.1-0.1,6.1-9.2,14.6-8.1c5.1,0.6,9.9,2.8,13.7,6.2l0,0l0,0
	c0.1,0.1,5.2,5.2,7.2,9.8c0.1,0.3,0.4,0.4,0.7,0.3c0.3-0.1,0.4-0.4,0.3-0.7c-1.9-4.4-6.4-9.1-7.2-10c-0.2-4.6-0.3-16.4,1.9-18.4
	c0.2-0.2,0.4-0.3,0.6-0.2c2.9,0.4,4.5,5,5.9,9.1c0.4,1.3,0.9,2.5,1.3,3.6c1.3,2.6,2.9,5.2,4.7,7.5c2.8,4,6.1,8.4,6.5,11.6
	c0.7,5.7-2,10.8-5,12.3c-0.3,0.1-0.4,0.5-0.2,0.7c0.1,0.3,0.5,0.4,0.7,0.2C147.1,152.9,149.5,147.1,148.8,141.5z"/>
<path class="st5" d="M149.2,144.8c-0.3,0-0.5-0.2-0.5-0.5c0-0.1,0-0.2,0.1-0.3c0.1-0.1,5.8-10.8,6.1-22.7c0.1-2,0.1-5,0-8.4
	c-0.1-23.9,0.5-49.5,8.9-50c1.6,0,3.2,0.8,4.1,2.1c7.4,8.8,8.1,42.5,5.2,55.3c-0.1,0.3-0.4,0.5-0.7,0.4c-0.3-0.1-0.5-0.4-0.4-0.6
	c3-13.8,1.7-46.4-5-54.3c-0.7-1.1-2-1.7-3.2-1.7c-8.1,0.4-7.9,33.1-7.9,48.9c0,3.4,0,6.4,0,8.4c-0.4,12.2-6.2,23-6.2,23.1
	C149.5,144.7,149.4,144.8,149.2,144.8z"/>
<path class="st14" d="M142.4,37.6c-1.6-0.2-6.2-0.9-7.5-2.1c-1.1-1-2.2-7.5-2.6-11.3c0-0.3-0.3-0.5-0.6-0.5c-0.3,0-0.5,0.3-0.5,0.5
	c0,0.1-0.1,8.8-1.9,11.3c-1.7,2.4-8,2.7-8,2.7c-0.3,0-0.5,0.3-0.5,0.5c0,0.3,0.2,0.5,0.5,0.5c1.7,0.2,6.4,0.9,7.9,1.8
	c1.9,1.2,2.6,8.5,2.7,11.3c0,0.3,0.2,0.5,0.5,0.5h0c0.3,0,0.5-0.2,0.5-0.5c0.2-2.5,1.1-9.4,2.1-11c1.1-1.9,5.7-2.7,7.4-2.8
	c0.3,0,0.5-0.3,0.5-0.6C142.9,37.8,142.7,37.6,142.4,37.6L142.4,37.6z"/>
<path class="st14" d="M34.8,97.3c-1.7-0.2-6.2-0.9-7.5-2.1c-1.1-1-2.2-7.5-2.6-11.3c0-0.3-0.3-0.5-0.6-0.5c-0.3,0-0.5,0.3-0.5,0.5
	c0,0.1-0.1,8.8-1.9,11.3c-1.7,2.4-8,2.7-8,2.7c-0.3,0-0.5,0.3-0.5,0.5c0,0.3,0.2,0.5,0.5,0.5c1.7,0.2,6.4,0.9,7.9,1.8
	c1.9,1.2,2.6,8.5,2.7,11.3c0,0.3,0.2,0.5,0.5,0.5h0c0.3,0,0.5-0.2,0.5-0.5c0.2-2.5,1.1-9.4,2.1-11c1.1-1.9,5.7-2.7,7.4-2.8
	c0.3,0,0.5-0.3,0.5-0.6C35.3,97.5,35.1,97.3,34.8,97.3L34.8,97.3z"/>
<path class="st14" d="M81.6,161.7c-1.7-0.2-6.2-0.9-7.5-2.1c-1.1-1-2.2-7.5-2.6-11.3c0-0.3-0.3-0.5-0.6-0.5c-0.3,0-0.5,0.3-0.5,0.5
	c0,0.1-0.1,8.8-1.9,11.3c-1.7,2.4-8,2.7-8,2.7c-0.3,0-0.5,0.3-0.5,0.5c0,0.3,0.2,0.5,0.5,0.5c1.7,0.2,6.4,0.9,7.9,1.8
	c1.9,1.2,2.6,8.5,2.7,11.3c0,0.3,0.2,0.5,0.5,0.5h0c0.3,0,0.5-0.2,0.5-0.5c0.2-2.5,1.1-9.4,2.1-11c1.1-1.9,5.7-2.7,7.4-2.8
	c0.3,0,0.5-0.3,0.5-0.6C82.1,161.9,81.9,161.7,81.6,161.7L81.6,161.7z"/>
<circle class="st1" cx="39.4" cy="136.4" r="4.1"/>
<circle class="st1" cx="155.5" cy="52.7" r="3.8"/>
<path class="st1" d="M60.5,32.8c0,1.9-1.6,3.5-3.5,3.5s-3.5-1.6-3.5-3.5s1.6-3.5,3.5-3.5c0,0,0,0,0,0C58.9,29.3,60.5,30.9,60.5,32.8
	z"/>
<circle class="st15" cx="99.7" cy="99.7" r="98.8"/>
</svg>
