<svg xmlns="http://www.w3.org/2000/svg" xmlns:xlink="http://www.w3.org/1999/xlink" viewBox="0 0 200 200"><defs><style>.cls-1,.cls-10,.cls-8{fill:none;}.cls-2{fill:#d34e48;}.cls-3{clip-path:url(#clip-path);}.cls-4{fill:#fb6;}.cls-5{fill:#ff855c;}.cls-6{fill:#ffb4bf;}.cls-7{fill:#ffd6ad;}.cls-8{stroke:#000;stroke-width:0.4744px;}.cls-10,.cls-8{stroke-linecap:round;stroke-linejoin:round;}.cls-9{fill:#fbffff;}.cls-10{stroke:#d34e48;}</style><clipPath id="clip-path"><rect class="cls-1" width="200" height="200"/></clipPath></defs><g id="Fondos"><rect class="cls-2" y="-0.2372" width="200" height="200.2372"/></g><g id="Gatos"><g class="cls-3"><path class="cls-4" d="M120.0833,36.701c19.2239,6.2028,42.3545,16.1116,54.5837,33.2077A71.4,71.4,0,0,1,185.14,129.7275c-5.5656,20.27-21.8175,37.2377-41.0622,45.6918-10.2109,4.4857-22.6926,6.3059-32.1158.34-8.0371-5.0881-12.0809-14.8344-12.9578-24.3062s.9128-18.9559,2.0219-28.4033,1.4866-19.3251-2.0318-28.1628c5.9231-8.1209,11.7766-16.37,16.0894-25.4491S122.3469,47.37,120.0833,36.701Z"/><path class="cls-5" d="M182.2166,83.5106q-11.094,1.1484-22.1044,2.9711a4.3924,4.3924,0,0,0-1.8189.5863,1.513,1.513,0,0,0-.6706,1.6609c.26.7178,1.1356.9581,1.8862,1.0978l26.7575,4.9776A15.8039,15.8039,0,0,0,182.2166,83.5106Z"/><path class="cls-5" d="M174.89,69.8759A66.5035,66.5035,0,0,0,159.9957,75.34c-.4773.2433-1.0342.6763-.8674,1.1855.1387.4238.6772.5325,1.1215.5707l20.3107,1.7509A17.4137,17.4137,0,0,0,174.89,69.8759Z"/><path class="cls-5" d="M188.0215,99.6577A83.3606,83.3606,0,0,0,165.78,95.5158c-1.018-.0487-2.2454.0313-2.7454.9194a1.9052,1.9052,0,0,0,.2235,1.9745,5.2982,5.2982,0,0,0,1.5966,1.3369c7.8154,4.8929,16.77,8.1619,23.4723,14.4939C189.7835,109.8761,189.0723,104.8453,188.0215,99.6577Z"/><path class="cls-5" d="M187.6423,121.3866a49.9144,49.9144,0,0,0-20.228-14.7362,4.7658,4.7658,0,0,0-2.0972-.4589,1.7372,1.7372,0,0,0-1.6037,1.2282,2.6055,2.6055,0,0,0,.85,2.0368l20.058,24.1976C186.28,129.526,187.9692,125.1963,187.6423,121.3866Z"/><path class="cls-1" d="M120.0833,36.701c19.2239,6.2028,42.3545,16.1116,54.5837,33.2077A71.4,71.4,0,0,1,185.14,129.7275c-5.5656,20.27-21.8175,37.2377-41.0622,45.6918-10.2109,4.4857-22.6926,6.3059-32.1158.34-8.0371-5.0881-12.0809-14.8344-12.9578-24.3062s.9128-18.9559,2.0219-28.4033,1.4866-19.3251-2.0318-28.1628c5.9231-8.1209,11.7766-16.37,16.0894-25.4491S122.3469,47.37,120.0833,36.701Z"/><path class="cls-4" d="M71.8756,41.8388q-5.912-10.8075-11.8237-21.615c-.7423-1.3569-1.4084-3.2175-.2191-4.284.8632-.774,2.2079-.6141,3.3481-.39A156.5853,156.5853,0,0,1,97.2353,26.3758,82.44,82.44,0,0,0,71.8756,41.8388Z"/><path class="cls-6" d="M72.7777,40.1293c-2.2691-4.48-5.011-10.313-8.0669-15.6534a2.7119,2.7119,0,0,1,.0983-2.8771c.8627-1.1609,2.6857-.9073,4.0927-.5242C76.437,23.126,84.05,25.2081,90.8534,28.8823A46.962,46.962,0,0,0,72.7777,40.1293Z"/><path class="cls-4" d="M61.6142,61.2921,37.4891,70.159c-1.5145.5566-3.3276,1.5381-3.1891,3.0754.1005,1.1158,1.2214,1.83,2.2342,2.37A155.2745,155.2745,0,0,0,69.706,88.6176,72.9168,72.9168,0,0,1,61.6142,61.2921Z"/><path class="cls-6" d="M60.3347,66.235C55.4206,68.06,48.9,70.56,42.7851,72.5112c-.989.3156-3.3336,1.117-3.5168,2.0993-.2017,1.0816,3.9147,2.2711,5.241,2.8547,7.6116,3.3494,12.7486,5.7887,20.62,8.2851C61.9754,80.03,60.4756,73.8652,60.3347,66.235Z"/><path class="cls-4" d="M60.4661,60.1955c-2.2174,12.0258-2.7514,22.0874,2.3209,29.4466,5.4856,7.9588,14.142,14.1327,24.9216,12.7823,37.832-4.7393,37.9141-50.3685,36.5174-57.9531-1.7917-9.73-19.4014-23.7418-37.58-15.7063C76.1835,33.39,62.9217,46.8776,60.4661,60.1955Z"/><path class="cls-5" d="M67.9354,40.598q4.1063,5.0091,8.2125,10.0182a3.1766,3.1766,0,0,1,.781,1.3688A1.0912,1.0912,0,0,1,76.25,53.26a1.6045,1.6045,0,0,1-1.2019-.3958l-7.8291-5.269a4.5954,4.5954,0,0,1-1.7123-1.6542,3.0886,3.0886,0,0,1,.1231-2.6217A9.5414,9.5414,0,0,1,67.9354,40.598Z"/><path class="cls-5" d="M62.99,48.4174l9.9282,6.7763a5.372,5.372,0,0,1,1.71,1.5775l.0118.02a1.2,1.2,0,0,1-1.4462,1.7058L60.3167,54.115A17.8507,17.8507,0,0,1,62.99,48.4174Z"/><path class="cls-5" d="M57.8211,56.0659l10.8,3.1111a3.8038,3.8038,0,0,1,1.8475.9288,1.3618,1.3618,0,0,1,.0318,1.8915,1.89,1.89,0,0,1-1.2952.2526l-12.3537-.5938A52.8055,52.8055,0,0,1,57.8211,56.0659Z"/><path class="cls-1" d="M60.4661,60.1955c-2.2174,12.0258-2.7514,22.0874,2.3209,29.4466,5.4856,7.9588,14.142,14.1327,24.9216,12.7823,37.832-4.7393,37.9141-50.3685,36.5174-57.9531-1.7917-9.73-19.4014-23.7418-37.58-15.7063C76.1835,33.39,62.9217,46.8776,60.4661,60.1955Z"/><path class="cls-7" d="M77.2566,76.1108c3.81,4.4772,12.1866,2.3135,15.53-1.5061,3.0655-3.5024,5.5584-9.3911,4.7619-13.8368s-4.971-8.3612-9.6813-8.0409a11.0826,11.0826,0,0,0-7.4761,4.1577A25.16,25.16,0,0,0,76.3881,64.46a15.4671,15.4671,0,0,0-1.2907,6.1051A10.0555,10.0555,0,0,0,77.2566,76.1108Z"/><path class="cls-8" d="M84.904,65.8991c.2329-.0722,2.9865,1.442,3.4013,1.566"/><path class="cls-2" d="M84.9072,66.4787a.9.9,0,0,0,.5791-1.0332,6.3864,6.3864,0,0,0-2.7774-3.981,2.0719,2.0719,0,0,0-1.4153-.2974,1.9655,1.9655,0,0,0-1.221,1.1694c-.2322.525-.3189,1.0866-.5055,1.6247-.3322.9585-.98,2.0347-.4933,2.8462a1.5791,1.5791,0,0,0,1.3417.657,9.2176,9.2176,0,0,0,1.6165-.2863A9.648,9.648,0,0,0,84.9072,66.4787Z"/><path class="cls-9" d="M92.8788,52.7653c1.3579-5.4659,2.9716-10.8647,4.6493-16.2408,1.758-5.35,3.5817-10.682,5.6517-15.92-1.878,5.3084-3.7487,10.6181-5.4263,15.992C95.9958,41.9448,94.433,47.3531,92.8788,52.7653Z"/><path class="cls-9" d="M96.4661,53.1039c1.5919-3.7221,3.407-7.3437,5.2635-10.9407,1.9309-3.5576,3.9059-7.0945,6.0883-10.5042-2.0067,3.5143-4.0235,7.0206-5.8791,10.615C100.0086,45.8289,98.2425,49.4679,96.4661,53.1039Z"/><path class="cls-9" d="M99.7261,54.6218c2.6653-3.8047,5.4332-7.5336,8.1463-11.3031,2.7808-3.7195,5.5073-7.479,8.3367-11.1626-2.6648,3.8049-5.4328,7.5339-8.1462,11.3031C105.2816,47.1783,102.5552,50.9379,99.7261,54.6218Z"/><path class="cls-9" d="M78.9806,81.9222c-4.2745,3.8543-8.545,7.7113-12.6779,11.7152-4.1912,3.943-8.2423,8.03-12.29,12.1213,3.9007-4.2337,7.9919-8.2875,12.1268-12.2925C70.3323,89.5221,74.5716,85.6236,78.9806,81.9222Z"/><path class="cls-9" d="M80.993,84.7615c-2.5248,3.1981-5.0586,6.3866-7.4465,9.6861-2.4555,3.25-4.7627,6.6057-7.0805,9.9567,2.1475-3.4643,4.5-6.7961,6.89-10.0974C75.8138,91.0557,78.3107,87.8306,80.993,84.7615Z"/><path class="cls-9" d="M83.9445,86.769c-2.0843,4.1172-4.2814,8.1745-6.4182,12.2639-2.2111,4.05-4.3626,8.1313-6.6272,12.1528,2.084-4.1174,4.281-8.1748,6.4183-12.2639C79.529,94.8722,81.6805,90.7906,83.9445,86.769Z"/><path class="cls-8" d="M83.8466,49.6483a4.8909,4.8909,0,0,0,3.0708.2636,2.7323,2.7323,0,0,0,2.0058-2.1748,2.956,2.956,0,0,0-1.1844-2.5,8.728,8.728,0,0,0-2.5645-1.29"/><path class="cls-8" d="M71.1461,80.87a4.8908,4.8908,0,0,0,2.9684.83,2.7322,2.7322,0,0,0,2.3749-1.7642,2.9561,2.9561,0,0,0-.6992-2.6767,8.7267,8.7267,0,0,0-2.28-1.7441"/><path class="cls-8" d="M93.7978,64.3071a18.9969,18.9969,0,0,0-5.378,3.1407c-.228.4972.5294,3.9021,1.7667,5.6915"/><path class="cls-4" d="M102.3507,105.9705c-2.774-5.311-3.725-8.3483.6645-12.4269,3.0522-2.8361,6.292-6.58,12.9275-8.7266,4.7163-1.526,13.6136-1.0372,15.4657-.3042a4.5064,4.5064,0,0,1,2.91,3.21,2.8182,2.8182,0,0,1-2.3113,3.2851,3.9873,3.9873,0,0,1,4.9159,2.5,4.854,4.854,0,0,1-2.2,5.1545,3.679,3.679,0,0,1,2.2834,6.6286c-1.1071.8246-2.59.77-3.9461,1.0289-1.2778.2443,5.62,2.0119.9733,9.0215-.7935,1.197-12.5769,3.165-17.8642,1.1145S105.8388,112.6484,102.3507,105.9705Z"/><path class="cls-10" d="M101.9465,105.1855c-6.2407-8.9183,6.8648-17.2283,9.4643-18.4195a28.4048,28.4048,0,0,1,9.0931-2.7909c3.9357-.4391,7.3667-.5557,10.5929.4233a4.4243,4.4243,0,0,1,2.7851,2.1479c.7888,1.6105.9285,3.6194-.8017,4.0908-1.1751.32-3.4654.8818-5.68,1.274"/><path class="cls-10" d="M133.3082,90.6116a5.5505,5.5505,0,0,1,2.7166,1.4826,3.5467,3.5467,0,0,1,1.0462,2.5739A4.99,4.99,0,0,1,135.46,98.109a5.3539,5.3539,0,0,1-2.4839.8578c-1.0454.2061-2.5247.3493-4.0887.5238"/><path class="cls-10" d="M134.8143,98.5827a3.5661,3.5661,0,0,1,2.2409,6.3041,7.17,7.17,0,0,1-3.7443,1.2414c-3.7016.4926-9.0315,1.2084-14.2505-1.04"/><path class="cls-8" d="M131.0909,106.4053c1.49.34,1.5008-.0108,2.4978.6493,3.1206,2.0663,2.4325,6.6312.4451,8.2869"/><path class="cls-4" d="M121.4619,37.2453c3.2205-2.82,7.7222-3.8424,11.9948-3.576a40.0781,40.0781,0,0,1,12.3516,3.3031c9.885,3.9886,19.5967,9.3356,26.1642,17.7314,1.584,2.0251,3.0174,4.3678,3.0229,6.9388.0084,3.92-3.4243,7.1707-7.1855,8.2759s-7.7846.5544-11.47-.2179c-.32,1.4691.0283,3.07-.5609,4.4535a3.4671,3.4671,0,0,1-6.3492.1108,10.1981,10.1981,0,0,1-.4592,3.6757,3.34,3.34,0,0,1-5.1,1.9371,7.1453,7.1453,0,0,1-2.2947-2.2512c.2829,1.2821-1.1726,2.415-2.4807,2.3027a5.6,5.6,0,0,1-3.3058-1.9786,30.1323,30.1323,0,0,1-7.5889-13.53,14.3032,14.3032,0,0,1-.1224-7.9565,10.88,10.88,0,0,1,3.7145-5.7143c1.9625-1.494,4.1993-.8614,6.3275-.8037C131.9832,45.5367,126.4488,42.0842,121.4619,37.2453Z"/><path class="cls-5" d="M141.3931,34.19a27.3919,27.3919,0,0,0-6.8489,12.0894,2.4969,2.4969,0,0,0,2.7824.5332,7.8866,7.8866,0,0,0,2.4381-1.7588A67.1357,67.1357,0,0,1,150.2054,37.15,45.1914,45.1914,0,0,0,141.3931,34.19Z"/><path class="cls-5" d="M153.5672,38.7089A32.2646,32.2646,0,0,0,143.4153,45.69a2.0816,2.0816,0,0,0-.8143,1.7107,1.4592,1.4592,0,0,0,1.4973,1.0167,4.5322,4.5322,0,0,0,1.8529-.6051,46.65,46.65,0,0,1,16.042-4.5037A20.7976,20.7976,0,0,0,153.5672,38.7089Z"/><path class="cls-5" d="M165.8734,45.1924c-5.3564.66-10.867,1.9316-15.06,5.33-.8276.6708-1.6654,1.6477-1.3866,2.6759a2.0481,2.0481,0,0,0,1.5433,1.3316,6.0349,6.0349,0,0,0,2.1273.003c5.3359-.6274,10.4347-1.5513,15.7706-2.1787a5.3936,5.3936,0,0,0,1.4945-.2851C170.4431,51.9076,166.4722,47.9909,165.8734,45.1924Z"/><path class="cls-1" d="M167.81,69.9185c-3.7611,1.1052-7.7846.5544-11.47-.2179-.32,1.4691.0283,3.07-.5609,4.4535a3.4671,3.4671,0,0,1-6.3492.1108,10.1981,10.1981,0,0,1-.4592,3.6757,3.34,3.34,0,0,1-5.1,1.9371,7.1453,7.1453,0,0,1-2.2947-2.2512c.2829,1.2821-1.1726,2.415-2.4807,2.3027a5.6,5.6,0,0,1-3.3058-1.9786,30.1323,30.1323,0,0,1-7.5889-13.53,14.3032,14.3032,0,0,1-.1224-7.9565,10.88,10.88,0,0,1,3.7145-5.7143c1.9625-1.494,4.1993-.8614,6.3275-.8037"/><path class="cls-1" d="M133.4567,33.6693a40.0781,40.0781,0,0,1,12.3516,3.3031"/><path class="cls-10" d="M144.5693,51.49a20.8369,20.8369,0,0,0-9.5367-1.7234,7.8119,7.8119,0,0,0-6.124,4.0351,11.9253,11.9253,0,0,0-1.1935,5.9853,24.0676,24.0676,0,0,0,2.7558,10.6947c1.6872,3.5391,4.0663,7.3615,7.612,9.0347a3.0363,3.0363,0,0,0,1.7188.3893,2.3171,2.3171,0,0,0,1.7031-2.3933,6.7566,6.7566,0,0,0-1.0406-2.9986"/><path class="cls-10" d="M156.1893,69.6964a24.4081,24.4081,0,0,0,11.1845.3421,11.1939,11.1939,0,0,0,7.5467-6.6427"/><path class="cls-10" d="M148.0013,71.1994a17.5371,17.5371,0,0,1,1.1232,3.4689,5.8847,5.8847,0,0,1-.3727,3.5742,3.5743,3.5743,0,0,1-2.8137,2.0638,3.9062,3.9062,0,0,1-2.4975-.7933,11.0816,11.0816,0,0,1-1.9078-1.8635"/><path class="cls-10" d="M152.6889,59.7059c1.4049,2.3266,3.4432,7.38,3.6515,9.9947a12.8464,12.8464,0,0,1-.353,3.8062,3.8706,3.8706,0,0,1-3.1834,2.77,5.1552,5.1552,0,0,1-4.0531-2.8077"/><path class="cls-4" d="M85.034,183.5059c-21.5878-3.95-35.8193-13.1408-51.187-28.8081-8.4055-8.5693-17.1045-20.2552-18.83-32.1341s.2116-23.65,10.79-29.323c3.83-2.0539,8.4666-3.0127,12.5646-1.5666s7.311,5.7353,6.6032,10.0229c-.3712,2.2489-1.6957,4.202-2.7408,6.2276a28.66,28.66,0,0,0-.65,24.1516c3.3009,7.6393,9.1521,15.1227,16.9242,18.0976,6.7288,2.5756,12.4851,6.5877,26.3842,7.46,24.744,1.5523,55.025,19.8884,55.025,19.8884s-5.05,2.1124-9.9088,3.7649C106.2831,186.6133,91.4914,184.6873,85.034,183.5059Z"/><path class="cls-5" d="M26.0844,150.2833a75.0049,75.0049,0,0,0,10.438-12.8556c.65-1.0119,1.2433-2.4467.3969-3.3014a1.8517,1.8517,0,0,0-1.8121-.3571,5.4553,5.4553,0,0,0-1.6752.9541L24.9807,140.97a6.5524,6.5524,0,0,0-1.99,1.9709,4.4231,4.4231,0,0,0,.1172,3.9849A9.877,9.877,0,0,0,26.0844,150.2833Z"/><path class="cls-5" d="M43.758,127.1038l-13.63,4.8714a6.0511,6.0511,0,0,1-2.3484.5,1.8264,1.8264,0,0,1-1.3578-3.1872,6.0459,6.0459,0,0,1,1.6976-1.1886l13.0956-7.0812a2.7038,2.7038,0,0,1,2.0116-.4723c1.0666.3345,1.2708,1.771,1.0466,2.8662A11.0822,11.0822,0,0,0,43.758,127.1038Z"/><path class="cls-5" d="M11.3448,128.5042a67.2919,67.2919,0,0,0,17.2612-6.8656.9051.9051,0,0,0-.2929-1.6568,7.9756,7.9756,0,0,0-3.2011-.2359,47.058,47.058,0,0,1-4.9709.681c-1.85.007-3.7987-.5611-5.5113.0007A4.8705,4.8705,0,0,0,11.6333,123.7,13.0587,13.0587,0,0,0,11.3448,128.5042Z"/><path class="cls-5" d="M44.7912,134.5514l-11.26,12.2376c-.2679.2911-.5561.6723-.4194,1.0435.2072.5631,1.04.41,1.58.1471A109.0812,109.0812,0,0,0,48.37,140.046C47.2777,138.2459,46.1852,136.4457,44.7912,134.5514Z"/><path class="cls-5" d="M38.28,162.0594a63.1667,63.1667,0,0,0,8.9721-11.3718c.6-.9715,1.1065-2.4.21-3.1076-.8389-.6626-2.0427.012-2.8815.6748l-11.5053,9.0909a2.112,2.112,0,0,0-.9349,1.2327c-.1108.7947.6663,1.4008,1.35,1.8214C35.0581,161.3646,36.6256,162.3294,38.28,162.0594Z"/><path class="cls-5" d="M54.3221,145.8259l-6.1308,15.2916a1.7639,1.7639,0,0,0-.1592,1.3215,1.2007,1.2007,0,0,0,1.4974.5037,3.4963,3.4963,0,0,0,1.3433-1.076l8.6831-9.73a2.7613,2.7613,0,0,0,.9636-2.0071,2.4386,2.4386,0,0,0-1.0023-1.4715A21.0382,21.0382,0,0,0,54.3221,145.8259Z"/><path class="cls-5" d="M54.0692,174.0009a34.432,34.432,0,0,0,6.9183-13.9443,1.0863,1.0863,0,0,0-1.3361-1.2968,4.4929,4.4929,0,0,0-1.17.5223A10.9161,10.9161,0,0,0,56.32,161.248l-5.209,5.67a5.9241,5.9241,0,0,0-1.7414,2.825,3.9775,3.9775,0,0,0,1.1313,3.2406A3.2237,3.2237,0,0,0,54.0692,174.0009Z"/><path class="cls-5" d="M67.5455,152.6172l-5.8041,17.9946A1.1631,1.1631,0,0,0,63.4,171.9971l.02-.0113a5.3081,5.3081,0,0,0,1.5319-1.6225l8.1837-11.5874c.7594-1.0751,1.5632-2.2883.8066-3.7138a3.3247,3.3247,0,0,0-1.4159-1.3493C71.4948,153.1694,70.3929,153.0818,67.5455,152.6172Z"/><path class="cls-5" d="M72.9116,182.4923a33.5794,33.5794,0,0,0,2.3991-16.24,1.0486,1.0486,0,0,0-1.759-.6591c-4.02,3.7973-6.3134,9.1834-8.381,14.4071a1.037,1.037,0,0,0,.2,1.09A5.9787,5.9787,0,0,0,72.9116,182.4923Z"/><path class="cls-5" d="M81.2809,156.8325c-1.3155,6.3909-2.6378,12.8594-2.3669,19.3786.0338.8151.357,1.8854,1.172,1.85.5411-.0236.895-.5587,1.1536-1.0346a139.8845,139.8845,0,0,0,7.2535-15.5545,2.462,2.462,0,0,0,.1545-2.0929,2.7794,2.7794,0,0,0-1.2561-.8853C84.1306,156.81,81.2212,157.25,81.2809,156.8325Z"/><path class="cls-5" d="M89.6045,186.5041q1.2217-7.99,2.11-16.0269a5.4834,5.4834,0,0,0-.093-2.3987,1.8916,1.8916,0,0,0-1.7874-1.3641c-1.0526.088-1.6111,1.2558-1.9606,2.2526q-2.3087,6.5841-4.6174,13.1681a4.0671,4.0671,0,0,0-.3136,2.5154,3.3046,3.3046,0,0,0,2.8858,1.9016A18.4346,18.4346,0,0,0,89.6045,186.5041Z"/><path class="cls-5" d="M100.3684,164.6769a84.5155,84.5155,0,0,1,.9011,17.0412,3.7045,3.7045,0,0,1-.2909,1.5049,1.3,1.3,0,0,1-1.2274.7718c-.71-.0839-1.0733-.8749-1.3-1.5526q-2.5759-7.6809-4.6889-15.5069a4.5332,4.5332,0,0,1-.1719-2.6033,3.0975,3.0975,0,0,1,2.8279-1.8576C97.6139,162.41,98.7789,162.819,100.3684,164.6769Z"/><path class="cls-5" d="M42.0854,114.7506l-15.6329.0742a4.6383,4.6383,0,0,1-1.8207-.2354,1.58,1.58,0,0,1-1.0421-1.392c.0254-.9571,1.12-1.4622,2.0372-1.7366a158.2771,158.2771,0,0,1,17.2591-4.1262c1.2586-.2272,2.688-.4008,3.7.3818C45.0991,109.9392,43.6126,112.1621,42.0854,114.7506Z"/><path class="cls-1" d="M85.034,183.5059c-21.5878-3.95-35.8193-13.1408-51.187-28.8081-8.4055-8.5693-17.1045-20.2552-18.83-32.1341s.2116-23.65,10.79-29.323c3.83-2.0539,8.4666-3.0127,12.5646-1.5666s7.311,5.7353,6.6032,10.0229c-.3712,2.2489-1.6957,4.202-2.7408,6.2276a28.66,28.66,0,0,0-.65,24.1516c3.3009,7.6393,9.1521,15.1227,16.9242,18.0976,6.7288,2.5756,12.4851,6.5877,26.3842,7.46,24.744,1.5523,55.025,19.8884,55.025,19.8884s-5.05,2.1124-9.9088,3.7649C106.2831,186.6133,91.4914,184.6873,85.034,183.5059Z"/><path class="cls-4" d="M116.8031,145.6172a44.648,44.648,0,0,0-28.8291-30.215c-4.0982-1.3235-8.5214-2.0356-12.717-1.064-4.9387,1.1436-9.0915,4.5083-12.5825,8.4885a31.0308,31.0308,0,0,0-6.8777-15.5476c-1.74-2.0836-4.27-4.0863-6.9046-3.4323a5.63,5.63,0,0,0-3.7686,4.3173,16.5751,16.5751,0,0,0,.0692,5.9937l3.7749,28.1908c.2189,1.6354.5681,4.6618,1.5314,6.0014,1.1739,1.6324,3.1433,1.1094,5.1514,1.2122.78.04,12.2329,1.6763,14.305,3.9781,5.4106,6.01,8.3461,12.2291,15.2142,16.6644,17.231,11.1274,40.7684,13.23,47.8347,10.0193,4.47-2.0312-11.88-15.9187-12.0164-20.8271S118.0538,150.218,116.8031,145.6172Z"/><path class="cls-5" d="M67.468,117.8234l3.9438,19.3973a.726.726,0,0,0,1.3214.2508,7.7022,7.7022,0,0,0,.8968-2.95,125.4765,125.4765,0,0,0,1.2557-21.3244A10.2,10.2,0,0,0,67.468,117.8234Z"/><path class="cls-5" d="M80.2675,113.1676a210.3523,210.3523,0,0,0-.96,21.4661.6449.6449,0,0,0,1.2377.2479l7.3326-17.1424a3.5072,3.5072,0,0,0,.4157-2.1208c-.2419-1.0332-1.3322-1.6066-2.3342-1.9557A9.52,9.52,0,0,0,80.2675,113.1676Z"/><path class="cls-5" d="M91.8927,115.1833a123.6287,123.6287,0,0,0-4.9941,20.3247,2.2829,2.2829,0,0,0,.2456,1.851,1.5589,1.5589,0,0,0,1.956.1459,4.5483,4.5483,0,0,0,1.3667-1.6156l8.87-14.6371a2.27,2.27,0,0,0,.4756-1.527,2.16,2.16,0,0,0-1.0515-1.2461A28.3882,28.3882,0,0,0,91.8927,115.1833Z"/><path class="cls-1" d="M116.8031,145.6172a44.648,44.648,0,0,0-28.8291-30.215c-4.0982-1.3235-8.5214-2.0356-12.717-1.064-4.9387,1.1436-9.0915,4.5083-12.5825,8.4885a31.0308,31.0308,0,0,0-6.8777-15.5476c-1.74-2.0836-4.27-4.0863-6.9046-3.4323a5.63,5.63,0,0,0-3.7686,4.3173,16.5751,16.5751,0,0,0,.0692,5.9937l3.7749,28.1908c.2189,1.6354.5681,4.6618,1.5314,6.0014,1.1739,1.6324,3.1433,1.1094,5.1514,1.2122.78.04,12.2329,1.6763,14.305,3.9781,5.4106,6.01,8.3461,12.2291,15.2142,16.6644,17.231,11.1274,40.7684,13.23,47.8347,10.0193,4.47-2.0312-11.88-15.9187-12.0164-20.8271S118.0538,150.218,116.8031,145.6172Z"/><path class="cls-4" d="M166.4119,136.14a43.8125,43.8125,0,0,0-5.63-19.1491,28.6551,28.6551,0,0,0-15.0917-12.69c-6.3651-2.1329-13.7956-1.3787-19.2011,2.6018-4.88,3.5935-7.6838,9.28-10.3067,14.7437-1.0514-2.6632-1.1839-5.5865-1.7817-8.3866s-1.84-5.7-4.3239-7.124c-3.2626-1.87-7.6394-.4352-10.1659,2.35s-3.5906,6.5767-4.3392,10.2619a88.894,88.894,0,0,0-1.2175,27.5991c.81,7.1849,2.5439,14.3749,6.1526,20.64s9.2464,11.558,16.14,13.7388c9.33,2.9516,24.0708-2.943,29.7429-6.3711,6.6866-4.0414,11.3824-7.4555,15.7713-13.9192S167.1862,146.33,166.4119,136.14Z"/><path class="cls-5" d="M157.8433,112.6467a60.8081,60.8081,0,0,1-1.9264,20.8944c-.2608.9583-.7637,2.0957-1.755,2.1568a1.8906,1.8906,0,0,1-1.5283-.8772,7.7376,7.7376,0,0,1-1.0824-4.3526l-1.1073-23.9731A25.5934,25.5934,0,0,1,157.8433,112.6467Z"/><path class="cls-5" d="M147.0952,104.9281q.0831,9.8823-.0617,19.7646a70.0384,70.0384,0,0,1-.7589,10.9572,2.7731,2.7731,0,0,1-1.04,2.0415,1.95,1.95,0,0,1-2.3636-.6267,5.69,5.69,0,0,1-.9587-2.456q-2.8142-12.8571-5.6282-25.7141a11.51,11.51,0,0,1-.3964-3.8466,2.4143,2.4143,0,0,1,.8427-1.7188,2.82,2.82,0,0,1,1.6827-.3662A21.6944,21.6944,0,0,1,147.0952,104.9281Z"/><path class="cls-5" d="M129.7783,104.6518a252.84,252.84,0,0,1,7.4939,24.5025,5.8838,5.8838,0,0,1,.2164,2.9634,2.0532,2.0532,0,0,1-2.2018,1.6026c-.7866-.1745-1.2843-.9292-1.6943-1.6228a228.8534,228.8534,0,0,1-11.1861-21.4336A21.0322,21.0322,0,0,1,129.7783,104.6518Z"/><path class="cls-1" d="M166.4119,136.14a43.8125,43.8125,0,0,0-5.63-19.1491,28.6551,28.6551,0,0,0-15.0917-12.69c-6.3651-2.1329-13.7956-1.3787-19.2011,2.6018-4.88,3.5935-7.6838,9.28-10.3067,14.7437-1.0514-2.6632-1.1839-5.5865-1.7817-8.3866s-1.84-5.7-4.3239-7.124c-3.2626-1.87-7.6394-.4352-10.1659,2.35s-3.5906,6.5767-4.3392,10.2619a88.894,88.894,0,0,0-1.2175,27.5991c.81,7.1849,2.5439,14.3749,6.1526,20.64s9.2464,11.558,16.14,13.7388c9.33,2.9516,24.0708-2.943,29.7429-6.3711,6.6866-4.0414,11.3824-7.4555,15.7713-13.9192S167.1862,146.33,166.4119,136.14Z"/><path class="cls-10" d="M126.3553,181.5679a24.4678,24.4678,0,0,1-19.33-6.465c-5.8725-5.6711-9.3647-12.873-11.2519-20.8157-3.0965-13.0318-3.0869-27.221.9412-39.9957,1.1662-3.6985,3.5636-7.4213,7.2775-8.5373,3.8055-1.1435,7.2084,1.044,9.0658,4.5568s2.3137,7.6448,3.0254,12.1031c2.3858-6.4681,5.9469-12.9,11.8477-16.4645a21.5548,21.5548,0,0,1,16.118-2.2373,26.994,26.994,0,0,1,13.8684,8.8059,36.2358,36.2358,0,0,1,7.376,14.8135"/></g></g></svg>