<svg xmlns="http://www.w3.org/2000/svg" xmlns:xlink="http://www.w3.org/1999/xlink" viewBox="0 0 200 200"><defs><style>.cls-1{fill:none;}.cls-2{fill:#9fc6fb;}.cls-3{clip-path:url(#clip-path);}.cls-4{fill:#79b0fa;}.cls-5{fill:#4b4f4f;}.cls-6{fill:#656a6b;}.cls-7{fill:#e9f1f4;}.cls-8{fill:#fff;}.cls-9{fill:#593e39;}.cls-10{fill:#30211f;}.cls-11{fill:#e5cac6;}.cls-12{fill:#797f7f;}</style><clipPath id="clip-path"><rect class="cls-1" width="200" height="200.1186"/></clipPath></defs><g id="Fondos"><rect class="cls-2" y="-0.1186" width="200" height="200.2372"/></g><g id="Gatos"><g class="cls-3"><path class="cls-4" d="M192.6,162.0651c0,2.1806-36.8121,3.9482-82.2219,3.9482s-82.2219-1.7676-82.2219-3.9482,36.812-3.9484,82.2219-3.9484S192.6,159.8845,192.6,162.0651Z"/><path class="cls-5" d="M143.7414,118.7471a23.7617,23.7617,0,0,0,3.1767,15.0807,34.2073,34.2073,0,0,0,10.8492,11.1568c3.5774,2.375,7.609,4.3166,10.2085,7.7342a13.4606,13.4606,0,0,1,2.6616,6.7465,7.79,7.79,0,0,0,.3892,2.2526,1.9185,1.9185,0,0,0,1.7283,1.283c.7639-.0435,1.3879-1.019.9243-1.628.2176.49-.0379,1.38.6525,1.4684a1.7469,1.7469,0,0,0,1.4111-2.0574c.1324.3781-.2283,1.2527.3974,1.134,1.63-.5259,2.27-2.4519,2.6377-4.125a105.4786,105.4786,0,0,0,.9982-40.031,34.2611,34.2611,0,0,0-3.167-10.5394,14.71,14.71,0,0,0-7.9871-7.2531c-3.7965-1.26-8.0577-.3976-11.56,1.5356C151.1016,104.7957,144.74,111.8093,143.7414,118.7471Z"/><path class="cls-5" d="M32.6907,142.009a14.8751,14.8751,0,0,0,2.4241,6.3866,2.4661,2.4661,0,0,0,1.3592,1.1064c.5842.1285,1.3077-.311,1.2394-.9052a1.2245,1.2245,0,0,0,1.3948.6218c.7986-.289.2449-.7665.2691-1.1668-.0793.6211.9623.8246,1.3494.3325a1.9956,1.9956,0,0,0,.0837-1.8018c-.6272-2.0592-1.7639-4.22-1.0206-6.24a5.906,5.906,0,0,1,2.8927-2.8969,15.13,15.13,0,0,1,6.91-1.8509c2.7008-.0591,5.5131.5927,8.04-.3626,3.3405-1.263,5.1708-5.2779,4.4654-8.7785a10.8552,10.8552,0,0,0-6.8917-7.61c-2.8053-1.0751-7.8134-1.7861-10.5547-.1791a30.5623,30.5623,0,0,0-6.5388,5.8461A22.1139,22.1139,0,0,0,32.6907,142.009Z"/><path class="cls-6" d="M36.5087,97.1022c.5754,7.3549,1.1819,14.846,3.96,21.6806a38.2732,38.2732,0,0,0,23.1491,21.4108c5.7714,1.929,11.8945,2.5056,17.9576,3.0239,22.7244,1.9428,45.7315,3.2389,68.2387-.45,5.1436-.843,10.477-2.0538,14.4579-5.4183,3.85-3.2539,5.9307-8.0969,7.6808-12.824a48.0086,48.0086,0,0,0,3.3946-13.6789c.4058-6.8348-1.7477-13.5964-4.7512-19.7491a32.33,32.33,0,0,0-5.6162-8.5094c-6.2548-6.43-15.85-8.1107-24.7973-8.7551-12.7376-.9176-25.5732-.424-38.2483-1.9825a41.5476,41.5476,0,0,1-13.4169-3.4814c-3.7833-1.8672-7.04-4.6583-10.757-6.6542-9.1862-4.9329-20.2257-4.5826-30.6-3.5406-4.4357.4454-11.3794,2.0815-12.706,7.1615-.6576,2.5184.0046,5.558.2029,8.0911q.4386,5.6073.8773,11.2146Q36.0214,90.8719,36.5087,97.1022Z"/><path class="cls-6" d="M141.0215,107.9771a23.7606,23.7606,0,0,0-6.0233,14.1858,34.2052,34.2052,0,0,0,2.5143,15.3578c1.575,3.9943,3.7706,7.8937,3.9471,12.1839a13.4612,13.4612,0,0,1-1.6773,7.056,7.7921,7.7921,0,0,0-.97,2.07,1.9181,1.9181,0,0,0,.6834,2.041c.6514.4018,1.7213-.0413,1.6895-.806-.1017.526-.8584,1.2366-.305,1.5774a1.7469,1.7469,0,0,0,2.3345-.88c-.1077.3857-.7694.8332-.3229,1.1573,1.6378.5015,3.2645-.7123,4.5234-1.8739a105.4814,105.4814,0,0,0,23.723-32.26,34.259,34.259,0,0,0,3.4329-10.456,14.7107,14.7107,0,0,0-2.4-10.5184c-2.3929-3.2053-6.381-4.9366-10.3591-5.3547C155.04,100.7463,145.81,102.8586,141.0215,107.9771Z"/><path class="cls-6" d="M68.5516,160.6209a2.9662,2.9662,0,0,0,1.5379,1.3863c.6846.1745,1.5567-.4545,1.3135-1.1177a1.7719,1.7719,0,0,0,1.7193,1.033c.7919-.3969.6955-.7821.574-1.3718-.0379.76,1.2783.8378,1.6393.1682a2.5316,2.5316,0,0,0-.2541-2.1825c-1.6119-3.554-3.5612-7.1668-3.459-11.0678a58.21,58.21,0,0,1,1.0108-6.279,17.6038,17.6038,0,0,0-15.1394-19.8374c-5.3276-.7028-12.5532,2.6174-9.19,8.7864,3.6871,6.763,8.5739,13.1127,12.8559,19.5147Q64.8364,155.15,68.5516,160.6209Z"/><path class="cls-6" d="M168.2829,82.6438a15.4441,15.4441,0,0,0,6.2907-2.0488c5.3955-3.4259,6.4829-10.6792,9.5672-16.2771,4.0078-7.2739,11.8218-11.9423,19.9731-13.5324s16.6225-.4033,24.6181,1.8426c3.41.958,6.9216,2.2049,9.3082,4.822s3.2,6.9872.8922,9.6744c-2.5176,2.932-7.0876,2.5222-10.895,1.86L218.2968,67.29c-3.8484-.6693-7.9306-1.3177-11.5607.1248-5.8917,2.3413-8.3864,9.0875-11.5724,14.5687a42.28,42.28,0,0,1-23.9973,18.9973c-4.16,1.2637-8.6668,1.8641-12.8422.6545s-7.9264-4.5249-8.7115-8.8006C147.2943,80.2112,161.5569,83.5382,168.2829,82.6438Z"/><path class="cls-5" d="M88.2763,68.1432A48.13,48.13,0,0,1,50.2177,84.2718a28.6522,28.6522,0,0,0,9.412,1.8041,63.1092,63.1092,0,0,0,25.1077-3.8994C90.5285,80.0249,96.9,76.8021,100.284,71.6337c-4.48-1.1009-8.32-1.5668-11.85-3.6627Z"/><path class="cls-6" d="M34.0506,66.036c-.3879-4.6368-.67-9.4886,1.172-13.7616,2.3113-5.362,7.5968-8.8724,13.0319-11.0063a45.231,45.231,0,0,1,13.9877-3.0526,30.664,30.664,0,0,1,7.099.3427A25.1579,25.1579,0,0,1,83.43,46.5559a29.6205,29.6205,0,0,1,6.9872,14.71c.688,3.9689.5595,8.3-1.6031,11.6978a19.8042,19.8042,0,0,1-5.6379,5.2928,45.1475,45.1475,0,0,1-8.7914,5.0021c-6.7117,2.7155-14.1991,2.8434-21.3994,2.0833-5.6182-.5933-11.6926-2.0021-15.1525-6.4682C35.04,75.2679,34.42,70.4542,34.0506,66.036Z"/><path class="cls-6" d="M36.34,39.2154a1.3381,1.3381,0,0,1,.532-.9711,1.2407,1.2407,0,0,1,.7587-.0634c2.7667.3957,5.1209,2.1492,7.3424,3.8454a9.8989,9.8989,0,0,1,3.0066,3.09c2.8239,5.4623-6.2167,17.2592-11.14,16.8316C30.5688,61.403,35.5326,43.0245,36.34,39.2154Z"/><path class="cls-6" d="M76.6428,34.5176a1.3382,1.3382,0,0,1,.9729-.5285,1.24,1.24,0,0,1,.6722.3574c2.1123,1.83,8.3483,14.9123,8.211,16.3554-.5825,6.1213-12.9509,1.7354-16.86-1.29C64.6619,45.56,73.902,37.2835,76.6428,34.5176Z"/><path class="cls-7" d="M57.73,55.324a4.8937,4.8937,0,0,1-8.9988,3.553A4.8934,4.8934,0,1,0,57.73,55.324Z"/><path class="cls-8" d="M58.456,57.9484a4.8929,4.8929,0,1,1-4.8929-4.8929A4.8928,4.8928,0,0,1,58.456,57.9484Z"/><path class="cls-5" d="M53.5631,63.0017a5.0534,5.0534,0,1,1,5.0533-5.0534A5.0591,5.0591,0,0,1,53.5631,63.0017Zm0-9.7858a4.7325,4.7325,0,1,0,4.7325,4.7324A4.7378,4.7378,0,0,0,53.5631,53.2159Z"/><path class="cls-9" d="M57.0662,58.1426a3.202,3.202,0,1,1-3.2019-3.2019A3.202,3.202,0,0,1,57.0662,58.1426Z"/><path class="cls-10" d="M53.9318,60.9947a11.12,11.12,0,0,0,.7646-2.939,5.2311,5.2311,0,0,0-.525-2.9568c.0155.0012-.3126.3218-.3338.35a2.2242,2.2242,0,0,0-.2419.7667,8.08,8.08,0,0,0-.1,3.22,7.9208,7.9208,0,0,0,.1857.82C53.718,60.3838,53.9728,60.8875,53.9318,60.9947Z"/><path class="cls-8" d="M51.2044,58.32a.8511.8511,0,0,0,.0989.3033.3574.3574,0,0,0,.254.1777.386.386,0,0,0,.3649-.2558,1.5474,1.5474,0,0,0,.08-.4685,2.805,2.805,0,0,1,.4-1.2005c.3753-.6119-.5426-.4779-.7866-.1395A2.1329,2.1329,0,0,0,51.2044,58.32Z"/><path class="cls-8" d="M52.81,56.254a.4462.4462,0,0,0,.349-.1173,1.0445,1.0445,0,0,0,.2233-.3047c.0314-.0585.0586-.1377.0123-.1853a.142.142,0,0,0-.0622-.0324.76.76,0,0,0-.7043.1942A.2748.2748,0,0,0,52.81,56.254Z"/><path class="cls-7" d="M81.5136,50.0705a4.8937,4.8937,0,0,1-8.9988,3.5531,4.8934,4.8934,0,1,0,8.9988-3.5531Z"/><path class="cls-8" d="M82.24,52.6948a4.8929,4.8929,0,1,1-4.8929-4.8928A4.8929,4.8929,0,0,1,82.24,52.6948Z"/><path class="cls-5" d="M77.3467,57.7482A5.0534,5.0534,0,1,1,82.4,52.6948,5.0591,5.0591,0,0,1,77.3467,57.7482Zm0-9.7858a4.7325,4.7325,0,1,0,4.7324,4.7324A4.7378,4.7378,0,0,0,77.3467,47.9624Z"/><path class="cls-9" d="M80.85,52.8892a3.2019,3.2019,0,1,1-3.2018-3.202A3.202,3.202,0,0,1,80.85,52.8892Z"/><path class="cls-10" d="M77.7154,55.7412a11.1281,11.1281,0,0,0,.7646-2.9389,5.23,5.23,0,0,0-.525-2.9567c.0154.001-.3127.3216-.3338.35a2.2234,2.2234,0,0,0-.2419.7668,8.079,8.079,0,0,0-.1,3.22,7.9145,7.9145,0,0,0,.1856.82C77.5015,55.13,77.7564,55.6341,77.7154,55.7412Z"/><path class="cls-8" d="M74.9879,53.0661a.8533.8533,0,0,0,.099.3033.3569.3569,0,0,0,.254.1778.3856.3856,0,0,0,.3647-.2559,1.5377,1.5377,0,0,0,.08-.4685,2.8071,2.8071,0,0,1,.4-1.2c.3753-.6119-.5427-.4779-.7866-.14A2.1334,2.1334,0,0,0,74.9879,53.0661Z"/><path class="cls-8" d="M76.5938,51.0005a.4456.4456,0,0,0,.3489-.1173,1.0456,1.0456,0,0,0,.2234-.3046c.0314-.0586.0586-.1378.0122-.1852a.1418.1418,0,0,0-.0622-.0326.76.76,0,0,0-.7042.1942A.2748.2748,0,0,0,76.5938,51.0005Z"/><path class="cls-11" d="M38.007,42.0194a.85.85,0,0,1,.1842-.3742.6624.6624,0,0,1,.3935-.1627,2.5464,2.5464,0,0,1,1.5464.4653,12.1154,12.1154,0,0,1,2.8209,2.2937q-1.4376,1.21-2.8262,2.4768a8.4874,8.4874,0,0,0-3.08,4.6806c-.647-1.167-.1976-3.1552-.0523-4.4172A29.1759,29.1759,0,0,1,38.007,42.0194Z"/><path class="cls-11" d="M76.2906,37.5942a2.0449,2.0449,0,0,1,.6576-.4923,1.45,1.45,0,0,1,1.2963.1933,3.7536,3.7536,0,0,1,.936.979,20.0717,20.0717,0,0,1,3.5764,8.5395c-3.1417-1.7749-5.5733-4.7048-8.8872-6.1325C74.7493,39.7137,75.3437,38.5422,76.2906,37.5942Z"/><path class="cls-11" d="M66.3726,57.9247a1.1807,1.1807,0,0,0-.7311.6631,1.1946,1.1946,0,0,0,.0394.757,3.7445,3.7445,0,0,0,1.5473,1.7809A16.5063,16.5063,0,0,1,69.2013,62.49a15.0818,15.0818,0,0,0,1.9516-2.1565,3.4869,3.4869,0,0,0,.5957-1.0719,1.6329,1.6329,0,0,0-.0891-1.2907,1.9041,1.9041,0,0,0-2.3491-.4284,2.0325,2.0325,0,0,0-.801.7155A2.1979,2.1979,0,0,0,66.3726,57.9247Z"/><path class="cls-11" d="M74.4335,66.7287a.1754.1754,0,0,0-.225-.0923,4.0017,4.0017,0,0,1-2.99-.0965,3.6147,3.6147,0,0,1-1.7752-2.6237c-.0161-.079-.03-.1584-.0436-.2378.0028-.0419.0059-.0837.0083-.1255a12.1821,12.1821,0,0,0-.1064-2.4454.172.172,0,0,0-.3411.0436c.0179.1227.0332.2458.0473.3691a.1824.1824,0,0,0-.1022.1789,15.0676,15.0676,0,0,0,.1509,1.984,11.3457,11.3457,0,0,1-.2282,1.6119,2.9655,2.9655,0,0,1-.3158.8861,3.0571,3.0571,0,0,1-.59.6883,5.8213,5.8213,0,0,1-3.5937,1.5.1719.1719,0,0,0,.0436.341,6.1578,6.1578,0,0,0,3.5949-1.4238,4.27,4.27,0,0,0,.6948-.7125,2.7338,2.7338,0,0,0,.4234-.8949,8.144,8.144,0,0,0,.2114-1.0077,4.6048,4.6048,0,0,0,.3974.8765,3.3619,3.3619,0,0,0,1.2311,1.2252,3.6074,3.6074,0,0,0,1.5547.4381,4.949,4.949,0,0,0,1.861-.2571A.1737.1737,0,0,0,74.4335,66.7287Z"/><path class="cls-12" d="M93.5188,116.375a7.5485,7.5485,0,0,0,2.9327-2.3685c6.2327-7.4228,7.9357-17.5278,9.4089-27.1077.615-3.9992,1.2315-8.0578.7538-12.0756-.1-.84-.2459-1.6908-.2706-2.5325q-2.0313-.181-4.058-.4227a9.54,9.54,0,0,1,.455,1.1414c1.6578,6.4417-.1315,14.5064-2.8113,20.4383-2.7707,6.1326-7.1953,11.4188-9.84,17.6066-.6409,1.5-1.1227,3.3868-.076,4.6374A3.1647,3.1647,0,0,0,93.5188,116.375Z"/><path class="cls-12" d="M153.8016,76.0781a6.306,6.306,0,0,1-.2515,5.33c-2.9909,5.2974-6.07,10.9259-5.9569,17.0085.0665,3.5852,1.25,7.0449,1.8552,10.5794a33.0848,33.0848,0,0,1,.2006,9.8191,9.7222,9.7222,0,0,0-.0468,3.95,2.7957,2.7957,0,0,0,2.9062,2.17,3.225,3.225,0,0,0,2.1434-2.228c.8721-2.339.57-4.9262.3669-7.4143a83.6843,83.6843,0,0,1,2.11-26.6116,20.7165,20.7165,0,0,1,1.738-4.9849,41.1785,41.1785,0,0,1,2.735-3.9744A28.9761,28.9761,0,0,0,153.8016,76.0781Z"/><path class="cls-12" d="M119.5244,93.6887c.5737-1.9932,1.7991-3.7635,2.2692-5.7836a19.8568,19.8568,0,0,0,.173-5.2008,44.6477,44.6477,0,0,1,.7032-9.5972c-3.5357-.0973-7.07-.2088-10.5969-.4063.2757,4.87-2.2114,9.7243-1.66,14.6142.3187,2.8284,1.63,5.4326,2.5258,8.1344a28.5286,28.5286,0,0,1,.5206,16.0741c-1.3771,5.2758-4.2864,10.2321-4.407,15.6832-.0309,1.3975,1.9844,2.0373,3.1721,1.3s1.6842-2.1866,2.0961-3.5225q1.6179-5.2461,3.2356-10.4922a34.9971,34.9971,0,0,0,2.0312-9.9014C119.6181,100.9374,118.5139,97.2,119.5244,93.6887Z"/><path class="cls-12" d="M140.2117,73.8127c-2.3476-.1691-4.6986-.29-7.0515-.385-.0455.2976-.1116.5943-.1794.8854a99.5463,99.5463,0,0,1-3.2038,10.9135c-1.1732,3.288-2.5424,6.7474-1.8375,10.1664.5859,2.8413,2.5623,5.3158,2.7807,8.2086.1948,2.5817-1.0327,5.2993-.039,7.69.2241.5391.68,1.0968,1.26,1.0331a1.4115,1.4115,0,0,0,.8354-.5237c1.7915-1.9692,1.8206-4.9545,1.4121-7.5851s-1.1488-5.3191-.5354-7.9095c.7426-3.1359,3.3014-5.4648,4.9486-8.2346a15.3422,15.3422,0,0,0,2.1415-7.9788c-.0249-2.053-.3645-4.38.2585-6.22Q140.6065,73.841,140.2117,73.8127Z"/><path class="cls-12" d="M192.0878,86.5294a21.801,21.801,0,0,0-6.3447-6.0942,34.6653,34.6653,0,0,1-6.4466-5.2786,17.2651,17.2651,0,0,1-2.2174,3.2725,8.9247,8.9247,0,0,0,1.6368,1.5811c1.8972,1.4175,4.1732,2.2882,5.9832,3.8157a22.1766,22.1766,0,0,1,4.4678,6.0729A42.0431,42.0431,0,0,0,192.0878,86.5294Z"/><path class="cls-12" d="M203.9525,66.33a51.4861,51.4861,0,0,1-4.5491-10.3008,18.9283,18.9283,0,0,1-.8215-3.6611,31.55,31.55,0,0,0-5.6349,2.8134c.3955,1.105.7136,2.2821,1.1253,3.3308,1.6963,4.3212,5.8473,7.3283,7.5021,11.6655.0947.2486.1966.5124.31.7722a13.8444,13.8444,0,0,1,3.1044-2.6563A18.4265,18.4265,0,0,0,203.9525,66.33Z"/><path class="cls-12" d="M198.3571,76.1352c-.1773-.0695-.3562-.1357-.5328-.2031A22.6076,22.6076,0,0,1,184.7333,63.31c-.2048.33-.4042.6643-.5925,1.0061a45.0958,45.0958,0,0,0-2.214,4.8589,72.0257,72.0257,0,0,1,5.5649,5.899c1.9323,2.2954,3.9789,4.8761,6.9223,5.4591a11.5317,11.5317,0,0,0,1.4721.1674C196.7107,79.2018,197.5091,77.6452,198.3571,76.1352Z"/><path class="cls-12" d="M55.6309,48.0388a1.0076,1.0076,0,0,0,.6239.3927.7385.7385,0,0,0,.71-.6014,1.7443,1.7443,0,0,0-.1323-.99c-.884-2.3792-3.2237-4.1-3.7073-6.5916a2.8483,2.8483,0,0,1-.0528-.5413q-2.1528.5805-4.2412,1.3715a7.3954,7.3954,0,0,0,.9856.3676A6.3585,6.3585,0,0,1,52.0853,42.82a9.8,9.8,0,0,1,1.82,2.3841A15.3515,15.3515,0,0,0,55.6309,48.0388Z"/><path class="cls-12" d="M61.5707,51.3666c.28.4764.7827.9278,1.3211.8039.5885-.1355.8171-.8428.8978-1.4413a12.66,12.66,0,0,0-1.7478-8.2487,18.4022,18.4022,0,0,1-2.1927-3.7391c-.033-.1013-.0622-.2048-.0866-.3091q-1.9872.225-3.9491.6262l.0371.0289A13.4646,13.4646,0,0,1,58.8984,42.02c1.4028,2.0789,1.531,4.7249,1.9789,7.1924A6.4817,6.4817,0,0,0,61.5707,51.3666Z"/><path class="cls-12" d="M63.09,38.18a8.7836,8.7836,0,0,1,1.8167,1.961c.6446.9964.9981,2.1552,1.6071,3.1737a2.6973,2.6973,0,0,0,1.2252,1.1982,1.2233,1.2233,0,0,0,1.5236-.4546,1.371,1.371,0,0,0-.1393-1.2816c-.2271-.3865-.5544-.7038-.8144-1.0692a22.6485,22.6485,0,0,1-1.2921-2.8151,5.43,5.43,0,0,0-.4188-.6727A33.8927,33.8927,0,0,0,63.09,38.18Z"/></g></g></svg>