<svg xmlns="http://www.w3.org/2000/svg" viewBox="0 0 200 200"><defs><style>.cls-1{fill:#9fc6fb;}.cls-2{fill:#79b0fa;}.cls-3{fill:#2d4934;}.cls-4{fill:#eacea4;}.cls-5{fill:#3e664a;}.cls-6{fill:#876249;}.cls-7{fill:#6d503c;}.cls-8{fill:#ad7f60;}.cls-9{fill:#8e6950;}.cls-10{fill:#ffe0b6;}.cls-11{fill:#dbc09c;}.cls-12{fill:none;}.cls-13{fill:#fff;}.cls-14{fill:#291806;}</style></defs><g id="Fondos"><rect class="cls-1" width="200" height="200.2372"/></g><g id="Gatos"><path class="cls-2" d="M136.5307,193.1921c0,2.6325-13.7921,4.7664-30.8052,4.7664S74.92,195.8246,74.92,193.1921s13.7921-4.7663,30.8052-4.7663S136.5307,190.56,136.5307,193.1921Z"/><path class="cls-3" d="M121.8063,54.1774a11.8215,11.8215,0,0,1,16.2149-12.691,7.6785,7.6785,0,0,1,8.387-2.8233c2.9694,1.0743,4.7927,4.8749,3.3319,7.6746,1.7754.0992,2.6274,2.2238,2.8314,3.99.8854,7.6748-2.4918,15.2422-6.8635,21.612a69.6217,69.6217,0,0,1-25.136,22.2518c-2.9374,1.5288-6.8865,2.7153-9.2584.4048-5.1394-5.006,1.2533-15.657,1.0312-21.878C112.1033,65.9485,112.4223,54.5344,121.8063,54.1774Z"/><path class="cls-3" d="M40.68,60.4269a21.5012,21.5012,0,0,1-2.8475-5.6961,7.2627,7.2627,0,0,1,.8139-6.127,24.9444,24.9444,0,0,1-6.8224-5.9744,10.2814,10.2814,0,0,1-1.905-8.6055c.8345-2.9236,3.7871-5.2953,6.7963-4.861-1.2943-2.6232-.5568-6.2259,1.9325-7.7621s6.3778-.2278,7.0564,2.6175a9.2,9.2,0,0,1,14.9264,4.3241,20.005,20.005,0,0,1,16.8737,6.3529,26.7341,26.7341,0,0,1,6.8166,17.028,10.45,10.45,0,0,0,.8449,4.7131,11.284,11.284,0,0,0,2.3828,2.5606c6.7117,6.1832,8.8435,15.9182,9.0822,25.0409.207,7.9075-.8626,16.1782-5.2711,22.7457s-12.8313,10.904-20.4087,8.6337c-4.8347-1.4486-8.6561-5.3068-11.1433-9.6986s-3.8113-9.3291-5.1111-14.206c-1.4336-5.3778-2.1852-12.162-4.8561-17.0274C47.2108,69.6943,43.6022,65.1013,40.68,60.4269Z"/><path class="cls-4" d="M100.0461,33.5507a55.7634,55.7634,0,0,1,9.6278-11.5624A27.9836,27.9836,0,0,1,118.34,35.5046c1.5162,4.9518,1.9278,10.0633,2.3319,15.1457a18.851,18.851,0,0,1-.3289,7.0465,8.6669,8.6669,0,0,1-5.1481,5.5859,12.2058,12.2058,0,0,1-8.8967-.4033,15.2006,15.2006,0,0,1-6.2277-5.184C94.71,50.2734,95.59,41.1041,100.0461,33.5507Z"/><path class="cls-4" d="M60.3585,28.9848a25.6946,25.6946,0,0,1,10.2027,5.0993,26.5876,26.5876,0,0,1,6.593,6.8012,11.28,11.28,0,0,1,1.7269,8.4666,14.54,14.54,0,0,1-3.5273,6.0931A22.375,22.375,0,0,1,67.6989,61.1c-1.87.82-6.7331,2.657-8.2631.7212-.9143-1.1569-.7862-3.6756-.9773-5.03q-.3723-2.635-.5343-5.2866a67.5346,67.5346,0,0,1,2.4343-22.52Z"/><path class="cls-4" d="M63.6528,90.628c.0842,9.6689,2.6422,19.1929,6.3863,28.1078A55.3789,55.3789,0,0,0,77.0473,131.35a37.2344,37.2344,0,0,0,10.7314,9.38,24.28,24.28,0,0,0,6.5889,2.7425c8.107,1.8941,16.751-2.1959,22.1675-8.518s8.1035-14.5269,9.835-22.67c2.1528-10.1259,3.0043-20.7651.3224-30.7639s-9.3237-19.3015-18.8685-23.31a38.6073,38.6073,0,0,0-10.222-2.5242,36.4394,36.4394,0,0,0-14.8983.7917c-4.6887,1.4009-9.2412,4.3716-11.6173,8.7561a5.4621,5.4621,0,0,0-.1575-.6415C65.1927,70.9718,63.5813,82.3967,63.6528,90.628Z"/><path class="cls-4" d="M66.0349,44.4a23.953,23.953,0,0,0-5.234,6.3559c-4.1792,7.79-1.4777,18.0214,4.7432,24.3027s15.2115,9.12,24.02,9.8724c8.0053.6835,16.6472-.3882,22.8362-5.5114,5.6861-4.7069,8.4646-12.2416,8.8373-19.6138.3528-6.9765-1.5129-14.4687-6.7427-19.1-3.9038-3.4572-9.1849-4.92-14.3526-5.6172C87.58,33.3927,75.656,35.7547,66.0349,44.4Z"/><path class="cls-3" d="M180.3061,77.5857c2.0578.7115,4.1372,1.8391,5.1284,3.7776s.3394,4.8-1.7276,5.4835c4.929-1.06,10.1639,3.73,9.5457,8.7336s-6.8623,8.3745-11.385,6.1467a3.866,3.866,0,0,1-.8831,4.7156,8.1223,8.1223,0,0,1-4.7767,1.8374,19.0445,19.0445,0,0,1-9.1327-1.285c.2445,3.0724-2.3625,5.7885-5.2958,6.7345s-6.11.5433-9.1641.1312c.6487,2.82-1.4946,5.6787-4.1423,6.8449s-5.6584,1.0548-8.5487.9223c.2486,6.0612-3.75,11.7224-8.9436,14.8572s-11.4041,4.1164-17.4643,4.3877a5.7485,5.7485,0,0,1-3.5-.614,5.1279,5.1279,0,0,1-1.6328-2.1859c-2.9285-6.2768-2.1716-13.7773.4627-20.1832s6.9723-11.94,11.273-17.37c6.602-8.3348,13.92-17.1009,24.1579-19.9722,5.81-1.63,11.97-1.2806,17.8642-2.55C168.2176,76.689,174.2289,75.4844,180.3061,77.5857Z"/><path class="cls-5" d="M105.0864,100.9867a39.9445,39.9445,0,0,0,3.0745-4.26c1.2957-2.35,1.714-5.0675,2.54-7.6211A24.8744,24.8744,0,0,1,124.0021,74.266a10.3008,10.3008,0,0,0,3.61-2.117,10.3631,10.3631,0,0,0,1.53-2.7256,24.0976,24.0976,0,0,1,19.9979-13.6589,14.7653,14.7653,0,0,0,3.0929-.3376,15.9938,15.9938,0,0,0,2.727-1.2293A19.4219,19.4219,0,0,1,177.0143,58.1c2.0182,2.12,3.5834,4.9221,3.3325,7.8382s-2.8661,5.7023-5.77,5.3357c.6968,4.1756-1.7929,8.38-5.2153,10.8716s-7.64,3.5905-11.7734,4.5072a3.4018,3.4018,0,0,0-2.2475,1.15,4.03,4.03,0,0,0-.4445,1.4532c-.9558,4.8063-5.5026,8.2307-10.2556,9.4228a38.824,38.824,0,0,0-5.5281,1.3954,5.7488,5.7488,0,0,0-3.703,4.02c-.1532.9243.0255,1.8786-.1168,2.8045-.44,2.8591-3.555,4.34-6.216,5.4735s-5.683,3.0374-5.569,5.9279c.0552,1.3967.8514,2.9338.0605,4.0863a4.5582,4.5582,0,0,1-2.4122,1.3,7.9489,7.9489,0,0,0-4.69,4.6817c-.646,1.7717-.6394,3.7346-1.3284,5.49a12.5226,12.5226,0,0,1-3.4557,4.4835c-3.6048,3.2817-9.1051,5.9255-13.1138,1.6313-2.6839-2.8752-1.2544-5.6512-.5425-9.0278C100.2388,120.4488,98.2245,110.2884,105.0864,100.9867Z"/><path class="cls-5" d="M69.3285,127.2626c-3.5751-4.9723-11.034-5.01-15.9214-8.7-4.9531-3.74-6.6342-10.7464-11.7069-14.3233-4.3417-3.0615-10.7016-3.2577-13.7993-7.5737-2.1189-2.9522-2.0182-7.015-3.9026-10.1223-1.5594-2.5714-4.2694-4.1707-6.7435-5.88a54.5886,54.5886,0,0,1-10.5925-9.6c-3.5126-4.1451-6.5284-9.4569-5.39-14.77,1.022-4.7682,5.4123-8.3946,10.2059-9.29s9.8182.6363,13.8551,3.3719A38.0942,38.0942,0,0,1,35.2382,61.017a6.2274,6.2274,0,0,0,1.9591,2.14c1.2138.6745,2.7022.4273,4.0871.3252A17.86,17.86,0,0,1,57.709,72.2005c1.8864,3.2852,2.7106,7.1883,5.1373,10.0973,3.0761,3.688,8.3264,5.2734,10.8059,9.3862,2.8671,4.7552,1.2262,11.6424,5.1063,15.6143a22.52,22.52,0,0,0,3.9135,2.77c4.745,3.1291,7.9936,8.0162,11.1108,12.769a25.0376,25.0376,0,0,1,3.7555,7.41c.6775,2.6991.33,5.82-1.5824,7.842a10.0588,10.0588,0,0,1-5.5569,2.5991C79.5439,142.7472,74.7549,134.8106,69.3285,127.2626Z"/><path class="cls-3" d="M152.1148,70.3793c2.4579-1.5784,5.2707-3.129,8.1419-2.5926-1.1041,1.7185-3.0683,2.6355-4.8722,3.594-8.169,4.3412-14.7669,11.0766-21.1742,17.75a152.4158,152.4158,0,0,0-14.0837,16.18,53.8011,53.8011,0,0,0-9.1915,19.243c-.7067,3.1063-1.0094,6.5617-2.6661,9.3544-2.0141,3.3947-3.043-.6753-2.5833-2.7723,1.3159-6.0028,4.1-12.0156,6.8656-17.4687A109.89,109.89,0,0,1,135.26,83.5487,116.0969,116.0969,0,0,1,152.1148,70.3793Z"/><path class="cls-3" d="M19.41,65.68A199.6761,199.6761,0,0,1,86.7475,140.931c1.3688,2.6756,2.7326,5.4559,4.9888,7.4411a1.8755,1.8755,0,0,0,1.51.6226c1.26-.2556.887-2.1594.2081-3.2514q-6.2613-10.07-12.5222-20.1406c-4.8851-7.8571-9.8019-15.7575-15.95-22.6707C61.84,99.4,58.3987,96.15,54.9619,92.9056q-4.8693-4.5977-9.739-9.1951c-4.3042-4.0639-8.6106-8.13-13.1167-11.9686q-4.6125-3.9293-9.491-7.5307c-.9012-.6653-2.7281-2.4723-4.0521-1.8372C16.7507,63.2435,18.4017,65.0134,19.41,65.68Z"/><path class="cls-6" d="M80.9713,172.4766c1.0837,6.0679,1.9559,12.5848,6.0145,17.2241,3.2235,3.6846,8.1072,5.6346,12.9837,6.0664a39.78,39.78,0,0,0,14.4791-1.8889,10.3819,10.3819,0,0,0,3.996-1.8515c1.7441-1.5047,2.3622-3.9023,2.8893-6.1447q6.163-26.2153,12.3263-52.4307c-20.3493.4674-40.7064.9348-61.0569.5185a.7547.7547,0,0,0-.9157,1.0153c.6674,6.1579,2.9986,12.021,4.6719,17.9682C78.1712,159.3917,79.7948,165.89,80.9713,172.4766Z"/><path class="cls-7" d="M72.604,134.0919a.7546.7546,0,0,0-.9155,1.0154,40.0523,40.0523,0,0,0,.6568,4.0229,9.5606,9.5606,0,0,0,3.3314.5984c6.32.3433,12.6852.5257,18.8765,1.8384s12.2849,3.8512,16.7949,8.2915a16.7489,16.7489,0,0,1,4.024,5.8678,24.9393,24.9393,0,0,1,1.2171,5.96,121.1645,121.1645,0,0,1,1.179,20.1922c-.16,3.2748-.6671,6.7727-2.8785,9.1934a14.0346,14.0346,0,0,1-4.4964,2.9921q-1.9069.9018-3.8781,1.6576A52.2852,52.2852,0,0,0,114.45,194a10.3818,10.3818,0,0,0,3.996-1.8515c1.7441-1.5047,2.3623-3.9023,2.8894-6.1448q6.1629-26.2152,12.3262-52.4307C113.3116,134.0408,92.9545,134.5083,72.604,134.0919Z"/><path class="cls-6" d="M71.916,136.6213c9.86,2.0644,20.0068,2.2077,30.08,2.343l20.39.2741a43.6655,43.6655,0,0,0,9.2658-.5346,8.1931,8.1931,0,0,0,3.7667-1.5946,3.7037,3.7037,0,0,0,1.3249-3.6818c-.6658-2.3086-3.6819-2.7844-6.0844-2.7766-10.0859.0329-20.1421.88-30.2073,1.4229-9.424.5082-19.4487,1.34-28.6752-.734-1.4826-.3334-3.1127-.2011-3.5979,1.6563C67.5856,135.2635,70.1716,136.2561,71.916,136.6213Z"/><path class="cls-8" d="M128.09,149.4324c-1.3219.9022-2.6718,2-4.272,2.0144-2.4209.0227-4.1909-2.41-6.5606-2.9079-3.6993-.7767-6.8435,3.3219-10.6235,3.336-3.704.0139-6.5089-3.8554-10.2092-4.02-4.6206-.205-8.3155,5.4143-12.8294,4.4056-2.2011-.4919-3.7736-2.4674-5.8813-3.27a6.08,6.08,0,0,0-2.8574-.2962c.45,1.4358.8992,2.87,1.3145,4.3091a4.1519,4.1519,0,0,1,1.1236-.2924c3.17-.3551,5.64,3.1035,8.8238,3.2944,3.8941.2337,6.589-4.373,10.4718-4.7508,4.148-.4036,7.5661,4.1567,11.7134,3.7446,3.3521-.333,6.275-3.8846,9.4645-2.8006,2.021.6869,3.4521,3.143,5.5674,2.858,1.9913-.2683,2.9914-2.8663,4.9687-3.2227a2.2562,2.2562,0,0,1,1.0425-.0032c.2774-1.18.5416-2.3034.8189-3.4834A7.08,7.08,0,0,0,128.09,149.4324Z"/><path class="cls-9" d="M128.0756,149.4046c-1.3219.9021-2.6718,2-4.2722,2.0145-2.4209.0227-4.191-2.41-6.56-2.9079-1.9838-.4166-3.8079.5689-5.656,1.5746a19.4038,19.4038,0,0,1,2.179,2.6178,5.2294,5.2294,0,0,1,3.9875-.5326c2.021.6868,3.4521,3.1429,5.5676,2.858,1.9914-.2684,2.9913-2.8663,4.9686-3.2227a2.7181,2.7181,0,0,1,1.0576.0245q.41-1.7418.8189-3.4834A7.9678,7.9678,0,0,0,128.0756,149.4046Z"/><path class="cls-4" d="M68.6455,153.9665a22.2874,22.2874,0,0,0-.3919,9.9984c.862,4.9927,3.1992,9.8989,7.2382,12.9581,4.664,3.5327,10.82,4.1591,16.5954,5.0953q4.9865.8082,9.8909,2.0428a6.0441,6.0441,0,0,0,3.6867.16A4.203,4.203,0,0,0,107.96,180.93c.62-3.587-1.7074-7.1825-4.8069-9.0913S96.324,169.3792,92.7,169.0355s-7.3289-.5368-10.7231-1.8527a5.77,5.77,0,0,1-2.1365-1.2808,6.0443,6.0443,0,0,1-1.2761-2.5345c-1.1116-3.767-1.2443-7.7546-2.1458-11.5774a25.0417,25.0417,0,0,0-1.4-4.3726c-.7856-1.7743-1.2959-1.4165-2.5394-.1462A15.965,15.965,0,0,0,68.6455,153.9665Z"/><path class="cls-10" d="M110.4678,27.4493c2.256,3.5849,2.3682,8.06,3.43,12.16-.071-.2745-1.6066-.7493-1.8857-.8628q-1.0639-.4325-2.1655-.7629c-1.3883-.4166-3.0374-.398-4.3651-.891-1.8715-.695,1.3242-5.1539,1.9693-6.141A15.8961,15.8961,0,0,1,110.4678,27.4493Z"/><path class="cls-10" d="M61.8278,35.2572c3.1368,1.133,5.4376,3.8046,7.43,6.48-2.8174,2.8946-5.3455,5.9986-7.9637,9.0643.12-2.4363-.4-4.8466-.4112-7.3007C60.8794,42.8038,61.6185,35.1816,61.8278,35.2572Z"/><path class="cls-11" d="M74.5213,80.0639A33.0055,33.0055,0,0,0,97.75,81.6612a43.0356,43.0356,0,0,0,19.7333-12.7627,75.3181,75.3181,0,0,1-5.6323,9.9872c-2.2832,3.5547-4.74,7.1566-8.276,9.4692-4.2069,2.7518-9.5622,3.3574-14.5138,2.49a41.9947,41.9947,0,0,1-13.893-5.65A24.1858,24.1858,0,0,1,68.2587,79.66c-.4011-.5094-2.1035-2.5552-1.5813-3.2208.4935-.6287,2.2593.3874,2.7245.6552C71.1191,78.0821,72.7275,79.2026,74.5213,80.0639Z"/><path class="cls-10" d="M78.1556,41.1288a17.0114,17.0114,0,0,0,1.3867,1.6284,5.4352,5.4352,0,0,1,1.0641,2.1671c.3962,1.6822.1067,3.77,1.4731,4.8282.1523.1181.3726.2156.5276.101a.506.506,0,0,0,.1407-.4043,10.5527,10.5527,0,0,0-.5346-4.71,16.4392,16.4392,0,0,1-1.4072-2.8826c-.2948-1.3166.2571-2.728-.1116-4.0258-.1471-.5181-.4367-1.001-.5673-1.5161q-1.3753.4023-2.72.9081C77.5369,38.5439,77.4838,40.0467,78.1556,41.1288Z"/><path class="cls-10" d="M93.5071,41.191c.6156-1.8654-.2783-3.8462-.93-5.699a2.8608,2.8608,0,0,1-.1632-.84q-1.1773-.0034-2.3419.049a2.9531,2.9531,0,0,1,.5005,1.2607c.1389.9254-.0364,1.8721.054,2.8035a20.0827,20.0827,0,0,1,.54,3.4313c-.0819,1.0443-.6564,2.0208-.6264,3.0679.0413,1.4483,1.2314,2.7456,1.0229,4.1794-.0794.5464-.2942,1.2558.1821,1.5349a5.583,5.583,0,0,0,1.06-3.98,10.9492,10.9492,0,0,1-.3882-3.2044A20.1235,20.1235,0,0,1,93.5071,41.191Z"/><path class="cls-10" d="M94.636,34.7069a5.3221,5.3221,0,0,1,.6361,2.234,11.5173,11.5173,0,0,0,.4972,3.4564c.1748.419.5386.8625.985.78a.8491.8491,0,0,0,.5607-.9628A5.1936,5.1936,0,0,0,96.91,39.06c-.4861-1.3265-.0253-2.7738.066-4.1953Q95.801,34.7607,94.636,34.7069Z"/><path class="cls-10" d="M89.2193,49.082c-.0805-.5843-.6826-.9181-1.1043-1.33-1.045-1.0208-1.0414-2.7045-.7081-4.1268a5.0052,5.0052,0,0,0,.1826-3.1387c-.4211-.942-1.5245-1.526-1.7071-2.5415a3.088,3.088,0,0,1,.4682-1.863,6.85,6.85,0,0,1,.7019-1.145q-1.7841.2-3.53.5464c.2564,1.1089-.36,2.4262-.1228,3.6045.2546,1.2635,1.4261,2.1183,2.0148,3.265.9707,1.8918.227,4.2536.9174,6.2646a2.2773,2.2773,0,0,0,1.4016,1.5535C88.4351,50.3608,89.3184,49.8016,89.2193,49.082Z"/><path class="cls-10" d="M103.1526,171.8384c-2.9644-1.8254-6.5039-2.4082-9.9771-2.7564a8.3877,8.3877,0,0,0-4.0731,5.5219,8.2971,8.2971,0,0,0,2.03,7.2625q.4791.075.9552.1519,4.9862.8082,9.8907,2.0429a6.0449,6.0449,0,0,0,3.6867.16,4.2027,4.2027,0,0,0,2.2946-3.2911C108.58,177.3427,106.2521,173.7472,103.1526,171.8384Z"/><rect class="cls-12" width="200" height="200.2372"/><path class="cls-13" d="M72.0129,54.36q.4737.5724.946,1.1419c.1237.1482.2526.3445.1661.5167a.5053.5053,0,0,1-.39.2035c-.3159.0584-.63.1145-.9451.1713a7.0424,7.0424,0,0,0,1.6355,4.1314,6.4969,6.4969,0,0,1-1.2342-.7883,5.8555,5.8555,0,0,1-2.16-4.6085,4.98,4.98,0,0,1,2.6665-4.2531,4.9238,4.9238,0,0,1,2.7239-.4209,7.0415,7.0415,0,0,0-3.2143,3.3254C72.1322,53.97,72.0687,54.1636,72.0129,54.36Z"/><path class="cls-14" d="M77.112,61.2621a7.3632,7.3632,0,0,1-3.6862-.7373A7.0424,7.0424,0,0,1,71.79,56.3934c.3154-.0568.6292-.1129.9451-.1713a.5053.5053,0,0,0,.39-.2035c.0865-.1722-.0424-.3685-.1661-.5167q-.4727-.57-.946-1.1419c.0558-.1964.1193-.39.1947-.5806a7.0415,7.0415,0,0,1,3.2143-3.3254,6.9937,6.9937,0,0,1,3.4368,1.4013c1.5112,1.1568,3.49,3.655,3.2814,5.7291C81.9125,59.86,79.0892,61.1458,77.112,61.2621Z"/><path class="cls-13" d="M103.5293,51.8973a5.14,5.14,0,0,1,1.4921.7657.362.362,0,0,1-.0307.6084c-.3645.2063-.8829.4843-1.2932.69a9.16,9.16,0,0,0,.86,2.0748,3.4849,3.4849,0,0,0,1.0277,1.1142,3.95,3.95,0,0,1-3.1361-2.2143c-.6485-1.681.1929-4.1,1.176-5.7052a7.552,7.552,0,0,0-.2845,2.6242Z"/><path class="cls-14" d="M113.47,49.3521a5.8546,5.8546,0,0,1-.86,5.0186,7.126,7.126,0,0,1-4.3367,2.7766,6.981,6.981,0,0,1-2.6887.0034,3.4849,3.4849,0,0,1-1.0277-1.1142,9.16,9.16,0,0,1-.86-2.0748c.41-.206.9287-.484,1.2932-.69a.362.362,0,0,0,.0307-.6084,5.14,5.14,0,0,0-1.4921-.7657l-.1887-.0419a7.552,7.552,0,0,1,.2845-2.6242,8.2756,8.2756,0,0,1,.4657-.6888,6.0657,6.0657,0,0,1,5.68-2.5807A4.979,4.979,0,0,1,113.47,49.3521Z"/><path class="cls-14" d="M87.9869,61.9443c-.5246-.2812-.8612.5815-.3438.859.9842.5252,2.2663.119,3.2644-.1854a4.11,4.11,0,0,0,2.0264-1.2719,1.3081,1.3081,0,0,0,.5264-.0338,6.6447,6.6447,0,0,0,7.0288-.7044.4623.4623,0,0,0-.5776-.7213,5.7076,5.7076,0,0,1-5.6267.7838c.028-.0494.0426-.1017.0679-.1527a1.4669,1.4669,0,0,0,.4179-.5156,2.4421,2.4421,0,0,0,.1685-1.0357l-.0423-.4166a.6007.6007,0,0,0-.1864-.2108.689.689,0,0,0-.2963-.232l-.0147-.0023a1.1636,1.1636,0,0,0-1.0645-.0436,1.6746,1.6746,0,0,0-.5713.4114,1.1223,1.1223,0,0,0-2.0217.73,1.7168,1.7168,0,0,0,.61,1.2446,4.44,4.44,0,0,0,.6653.5244,3.7268,3.7268,0,0,1-1.5877.828A3.468,3.468,0,0,1,87.9869,61.9443Zm3.8634-2.62-.002-.0093.0064-.0306-.0041.0235C91.8485,59.3133,91.8523,59.3188,91.85,59.324Z"/></g></svg>