<svg xmlns="http://www.w3.org/2000/svg" xmlns:xlink="http://www.w3.org/1999/xlink" viewBox="0 0 200 200"><defs><style>.cls-1{fill:none;}.cls-2{fill:#e0f1c2;}.cls-3{clip-path:url(#clip-path);}.cls-4{fill:#fff;}.cls-5{clip-path:url(#clip-path-2);}.cls-6{fill:#ffbe00;}.cls-7{fill:#f4f3f2;}.cls-8{fill:#ffc620;}.cls-9{fill:#a3593c;}.cls-10{fill:#311824;}.cls-11{fill:#4c3640;}.cls-12{clip-path:url(#clip-path-3);}</style><clipPath id="clip-path"><rect class="cls-1" x="220" width="200" height="200"/></clipPath><clipPath id="clip-path-2"><rect class="cls-1" width="200" height="200"/></clipPath><clipPath id="clip-path-3"><ellipse class="cls-1" cx="101.6323" cy="141.9535" rx="56.5539" ry="37.1057"/></clipPath></defs><g id="Fondos"><rect class="cls-2" y="-0.1186" width="200" height="200.2372"/></g><g id="Gatos"><g class="cls-3"><path class="cls-4" d="M277.614,161.8155a52.1375,52.1375,0,0,0,23.5746-7.1179c27.4581-16.5945,25.6631-51.1486,25.6631-51.1486s2.3768-45.7545-40.1779-57.248a45.5861,45.5861,0,0,0-5-1.0134c-8.6286-1.32-37.3462-5.1227-81.8731-5.1227V166.9682Z"/></g><g class="cls-5"><ellipse class="cls-6" cx="104.5126" cy="41.5871" rx="45.9145" ry="43.7311" transform="translate(-0.5551 81.7513) rotate(-42.6187)"/><path class="cls-7" d="M73.8121,76.9908a13.8615,13.8615,0,0,0,3.442-3.0747l.7076-.8769.49-.6147.9261-1.1969,1.011-1.34a132.9869,132.9869,0,0,0,8.3462-12.655A118.9193,118.9193,0,0,0,94.98,44.9738c1.452-3.3482,2.2494-5.5659,2.2494-5.5659s.86-2.1947,1.9338-5.6856a86.0714,86.0714,0,0,0,3.0261-13.4406c.3486-2.5716.5982-5.2171.69-7.7974.0094-1.2908.1-2.5631.04-3.8l-.0583-1.8275c-.0227-.5732-.0257-1.2452-.0813-1.7036l-.2527-2.8107a14.86,14.86,0,0,0-1.2438-4.4481A19.13,19.13,0,0,0,101.3,2.4751l.24,2.76c.0549.45.0572,1.11.0794,1.6732l.0571,1.7951c.0592,1.2151-.0311,2.4662-.04,3.7347-.09,2.5365-.3353,5.1389-.6776,7.6706A84.9377,84.9377,0,0,1,97.98,33.36c-1.0588,3.4464-1.9071,5.6161-1.9071,5.6161s-.789,2.1906-2.2263,5.5011a117.8582,117.8582,0,0,1-6.1854,12.131,132.2336,132.2336,0,0,1-8.269,12.5361l-1.0007,1.3277-.9163,1.1852-.4837.6092-.6953.8709A21.1253,21.1253,0,0,0,73.8121,76.9908Z"/><path class="cls-7" d="M80.5135,80.8071a14.6147,14.6147,0,0,0,3.1588-3.3591l.6378-.9267.4387-.6509.8812-1.3257.9653-1.4811c2.6212-4.0548,5.5214-8.96,8.079-13.7718,2.5548-4.8132,4.7538-9.5334,6.2523-13.07.76-1.7642,1.3383-3.2352,1.736-4.2612.4075-1.022.62-1.6044.62-1.6044l.5883-1.6168c.3917-1.0286.8913-2.5291,1.4926-4.3553a108.4153,108.4153,0,0,0,3.5243-14.0788c.4858-2.69.8144-5.4713,1.0405-8.1832.0931-1.3574.1293-2.7.194-4.0031l-.032-3.7271-.1912-2.8181a14.01,14.01,0,0,0-1.1458-4.476,20.79,20.79,0,0,0-.0849,4.5777l.1791,2.7623.031,3.6577c-.0644,1.2809-.1,2.6-.1908,3.9346-.2227,2.6681-.5452,5.4068-1.0239,8.0611a107.346,107.346,0,0,1-3.4788,13.9145c-.5947,1.8083-1.0885,3.2944-1.4764,4.314l-.582,1.6023s-.2109.577-.6154,1.59c-.3947,1.0168-.9684,2.4749-1.7234,4.2247-1.4878,3.5077-3.6721,8.1921-6.2108,12.9723-2.5414,4.7782-5.4241,9.6531-8.027,13.6813l-1.8326,2.7876-.4341.6471-.628.9229A19.5565,19.5565,0,0,0,80.5135,80.8071Z"/><path class="cls-7" d="M87.06,83.4641a14.0211,14.0211,0,0,0,3.3558-3.1669l.6864-.8931.4725-.628.98-1.33,1.07-1.4914a145.9551,145.9551,0,0,0,8.7859-14.0493,132.38,132.38,0,0,0,6.516-13.5517c1.5062-3.6933,2.326-6.135,2.326-6.135s.8875-2.4183,1.9808-6.2573A95.31,95.31,0,0,0,116.2414,21.21a82.6811,82.6811,0,0,0,.5934-8.5328c.006-1.4106.0571-2.8015-.0336-4.1525l-.0869-1.996c-.0187-.3268-.0185-.6519-.0525-.9715l-.0875-.8848-.2822-2.8056a15.6992,15.6992,0,0,0-1.3033-4.4306,17.8707,17.8707,0,0,0,.0776,4.5817l.2687,2.76.0862.87c.0336.3142.033.6342.0513.9558l.0853,1.9637c.09,1.3288.0387,2.6985.0331,4.087a81.568,81.568,0,0,1-.5833,8.4065,94.1739,94.1739,0,0,1-2.9663,14.5627c-1.0789,3.7947-1.9559,6.1882-1.9559,6.1882s-.8121,2.4147-2.3046,6.0706a131.3313,131.3313,0,0,1-6.46,13.4245,145.2272,145.2272,0,0,1-8.7121,13.93l-1.06,1.4782-.97,1.3177-.4665.6229-.6746.8876A20.7483,20.7483,0,0,0,87.06,83.4641Z"/><path class="cls-7" d="M94.3155,85.9021a13.838,13.838,0,0,0,3.4375-3.08l.7076-.8772.4869-.6174,1.0153-1.317q.5494-.7139,1.1081-1.4792a133.55,133.55,0,0,0,9.048-14.0176A121.1071,121.1071,0,0,0,116.72,50.888c.7218-1.8737,1.3527-3.4015,1.71-4.4957l.5922-1.6979s.8739-2.4434,1.9152-6.3261A89.1392,89.1392,0,0,0,123.64,23.4525c.1141-1.4233.2655-2.86.2808-4.3041.0511-1.4416.1089-2.8812.0488-4.3016-.0223-1.42-.0468-2.82-.1806-4.1768l-.1534-2.0055c-.0221-.329-.049-.6545-.099-.9743l-.1192-.8869-.38-2.7942A16.0838,16.0838,0,0,0,121.5654-.369a17.3813,17.3813,0,0,0,.2527,4.5752l.3648,2.7488.1172.872c.0494.3145.0757.6346.0972.9582l.15,1.9725c.1321,1.3338.1557,2.7113.1778,4.1089.06,1.3972.0024,2.8143-.0476,4.2334-.0142,1.4208-.1638,2.8366-.2756,4.2384a87.987,87.987,0,0,1-2.6607,14.71c-1.0264,3.8338-1.889,6.25-1.889,6.25l-.5861,1.6779c-.3529,1.0811-.9783,2.5919-1.6924,4.4446a120,120,0,0,1-6.5392,13.4859A132.7386,132.7386,0,0,1,100.07,77.7931q-.5511.7582-1.0968,1.4649L97.969,80.562l-.48.6119-.695.8709A21.1792,21.1792,0,0,0,94.3155,85.9021Z"/><path class="cls-7" d="M102.65,86.0456a13.8122,13.8122,0,0,0,3.452-3.0637l.7111-.8744.49-.615.9853-1.2673q.534-.6855,1.0751-1.4223a128.8379,128.8379,0,0,0,8.7943-13.4811,114.9349,114.9349,0,0,0,6.42-13.1218c1.4623-3.59,2.2373-5.97,2.2373-5.97s.8507-2.3551,1.8563-6.1019a82.0072,82.0072,0,0,0,2.5615-14.4027,72.1507,72.1507,0,0,0,.2336-8.3093c-.0615-1.37-.07-2.7229-.2318-4.0291l-.1877-1.9326c-.0338-.3163-.0546-.6314-.0984-.94l-.1351-.854-.4459-2.7867a15.5118,15.5118,0,0,0-1.5767-4.3422,18.12,18.12,0,0,0,.3623,4.5663l.4289,2.7373.1329.8383c.043.3034.0631.6129.0962.9235l.184,1.8977c.1593,1.2823.1669,2.6122.2279,3.9575a71.0125,71.0125,0,0,1-.2285,8.1685,80.8517,80.8517,0,0,1-2.519,14.1881c-.99,3.6964-1.8294,6.0232-1.8294,6.0232s-.7663,2.35-2.213,5.8973a113.8732,113.8732,0,0,1-6.3562,12.98,128.053,128.053,0,0,1-8.71,13.351q-.5357.7284-1.0641,1.4083l-.9745,1.2544-.4833.6094-.6984.8682A21.2371,21.2371,0,0,0,102.65,86.0456Z"/><path class="cls-7" d="M110.9456,76.2422a2.3483,2.3483,0,0,0,.8383,1.2963c.2535.1873,1.0163.7528,1.6741,1.3222.6638.5625,1.22,1.1228,1.22,1.1228s.5632.5539,1.1217,1.2132a17.6939,17.6939,0,0,1,1.2736,1.6831,2.3965,2.3965,0,0,0,1.2559.8913,1.9607,1.9607,0,0,0-.2248-1.5709,16.1776,16.1776,0,0,0-1.36-1.81c-.5975-.7009-1.1959-1.2818-1.1959-1.2818s-.5843-.596-1.2806-1.19c-.69-.6009-1.4921-1.1954-1.7657-1.3843A1.99,1.99,0,0,0,110.9456,76.2422Z"/><path class="cls-7" d="M114.5223,71.215a3.38,3.38,0,0,0,1.0414,1.5493c.303.2508,1.2117,1.0106,1.9883,1.7693.7849.75,1.4356,1.4909,1.4356,1.4909s.6625.7309,1.31,1.5961a22.25,22.25,0,0,1,1.4723,2.1947,3.4161,3.4161,0,0,0,1.3724,1.263,2.7208,2.7208,0,0,0-.3061-1.8859,20.6071,20.6071,0,0,0-1.548-2.322c-.683-.9081-1.379-1.668-1.379-1.668s-.6766-.7777-1.4924-1.5613c-.8073-.7923-1.7544-1.5843-2.0777-1.8381A2.7415,2.7415,0,0,0,114.5223,71.215Z"/><path class="cls-7" d="M117.234,65.2477a25.8923,25.8923,0,0,0,3.15,3.3118c.24.2082.6236.5541,1.4036,1.29.4358.4091,1.4231,1.4187,1.4231,1.4187s.2107.2081.4592.4912l.775.866c.9235,1.0851,1.4334,1.7988,1.7075,2.1663,1.0582,1.5207,1.7336,2.3074,2.73,3.61a9.4708,9.4708,0,0,0-1.7227-4.3246c-.2825-.3876-.8157-1.1376-1.7732-2.2638l-.8038-.8941c-.2593-.2911-.478-.503-.478-.503l-.5567-.5808-.9029-.8843c-.802-.7547-1.1973-1.1074-1.4449-1.3185A12.406,12.406,0,0,0,117.234,65.2477Z"/><path class="cls-7" d="M120.8412,59.7585a27.3218,27.3218,0,0,0,3.2915,3.1675c.249.1969.6445.5288,1.4578,1.2285.6533.5672,2.1265,1.9861,2.1265,1.9861s1.1956,1.2245,1.8035,1.95c.9285,1.0812,1.465,1.7813,1.7273,2.1574a43.1288,43.1288,0,0,0,2.8757,3.52,10.503,10.503,0,0,0-1.8779-4.2475c-.27-.3952-.8258-1.1251-1.7865-2.2451-.6273-.7544-1.8682-2.0072-1.8682-2.0072s-1.5054-1.471-2.1812-2.0469c-.8355-.7172-1.243-1.0557-1.5-1.2553A12.1138,12.1138,0,0,0,120.8412,59.7585Z"/><path class="cls-7" d="M124.3846,51.7237a20.2106,20.2106,0,0,0,3.109,3.3714l1.4346,1.2747c.5277.47,1.3952,1.2824,2.1289,1.9794l1.3128,1.297,1.0929,1.152c.6028.6533,1.3222,1.4624,1.8025,2.06.9118,1.0995,1.382,1.8337,1.6508,2.2038.2753.3735.4588.7319.683,1.0411a9.2038,9.2038,0,0,1,.5857.8911c.1691.29.3946.5613.5546.8647l.5063,1.0059c.0066-.3974.0067-.7815-.0073-1.1628a6.27,6.27,0,0,0-.226-1.0768,4.4187,4.4187,0,0,0-.4135-1.08,9.0424,9.0424,0,0,0-.6526-1.1645c-.2774-.3921-.7777-1.1737-1.7187-2.31-.497-.6213-1.2367-1.45-1.8561-2.1174l-1.1206-1.1728-1.3315-1.3246c-.7432-.71-1.6226-1.5357-2.16-2.0086-.81-.7363-1.2162-1.07-1.4576-1.2858A14.2767,14.2767,0,0,0,124.3846,51.7237Z"/><path class="cls-7" d="M127.5261,42.7568a22.7883,22.7883,0,0,0,3.2742,3.201c.2491.1988.6556.5208,1.4789,1.2158.6485.545,1.7254,1.4822,2.6071,2.3165.45.4078.8418.7992,1.1263,1.0831l.4636.459.3892.3925.9219.9916c.3729.3842.7475.8416,1.1207,1.2774.3771.4331.732.8606,1.0047,1.2331.89,1.1174,1.35,1.8668,1.6128,2.2439.5389.76.8871,1.391,1.3388,1.9343.4107.5633.7945,1.1039,1.3139,1.749a15.1271,15.1271,0,0,0-.5115-2.17,10.9411,10.9411,0,0,0-1.1057-2.1862c-.269-.3952-.75-1.18-1.6677-2.3354-.2825-.3867-.6483-.8275-1.0364-1.2726-.3844-.4482-.7722-.9185-1.1544-1.3111l-.9482-1.0139-.3993-.4-.4723-.4708c-.29-.2912-.6894-.6924-1.1473-1.1092-.8982-.8535-1.9937-1.8092-2.6564-2.361-.8389-.7062-1.2539-1.0321-1.5093-1.2318A13.2421,13.2421,0,0,0,127.5261,42.7568Z"/><path class="cls-7" d="M130.4817,33.0928a25.6914,25.6914,0,0,0,3.3255,3.1389c.2473.2006.6608.5125,1.4863,1.2045.6259.5165,1.6635,1.4091,2.5187,2.2007.4339.3889.8216.753,1.0969,1.024l.452.4344s.5827.5561,1.295,1.2987c.7309.7245,1.56,1.6635,2.17,2.3151.9358,1.0917,1.5338,1.7521,1.8167,2.1212a20.91,20.91,0,0,0,3.2615,3.2165,13.95,13.95,0,0,0-2.3082-4.0014c-.2846-.3787-.8906-1.0527-1.8426-2.1644-.6195-.6645-1.465-1.6183-2.21-2.3537-.7266-.7536-1.3216-1.3172-1.3216-1.3172l-.4582-.4435c-.2793-.2765-.6726-.6482-1.1132-1.045-.8684-.8073-1.9235-1.7174-2.5638-2.2407-.8417-.7035-1.265-1.02-1.5191-1.2221A12.45,12.45,0,0,0,130.4817,33.0928Z"/><path class="cls-7" d="M131.369,23.1618a20.0236,20.0236,0,0,0,3.2984,3.1886l1.5133,1.1842c.62.4927,1.6557,1.3325,2.5275,2.06l1.5769,1.3448s2.353,2.0763,3.5833,3.3017c1.0427.9939,1.642,1.6516,1.9744,1.9773A22.7316,22.7316,0,0,0,149.316,39.2a13.2646,13.2646,0,0,0-2.58-3.8346c-.3341-.3343-.9443-1.0069-2.0014-2.0164-1.2478-1.2481-3.6374-3.34-3.6374-3.34l-1.5907-1.3651c-.88-.7375-1.9253-1.5876-2.554-2.0823l-1.5331-1.1909A14.37,14.37,0,0,0,131.369,23.1618Z"/><path class="cls-7" d="M130.8978,12.7449a25.549,25.549,0,0,0,3.6179,2.7957c.2637.1775.7077.444,1.5909,1.0567.4848.3226,1.2765.901,1.9476,1.3969l1.205.9313,1.0062.8415c.5628.4734,1.2164,1.0838,1.6876,1.5129l1.2423,1.23.69.7535a36.426,36.426,0,0,0,3.26,3.1771,10.9618,10.9618,0,0,0-2.343-4.0045l-.7119-.785-1.2814-1.2728c-.4838-.4439-1.1593-1.0712-1.739-1.5556l-1.0371-.86-1.2312-.96c-.6855-.51-1.4952-1.1034-1.993-1.43-.9042-.6253-1.359-.8958-1.6305-1.0745A12.4852,12.4852,0,0,0,130.8978,12.7449Z"/><path class="cls-7" d="M78.4064,70.5932a19.9168,19.9168,0,0,0-3.2079-3.28l-1.4809-1.2246c-.602-.508-1.6107-1.3695-2.4574-2.117l-1.5333-1.378s-2.2826-2.1287-3.4749-3.3778c-1.0135-1.0232-1.5975-1.6939-1.9181-2.0308a23.329,23.329,0,0,0-3.381-3.0835,13.0722,13.0722,0,0,0,2.4645,3.9112c.3224.346.9171,1.0322,1.9451,2.0718,1.21,1.2726,3.5283,3.4179,3.5283,3.4179l1.5464,1.3984c.8541.7577,1.8722,1.63,2.4828,2.14l1.5,1.2317A14.4283,14.4283,0,0,0,78.4064,70.5932Z"/><path class="cls-7" d="M83.9572,63.75A19.2918,19.2918,0,0,0,80.67,60.5459l-1.5165-1.1836c-1.1619-.9254-3.117-2.4888-4.7293-3.882-1.62-1.3841-2.9268-2.5609-2.9268-2.5609l-.7148-.6569c-.4428-.409-1.0667-.9688-1.7381-1.6256-1.3618-1.2941-2.9793-2.91-4.0832-4.1065-.9926-1.0453-1.5824-1.7129-1.8834-2.0674a21.1486,21.1486,0,0,0-3.37-3.105A13.8516,13.8516,0,0,0,62.15,45.2773c.3028.3638.9,1.0437,1.9052,2.1039,1.1185,1.2148,2.7563,2.8483,4.1341,4.154.68.663,1.31,1.227,1.7582,1.6392l.723.6618s1.3167,1.19,2.9482,2.5881c1.6242,1.407,3.5932,2.9839,4.7669,3.9135l1.5329,1.1877A14.7661,14.7661,0,0,0,83.9572,63.75Z"/><path class="cls-7" d="M88.0579,57.8062a20.0617,20.0617,0,0,0-3.4149-3.0647l-1.5583-1.1256c-1.4522-1.0486-3.8525-2.8794-5.8341-4.5135-.9991-.8075-1.889-1.57-2.53-2.13l-1.0441-.9038-.863-.79c-.533-.4935-1.2924-1.16-2.0926-1.9605-.8155-.7851-1.7115-1.6627-2.5381-2.5542-.8541-.867-1.63-1.752-2.2707-2.4934-.9659-1.0668-1.4841-1.7885-1.7809-2.1453a23.6827,23.6827,0,0,0-3.1646-3.304A12.971,12.971,0,0,0,63.1617,36.89c.2992.3673.83,1.1086,1.8112,2.1951.6524.7562,1.443,1.6574,2.31,2.537.841.9057,1.75,1.7948,2.5774,2.5893.8127.8105,1.5813,1.4838,2.1216,1.9826l.8748.7978,1.0539.9153c.6469.5672,1.5454,1.3391,2.5533,2.1555,2,1.6528,4.4209,3.5014,5.8888,4.5565L83.93,55.75A14.352,14.352,0,0,0,88.0579,57.8062Z"/><path class="cls-7" d="M92.3112,49.5523a20.9739,20.9739,0,0,0-3.5855-2.8584L87.112,45.6523c-1.5487-1.0179-4.1331-2.7751-6.25-4.3861-1.0677-.7927-2.0124-1.5553-2.7123-2.0911l-1.107-.9051S75.61,37.1178,73.86,35.5554c-.8946-.76-1.8166-1.6769-2.7467-2.5285-.912-.87-1.7573-1.7529-2.4806-2.4683-.9951-1.0409-1.5833-1.7107-1.9045-2.0476A19.9853,19.9853,0,0,0,63.3071,25.46a14.3889,14.3889,0,0,0,2.5037,3.8779c.3223.3452.9183,1.0275,1.9273,2.0845.7324.7261,1.59,1.6213,2.5148,2.5028.942.8622,1.878,1.7906,2.7836,2.5584C74.81,38.0627,76.26,39.2252,76.26,39.2252l1.1181.9169c.7064.5426,1.6607,1.3147,2.7388,2.1169,2.1377,1.63,4.7474,3.4068,6.3152,4.4325.9161.5959,1.3586.88,1.6354,1.0474A13.9275,13.9275,0,0,0,92.3112,49.5523Z"/><path class="cls-7" d="M96.1319,40.8284a18.9109,18.9109,0,0,0-3.6-2.85l-1.6343-1.0164c-1.4767-.9317-3.9485-2.527-6.005-3.9545L82.2611,31.147l-1.0793-.8024s-1.398-1.0183-3.1067-2.41c-.8757-.6718-1.7739-1.4962-2.68-2.2578-.8793-.7889-1.7043-1.5817-2.394-2.2372-.9759-1.042-1.6056-1.6679-1.897-2.0221a19.0643,19.0643,0,0,0-1.5983-1.7305c-.4572-.5163-.94-.98-1.5434-1.5486a20.39,20.39,0,0,0,.8095,2.08,14.4886,14.4886,0,0,0,1.4,2.0085c.3014.3726.9443,1.0178,1.9518,2.0931.7049.6722,1.55,1.4835,2.4468,2.2874.9208.7739,1.8386,1.6131,2.7251,2.2919,1.7348,1.41,3.1484,2.4355,3.1484,2.4355l1.09.8128,2.6531,1.8813c2.0727,1.442,4.5615,3.05,6.051,3.9854l1.65,1.0178A14.99,14.99,0,0,0,96.1319,40.8284Z"/><path class="cls-7" d="M99.0265,32.0886c-1.4166-.8026-2.29-1.3972-3.9729-2.2061-.2851-.1353-.74-.3784-1.6881-.8741a57.5962,57.5962,0,0,1-5.2228-3.31l-2.2261-1.6676-.9014-.7344-.76-.6274c-.48-.38-1.1186-.9428-1.8252-1.5858-1.442-1.2525-3.09-2.8989-4.2569-4.0777l-1.93-2.0287a17.6969,17.6969,0,0,0-3.47-3.001,15.841,15.841,0,0,0,2.5612,3.8368l1.9484,2.0608c1.1817,1.1966,2.854,2.864,4.3212,4.1354.7185.652,1.3685,1.2227,1.8579,1.609l.7748.637.9161.7489L87.42,26.7072a57.1874,57.1874,0,0,0,5.35,3.3909c.9785.5105,1.4482.7581,1.7451.8957A9.9887,9.9887,0,0,0,99.0265,32.0886Z"/><path class="cls-7" d="M100.9342,24.257A24.8509,24.8509,0,0,0,97.21,21.6007c-.277-.157-.7238-.419-1.6405-.9847-.9717-.5927-2.5737-1.6479-3.9016-2.5984l-1.6917-1.2488-.69-.5427s-.9-.6819-1.9847-1.63c-.5556-.4589-1.1524-.9887-1.7146-1.5213-.5707-.5233-1.1251-1.0294-1.5566-1.4813-1.022-1.0087-1.6321-1.6536-1.9346-2.0054a22.9135,22.9135,0,0,0-3.4-3.0619,13.2068,13.2068,0,0,0,2.4892,3.896c.3064.363.9282,1.0244,1.9712,2.0556.4408.4623,1.0063.979,1.5891,1.5127.5745.5431,1.1841,1.0826,1.7511,1.55,1.1082.9648,2.0265,1.657,2.0265,1.657l.7019.5545,1.72,1.2752c1.35.97,2.9806,2.0456,3.9723,2.646.9343.5748,1.3909.84,1.675.9973A12.6491,12.6491,0,0,0,100.9342,24.257Z"/><path class="cls-7" d="M102.44,15.4932a38.1923,38.1923,0,0,0-3.7736-2.5479c-.2758-.1542-.7132-.4255-1.6156-.9992-.4874-.3293-1.3109-.88-1.9826-1.3922-.3438-.2449-.647-.4825-.8628-.6607l-.3543-.2838s-1.8064-1.48-2.7038-2.4142c-1.0373-.9823-1.5907-1.6763-1.9214-1.9987A19.5107,19.5107,0,0,0,87.587,3.4858c-.4952-.4964-1.0087-.9359-1.6414-1.461a21.3408,21.3408,0,0,0,.9272,2.0186,14.3713,14.3713,0,0,0,1.4286,1.972c.3369.3364.9077,1.054,1.9769,2.0692.9242.9668,2.7956,2.4846,2.7956,2.4846l.3641.2945c.222.1846.5338.431.8876.685.6914.53,1.54,1.1007,2.0459,1.4371.9326.5916,1.3859.8694,1.6729,1.0265A10.8148,10.8148,0,0,0,102.44,15.4932Z"/><path class="cls-7" d="M102.4343,8.5539a3.153,3.153,0,0,0-1.0016-1.5759c-.303-.2538-1.2169-1.014-2.0281-1.7414-.814-.7242-1.5257-1.4116-1.5257-1.4116s-.7127-.6867-1.4619-1.4727S94.8937.6742,94.6465.37A3.225,3.225,0,0,0,93.074-.6282a2.79,2.79,0,0,0,.6219,1.7868c.2493.3228,1.05,1.2448,1.8216,2.0511S97.022,4.7142,97.022,4.7142s.7247.7072,1.5539,1.4484c.8263.7444,1.759,1.52,2.0752,1.7716A2.8434,2.8434,0,0,0,102.4343,8.5539Z"/><path class="cls-8" d="M104.9254,85.7311c1.22,1.0828,1.9969,1.8087,3.4626,2.9292.2422.196.6522.5017,1.4153,1.22a11.2991,11.2991,0,0,1,2.3654,3.0724,5.6092,5.6092,0,0,1,.4287,4.2219,8.588,8.588,0,0,1-1.9381,3.1571l-1.1208,1.2316-3.3509,3.5795a28.4766,28.4766,0,0,0-2.82,3.4706,7.2794,7.2794,0,0,0-1.3724,4.1832,6.7738,6.7738,0,0,0,.843,2.9534,8.4753,8.4753,0,0,0,3.3777,3.26c-.796-1.4307-1.4328-2.293-2.2889-3.8424a5.6841,5.6841,0,0,1-.6889-2.4049,6.0536,6.0536,0,0,1,1.172-3.4708,27.4873,27.4873,0,0,1,2.6928-3.3114l3.3418-3.578,1.1347-1.2436a9.7825,9.7825,0,0,0,2.2059-3.6244,6.8659,6.8659,0,0,0-.5014-5.1326,12.44,12.44,0,0,0-2.6239-3.42,18.898,18.898,0,0,0-1.5136-1.2958A10.0814,10.0814,0,0,0,104.9254,85.7311Z"/><polygon class="cls-9" points="65.74 168.278 56.816 218.208 137.407 218.208 129.041 171.904 65.74 168.278"/><path class="cls-10" d="M69.0862,219.6025s7.25-31.2413,26.2128-35.9833,30.1168,36.2622,30.1168,36.2622Z"/><path class="cls-10" d="M56.7917,121.8088s-.4183-45.1928,7.9483-46.03,24.2632,30.9654,24.2632,30.9654Z"/><path class="cls-9" d="M61.6493,119.4873s-.303-32.7347,5.7572-33.3409,17.5747,22.4293,17.5747,22.4293Z"/><path class="cls-10" d="M118.7047,108.4183S140.04,81.219,150.08,82.0559s-2.9283,41.4267-2.9283,41.4267Z"/><path class="cls-9" d="M121.4933,111.6293s15.9973-20.3946,23.5254-19.7671-2.1957,31.0625-2.1957,31.0625Z"/><ellipse class="cls-9" cx="101.6323" cy="141.9535" rx="56.5539" ry="37.1057"/><ellipse class="cls-4" cx="83.7765" cy="133.693" rx="14.5444" ry="14.5485"/><path class="cls-11" d="M98.3208,133.693c-.1423.4748-.2535.8629-.3362,1.2719-.0866.4086-.2134.83-.2908,1.3786a4.7879,4.7879,0,0,1-.1444.6383l-.1143.4425-.0822.3205a2.9831,2.9831,0,0,1-.1345.4158l-.3075.84A15.7459,15.7459,0,0,1,96.1,140.675a14.1331,14.1331,0,0,1-5.7981,5.5926,14.1755,14.1755,0,0,1-15.8193-1.8891,13.7258,13.7258,0,0,1-3.954-5.6827,14.2321,14.2321,0,0,1-.9122-4.7318c.0082-1.1567.0724-1.8082.0724-1.8082l.0715-.4657a9.89,9.89,0,0,1,.2488-1.3147,13.6908,13.6908,0,0,1,1.904-4.4267,14.4472,14.4472,0,0,1,5.084-4.7068,15.2781,15.2781,0,0,1,3.7662-1.3966,14.31,14.31,0,0,1,8.4122.7435,15.2613,15.2613,0,0,1,3.6848,2.23,15.0358,15.0358,0,0,1,2.7775,3.1317,13.5739,13.5739,0,0,1,.9747,1.7667,6.0217,6.0217,0,0,1,.3841.9045l.306.835c.1767.7106.3552,1.2872.3908,1.5862.0774.5488.2042.97.2908,1.3786.0827.409.1939.7971.3362,1.2719a12.5148,12.5148,0,0,0,.2054-1.32,6.9972,6.9972,0,0,0-.1044-1.4685c-.0354-.3148-.2189-.9232-.4067-1.6711l-.3214-.88a6.526,6.526,0,0,0-.4043-.9524,14.3033,14.3033,0,0,0-1.0264-1.86,15.7751,15.7751,0,0,0-2.9234-3.2958,16.0074,16.0074,0,0,0-3.879-2.3468,15.0523,15.0523,0,0,0-8.8546-.7818,16.0076,16.0076,0,0,0-3.9652,1.4715,15.1892,15.1892,0,0,0-5.349,4.9536,14.4326,14.4326,0,0,0-2.0033,4.66,10.5789,10.5789,0,0,0-.2616,1.3839l-.0744.49s-.0694.685-.077,1.9016a14.9733,14.9733,0,0,0,.9587,4.98,14.4675,14.4675,0,0,0,4.16,5.9815,14.9194,14.9194,0,0,0,16.6526,1.99,14.8759,14.8759,0,0,0,6.1026-5.8866,16.457,16.457,0,0,0,.8531-1.7629l.3237-.8847a3.2786,3.2786,0,0,0,.1413-.438l.0869-.3373.1193-.4664a4.97,4.97,0,0,0,.1482-.6727,7.0014,7.0014,0,0,0,.1043-1.4684A12.5148,12.5148,0,0,0,98.3208,133.693Z"/><path class="cls-10" d="M72.2229,129.7485a14.3209,14.3209,0,0,0,4.22,1.4224,9.9437,9.9437,0,0,0,3.7779-.105,9.3362,9.3362,0,0,0,3.2041-1.4272,11.5645,11.5645,0,0,0,2.6419-2.5829,16.0658,16.0658,0,0,0,1.96-3.4846,21.233,21.233,0,0,0,1.0805-3.4188,14.5577,14.5577,0,0,0-18.9372,8.3945A20.8545,20.8545,0,0,0,72.2229,129.7485Z"/><ellipse class="cls-4" cx="123.518" cy="133.693" rx="14.5443" ry="14.5485"/><path class="cls-11" d="M138.0623,133.693c-.1424.4748-.2536.8629-.3362,1.2719-.0867.4086-.2135.83-.2908,1.3786a4.7754,4.7754,0,0,1-.1445.6383l-.1143.4425-.0822.3205a2.9959,2.9959,0,0,1-.1344.4158l-.3075.84a15.7277,15.7277,0,0,1-.8106,1.6742,14.1331,14.1331,0,0,1-5.7981,5.5926,14.1753,14.1753,0,0,1-15.8192-1.8891,13.7273,13.7273,0,0,1-3.9541-5.6827,14.2315,14.2315,0,0,1-.9121-4.7318c.0081-1.1567.0724-1.8082.0724-1.8082l.0714-.4657a9.9067,9.9067,0,0,1,.2488-1.3147,13.6953,13.6953,0,0,1,1.904-4.4267,14.4481,14.4481,0,0,1,5.084-4.7068,15.2774,15.2774,0,0,1,3.7663-1.3966,14.31,14.31,0,0,1,8.4122.7435,15.2626,15.2626,0,0,1,3.6847,2.23A15.0392,15.0392,0,0,1,135.38,125.95a13.5739,13.5739,0,0,1,.9747,1.7667,6.0315,6.0315,0,0,1,.384.9045l.306.835c.1767.7106.3552,1.2872.3908,1.5862.0774.5488.2042.97.2909,1.3786.0826.409.1938.7971.3362,1.2719a12.5136,12.5136,0,0,0,.2053-1.32,7.0032,7.0032,0,0,0-.1043-1.4685c-.0355-.3148-.2189-.9232-.4067-1.6711l-.3214-.88a6.5266,6.5266,0,0,0-.4044-.9524,14.2915,14.2915,0,0,0-1.0264-1.86,15.7775,15.7775,0,0,0-2.9233-3.2958,16.008,16.008,0,0,0-3.8791-2.3468,15.0523,15.0523,0,0,0-8.8546-.7818,16.0069,16.0069,0,0,0-3.9651,1.4715,15.1875,15.1875,0,0,0-5.349,4.9536,14.4333,14.4333,0,0,0-2.0034,4.66,10.5752,10.5752,0,0,0-.2615,1.3839l-.0744.49s-.0694.685-.077,1.9016a14.97,14.97,0,0,0,.9586,4.98,14.4679,14.4679,0,0,0,4.16,5.9814,14.9191,14.9191,0,0,0,16.6526,1.99,14.8764,14.8764,0,0,0,6.1025-5.8866,16.457,16.457,0,0,0,.8531-1.7629l.3237-.8847a3.2642,3.2642,0,0,0,.1413-.438l.0869-.3373.1193-.4664a4.954,4.954,0,0,0,.1482-.6727,7.0018,7.0018,0,0,0,.1043-1.4684A12.5136,12.5136,0,0,0,138.0623,133.693Z"/><path class="cls-10" d="M111.9644,129.7485a14.3209,14.3209,0,0,0,4.22,1.4224,9.9431,9.9431,0,0,0,3.7778-.105,9.3367,9.3367,0,0,0,3.2042-1.4272,11.5665,11.5665,0,0,0,2.6419-2.5829,16.0612,16.0612,0,0,0,1.9595-3.4846,21.2434,21.2434,0,0,0,1.0806-3.4188,14.5577,14.5577,0,0,0-18.9372,8.3945A20.8313,20.8313,0,0,0,111.9644,129.7485Z"/><g class="cls-12"><path class="cls-10" d="M89.1641,103.8424c0,.8368,5.5772,19.8047,13.943,21.4784s12.8275-22.3152,12.8275-22.3152Z"/></g><path class="cls-11" d="M56.8164,119.1841a11.0287,11.0287,0,0,0,2.5168-1.1243l1.9318-1.1459c1.3623-.8015,2.9895-1.7121,4.5554-2.5654,3.1324-1.7084,6.0721-3.0733,6.0721-3.0733s2.9205-1.4126,6.2489-2.6664c.839-.29,1.69-.6107,2.53-.88.84-.241,1.6764-.51,2.4083-.696l1.6174-.3631a13.7479,13.7479,0,0,0,2.633-.762,7.9265,7.9265,0,0,0-2.7764.0351c-.3047.0673-.9144.2023-1.6578.3668-.7476.19-1.5964.4623-2.4519.7084-.8525.2734-1.7135.5979-2.5637.8925-3.3661,1.27-6.3034,2.6944-6.3034,2.6944s-2.9619,1.372-6.1106,3.0875c-1.5742.857-3.2094,1.7717-4.5779,2.5776l-1.9388,1.156A9.2006,9.2006,0,0,0,56.8164,119.1841Z"/><path class="cls-11" d="M119.96,106.7446a11.5672,11.5672,0,0,0,2.5391,1.0684l2.0581.615c1.3769.4232,2.9885.9624,4.5183,1.51,3.0656,1.0858,5.75,2.316,5.75,2.316l1.0568.4765c.6407.326,1.5527.74,2.538,1.2725a40.5944,40.5944,0,0,1,5.7936,3.714l1.242,1.1037c.4373.3545.7323.6717,1.0539.941s.6514.5064,1.06.7914a12.48,12.48,0,0,0-.656-1.1554,4.67,4.67,0,0,0-.9492-1.1159l-1.2825-1.1457a41.06,41.06,0,0,0-5.9125-3.79c-1-.5392-1.9224-.9574-2.572-1.2869l-1.0685-.4807s-2.7125-1.246-5.8-2.3413c-1.5413-.553-3.1644-1.0963-4.5512-1.5219l-1.4254-.43-.6493-.1841A8.8631,8.8631,0,0,0,119.96,106.7446Z"/><path class="cls-11" d="M90.5584,156.0042a5.6893,5.6893,0,0,0,2.2238,1.7039c.1465.0652.3787.139.661.2411a3.4315,3.4315,0,0,0,.4755.1328,6.6188,6.6188,0,0,0,1.1886.1887,5.2787,5.2787,0,0,0,2.7046-.5709,6.9534,6.9534,0,0,0,2.2282-1.8427,14.4949,14.4949,0,0,0,2.3436-4.3844c.2162-.6209.364-1.1407.4569-1.5084l.06-.2477.0063-.0281.0031-.0139.0015-.0069,0-.0017c-1.4641-.19-.4059-.0517-.7327-.0937l0,.0035-.0013.052-.0021.09.0014.1564.007.3134v0a12.0911,12.0911,0,0,0,.29,2.2113,7.6528,7.6528,0,0,0,2.4584,4.2647,7.1836,7.1836,0,0,0,5.1748,1.1535c.7455-.104,1.34-.2718,1.6453-.3271a7.5638,7.5638,0,0,0,2.5085-1.2071,15.0122,15.0122,0,0,0-2.6871.488c-.2889.0482-.8574.2078-1.5555.3054a6.4556,6.4556,0,0,1-4.6275-1.0007,6.9348,6.9348,0,0,1-2.1927-3.842,11.3815,11.3815,0,0,1-.2741-2.0728v0l-.0066-.29-.0013-.1438.0018-.0743.001-.0427,0-.0028c-.3268-.0425.7316.0932-.7327-.0956l0,.0013-.0012.0054-.0024.011-.0053.0231-.0559.23c-.0881.3477-.231.8488-.4392,1.4453a13.7934,13.7934,0,0,1-2.2169,4.1538,5.2142,5.2142,0,0,1-4.3189,2.1437,5.8863,5.8863,0,0,1-1.05-.1674,2.9531,2.9531,0,0,1-.4276-.1183c-.257-.0932-.4677-.1572-.6032-.2161C92.059,156.602,91.4843,156.3393,90.5584,156.0042Z"/><circle class="cls-6" cx="83.4475" cy="153.3542" r="0.9762"/><path class="cls-6" d="M81.7743,158.0962a.976.976,0,1,1-.976-.9763A.9762.9762,0,0,1,81.7743,158.0962Z"/><path class="cls-6" d="M89.0247,151.82a.9761.9761,0,1,1-.9761-.9763A.9762.9762,0,0,1,89.0247,151.82Z"/><path class="cls-6" d="M87.3515,156.5621a.976.976,0,1,1-.976-.9764A.9761.9761,0,0,1,87.3515,156.5621Z"/><path class="cls-6" d="M115.9346,153.3542a.976.976,0,1,1-.976-.9763A.9762.9762,0,0,1,115.9346,153.3542Z"/><path class="cls-6" d="M119.0021,157.2594a.9761.9761,0,1,1-.976-.9763A.9762.9762,0,0,1,119.0021,157.2594Z"/><path class="cls-6" d="M118.0261,149.8675a.9761.9761,0,1,1-.9761-.9763A.9762.9762,0,0,1,118.0261,149.8675Z"/><path class="cls-6" d="M120.2569,153.4937a.976.976,0,1,1-.976-.9763A.9762.9762,0,0,1,120.2569,153.4937Z"/><path class="cls-11" d="M65.461,170.5091a7.75,7.75,0,0,0,2.18,1.7141c.134.08.3408.1873.6.3161l.4218.2135,1.0663.538,1.2115.5492a67.6759,67.6759,0,0,0,11.3453,3.8842c.99.261,1.99.4264,2.9541.6378.968.1931,1.9053.4193,2.8254.5214l2.6217.368,1.2024.1687,1.1243.0871,3.4449.249a10.9642,10.9642,0,0,0,1.2888.0565l4.7441.01c1.44-.0445,3.1315-.2055,4.9758-.3236l1.4094-.1,1.4445-.2078,2.9884-.4379a61.447,61.447,0,0,0,6.0477-1.2025c.99-.23,1.9733-.4287,2.916-.6722l2.6553-.8137,1.61-.4961a9.9416,9.9416,0,0,0,2.5036-1.1547,10.1336,10.1336,0,0,0-2.7273.4484l-1.5988.4872-2.635.8078c-.9352.2414-1.91.4383-2.8923.6663a60.8671,60.8671,0,0,1-5.9969,1.1933l-2.9624.4348-1.4318.2068-1.3967.0992c-1.8273.117-3.5036.2778-4.93.3225l-4.6995-.0085a10.7816,10.7816,0,0,1-1.2764-.0565l-3.4114-.2479-1.1134-.0864-1.19-.1676-2.5954-.3651c-.9111-.1009-1.8385-.3255-2.7965-.5168-.954-.21-1.9443-.373-2.9234-.6316a67.0345,67.0345,0,0,1-11.2161-3.84l-1.1958-.5415-1.05-.53-.4161-.2092c-.2554-.1262-.46-.2311-.5915-.3078A14.3028,14.3028,0,0,0,65.461,170.5091Z"/><path class="cls-10" d="M95.02,144.8466h15.0584l-5.493,5.9173a2.4883,2.4883,0,0,1-3.5835.0663Z"/><path class="cls-9" d="M136.2576,218.2078a296.023,296.023,0,0,0,23.1453-77.8243c6.4138-43.5146,10.039-73.64,2.51-77.2663s-11.1543,12.8312-21.4721,63.3193-11.4333,52.1618-11.4333,52.1618Z"/><path class="cls-11" d="M165.5378,68.417a10.0335,10.0335,0,0,0-.9089,2.6066l-.2332,1.1351-.7328,3.6087s-.4341,2.1235-.6748,3.3007l-.3349,1.6572A10.0311,10.0311,0,0,0,162.47,83.48a10.0333,10.0333,0,0,0,.909-2.6066l.34-1.6562.67-3.3017s.5181-2.5368.7369-3.6079l.2292-1.136A10.0334,10.0334,0,0,0,165.5378,68.417Z"/><path class="cls-11" d="M163.028,63.675a10.0334,10.0334,0,0,0-1.1406,2.5138l-.3349,1.1095-.9342,3.1219-.8588,2.855-.4833,1.62a10.0282,10.0282,0,0,0-.431,2.7266,10.0314,10.0314,0,0,0,1.1407-2.5137c.0814-.27.2369-.7855.4881-1.6188.3047-1.0188.8541-2.8564.8541-2.8564l.9381-3.1208.3309-1.1107A10.03,10.03,0,0,0,163.028,63.675Z"/><path class="cls-11" d="M158.8452,62.5593a10.0285,10.0285,0,0,0-1.0488,2.5534l-.2944,1.1209-.649,2.4967-.598,2.2831-.4243,1.6366a10.0333,10.0333,0,0,0-.3319,2.74,10.0284,10.0284,0,0,0,1.0489-2.5535l.4291-1.6354.5931-2.2843.653-2.4957.29-1.1219A10.0353,10.0353,0,0,0,158.8452,62.5593Z"/><path class="cls-11" d="M150.08,82.0559a10.03,10.03,0,0,0-.9453,2.5935c-2.4648,11.2929-14.8093,67.8488-14.8093,67.8488s-.5227,2.3941-1.6068,7.3589c-.542,2.4824-1.2243,5.6076-2.0517,9.3975l-1.3506,6.1862-.372,1.7043-.1913.876-.101.4627a.35.35,0,0,0-.0023.2244l.0234.1277.0413.2261q.3316,1.812.6869,3.7531c1.5256,8.3321,5.0012,27.3146,6,32.7686a10.0315,10.0315,0,0,0,.8569,2.6241,10.03,10.03,0,0,0-.128-2.7575c-.9981-5.4541-4.4718-24.4369-5.9966-32.7691q-.3554-1.9413-.6871-3.7532l-.0414-.226-.0179-.0975v0l.0928-.4252.1912-.876.3719-1.7043q.73-3.3453,1.35-6.1864l2.0507-9.3976,1.6057-7.3592,14.8094-67.8488A10.0327,10.0327,0,0,0,150.08,82.0559Z"/><path class="cls-9" d="M56.8164,218.2078A296.0253,296.0253,0,0,1,33.671,140.3835c-6.4137-43.5146-10.0389-73.64-2.51-77.2663s9.2178,13.2662,21.4722,63.3193c10.0389,41.0042,12.8275,44.0726,12.8275,44.0726Z"/><path class="cls-11" d="M27.5361,68.4171a10.0288,10.0288,0,0,0,.1829,2.7543l.2292,1.136.7368,3.6079.67,3.3017.34,1.6562a10.03,10.03,0,0,0,.9088,2.6066,10.027,10.027,0,0,0-.1828-2.7545l-.3349-1.6572-.6747-3.3007-.7328-3.6087-.2333-1.1351A10.0314,10.0314,0,0,0,27.5361,68.4171Z"/><path class="cls-11" d="M30.0458,63.6751a10.0335,10.0335,0,0,0,.431,2.7265l.331,1.1107.9381,3.1208L32.6,73.49l.4882,1.6188a10.0278,10.0278,0,0,0,1.1406,2.5137,10.0324,10.0324,0,0,0-.4309-2.7266l-.4833-1.62-.8589-2.855-.9341-3.122-.3349-1.1094A10.0313,10.0313,0,0,0,30.0458,63.6751Z"/><path class="cls-11" d="M34.2287,62.5593a10.0317,10.0317,0,0,0,.3319,2.74l.29,1.1219.653,2.4957.5932,2.2843.4291,1.6354a10.0282,10.0282,0,0,0,1.0487,2.5535,10.0291,10.0291,0,0,0-.3318-2.74l-.4242-1.6366L36.221,68.73l-.649-2.4967-.2944-1.1209A10.0322,10.0322,0,0,0,34.2287,62.5593Z"/><path class="cls-11" d="M51.7969,123.0893a10.0247,10.0247,0,0,0,.3527,2.7378c.905,3.3668,3.6238,13.4806,6.1164,22.7528,1.6427,6.1061,3.2108,11.9351,4.3682,16.2375l1.3863,5.1525.2208.8206c.0088.0331.0026.0082.0043.0171l-.0266.1616-.0461.28-.0842.5119-.1584.962c-.0829.5036-5.8641,35.6138-7.035,42.7252a10.0318,10.0318,0,0,0-.079,2.7594,10.0308,10.0308,0,0,0,.81-2.639c1.1709-7.1114,6.9521-42.2217,7.0351-42.7253l.1583-.9618.0844-.5119.0462-.28.0266-.1616A1.2338,1.2338,0,0,0,65,170.7568l-.0428-.1588-.2205-.8207c-.3312-1.2318-.8069-3.0015-1.3851-5.1528l-4.3654-16.2382c-2.4945-9.2718-5.2153-19.385-6.121-22.7517A10.0385,10.0385,0,0,0,51.7969,123.0893Z"/><path class="cls-11" d="M118.4443,151.5412a10.028,10.028,0,0,0,2.7389-.345l19.93-5.2993,18.8428-5.01a10.03,10.03,0,0,0,2.5484-1.0609,10.0354,10.0354,0,0,0-2.7388.3448l-18.8428,5.01-19.93,5.2993A10.0313,10.0313,0,0,0,118.4443,151.5412Z"/><path class="cls-11" d="M118.4443,153.4938a10.0281,10.0281,0,0,0,2.7582.1117L141.185,151.72s15.7613-1.4873,18.9094-1.7845a10.0268,10.0268,0,0,0,2.6886-.6258,10.0358,10.0358,0,0,0-2.7583-.1118l-18.9093,1.7844-19.9825,1.8857A10.0324,10.0324,0,0,0,118.4443,153.4938Z"/><path class="cls-11" d="M118.4443,154.8884a10.03,10.03,0,0,0,2.709.5306c3.18.187,19.1,1.1238,19.1,1.1238l18.1039,1.0652a10.0282,10.0282,0,0,0,2.7525-.2091,10.0311,10.0311,0,0,0-2.709-.53l-18.1038-1.0653-19.1-1.1238A10.0371,10.0371,0,0,0,118.4443,154.8884Z"/><path class="cls-11" d="M78.8463,150.4253a10.0349,10.0349,0,0,0-2.5484-1.0609l-19.93-5.2993-18.8427-5.01a10.0294,10.0294,0,0,0-2.7389-.345,10.0312,10.0312,0,0,0,2.5485,1.0611l18.8427,5.01,19.93,5.2994A10.0345,10.0345,0,0,0,78.8463,150.4253Z"/><path class="cls-11" d="M78.8463,152.3779a10.0324,10.0324,0,0,0-2.6886-.6258l-19.9825-1.8856L37.2659,148.082a10.032,10.032,0,0,0-2.7583.1118,10.03,10.03,0,0,0,2.6887.6259l18.9093,1.7844L76.0881,152.49A10.0356,10.0356,0,0,0,78.8463,152.3779Z"/><path class="cls-11" d="M78.8463,153.7726a10.0288,10.0288,0,0,0-2.7525-.2091l-19.1,1.1239L38.89,155.7526a10.0273,10.0273,0,0,0-2.709.53,10.0358,10.0358,0,0,0,2.7525.2092l18.1039-1.0653,19.1-1.1238A10.0333,10.0333,0,0,0,78.8463,153.7726Z"/></g></g></svg>