<svg xmlns="http://www.w3.org/2000/svg" xmlns:xlink="http://www.w3.org/1999/xlink" viewBox="0 0 200 200"><defs><style>.cls-1{fill:none;}.cls-2{fill:#6bc1bc;}.cls-3{clip-path:url(#clip-path);}.cls-4{fill:#535569;}.cls-5{fill:#67969a;}.cls-6{fill:#50485e;}.cls-7{fill:#eada7f;}.cls-8{fill:#291806;}.cls-9{fill:#3f2c42;}</style><clipPath id="clip-path"><rect class="cls-1" y="-0.1186" width="200" height="200.1186"/></clipPath></defs><g id="Fondos"><rect class="cls-2" y="-0.1186" width="200" height="200.2372"/></g><g id="Gatos"><g class="cls-3"><path class="cls-4" d="M196.8967,88.37c-3.6872-11.21-10.9242-19.6767-19.5681-27.4208-6.5546-5.8756-17.5967-17.2078-8.8879-26.0155,3.3-3.3363,8.827-5.3743,13.4712-4.1276,1.9272.5187,3.8261,1.6493,4.1008,3.7939.1257.9722-.0745,2.7338-1.1306,3.1152-4.7873,1.7348-2.7207,9.4446,2.1218,7.6905,5.3684-1.9462,7.868-7.4369,6.7012-12.9257-1.2239-5.75-6.5733-9.1015-12.0982-9.7876-11.4714-1.4261-23.7031,6.9356-24.2084,18.9481-.5969,14.2166,12.4283,22.2617,21.0644,31.2718,8.1122,8.4646,13.3929,20.018,12.7142,31.882a31.5475,31.5475,0,0,1-3.0559,11.6865,53.4149,53.4149,0,0,0-1.5786-7.7117,58.4683,58.4683,0,0,0-2.8672-7.9079A59.797,59.797,0,0,0,98.6678,73.3351c-5.3113,3.1093-10.0815,6.9987-15.0494,10.5905-3.3632,2.4269-9.17,7.8068-13.6581,6.6859-7.6374-1.916-9.681-13.6007-13.4712-19.179a29.8325,29.8325,0,0,0-4.7851-5.4944c-.78-.6958-1.3611-1.4338-2.4556-1.22a3.42,3.42,0,0,0-2.2419,2.1714,62.6249,62.6249,0,0,0-3.92,9.8526c-.3968,1.2925-.5378,2.909-1.3764,4.0035a12.6862,12.6862,0,0,1-2.74,2.4843,24.1365,24.1365,0,0,1-3.3229,1.7881c-.9226.44-1.7158,1.1075-2.5966,1.5326-1.6624.81-3.79.185-5.3228-.6384-1.6472-.8942-3.4088-1.6035-5.0562-2.5414-1.3343-.7663-3.2067-1.4755-4.259-.3393a3.5047,3.5047,0,0,0-.6939,1.916,84.0238,84.0238,0,0,0-.1276,22.8128,59.5994,59.5994,0,0,0,.0283,5.9766,47.0416,47.0416,0,0,0-16.6107-8.9717c-2.9381-.8368-6.19-1.3059-9.0139-.1126-2.8255,1.2067-4.8977,4.5852-3.7063,7.4238.8808,2.1009,3.182,3.2372,5.4087,3.72,2.2307.4688,4.5565.4535,6.73,1.1362,6.1466,1.9313,9.2693,8.5314,12.8041,13.9266a48.9965,48.9965,0,0,0,4.7318,6.015,51.3573,51.3573,0,0,0,8.3863,7.4715h75.214c-.7988,1.5614-1.2448,3.2886.2573,4.2474,1.649,1.0543,3.9655.8275,5.8262,1.0982q4.5868.6663,9.197,1.1572a241.9855,241.9855,0,0,0,46.0505.4978c5.7234-.4863,11.7227-1.2869,16.3345-4.715,4.4879-3.3342,6.9643-8.6742,8.2837-14.1667.16-.6722.2975-1.3462.4251-2.018a37.9349,37.9349,0,0,0,7.4085-10.6563A42.7928,42.7928,0,0,0,196.8967,88.37Z"/><path class="cls-5" d="M179.2293,146.6309c-4.6118,3.4281-10.6111,4.2287-16.3345,4.715a241.9855,241.9855,0,0,1-46.05-.4978q-4.61-.489-9.197-1.1572c-1.8607-.2707-4.1772-.0439-5.8262-1.0982-1.5021-.9588-1.0561-2.686-.2573-4.2474H26.35a51.3573,51.3573,0,0,1-8.3863-7.4715c-4.53,1.3689-8.0779,3.6461-8.1618,7.4943-.0627,2.81,2.6368,4.8519,5.1972,6.0072,14.5023,6.5429,31.283.6234,47.1908.7569,12.6494.1048,24.887,4.11,37.2216,6.9148,25.53,5.805,53.1372,6.3275,77.08-4.2668,6.7071-2.9683,13.9381-8.3635,13.3243-15.6729a10.8344,10.8344,0,0,0-2.303-5.6431C186.1936,137.9567,183.7172,143.2967,179.2293,146.6309Z"/><path class="cls-6" d="M-6.3022,115.796c2.2307.4688,4.5565.4535,6.73,1.1362,6.1466,1.9313,9.2693,8.5314,12.8041,13.9266a48.9965,48.9965,0,0,0,4.7318,6.015,51.3573,51.3573,0,0,0,8.3863,7.4715H48.1845a7.0257,7.0257,0,0,1-1.5632-3.0962,10.8427,10.8427,0,0,1,3.1249-9.79c3.6049-3.4967,8.8592-4.8463,13.9113-5.6718a54.9649,54.9649,0,0,1,10.6114-.8169,38.3877,38.3877,0,0,0-12.6016-.7351c-6.3409.616-12.5084,3.5441-18.7292,3.9352-4.9339.3106-9.62-1.8324-14.3308-2.9209a55.102,55.102,0,0,0-9.7821-1.7024,63.4645,63.4645,0,0,1-1.2052-9.8108,47.0416,47.0416,0,0,0-16.6107-8.9717c-2.9381-.8368-6.19-1.3059-9.0139-.1126-2.8255,1.2067-4.8977,4.5852-3.7063,7.4238C-10.83,114.1772-8.5289,115.3135-6.3022,115.796Z"/><path class="cls-4" d="M42.3243,110.94l.0037.0115c.0019-.0069-.0037-.0134-.0018-.0209l.0018-.0306Z"/><path class="cls-7" d="M57.6485,95.4824q-.2746.9468-.5493,1.8895c-.0723.2457-.1257.5526.07.7167a.6706.6706,0,0,0,.5817.0421c.4154-.0954.8271-.1928,1.241-.29a9.3436,9.3436,0,0,1,.1887,5.8929,8.62,8.62,0,0,0,1.0867-1.6109,7.77,7.77,0,0,0,.1984-6.7507,6.6081,6.6081,0,0,0-5.4907-3.7712,6.5326,6.5326,0,0,0-3.5385.9248,9.3444,9.3444,0,0,1,5.6681,2.3526C57.2976,95.0707,57.4769,95.2728,57.6485,95.4824Z"/><path class="cls-8" d="M55.0822,106.5763a9.77,9.77,0,0,0,4.0989-2.8427,9.3436,9.3436,0,0,0-.1887-5.8929c-.4139.0972-.8256.1946-1.241.29a.6706.6706,0,0,1-.5817-.0421c-.1962-.1641-.1428-.471-.07-.7167q.2746-.9436.5493-1.8895c-.1716-.21-.3509-.4117-.5434-.6042a9.3444,9.3444,0,0,0-5.6681-2.3526,9.28,9.28,0,0,0-3.4449,3.5194c-1.23,2.2058-2.32,6.2913-.9722,8.7067C48.4974,107.4016,52.6135,107.478,55.0822,106.5763Z"/><path class="cls-7" d="M35.8022,102.9464a6.8211,6.8211,0,0,0-1.4126,1.7195.48.48,0,0,0,.3584.7245c.5526.059,1.3305.1239,1.9387.1582a12.15,12.15,0,0,1,.0477,2.98,4.6236,4.6236,0,0,1-.6634,1.8988,5.2413,5.2413,0,0,0,2.65-4.3507c-.0973-2.3888-2.3982-4.89-4.442-6.3256a10.0213,10.0213,0,0,1,1.731,3.0448Z"/><path class="cls-8" d="M22.3559,105.0929a7.7682,7.7682,0,0,0,3.6948,5.6566,9.4554,9.4554,0,0,0,6.7451,1.0922,9.26,9.26,0,0,0,3.2752-1.4144,4.6236,4.6236,0,0,0,.6634-1.8988,12.15,12.15,0,0,0-.0477-2.98c-.6082-.0343-1.3861-.0992-1.9387-.1582a.48.48,0,0,1-.3584-.7245,6.8211,6.8211,0,0,1,1.4126-1.7195l.2077-.1506a10.0213,10.0213,0,0,0-1.731-3.0448,11,11,0,0,0-.93-.5929c-2.5336-1.4279-5.87-1.775-8.2778-.1447A6.6067,6.6067,0,0,0,22.3559,105.0929Z"/><path class="cls-9" d="M37.7793,114.8313c-.7074-.2842-1.0143.8615-.3166,1.1419,1.3268.53,2.9016-.1678,4.1293-.6959a5.2647,5.2647,0,0,0,2.4-1.9044,1.6758,1.6758,0,0,0,.6653-.1173,8.51,8.51,0,0,0,8.8479-1.8867.592.592,0,0,0-.8368-.8368,7.3094,7.3094,0,0,1-7.052,1.79c.0287-.0668.04-.1354.0649-.204a1.8776,1.8776,0,0,0,.4594-.7152,3.1309,3.1309,0,0,0,.0686-1.3421l-.1126-.5243a.7688.7688,0,0,0-.267-.242.8816.8816,0,0,0-.41-.2536l-.0191-.0009a1.49,1.49,0,0,0-1.3611.0945,2.1434,2.1434,0,0,0-.6693.6041A1.4374,1.4374,0,0,0,40.9,110.9535a2.1985,2.1985,0,0,0,.9514,1.4983,5.6727,5.6727,0,0,0,.9207.5739,4.7745,4.7745,0,0,1-1.9045,1.2776C39.9411,114.6729,38.763,115.224,37.7793,114.8313Zm4.5487-3.88-.0037-.0115.0037-.04-.0018.0306C42.3243,110.9382,42.33,110.9447,42.328,110.9516Z"/><path class="cls-6" d="M49.2827,80.4136c2.2438-.21,7.1.6768,8.1749-2.1046.553-1.4317-1.0676-3.96-1.7959-5.1342a16.0081,16.0081,0,0,0-4.1826-4.52,1.9757,1.9757,0,0,0-1.5483-.5149,1.9681,1.9681,0,0,0-1.1321,1.207,15.8867,15.8867,0,0,0-1.407,4.93,15.5067,15.5067,0,0,0-.0879,2.3795,12.6864,12.6864,0,0,0,.5586,2.7472A1.192,1.192,0,0,0,49.2827,80.4136Z"/><path class="cls-6" d="M18.9968,97.0266a12.8789,12.8789,0,0,0,3.3666-2.2628,4.3557,4.3557,0,0,0,1.3249-3.6892,6.4653,6.4653,0,0,0-1.9462-3.06l-2.4384-2.5775-.3472-.1812-.2476.4117a95.06,95.06,0,0,0-.7036,12.5636C18.44,97.835,18.4743,97.3032,18.9968,97.0266Z"/><path class="cls-6" d="M187.5778,117.6013c.1925-.3681.364-.7464.5434-1.121a53.4149,53.4149,0,0,0-1.5786-7.7117,58.4683,58.4683,0,0,0-2.8672-7.9079c-1.4625,1.1475-2.8826,2.3087-4.3086,3.4584A27.7332,27.7332,0,0,1,187.5778,117.6013Z"/><path class="cls-6" d="M102.9916,142.002a22.3941,22.3941,0,0,1,13.7039-9.5285c.5412-.1219,6.2264-.9569,6.2779-.4042A34.3277,34.3277,0,0,1,139.28,100.0027a32.82,32.82,0,0,1,16.0655-4.5259,23.4077,23.4077,0,0,0-21.4268,1.9521,46.7061,46.7061,0,0,0-11.7189,10.9262c-3.2563,4.0665-5.1816,8.0032-7.5857,12.5043-1.3611,2.5529-3.3554,7.0557-6.1884,8.2609-2.7568,1.1706-7.4506.6918-10.4208.9494-2.7054.2333-5.4143.403-8.1272.5393a15.7717,15.7717,0,0,1,2.9263,3.487,13.124,13.124,0,0,1,1.6053,9.63c-.0571.2193-.0992.4252-.1563.62h7.3113A26.4278,26.4278,0,0,1,102.9916,142.002Z"/></g></g></svg>