<svg xmlns="http://www.w3.org/2000/svg" xmlns:xlink="http://www.w3.org/1999/xlink" viewBox="0 0 200 200"><defs><style>.cls-1{fill:none;}.cls-2{fill:#9fc6fb;}.cls-3{clip-path:url(#clip-path);}.cls-4{fill:#79b0fa;}.cls-5{fill:#d17a1c;}.cls-6{fill:#e2881b;}.cls-7{fill:#b76b18;}.cls-8{fill:#593e39;}.cls-9{fill:#e5cac6;}.cls-10{fill:#f2ae25;}</style><clipPath id="clip-path"><rect class="cls-1" width="200" height="200.1186"/></clipPath></defs><g id="Fondos"><rect class="cls-2" y="-0.1186" width="200" height="200.2372"/></g><g id="Gatos"><g class="cls-3"><path class="cls-4" d="M227.6988,138.6753c0,4.3507-51.5029,7.8776-115.0349,7.8776s-115.035-3.5269-115.035-7.8776,51.503-7.8779,115.035-7.8779S227.6988,134.3245,227.6988,138.6753Z"/><path class="cls-5" d="M156.2218,94.676c4.5012-2.7666,9.3283-5.2364,14.5618-5.9618s10.9719.5385,14.6375,4.3439c2.9475,3.06,4.2892,7.4044,7.2839,10.4185a18.46,18.46,0,0,0,7.6387,4.2938,33.5512,33.5512,0,0,0,31.0523-6.1137c2.2944-1.9157,4.7593-4.3017,7.7325-3.9942,3.5168.3637,5.5356,4.6755,4.6535,8.099s-3.747,5.96-6.7008,7.9026c-12.5725,8.2686-31.1261,10.4056-45.3366,5.4558-7.5343-2.6243-11.5977-15.1064-18.78-14.0575-4.5862.67-7.2086,5.5542-8.6477,9.3636-1.358,3.5948-3.4038,5.3814-7.2453,5.4889s-7.8783-1.3644-10.1342-4.4751C141.5742,108.0451,150.2693,98.3347,156.2218,94.676Z"/><path class="cls-5" d="M70.0754,87.755A25.6669,25.6669,0,0,1,72.2868,81.12a18.2225,18.2225,0,0,1,9.2927-8.094,26.2068,26.2068,0,0,1,12.3543-1.579,4.4694,4.4694,0,0,1,2.058.5659,1.674,1.674,0,0,1,.7739,1.8448,1.0479,1.0479,0,0,1-1.7132.387c.8078.067,1.4717.5452,1.3181,1.3411-.0731.5334-1.0753.3144-1.6052.2829.9237.0039,1.41.5818,1.2418,1.3-.2539,1.0976-7.4221.4444-10.5457,2.5431C83.2307,81.21,82.3,84.2588,82.3,86.9461c0,6.5963,6.134,15.3353,6.9871,18.1457.5646,1.8595-5.5372,7.5472-7.015,8.8089a7.6151,7.6151,0,0,1-3.1841,1.4333c-2.9575.7283-6.38.7345-8.7129-1.2234-3.5086-2.9447-2.6278-7.721-2.1472-11.6947C68.8222,97.5028,69.02,92.6132,70.0754,87.755Z"/><path class="cls-6" d="M65.3282,138.5569c9.8757-.1469,19.7516-.2936,29.6256-.5373,14.9973-.37,30.1236-.9823,44.67-4.8611,4.8968-1.3058,9.9378-3.1293,13.3512-7.0658,2.9891-3.4472,4.3709-8.1259,5.1038-12.7388.683-4.299.86-8.8228-.5583-12.9158a21.5985,21.5985,0,0,0-9.1-10.8091c-10.0655-6.3967-22.8083-6.116-34.1814-3.0242S92.26,95.3229,81.101,99.19a112.5908,112.5908,0,0,1-19.4482,4.854c-7.0784,1.1078-14.2621,1.5359-21.245,3.188S26.5005,111.9005,21.5345,117.35c-3.68,4.0379-8.7913,15.46-1.5274,18.4507,4.1246,1.6979,9.3389,1.7437,13.7031,2.1332,4.9793.4443,9.9759.64,14.9716.71C54.2305,138.7221,59.78,138.6394,65.3282,138.5569Z"/><path class="cls-6" d="M153.2844,135.3353l66.9013-1.77c1.1812-.0313,2.5248-.14,3.2518-1.0717s-.143-2.7588-1.226-2.2862a1.2768,1.2768,0,1,0,.0785-2.443,1.39,1.39,0,0,0,1.1428-2.1371c-6.0838.577-12.2359,1.1529-18.2852.2863-5.3789-.7706-10.5247-2.6607-15.6237-4.5389-5.66-2.0847-11.5354-4.3081-15.6749-8.6955-1.7366-1.8406-3.1093-4.0091-4.9273-5.7691a19.2356,19.2356,0,0,0-12.5178-5.04,31.6275,31.6275,0,0,0-13.4157,2.6977,47.1579,47.1579,0,0,0-21.0617,17.3513c-1.6723,2.5192-3.1442,5.3905-2.9354,8.4073.4965,7.1715,7.6885,6.1419,12.6593,5.8348C138.8541,135.7161,146.07,135.5261,153.2844,135.3353Z"/><path class="cls-6" d="M116.67,84.2925a27.3428,27.3428,0,0,1-.2756-10.1673,25.0092,25.0092,0,0,1,7.4-12.87,62.2568,62.2568,0,0,1,12.2039-8.79c8.0094-4.7293,16.484-9.0816,25.6873-10.43a2.7707,2.7707,0,0,1,2.3933.4173c.5951.5952.1117,1.9625-.6882,1.7012a.9753.9753,0,1,1,.3025,1.6453,1.5759,1.5759,0,0,1,2.0379.67,11.5585,11.5585,0,0,1-4.0418,1.6512A29.6967,29.6967,0,0,0,150.32,54.436a16.5474,16.5474,0,0,0-4.4942,5.9394,19.07,19.07,0,0,0-1.062,7.49A40.7816,40.7816,0,0,0,146.2577,78.69c1.9437,6.6525,6.0161,12.5039,10.6955,17.6161s10,9.59,14.9938,14.3953a29.0905,29.0905,0,0,1,3.8851,4.3265,3.9557,3.9557,0,0,1,.893,2.4215c-.12,1.7527-2.0895,2.6719-3.76,3.2175-7.63,2.4921-15.7081,4.8626-23.5735,3.2619a29.7466,29.7466,0,0,1-15.5306-9.19c-4.0931-4.4061-6.5351-9.587-9.3652-14.796C121.5534,94.5268,117.8723,90.6164,116.67,84.2925Z"/><path class="cls-6" d="M-8,107.8458a51.2545,51.2545,0,0,1,14.7715-.9871,5.4975,5.4975,0,0,1,2.6605.6993,5.4167,5.4167,0,0,1,1.8751,3.5806,35.545,35.545,0,0,1,.43,12.0631c-.6515,4.6964-2.8551,3.8356-6.0194,1.37A49.12,49.12,0,0,1-8,107.8458Z"/><path class="cls-6" d="M41.5719,72.429A51.2573,51.2573,0,0,0,38.694,86.9513a5.4972,5.4972,0,0,0,.3516,2.7281,5.418,5.418,0,0,0,3.31,2.32,35.5513,35.5513,0,0,0,11.9079,1.977c4.7411-.0423,4.1708-2.3384,2.1324-5.7934A49.1213,49.1213,0,0,0,41.5719,72.429Z"/><path class="cls-7" d="M59.8367,134.8491c4.9131-1.3126,9.861-2.8914,14-5.8468s7.4044-7.514,7.6735-12.5925a17.02,17.02,0,0,0-2.2228-8.8329,13.5416,13.5416,0,0,0-4.686-5.34,16.83,16.83,0,0,0-6.6986-1.9207,80.3929,80.3929,0,0,0-35.32,3.4859c-5.6836,1.8952-11.501,4.7346-14.5066,9.9175a22.7588,22.7588,0,0,0-2.4635,7.3928,24.179,24.179,0,0,0,.1441,11.0016c.9665,3.3223,2.1477,4.2757,5.3515,4.9668a69.9141,69.9141,0,0,0,24.6185.7014A118.0472,118.0472,0,0,0,59.8367,134.8491Z"/><path class="cls-6" d="M21.9,89.6636c-4.1346,1.34-8.38,5.9119-11.1006,9.3012A22.9958,22.9958,0,0,0,6.131,112.66,42.5188,42.5188,0,0,0,8.5783,127.103a13.3942,13.3942,0,0,0,2.7323,5.2582c2.08,2.1666,7.9352,4.612,10.92,4.95,17.2,1.95,21.4654.7089,31.3971-4.2523,5.9717-2.983,9.5517-8.8375,14.1124-13.7119a25.7991,25.7991,0,0,0,4.7328-6.426A15.15,15.15,0,0,0,70.524,97.2077c-4.3826-5.3369-12.6244-9.38-19.511-9.8949C41.5386,86.604,31.0537,86.6958,21.9,89.6636Z"/><path class="cls-8" d="M36.7308,113.3545a1.7619,1.7619,0,0,0-.4608,1.3989,1.7819,1.7819,0,0,0,.6083.9537,5.588,5.588,0,0,0,3.32,1.173,24.6385,24.6385,0,0,1,3.5658.3185,22.5142,22.5142,0,0,0,.946-4.2362,5.2054,5.2054,0,0,0-.0157-1.83,2.4384,2.4384,0,0,0-1.0658-1.61,2.8417,2.8417,0,0,0-3.3651,1.1732,3.0345,3.0345,0,0,0-.5132,1.5186A3.28,3.28,0,0,0,36.7308,113.3545Z"/><path class="cls-8" d="M53.6768,118.85a.2617.2617,0,0,0-.36.046,5.973,5.973,0,0,1-3.9525,2.0756,5.3931,5.3931,0,0,1-4.2358-2.0993c-.0792-.0907-.1558-.1833-.2317-.2766-.0272-.0563-.054-.1129-.0816-.1689a18.1973,18.1973,0,0,0-1.9384-3.0965c-.2023-.2605-.6137.0464-.4107.3077.1136.1463.224.2949.333.4445a.2722.2722,0,0,0-.0008.3075,22.5177,22.5177,0,0,0,1.6563,2.4645,16.9012,16.9012,0,0,1,.89,2.2607,4.4224,4.4224,0,0,1,.2424,1.3827,4.5579,4.5579,0,0,1-.2593,1.3278,8.69,8.69,0,0,1-3.5613,4.5926.2588.2588,0,0,0-.0515.3591.2614.2614,0,0,0,.3592.0516,9.191,9.191,0,0,0,3.6186-4.4952,6.36,6.36,0,0,0,.3775-1.4362,4.08,4.08,0,0,0-.1092-1.4735,12.1593,12.1593,0,0,0-.4673-1.4639,6.8478,6.8478,0,0,0,1.1611.8452,5.0177,5.0177,0,0,0,2.5.6844,5.3832,5.3832,0,0,0,2.3408-.5758,7.38,7.38,0,0,0,2.2267-1.7039A.2593.2593,0,0,0,53.6768,118.85Z"/><path class="cls-8" d="M17.3724,118.25a6.4226,6.4226,0,0,1,3.8122-3.9175,9.0266,9.0266,0,0,1,5.5552-.2037,6.3687,6.3687,0,0,1,4.2447,3.0437,3.5148,3.5148,0,0,0-2.029-.7478,9.9628,9.9628,0,0,0-7.0905,1.4917c-1.9938,1.4646-3.1171,4.2577-2.1463,6.5333-.3373-.7907-1.6487-1.5522-2.0882-2.47A5.1856,5.1856,0,0,1,17.3724,118.25Z"/><path class="cls-8" d="M44.2941,98.8258a6.4231,6.4231,0,0,1,3.8123-3.9173,9.0267,9.0267,0,0,1,5.5552-.2039,6.3687,6.3687,0,0,1,4.2446,3.0437,3.5143,3.5143,0,0,0-2.029-.7478,9.9625,9.9625,0,0,0-7.09,1.4917c-1.9937,1.4645-3.1171,4.2579-2.1462,6.5333-.3375-.7907-1.6487-1.5522-2.0882-2.47A5.1858,5.1858,0,0,1,44.2941,98.8258Z"/><path class="cls-7" d="M11.4785,99.8034c-.1716-.3576-.3436-.7258-.4893-1.1009-.064.079-.1281.1579-.19.2356A19.5594,19.5594,0,0,0,8.276,103.06,37.0554,37.0554,0,0,0,13.55,107.513a24.4422,24.4422,0,0,0,6.2413,3.3425C15.7738,108.4544,13.5026,104.0232,11.4785,99.8034Z"/><path class="cls-7" d="M27.2514,108.4842c-3.6722-4.5412-5.01-10.6188-8.65-15.1855-.3326-.4171-.6871-.828-1.0168-1.2528a36.2683,36.2683,0,0,0-4.912,4.6726C18.583,98.8532,21.7794,105.3809,27.2514,108.4842Z"/><path class="cls-7" d="M25.1886,88.7051q-1.6682.41-3.2891.9316a12.1376,12.1376,0,0,0-2.3754,1.0949,5.4141,5.4141,0,0,1,.594.5039,14.4989,14.4989,0,0,1,2.2843,3.3761,57.929,57.929,0,0,0,8.4676,11.47c-1.1992-5.4114-2.42-10.8853-4.8924-15.8463C25.7218,89.7218,25.453,89.2144,25.1886,88.7051Z"/><path class="cls-7" d="M33.5837,88.4063q-.2342-.5331-.5093-1.0508c-1.3777.1459-2.7473.3307-4.102.5632a39.7642,39.7642,0,0,1,6.4871,11A26.6706,26.6706,0,0,0,33.5837,88.4063Z"/><path class="cls-9" d="M42.836,80.0176a1.3851,1.3851,0,0,1,.3382-.84,1.1648,1.1648,0,0,1,1.246-.0356,6.0136,6.0136,0,0,1,2.1328,1.9742,57.6148,57.6148,0,0,1,4.5447,6.9391,6.69,6.69,0,0,0-1.693-.1229q-.9075-.0582-1.816-.1-1.8171-.0838-3.6359-.1028c-.76-.0089-1.4635-.0182-1.7131-.8549a7.9554,7.9554,0,0,1,.086-2.845Q42.5207,82.0167,42.836,80.0176Z"/><path class="cls-9" d="M-2.2069,112.1415a54.4549,54.4549,0,0,1,9.8819-.5437A21.65,21.65,0,0,0,8.8225,123.066a32.8165,32.8165,0,0,1-5.3567-4.8245c-.9772-.9861-1.93-1.9956-2.8721-3.0159C.2479,114.8507-1.8114,112.0833-2.2069,112.1415Z"/><path class="cls-7" d="M183.1352,101.4126a26.9868,26.9868,0,0,1,3.8047-6.3947,16.3923,16.3923,0,0,0-1.594-1.9594,13.6013,13.6013,0,0,0-3.3385-2.5171c-1.1994,5.3033-3.7158,10.3244-4.5888,15.6544a15.443,15.443,0,0,1,2.4778,2.058Q181.5157,104.8334,183.1352,101.4126Z"/><path class="cls-7" d="M176.11,88.6856a20.3589,20.3589,0,0,0-5.4012.029,25.646,25.646,0,0,0-3.7467.8185c.18,1.4906.6411,3.0528.8726,4.3047q.7391,3.9975,1.7545,7.9372a21.1032,21.1032,0,0,0,1.3355,3.87,7.1922,7.1922,0,0,1,1.9645-.5825,5.7758,5.7758,0,0,1,1.5984-.0126C174.3586,99.3741,173.5618,93.5716,176.11,88.6856Z"/><path class="cls-7" d="M184.579,113.55a16.0272,16.0272,0,0,0,3.1979-2.8332q2.71-2.9005,5.421-5.8015.2328-.2488.4734-.5a13.2247,13.2247,0,0,1-1.0414-.938,16.81,16.81,0,0,1-1.9967-2.4836,18.8866,18.8866,0,0,1-2.2539,3.0207c-2.0524,2.27-4.4707,4.3033-6.0956,6.8588C183.04,111.7544,183.8,112.6645,184.579,113.55Z"/><path class="cls-7" d="M197.5441,120.72a30.4505,30.4505,0,0,0,4.6061-8.0579c.5031-1.3156.9568-2.7223,1.5526-4.0157a31.219,31.219,0,0,1-3.2-.8032c-2.9073,3.8572-6.9148,7.0107-9.2392,11.1241.1343.0538.2694.1056.4061.1533A45.2155,45.2155,0,0,0,197.5441,120.72Z"/><path class="cls-10" d="M87.7324,112.3947a6.5284,6.5284,0,0,0,2.2122,3.2434c3.9414,3.3916,9.6055,3.8017,14.7968,3.504,4.7623-.2731,9.4854-1.0013,14.2-1.7284q12.2942-1.8963,24.5885-3.7927a21.51,21.51,0,0,0,6.3567-1.66,7.27,7.27,0,0,0,4.1041-4.8645,7.8756,7.8756,0,0,0-.5358-4.1835c-1.396-3.7289-4.25-6.7076-7.1793-9.4048a21.3483,21.3483,0,0,0-4.3311-3.2955,15.84,15.84,0,0,0-8.5229-1.5387,46.154,46.154,0,0,0-8.5943,1.6987,191.7,191.7,0,0,0-20.0992,6.2c-3.13,1.2119-6.1089,2.6923-9.1541,4.09-1.685.7737-3.4784,1.3481-4.7994,2.7088C88.6518,105.5576,86.9712,109.3394,87.7324,112.3947Z"/><path class="cls-5" d="M64.5284,124.1652a16.4422,16.4422,0,0,1,8.8394-13.8517c4.0014-2.0191,8.6467-2.2816,13.1275-2.18,3.2972.0746,6.7071.3574,9.6057,1.93a2.8663,2.8663,0,0,1,1.6309,1.7675c.1565.8145-.6979,1.7664-1.4385,1.3933.5392.5447.9229.84.7671,1.65-.1892.6862-1.0929.7627-1.7743.77.7688-.1235,1.0752,1.1452.5037,1.6742a2.8141,2.8141,0,0,1-2.2261.4047,16.571,16.571,0,0,0-7.1617.3682c-2.2729.8036-4.2737,2.89-4.1914,5.2994a7.6394,7.6394,0,0,0,2.4124,4.6512,30.7978,30.7978,0,0,0,21.7132,9.82c-7.06,2.9079-14.8536,3.4088-22.3768,2.5329-5.4516-.6347-12.1833-.9942-15.8056-5.5849A16.4832,16.4832,0,0,1,64.5284,124.1652Z"/></g></g></svg>