<svg xmlns="http://www.w3.org/2000/svg" xmlns:xlink="http://www.w3.org/1999/xlink" viewBox="0 0 200 200"><defs><style>.cls-1{fill:none;}.cls-2{fill:#6bc1bc;}.cls-3{clip-path:url(#clip-path);}.cls-4{fill:#67969a;}.cls-5{fill:#545667;}.cls-6{fill:#ed7777;}.cls-7{fill:#cf9d66;}.cls-8{fill:#413949;}.cls-9{fill:#eb6568;}.cls-10{fill:#372637;}.cls-11{clip-path:url(#clip-path-2);}.cls-12{fill:#474747;}</style><clipPath id="clip-path"><rect class="cls-1" y="-0.5914" width="200" height="201.1828"/></clipPath><clipPath id="clip-path-2"><rect class="cls-1" y="-220" width="200" height="200.1186"/></clipPath></defs><g id="Fondos"><rect class="cls-2" y="0.9456" width="200" height="200.2372"/></g><g id="Gatos"><g class="cls-3"><path class="cls-4" d="M82.9606,73.2328h-.0054c-.239-.0107-.478.0057-.7149.0093q.7824,1.07,1.5683,2.1375A12.0143,12.0143,0,0,1,82.9606,73.2328Z"/><path class="cls-4" d="M155.2356,144.8968c-.2008.21-.4031.4159-.6146.6111-4.2769,3.9119-10.3246,5.3089-16.1169,5.4259-2.484.0492-5.238-.2244-6.9378-2.0355-1.8746-1.997-1.78-5.1085-1.2839-7.8a38.9969,38.9969,0,0,1,2.3235-7.8367c-.27-.3029-.5252-.62-.7842-.9339-5.962,3.9594-13.5452,6.0077-20.7747,6.8118a91.2133,91.2133,0,0,1-37.0283-3.5363c-8.0494-2.5022-16.1269-6.4434-20.8606-13.4193-4.4628-6.5731-5.3218-15.2814-2.8669-22.8374A31.8517,31.8517,0,0,1,52.8444,93.51a10.0529,10.0529,0,0,1-.8089-4.1894c-.4458-.0254-.8981-.06-1.3549-.1092a21.647,21.647,0,0,1-2.31-.396,5.2651,5.2651,0,0,1-1.4974-.3464.09.09,0,0,1-.0219-.0074,26.1949,26.1949,0,0,1-13.217,8.7414,13.6763,13.6763,0,0,1-6.5912.4505,7.0834,7.0834,0,0,1-5.0892-3.9155c-.052-.1224-.0676-.25-.1093-.3739a3.48,3.48,0,0,0-.46,1.6121c-.04,2.1775,2.0882,3.6822,3.9721,4.7749l12.2915,7.14c1.6789,1.346,3.83,2.2342,5.4339,3.7151,4.576,4.2312,3.386,11.57,4.5669,17.689,2.0582,10.6781,12.2449,18.2944,22.8592,20.6578,10.6155,2.3655,21.6657.5179,32.3624-1.437,5.2051-.9521,10.7184-1.9021,15.6588-.011,3.0312,1.1618,5.5829,3.31,8.5281,4.68,6.0987,2.8378,13.2245,2.079,19.8212.7548a169.6822,169.6822,0,0,0,22.0148-6.1679c-1.7947-.0621-3.2556-.1406-3.872-.1623A39.19,39.19,0,0,1,155.2356,144.8968Z"/><path class="cls-5" d="M199.5317,49.6552a78.3271,78.3271,0,0,1,8.9165,13.0218,30.1091,30.1091,0,0,0-3.2409-15.2653c-2.4258-4.924-6.0038-9.6732-5.9164-15.1591.08-5.0228,3.2719-9.4474,6.7662-13.0568A61.7909,61.7909,0,0,1,220.8883,7.9212c3.0073-1.636,6.4907-3.4214,7.3244-6.7426.8316-3.31-1.4683-6.6421-4.2-8.69-7.1785-5.38-17.6069-4.9971-25.4309-.6075s-13.2883,12.1483-16.77,20.4156A63.89,63.89,0,0,0,176.99,33.4834,56.5242,56.5242,0,0,1,199.5317,49.6552Z"/><path class="cls-6" d="M222.0883,111.2425c1.3424-7.2824-.569-14.7709-2.754-21.8489a141.3442,141.3442,0,0,0-10.6528-26.3174c-.0746-.1348-.1587-.2643-.2333-.3992a78.3271,78.3271,0,0,0-8.9165-13.0218A56.5242,56.5242,0,0,0,176.99,33.4834a41.6817,41.6817,0,0,0-16.2863-2.7647,55.9976,55.9976,0,0,0-15.3181,3.095c6.1443.5908,12.2687,1.41,18.3454,2.3891,9.4673,1.5028,19.2318,3.5965,26.97,9.2629,8.7394,6.3742,13.815,16.48,18.5495,26.1971,4.5066,9.2409,9.1046,19.1424,7.9427,29.361-1.5921,13.9066-13.4285,24.4224-25.7409,31.0445-6.281,3.3686-13.0418,6.1226-20.098,7.1239-.9339.1367-1.8658.228-2.8214.2954-8.0576.569-16.5475-1.57-22.511-7.0326-5.5993-5.1213-8.4207-12.4947-11.8329-19.2319-6.58-12.9726-16.1169-24.6721-28.5423-32.2063A57.9442,57.9442,0,0,0,82.886,72.9831c-.3029-.0382-.6057-.0621-.9065-.0949.0857.1167.1731.2354.2608.3539.2369-.0036.4759-.02.7149-.0093h.0054a12.0143,12.0143,0,0,0,.848,2.1468q.6512.8862,1.3024,1.7745a31.7322,31.7322,0,0,1,1.8657,2.8124c3.11,3.155,7.0344,5.3764,10.6107,7.9463A99.9688,99.9688,0,0,1,107.99,96.346c1.2454,1.1761,2.453,2.3908,3.5927,3.6693a48.71,48.71,0,0,1,3.6876,4.6469c.8847,1.2731,1.6981,2.59,2.4714,3.9269,2.5168,4.3461,4.5977,8.9437,7.1929,13.2459a85.4816,85.4816,0,0,0,6.8867,10.4923c.259.3138.5144.631.7842.9339a23.9836,23.9836,0,0,0,3.54,3.2863,16.9527,16.9527,0,0,0,6.438,2.9383,65.3436,65.3436,0,0,0,12.6516,5.411,39.19,39.19,0,0,0,9.7863,1.7127c.6164.0217,2.0773.1,3.872.1623,4.6579.1623,11.6338.2115,12.4729-1.1637.3792-.0438.76-.0892,1.14-.1569a51.2867,51.2867,0,0,0,31.612-18.4275c.4595-.5636.9118-1.1326,1.3457-1.7142A34.5674,34.5674,0,0,0,222.0883,111.2425Z"/><path class="cls-5" d="M131.5663,148.8983c1.7,1.8111,4.4538,2.0847,6.9378,2.0355,5.7923-.117,11.84-1.514,16.1169-5.4259.2115-.1952.4138-.4013.6146-.6111a65.3436,65.3436,0,0,1-12.6516-5.411,16.9527,16.9527,0,0,1-6.438-2.9383,23.9836,23.9836,0,0,1-3.54-3.2863,38.9969,38.9969,0,0,0-2.3235,7.8367C129.7865,143.79,129.6917,146.9013,131.5663,148.8983Z"/><path class="cls-5" d="M27.0432,97.6534a13.6763,13.6763,0,0,0,6.5912-.4505,26.1949,26.1949,0,0,0,13.217-8.7414h.0011a.3518.3518,0,0,1-.0375-.0126q-9.0619-3.2608-18.1221-6.52a3.4547,3.4547,0,0,1-.5417-.2664,21.2492,21.2492,0,0,0-3.2855,2.7411c-2.3016,2.3947-4.07,5.8636-3.021,8.96.0417.1239.0573.2515.1093.3739A7.0834,7.0834,0,0,0,27.0432,97.6534Z"/><path class="cls-7" d="M102.5791,102.8239c-.1458.3628-.2736.6967-.3795,1.0014a9.968,9.968,0,0,1,5.1067-3.5674,9.73,9.73,0,0,1,4.2768-.2426c-1.14-1.2785-2.3473-2.4932-3.5927-3.6693A13.2663,13.2663,0,0,0,102.5791,102.8239Z"/><path class="cls-8" d="M107.3063,100.2579a9.968,9.968,0,0,0-5.1067,3.5674,1.97,1.97,0,0,0,.0367,1.7654,2.52,2.52,0,0,0,.6126.7039c1.0652.9157,2.6245,1.0449,3.9725,1.3131,2.0445.3867,4.0761.6967,6.1131.8755.8975.0838,1.7947.1423,2.714.1951a11.2824,11.2824,0,0,0,2.0936-.0892c-.7733-1.337-1.5867-2.6538-2.4714-3.9269a48.71,48.71,0,0,0-3.6876-4.6469A9.73,9.73,0,0,0,107.3063,100.2579Z"/><path class="cls-6" d="M46.815,88.4489a.3115.3115,0,0,0,.0383.0126h-.0019a.09.09,0,0,0,.0219.0074,5.2651,5.2651,0,0,0,1.4974.3464,21.647,21.647,0,0,0,2.31.396c.4568.0492.9091.0838,1.3549.1092a38.151,38.151,0,0,1,2.0071-10.8587c.1149-.361.2681-.7095.3921-1.067-.93.33-1.8611.6568-2.7975.9593a39.94,39.94,0,0,1-7.6254,1.8222c-4.9388.5907-11.8127-.7752-15.6134-4.6436a11.3653,11.3653,0,0,1-1.2293-1.5247,7.4023,7.4023,0,0,1-1.0013-2.3452,12.776,12.776,0,0,0-1.1836,2.7537,5.46,5.46,0,0,0,1.9579,6.3288l.4093.2953c.0064.0054.0147.009.022.0147a3.8723,3.8723,0,0,0,1.32.8736Q37.7535,85.1872,46.815,88.4489Z"/><path class="cls-9" d="M28.3984,75.5327c3.8007,3.8684,10.6746,5.2343,15.6134,4.6436a39.94,39.94,0,0,0,7.6254-1.8222c.9364-.3025,1.8675-.6293,2.7975-.9593A96.3794,96.3794,0,0,1,61.0678,63.297c1.5832-2.9255,3.954-6.292,7.26-5.9217,2.3026.2569,3.94,2.2852,5.3116,4.1527q4.17,5.6792,8.34,11.36c.3008.0328.6036.0567.9065.0949a57.9442,57.9442,0,0,1,22.7607,8.0337c12.4254,7.5342,21.962,19.2337,28.5423,32.2063,3.4122,6.7372,6.2336,14.1106,11.8329,19.2319,5.9635,5.4623,14.4534,7.6016,22.511,7.0326.9556-.0674,1.8875-.1587,2.8214-.2954,7.0562-1.0013,13.817-3.7553,20.098-7.1239,12.3124-6.6221,24.1488-17.1379,25.7409-31.0445,1.1619-10.2186-3.4361-20.12-7.9427-29.361-4.7345-9.7174-9.81-19.8229-18.5495-26.1971-7.7386-5.6664-17.5031-7.76-26.97-9.2629-6.0767-.9793-12.2011-1.7983-18.3454-2.3891-6.8045,2.23-13.4722,5.1887-20.3479,7.26-16.25,4.9154-33.5486,4.7566-50.3912,6.896A104.0748,104.0748,0,0,0,51,53.4558a56.3328,56.3328,0,0,0-20.234,12.4947c-.6146.6146-1.2293,1.2514-1.8211,1.9113a21.811,21.811,0,0,0-2.7768,3.801,7.4023,7.4023,0,0,0,1.0013,2.3452A11.3653,11.3653,0,0,0,28.3984,75.5327Z"/><path class="cls-5" d="M73.6391,61.528c-1.3713-1.8675-3.009-3.8958-5.3116-4.1527-3.3057-.37-5.6765,2.9962-7.26,5.9217a96.3794,96.3794,0,0,0-6.6331,14.0978c-.124.3575-.2772.706-.3921,1.067a38.151,38.151,0,0,0-2.0071,10.8587,10.0529,10.0529,0,0,0,.8089,4.1894,31.8517,31.8517,0,0,0-2.5532,5.8362c-2.4549,7.556-1.5959,16.2643,2.8669,22.8374,4.7337,6.9759,12.8112,10.9171,20.8606,13.4193a91.2133,91.2133,0,0,0,37.0283,3.5363c7.23-.8041,14.8127-2.8524,20.7747-6.8118a85.4816,85.4816,0,0,1-6.8867-10.4923c-2.5952-4.3022-4.6761-8.9-7.1929-13.2459a11.2824,11.2824,0,0,1-2.0936.0892c-.9193-.0528-1.8165-.1113-2.714-.1951-2.037-.1788-4.0686-.4888-6.1131-.8755-1.348-.2682-2.9073-.3974-3.9725-1.3131a2.52,2.52,0,0,1-.6126-.7039,1.97,1.97,0,0,1-.0367-1.7654c.1059-.3047,3.3633-6.057,5.7908-7.4793a99.9688,99.9688,0,0,0-10.403-8.4332c-3.5763-2.57-7.5011-4.7913-10.6107-7.9463a31.7322,31.7322,0,0,0-1.8657-2.8124q-.6513-.8862-1.3024-1.7745-.7851-1.07-1.5683-2.1375c-.0877-.1185-.1751-.2372-.2608-.3539Q77.8074,67.2065,73.6391,61.528ZM56.62,76.5469c.6638-2.0463,3.0648-9.741,5.8343-9.79a3.9968,3.9968,0,0,1,2.7146,1.4244,17.2415,17.2415,0,0,1,4.8047,10.3061c.4953,3.79-2.2385,4.6507-5.2588,6.4162-2.4913,1.4572-4.9807,3.2848-7.8523,3.8973a1.4177,1.4177,0,0,1-1.9251-1.3367,16.5692,16.5692,0,0,1,.2144-3.6932A32.42,32.42,0,0,1,56.62,76.5469Zm15.5714,28.5112c-.9073-.1351-1.7944-.2974-2.6817-.4615A7.464,7.464,0,0,1,63.9129,100.9a6.3911,6.3911,0,0,1-.6876-3.7914l-.0044-.0257a3.3507,3.3507,0,0,1,.0884-.5618,5.5883,5.5883,0,0,1,1.7271-2.896,9.4061,9.4061,0,0,1,1.3387-1.0324c2.7467-1.789,6.3376-1.9752,10.029-.4577,4.1456,1.727,6.4634,5.4531,7.1747,9.84.17,1.1708.3485,2.0772-.3172,2.7629a2.1838,2.1838,0,0,1-.77.5454c-1.2475.6272-2.7993.3921-4.1637.3336C76.2546,105.5212,74.2192,105.3425,72.1911,105.0581Z"/><path class="cls-7" d="M69.273,93.5663c6.0039-1.0085,11.9313,3.8848,13.9886,11.1708.6657-.6857.487-1.5921.3172-2.7629-.7113-4.3864-3.0291-8.1125-7.1747-9.84-3.6914-1.5175-7.2823-1.3313-10.029.4577a9.4061,9.4061,0,0,0-1.3387,1.0324,5.5883,5.5883,0,0,0-1.7271,2.896,3.3507,3.3507,0,0,0-.0884.5618A10.3086,10.3086,0,0,1,69.273,93.5663Z"/><path class="cls-8" d="M82.4918,105.2825a2.1838,2.1838,0,0,0,.77-.5454c-2.0573-7.286-7.9847-12.1793-13.9886-11.1708a10.3086,10.3086,0,0,0-6.0521,3.5163l.0044.0257a6.3911,6.3911,0,0,0,.6876,3.7914,7.464,7.464,0,0,0,5.5965,3.6969c.8873.1641,1.7744.3264,2.6817.4615,2.0281.2844,4.0635.4631,6.137.558C79.6925,105.6746,81.2443,105.91,82.4918,105.2825Z"/><path class="cls-8" d="M54.9371,87.464a1.4177,1.4177,0,0,0,1.9251,1.3367c2.8716-.6125,5.361-2.44,7.8523-3.8973,3.02-1.7655,5.7541-2.6263,5.2588-6.4162a17.2415,17.2415,0,0,0-4.8047-10.3061,3.9968,3.9968,0,0,0-2.7146-1.4244c-2.77.0492-5.1705,7.7439-5.8343,9.79a32.42,32.42,0,0,0-1.4682,7.2239A16.5692,16.5692,0,0,0,54.9371,87.464Z"/><path class="cls-10" d="M91.5751,111.538a5.9866,5.9866,0,0,0,3.7739,2.6833,8.3754,8.3754,0,0,0,7.3616-2.4537c.6655-.6267-.3381-1.6276-1.0022-1.0022a7.0038,7.0038,0,0,1-5.8348,2.12,4.9207,4.9207,0,0,1-2.5613-1.3712A4.58,4.58,0,0,1,91.5751,111.538Z"/><path class="cls-10" d="M90.1328,110.9745a4.2239,4.2239,0,0,1-2.5962,1.4329c-1.7627.1422-3.2735-.9726-4.5051-2.1023-.671-.6159-1.6745.3837-1.0008,1.0022,1.5,1.3793,3.3648,2.6739,5.5059,2.5169a6.1378,6.1378,0,0,0,4.0009-2.29,3.9211,3.9211,0,0,1-.9043-.2871C90.4521,111.1624,90.2991,111.0659,90.1328,110.9745Z"/><path class="cls-10" d="M89.0013,108.458a1.5629,1.5629,0,0,0,.1665.9723,3.8717,3.8717,0,0,0,1.7288,1.7556c.1111.0609.2132.1254.334.1818a2.618,2.618,0,0,0,.6035.1916.1956.1956,0,0,1,.025.0026,3.0576,3.0576,0,0,0,1.1593-.0161,5.5579,5.5579,0,0,0,2.327-1.1593,1.4724,1.4724,0,0,0-.8076-2.5848c-.7028-.1038-1.2427.4343-1.8694.4029-.444-.0215-.8254-.5847-1.2364-.7664a1.99,1.99,0,0,0-1.4826-.0806A1.4729,1.4729,0,0,0,89.0013,108.458Z"/></g><g class="cls-11"><path class="cls-12" d="M170.4911,1.7434c-.8856,38.4859-37.7294,40.5622-67.6886,44.1136S57.4536,38.4275,55.3056,17.6825,68.3063-9.594,72.3536-15.7561c4.0318-6.1762.9016-19.2848.9016-19.2848s-5.6518-14.74-7.2685-23.0235c-1.5208-7.7822,2.8992-23.68,3.4153-25.5152.04-.1208.0519-.1807.0519-.1807L54.8114-124.616s-.0076-.178-.037-.5186c-.2225-3.8249-1.549-27.9639,1.6789-38.3564l.0405-.091c.7464-2.3651,1.7319-3.9974,3.0334-4.4987C67-170.926,83.4621-144.564,83.4621-144.564c3.3317-.2907,6.5811-.4144,9.6724-.4124a127.8455,127.8455,0,0,1,22.104,1.8367s19.1465-25.3536,23.6642-20.4784c4.5025,4.8611-1.61,39.2749-.4827,42.0061s-5.92,8.737-5.92,8.737c.5554,13.0253-5.625,18.375.31,22.118.2512.1585-.36.2681-.36.2681-.0531.1511-.12.3173-.1727.483-1.4474,4.7433.8712,13.4578,5.31,22.0666a27.9864,27.9864,0,0,0,3.1774,4.4569c1.3807,1.71,3.0838,3.6585,4.9761,5.8665,2.6453,3.127,5.6537,6.759,8.6254,10.9275A100.3654,100.3654,0,0,1,161.24-35.716,79.81,79.81,0,0,1,167.1542-21.79l.0006.0147a71.2969,71.2969,0,0,1,2.6336,11.5695A72.575,72.575,0,0,1,170.4911,1.7434Z"/></g></g></svg>