<svg xmlns="http://www.w3.org/2000/svg" viewBox="0 0 200 200"><defs><style>.cls-1{fill:#6bc1bc;}.cls-2{fill:#f3a469;}.cls-3{fill:#e9e4da;}.cls-4{fill:#291806;}.cls-5{fill:#b26064;}.cls-6{fill:#3d2e28;}.cls-7{fill:#e1845c;}.cls-8{fill:#ee8085;}.cls-9{fill:#d57848;}.cls-10{fill:#804f46;}.cls-11{fill:#714747;}</style></defs><g id="Fondos"><rect class="cls-1" y="-0.2372" width="200" height="200.2372"/></g><g id="Gatos"><path class="cls-2" d="M80.0639,60.0406a22.1943,22.1943,0,0,0,6.7569-3.2841A22.2381,22.2381,0,0,1,80.0639,60.0406Z"/><path class="cls-2" d="M151.57,144.5646a44.8143,44.8143,0,0,1,12.3942-11.58c6.1523-4.0279,12.98-6.7358,19.3266-10.3955,2.99-1.7242,6.0453-3.9821,7.22-7.3785a10.5873,10.5873,0,0,0-1.9451-9.6749c-4.787-6.32-13.8419-6.0662-20.5165-3.3218-6.7052,2.7574-12.0738,7.8933-16.9541,13.1093-1.0068,1.0717-2.6108-11.023-3.9742-15.61-3.13-10.5384-9.7036-19.74-17.2041-27.6317-2.4638-2.5918-4.9508-5.1817-7.3516-7.8324-2.0159-2.2542-2.4221-4.2376-3.65-6.8925a73.8767,73.8767,0,0,0-6.4347-11.1162c-1.39-2.014-4.846-8.62-7.346-9.1045-3.5912-.717-6.2688,4.4491-8.2921,6.5242a59.1607,59.1607,0,0,0-4.5065,5.0329c-1.3522,1.84-2.0006,4.1-3.3393,5.889a11.3975,11.3975,0,0,1-2.176,2.1741,11.72,11.72,0,0,1,2.443,5.088,30.4347,30.4347,0,0,1,.9382,9.6689,2.256,2.256,0,0,1-.4271,1.3922c-.7036.7535-1.9644.2309-2.7806-.4137a14.6552,14.6552,0,0,1-4.6915-6.8388c-.61-1.8766-.8618-3.9611-2.12-5.4849l-.1185-.1276a29.3894,29.3894,0,0,0-5.59,2.38c-.5092.307-1.02.6122-1.5276.9423a16.557,16.557,0,0,1,2.9444,3.1218,13.3917,13.3917,0,0,1,2.2221,9.7469,2,2,0,0,1-.8144,1.5544c-.69.4081-1.5413-.0115-2.22-.41a6.5,6.5,0,0,1-2.7574-2.4467c-.4443-.9023-.5208-2.0863-1.3254-2.66-1.6667-1.1881-2.2792-.473-3.3319-2.3743-.3223-.6065-.0533-1.482-.4062-2.1322l-.3011-.34c-.9385.6715-1.8748,1.3653-2.7786,2.0789-1.32,1.0277-2.6015,2.1244-3.8333,3.2342l.1373.0992c3.9437,2.8092,8.063,5.8073,10.0464,10.1933-.8237.6256-2.0024.1642-2.8071-.41-.8314-.5932-1.6935-1.3541-2.7044-1.2568-1.0374.0762-1.9356.9841-2.9424.8125a4.4368,4.4368,0,0,1-1.7167-1.0565c-1.4626-1.0015-3.3927-.8489-5.1567-1.0164a6.5833,6.5833,0,0,1-2.0461-.5379c-.6524.6236-1.3082,1.2224-1.9949,1.8021-2.3475,2.0311-5.1187,1.8364-8.0974,2.4355q-5.2809,1.0669-10.5653,2.1378c-2.2467.4518-6.4652,1.087-7.8611,3.2517-2.05,3.2285.9878,7.0674,2.34,9.8729,1.7908,3.6825,3.03,6.9932,5.7994,10.2449,2.95,3.4594,7.474,7.4184,7.659,11.9115.2116,5.1436-1.6517,9.9475-2.25,14.9822-.32,2.71-.454,5.5362-.5379,8.3626h-27.42v33.9175H206.2886V144.5646Z"/><path class="cls-3" d="M64.0922,108.8849A12.3677,12.3677,0,0,1,60.829,104.02c1.2075-1.106,2.327-2.3284,2.9391-2.851a5.16,5.16,0,0,0-3.66-.9154,14.137,14.137,0,0,1,2.33-8.0861c-4.8247,3.5508-9.78,12.3158-4.373,16.8492C59.9174,110.5687,62.1831,109.9793,64.0922,108.8849Z"/><path class="cls-4" d="M60.1083,100.2534a5.16,5.16,0,0,1,3.66.9154c-.6121.5226-1.7316,1.745-2.9391,2.851a12.3677,12.3677,0,0,0,3.2632,4.8651,14.1864,14.1864,0,0,0,1.8671-1.234A76.9287,76.9287,0,0,1,77.11,100.4c1.4477-.7457,3.05-1.663,3.4788-3.2211.551-1.9568-1.0052-3.8716-2.6835-5.0138A14.2967,14.2967,0,0,0,64.1646,91.103a9.1842,9.1842,0,0,0-1.726,1.0643A14.137,14.137,0,0,0,60.1083,100.2534Z"/><path class="cls-3" d="M97.3708,85.9291c1.2855,1.0281,3.179.8162,4.8232.54.8811-.1258,1.7582-.2518,2.643-.3357a22.4682,22.4682,0,0,1-2.22-4.0526q1.5707-.5662,3.1431-1.1307a1.5932,1.5932,0,0,0,.73-.4253,1.0935,1.0935,0,0,0-.36-1.4935,3.1844,3.1844,0,0,0-1.6554-.4041,8.8338,8.8338,0,0,0-2.8112.1582,9.204,9.204,0,0,1-.0305-2.6757,8.0947,8.0947,0,0,1,1.6118-3.675A14.6651,14.6651,0,0,0,96.53,80.1584C95.8511,82.1149,95.7194,84.6437,97.3708,85.9291Z"/><path class="cls-4" d="M101.6636,78.7852a8.8338,8.8338,0,0,1,2.8112-.1582,3.1844,3.1844,0,0,1,1.6554.4041,1.0935,1.0935,0,0,1,.36,1.4935,1.5932,1.5932,0,0,1-.73.4253q-1.5734.5634-3.1431,1.1307a22.4682,22.4682,0,0,0,2.22,4.0526,82.693,82.693,0,0,1,10.9353-.4425,13.2257,13.2257,0,0,0,2.2963-.1067c2.2293-.2461,4.4585-1.1347,5.0385-3.5452,1.7145-7.0144-7.6705-11.2442-13.8188-11.24a9.0464,9.0464,0,0,0-2.0673.1754,13.9819,13.9819,0,0,0-3.9761,1.4608,8.0947,8.0947,0,0,0-1.6118,3.675A9.204,9.204,0,0,0,101.6636,78.7852Z"/><path class="cls-5" d="M94.8932,95.7479a2.5582,2.5582,0,0,1,.8178-.0922,2.5715,2.5715,0,0,0,.3882-1.7862,1.9018,1.9018,0,0,0-.43-1.1263.8.8,0,0,0-.0805-.0562,2.101,2.101,0,0,0-.4274-.5315,1.084,1.084,0,0,0-1.4393-.1272,1.6314,1.6314,0,0,0-.3809.5875,5.8115,5.8115,0,0,0-.2948.7606c-.0266.0923-.0457.1888-.0647.2842a2.2049,2.2049,0,0,0-1.8838.7159.5773.5773,0,0,0-.1112.593.5621.5621,0,0,0,.1973.7211,6.0342,6.0342,0,0,0,2.2538.89,2.7672,2.7672,0,0,0,.5855.0031A1.5515,1.5515,0,0,1,94.8932,95.7479Z"/><path class="cls-6" d="M88.3024,102.553a5.7077,5.7077,0,0,0,4.1259-1.28,6.2392,6.2392,0,0,0,1.4691-1.8507c.2236-.4095.4145-.8359.6087-1.2591a4.5425,4.5425,0,0,1,.5728-1.1974c.3107-.3139.9194-.1538,1.3-.1231.49.0382.979.0892,1.469.122a10.0466,10.0466,0,0,0,2.5987-.0933c1.8242-.349,2.9953-1.7224,4.533-2.625a.559.559,0,0,0-.5631-.9652c-1.5092.8846-2.659,2.2846-4.4749,2.5423a11.9258,11.9258,0,0,1-2.6812-.0222c-.4772-.04-1.0246-.138-1.5495-.1453a2.5582,2.5582,0,0,0-.8178.0922,1.5515,1.5515,0,0,0-.87.8358c-.0892.1656-.1719.3363-.25.5037a18.254,18.254,0,0,1-1.1221,2.2487,4.6053,4.6053,0,0,1-4.3486,2.0989C87.5854,101.3736,87.59,102.4914,88.3024,102.553Z"/><path class="cls-7" d="M60.3579,81.1177a4.4368,4.4368,0,0,0,1.7167,1.0565c1.0068.1716,1.905-.7363,2.9424-.8125,1.0109-.0973,1.873.6636,2.7044,1.2568.8047.5741,1.9834,1.0355,2.8071.41-1.9834-4.386-6.1027-7.3841-10.0464-10.1933l-.1373-.0992c-2.4336,2.2429-4.7546,4.5867-7.19,6.8275a6.5833,6.5833,0,0,0,2.0461.5379C56.9652,80.2688,58.8953,80.1162,60.3579,81.1177Z"/><path class="cls-7" d="M67.664,69.8945c1.0527,1.9013,1.6652,1.1862,3.3319,2.3743.8046.5741.8811,1.7581,1.3254,2.66a6.5,6.5,0,0,0,2.7574,2.4467c.6789.3985,1.53.8181,2.22.41a2,2,0,0,0,.8144-1.5544,13.3917,13.3917,0,0,0-2.2221-9.7469,16.557,16.557,0,0,0-2.9444-3.1218c-2.06,1.2739-4.0544,2.6354-5.99,4.06l.3011.34C67.6107,68.4125,67.3417,69.288,67.664,69.8945Z"/><path class="cls-7" d="M82.3028,65.6531a14.6552,14.6552,0,0,0,4.6915,6.8388c.8162.6446,2.077,1.1672,2.7806.4137a2.256,2.256,0,0,0,.4271-1.3922,30.4347,30.4347,0,0,0-.9382-9.6689,11.72,11.72,0,0,0-2.443-5.088,22.1943,22.1943,0,0,1-6.7569,3.2841l.1185.1276C81.441,61.692,81.6925,63.7765,82.3028,65.6531Z"/><path class="cls-3" d="M45.2864,95.0261,32.1618,91.53c-1.4876-.3968-3.3774-.6658-4.2968.57-.6961.94-.4175,2.26-.0456,3.3718a41.7045,41.7045,0,0,0,5.4026,10.403c1.1978,1.73,5.0672,8.4427,7.2927,8.5344C44.7982,114.5851,47.6246,95.6476,45.2864,95.0261Z"/><path class="cls-3" d="M107.7052,61.11a22.3365,22.3365,0,0,1,8.5307,1.6115c.5435.2249,1.2415.4443,1.6533.0265a1.2877,1.2877,0,0,0,.2612-.99c-.1123-2.2542-1.5884-4.1805-3-5.9424q-3.8994-4.8691-7.8-9.74c-.9822-1.2262-2.403-2.5937-3.885-2.0711A3.5261,3.5261,0,0,0,101.6371,46.3c-1.2854,3.4613-2.4336,11.0554.7551,13.9732C103.9256,61.6786,105.8136,61.1085,107.7052,61.11Z"/><path class="cls-8" d="M172.3118,121.6566c3.7742-.3167,7.615-.7267,11.08-2.2561a4.1009,4.1009,0,0,0,1.6268-1.1041,1.64,1.64,0,0,0,.1981-1.848,2.47,2.47,0,0,0-1.125-.7838c-2.8339-1.2608-6.2363-3.57-9.2608-4.1689-2.5326-.5017-4.8822,1.8957-6.1867,3.8731a6.1208,6.1208,0,0,0-1.1042,2.8932,3.2532,3.2532,0,0,0,1.1214,2.79A5.1837,5.1837,0,0,0,172.3118,121.6566Z"/><path class="cls-8" d="M173.746,109.0583a9.4081,9.4081,0,0,0,3.9266,1.0165,3.21,3.21,0,0,0,3.0912-2.21,2.4876,2.4876,0,0,0-.8885-2.4508,8.103,8.103,0,0,0-6.6843-1.5656c-1.3273.4711-2.4012,1.96-1.9014,3.2763A4.049,4.049,0,0,0,173.746,109.0583Z"/><path class="cls-8" d="M182.62,112.9012a2.5508,2.5508,0,0,0,3.0857-1.9852,2.7875,2.7875,0,0,0-2.0785-2.8988,2.6662,2.6662,0,0,0-2.7425,2.1643A2.5726,2.5726,0,0,0,182.62,112.9012Z"/><path class="cls-8" d="M185.69,115.1857a1.5752,1.5752,0,1,0,1.98-2.45c-.313-.2461-.9154-.6158-1.2474-.3946l-.9285.614A1.6369,1.6369,0,0,0,185.69,115.1857Z"/><path class="cls-9" d="M116.3348,122.8332c-2.359-4.1668-7.2069-6.3106-11.8029-6.7052-5.9577-.5111-11.6579,2.1474-16.542,5.3036a158.54,158.54,0,0,0-18.61,14.4937c-.9076.8012.4236,2.1247,1.3275,1.3276a154.8874,154.8874,0,0,1,18.228-14.2c5.62-3.6252,12.2891-6.48,19.0077-4.3633,2.8436.8963,6.3642,3.0476,7.2546,6.118,1.11,3.8273-2.8757,8.2652-5.0042,10.9789q-3.444,4.3886-6.8864,8.7785h2.3687q2.5118-3.2012,5.0213-6.4023C113.793,134.2168,119.3653,128.19,116.3348,122.8332Z"/><path class="cls-9" d="M120.3132,109.2643a.9436.9436,0,0,0-1.1557-.6559.9617.9617,0,0,0-.6542,1.1538q.372,2.22.7438,4.4395a.9433.9433,0,0,0,1.1556.6561.9661.9661,0,0,0,.6561-1.1538Q120.6868,111.4843,120.3132,109.2643Z"/><path class="cls-9" d="M124.074,109.0125a.933.933,0,0,0-.4293-.5607.9395.9395,0,0,0-1.3806,1.06q.28,1.6647.5588,3.33a.9438.9438,0,0,0,.433.5606.9559.9559,0,0,0,.7227.0955.9656.9656,0,0,0,.6542-1.1557Q124.3553,110.6772,124.074,109.0125Z"/><path class="cls-9" d="M45.4122,143.5175q-.3717-2.22-.7457-4.44a.9437.9437,0,0,0-1.1538-.6559.965.965,0,0,0-.6561,1.1557q.372,2.22.7438,4.44a.82.82,0,0,0,.42.5473h.94A.9676.9676,0,0,0,45.4122,143.5175Z"/><path class="cls-9" d="M48.9843,139.8749a.9407.9407,0,0,0-1.1538-.6558.9666.9666,0,0,0-.6562,1.1556q.352,2.0939.7039,4.19h1.8574a1.2273,1.2273,0,0,0-.0057-.25Q49.3579,142.0949,48.9843,139.8749Z"/><rect class="cls-10" x="10.2263" y="158.3909" width="196.0623" height="8.477"/><rect class="cls-10" x="10.2263" y="168.4697" width="196.0623" height="31.5303"/><rect class="cls-10" x="10.2263" y="144.5646" width="196.0623" height="7.4203"/><rect class="cls-11" x="10.2263" y="151.9849" width="196.0623" height="6.406"/><rect class="cls-11" x="10.2263" y="166.8679" width="196.0623" height="1.6018"/></g></svg>