<svg xmlns="http://www.w3.org/2000/svg" xmlns:xlink="http://www.w3.org/1999/xlink" viewBox="0 0 200 200"><defs><style>.cls-1{fill:none;}.cls-2{isolation:isolate;}.cls-10,.cls-3{fill:#e0f1c2;}.cls-4{clip-path:url(#clip-path);}.cls-5{fill:#f7ad56;}.cls-10,.cls-6{mix-blend-mode:multiply;}.cls-7{fill:#fbc9a4;}.cls-8{fill:#4b0911;}.cls-9{clip-path:url(#clip-path-2);}.cls-11{fill:#ee7257;}.cls-12{fill:#dc6045;}.cls-13{fill:#fc8974;}.cls-14{fill:#ff96be;}.cls-15{fill:#ffa795;}.cls-16{fill:#ffbfd7;}</style><clipPath id="clip-path"><rect class="cls-1" y="-220" width="200" height="200"/></clipPath><clipPath id="clip-path-2"><rect class="cls-1" y="-0.1186" width="200" height="200.1186"/></clipPath></defs><g class="cls-2"><g id="Fondos"><rect class="cls-3" y="-0.1186" width="200" height="200.2372"/></g><g id="Gatos"><g class="cls-4"><path class="cls-5" d="M185.2489,152.4158c-10.12,2.8511-13.2013-11.1284-17.6813-17.1045a107.7432,107.7432,0,0,0-24.77-23.9314c-7.9058-5.4822-16.7849-10.12-22.4-17.9324-.0809-.112-.1618-.2262-.2386-.34-7.5427-10.8109-7.2688-25.6432-2.5336-37.969q.3425-.8869.7429-1.8633c.06-.1473.1224-.2947.1847-.4441.2219-.5291.4544-1.0769.7013-1.6372.0685-.1556.137-.3112.2075-.469.8259-1.8633,1.7783-3.874,2.8324-5.9428.0851-.1681.17-.3362.2573-.5022.7782-1.5148,1.61-3.0544,2.488-4.5941.1141-.2013.23-.4026.3465-.6038.1162-.1992.2324-.4005.3507-.6018.3507-.6018.7117-1.2014,1.0769-1.797.2428-.3963.49-.7927.7388-1.1848.1245-.1971.2489-.3922.3735-.5873.1265-.1971.2531-.39.38-.5851.1266-.193.2532-.388.3818-.5789.0187-.0312.0394-.0623.06-.0913q.3267-.4887.6557-.9712c.0187-.0269.0374-.056.0581-.0829.1286-.1889.2593-.3756.3922-.5624q.1929-.28.3921-.5541.09-.1306.1868-.2614.1526-.2148.3113-.43.5073-.6941,1.025-1.3633c.0809-.1058.1619-.21.2428-.3133q.57-.7284,1.15-1.4235c.1162-.1411.2344-.28.3506-.4171.2366-.276.4711-.5478.71-.8134q.29-.3269.5831-.6412c.0872-.0975.1784-.193.2677-.2884.0747-.0768.1473-.1536.22-.23q.7719-.8061,1.5542-1.5293c.0519-.05.1058-.0975.1577-.1452q.1525-.14.3051-.2739c.11-.0975.2178-.193.3278-.2864a.5632.5632,0,0,1,.054-.0456c.0165-.0166.0352-.0311.0519-.0457.0477-.0415.0975-.083.1473-.1224q.3921-.33.7843-.635c.1183-.0913.2366-.1826.3569-.27.1432-.1079.2884-.2117.4317-.3133a18.3936,18.3936,0,0,1,1.6641-1.05c13.3528-7.3975,11.533,11.5538,13.4317,18.2561q1.2636,4.4634,2.6291,8.9019,2.0293,6.5923,4.2766,13.1142a413.4612,413.4612,0,0,0,17.4323,42.71c4.4738,9.4165,9.3626,18.8455,11.0849,29.1293C191.0839,139.2808,194.4372,149.8261,185.2489,152.4158Z"/><path class="cls-5" d="M68.464,94.3875c-.0269.0394-.0518.0768-.0809.1162-.0394.056-.0789.1141-.12.17-5.6129,7.8145-14.492,12.45-22.4,17.9324a107.7848,107.7848,0,0,0-24.77,23.9313c-4.4779,5.9782-7.5593,19.9556-17.6813,17.1045-9.1862-2.59-5.835-13.1328-4.7332-19.7169.0457-.2781.0954-.5541.1473-.8321.0374-.2034.0747-.4047.1162-.608.0083-.0457.0166-.0934.0291-.1411.0332-.1764.0685-.3507.1058-.525.0207-.0954.0415-.193.0623-.2884q.2054-.9525.444-1.8945c.0374-.1473.0747-.2926.1121-.4379.0062-.0269.0145-.0539.0207-.0809.0789-.2988.16-.5955.2428-.8922.0415-.1557.0851-.3092.1286-.4628.0457-.1556.0913-.3133.1391-.471l.1369-.4607.0042-.01c.0456-.1536.0934-.3071.1411-.4607.0975-.3133.1971-.6246.2967-.9358.1017-.3051.2033-.61.3071-.9151.1038-.3071.2117-.6142.32-.9193.0539-.1514.1079-.3029.1618-.4523l.0042-.01c.0539-.1515.11-.303.166-.4544.0539-.1515.1121-.3051.17-.4566.0559-.1514.1141-.305.1721-.4564q.6351-1.6684,1.3323-3.318.1306-.3081.2614-.6163.5385-1.2606,1.1039-2.5108c.1141-.2573.2283-.5125.3466-.7678.1348-.2988.27-.5955.4087-.8922.1183-.2553.2366-.5126.3548-.7678q.4887-1.0519.9878-2.102c.1079-.2282.2158-.4565.3258-.6827q.4231-.8871.8465-1.7721t.8467-1.7679q.4233-.8808.8425-1.7658a413.0307,413.0307,0,0,0,17.4344-42.71c.1556-.4524.3112-.9068.4648-1.3592.1224-.3569.2427-.7117.361-1.0686l.0021-.0021q.4046-1.1921.7968-2.3842.2241-.6786.4462-1.3529.3236-.9867.6411-1.9755c.0062-.0228.0145-.0435.0208-.0664q.2427-.7532.4793-1.5064.3579-1.1268.71-2.2577,1.5531-5.0018,2.9839-10.0431a71.8082,71.8082,0,0,0,1.218-8.3147c.9566-7.3975,2.8719-15.1145,12.2116-9.9415a18.4516,18.4516,0,0,1,1.6662,1.0521,27.9389,27.9389,0,0,1,3.6583,3.1437,56.3347,56.3347,0,0,1,6.1732,7.5759c.1142.1639.2283.33.3382.4959a109.5854,109.5854,0,0,1,6.775,11.4916A113.7759,113.7759,0,0,1,71.035,56.3646C75.7806,68.7131,76.0483,83.5745,68.464,94.3875Z"/><path class="cls-5" d="M185.2489,152.4158c-10.12,2.8511-13.2013-11.1284-17.6813-17.1045a107.7432,107.7432,0,0,0-24.77-23.9314c-7.9058-5.4822-16.7849-10.12-22.4-17.9324-.0809-.112-.1618-.2262-.2386-.34-7.5427-10.8109-7.2688-25.6432-2.5336-37.969q.3425-.8869.7429-1.8633c.06-.1473.1224-.2947.1847-.4441.2219-.5291.4544-1.0769.7013-1.6372.0685-.1556.137-.3112.2075-.469.8259-1.8633,1.7783-3.874,2.8324-5.9428.0851-.1681.17-.3362.2573-.5022.7782-1.5148,1.61-3.0544,2.488-4.5941.1141-.2013.23-.4026.3465-.6038.1162-.1992.2324-.4005.3507-.6018.3507-.6018.7117-1.2014,1.0769-1.797.2428-.3963.49-.7927.7388-1.1848.1245-.1971.2489-.3922.3735-.5873.1265-.1971.2531-.39.38-.5851.1266-.193.2532-.388.3818-.5789.0187-.0312.0394-.0623.06-.0913q.3267-.4887.6557-.9712c.0187-.0269.0374-.056.0581-.0829.1286-.1889.2593-.3756.3922-.5624q.1929-.28.3921-.5541.09-.1306.1868-.2614.1526-.2148.3113-.43.5073-.6941,1.025-1.3633c.0809-.1058.1619-.21.2428-.3133q.57-.7284,1.15-1.4235c.1162-.1411.2344-.28.3506-.4171.2366-.276.4711-.5478.71-.8134q.29-.3269.5831-.6412c.0872-.0975.1784-.193.2677-.2884.0747-.0768.1473-.1536.22-.23q.7719-.8061,1.5542-1.5293c.0519-.05.1058-.0975.1577-.1452q.1525-.14.3051-.2739c.11-.0975.2178-.193.3278-.2864a.5632.5632,0,0,1,.054-.0456c.0186-.0166.0373-.0291.0539-.0436.0478-.0436.0976-.0851.1453-.1245q.3921-.33.7843-.635c.1183-.0913.2366-.1826.3569-.27.1432-.1079.2884-.2117.4317-.3133a18.3936,18.3936,0,0,1,1.6641-1.05c13.3528-7.3975,11.533,11.5538,13.4317,18.2561q1.2636,4.4634,2.6291,8.9019,2.0293,6.5923,4.2766,13.1142a413.4612,413.4612,0,0,0,17.4323,42.71c4.4738,9.4165,9.3626,18.8455,11.0849,29.1293C191.0839,139.2808,194.4372,149.8261,185.2489,152.4158Z"/><path class="cls-5" d="M68.464,94.3875c-.0269.0394-.0518.0768-.0809.1162-.0394.056-.0789.1141-.12.17-5.6129,7.8145-14.492,12.45-22.4,17.9324a107.7848,107.7848,0,0,0-24.77,23.9313c-4.4779,5.9782-7.5593,19.9556-17.6813,17.1045-9.1862-2.59-5.835-13.1328-4.7332-19.7169.0457-.2781.0954-.5541.1473-.8321.0374-.2034.0747-.4047.1162-.608.0083-.0457.0166-.0934.0291-.1411.0332-.1764.0685-.3507.1058-.525.0207-.0954.0415-.193.0623-.2884q.2054-.9525.444-1.8945c.0374-.1473.0747-.2926.1121-.4379.0062-.0269.0145-.0539.0207-.0809.0789-.2988.16-.5955.2428-.8922.0415-.1557.0851-.3092.1286-.4628.0457-.1556.0913-.3133.1391-.471l.1369-.4607.0042-.01c.0456-.1536.0934-.3071.1411-.4607.0975-.3133.1971-.6246.2967-.9358.1017-.3051.2033-.61.3071-.9151.1038-.3071.2117-.6142.32-.9193.0539-.1514.1079-.3029.1618-.4523l.0042-.01c.0539-.1515.11-.303.166-.4544.0539-.1515.1121-.3051.17-.4566.0559-.1514.1141-.305.1721-.4564q.6351-1.6684,1.3323-3.318.1306-.3081.2614-.6163.5385-1.2606,1.1039-2.5108c.1141-.2573.2283-.5125.3466-.7678.1348-.2988.27-.5955.4087-.8922.1183-.2553.2366-.5126.3548-.7678q.4887-1.0519.9878-2.102c.1079-.2282.2158-.4565.3258-.6827q.4231-.8871.8465-1.7721t.8467-1.7679q.4233-.8808.8425-1.7658a413.0307,413.0307,0,0,0,17.4344-42.71c.1556-.4524.3112-.9068.4648-1.3592.1224-.3569.2427-.7117.361-1.0686l.0021-.0021q.4046-1.1921.7968-2.3842.2241-.6786.4462-1.3529.3236-.9867.6411-1.9755c.0062-.0228.0145-.0435.0208-.0664q.2427-.7532.4793-1.5064.3579-1.1268.71-2.2577,1.5531-5.0018,2.9839-10.0431a71.8082,71.8082,0,0,0,1.218-8.3147c.9566-7.3975,2.8719-15.1145,12.2116-9.9415a18.4516,18.4516,0,0,1,1.6662,1.0521,27.9389,27.9389,0,0,1,3.6583,3.1437,56.3347,56.3347,0,0,1,6.1732,7.5759c.1142.1639.2283.33.3382.4959a109.5854,109.5854,0,0,1,6.775,11.4916A113.7759,113.7759,0,0,1,71.035,56.3646C75.7806,68.7131,76.0483,83.5745,68.464,94.3875Z"/><path class="cls-5" d="M147.89-15.2178A67.9926,67.9926,0,0,0,148.3943,5.86a64.2043,64.2043,0,0,0,3.789,12.7511q1.189,3.7008,2.1207,7.4908a99.8958,99.8958,0,0,1,2.8054,19.2709q.053,1.18.0789,2.3717c.23,14.5522-3.2765,28.9426-14.519,37.2863-3.3055,3.3242-15.3553,6.1359-22.51,8.076-17.2083,5.75-35.4083,6.6754-51.7762,1.3965-13.5541-4.37-25.8508-12.9959-35.288-26.6559a24.8293,24.8293,0,0,1-3.0109-9.6987A34.11,34.11,0,0,1,29.91,53.943c.1266-7.2377,2.31-14.7908,4.397-21.7193.8384-2.7847,1.6621-5.4677,2.3324-7.9889,2.3178-8.6363,7.2169-17.2871,9.6094-26.1081a40.5919,40.5919,0,0,0,1.0832-5.2353,30.872,30.872,0,0,0,.2864-3.5234c.0394-1.7554-1.3945-7.8975-4.21-19.4845q-1.0988-4.5257-2.48-10.18c-.83-3.4114-3.4238-14.0563-5.8931-27.4216-.2988-1.6144-.5643-3.1084-.803-4.4945-.6806-3.9841-1.1184-7.07-1.3488-9.4974-.0415-.4565-.0788-.8861-.1058-1.2948v-.0021a19.1588,19.1588,0,0,1,.1847-5.37c.0373-.1639.0768-.32.12-.469a5.7826,5.7826,0,0,1,1.37-2.4236c2.5523-2.7868,7.1339-3.9633,11.6513-3.54q.8186.0747,1.6289.222.8715.1557,1.7181.3963h.0021a15.9934,15.9934,0,0,1,4.3721,1.9361h.002c.1.0643.1951.1286.2926.1929.1806.1266.359.2532.5333.3881h.0021c3.5711,2.7141,4.4551,6.37,5.02,9.91q.112.7252.2178,1.4422v.002c.5292,3.5608,1.06,6.8476,4.1169,8.7256a8.7379,8.7379,0,0,0,7.0531.7241c4.343-1.0852,9.2857-4.0857,15.1187-5.6565h.002a24.8907,24.8907,0,0,1,12.749-.2884,17.6767,17.6767,0,0,1,3.9281,1.4525h.002c4.5547,2.3572,5.76,5.7416,12.0062,6.0466a21.33,21.33,0,0,0,7.9806-1.22l.0248-.0083.0063-.0021a32.6472,32.6472,0,0,0,13.2864-9.0388,44.2614,44.2614,0,0,0,3.6209-4.8556l.0021-.002c.0768-.1183.1515-.2325.2262-.3487v-.002c.2345-.3632.4524-.71.6536-1.0355.8985-1.4587,1.44-2.4713,1.44-2.4713.2428-.4545.4648-.8861.6682-1.299.0663-.1328.1307-.2615.1909-.39.7159-1.4837,1.1973-2.6955,1.5791-3.6873.1-.2553.1909-.498.278-.7242.61-1.5708,1.0168-2.4838,1.9921-3.03a5.6128,5.6128,0,0,1,3.6458-.3673c4.97.8363,12.1078,5.6732,15.0751,11.4065a13.94,13.94,0,0,1,1.16,3.1022c.0165.0622.0311.1265.0435.1888a14.9714,14.9714,0,0,1,.2739,1.4733v.002a18.1464,18.1464,0,0,1,.1639,2.0668c.1951,7.5323-3.6976,16.8492-8.0884,27.5481-4.0193,9.7983-8.46,20.7545-10.5578,32.5614Q148.16-17.3509,147.89-15.2178Z"/><g class="cls-6"><path class="cls-7" d="M139.1666-84.9576v.0021c.0456.0353.0913.0706.1349.1058C139.2559-84.8849,139.2122-84.9223,139.1666-84.9576Zm0,0v.0021c.0456.0353.0913.0706.1349.1058C139.2559-84.8849,139.2122-84.9223,139.1666-84.9576Zm0,0v.0021c.0456.0353.0913.0706.1349.1058C139.2559-84.8849,139.2122-84.9223,139.1666-84.9576Zm0,.0021c.0456.0353.0913.0706.1349.1058-.0456-.0352-.0893-.0726-.1349-.1079Zm50.8155,217.6543C188.26,122.415,183.371,112.986,178.8972,103.57a413.4612,413.4612,0,0,1-17.4323-42.71q-2.2473-6.5208-4.2766-13.1142-.0249-1.192-.0789-2.3717a99.8958,99.8958,0,0,0-2.8054-19.2709q-.9276-3.7911-2.1207-7.4908A64.2043,64.2043,0,0,1,148.3943,5.86a67.9926,67.9926,0,0,1-.5043-21.0782q.2678-2.1321.6433-4.231c2.0978-11.8069,6.5385-22.7631,10.5578-32.5614,4.3908-10.6989,8.2835-20.0158,8.0884-27.5481-.2407-.1038-.4855-.21-.73-.3217a29.9282,29.9282,0,0,1-9.736-7.0426,28.6442,28.6442,0,0,1-2.434-3.0565c-.1992-.2864-.3922-.5748-.5748-.8653a29.3536,29.3536,0,0,1-3.2412-6.9535,32.8312,32.8312,0,0,1-1.1164-4.7124c-.0208-.1286-.0415-.2573-.06-.3859a38.3623,38.3623,0,0,1-.1431-10.0162c.0145-.1328.0311-.2614.0456-.3859a28.8766,28.8766,0,0,1,.5706-3.206q-.57,1.7212-1.1371,3.4446c-.0477.1473-.0975.2967-.1473.444v.0021q-.7252,2.2068-1.4546,4.41-.9587,2.907-1.9173,5.8121c-.054.1639-.1079.3279-.164.4939q-1.1423,3.4674-2.2908,6.9389c-.085.2614-.1722.5229-.2573.7844-.0311.0954-.0623.1909-.0954.2863-.0436.1287-.0872.2594-.1287.388l-.002.0063v.002l-.0083.0249c.0207-.1743.0435-.3465.06-.5229.0062-.0726.0125-.1452.0166-.2158.0062-.0726.0125-.1432.0166-.2158.0063-.0788.01-.1556.0124-.2324.0042-.0622.0083-.1224.01-.1826a.0452.0452,0,0,0,.0021-.0166l.0062-.1867c.0021-.0249.0021-.0478.0021-.0727,0-.0228.0021-.0477.0021-.0705.0021-.05.0021-.1017.0021-.1536l.002-.01c.0042-.1536.0042-.3071.0021-.4607v-.054c0-.1286-.0021-.2593-.0062-.388-.0021-.1411-.0083-.2822-.0166-.4233-.0041-.1079-.01-.2137-.0187-.3216-.0041-.0892-.0124-.18-.0187-.27-.0041-.0518-.0083-.1037-.0145-.1556-.01-.1411-.0249-.2822-.0415-.4212-.01-.1038-.0228-.2055-.0373-.3071-.0125-.1059-.027-.21-.0415-.3134v-.002c-.0146-.1038-.0291-.2075-.0478-.3113-.0228-.1515-.0477-.305-.0788-.4565-.0228-.1162-.0436-.2324-.0664-.3465a.103.103,0,0,0-.0042-.0249c-.0124-.0623-.0249-.1266-.0394-.1909a.112.112,0,0,0-.0083-.0332c-.0145-.0727-.0311-.1453-.0477-.2179a.5054.5054,0,0,0-.0208-.0934,1.2494,1.2494,0,0,0-.0353-.1473.0183.0183,0,0,0-.002-.0145.3541.3541,0,0,0-.01-.0457.0115.0115,0,0,0-.0042-.01c-.0373-.1556-.0767-.3092-.1162-.4627-.0415-.1536-.085-.3071-.1286-.4607-.0477-.17-.1-.3382-.1536-.5063-.0207-.0684-.0436-.1369-.0643-.2054l-.137-.4046c-.2033.2573-.4046.51-.61.7615-.0125.0166-.0249.0311-.0373.0457-14.49,17.8909-36.0517,26.1848-54.7954,21.462C68.4059-84.4824,58.564-98.632,54.7854-105.1538l-.0021-.0021c-.6515-1.1268-1.1225-2.0253-1.4214-2.6063a57.8015,57.8015,0,0,1-2.4609,5.2748c-.0768.1473-.1557.2946-.2366.4461A62.729,62.729,0,0,1,46.1035-94.81c-.21.2863-.4234.5727-.6433.8632-.2324.305-.4668.61-.7138.9192v.0021A57.41,57.41,0,0,1,33.1387-81.8907l-.2553.1806c.23,2.4278.6682,5.5133,1.3488,9.4974.2387,1.3861.5042,2.88.803,4.4945,2.4693,13.3653,5.0631,24.01,5.8931,27.4216q1.3789,5.6647,2.48,10.18c2.8158,11.587,4.25,17.7291,4.21,19.4845a30.872,30.872,0,0,1-.2864,3.5234,40.5919,40.5919,0,0,1-1.0832,5.2353c-2.3925,8.821-7.2916,17.4718-9.6094,26.1081-.67,2.5212-1.494,5.2042-2.3324,7.9889-2.0875,6.9285-4.27,14.4816-4.397,21.7193q-.3174.9867-.6411,1.9755-.2211.6754-.4462,1.3529-.3923,1.192-.7968,2.3842l-.0021.0021c-.12.3569-.2407.7117-.361,1.0686-.1536.4524-.3092.9068-.4648,1.3592a413.0307,413.0307,0,0,1-17.4344,42.71q-.42.8839-.8425,1.7658-.4234.8839-.8467,1.7679t-.8465,1.7721c-.11.2262-.2179.4545-.3258.6827q-.4982,1.0489-.9878,2.102c-.1182.2552-.2365.5125-.3548.7678-.139.2967-.2739.5934-.4087.8922-.1183.2553-.2325.51-.3466.7678Q4.2377,116.5654,3.7,117.825q-.1308.3081-.2614.6163-.6942,1.65-1.3323,3.318c-.058.1514-.1162.305-.1721.4564-.0581.1515-.1163.3051-.17.4566-.056.1514-.1121.3029-.166.4544l-.0042.01c-.0539.1494-.1079.3009-.1618.4523-.1079.3051-.2158.6122-.32.9193-.1038.305-.2054.61-.3071.9151-.1.3112-.1992.6225-.2967.9358-.0477.1536-.0955.3071-.1411.4607l-.0042.01-.1369.4607c-.0478.1577-.0934.3154-.1391.471-.0435.1536-.0871.3071-.1286.4628-.083.2967-.1639.5934-.2428.8922-.0062.027-.0145.054-.0207.0809-.0374.1453-.0747.2906-.1121.4379q-.24.9431-.444,1.8945c-.0208.0954-.0416.193-.0623.2884-.0373.1743-.0726.3486-.1058.525-.0125.0477-.0208.0954-.0291.1411-.0415.2033-.0788.4046-.1162.608-.0519.278-.1016.554-.1473.8321-1.1018,6.5841-4.453,17.1273,4.7332,19.7169,10.122,2.8511,13.2034-11.1263,17.6813-17.1045a107.7848,107.7848,0,0,1,24.77-23.9313c7.9079-5.4822,16.787-10.1179,22.4-17.9324.0415-.0561.081-.1142.12-.17,16.3679,5.2789,34.5679,4.3534,51.7762-1.3965.0768.1141.1577.2283.2386.34,5.6151,7.8125,14.4942,12.45,22.4,17.9324a107.7432,107.7432,0,0,1,24.77,23.9314c4.48,5.9761,7.5614,19.9556,17.6813,17.1045C194.4372,149.8261,191.0839,139.2808,189.9821,132.6988ZM122.8486-70.5361c.3984-.1867.7947-.38,1.191-.5831a35.3618,35.3618,0,0,0,6.7625-4.54c.4752-.4047,1.0438-.8881,1.6684-1.4505l.1245-.112c.0788-.0706.1618-.1453.2448-.2221s.166-.1535.2511-.2324.17-.1577.2553-.2386c.085-.0788.1722-.1618.2614-.2469.06-.056.1183-.1142.1784-.1723.0851-.0809.17-.1639.2553-.2469.2407-.2386.4876-.4855.7345-.7428q.1494-.1525.2988-.3113c.027-.027.0519-.0539.0789-.083.0519-.0581.1079-.1183.1639-.1785.0872-.0933.1743-.1888.2635-.2863.0831-.0913.1661-.1826.249-.276a.0961.0961,0,0,0,.0187-.0228c.1391-.1556.276-.3133.4129-.4731a.1954.1954,0,0,0,.0208-.0228c.2013-.2366.4-.4794.6018-.7263.0684-.083.1369-.17.2054-.2573.137-.1743.2718-.3507.4067-.5291.1079-.1411.2137-.2843.32-.43.0561-.0747.1121-.1515.1661-.23.05-.0685.0975-.139.1452-.2075.11-.16.222-.3237.332-.4876.0975-.1453.193-.2926.2884-.442.0893-.1411.1785-.2822.2657-.4233.0207-.0332.0414-.0664.06-.1.0312-.0478.0623-.0976.0913-.1474h.0021v.0021c.0456.0353.0913.0706.1349.1058.1182.0955.2345.193.3507.2926.0456.0374.0913.0747.1369.1142l-.0021.002a44.2614,44.2614,0,0,1-3.6209,4.8556A32.6472,32.6472,0,0,1,122.88-70.5465l-.0063.0021Zm-58.84-1.0582c-3.0565-1.878-3.5877-5.1648-4.1169-8.7256.0354.0436.0727.0872.11.1308.3985.4793.8031.94,1.2077,1.3819.1784.193.3548.3818.5312.5665q.4357.4577.8695.884c.05.05.1.1.1514.1473.1889.1868.3777.3673.5644.5437.1806.17.3611.3382.54.498.4212.3859.8362.747,1.2367,1.0852.0747.0644.1494.1266.2241.1889.89.7449,1.7119,1.3715,2.407,1.8758.9753.7076,1.7077,1.1744,2.0439,1.384.3217.2013.6412.3943.9628.579.1079.0622.2138.1245.3217.1846A8.7379,8.7379,0,0,1,64.0089-71.5943Zm75.1577-13.3633v.0021c.0456.0353.0913.0706.1349.1058C139.2559-84.8849,139.2122-84.9223,139.1666-84.9576Zm0,0v.0021c.0456.0353.0913.0706.1349.1058C139.2559-84.8849,139.2122-84.9223,139.1666-84.9576Zm0,0v.0021c.0456.0353.0913.0706.1349.1058C139.2559-84.8849,139.2122-84.9223,139.1666-84.9576Zm0,0v.0021c.0456.0353.0913.0706.1349.1058C139.2559-84.8849,139.2122-84.9223,139.1666-84.9576Z"/></g><rect class="cls-8" x="98.8859" y="8.6483" width="0.6226" height="6.7403" transform="matrix(0.9921, -0.1256, 0.1256, 0.9921, -0.724, 12.5551)"/><rect class="cls-8" x="138.0317" y="20.4552" width="0.6226" height="7.4391" transform="translate(3.7945 64.4227) rotate(-26.5658)"/><rect class="cls-8" x="54.3195" y="35.7607" width="8.7671" height="0.6224" transform="translate(5.8446 80.267) rotate(-71.469)"/><g class="cls-6"><path class="cls-7" d="M157.1094,45.3732c-.17.1431-.3424.2842-.5146.4232a29.4511,29.4511,0,0,1-14.658,6.636,21.3534,21.3534,0,0,1-19.3518-8.215,14.57,14.57,0,0,1-2.849-8.2815c-.0685-3.5193,1.0084-7.4369-1.0417-10.2984-2.3095-3.22-7.1028-3.0482-10.9831-2.2493-3.8824.7989-8.3271,1.7741-11.4832-.6225-4.69-3.5587-2.4755-11.062.8549-15.9176,9.2588-13.5,32.6465-26.4089,51.45-26.2969q-.3735,2.0979-.6433,4.231A67.9926,67.9926,0,0,0,148.3943,5.86a64.2043,64.2043,0,0,0,3.789,12.7511q1.189,3.7008,2.1207,7.4908A99.8958,99.8958,0,0,1,157.1094,45.3732Z"/></g></g><g class="cls-9"><path class="cls-10" d="M178.9,166.3006c0,4.3507-34.1734,7.8777-76.3283,7.8777s-76.3284-3.527-76.3284-7.8777,34.1734-7.8779,76.3284-7.8779S178.9,161.95,178.9,166.3006Z"/><path class="cls-11" d="M148.9439,95.3477c3.8676,5.882,9.6331,21.36-5.2354,35.81-3.3506,2.9318-5.4448,4.8166-5.4448,4.8166s2.5129,11.7273-1.466,8.7955c-7.3295,8.586-17.3815,16.5438-21.151,16.7533s-16.3344-1.6753-1.4659-7.539c7.9578-8.7955,10.2614-9.4238,10.2614-9.4238s-13.612-19.4757-10.4708-32.4595c-2.0942,2.3036-2.3036-5.6542.8377-10.2613S138.8919,80.06,148.9439,95.3477Z"/><path class="cls-12" d="M148.9438,95.3475A12.6787,12.6787,0,0,0,139.42,89.23c-9.3947.9377-19.3528,9.5463-21.4416,12.6094-3.1413,4.6073-2.9316,12.5651-.8377,10.2616C113.999,125.0847,127.611,144.56,127.611,144.56s-2.3036.6283-10.2614,9.4239c-12.2652,4.8368-5.8644,6.9645-1.13,7.4447,4.1291-.8655,13.5859-8.4676,20.5782-16.6593,3.979,2.932,1.4661-8.795,1.4661-8.795s2.0942-1.8851,5.4448-4.8166C158.577,116.7082,152.8114,101.23,148.9438,95.3475Z"/><path class="cls-11" d="M141.4279,113.1607a6.0123,6.0123,0,0,1-3.7592-9.5367c.1722-.2291,17.5163-23.58,18.03-45.4488.4526-19.2654-14.88-25.0657-15.5331-25.303A6.01,6.01,0,0,1,144.1451,21.53a36.1949,36.1949,0,0,1,12.1731,7.8465c5.3895,5.1782,11.7416,14.4271,11.3973,29.0811-.6055,25.7739-19.6362,51.3239-20.4461,52.3989A6.0106,6.0106,0,0,1,141.4279,113.1607Z"/><path class="cls-11" d="M141.4279,113.1607a6.0123,6.0123,0,0,1-3.7592-9.5367c.1722-.2291,17.5163-23.58,18.03-45.4488.4526-19.2654-14.88-25.0657-15.5331-25.303A6.01,6.01,0,0,1,144.1451,21.53a36.1949,36.1949,0,0,1,12.1731,7.8465c5.3895,5.1782,11.7416,14.4271,11.3973,29.0811-.6055,25.7739-19.6362,51.3239-20.4461,52.3989A6.0106,6.0106,0,0,1,141.4279,113.1607Z"/><path class="cls-11" d="M53.09,118.1227s1.7285,14.26.2161,19.0131S43.0435,147.3986,41.5311,149.019s-3.4569,4.3212-2.2686,7.9942,5.9416-.2161,7.2379-3.3489c5.6176-.9723,14.4759-7.67,15.34-8.4263-.6482,2.1606,4.3211,3.2409,7.0219-14.0438S53.09,118.1227,53.09,118.1227Z"/><path class="cls-13" d="M41.711,157.0132c-1.1883-3.673.7562-6.3737,2.2686-7.9942s10.2628-7.13,11.7752-11.8832-.2161-19.0131-.2161-19.0131a22.04,22.04,0,0,1,3.3181-.4169,22.98,22.98,0,0,0-5.7664.4169s1.7284,14.26.216,19.0131S43.0436,147.3986,41.5312,149.019s-3.4569,4.3212-2.2686,7.9942c.5364,1.6584,1.8007,1.7677,3.1447,1.1082A2.3269,2.3269,0,0,1,41.711,157.0132Z"/><path class="cls-11" d="M75.903,72.5527s.5215,8.228,13.9171,12.117c9.0744-5.6175,27.6554-13.8277,23.1183-7.13,16.8525-1.08,34.3532,3.0968,28.3036,8.4983,11.4511,5.6175,26.143,46.2364-24.6306,53.15S48.9851,124.4964,48.553,111.749c0,3.2409-8.21-3.889-5.4015-27.8715S75.903,72.5527,75.903,72.5527Z"/><path class="cls-12" d="M141.2421,86.0381c5.9091-5.2757-10.65-9.3808-27.1275-8.5622,13.0652.6473,23.5086,4.2056,18.6291,8.5622,11.4511,5.6175,26.143,46.2364-24.6306,53.15-5.05.6874-9.7581,1.0887-14.1539,1.2491a130.5072,130.5072,0,0,0,22.6523-1.2491C167.3852,132.2745,152.6932,91.6556,141.2421,86.0381Z"/><path class="cls-13" d="M89.8686,84.64l-.0483.03c-6.743-1.9577-10.2223-5.0141-12.0166-7.5676a40.8191,40.8191,0,0,0-5.052.4377c4.5372-6.6979-14.0439,1.5123-23.1183,7.13a29.4284,29.4284,0,0,1-6.2129-2.5374c-.1051.5608-.198,1.1381-.2688,1.7453C40.3429,107.86,48.5531,114.99,48.5531,111.749c.3017,8.9044,8.62,22.1282,30.9107,26.9377,33.2738-6.2732,36.8375-37.1554,21.5707-52.6717A9.033,9.033,0,0,0,89.8686,84.64Z"/><path class="cls-12" d="M85.5054,104.763c-5.8171-8.5559-27.55-9.9459-25.5824,4.8415.8428,6.3327,3.7933,12.3326,4.3326,8.9161,5.5732,10.5329,9.1843,17.5767,9.1843,17.5767s.0119.3731.0363.9989a72.8935,72.8935,0,0,0,16.0086,3.0661,14.92,14.92,0,0,0-1.3833-3.959C85.946,131.853,91.3221,113.3188,85.5054,104.763Z"/><path class="cls-11" d="M56.2231,106.8877c.2313,6.3841,2.5926,12.6394,3.4569,9.2905a84.0364,84.0364,0,0,0,10.6949,18.689s-.8642,13.5037-.1081,16.3124,7.454,11.9913,11.127,12.9635,9.6146-2.9167,6.59-4.3211-11.5591-9.9387-3.1328-17.3927c1.08,1.1883,1.8365-1.5124.108-6.05s5.4015-22.47.4321-31.5446S55.6829,91.98,56.2231,106.8877Z"/><path class="cls-13" d="M81.375,164.1359c3.2721-.6755,6.3766-3.3134,3.9768-4.4275-3.1016-1.44-11.8528-10.1914-3.2126-17.8344,1.1077,1.2182,1.8833-1.5509.111-6.2033s5.5386-23.0406.4431-32.3459A12.1553,12.1553,0,0,0,78.9,99.35c-9.0217-4.319-23.0857-3.7447-22.6768,7.5376.2312,6.3843,2.5927,12.6394,3.4569,9.2905a84.0364,84.0364,0,0,0,10.6949,18.689s-.8642,13.5037-.108,16.3124C71.0219,153.9837,77.6978,163.138,81.375,164.1359Z"/><path class="cls-12" d="M77.7531,80.5117a22.2912,22.2912,0,0,0-.2055-3.7877,9.58,9.58,0,0,1-1.6445-4.1714S45.96,59.895,43.1517,83.8775a74.59,74.59,0,0,0-.47,13.2386,22.5761,22.5761,0,0,0,11,3.0506C66.6345,100.56,77.4117,91.76,77.7531,80.5117Z"/><path class="cls-11" d="M148.804,95.5446a36.6877,36.6877,0,0,1,8.8584,28.9518c-.4321,4.9694,5.6176,6.6978,9.2905,6.05s3.8891,10.5868-7.13,12.5313-34.7854-5.1854-41.0511-30.68S139.2975,87.5505,148.804,95.5446Z"/><path class="cls-11" d="M168.0332,130.6541c2.1983,1.5389,5.7135,17.3232,8.4263,18.1489,2.4846.7562,2.1394,4.86-1.1884,5.51-4.4291.8642-11.9911-4.2131-13.5036-13.0715S166.9529,129.8979,168.0332,130.6541Z"/><path class="cls-12" d="M176.46,148.803c-2.4146-.7347-5.4635-13.31-7.6548-17.1547a2.6279,2.6279,0,0,0-.2861-.4587,2.1817,2.1817,0,0,0-.4854-.5355,1.084,1.084,0,0,0-.6481-.1224,1.6473,1.6473,0,0,0-.4322.0144c-3.6729.6481-9.7225-1.08-9.2905-6.05a36.6878,36.6878,0,0,0-8.8583-28.9518c-5.0259-4.2262-14.8806-6.3956-22.13-3.7379,5.8677-.1367,12.0179,1.8373,15.6482,4.89a36.6877,36.6877,0,0,1,8.8584,28.9518c-1.81,10.9468,13.0956,14.4881,5.1529,17.7277a21.3529,21.3529,0,0,0,3.4894-.2992,13.19,13.19,0,0,0,5.1466-1.9926c4.0013,10.8185,9.3087,13.4214,10.3016,13.2277C178.5987,153.6631,178.9443,149.5592,176.46,148.803Z"/><path class="cls-11" d="M69.7351,67.6338c-.6861,6.4491-12.075-1.6466-12.4866-3.156S64.76,47.6505,66.03,47.1887C68.2943,46.3654,70.4211,61.1847,69.7351,67.6338Z"/><path class="cls-11" d="M66.03,47.189a1.3282,1.3282,0,0,0-.4118.37c1.9175,2.3531,3.4755,14.4253,2.8741,20.0749a2.3648,2.3648,0,0,1-2.0086,2.4091c1.7073.2275,3.0311-.34,3.2509-2.4091C70.421,61.1846,68.2942,46.3652,66.03,47.189Z"/><path class="cls-14" d="M67.7545,66.3089c-.4759,4.9484-8.3769-1.2635-8.6624-2.4216s5.2112-12.9118,6.0922-13.2662C66.755,49.9894,68.2305,61.36,67.7545,66.3089Z"/><path class="cls-13" d="M48.8783,47.7376c.8233.96,5.2828,12.0063,6.4491,15.2309s-7.2038,5.077-8.919,4.6653,1.1664-20.3079,1.3722-20.8567S48.8783,47.7376,48.8783,47.7376Z"/><path class="cls-13" d="M48.0682,47.7376s-.1671-.2782-.3713-.552c-.511,2.8889-2.8814,20.066-1.2883,20.4483a2.1089,2.1089,0,0,0,.2713.04c2.8092-.18,8.839-1.9361,7.8372-4.7056C53.3508,59.7439,48.8916,48.6979,48.0682,47.7376Z"/><path class="cls-14" d="M47.1038,66.7593c-1.1371-.2731-.0352-10.0339.7029-15.3894a.2484.2484,0,0,1,.4707-.0743c1.4089,2.9586,4.2757,10.1036,5.14,12.4926a1.64,1.64,0,0,1-.3648,1.6883A12.6906,12.6906,0,0,1,47.1038,66.7593Z"/><path class="cls-11" d="M32.6183,79.7774c0,11.2536,8.1038,20.3765,21.0626,20.3765S77.1447,91.031,77.1447,79.7774,69.5211,61.4591,56.5624,61.4591,32.6183,77.4326,32.6183,79.7774Z"/><path class="cls-13" d="M55.067,61.537C42.77,62.684,32.6184,77.5236,32.6184,79.7774c0,10.7029,7.3337,19.4723,19.1992,20.3053C63.8954,99.25,73.4,90.48,73.4,79.7774,73.4,69.1923,66.6522,62.3172,55.067,61.537Z"/><path class="cls-12" d="M37.9532,75.9953l-.0431-.0006a1.212,1.212,0,0,1-.94-.488.2152.2152,0,0,1,.3368-.2681.789.789,0,0,0,.6166.3258c.9155.0313,2.05-1.2174,2.0613-1.23a.2152.2152,0,0,1,.3187.2892C40.252,74.68,39.0468,75.9953,37.9532,75.9953Z"/><path class="cls-12" d="M47.905,74.8925a2.7088,2.7088,0,0,1-1.8188-.5759,2.0809,2.0809,0,0,1-.7089-1.3827.2152.2152,0,0,1,.43-.02,1.6731,1.6731,0,0,0,.5644,1.08,2.648,2.648,0,0,0,2.0541.4377c2.6357-.29,5.4289-4.5681,5.4569-4.6114a.2151.2151,0,1,1,.3613.2337c-.1184.1833-2.9341,4.4934-5.7711,4.8056A5.1829,5.1829,0,0,1,47.905,74.8925Z"/><path class="cls-15" d="M41.9658,75.7385s-.4481,6.7647-.4474,7.125-3.8612-.6673-3.0856-3.7973S42.2992,72.7092,41.9658,75.7385Z"/><path class="cls-15" d="M42.0288,75.0963s.5135,5.7783,1.8907,7.8949,5.0637-3.1414,5.2535-4.7078S42.1447,72.0816,42.0288,75.0963Z"/><path class="cls-16" d="M41.9352,73.97s-.39-.4345-.75-.4338-.3675,1.9092.3649,2.5215c1.2482-.2377,2.9708-2.1075,2.05-2.8969C42.9352,72.5915,41.9352,73.97,41.9352,73.97Z"/><path class="cls-12" d="M22.1975,79.9769a.28.28,0,0,1-.1194-.5337c3.5575-1.6735,12.2976-1.2087,12.6669-1.1881a.28.28,0,0,1,.2641.2951.2851.2851,0,0,1-.295.2641c-.09-.0052-8.9681-.4779-12.3977,1.1359A.2777.2777,0,0,1,22.1975,79.9769Z"/><path class="cls-12" d="M24.4965,88.9984a.28.28,0,0,1-.3054-.4537c2.7048-2.8532,11.0149-5.6,11.3665-5.7155a.28.28,0,0,1,.3533.1788.2852.2852,0,0,1-.1787.3533c-.0857.028-8.5273,2.8179-11.1347,5.5689A.2777.2777,0,0,1,24.4965,88.9984Z"/><path class="cls-12" d="M23.1015,84.7853a.28.28,0,0,1-.1728-.501c3.42-2.6727,12.3567-3.3409,12.7354-3.3683a.2866.2866,0,0,1,.3.26.2806.2806,0,0,1-.26.3c-.091.0064-9.1449.6829-12.43,3.2507A.279.279,0,0,1,23.1015,84.7853Z"/><path class="cls-12" d="M66.5407,78.6431a.28.28,0,0,0,.1194-.5337c-3.5575-1.6735-12.2976-1.2087-12.6669-1.1881a.28.28,0,0,0-.2641.2951.2851.2851,0,0,0,.295.2641c.09-.0052,8.9681-.4779,12.3977,1.1359A.2777.2777,0,0,0,66.5407,78.6431Z"/><path class="cls-12" d="M63.6021,87.2444a.28.28,0,0,0,.3054-.4537c-2.7048-2.8532-10.3754-5.18-10.7269-5.2953a.28.28,0,0,0-.3533.1787.2852.2852,0,0,0,.1787.3534c.0857.028,7.8877,2.3978,10.4951,5.1488A.2775.2775,0,0,0,63.6021,87.2444Z"/><path class="cls-12" d="M65.6367,83.4515a.28.28,0,0,0,.1728-.501c-3.42-2.6727-12.3567-3.341-12.7354-3.3683a.2865.2865,0,0,0-.3.26.2806.2806,0,0,0,.2595.3c.091.0064,9.1449.6829,12.4305,3.2507A.279.279,0,0,0,65.6367,83.4515Z"/><polygon class="cls-11" points="85.487 88.374 85.494 88.379 85.488 88.375 85.487 88.374"/><path class="cls-11" d="M86.1661,88.1169a.5.5,0,0,0-.2685-.34,2.1608,2.1608,0,0,0-.2792-.1472,1.6089,1.6089,0,0,0-.5585-.1142,1.8188,1.8188,0,0,0-.3069.0088,1.8784,1.8784,0,0,0-.2874.0777,1.7251,1.7251,0,0,0-.492.2475.2557.2557,0,0,0,.2552.4359c.0353-.0153.0708-.03.1072-.0425l.0489-.0162.0036-.0013.0021-.0005a1.5641,1.5641,0,0,1,.2128-.0376l.0353-.0031.0236,0c.0336.0014.0671.0049.1007.0061a2.106,2.106,0,0,1,.23.0163c.0341.0049.0679.0108.1016.0179l.0357.0086.0085.0026c.0694.0211.1376.0473.2051.0735q.0478.0186.0943.04c.0166.0078.0329.0162.0493.0244l-.0093-.0068.01.0071.0077.0037c.0333.0162.0155.01-.0016.0006.0218.0162.05.03.0706.0441a.45.45,0,0,0,.3108.0838A.3467.3467,0,0,0,86.1661,88.1169Z"/><path class="cls-11" d="M85.6291,89.9578a2.3228,2.3228,0,0,0-.0882-.3051,1.0816,1.0816,0,0,0-.1664-.277,1.7917,1.7917,0,0,0-.4189-.3818,1.9385,1.9385,0,0,0-1.0356-.3448.3095.3095,0,1,0-.071.6149c.0314.0054.0623.0121.0934.0189l.0063.002.0466.0147a1.55,1.55,0,0,1,.2.0829l.0375.02c.0281.0177.0563.0351.0835.0541a1.6752,1.6752,0,0,1,.17.1354l.0155.0146c.0253.0288.051.057.075.087.0451.0563.0873.1158.1279.1754l.0149.0235.0176.0276.0207.0324-.016-.0245,0,0a1.1148,1.1148,0,0,0,.072.1167c.0195.0269.0373.0547.0557.0823l.02.038a.3916.3916,0,0,0,.46.2185A.3842.3842,0,0,0,85.6291,89.9578Z"/><path class="cls-11" d="M84.7194,89.892c-.0058-.0086-.0032-.0037.0223.0355L84.737,89.92Z"/><path class="cls-11" d="M86.1418,98.6062a3.5031,3.5031,0,0,0-.45-.8564.2515.2515,0,0,0-.398.3075,3.0385,3.0385,0,0,1,.3254.7193,2.8505,2.8505,0,0,1,.0824.3633c.0223.1357.035.2727.0538.4088.0208.15.1256.3936.3153.3659.1969-.0288.2538-.2877.25-.4484A2.8044,2.8044,0,0,0,86.1418,98.6062Z"/><path class="cls-11" d="M94.3926,107.8953a7.143,7.143,0,0,0-.3148-1.511c-.1112-.3495-.7026-.1865-.6218.1743a6.2394,6.2394,0,0,1,.1616,1.4485c-.0037.2524-.0314.5-.054.7511a1.06,1.06,0,0,0,.0284.4581.4047.4047,0,0,0,.4127.257c.3608-.0485.4123-.4747.4166-.7681A7.6022,7.6022,0,0,0,94.3926,107.8953Z"/><path class="cls-11" d="M95.8219,106.5743q-.145-.1329-.3016-.2526a5.0543,5.0543,0,0,0-.7409-.4649.3518.3518,0,0,0-.2714.0023.3655.3655,0,0,0-.1667.1522.3507.3507,0,0,0,.09.4559,4.5163,4.5163,0,0,1,.7707.6022c.0516.0527.1029.1057.1519.1608a1.493,1.493,0,0,0,.1493.1557.5476.5476,0,0,0,.1235.0777.4794.4794,0,0,0,.2288.0268l.0907-.0255a.2756.2756,0,0,0,.1151-.0814.376.376,0,0,0,.1071-.2154C96.2089,106.9069,95.9931,106.7311,95.8219,106.5743Z"/><path class="cls-11" d="M95.246,96.2752a.97.97,0,0,0-.5824-.4387,2.8926,2.8926,0,0,0-.587-.1444,2.7106,2.7106,0,0,0-1.0879.0779.3224.3224,0,0,0,.0931.638c.0409-.0049.0818-.0092.1228-.0122.0122-.0009.1038,0,.0848-.0025.0645.0033.1292.0074.1936.0123q.1228.0093.2441.0307c.0407.0072.0809.0164.1214.0245l.01.0019.02.0059a2.69,2.69,0,0,1,.43.1635c.0325.0157.0642.0328.0964.0491l.0264.0144c.0272.0154.0543.0311.0817.0462a.8175.8175,0,0,0,.3065.1031.43.43,0,0,0,.3741-.1589A.41.41,0,0,0,95.246,96.2752Z"/><path class="cls-12" d="M130.8752,96.169a1.1613,1.1613,0,0,0-.3008-.1422.99.99,0,0,0-.4545-.0089,2.3725,2.3725,0,0,0-.6478.1983,2.5635,2.5635,0,0,0-.5588.35,1.6857,1.6857,0,0,0-.4192.5862.3117.3117,0,0,0,.4761.3608c.1347-.1115.2826-.2.4254-.2989.036-.0251.0712-.051.1081-.075l.03-.0212.0173-.0085a2.4659,2.4659,0,0,1,.25-.1184q.0612-.0245.1236-.0453l.0493-.0157c.0856-.0184.17-.0415.2562-.0554a2.6314,2.6314,0,0,0,.2984-.0451,1.889,1.889,0,0,0,.2758-.1021A.3289.3289,0,0,0,130.8752,96.169Z"/><path class="cls-12" d="M131.031,98.0381a.4854.4854,0,0,0-.333-.2653,1.543,1.543,0,0,0-.3008-.0676,3.058,3.058,0,0,0-.53.0028,2.7465,2.7465,0,0,0-.9354.26.4093.4093,0,0,0,.32.7536c.0683-.0306.1376-.0586.2085-.0828.0249-.0085.05-.0163.0749-.0242l.0385-.01a2.417,2.417,0,0,1,.4015-.061c.02-.0014.0813-.0151.0982-.0047q-.0945.001-.0257.0009l.056.0012q.0981.003.1957.0141c.0652.0075.13.01.1957.0151.0371.0029.074.0089.1111.0114a.4337.4337,0,0,0,.3071-.0922A.3867.3867,0,0,0,131.031,98.0381Z"/><path class="cls-12" d="M135.11,102.4841a2.128,2.128,0,0,0-.4412-.2594q-.1789-.0873-.3653-.1586a5.2032,5.2032,0,0,0-.8695-.2445.39.39,0,0,0-.3534.626.46.46,0,0,0,.2639.149c-.1121-.0282-.0194-.0047.0011.0009l.0765.0217q.0636.0187.1266.0393.145.0474.2869.1045a4.6281,4.6281,0,0,1,.5038.2414,4.0938,4.0938,0,0,0,.3585.2019.4171.4171,0,0,0,.5182-.1829A.4219.4219,0,0,0,135.11,102.4841Z"/><path class="cls-12" d="M126.4616,104.2724c-.0473-.0805-.0968-.16-.15-.2366a3.2452,3.2452,0,0,0-.4253-.476,4.024,4.024,0,0,0-.9837-.6915.3331.3331,0,0,0-.4321.1834.3423.3423,0,0,0,.1834.4322c-.0817-.046-.0072-.004.0066.0043l.0621.0377q.0516.032.1019.0657.111.0742.2164.1563t.2049.1718c.0354.0318.07.0646.1041.0975l.0483.05c.1226.13.2312.27.3411.4106q.0824.105.157.2157a.5209.5209,0,0,0,.3556.21.25.25,0,0,0,.2606-.1549.7583.7583,0,0,0,.04-.1607A.4777.4777,0,0,0,126.4616,104.2724Z"/><path class="cls-12" d="M130.0375,109.2721c-.0138-.1058-.029-.2124-.0522-.3166a5.0723,5.0723,0,0,0-.2028-.6653,5.5679,5.5679,0,0,0-.6044-1.1568.3808.3808,0,0,0-.6511.3812,5.13,5.13,0,0,1,.474,1.0869l.0143.0481.0029.0108c.0125.0486.0252.0971.0367.146.023.0979.0409.1966.061.2951s.0412.1971.0573.2967a.86.86,0,0,0,.0532.2165.4953.4953,0,0,0,.25.2385.384.384,0,0,0,.3917-.0539A.5443.5443,0,0,0,130.0375,109.2721Z"/><path class="cls-12" d="M131.6483,106.8432a1.3969,1.3969,0,0,0-.7584-.5078,2.2444,2.2444,0,0,0-.8891-.0835.3648.3648,0,0,0,.0108.7224,1.7874,1.7874,0,0,1,.2367.04,1.83,1.83,0,0,1,.3414.14c.0547.033.11.066.1625.1014q.0515.0343.1.0722a1.5555,1.5555,0,0,0,.2042.1361l-.1064-.0606c.03.0172.0592.035.0882.0536a.4687.4687,0,0,0,.2713.0859.4781.4781,0,0,0,.26-.0872.8153.8153,0,0,0,.08-.08.4859.4859,0,0,0,.086-.2715A.4514.4514,0,0,0,131.6483,106.8432Z"/><path class="cls-12" d="M127.9305,115.1891a3.2023,3.2023,0,0,0-.3849-.5884,2.3748,2.3748,0,0,0-.5029-.4629,2.9111,2.9111,0,0,0-.6263-.3056.3336.3336,0,0,0-.41.1447.3291.3291,0,0,0,.0841.4268c.0392.0261.0779.0528.1157.0809.0071.0052.0557.0374.0863.0619l.0021.0027.0234.0288c.031.0347.0664.0662.1007.0976l.0445.0416.0014.0016a4.4328,4.4328,0,0,1,.366.4344q.0379.053.0733.1077c.0116.0179.0226.0361.0338.0541l0,0c.0441.0845.0873.1686.1241.2566.0343.0822.0625.1661.09.2508a.992.992,0,0,0,.045.1429.57.57,0,0,0,.2988.3.4514.4514,0,0,0,.5228-.1428C128.2345,115.8336,128.0777,115.473,127.9305,115.1891Z"/><path class="cls-11" d="M149.0947,37.2294a1.331,1.331,0,0,0-.4094-.0749q-.1878-.0027-.3755.0051a3.5332,3.5332,0,0,0-.6513.0744,4.4061,4.4061,0,0,0-.6739.1974,4.1817,4.1817,0,0,0-.6113.3331.24.24,0,0,0,.18.4248,7.9435,7.9435,0,0,1,1.2154-.1976c.098-.0081.1956-.0188.2935-.0268q.09-.0074.181-.0114c.0076,0,.0753-.0026.0856-.0033a5.6464,5.6464,0,0,0,.68-.008A.3747.3747,0,0,0,149.0947,37.2294Z"/><path class="cls-11" d="M149.6617,38.2837a1.179,1.179,0,0,0-.3808-.065c-.08.0018-.1605.0072-.24.0168a2.97,2.97,0,0,0-.5233.1182,2.9323,2.9323,0,0,0-.8873.4438.3128.3128,0,0,0-.0557.4341.3188.3188,0,0,0,.4341.0556c-.0527.0315.0461-.0247.0557-.03q.0507-.0264.1024-.05.091-.0421.1853-.0764c.036-.0132.0726-.0243.1088-.0368l.0239-.0073.03-.0077a1.6944,1.6944,0,0,1,.1962-.0367q.1-.0127.2-.0173l.0279-.001.0152,0c.0377.0015.0755.0018.1133.0041.0666.004.1324.0119.1985.02a2.0566,2.0566,0,0,0,.305-.0015.3982.3982,0,0,0,.3381-.3483A.4023.4023,0,0,0,149.6617,38.2837Z"/><path class="cls-11" d="M164.7274,39.0965a.3643.3643,0,0,0-.7209.1052c.0107.0828.019.1658.0236.2492.0007.0117.0023.1128.0031.1,0,.0286,0,.0573-.0015.0859a3.2653,3.2653,0,0,1-.0584.5132c-.008.0411-.0175.0818-.0263.1228l-.002.0083-.01.0349q-.0342.12-.0772.2365a2.9449,2.9449,0,0,0-.2065.5644.4516.4516,0,0,0,.2771.4663.47.47,0,0,0,.5232-.143,1.3209,1.3209,0,0,0,.2423-.5691,3.7228,3.7228,0,0,0,.1145-.6246A3.6266,3.6266,0,0,0,164.7274,39.0965Z"/><path class="cls-13" d="M42.6214,67.759a5.7245,5.7245,0,0,0-.3587-.52l-.4022-.5412a.3131.3131,0,0,0-.5352.3134l.243.4786c-.0405-.0139-.0813-.027-.1234-.0382a2.4118,2.4118,0,0,0-1.1847-.0456.2715.2715,0,0,0-.2234.3.2685.2685,0,0,0,.3.2234c.0414-.0049.0828-.009.1244-.0114l.0384-.0019c.014,0,.028,0,.0421,0a1.9316,1.9316,0,0,1,.2472.0218q.0618.01.1229.0228l.0245.0056.0432.0119a1.5712,1.5712,0,0,1,.2312.0908.334.334,0,0,1,.0991.0508c-.036-.0209-.0427-.0247-.02-.0115l.0235.0141.0462.0291c.0695.0452.1413.0868.209.1347a1.9249,1.9249,0,0,1,.1937.1564c.0138.0126.0622.0618.0028.0009a.8846.8846,0,0,0,.0879.0842.4016.4016,0,0,0,.3057.0844.3222.3222,0,0,0,.2565-.2114.3732.3732,0,0,0,.2793-.3167A.592.592,0,0,0,42.6214,67.759Z"/><path class="cls-13" d="M47.6842,50.0464a.6588.6588,0,0,0-.0413-.148,1.2636,1.2636,0,0,0-.0742-.1287,1.004,1.004,0,0,0-.1982-.22.83.83,0,0,0-.2546-.14,1.35,1.35,0,0,0-.184-.05.3709.3709,0,0,0-.2537.0358,1.1518,1.1518,0,0,0-.2742.12.214.214,0,0,0-.07.0927.2256.2256,0,0,0,.1806.3043c.0175.0012.0345.0054.0516.0083a.35.35,0,0,0,.0595.06.2951.2951,0,0,0,.0368.0224.6717.6717,0,0,1,.0906.0686c.02.0241.0394.0487.0574.0747a.5587.5587,0,0,1,.0343.0761c.013.04.0325.0772.0442.118l-.0291-.1036a.9114.9114,0,0,0,.0353.1217.4134.4134,0,0,0,.1792.1961.3992.3992,0,0,0,.2652.0538.5.5,0,0,0,.1949-.0827.4285.4285,0,0,0,.1594-.2824A.6346.6346,0,0,0,47.6842,50.0464Z"/><path class="cls-11" d="M68.3416,50.0569c-.01.0187-.0159.0429.0075-.0128l-.0051.0084Z"/><path class="cls-11" d="M69.2411,50.3605a.3326.3326,0,0,0-.2763-.2387.8466.8466,0,0,0-.2572-.008,1.3371,1.3371,0,0,0-.2744.0737c-.0681.026-.1346.0561-.2.0884l.0023-.0057q.036-.0807.0769-.1592c.0093-.0177.02-.0359.0292-.0541l.0013-.0026.0011-.0018.0075-.0139-.0024.0055.0309-.0507a2.8852,2.8852,0,0,1,.2437-.3346q.0342-.0405.07-.08l.0321-.0345.0188-.02.018-.018.0431-.0409c.0289-.0269.0586-.053.0886-.0788a.2869.2869,0,1,0-.3509-.454,3.1689,3.1689,0,0,0-1.033,1.2483.7208.7208,0,0,0-.0934.5553.3807.3807,0,0,0,.0919.1214l-.0064.0077a.708.708,0,0,0-.1633.3474.4325.4325,0,0,0,.16.3779.4152.4152,0,0,0,.4149.0524.5706.5706,0,0,0,.2061-.1493c.0673-.0595.1287-.1244.1917-.1882l-.0825.0828a2.4284,2.4284,0,0,1,.3057-.259c.1011-.072.2017-.1447.308-.2089.04-.0227.08-.0458.1173-.0723a1.0252,1.0252,0,0,0,.1583-.1339l-.0693.0695q.0384-.0384.0784-.0753A.3358.3358,0,0,0,69.2411,50.3605Z"/><path class="cls-11" d="M70.1367,56.4532a.5382.5382,0,0,0-.0745-.0723l-.02-.02a.4314.4314,0,0,0-.1851-.0725.7514.7514,0,0,0-.5421.1493,1.23,1.23,0,0,0-.1527.15l-.1057.1066a2.2419,2.2419,0,0,0-.2035.2192,2.3991,2.3991,0,0,0-.1826.3387,1.4746,1.4746,0,0,0-.1266.3362.3113.3113,0,0,0,.1225.2886.3153.3153,0,0,0,.317.04,1.5312,1.5312,0,0,0,.3041-.2108,2.24,2.24,0,0,0,.283-.2583,2.32,2.32,0,0,0,.1649-.2488c.0569-.091.1115-.1827.1649-.2755l.0025-.0021-.0273.0479a.5258.5258,0,0,1,.0461-.0588.1923.1923,0,0,0,.09.0061.2371.2371,0,0,0,.197-.2031A.3635.3635,0,0,0,70.1367,56.4532Z"/><path class="cls-11" d="M70.1313,56.4448l.0054.0084C70.1416,56.4581,70.1413,56.4572,70.1313,56.4448Z"/><path class="cls-11" d="M154.8566,69.1105a3.794,3.794,0,0,0-.2958-.8519,4.4983,4.4983,0,0,0-1.0832-1.37c-.2437-.2076-.627.1658-.4013.4033a3.838,3.838,0,0,1,.81,1.2769,4.5647,4.5647,0,0,1,.2158.674c.0646.3009.0656.6553.3664.8231a.27.27,0,0,0,.27-.0372C155.0159,69.8261,154.9246,69.3934,154.8566,69.1105Z"/><path class="cls-13" d="M53.8973,136.2194a1.3457,1.3457,0,0,0-.1493-.4024,1.7746,1.7746,0,0,0-.416-.5,1.7,1.7,0,0,0-1.0542-.3835.2708.2708,0,1,0-.0621.538c.0059.0013.0527.0058.0557.0124q-.0628-.0164-.0181-.0041l.0178.0053q.0581.0176.1143.04.0523.0212.1028.0462l.0405.0211.001.0006a1.5313,1.5313,0,0,1,.1893.137c.0289.0245.0567.05.0841.0764l.0326.0311a1.77,1.77,0,0,1,.1257.1505,1.7531,1.7531,0,0,0-.87.35.236.236,0,0,0-.0575.3041.2336.2336,0,0,0,.2933.0987,1.4585,1.4585,0,0,1,.1623-.0707c.0221-.008.0446-.015.0671-.0219.0073-.0013.0523-.0129.06-.0145a1.488,1.488,0,0,1,.153-.0239c.03-.0031.0593-.0044.089-.0066l.0044,0,.0285,0a1.5076,1.5076,0,0,1,.1762.0146q.033.0048.0659.0109l.0274.0056a.4383.4383,0,0,0,.0778.0218c.0213.0061.0429.0113.0645.0168l.0214.0061c.0453.0144.09.0306.1335.0477l0,0c.0111.0043.0227.0074.0339.0121a.3482.3482,0,0,0,.449-.1906A.3542.3542,0,0,0,53.8973,136.2194Z"/><polygon class="cls-11" points="119.626 149.082 119.627 149.083 119.626 149.083 119.626 149.082"/><path class="cls-11" d="M120.7938,148.29a2.1923,2.1923,0,0,0-.3227-.4817,1.8678,1.8678,0,0,0-.4986-.4108,1.9784,1.9784,0,0,0-.5333-.1839.2751.2751,0,0,0-.298.2076.2806.2806,0,0,0,.1624.3248.4976.4976,0,0,0,.0549.0291l-.0116-.0044.0142.0072c.0315.02.0622.04.0922.0618a1.9027,1.9027,0,0,1,.1811.15c.0278.0258.0569.05.0851.0751l.0336.031a1.9749,1.9749,0,0,1,.15.1772c.0121.0162.0231.0331.0346.05a1.8168,1.8168,0,0,0-.7533-.25,2.1665,2.1665,0,0,0-.9872.1211.3453.3453,0,0,0,.1846.6587,1.7571,1.7571,0,0,1,.18-.0338q.0458-.006.0917-.0094l.04-.0026.0049,0a1.96,1.96,0,0,1,.37.0405l.0154.0035c.0279.0094.0565.0169.0845.0264.0621.0212.1236.0454.1837.0718.0565.0249.11.0549.1653.0822.0273.0135.0556.0251.0829.0384l.0257.013-.0044-.0048.0049.0051.02.01c.0474.0237-.0025.0035-.02-.01a.43.43,0,0,0,.0731.0434.5524.5524,0,0,0,.2253.0956.3911.3911,0,0,0,.34-.1336l.0178.0279a.3615.3615,0,0,0,.3858.1251.3783.3783,0,0,0,.2644-.3061A.9816.9816,0,0,0,120.7938,148.29Z"/><path class="cls-11" d="M119.3469,147.7707c-.0183-.0084-.0319-.012,0,0Z"/></g></g></g></svg>