<svg xmlns="http://www.w3.org/2000/svg" xmlns:xlink="http://www.w3.org/1999/xlink" viewBox="0 0 200 200"><defs><style>.cls-1{fill:none;}.cls-2{fill:#ffc762;}.cls-3{clip-path:url(#clip-path);}.cls-4{fill:#524b45;}.cls-5{fill:#1d0505;}.cls-6{fill:#27221d;}.cls-7{fill:#ffb9b2;}.cls-8{fill:#9a82bc;}.cls-9{fill:#ffc134;}.cls-10{fill:#200c04;}.cls-11{fill:#40322c;}.cls-12{fill:#fceea7;}.cls-13{fill:#fff;}</style><clipPath id="clip-path"><rect class="cls-1" width="200" height="200"/></clipPath></defs><g id="Fondos"><rect class="cls-2" y="-0.1186" width="200" height="200.2372"/></g><g id="Gatos"><g class="cls-3"><path class="cls-4" d="M188.04,259.4457c-2.711-37.3386-24.5906-88.4244-37.266-123.65-1.9579-5.441-3.85-11.2086-2.8482-16.9038a8.1191,8.1191,0,0,0,6.8792-5.2051,11.2946,11.2946,0,0,0-.65-8.5864,4.2105,4.2105,0,0,0,2.6941-4.3792,7.5749,7.5749,0,0,0-2.61-4.7681,15.4187,15.4187,0,0,0,5.1839-6.2184,8.946,8.946,0,0,0-.2977-7.8944c-1.4261-2.3961-4.0562-3.7445-6.4321-5.2038C139.6585,68.63,131.2278,54.3,117.6427,47.2673A54.0169,54.0169,0,0,0,114.33,31.1226c-.8349-2.3-2.2716-4.9037-4.713-5.0616-1.9676-.1273-3.597,1.44-4.873,2.9432A64.9289,64.9289,0,0,0,95.03,44.3974,69.7505,69.7505,0,0,0,67.5874,53.445L53.6311,45.3534c-1.81-1.0492-3.7591-2.1333-5.8465-1.9985a3.7732,3.7732,0,0,0-2.3406.9165c-1.0309.9615-1.2161,2.5065-1.281,3.9147a52.2257,52.2257,0,0,0,5.9962,26.7264c-7.7509,13.8589-5.506,31.1114-10.2736,46.2578a23.85,23.85,0,0,0-1.4664,6.05,6.1849,6.1849,0,0,0,2.3682,5.481c2.2169,1.46,5.1571.672,8.2411.0268A7.3112,7.3112,0,0,0,59.863,140.65a5.6265,5.6265,0,0,0,4.1212,4.4135,8.5481,8.5481,0,0,0,5.9807-1.2693c.6983,4.1224-.008,8.3434-.8357,12.4417-5.056,25.0355-18.6208,77.4539-18.2159,103.21,17.0967,7.6473,36.3635,8.3838,55.0825,8.9992C129.9905,269.2338,178.7751,273.4293,188.04,259.4457Z"/><ellipse class="cls-5" cx="80.6972" cy="84.4075" rx="2.4838" ry="2.5918"/><path class="cls-5" d="M106.4389,74.59a2.4861,2.4861,0,1,1,2.9052,2.1086A2.54,2.54,0,0,1,106.4389,74.59Z"/><path class="cls-6" d="M87.437,92.0433a6.4007,6.4007,0,0,0,7.08,2.9206c1.6516-.4189,3.3207-1.6864,3.4559-3.4885a10.233,10.233,0,0,0-.3772-2.7271c-.43-1.8541-1.0141-3.6854-1.5725-5.5318a.21.21,0,0,1,.3959-.14,39.6153,39.6153,0,0,1,2.27,6.915,4.3553,4.3553,0,0,1-1.2427,4.358,6.6643,6.6643,0,0,1-10.3795-2.1081.21.21,0,0,1,.37-.1982Z"/><path class="cls-6" d="M108.74,83.3821a13.8771,13.8771,0,0,1,.2787,3.054,7.7944,7.7944,0,0,1-1.22,3.7465A6.9312,6.9312,0,0,1,102.946,92.78a5.2568,5.2568,0,0,1-4.3727-1.8387,1.674,1.674,0,0,1-.2892-.3925c-.8859-2.2533-1.4162-4.6282-2.1155-6.9212a.21.21,0,0,1,.3962-.1395c.8958,2.2191,1.5333,4.511,2.446,6.6964a4.5021,4.5021,0,0,0,3.8739,1.718,6.3062,6.3062,0,0,0,4.2626-2.1984,7.7378,7.7378,0,0,0,1.2758-4.7846c-.02-.4938-.0839-.9832-.102-1.512a.21.21,0,0,1,.4192-.0256Z"/><path class="cls-7" d="M99.5843,44.5926a49.6337,49.6337,0,0,1,5.8628-10.6641,8.8486,8.8486,0,0,1,4.0238-3.3224,2.5037,2.5037,0,0,1,1.0114-.1474,2.0741,2.0741,0,0,1,1.3753.8044,5.3064,5.3064,0,0,1,.8719,2.24c.9778,4.4864.9638,7.707.9638,12.4715a.4133.4133,0,0,1-.17.3547.4749.4749,0,0,1-.3479.0133C110.8617,45.83,101.7686,44.1305,99.5843,44.5926Z"/><path class="cls-7" d="M52.42,70.2026c-2.1138-5.4685-4.2244-11.0112-4.9495-16.829a8.5943,8.5943,0,0,1,.1913-3.9264,1.5777,1.5777,0,0,1,.8688-1.05,1.8533,1.8533,0,0,1,1.3914.3054,78.4,78.4,0,0,1,13.496,9.0308A54.4582,54.4582,0,0,0,52.42,70.2026Z"/><path class="cls-8" d="M69.5936,144.2405a268.8239,268.8239,0,0,0,54.1609-12.8883c8.604-3.0189,17.1917-6.5556,24.2945-12.2734a14.74,14.74,0,0,1,.953,4.1425,3.3179,3.3179,0,0,1-.1264,1.47,3.5593,3.5593,0,0,1-1.0249,1.2847c-25.1936,22.6339-77.6923,23.438-78.4287,22.1962A4.2951,4.2951,0,0,1,69.5936,144.2405Z"/><circle class="cls-9" cx="117.7633" cy="152.9222" r="6.4255" transform="translate(-58.1246 232.4008) rotate(-76.7175)"/><circle class="cls-10" cx="117.0951" cy="153.6054" r="1.4039"/><path class="cls-10" d="M117.3019,154.0636a.44.44,0,0,1-.0022-.8806,10.8913,10.8913,0,0,0,6.57-2.259.44.44,0,0,1,.5384.697,11.7769,11.7769,0,0,1-7.1042,2.4426Z"/><path class="cls-9" d="M114.9328,147.4105h-.0049a.33.33,0,0,1-.3253-.3351,1.8479,1.8479,0,0,1,3.5152-.7686.33.33,0,0,1-.596.2846,1.1875,1.1875,0,0,0-2.2588.4939A.33.33,0,0,1,114.9328,147.4105Z"/><path class="cls-11" d="M116.0011,146.2913a.2205.2205,0,0,1-.2156-.1765,16.0108,16.0108,0,0,0-.8422-2.9537.22.22,0,0,1,.412-.1556,16.5823,16.5823,0,0,1,.8619,3.022.22.22,0,0,1-.2161.2638Z"/><path class="cls-12" d="M111.22,143.5162a4.9051,4.9051,0,0,0,4.5652-1.6148c.8551-1.2731.629-2.8481.3867-4.3023-.2108-1.5038-1.1614-3.079-2.8294-3.0625-1.5509-.0332-3.3928.1924-4.3925,1.521a.0581.0581,0,0,1-.0808.0148.0589.0589,0,0,1-.0188-.0741,2.8133,2.8133,0,0,1,.8414-.9646,6.0428,6.0428,0,0,1,4.9916-.7876,4.1643,4.1643,0,0,1,2.14,3.244,7.4812,7.4812,0,0,1-.0936,3.856c-.8027,2.1711-3.4908,2.8455-5.5348,2.3068a.07.07,0,0,1,.0254-.1367Z"/><path class="cls-13" d="M92.4013,88.8629A224.5524,224.5524,0,0,0,47.0134,104.242l-2.8958,1.3652a.0525.0525,0,0,1-.07-.024.0532.0532,0,0,1,.0244-.07l2.8854-1.391A210.6937,210.6937,0,0,1,86.135,90.1942c1.54-.3767,4.6909-1.1,6.2439-1.4338a.0525.0525,0,0,1,.0626.04.0531.0531,0,0,1-.04.0626Z"/><path class="cls-13" d="M92.9191,89.9873a195.1534,195.1534,0,0,0-33.9979,21.5259l-2.1,1.6782a.0524.0524,0,0,1-.0739-.0071.0533.0533,0,0,1,.0074-.0741l2.0834-1.7008A180.4948,180.4948,0,0,1,88.0649,92.3057c1.1816-.6134,3.6077-1.8311,4.808-2.4126a.0524.0524,0,0,1,.07.0239.053.053,0,0,1-.024.07Z"/><path class="cls-13" d="M103.0828,85.479a101.05,101.05,0,0,1,37.1527-12.8014l2.6165-.3191a.0525.0525,0,1,1,.0119.1043l-2.61.3462a105.85,105.85,0,0,0-30.1176,9.11c-1.1765.5641-3.5444,1.7615-4.6974,2.3761L103.1352,85.57a.0525.0525,0,1,1-.0524-.0909Z"/><path class="cls-13" d="M104.5571,86.9672A150.5436,150.5436,0,0,1,147.38,82.06l2.8806.1161a.0525.0525,0,0,1,.05.0546.0534.0534,0,0,1-.055.05l-2.8794-.0884a159.6237,159.6237,0,0,0-34.3644,2.9757c-1.3994.2809-4.238.8943-5.63,1.2172l-2.7985.6831a.0524.0524,0,0,1-.0641-.0373.0534.0534,0,0,1,.0378-.0643Z"/><path class="cls-7" d="M99.1491,78.251a2.2029,2.2029,0,0,0-2.421.4181,4.9265,4.9265,0,0,1-1.4469,1.146,6.0849,6.0849,0,0,1-1.6187.0678,2.3345,2.3345,0,0,0-1.66.7932,1.8442,1.8442,0,0,0-.3425,1.7747,3.0084,3.0084,0,0,0,1.38,1.3916,7.43,7.43,0,0,0,2.1367.9491,3.5242,3.5242,0,0,0,2.2971-.1758,4.3917,4.3917,0,0,0,1.9947-2.4444,5.3877,5.3877,0,0,0,.4414-1.8647A2.014,2.014,0,0,0,99.1491,78.251Z"/><path class="cls-6" d="M137.5906,112.1091a3.8486,3.8486,0,0,0-.1369-.5851c-.0771-.287-.4725-.1582-.4329.1193.0235.165.0119.33.0219.4969a4.5767,4.5767,0,0,1,.0027.5,4.7392,4.7392,0,0,1-.1528,1.0032,6.4934,6.4934,0,0,1-.892,1.7949c-.1543.2418.1824.47.381.2939a3.9018,3.9018,0,0,0,1.0829-1.9636,4.74,4.74,0,0,0,.1529-1.0972A4.6069,4.6069,0,0,0,137.5906,112.1091Z"/><path class="cls-6" d="M138.7821,112.6836a.3225.3225,0,0,0-.3935-.2234.328.328,0,0,0-.2235.3935,4.58,4.58,0,0,1-.0146,1.4392c-.0422.2448-.1066.484-.1729.7232-.033.1193-.073.2363-.1064.3554a1.511,1.511,0,0,0-.0521.4014.2247.2247,0,0,0,.3788.1568,2.4208,2.4208,0,0,0,.617-1.5358A5.5155,5.5155,0,0,0,138.7821,112.6836Z"/><path class="cls-6" d="M94.9012,55.8787a.2436.2436,0,0,0-.2939.3809,1.627,1.627,0,0,1,.2454,1.93,2.301,2.301,0,0,1-1.93,1.0172,5.3791,5.3791,0,0,1-2.6459-.7708,6.9686,6.9686,0,0,1-.76-.4493c-.3242-.4438-.6667-.8753-1.0066-1.3026-.21-.2641-.5961.0272-.53.3084a2.8056,2.8056,0,0,0,1.2823,1.613,5.5757,5.5757,0,0,1,1.31,4.6046,1.4776,1.4776,0,0,1-.2815.5851.6792.6792,0,0,1-.8235.125,8.4972,8.4972,0,0,1-1.4176-.668,10.0152,10.0152,0,0,1-1.262-.8594,7.29,7.29,0,0,0-.535-1.9356,6.9286,6.9286,0,0,0-.9485-1.5737c-.2893-.3623-.7663-1.044-1.3126-.8866-.4535.1306-.4983.7056-.4282,1.09a4.2567,4.2567,0,0,0,.8025,1.5077,10.7026,10.7026,0,0,0,1.926,2.0993,6.3965,6.3965,0,0,1,.0254.6951A4.5388,4.5388,0,0,1,86.09,64.84c-.1372.3765-.4119.8675-.8527.9291a1.2322,1.2322,0,0,1-.8539-.3438,8.453,8.453,0,0,1-.6842-.5674,9.334,9.334,0,0,1-1.21-1.3373,9.5569,9.5569,0,0,1-1.5622-3.2623.2685.2685,0,0,0-.5174.1427,10.0322,10.0322,0,0,0,2.9317,4.8769,3.5485,3.5485,0,0,0,1.5978,1.0339c1.2271.2,1.7422-1.2534,1.8622-2.2064a6.555,6.555,0,0,0,.0472-.9791c.0443.0324.0875.0662.1323.0978a10.1393,10.1393,0,0,0,1.6246.9373c.5464.25,1.2268.6063,1.8076.2609a2.1516,2.1516,0,0,0,.8158-1.6654,4.8859,4.8859,0,0,0-.2571-2.1345,8.0231,8.0231,0,0,0-.6513-1.41,7.01,7.01,0,0,0,1.5161.5542c1.4672.3349,3.4541-.1374,3.8229-1.8239A1.8916,1.8916,0,0,0,94.9012,55.8787ZM85.59,61.2675a9.7306,9.7306,0,0,1-.9471-1.2286,2.5519,2.5519,0,0,1-.5722-1.2414c0-.0815-.001-.2662.09-.29.1528-.0406.5175.4517.6082.556a6.2847,6.2847,0,0,1,.8527,1.276,6.4378,6.4378,0,0,1,.5423,1.5126Q85.8655,61.5712,85.59,61.2675Z"/><path class="cls-6" d="M61.14,130.9129a.3848.3848,0,0,0-.5224.137q-.3225.7168-.6449,1.4338-.1562.3468-.3121.6937c-.1093.2445-.3214.6682.0019.85.3332.1869.5472-.22.6575-.4641.1046-.2311.208-.4626.312-.6938l.645-1.4338A.3936.3936,0,0,0,61.14,130.9129Z"/><path class="cls-6" d="M62.4784,131.4011a.3418.3418,0,0,0-.4624.1212l-.6979,1.295-.3369.6252a3.1962,3.1962,0,0,0-.3221.7253c-.0711.2828.3013.5371.5132.2986a6.1876,6.1876,0,0,0,.7488-1.2966l.6786-1.3063A.3456.3456,0,0,0,62.4784,131.4011Z"/><path class="cls-6" d="M65.1242,132.3586a.2657.2657,0,0,0-.3206.182l-.4089,1.16a5.7249,5.7249,0,0,0-.3715,1.2061.3028.3028,0,0,0,.2216.2911.3067.3067,0,0,0,.3409-.1387,2.9386,2.9386,0,0,0,.2246-.6313l.1611-.5682.3348-1.18A.2646.2646,0,0,0,65.1242,132.3586Z"/><path class="cls-6" d="M75.8572,177.38a8.82,8.82,0,0,1-.2625-2.9791.3591.3591,0,0,0-.356-.356.3632.3632,0,0,0-.356.356,9.8411,9.8411,0,0,0,.0693,2.1471,9.4945,9.4945,0,0,0,.2005,1.0263c.0827.3256.1578.7836.47.9639a.2751.2751,0,0,0,.3979-.1619C76.1355,178.072,75.9349,177.6785,75.8572,177.38Z"/><path class="cls-6" d="M77.8214,175.81c-.1415-.2193-.3059-.3634-.4386-.5737a2.9507,2.9507,0,0,1-.2989-.6047,4.3,4.3,0,0,1-.1766-1.3826.2748.2748,0,0,0-.5371-.0727,2.7133,2.7133,0,0,0,.04,1.6632,3.4036,3.4036,0,0,0,.3373.7683,2.0753,2.0753,0,0,0,.5905.6858A.356.356,0,0,0,77.8214,175.81Z"/><path class="cls-6" d="M78.2835,172.18c-.0376-.0744-.0748-.1489-.1094-.2248l-.029-.0653c.01.0247.0073.0181-.0081-.0195q-.0268-.0663-.0518-.1335a4.3867,4.3867,0,0,1-.1546-.5133q-.0327-.139-.0563-.28l-.0149-.0977c-.0057-.0452-.01-.0905-.0146-.1359a.32.32,0,1,0-.64,0,4.7382,4.7382,0,0,0,.2489,1.22,4.4558,4.4558,0,0,0,.2512.5887c.0443.0842.0918.1672.1425.2478a.6213.6213,0,0,0,.3263.2851.2835.2835,0,0,0,.3559-.2712A1.3434,1.3434,0,0,0,78.2835,172.18Z"/><path class="cls-6" d="M154.5069,196.8331a.4134.4134,0,0,0-.5612-.1471.42.42,0,0,0-.1472.5612,3.7211,3.7211,0,0,1,.2935,1.858,9.3259,9.3259,0,0,1-.5454,1.8406.3123.3123,0,0,0,.5175.3013,3.1032,3.1032,0,0,0,.8609-2.1419A4.55,4.55,0,0,0,154.5069,196.8331Z"/><path class="cls-6" d="M157.4086,197.4924a.3383.3383,0,0,0-.33-.33.3336.3336,0,0,0-.33.33,5.1849,5.1849,0,0,1-.09,1.25c-.0856.4239-.23.8356-.3551,1.2489a.3188.3188,0,0,0,.58.2446,3.7225,3.7225,0,0,0,.4547-1.33A5.95,5.95,0,0,0,157.4086,197.4924Z"/><path class="cls-6" d="M145.5893,155.7173a8.8187,8.8187,0,0,0-2.644-2.9345c-.3923-.2768-.76.3659-.375.6416a7.9284,7.9284,0,0,1,3.1236,4.7425,3.08,3.08,0,0,1-.2488,2.1653,1.139,1.139,0,0,1-.6318.5121,14.3206,14.3206,0,0,0-.5869-1.9472c-.3523-.9156-.9176-1.93-2.0151-1.9886a.4111.4111,0,0,0-.4063.4063,5.0474,5.0474,0,0,0,.9119,3.5793,2.5294,2.5294,0,0,0,1.4464.7946,11.9715,11.9715,0,0,1,.2116,2.6054,1.59,1.59,0,0,1-1.0768,1.6519,1.2659,1.2659,0,0,1-1.1791-.2969,7.279,7.279,0,0,0-.47-.8146.4278.4278,0,0,0-.7781.3281,2.2018,2.2018,0,0,0,.5206.9533,6.5864,6.5864,0,0,1,.5036,1.556,8.1507,8.1507,0,0,1-.007,2.5956c-.06.4716.6873.5434.8109.11a6.3662,6.3662,0,0,0-.1212-3.5912c.0667.0133.134.0246.2024.0315a2.1973,2.1973,0,0,0,2.2131-1.3847,3.9955,3.9955,0,0,0,.2084-1.5541,14.7718,14.7718,0,0,0-.138-1.695c-.0245-.18-.0575-.3576-.0883-.536a1.8042,1.8042,0,0,0,.611-.2986,2.9716,2.9716,0,0,0,.9722-2.5257A7.1458,7.1458,0,0,0,145.5893,155.7173Zm-2.9725,2.1381a2.4431,2.4431,0,0,1,.7876,1.1621,14.1675,14.1675,0,0,1,.5668,1.7871,1.6067,1.6067,0,0,1-.4474-.26A3.3273,3.3273,0,0,1,142.6168,157.8554Z"/></g></g></svg>