<svg xmlns="http://www.w3.org/2000/svg" xmlns:xlink="http://www.w3.org/1999/xlink" viewBox="0 0 200 200"><defs><style>.cls-1{fill:none;}.cls-2{fill:#e0f1c2;}.cls-3{clip-path:url(#clip-path);}.cls-4{fill:#67969a;}.cls-5{fill:#545667;}.cls-6{fill:#ed7777;}.cls-7{clip-path:url(#clip-path-2);}.cls-8{fill:#3d131c;}.cls-9{fill:#2b0a0f;}.cls-10{fill:#932c18;}.cls-11{fill:#632b52;}.cls-12{fill:#ff95bc;}.cls-13{fill:#ff7ea6;}.cls-14{fill:#cf634f;}.cls-15{fill:#a5402c;}.cls-16{fill:#fff;}.cls-17{fill:#8b2025;}.cls-18{fill:#430508;}.cls-19{fill:#ffbfd7;}.cls-20{fill:#4f1f28;}.cls-21{fill:#ffe6d8;}</style><clipPath id="clip-path"><rect class="cls-1" x="-220" y="-0.5914" width="200" height="201.1828"/></clipPath><clipPath id="clip-path-2"><rect class="cls-1" width="200" height="200"/></clipPath></defs><g id="Fondos"><rect class="cls-2" y="-0.1186" width="200" height="200.2372"/></g><g id="Gatos"><g class="cls-3"><path class="cls-4" d="M3.1717,72.48c-3.5566-4.8095-8.7286-7.6945-14.49-9.4036A141.3442,141.3442,0,0,1-.6657,89.3936c2.185,7.078,4.0964,14.5665,2.754,21.8489A34.5674,34.5674,0,0,1-4.5358,125.31c-.4339.5816-.8862,1.1506-1.3457,1.7142a36.0078,36.0078,0,0,0,11.322-11.7451C10.4266,106.55,10.5,95.7823,8.497,85.93,7.53,81.1666,6.0605,76.3881,3.1717,72.48Z"/><path class="cls-5" d="M-20.4683,49.6552A78.3271,78.3271,0,0,1-11.5518,62.677a30.1091,30.1091,0,0,0-3.2409-15.2653c-2.4258-4.924-6.0038-9.6732-5.9164-15.1591.08-5.0228,3.2719-9.4474,6.7662-13.0568A61.7909,61.7909,0,0,1,.8883,7.9212C3.8956,6.2852,7.379,4.5,8.2127,1.1786c.8316-3.31-1.4683-6.6421-4.2-8.69-7.1785-5.38-17.6069-4.9971-25.4309-.6075s-13.2883,12.1483-16.77,20.4156A63.89,63.89,0,0,0-43.01,33.4834,56.5242,56.5242,0,0,1-20.4683,49.6552Z"/><path class="cls-6" d="M2.0883,111.2425c1.3424-7.2824-.569-14.7709-2.754-21.8489A141.3442,141.3442,0,0,0-11.3185,63.0762c-.0746-.1348-.1587-.2643-.2333-.3992a78.3271,78.3271,0,0,0-8.9165-13.0218A56.5242,56.5242,0,0,0-43.01,33.4834a41.6817,41.6817,0,0,0-16.2863-2.7647,55.9976,55.9976,0,0,0-15.3181,3.095c6.1443.5908,12.2687,1.41,18.3454,2.3891,9.4673,1.5028,19.2318,3.5965,26.97,9.2629,8.7394,6.3742,13.815,16.48,18.55,26.1971,4.5066,9.2409,9.1046,19.1424,7.9427,29.361-1.5921,13.9066-13.4285,24.4224-25.7409,31.0445-6.281,3.3686-13.0418,6.1226-20.098,7.1239-.9339.1367-1.8658.228-2.8214.2954-8.0576.569-16.5475-1.57-22.511-7.0326-5.5993-5.1213-8.4207-12.4947-11.8329-19.2319-6.58-12.9726-16.1169-24.6721-28.5423-32.2063a57.9442,57.9442,0,0,0-22.7607-8.0337c-.3029-.0382-.6057-.0621-.9065-.0949.0857.1167.1731.2354.2608.3539.2369-.0036.4759-.02.7149-.0093h.0054a12.0143,12.0143,0,0,0,.848,2.1468q.6512.8862,1.3024,1.7745a31.7322,31.7322,0,0,1,1.8657,2.8124c3.11,3.155,7.0344,5.3764,10.6107,7.9463A99.9688,99.9688,0,0,1-112.01,96.346c1.2454,1.1761,2.453,2.3908,3.5927,3.6693a48.71,48.71,0,0,1,3.6876,4.6469c.8847,1.2731,1.6981,2.59,2.4714,3.9269,2.5168,4.3461,4.5977,8.9437,7.1929,13.2459a85.4816,85.4816,0,0,0,6.8867,10.4923c.259.3138.5144.631.7842.9339a23.9836,23.9836,0,0,0,3.54,3.2863,16.9527,16.9527,0,0,0,6.438,2.9383,65.3436,65.3436,0,0,0,12.6516,5.411,39.19,39.19,0,0,0,9.7863,1.7127c.6164.0217,2.0773.1,3.872.1623,4.6579.1623,11.6338.2115,12.4729-1.1637.3792-.0438.7605-.0892,1.14-.1569a51.2867,51.2867,0,0,0,31.612-18.4275c.46-.5636.9118-1.1326,1.3457-1.7142A34.5674,34.5674,0,0,0,2.0883,111.2425Z"/></g><g class="cls-7"><path class="cls-8" d="M166.13,73.38c-1.6125-.8089-127.1217.2714-129.8092.0026,0,3.7626,3.7626,26.3381,0,28.2194-1.6047.8024-6.29,1.36-11.1349,1.7357,22.7525,9.1355,78.8586,7.811,141.3726,4.477C166.79,96.1454,166.13,73.38,166.13,73.38Z"/><path class="cls-9" d="M166.13,73.38s.66,22.7655.4285,34.4347l2.5278.2375s17.2705-13.1921,17.3687-14.517S167.7429,74.1888,166.13,73.38Z"/><path class="cls-9" d="M36.3212,73.3825c-2.6876-.2687-21.7379,20.1526-21.7379,20.1526.7683,4.1349,4.4839,7.3456,10.603,9.8025,4.8452-.3761,9.53-.9333,11.1349-1.7357C40.0838,99.7206,36.3212,77.1451,36.3212,73.3825Z"/><path class="cls-8" d="M111.117,67.0478s14.7454-15.1246,16.717-16.8128,6.5241,6.1625,7.0787,9.4347.1208,10.4942-1.3621,12.9154S113.9122,72.578,111.117,67.0478Z"/><path class="cls-10" d="M135.6608,59.759l-.009.0034Z"/><path class="cls-10" d="M135.65,59.2292c-.0479-.0024-.0965-.0053-.1446-.005l-.0109,0a.8881.8881,0,0,0-.1176-.0063c-.1287.0044-.26.0179-.3863.035-.053.0071-.1057.0163-.1581.0269-.8149-3.4618-5.1014-10.6695-6.9986-9.0449-1.9716,1.6882-16.717,16.8128-16.717,16.8128,2.7952,5.53,20.9508,7.9584,22.4336,5.5373,1.4353-2.3436,1.8878-9.1845,1.4124-12.5883l.03-.014q.1309-.0583.273-.1057c.0468-.0155.0942-.03.1412-.0454l.064-.02.0014,0-.0115.0017c.0169-.0024.0391-.01.0545-.0137a1.2048,1.2048,0,0,0,.136-.0369c-.0217.0056-.0424.0038.01-.0082l.0118-.0026-.0129.0074.013-.0074c.0279-.0063.0559-.0123.0842-.018.1936-.0392.3182-.1528.2908-.2818C136.0207,59.32,135.8542,59.24,135.65,59.2292Z"/><path class="cls-10" d="M135.4728,59.8113c.1011-.0146.0368-.0106,0,0Z"/><path class="cls-11" d="M129.15,53.0127a.3765.3765,0,0,1,.5444-.0258,20.0538,20.0538,0,0,1,3.417,7.0282c.5236,3.0886.1178,9.8836-1.272,12.2126a12.412,12.412,0,0,1-7.5762-3.3631,2.8076,2.8076,0,0,1-.6408-3.09C124.8173,62.81,127.6657,55.8419,129.15,53.0127Z"/><path class="cls-12" d="M129.15,53.0127a.3765.3765,0,0,1,.5444-.0258,20.0538,20.0538,0,0,1,3.417,7.0282c.5236,3.0886.1178,9.8836-1.272,12.2126a12.412,12.412,0,0,1-7.5762-3.3631,2.8076,2.8076,0,0,1-.6408-3.09C124.8173,62.81,127.6657,55.8419,129.15,53.0127Z"/><path class="cls-13" d="M129.2878,60.015a15.4656,15.4656,0,0,0-1.5506-4.028c-1.4661,3.2716-3.2365,7.6082-4.1151,9.787a2.8073,2.8073,0,0,0,.6409,3.0906,10.8465,10.8465,0,0,0,4.1216,2.57C129.4721,68.6242,129.7618,62.809,129.2878,60.015Z"/><path class="cls-14" d="M89.9923,65.82c-2.3949-2.4653-12.5792-5.9491-19.1863-7.9872l.05-.0525a3.6594,3.6594,0,0,0,.5914-.8495.1888.1888,0,0,0-.1588-.2929.5883.5883,0,0,0-.4852.2134c-.0939.1217-.1971.24-.3067.3563l-.0306.03q-.0429.042-.0871.0834c-.0623.0582-.1241.1169-.1875.1745-.0412.0374-.0854.0731-.129.1091-.0958-.0292-.1938-.0592-.2877-.0877.0046-.0345.0106-.0695.0136-.1035.006-.0672.01-.134.0109-.2a.1581.1581,0,0,0-.0155-.1189q-.033-.0611.0029-.015a.7136.7136,0,0,0-.0044-.108c-.0127-.1237-.0316-.2475-.0553-.3674-.0473-.24-.59-.0816-.6264.1914-.009.0672-.02.1348-.033.2029-.0058.0293-.0113.0587-.0186.0882q.0188-.042-.0041.01l-.0267.0807c-.0034.011-.0092.0494-.0174.08l-.0139.0217c-1.9555-.5842-3.379-.9768-3.8351-1.0835-4.96-1.16-4.1741.73-3.5439,2.2576s8.109,19.0593,9.2643,18.8163S93.4269,69.3556,89.9923,65.82Z"/><path class="cls-13" d="M84.5312,67.301c1.44,1.4826-1.87,3.7554-5.9958,5.8113-3.5156,1.48-6.6218,2.5568-7.0265,2.6418-.9343.1966-6.3592-12.2313-8.0529-16.1986-.095-.2227.3023-.5363.58-.4555C69.4339,60.6694,81.94,64.6332,84.5312,67.301Z"/><path class="cls-12" d="M71.1043,75.4562c1.2058-.4487,2.6839-1.024,4.2607-1.6876,4.1258-2.0562,7.436-4.3289,5.9959-5.8113-2.1776-2.2419-11.3424-5.393-17.4214-7.2755C65.78,64.9451,69.6746,73.7337,71.1043,75.4562Z"/><ellipse class="cls-15" cx="102.8653" cy="91.8204" rx="39.1231" ry="30.5216"/><path class="cls-10" d="M102.8655,61.2989q-1.9988,0-3.9468.1546c19.7538,1.5434,35.1771,14.55,35.1771,30.3669s-15.4233,28.8234-35.1771,30.3669q1.9478.1529,3.9468.1547c21.6071,0,39.123-13.6654,39.123-30.5216S124.4726,61.2989,102.8655,61.2989Z"/><path class="cls-14" d="M66.0864,80.8488l-.003-.0021C66.1686,80.9292,66.12,80.8734,66.0864,80.8488Z"/><path class="cls-14" d="M81.9007,66.0563A34.1081,34.1081,0,0,0,66.7841,80.0157l-.001-.0007a2.9724,2.9724,0,0,0-1.4852-.4357.3881.3881,0,0,0-.103.7612c.0531.0154.1058.032.1579.05.0238.0085.0475.0172.071.0263l.0123.0035-.0021,0a.7664.7664,0,0,1,.26.1446c.0453.0319.09.0638.1352.0964l.0214.0155c.0368.0292.0731.0592.1114.0864.04.0284.0818.0546.1218.0834l-.01-.01c.0177.0172.0393.0315.0583.0473.049.0408.0939.0864.14.13-.036.0739-.07.1488-.1048.223-.1108.0051-.2215.0145-.3329.0275a3.1811,3.1811,0,0,0-.73.1481q-.2067.0757-.08.0412l-.0819.0333c-.0624.0257-.1277.0475-.1872.079a1.9644,1.9644,0,0,0-.3117.2121.33.33,0,0,0,.1446.5475c.0711.0169.1467.0177.2165.0353q-.0436-.0042-.0037.0048a.455.455,0,0,0,.1337.0209c.0578.0051.1162.0049.1741.01l.0436.0032q-.141-.0066.0875.0169c.1308.0114.2625.015.3942.0178a24.3966,24.3966,0,0,0-1.8916,9.385c0,10.8372,7.2459,20.3484,18.1583,25.7641C92.8137,112.1688,100.06,102.6576,100.06,91.82S92.8137,71.472,81.9007,66.0563Z"/><path class="cls-14" d="M61.2853,93.6969c0,15.82,18.6158,28.6451,41.58,28.6451s41.58-12.8251,41.58-28.6451C144.445,82.8092,61.2853,82.8092,61.2853,93.6969Z"/><path class="cls-10" d="M146.1679,97.1819a5.44,5.44,0,0,0-.8785-.5609,7.0014,7.0014,0,0,0-1.0088-.3738,20.0629,20.0629,0,0,0,.1646-2.55c0-3.08-6.66-5.2885-16.208-6.626,6.0118,1.4271,9.7952,3.3484,9.7952,5.7647,0,13.5252-12.554,25.0242-30.07,29.2845,18.1463-1.5294,32.6792-11.1065,35.84-23.3939.2438.14.4835.2877.7169.4443.31.2077.6923-.2772.4025-.5216-.2986-.2517-.6126-.4833-.9342-.7042.0556-.2573.108-.5153.1535-.7748a8.0214,8.0214,0,0,1,.7832.2356,9.7227,9.7227,0,0,1,.9128.342A.3278.3278,0,0,0,146.1679,97.1819Z"/><ellipse class="cls-16" cx="84.2619" cy="88.4316" rx="8.5081" ry="8.3774"/><ellipse class="cls-17" cx="83.2316" cy="88.3737" rx="5.4152" ry="5.332"/><ellipse class="cls-18" cx="83.2316" cy="88.3737" rx="4.0663" ry="4.0039"/><path class="cls-16" d="M78.96,87.9159a1.7732,1.7732,0,1,1,1.8007-1.773A1.7891,1.7891,0,0,1,78.96,87.9159Z"/><ellipse class="cls-16" cx="116.9901" cy="88.4316" rx="8.5081" ry="8.3774"/><ellipse class="cls-17" cx="115.9598" cy="88.3737" rx="5.4152" ry="5.332"/><ellipse class="cls-18" cx="115.9598" cy="88.3737" rx="4.0663" ry="4.0039"/><path class="cls-16" d="M111.6883,87.9159a1.7732,1.7732,0,1,1,1.8007-1.773A1.7891,1.7891,0,0,1,111.6883,87.9159Z"/><path class="cls-19" d="M98.6736,95.335c-.91-.8973-1.7129-1.9741-1.2844-2.692a1.7416,1.7416,0,0,1,1.9189-.6689,5.4347,5.4347,0,0,1,1.3013.4079,5.4366,5.4366,0,0,1,1.3013-.4079,1.7416,1.7416,0,0,1,1.9189.6689c.4286.7179-.36,1.7947-1.2563,2.692a14.04,14.04,0,0,1-1.0665.9545,1.3,1.3,0,0,1-1.7406.0082A14.3248,14.3248,0,0,1,98.6736,95.335Z"/><path class="cls-10" d="M63.3172,99.5955a.3753.3753,0,0,1-.16-.7149c4.765-2.2415,16.4715-1.6189,16.9662-1.5913a.3746.3746,0,0,1,.3537.3952.382.382,0,0,1-.3952.3538c-.1206-.0069-12.0119-.64-16.6055,1.5214A.3715.3715,0,0,1,63.3172,99.5955Z"/><path class="cls-10" d="M66.3965,111.6788a.3753.3753,0,0,1-.4091-.6077c3.6228-3.8215,14.7535-7.501,15.2243-7.6552a.3746.3746,0,0,1,.4733.2393.3821.3821,0,0,1-.2394.4734c-.1148.0374-11.4215,3.7742-14.9138,7.4589A.3724.3724,0,0,1,66.3965,111.6788Z"/><path class="cls-10" d="M64.528,106.0358a.3753.3753,0,0,1-.2315-.671c4.5805-3.58,16.5506-4.4749,17.0579-4.5115a.3838.3838,0,0,1,.4012.3477.3756.3756,0,0,1-.3475.4012c-.1219.0086-12.2487.9147-16.65,4.354A.3731.3731,0,0,1,64.528,106.0358Z"/><path class="cls-10" d="M140.8981,97.809a.3753.3753,0,0,0,.16-.7149c-4.765-2.2415-16.4715-1.6189-16.9662-1.5913a.3746.3746,0,0,0-.3537.3952.3821.3821,0,0,0,.3952.3538c.1206-.0069,12.0119-.64,16.6055,1.5214A.3715.3715,0,0,0,140.8981,97.809Z"/><path class="cls-10" d="M136.9621,109.33a.3753.3753,0,0,0,.4091-.6077c-3.6227-3.8216-13.8968-6.9383-14.3676-7.0925a.3746.3746,0,0,0-.4733.2393.3821.3821,0,0,0,.2394.4733c.1149.0375,10.5649,3.2116,14.0571,6.8963A.3732.3732,0,0,0,136.9621,109.33Z"/><path class="cls-10" d="M139.6873,104.2493a.3753.3753,0,0,0,.2315-.671c-4.5805-3.58-16.5506-4.4749-17.0579-4.5115a.3837.3837,0,0,0-.4012.3477.3756.3756,0,0,0,.3475.4012c.1219.0086,12.2488.9147,16.6494,4.354A.3736.3736,0,0,0,139.6873,104.2493Z"/><path class="cls-14" d="M66.0864,80.8488l-.003-.0021C66.1686,80.9292,66.12,80.8734,66.0864,80.8488Z"/><path class="cls-20" d="M14.5833,93.5351v46.0842c0,13.8253-1.9458,66.8222-.512,70.0481s168.489,2.5346,171.0236,0,.9217-46.0843,0-55.3011,1.3605-64.136,1.3605-60.8312C186.4554,96.6074,14.5833,96.6074,14.5833,93.5351Z"/><path class="cls-21" d="M167.567,105.4129c-1.9246.9949-11.17,10.4968-10.1648,10.8844s6.243,0,6.243,0-.7693,11.2391,0,11.4329,8.3268.7752,8.7143,0,0-11.6267,0-11.6267,5.0383.3875,5.4259-.1938S168.9105,104.7182,167.567,105.4129Z"/><path class="cls-21" d="M163.5929,129.23c-.1034.5391-.621,2.4065,0,2.7171s8.4616.621,8.6169,0a8.3109,8.3109,0,0,0,0-2.0184S163.6706,128.8252,163.5929,129.23Z"/></g></g></svg>