<svg xmlns="http://www.w3.org/2000/svg" xmlns:xlink="http://www.w3.org/1999/xlink" viewBox="0 0 200 200"><defs><style>.cls-1,.cls-8{fill:none;}.cls-2{fill:#d34e48;}.cls-3{clip-path:url(#clip-path);}.cls-4{fill:#b7b7b7;}.cls-5{fill:#474747;}.cls-6{fill:#ffa3a3;}.cls-7{fill:#f2f1f0;}.cls-8{stroke:#1e1a19;stroke-linecap:round;stroke-linejoin:round;stroke-width:0.3156px;}</style><clipPath id="clip-path"><rect class="cls-1" width="200" height="200.1186"/></clipPath></defs><g id="Fondos"><rect class="cls-2" y="-0.1186" width="200" height="200.2372"/></g><g id="Gatos"><g class="cls-3"><path class="cls-4" d="M116.5049,54.5217c-19.7348.24-39.489,1.1355-59.0687,2.6618-6.4687.5043-13.1491,1.1208-18.6072,2.898-1.8677.608-3.6768,1.4517-3.8861,2.5-.2445,1.225,1.7654,2.2459,3.86,2.9376,6.227,2.0567,14.1412,2.6674,21.8225,3.0118,12.619.5657,25.3708.5529,38.0921.2484,6.3777-.1526,12.7525-.3786,19.1227-.6416,4.8234-.1991,9.645-.4624,14.4282-.8681,3.9676-.3366,7.5036-.9539,11.3-1.4789,7.2026-.996,13.4866-2.9756,17.1563-6.173a1.786,1.786,0,0,0,.6234-.788c.1018-.4326-.3113-.8479-.8373-1.1943-1.6519-1.0879-4.3814-1.6871-7.0924-2.1153a121.3435,121.3435,0,0,0-17.8611-1.0254Q126.04,54.4054,116.5049,54.5217Z"/><path class="cls-5" d="M170.4911,221.7434c-.8856,38.4859-37.7294,40.5622-67.6886,44.1136s-45.3489-7.43-47.4969-28.1745,13.0007-27.2765,17.048-33.4386c4.0318-6.1762.9016-19.2848.9016-19.2848s-5.6518-14.74-7.2685-23.0235c-1.5208-7.7822,2.8992-23.68,3.4153-25.5152.04-.1208.0519-.1807.0519-.1807L54.8114,95.384s-.0076-.178-.037-.5186c-.2225-3.8249-1.549-27.9639,1.6789-38.3564l.0405-.091c.7464-2.3651,1.7319-3.9974,3.0334-4.4987C67,49.074,83.4621,75.436,83.4621,75.436c3.3317-.2907,6.5811-.4144,9.6724-.4124a127.8455,127.8455,0,0,1,22.104,1.8367s19.1465-25.3536,23.6642-20.4784c4.5025,4.8611-1.61,39.2749-.4827,42.0061s-5.92,8.737-5.92,8.737c.5554,13.0253-5.625,18.375.31,22.118.2512.1585-.36.2681-.36.2681-.0531.1511-.12.3173-.1727.483-1.4474,4.7433.8712,13.4578,5.31,22.0666a27.9864,27.9864,0,0,0,3.1774,4.4569c1.3807,1.71,3.0838,3.6585,4.9761,5.8665,2.6453,3.127,5.6537,6.759,8.6254,10.9275A100.3654,100.3654,0,0,1,161.24,184.284a79.81,79.81,0,0,1,5.9143,13.9262l.0006.0147a71.2969,71.2969,0,0,1,2.6336,11.57A72.575,72.575,0,0,1,170.4911,221.7434Z"/><path class="cls-6" d="M138.0411,60.9765a.4736.4736,0,0,0-.8309-.1586c-2.59,3.3586-13.7571,17.9051-14.06,19.3808-.3427,1.67,9.8286,7.305,13.2946,14.1917C136.445,94.39,140.51,69.3183,138.0411,60.9765Z"/><path class="cls-6" d="M58.3,89.0311S56.626,63.4942,59,57.4,72.5589,78.7973,72.5589,78.7973Z"/><path class="cls-7" d="M161.3339,58.863a1.8766,1.8766,0,0,1-.61.7549c-3.67,3.1973-9.9537,5.177-17.1563,6.173-3.796.525-7.332,1.1423-11.3,1.4789-4.7832.4056-9.6048.669-14.4282.868-6.37.2631-12.745.4891-19.1227.6417-12.7213.3045-25.4731.3173-38.0921-.2484-7.6813-.3444-15.5955-.9552-21.8225-3.0118-1.7633-.5823-3.4611-1.3987-3.81-2.373-.435-.06-.8862-.1168-1.31-.1794C34.6878,63.2014,69.402,136.42,69.402,136.42c20.098,6.58,40.3138,9.7954,62.8751-2.67L161.95,58.7524C161.7488,58.79,161.5364,58.8257,161.3339,58.863Z"/><path class="cls-8" d="M73.6829,200.7018c5.5861-10.338,15.0582-18.5675,18.64-29.7588"/><path class="cls-8" d="M80.9169,158.9562a185.5282,185.5282,0,0,1-5.9675,39.54"/></g></g></svg>