<svg xmlns="http://www.w3.org/2000/svg" xmlns:xlink="http://www.w3.org/1999/xlink" viewBox="0 0 200 200"><defs><style>.cls-1{fill:none;}.cls-2{fill:#6bc1bc;}.cls-3{clip-path:url(#clip-path);}.cls-4{fill:#f3a469;}.cls-5{fill:#bb5d5b;}.cls-6{fill:#67969a;}.cls-7{fill:#9c3f47;}.cls-8{fill:#e2a06f;}.cls-9{fill:#a75a56;}.cls-10{fill:#dacab8;}.cls-11{fill:#e9e4da;}.cls-12{fill:#f19590;}.cls-13{fill:#4c1c1c;}.cls-14{fill:#d57848;}.cls-15{clip-path:url(#clip-path-2);}.cls-16{fill:#524b45;}</style><clipPath id="clip-path"><rect class="cls-1" y="-0.1186" width="200" height="200.2372"/></clipPath><clipPath id="clip-path-2"><rect class="cls-1" y="-220" width="200" height="200"/></clipPath></defs><g id="Fondos"><rect class="cls-2" y="-0.1186" width="200" height="200.2372"/></g><g id="Gatos"><g class="cls-3"><path class="cls-4" d="M22.6625,128.2105c7.049,4.0535,14.3281,7.681,21.7374,11.0354,8.8874,4.0236,17.9615,7.6433,27.0945,11.0369,11.0369,4.1189,22.383,7.98,34.1713,8.5486a73.7623,73.7623,0,0,0,11.9266-.4793c8.9013-1.0123,17.7076-3.32,26.3989-5.6524,8.3587-2.2325,16.8318-4.5428,25.0557-7.3838,12.7985-4.42,24.9886-10.1335,35.1618-18.936,1.6287-1.4086,3.2947-3.0924,3.57-5.2342a5.5093,5.5093,0,0,0-.2221-2.2147,10.5763,10.5763,0,0,0-1.0777-2.4153l-.0019.0022v-.0022c-.2-.3663-.4379-.715-.6557-1.0618q-1.3938-2.1248-2.9242-4.117c-9.0737-11.84-21.6444-20.2951-35.435-26.7833-2.2488-6.1515-5.2264-12.3674-5.5477-18.9636-.19-3.76-.3642-8.78-4.0177-9.591a6.7782,6.7782,0,0,0-4.4042.97c-4.5308,2.2073-8.4355,7.03-12.6834,10.0487l.01.0068a14.7094,14.7094,0,0,1-4.67,2.3716,14.56,14.56,0,0,1-1.4539.305l.0058-.0058a11.7406,11.7406,0,0,0,1.4559-.3073l.0182-.0058c-8.0476-19.4433-28.5984-33.5056-49.7848-32.88-14.3222.4229-27.9446,7.5183-37.3946,18.186a13.1179,13.1179,0,0,0-4.89,1.5791l-.0078.0049c-.5448.2544-1.066.5241-1.5512.7655A32.3276,32.3276,0,0,0,28.8419,69.9494l.0077-.013A93.1384,93.1384,0,0,0,10.4368,80.11,79.9831,79.9831,0,0,0-1.7851,90.9468Q-3.58,92.8935-5.2678,94.954c-.1585.195-.3112.384-.4638.5733-.0772.0963-.1524.19-.2318.2872A7.8876,7.8876,0,0,0-7.4057,103.47c1.1928,3.8058,4.7133,7.3143,7.8119,9.7689,3.8849,3.0827,7.9286,5.96,12.0732,8.6854Q17.4749,125.2143,22.6625,128.2105Zm2.3181-42.0749.0059.1287Zm.9708,6.6655a.26.26,0,0,1,.0078.0337l-.0039-.01A.1054.1054,0,0,0,25.9514,92.8011ZM32.2137,105.17l-.002-.0059c.2577.3092.5073.6239.7786.9212h-.002C32.719,105.7876,32.4714,105.4749,32.2137,105.17Zm-5.2362-9.0855c.0179.0506.0376.1008.0555.1514C27.0151,96.1849,26.9954,96.1347,26.9775,96.0841Zm.6736-23.84c-.3744.8145-.7251,1.6384-1.0223,2.4867l-.0237.0771c.0078-.0256.014-.0516.0237-.0771A26.5776,26.5776,0,0,1,27.6511,72.2445Zm-2.2465,7.2729c-.0039.012-.0039.024-.0081.0366l.0042-.0188A.06.06,0,0,1,25.4046,79.5174Zm.5231-2.4623c-.0159.0671-.03.1364-.0476.2039C25.8959,77.1906,25.9118,77.1222,25.9277,77.0551Z"/><path class="cls-5" d="M205.8215,115.4539q-1.3938-2.1248-2.9242-4.117c-9.0737-11.84-21.6444-20.2951-35.435-26.7833.2019.5549.4077,1.1095.598,1.6634a32.6052,32.6052,0,0,1,1.8942,8.923,15.8666,15.8666,0,0,1,2.9835,4.2871l-2.3914,1.477a22.9251,22.9251,0,0,1,2.4351,6.6866c.4278,2.2685.424,4.81-.83,6.6963a11.5423,11.5423,0,0,1,.5983,7.2629,48.5677,48.5677,0,0,0-17.2542-5.2857c-.398.1922-.7863.4041-1.1927.5824a32.8168,32.8168,0,0,1-4.8538,1.7791c-3.059.842-6.1.8916-9.1589,1.3334a11.8435,11.8435,0,0,1,5.0718,6.1751l-24.9034.1387c.2479,2.36-.1763,4.4518-1.8958,5.6384a13.0648,13.0648,0,0,1-8.9272,2.1736,19.8955,19.8955,0,0,0-1.151,2.6011,2.1844,2.1844,0,0,1-3.1838,1.1985A44.002,44.002,0,0,1,89.824,122.063c-.0593-.0117-.1186-.0136-.1763-.0295-.0911-.024-.18-.0516-.2694-.0755l-4.8,8.955A29.0323,29.0323,0,0,0,82.6166,119.9c-1.0025-.339-1.9969-.6936-2.9913-1.06a45.4834,45.4834,0,0,1,1.46,9.6721,16.3872,16.3872,0,0,1-.4535,5.5631,6.5462,6.5462,0,0,1-3.4671,4.1864c-3.3481,1.3947-6.97-1.1432-9.6244-3.6276-.9075-.8459-1.8069-1.7117-2.7044-2.58q-1.1737-1.1412-2.3457-2.2922c-2.3537-2.3019-4.7192-4.59-7.2074-6.7359-1.0421-.8975-2.1022-1.7732-3.1978-2.6091-.305-.2337-.6181-.4519-.9289-.68-.3666-.2674-.7312-.5448-1.1-.8022v-.002c-1.1669-.82-2.35-1.6186-3.54-2.4072q-1.89-1.2422-3.7682-2.4964c-.5309-.3584-1.0479-.7309-1.573-1.0955-.9885-.6874-1.9654-1.3869-2.9141-2.1158a15.503,15.503,0,0,0-3.8635,4.4913,50.78,50.78,0,0,1-2.1833-10.14,31.3157,31.3157,0,0,1-6.2584-12.3445,10.9771,10.9771,0,0,0-4.7487,6.5942c-.5964-5.1233-1.1691-10.4674.8239-15.27a12.3706,12.3706,0,0,1,3.37-4.6142A27.953,27.953,0,0,1,28.85,69.9364,93.1384,93.1384,0,0,0,10.4368,80.11,79.9831,79.9831,0,0,0-1.7851,90.9468Q-3.58,92.8935-5.2678,94.954c-.1585.195-.3112.384-.4638.5733.1526-.1893.3053-.3783.4638-.5724A30.7835,30.7835,0,0,0,2.219,107.6938c4.9231,5.2164,11.1637,8.9667,17.369,12.5722,20.0215,11.6415,40.9071,22.4032,63.4745,27.62,42.7913,9.9018,90.05-2.0307,123.0322-31.041l.3825-.3267v-.0022C206.2772,116.1494,206.0393,115.8007,205.8215,115.4539Z"/><path class="cls-6" d="M209.5758,112.8842c-2.2228-.5289-4.4518-1.0339-6.6785-1.5473q1.53,1.9942,2.9242,4.117c.2178.3468.4557.6955.6557,1.0618v.0022l.0019-.0022a10.5763,10.5763,0,0,1,1.0777,2.4153,5.4759,5.4759,0,0,1,.2221,2.2147c-.2755,2.1418-1.9415,3.8256-3.57,5.2342-10.1712,8.8025-22.3633,14.518-35.1618,18.936-8.2239,2.841-16.697,5.1513-25.0557,7.3838-8.6913,2.3321-17.4976,4.64-26.3989,5.6524a73.7388,73.7388,0,0,1-11.9247.4793c-11.7879-.5665-23.1382-4.43-34.1732-8.5467C62.3633,146.8912,53.2873,143.27,44.4,139.2459c-7.4093-3.3544-14.6884-6.9819-21.7374-11.0354q-5.1885-2.9865-10.1831-6.2863c-4.1446-2.7258-8.1883-5.6-12.0732-8.6831-3.0986-2.4569-6.6191-5.9654-7.8119-9.7712a7.8876,7.8876,0,0,1,1.4423-7.6554c.0794-.097.1546-.1909.2318-.2872.1526-.1893.3053-.3783.4638-.5733Q-3.58,92.89-1.7851,90.9468a18.5925,18.5925,0,0,0-9.5473,11.1044C-14.3279,111.26-7.689,121.1259.5566,126.2078c8.2437,5.08,18.0188,7.0311,26.7635,11.1935,9.0721,4.3189,16.87,10.9361,25.7494,15.6352,12.1979,6.4509,26.078,9.0876,39.84,10.106a187.9563,187.9563,0,0,0,120.8667-33.3746c3.1443-2.2091,6.5638-5.2322,6.1972-9.06C219.537,116.08,214.0989,113.9619,209.5758,112.8842Z"/><path class="cls-5" d="M-7.4057,103.47c1.1928,3.8058,4.7133,7.3143,7.8119,9.7712,3.8849,3.0827,7.9286,5.9573,12.0732,8.6831-4.1446-2.7258-8.1883-5.6027-12.0732-8.6854C-2.6924,110.7842-6.2129,107.2757-7.4057,103.47Z"/><path class="cls-5" d="M207.7789,121.1457c-.2755,2.1418-1.9415,3.8256-3.57,5.2342-10.1732,8.8025-22.3633,14.516-35.1618,18.936,12.7985-4.418,24.9906-10.1335,35.1618-18.936,1.6287-1.4086,3.2947-3.0924,3.57-5.2342a5.4759,5.4759,0,0,0-.2221-2.2147A5.5093,5.5093,0,0,1,207.7789,121.1457Z"/><path class="cls-5" d="M105.6657,158.8314c-11.7883-.5685-23.1344-4.43-34.1713-8.5486-9.133-3.3936-18.2071-7.0133-27.0945-11.0369,8.8874,4.0236,17.9634,7.6453,27.0945,11.0388,11.035,4.117,22.3853,7.98,34.1732,8.5467a73.7388,73.7388,0,0,0,11.9247-.4793A73.7623,73.7623,0,0,1,105.6657,158.8314Z"/><path class="cls-7" d="M169.6731,99.4164c.3131.4833.5983.9818.8735,1.4877l2.3914-1.477a15.8666,15.8666,0,0,0-2.9835-4.2871A19.5042,19.5042,0,0,1,169.6731,99.4164Z"/><path class="cls-7" d="M36.1148,109.1121h0a.052.052,0,0,1-.0159-.0159,36.52,36.52,0,0,1-3.1106-3.0113c-.2693-.2973-.5169-.61-.7746-.9153a50.78,50.78,0,0,0,2.1833,10.14,15.503,15.503,0,0,1,3.8635-4.4913c-.2-.1546-.4143-.2892-.6123-.4457C37.129,109.96,36.6139,109.5481,36.1148,109.1121Z"/><path class="cls-7" d="M126.91,121.4867q-2.2263.0861-4.4518.0829c-.42,0-.84-.0116-1.2621-.0158-.2794-.002-.5585-.0039-.8379-.0078-.3526-.0058-.7033-.0058-1.054-.0139l-.0081-.02h-.0039a21.3285,21.3285,0,0,1,1.1668,4.7606l24.9034-.1387a11.8435,11.8435,0,0,0-5.0718-6.1751c-.4418.0632-.8855.1109-1.3293.1961A78.9853,78.9853,0,0,1,126.91,121.4867Zm-6.6866,3.2668c-.0338-.1585-.0674-.317-.1051-.4775.21.1446.4182.2911.6262.4418C120.57,124.73,120.3956,124.7415,120.2232,124.7535Z"/><path class="cls-7" d="M163.9119,116.8485a10.95,10.95,0,0,1-4.9947-1.8105c-.1624-.1209-.2969-.2775-.45-.4142a31.6446,31.6446,0,0,1-2.9718,1.64A48.5677,48.5677,0,0,1,172.75,121.55a11.5423,11.5423,0,0,0-.5983-7.2629,5.5141,5.5141,0,0,1-.3686.517C169.9464,116.9578,166.7133,117.2527,163.9119,116.8485Z"/><path class="cls-7" d="M84.5781,130.913l4.8-8.955c-2.2646-.6042-4.5188-1.3017-6.7617-2.0582A29.0323,29.0323,0,0,1,84.5781,130.913Z"/><path class="cls-7" d="M92.82,122.0452h-.002l.004.0061q.1638.2582.3332.517c-.5452-.1151-1.0917-.2379-1.6346-.3627l-.0159-.0039a6.2224,6.2224,0,0,1-1.68-.1387,44.002,44.002,0,0,0,15.477,15.8215,2.1844,2.1844,0,0,0,3.1838-1.1985,19.8955,19.8955,0,0,1,1.151-2.6011,13.9388,13.9388,0,0,1-1.6008-.2635C101.37,132.2957,96.366,127.6777,92.82,122.0452Z"/><path class="cls-8" d="M69.41,41.3245c.1229-.42.2535-.847.3883-1.2816A53.9684,53.9684,0,0,0,63.94,42.7966a20.2534,20.2534,0,0,1,4.5212,2.3726C68.7267,43.8912,69.0356,42.61,69.41,41.3245Z"/><path class="cls-9" d="M120.2232,124.7535c.1724-.012.3468-.0237.5211-.0357-.208-.1507-.4161-.2972-.6262-.4418C120.1558,124.4365,120.1894,124.595,120.2232,124.7535Z"/><path class="cls-9" d="M91.52,122.2056c.5429.1248,1.0894.2476,1.6346.3627q-.17-.2587-.3332-.517A9.8858,9.8858,0,0,1,91.52,122.2056Z"/><path class="cls-10" d="M92.8215,122.0513l-.004-.0061a.0451.0451,0,0,0-.01-.0159q-.88-1.4027-1.64-2.8766l-.024-.0415q-.77-1.492-1.4226-3.0292c-.1167-.2775-.2453-.5824-.3763-.8956-.0356-.0833-.0693-.1643-.1069-.2515-.1465-.3507-.2934-.7134-.4438-1.0958-.0139-.0315-.024-.0632-.0376-.095-.1348-.3445-.27-.7053-.4-1.07-.0318-.0872-.0613-.17-.0931-.2554-.1387-.3983-.2735-.8006-.3983-1.2126-.02-.0654-.0376-.1306-.0574-.196q-.1633-.55-.2972-1.1056c-.02-.0833-.0437-.1682-.0612-.2535q-.1429-.6183-.236-1.2361c-.0136-.0834-.0217-.1667-.0337-.2519-.0493-.3685-.0811-.7309-.0969-1.0916-.0042-.0671-.012-.1326-.012-.2a8.6756,8.6756,0,0,1,.0476-1.1649c.0039-.0395,0-.0814.0039-.1209-.2495-.1922-.4953-.38-.7409-.5666a47.2766,47.2766,0,0,1-6.7855-6.307A68.3326,68.3326,0,0,1,63.55,81.6722q-3.7086-5.3733-6.9439-11.0075c.0019.0286.0019.0574.0039.0863.01.15.0158.303.0259.4534q.0412.7759.081,1.5526c.0259.5159.05,1.031.0755,1.546.0136.2726.0315.5438.0454.8155.02.3892.0435.7775.0674,1.1649.0178.2625.0376.526.0554.7882q.0418.5543.095,1.1065c.024.2636.0477.5271.0755.79.04.3734.0892.7458.1384,1.1186.0337.2486.0655.4971.1031.7438.0635.4071.1407.8122.2181,1.2164.04.2071.0733.4149.119.62.1306.6083.2771,1.2135.4534,1.8128C61.6065,96.195,73.4459,103.6225,78.27,114.8416a29.8158,29.8158,0,0,1,1.0761,2.9936c.0534.1705.1089.3409.1584.513.0376.1271.0811.25.1167.3767a106.453,106.453,0,0,0,11.8832,3.4768l.0159.0039A9.8858,9.8858,0,0,0,92.8215,122.0513Z"/><path class="cls-11" d="M121.1959,121.5538c-.2794-.002-.56-.0039-.8379-.0078C120.6374,121.55,120.9165,121.5518,121.1959,121.5538Z"/><path class="cls-11" d="M172.9817,107.5907a22.9251,22.9251,0,0,0-2.4351-6.6866c-.2752-.5059-.56-1.0044-.8735-1.4877a19.5042,19.5042,0,0,0,.2814-4.2764,32.6052,32.6052,0,0,0-1.8942-8.923c-.19-.5539-.3961-1.1085-.598-1.6634-2.2488-6.1515-5.2264-12.3674-5.5477-18.9636-.19-3.76-.3642-8.78-4.0177-9.591a6.7782,6.7782,0,0,0-4.4042.97c-4.5308,2.2073-8.4355,7.03-12.6834,10.0487l.01.0068a5.0526,5.0526,0,0,0-.3743,1.1017c-.0577.6914.57,1.2164.9471,1.8148.842,1.3749.2852,3.1578-.2953,4.6695-1.0978,2.8607-2.32,5.8841-4.7827,7.7128-1.4145-2.124-1.66-4.8006-1.6284-7.3484.01-1.7532.1407-3.5245.01-5.2738l.0058-.0058a27.4845,27.4845,0,0,1-3.6434.2554l-.02.0029.0058.0033h.01a10.3714,10.3714,0,0,1,.5367,1.8027,37.1732,37.1732,0,0,1,.856,9.5849,2.1491,2.1491,0,0,1-.7192,1.84,1.5429,1.5429,0,0,1-1.912-.5445,6.0371,6.0371,0,0,1-.8278-2.0092,10.8184,10.8184,0,0,0-3.483-5.1231c-.8242-.6657-1.73-1.2067-2.4844-1.9437a3.6672,3.6672,0,0,1-1.2423-2.7855l.03-.198-.0058.001c-.9332.199-1.8725.4615-2.7917.7221l-.0038.0019.091.1783a23.0433,23.0433,0,0,0,2.9777,4.4595c2.0306,2.3817,4.4437,5.2365,4.6816,8.5429-3.071.0774-5.8922-1.5652-8.5192-3.15-1.3807-.8363-2.9122-1.8922-3.0885-3.5008-.0771-.6894.093-1.492-.3705-2.0151a6.425,6.425,0,0,0-1.0164-.6635c-.5922-.43-.62-1.5136-.3108-2.6428V72.508a10.9637,10.9637,0,0,1-4.4755-.4645c-5.2958-1.7275-9.6879-4.302-15.4216-5.0144-2.5-.3377-5.3431-.3358-6.4665,3.3712a8.085,8.085,0,0,0,.66,5.7511,17.1762,17.1762,0,0,1,1.173,3.9417,8.03,8.03,0,0,1-3.0668-1.9208c-3.3719-3.5452-2.1733-10.3416-6.3693-12.851-1.9337-1.1519-4.5173-.9626-6.2964-2.3554-1.3451-1.0352-1.9612-2.7628-3.1838-3.9316-2.813-2.6827-7.4489-1.4475-10.88.36-1.3095.6875-2.6627,1.4462-4.0457,2.0663a17.0434,17.0434,0,0,0-2.75-5.3214,3.7643,3.7643,0,0,0-3.3323-1.4521,13.1179,13.1179,0,0,0-4.89,1.5791C40.38,60.4942,37,64.736,34.5376,70.0752A52.1415,52.1415,0,0,0,31.17,79.8305c-.646,2.7122-.2437,6.8688-1.1133,9.569a35.9219,35.9219,0,0,1,5.3926-9.769,4.233,4.233,0,0,1,2.1752-1.7178c1.4226-.3209,2.8312.9192,3.2214,2.3278a8.3632,8.3632,0,0,1-.3348,4.3112c-1.3253,4.9032-3.0114,9.7158-3.9247,14.7023a33.147,33.147,0,0,0-.4713,9.8581h0c.4991.436,1.0142.8479,1.5334,1.26.198.1565.412.2911.6123.4457.9487.7289,1.9256,1.4284,2.9141,2.1158-1.1966-.83-2.3913-1.664-3.5264-2.5615a42.9561,42.9561,0,0,1,2.4429-11.9406c1.9473-5.0183,5.7035-9.6185,10.8347-11.2314.844,6.4727-1.4618,12.8737-3.0549,19.2057a38.5606,38.5606,0,0,0-1.3551,10.12c-1.26-.83-2.5181-1.6582-3.7682-2.4964q1.8752,1.2573,3.7682,2.4964c1.1908.7886,2.3735,1.5869,3.54,2.4072a29.0425,29.0425,0,0,1,1.8484-5.7832c1.7454-3.8454,4.8064-7.31,8.8459-8.527.0139,6.0209.024,12.0852,1.1292,18.0049a39.2237,39.2237,0,0,0,2.956,9.4264q-1.1766-1.1412-2.3457-2.2922,1.1737,1.1474,2.3457,2.2922c.8975.8679,1.7969,1.7337,2.7044,2.58,2.6546,2.4844,6.2763,5.0223,9.6244,3.6276a6.5462,6.5462,0,0,0,3.4671-4.1864,16.3872,16.3872,0,0,0,.4535-5.5631,45.4834,45.4834,0,0,0-1.46-9.6721c.9944.3666,1.9888.7212,2.9913,1.06,2.2429.7565,4.4971,1.454,6.7617,2.0582.0892.0239.1783.0515.2694.0755.0577.0159.117.0178.1763.0295a6.2224,6.2224,0,0,0,1.68.1387,106.453,106.453,0,0,1-11.8832-3.4768c-.0356-.1268-.0791-.25-.1167-.3767-.0495-.1721-.105-.3425-.1584-.513a29.8158,29.8158,0,0,0-1.0761-2.9936C73.4459,103.6225,61.6065,96.195,58.163,84.4794c-.1763-.5993-.3228-1.2045-.4534-1.8128-.0457-.2052-.0794-.413-.119-.62-.0774-.4042-.1546-.8093-.2181-1.2164-.0376-.2467-.0694-.4952-.1031-.7438-.0492-.3728-.0988-.7452-.1384-1.1186-.0278-.2625-.0515-.526-.0755-.79q-.0534-.5528-.095-1.1065c-.0178-.2622-.0376-.5257-.0554-.7882-.0239-.3874-.0476-.7757-.0674-1.1649-.0139-.2717-.0318-.5429-.0454-.8155-.0259-.515-.05-1.03-.0755-1.546q-.0384-.7775-.081-1.5526c-.01-.15-.0159-.3031-.0259-.4534l-.0039-.0863Q59.8482,76.302,63.55,81.6722a68.3326,68.3326,0,0,0,16.0455,17.04,47.2766,47.2766,0,0,0,6.7855,6.307c.2456.1861.4914.3744.7409.5666-.0039.04,0,.0814-.0039.1209a8.6756,8.6756,0,0,0-.0476,1.1649c0,.0674.0078.1329.012.2.0158.3607.0476.7231.0969,1.0916.012.0852.02.1685.0337.2519q.0924.6178.236,1.2361c.0175.0853.0414.17.0612.2535q.1337.5557.2972,1.1056c.02.0654.0376.1306.0574.196.1248.412.26.8143.3983,1.2126.0318.0852.0613.1682.0931.2554.1306.3646.2654.7254.4,1.07.0136.0318.0237.0635.0376.095.15.3824.2973.7451.4438,1.0958.0376.0872.0713.1682.1069.2515.131.3132.26.6181.3763.8956q.654,1.5335,1.4226,3.0292l.024.0415q.7608,1.4712,1.64,2.8766a.0451.0451,0,0,1,.01.0159h.002c3.5465,5.6325,8.5509,10.2505,15.2155,11.7762a13.9388,13.9388,0,0,0,1.6008.2635,13.0648,13.0648,0,0,0,8.9272-2.1736c1.7195-1.1866,2.1437-3.2788,1.8958-5.6384a21.3285,21.3285,0,0,0-1.1668-4.7606h.0039c-.01-.0279-.0218-.0535-.0315-.0814-.1983-.5565-.41-1.1013-.6281-1.6322-.05-.1229-.1011-.2379-.1507-.3588-.2039-.4813-.41-.951-.6162-1.3986-.0237-.05-.0454-.1031-.0674-.1527-.23-.4913-.45-.9448-.6635-1.3729-.0535-.107-.1011-.202-.1526-.3031-.202-.398-.3961-.7766-.5666-1.0974-.3209-.61-.6855-1.2521-1.07-1.9059-.1128-.19-.2279-.3766-.3445-.5665-.3132-.5193-.646-1.04-.9967-1.5691-.0833-.1251-.1527-.248-.2376-.3727.2159-.0078.4337-.01.65-.01h.0558c1.1905.093,2.3654.2337,3.54.3705,4.1287.7507,8.1841,2.4584,12.1564,3.4036a88.1787,88.1787,0,0,0,20.5288,2.49q1.373,0,2.734-.0473c.2713-.002.5588-.03.8677-.0616.4064-.1783.7947-.39,1.1927-.5824a31.6446,31.6446,0,0,0,2.9718-1.64c.1527.1367.2872.2933.45.4142a10.95,10.95,0,0,0,4.9947,1.8105c2.8014.4042,6.0345.1093,7.8712-2.0445a5.5141,5.5141,0,0,0,.3686-.517C173.4057,112.401,173.41,109.8592,172.9817,107.5907Z"/><path class="cls-11" d="M51.1559,119.7371c.3108.2278.6239.446.9289.68,1.0956.8359,2.1557,1.7116,3.1978,2.6091-1.0421-.8975-2.1022-1.7752-3.1978-2.6111C51.78,120.1808,51.4667,119.9649,51.1559,119.7371Z"/><path class="cls-12" d="M101.6518,82.0375a4.1988,4.1988,0,0,0,1.46-2.2388c.224-1.3826-.8145-2.6231-1.8209-3.5957a48.0011,48.0011,0,0,0-7.0428-5.6365c-1.0482-.6855-2.5378-1.3-3.4334-.4259a2.7676,2.7676,0,0,0-.6142,1.8842c-.1863,3.1462-.4161,11.572,2.29,13.8405C95.0229,87.985,99.8529,83.72,101.6518,82.0375Z"/><path class="cls-12" d="M155.8624,71.6066c.9211.5073,5.2462,2.6588,6.108,1.6881a1.0392,1.0392,0,0,0,.1426-.8181,53.8339,53.8339,0,0,0-2.51-11.5225c-.26-.7746-.66-1.6543-1.4559-1.8248-2.6371-.5587-4.9649,7.1265-4.7808,9.1489A4.2024,4.2024,0,0,0,155.8624,71.6066Z"/><path class="cls-13" d="M112.0191,96.4624c-.9212,3.1926,6.0247-.0781,7.0985-.4982a56.7938,56.7938,0,0,1,6.9063-1.993.8845.8845,0,0,0,.3271-1.6157,7.1048,7.1048,0,0,0-2.4627-.87,12.3806,12.3806,0,0,0-6.7459.7776C115.421,92.9707,112.5817,94.5118,112.0191,96.4624Z"/><path class="cls-13" d="M146.1171,86.9508a7.1307,7.1307,0,0,0-2.2092,1.3908.8832.8832,0,0,0,.6716,1.5039,56.54,56.54,0,0,1,7.176.4269c1.1431.1733,8.6358,1.8442,7.035-1.0719-.9766-1.78-4.0852-2.6587-5.92-2.9719A12.4027,12.4027,0,0,0,146.1171,86.9508Z"/><path class="cls-10" d="M150.7014,116.9555a88.1787,88.1787,0,0,1-20.5288-2.49c-3.9723-.9452-8.0277-2.6529-12.1564-3.4036-1.1749-.1368-2.35-.2775-3.54-.3705H114.42c-.2158,0-.4336.002-.65.01.0849.1247.1543.2476.2376.3727.3507.529.6835,1.05.9967,1.5691.1166.19.2317.3762.3445.5665.3844.6538.749,1.2955,1.07,1.9059.17.3208.3646.6994.5666,1.0974.0515.1011.0991.1961.1526.3031.2139.4281.434.8816.6635,1.3729.022.05.0437.1031.0674.1527.2061.4476.4123.9173.6162,1.3986.05.1209.1011.2359.1507.3588.2178.5309.43,1.0757.6281,1.6322.01.0279.0217.0535.0315.0814l.0081.02c.3507.0081.7014.0081,1.054.0139.2774.0039.5585.0058.8379.0078.422.0042.842.0158,1.2621.0158q2.2257,0,4.4518-.0829a78.9853,78.9853,0,0,0,12.0513-1.3315c.4438-.0852.8875-.1329,1.3293-.1961,3.059-.4418,6.1-.4914,9.1589-1.3334a32.8168,32.8168,0,0,0,4.8538-1.7791c-.3089.0318-.5964.06-.8677.0616Q152.0746,116.9553,150.7014,116.9555Z"/><path class="cls-13" d="M147.6346,96.5674c.4635-.6615-.6243-1.29-1.0858-.634a6.318,6.318,0,0,1-3.6768,2.4627,5.8919,5.8919,0,0,1-3.0649-.0525,5.3945,5.3945,0,0,1-1.4663.72,6.4857,6.4857,0,0,0,4.7393.5724A7.6517,7.6517,0,0,0,147.6346,96.5674Z"/><path class="cls-13" d="M136.33,99.2738a5.576,5.576,0,0,1-2.4744,1.3292,4.0027,4.0027,0,0,1-3.9841-1.3075.6485.6485,0,0,0-.8579-.224.6272.6272,0,0,0-.2239.858,5.2761,5.2761,0,0,0,5.1512,1.9318,7.0778,7.0778,0,0,0,4.2417-2.744c-.1011.0285-.2022.081-.3033.103A4.9556,4.9556,0,0,1,136.33,99.2738Z"/><path class="cls-13" d="M139.1045,99.1086a2.0417,2.0417,0,0,0,.7925-.9766c.2012-.6011.2936-1.4442-.4683-1.68a1.2173,1.2173,0,0,0-.8639.0883,5.81,5.81,0,0,0-.6774.494c-.21.1368-.3372-.0815-.5317-.1836a1.41,1.41,0,0,0-1.3638.0328,1.3791,1.3791,0,0,0-.4414.4562,1.3526,1.3526,0,0,0,.5336,1.7587,2.5739,2.5739,0,0,0,1.2795.4761,2.4785,2.4785,0,0,0,.7757-.0268c.0506-.011.1012-.0373.1519-.0516.0266-.0074.0524-.0183.0792-.0267A2.7014,2.7014,0,0,0,139.1045,99.1086Z"/><path class="cls-14" d="M100.2729,59.5792a1.3379,1.3379,0,0,0,.9134.3783,1.29,1.29,0,0,0,.9131-2.2031q-.9569-.9271-1.9117-1.8523a1.3478,1.3478,0,0,0-.9134-.3786,1.3137,1.3137,0,0,0-.9153.3786,1.294,1.294,0,0,0-.3763.9133,1.3311,1.3311,0,0,0,.3763.9131Q99.3159,58.6527,100.2729,59.5792Z"/><path class="cls-14" d="M102.5888,56.5419a4.4083,4.4083,0,0,1,.422.7231,4.24,4.24,0,0,1,.2577.9312,1.342,1.342,0,0,0,.36.83,1.291,1.291,0,0,0,1.8267,0,1.2745,1.2745,0,0,0,.3783-.9133,6.2746,6.2746,0,0,0-.1566-1.034,6.091,6.091,0,0,0-.3584-.9908,5.4344,5.4344,0,0,0-.9964-1.4818,1.2917,1.2917,0,0,0-1.8267,0,1.2958,1.2958,0,0,0-.3786.9133,1.3916,1.3916,0,0,0,.3786.9134Z"/><path class="cls-14" d="M119.7516,66.1546a1.3056,1.3056,0,0,0,.9966-.1309,1.406,1.406,0,0,0,.5925-.77q.392-1.1859.7883-2.3677a1.3287,1.3287,0,0,0-.1306-.9944,1.2909,1.2909,0,0,0-1.7675-.4639,1.4174,1.4174,0,0,0-.5941.7708q-.3922,1.1857-.7846,2.3677a1.2917,1.2917,0,0,0,.8994,1.5888Z"/><path class="cls-14" d="M122.9532,66.0911a1.3062,1.3062,0,0,0,.9948.1309,1.2759,1.2759,0,0,0,.7723-.5944q.6749-1.391,1.3513-2.7835a1.3844,1.3844,0,0,0,.1287-.9967,1.2917,1.2917,0,0,0-1.587-.9014,1.2777,1.2777,0,0,0-.7726.5944q-.6744,1.39-1.351,2.7855a1.3787,1.3787,0,0,0-.129.9944A1.3147,1.3147,0,0,0,122.9532,66.0911Z"/><path class="cls-14" d="M61.5708,50.5389a17.4644,17.4644,0,0,1,2.0326.7043c.2654.1179.5309.2349.7905.3656a1.3783,1.3783,0,0,0,.9944.1287,1.29,1.29,0,0,0,.9036-1.587,1.29,1.29,0,0,0-.5944-.7726,19.3356,19.3356,0,0,0-3.4392-1.3293,1.3482,1.3482,0,0,0-.9947.1307,1.291,1.291,0,0,0,.3072,2.36Z"/><path class="cls-14" d="M68.8476,46.69a1.3018,1.3018,0,0,0-.5708-.3309q-.6625-.2052-1.3233-.4061l-.515-.0237-.4814.1543-.3627.3309-.23.44-.0453.343a1.2722,1.2722,0,0,0,.1763.6518l.2019.2615a1.279,1.279,0,0,0,.57.3326c.44.1348.88.27,1.3233.4061l.5154.022.4794-.1526.36-.3329.2317-.44.0457-.3426a1.2726,1.2726,0,0,0-.1744-.6518Z"/><path class="cls-14" d="M41.9632,106.42a1.3034,1.3034,0,0,0,.5922.7727,1.3287,1.3287,0,0,0,.9966.129,1.2952,1.2952,0,0,0,.7708-.5925,1.4657,1.4657,0,0,0,.1306-.9948q-.2586-1.527-.5131-3.0528a1.2955,1.2955,0,0,0-.5924-.7727,1.3263,1.3263,0,0,0-.9964-.1307,1.31,1.31,0,0,0-.7708.5945,1.46,1.46,0,0,0-.1286.9944Q41.7073,104.8944,41.9632,106.42Z"/><path class="cls-14" d="M46.5437,99.1033a1.29,1.29,0,0,0-1.8248,0l-.202.2616a1.2709,1.2709,0,0,0-.1763.6518,9.5573,9.5573,0,0,0,.3287,3.75,1.3471,1.3471,0,0,0,.5944.7707A1.2907,1.2907,0,0,0,47.16,103.08a9.0375,9.0375,0,0,1-.2359-1.0955,8.7162,8.7162,0,0,1-.002-1.9674A1.28,1.28,0,0,0,46.5437,99.1033Z"/><path class="cls-14" d="M84.889,45.0632a.7859.7859,0,0,0,.5963.0771.7747.7747,0,0,0,.4635-.3565l.0794-.1844v-.412c-.0872-.5092-.1705-1.0184-.2577-1.5256l-.3565-.4635a.7766.7766,0,0,0-.5944-.0771.7688.7688,0,0,0-.4635.3545l-.0791.1861v.4123c.0869.5069.17,1.0161.2574,1.5253Z"/><path class="cls-14" d="M88.041,44.847l.4638.3568a.7956.7956,0,0,0,.5964-.0794.78.78,0,0,0,.3546-.4635.87.87,0,0,0-.0775-.5963q-.4842-1.0167-.9688-2.0348l-.4635-.3566a.7943.7943,0,0,0-.5963.0794.78.78,0,0,0-.3546.4616.8826.8826,0,0,0,.0752.5983Q87.5575,43.8286,88.041,44.847Z"/><path class="cls-10" d="M157.8476,92.1989a.833.833,0,0,0-.3983-.0969,1.1893,1.1893,0,0,0-.2.0178q-1.2213.2033-2.4429.4091l-.4635.3575a.7816.7816,0,0,0-.0755.5954.7481.7481,0,0,0,.7409.5607,1.3146,1.3146,0,0,0,.21-.0188l2.4428-.41.4639-.3546a.8.8,0,0,0,.0771-.5983A.7876.7876,0,0,0,157.8476,92.1989Z"/><path class="cls-10" d="M160.4866,93.4769a1.0954,1.0954,0,0,0-.1805.0149q-2.4426.41-4.8855.8191a.7682.7682,0,0,0,.2318,1.51,1.0477,1.0477,0,0,0,.18-.0159q2.4432-.4087,4.8855-.8213a.7774.7774,0,0,0,.539-.9529A.769.769,0,0,0,160.4866,93.4769Z"/><path class="cls-10" d="M111.5,98.89a.4511.4511,0,0,0-.0635-.0039A.778.778,0,0,0,111.5,100.44q1.7532.2081,3.5048.4138a.3809.3809,0,0,0,.0612.0043.7791.7791,0,0,0-.0612-1.5555Q113.2517,99.0977,111.5,98.89Z"/><path class="cls-10" d="M116.0151,101.5679a1.073,1.073,0,0,0-.1841.0159q-1.83.3059-3.6654.6142a.767.767,0,0,0,.232,1.5075,1.1026,1.1026,0,0,0,.18-.014q1.83-.3057,3.6671-.6138a.7792.7792,0,0,0,.539-.953A.77.77,0,0,0,116.0151,101.5679Z"/><path class="cls-10" d="M102.67,113.3954a.8629.8629,0,0,0-.41-.107.6653.6653,0,0,0-.19.0279.7914.7914,0,0,0-.4619.3565.7737.7737,0,0,0-.0791.5983q.4965,1.1737.9905,2.3518a.87.87,0,0,0,.3566.4655.8264.8264,0,0,0,.4041.103.6332.6332,0,0,0,.1942-.0278.7712.7712,0,0,0,.46-.3546.733.733,0,0,0,.0794-.5983c-.329-.7844-.66-1.5691-.9866-2.3515A.8541.8541,0,0,0,102.67,113.3954Z"/><path class="cls-10" d="M105.9827,113.6294a.7751.7751,0,0,0-1.0979,0,.7767.7767,0,0,0-.2258.5468.8523.8523,0,0,0,.2258.5487q.9575,1.1022,1.914,2.205a.7756.7756,0,0,0,.5468.2259.792.792,0,0,0,.5487-.2259.78.78,0,0,0,.2278-.5468.8682.8682,0,0,0-.2278-.5487Q106.9376,114.7318,105.9827,113.6294Z"/><path class="cls-10" d="M48.0887,73.3361a9.2354,9.2354,0,0,1,.2457-1.0469.7824.7824,0,0,0-.5426-.9509.8535.8535,0,0,0-.1922-.0218.7843.7843,0,0,0-.7629.5608,11.1427,11.1427,0,0,0-.2694,4.8349.77.77,0,0,0,.7608.5727.6275.6275,0,0,0,.1922-.0289.802.802,0,0,0,.5409-.9529l-.0259-.1666-.0315-.2852-.0337-.4962a9.2525,9.2525,0,0,1,.0078-1.0728l.0438-.4963.02-.1643v.0029Z"/><path class="cls-10" d="M49.06,78.5528a.2744.2744,0,0,0,.0318-.0013c.3824-.02.8222-.3426.7746-.7743a7.0429,7.0429,0,0,1-.04-.9581l.0278-.4793.0136-.1339.0043-.0347.0038-.0324.0217-.1358a7.1612,7.1612,0,0,1,.2279-.9312l.16-.4518.0259-.0674.1147-.2477a.792.792,0,0,0-.2774-1.06.8589.8589,0,0,0-.4-.0969.7129.7129,0,0,0-.6619.3743,7.9074,7.9074,0,0,0-.7707,4.2547A.7991.7991,0,0,0,49.06,78.5528Z"/><path class="cls-7" d="M83.0625,147.8856c-22.5674-5.2164-43.453-15.9781-63.4745-27.62-6.2053-3.6055-12.4459-7.3558-17.369-12.5722A30.7835,30.7835,0,0,1-5.2678,94.9549c-.1585.1941-.3112.3831-.4638.5724-.0772.0963-.1524.19-.2318.2872A7.8876,7.8876,0,0,0-7.4057,103.47c1.1928,3.8058,4.7133,7.3143,7.8119,9.7689,3.8849,3.0827,7.9286,5.96,12.0732,8.6854q4.9955,3.29,10.1831,6.2863c7.049,4.0535,14.3281,7.681,21.7374,11.0354,8.8874,4.0236,17.9615,7.6433,27.0945,11.0369,11.0369,4.1189,22.383,7.98,34.1713,8.5486a73.7623,73.7623,0,0,0,11.9266-.4793c8.9013-1.0123,17.7076-3.32,26.3989-5.6524,8.3587-2.2325,16.8318-4.5428,25.0557-7.3838,12.7985-4.42,24.9886-10.1335,35.1618-18.936,1.6287-1.4086,3.2947-3.0924,3.57-5.2342a5.5093,5.5093,0,0,0-.2221-2.2147,10.5763,10.5763,0,0,0-1.0777-2.4153l-.0019.0022-.3825.3267C173.1123,145.8549,125.8538,157.7874,83.0625,147.8856Z"/><path class="cls-7" d="M2.5853,92.77a.7035.7035,0,0,0-.4794.8459q.4221,1.9881.8421,3.978a.6915.6915,0,0,0,.844.48.7041.7041,0,0,0,.4793-.8441q-.4191-1.9912-.842-3.98A.6926.6926,0,0,0,2.5853,92.77Z"/><path class="cls-7" d="M7.01,91.6878a.6921.6921,0,0,0-.8459.4794q-.4075,2.39-.8165,4.7807a.7072.7072,0,0,0,.4794.846.6944.6944,0,0,0,.844-.48q.41-2.3921.8184-4.7824A.7077.7077,0,0,0,7.01,91.6878Z"/><path class="cls-7" d="M185.9225,110.43l-.2-.4856a.6988.6988,0,0,0-.9707,0q-.7964.8-1.595,1.595l-.2019.4852.2019.4856a.6994.6994,0,0,0,.9711,0l1.5946-1.5947Z"/><path class="cls-7" d="M188.4782,108.2228a.7014.7014,0,0,0-.939.2476l-2.0682,3.2272a.6916.6916,0,0,0,.2457.939.7034.7034,0,0,0,.939-.2476l2.0682-3.2273A.6914.6914,0,0,0,188.4782,108.2228Z"/><path class="cls-7" d="M132.0626,137.97h1.8624a.6865.6865,0,0,0,0-1.373h-1.8624a.6865.6865,0,0,0,0,1.373Z"/><path class="cls-7" d="M131.72,140.7929a.696.696,0,0,0,.9393.2456,6.1755,6.1755,0,0,1,2.0166-.8281,6.4884,6.4884,0,0,1,2.1736-.1027.6872.6872,0,0,0,.6855-.6855.7086.7086,0,0,0-.6855-.6875,7.7077,7.7077,0,0,0-4.8838,1.1192A.6983.6983,0,0,0,131.72,140.7929Z"/><path class="cls-7" d="M88.6017,146.1917q2.3983,1.45,4.7964,2.9045a.6864.6864,0,0,0,.6936-1.1847q-2.3983-1.4532-4.7986-2.9064a.6867.6867,0,0,0-.6914,1.1866Z"/><path class="cls-7" d="M96.37,147.6875a.72.72,0,0,0,.527.0694l.412-.315.0674-.529-.315-.41q-.7993-.3953-1.5989-.7886a.7231.7231,0,0,0-.529-.0694l-.41.3151-.0694.5289.3151.41C95.3023,147.1625,95.8351,147.424,96.37,147.6875Z"/><path class="cls-7" d="M25.4007,79.5352a12.3706,12.3706,0,0,0-3.37,4.6142c-1.993,4.8025-1.42,10.1466-.8239,15.27a10.9771,10.9771,0,0,1,4.7487-6.5942A32.0249,32.0249,0,0,1,25.4007,79.5352Z"/></g><g class="cls-15"><path class="cls-16" d="M188.04,39.4457c-2.711-37.3386-24.5906-88.4244-37.266-123.65-1.9579-5.441-3.85-11.2086-2.8482-16.9038a8.1191,8.1191,0,0,0,6.8792-5.2051,11.2946,11.2946,0,0,0-.65-8.5864,4.2105,4.2105,0,0,0,2.6941-4.3792,7.5749,7.5749,0,0,0-2.61-4.7681,15.4187,15.4187,0,0,0,5.1839-6.2184,8.946,8.946,0,0,0-.2977-7.8944c-1.4261-2.3961-4.0562-3.7445-6.4321-5.2038-13.0353-8.006-21.466-22.3363-35.0511-29.3691a54.0169,54.0169,0,0,0-3.3126-16.1447c-.8349-2.3-2.2716-4.9037-4.713-5.0616-1.9676-.1273-3.597,1.44-4.873,2.9432A64.9289,64.9289,0,0,0,95.03-175.6026a69.7505,69.7505,0,0,0-27.4426,9.0476l-13.9563-8.0916c-1.81-1.0492-3.7591-2.1333-5.8465-1.9985a3.7732,3.7732,0,0,0-2.3406.9165c-1.0309.9615-1.2161,2.5065-1.281,3.9147a52.2257,52.2257,0,0,0,5.9962,26.7264c-7.7509,13.8589-5.506,31.1114-10.2736,46.2578a23.85,23.85,0,0,0-1.4664,6.05,6.1849,6.1849,0,0,0,2.3682,5.481c2.2169,1.46,5.1571.672,8.2411.0268a7.49,7.49,0,0,0,2.8146,7.5205,7.49,7.49,0,0,0,8.02.4011,5.6265,5.6265,0,0,0,4.1212,4.4135,8.5481,8.5481,0,0,0,5.9807-1.2693c.6983,4.1224-.008,8.3434-.8357,12.4417C64.0732-38.7286,50.5084,13.69,50.9133,39.4457,68.01,47.093,87.2768,47.83,105.9958,48.4449,129.9905,49.2338,178.7751,53.4293,188.04,39.4457Z"/></g></g></svg>