<svg xmlns="http://www.w3.org/2000/svg" xmlns:xlink="http://www.w3.org/1999/xlink" viewBox="0 0 200 200"><defs><style>.cls-1{fill:none;}.cls-2{fill:#d34e48;}.cls-3{clip-path:url(#clip-path);}.cls-4{fill:#fff;}.cls-5{fill:#311824;}.cls-6{fill:#404040;}.cls-7{fill:#ffb9e4;}.cls-8{fill:#4a3b44;}.cls-9{fill:#ff7419;}.cls-10{fill:#2f1e28;}</style><clipPath id="clip-path"><rect class="cls-1" width="200" height="200.1186"/></clipPath></defs><g id="Fondos"><rect class="cls-2" y="-0.1186" width="200" height="200.2372"/></g><g id="Gatos"><g class="cls-3"><polygon class="cls-4" points="59.568 149.925 38.695 241.885 162.796 241.885 131.676 149.546 59.568 149.925"/><path class="cls-5" d="M111.2849,176.3193a27.0866,27.0866,0,0,0-2.2644-1.6762,20.2316,20.2316,0,0,0-2.8416-1.5575c-5.3316-2.3706-11.4276-1.3839-16.2686,1.644-4.953,3.0978-8.7452,7.8638-11.7,12.8231-.1357.2277-.2648.4587-.396.6886a48.6688,48.6688,0,0,0-2.9446,6.232c-.0168.0437-.035.0868-.0516.1305-.0122.0316-.0234.0637-.0355.0955a56.04,56.04,0,0,0-3.09,12.6093,100.9565,100.9565,0,0,0-.1669,20.8329c.3579,4.59.8745,9.1654,1.3566,13.7438h61.9938q.0085-1.8947-.02-3.79a113.53,113.53,0,0,0-2.3207-22.2531,83.87,83.87,0,0,0-6.1454-17.9109,82.4993,82.4993,0,0,0-8.4854-14.3977,43.6445,43.6445,0,0,0-6.066-6.743c-.1492-.129-.2981-.2583-.45-.3843C111.3545,176.3775,111.32,176.3482,111.2849,176.3193Z"/><path class="cls-6" d="M70.9537,170.7389a25.9349,25.9349,0,0,0,2.2942,4.8684l.6676,1.1243c.1407.2409.2951.5051.4605.788.373.6481.865,1.508,1.31,2.3267a124.5016,124.5016,0,0,1,5.5067,11.38c1.6758,3.9762,3.0307,7.8682,3.9251,10.7707.4306,1.4563.7968,2.6511,1.0054,3.4953l.3485,1.3138s.5043,1.8946,1.11,4.8684a85.3424,85.3424,0,0,1,1.56,11.3319,76.2635,76.2635,0,0,1-.143,12.5464c-.1052,1.4555-.3,2.6363-.3763,3.2287a26.0322,26.0322,0,0,0-.21,5.3745,15.8141,15.8141,0,0,0,1.6466-5.1716c.0839-.6039.2852-1.8093.3943-3.2939a77.45,77.45,0,0,0,.1447-12.7862,86.6223,86.6223,0,0,0-1.59-11.518c-.6167-3.0189-1.13-4.94-1.13-4.94l-.3524-1.3326c-.2113-.8565-.5813-2.0677-1.0171-3.5443-.9045-2.9423-2.2749-6.8851-3.97-10.91a125.2162,125.2162,0,0,0-5.5714-11.5165c-.45-.8284-.9489-1.699-1.3272-2.3551l-.4684-.7973-.6826-1.1359A15.8431,15.8431,0,0,0,70.9537,170.7389Z"/><path class="cls-6" d="M125.2242,169.6035a16.1686,16.1686,0,0,0-2.9215,4.5663c-.1219.278-.3049.6953-.5319,1.2126-.3842.94-.8428,2.0628-1.3467,3.2959-1.3517,3.5212-2.8711,7.7065-4.0719,11.7909a145.089,145.089,0,0,0-3.843,15.7842s-.0893.4756-.2477,1.32c-.0792.4222-.1757.9365-.2869,1.5295l-.2883,2.017c-.1942,1.4878-.4833,3.2323-.6878,5.1454-.1674,1.9176-.3485,3.9919-.5338,6.1144-.0647,2.1306-.1309,4.3095-.1953,6.4278.012,2.1011.1211,4.2169.168,6.0268a32.0135,32.0135,0,0,0,.2381,3.2977,19.55,19.55,0,0,0,1.2657,5.2672,19.7265,19.7265,0,0,0,.18-5.389c-.0518-.5968-.2145-1.7869-.2246-3.2519-.0452-1.7855-.1533-3.8717-.1657-5.9452.063-2.0915.1278-4.2429.1912-6.3465.1822-2.0976.36-4.1476.5251-6.0428.201-1.8913.4866-3.6173.6773-5.0888.1045-.7347.2-1.4042.2835-1.9953.11-.5869.2051-1.096.2832-1.5138l.2443-1.3064a144.06,144.06,0,0,1,3.8141-15.6275c1.1908-4.0458,2.6971-8.1915,4.0342-11.6785.4974-1.2208.95-2.3318,1.33-3.2628.2216-.5125.4-.9258.5194-1.2011A25.0992,25.0992,0,0,0,125.2242,169.6035Z"/><path class="cls-5" d="M37.5566,86.7256s-6.0723-51.4676,1.518-57.5227S70.9538,60.9918,70.9538,60.9918Z"/><path class="cls-7" d="M43.253,80.3546s-4.1517-35.1893,1.0379-39.3293S66.0873,62.76,66.0873,62.76Z"/><path class="cls-5" d="M117.2545,59.478S143.82,24.2832,154.4469,26.5539s2.6565,56.3873,2.6565,56.3873Z"/><path class="cls-7" d="M123.58,60.9285S140.8624,38.0328,147.7753,39.51s1.7282,36.6823,1.7282,36.6823Z"/><ellipse class="cls-4" cx="98.5101" cy="108.3424" rx="67.8811" ry="53.0035"/><path class="cls-5" d="M92.4185,67.9c.4381,1.2686.85,2.55,1.314,3.7987a14.7051,14.7051,0,0,0,3.6725,5.9885,12.474,12.474,0,0,0,1.831,1.3572l.0652.04c.0548.0331.1105.0649.1658.0972.0747.0434.1493.0871.2247.129l.0239.0131q.33.1829.6692.3484.1025.05.2057.0976c.0294.0138.0588.0279.0883.0416a12.6529,12.6529,0,0,0,2.1933.77l.0049.001c.1505.0373.3.067.45.096a9.8039,9.8039,0,0,0,1.581.1622l.0736.0011c.1165.0015.2329-.0012.3492-.0039A11.9622,11.9622,0,0,0,111.5779,78.6c2.7028-1.8257,4.9763-4.1962,7.4965-6.25,2.2791-1.857,4.8815-3.5746,7.89-3.8416A10.24,10.24,0,0,1,132.46,69.54a28.1882,28.1882,0,0,1,5.3528,4.0372,26.244,26.244,0,0,0,2.9074,2.2337,16.5008,16.5008,0,0,0,3.6736,1.6969,18.2808,18.2808,0,0,0,7.6539.8625,18.6281,18.6281,0,0,0,2.1436-.3509c-12.27-13.7116-32.6339-22.6809-55.6814-22.6809a86.45,86.45,0,0,0-15.3048,1.3529A18.399,18.399,0,0,1,87.6407,59.6a12.9421,12.9421,0,0,1,2.3125,2.7752q.34.5224.6386,1.08A29.3216,29.3216,0,0,1,92.4185,67.9Z"/><ellipse class="cls-4" cx="77.785" cy="96.7542" rx="18.5962" ry="20.6249"/><path class="cls-8" d="M96.3812,96.7542a21.4173,21.4173,0,0,0-.6772,3.14c-.0246.1759-.0616.44-.1074.7672a4.4853,4.4853,0,0,1-.1074.5291l-.2381,1.0261a8.3609,8.3609,0,0,1-.336,1.1821q-.1953.5924-.3959,1.2005-.2539.5874-.5141,1.189l-.2622.6045-.32.5837c-.2187.3886-.4213.7923-.6583,1.18a21.2861,21.2861,0,0,1-1.6265,2.2421,17.9243,17.9243,0,0,1-9.6817,6.1286,17.6045,17.6045,0,0,1-5.8867.2486,16.1929,16.1929,0,0,1-5.4845-1.76,19.3116,19.3116,0,0,1-2.381-1.4727,20.1759,20.1759,0,0,1-6.9772-9.9206,22.5687,22.5687,0,0,1-1.0875-6.5454c.0181-1.5915.0922-2.488.0922-2.488l.0888-.6418a15.99,15.99,0,0,1,.3014-1.816,20.9537,20.9537,0,0,1,2.3507-6.1971,19.28,19.28,0,0,1,6.5586-6.863,18.5432,18.5432,0,0,1,5.0747-2.0879,17.9205,17.9205,0,0,1,5.755-.2742,17.4158,17.4158,0,0,1,10.3217,5.3255A19.5878,19.5878,0,0,1,93.52,86.7086a11.4061,11.4061,0,0,1,.5953,1.2644,12.2316,12.2316,0,0,1,.5159,1.2752l.424,1.2843a5.4683,5.4683,0,0,1,.1694.6439l.1251.54a14.1282,14.1282,0,0,1,.3548,1.8977,21.41,21.41,0,0,0,.6772,3.14,8.1946,8.1946,0,0,0,.1847-3.2617,14.1511,14.1511,0,0,0-.3628-1.9741l-.13-.5614a5.87,5.87,0,0,0-.1765-.67l-.441-1.3368a12.9642,12.9642,0,0,0-.5369-1.328,12.1105,12.1105,0,0,0-.62-1.3172,20.462,20.462,0,0,0-3.4834-4.8783A18.2935,18.2935,0,0,0,79.9707,75.84a18.7877,18.7877,0,0,0-6.06.29,19.4123,19.4123,0,0,0-5.3365,2.1957A20.1526,20.1526,0,0,0,61.7154,85.5,21.8257,21.8257,0,0,0,59.27,91.9513a16.7693,16.7693,0,0,0-.313,1.8875l-.0914.667s-.0788.9308-.0967,2.5836a23.44,23.44,0,0,0,1.1289,6.8035,21.0471,21.0471,0,0,0,7.2847,10.3519,20.1552,20.1552,0,0,0,2.4982,1.5467,17.0661,17.0661,0,0,0,5.7718,1.8519,17.244,17.244,0,0,0,11.8868-2.69,18.7421,18.7421,0,0,0,4.4746-3.9962,22.15,22.15,0,0,0,1.697-2.3406c.2472-.404.4592-.8242.6868-1.23l.3329-.6087.2738-.6293.5346-1.2387q.209-.6327.4125-1.2493a8.889,8.889,0,0,0,.3494-1.23q.1257-.5419.2473-1.0673a4.7553,4.7553,0,0,0,.11-.55l.108-.7978A8.1944,8.1944,0,0,0,96.3812,96.7542Z"/><ellipse class="cls-5" cx="78.7459" cy="103.3325" rx="10.455" ry="11.5956"/><ellipse class="cls-4" cx="130.158" cy="96.7542" rx="18.5962" ry="20.6249"/><path class="cls-8" d="M148.7541,96.7542a21.43,21.43,0,0,0-.6772,3.14c-.0246.1759-.0616.44-.1073.7672a4.4665,4.4665,0,0,1-.1075.5291q-.1172.5049-.2381,1.0261a8.3476,8.3476,0,0,1-.336,1.1821l-.3958,1.2005q-.2541.5874-.5142,1.189l-.2622.6045-.32.5837c-.2187.3886-.4213.7923-.6583,1.18a21.2861,21.2861,0,0,1-1.6265,2.2421,17.9233,17.9233,0,0,1-9.6817,6.1286,17.6045,17.6045,0,0,1-5.8867.2486,16.1924,16.1924,0,0,1-5.4844-1.76,19.3129,19.3129,0,0,1-2.3811-1.4727,20.1759,20.1759,0,0,1-6.9772-9.9206,22.5722,22.5722,0,0,1-1.0875-6.5454c.0181-1.5915.0923-2.488.0923-2.488s.0307-.2223.0887-.6418a15.99,15.99,0,0,1,.3014-1.816,20.9565,20.9565,0,0,1,2.3507-6.1971,19.282,19.282,0,0,1,6.5586-6.863,18.5444,18.5444,0,0,1,5.0747-2.0879,17.9207,17.9207,0,0,1,5.755-.2742,17.4163,17.4163,0,0,1,10.3218,5.3255,19.5874,19.5874,0,0,1,3.337,4.6741,11.3881,11.3881,0,0,1,.5953,1.2644,12.2324,12.2324,0,0,1,.516,1.2752l.4239,1.2843a5.4493,5.4493,0,0,1,.1695.6439l.125.54a14.1282,14.1282,0,0,1,.3548,1.8977,21.4232,21.4232,0,0,0,.6772,3.14,8.1946,8.1946,0,0,0,.1847-3.2617,14.1468,14.1468,0,0,0-.3627-1.9741l-.13-.5614a5.87,5.87,0,0,0-.1765-.67l-.441-1.3368a12.9862,12.9862,0,0,0-.5368-1.328,12.1113,12.1113,0,0,0-.6205-1.3172,20.4592,20.4592,0,0,0-3.4834-4.8783,18.2933,18.2933,0,0,0-10.844-5.5869,18.7878,18.7878,0,0,0-6.06.29,19.4123,19.4123,0,0,0-5.3365,2.1957A20.1514,20.1514,0,0,0,114.0884,85.5a21.82,21.82,0,0,0-2.4459,6.4511,16.7742,16.7742,0,0,0-.3131,1.8875c-.06.436-.0914.667-.0914.667s-.0788.9308-.0967,2.5836a23.4375,23.4375,0,0,0,1.129,6.8035,21.0464,21.0464,0,0,0,7.2846,10.3519,20.1638,20.1638,0,0,0,2.4983,1.5467,17.0649,17.0649,0,0,0,5.7717,1.8519,17.244,17.244,0,0,0,11.8868-2.69,18.7426,18.7426,0,0,0,4.4747-3.9962,22.1636,22.1636,0,0,0,1.6969-2.3406c.2473-.404.4592-.8242.6868-1.23l.3329-.6087.2738-.6293.5346-1.2387q.2089-.6327.4126-1.2493a8.9024,8.9024,0,0,0,.3493-1.23q.1257-.5419.2473-1.0673a4.7343,4.7343,0,0,0,.11-.55c.0461-.34.0833-.6149.108-.7978A8.1944,8.1944,0,0,0,148.7541,96.7542Z"/><ellipse class="cls-5" cx="128.2109" cy="101.2603" rx="10.455" ry="11.5956"/><path class="cls-6" d="M93.345,115.4869a8.5438,8.5438,0,0,0,1.5972,2.8464l.5009.5837.3587.3965.3412.3619.4267.4293a13.32,13.32,0,0,0,2.0806,1.6939,5.0377,5.0377,0,0,0,2.8266.9382,3.26,3.26,0,0,0,2.5368-1.4621,7.6765,7.6765,0,0,0,1.06-2.145c.1534-.464.0837-.2557.1-.3037l0,0,0-.0013.0021.005.0644.1537c.0935.2228.23.5456.4223.9377a11.77,11.77,0,0,0,1.9113,2.9092,4.9935,4.9935,0,0,0,1.8524,1.291,3.3752,3.3752,0,0,0,2.407-.0483,7.9948,7.9948,0,0,0,3.152-2.7048c.6268-.8447.9459-1.404,1.1269-1.6886a8.9336,8.9336,0,0,0,1.1431-3.0575,17.45,17.45,0,0,0-1.8877,2.6068c-.1765.2714-.4881.8127-1.0816,1.6111a7.2292,7.2292,0,0,1-2.7676,2.415,2.4877,2.4877,0,0,1-1.7945.0427,4.1427,4.1427,0,0,1-1.515-1.0685,10.9628,10.9628,0,0,1-1.762-2.6883c-.1826-.3721-.3136-.6806-.4032-.8932l-.06-.1414-.0818-.2131-.0673-.1754-.0518-.1353c-.051-.1205-.1423-.3923-.3208-.94l-.1434-.4633-.1421-.4587-.0857-.2771-.0229-.0739-.0168.0647-.0361.143c-.1.3956-.2192.8681-.3551,1.406a14.5121,14.5121,0,0,1-.4115,1.4634,6.8548,6.8548,0,0,1-.9356,1.9052,2.3815,2.3815,0,0,1-1.8674,1.109,4.2114,4.2114,0,0,1-2.322-.8014,12.5124,12.5124,0,0,1-1.9416-1.583l-.4085-.4107-.3286-.3479-.347-.3818-.488-.5625A19.242,19.242,0,0,0,93.345,115.4869Z"/><path class="cls-6" d="M81.2006,120.4065a11.7816,11.7816,0,0,0-3.2426-.0122L53.1294,123.661,29.68,126.7462a11.78,11.78,0,0,0-3.1293.8507,11.7905,11.7905,0,0,0,3.2428.0123l23.45-3.0852,24.8285-3.2668A11.7867,11.7867,0,0,0,81.2006,120.4065Z"/><path class="cls-6" d="M81.58,124.9478a11.78,11.78,0,0,0-3.2259.3289l-25.0987,6.0411-23.6825,5.7a11.78,11.78,0,0,0-3.0224,1.175,11.7821,11.7821,0,0,0,3.2261-.3288l23.6825-5.7,25.0987-6.0412A11.7861,11.7861,0,0,0,81.58,124.9478Z"/><path class="cls-6" d="M31.8639,149.1679a11.7834,11.7834,0,0,0,3.101-.9481l42.1579-19.4023,0,0h0L40.3065,154.9023a11.782,11.782,0,0,0-2.37,2.2128,11.786,11.786,0,0,0,2.8737-1.5026l36.8651-26.1194,3.3971-2.4069c.2568-.1825.4412-.3079.3744-.28l-.0064-.011-.0924-.16-.134-.232-.0654-.1138-.067-.1174-.0414-.0728-.0111-.02c-.0241.0051.0415-.0417-.0706.014l-.474.2181-7.1574,3.2932-16.2783,7.49L34.601,147.4291A11.7867,11.7867,0,0,0,31.8639,149.1679Z"/><path class="cls-6" d="M138.1668,120.9285a11.784,11.784,0,0,0,3.07-1.0437l22.4-11.1627L184.794,98.1792a11.79,11.79,0,0,0,2.682-1.8227,11.7872,11.7872,0,0,0-3.07,1.0436l-21.1567,10.543-22.4,11.1626A11.7881,11.7881,0,0,0,138.1668,120.9285Z"/><path class="cls-6" d="M140.4036,124.9023a11.78,11.78,0,0,0,3.163-.7148l24.1838-9.016,22.8195-8.5073a11.7817,11.7817,0,0,0,2.859-1.53,11.7848,11.7848,0,0,0-3.1631.7147l-22.8194,8.5073-24.1838,9.0159A11.791,11.791,0,0,0,140.4036,124.9023Z"/><path class="cls-6" d="M195.1931,117.1928a11.7863,11.7863,0,0,0-3.2415.0881l-24.3939,3.9782-17.6923,2.8889-7.78,1.27-.5155.0842c-.1228.0164-.0551.0194-.0725.0282l.0018.0225.0063.0834.01.1348.0095.1311.0187.27.0126.1813.0008.0126c-.07.0142.143.0157.4627.0231l4.1689.0962,45.2162,1.043a11.7828,11.7828,0,0,0,3.2227-.361,11.785,11.785,0,0,0-3.2026-.5092l-45.1523-1.0416v0h0l45.8187-7.4774A11.7837,11.7837,0,0,0,195.1931,117.1928Z"/><path class="cls-6" d="M59.1222,152.1159a9.1247,9.1247,0,0,0,2.634,1.916c.1608.0873.4077.206.7172.3455l.5044.2321,1.2625.5794c.46.2023.9425.3865,1.4307.5879a78.0627,78.0627,0,0,0,13.3465,4.0441c1.1575.2814,2.33.4143,3.4591.6226,1.1349.1705,2.23.42,3.305.4939l3.0633.31c.9672.1,1.8748.2038,2.7146.2062l4.0151.1306,1.11.0359.39-.015,5.5136-.2146a99.1084,99.1084,0,0,0,12.5195-1.7618,67.2406,67.2406,0,0,0,6.9644-1.7118l3.3534-.9335,3.038-1.0983,1.86-.6758a11.676,11.676,0,0,0,2.87-1.5006,11.9133,11.9133,0,0,0-3.1737.6848l-1.8471.6647-3.0135,1.09-3.3249.9249a66.5586,66.5586,0,0,1-6.9031,1.6979,98.3166,98.3166,0,0,1-12.4026,1.7492l-5.46.2147-.3864.0149-1.0991-.0364-3.975-.1307c-.8315-.0022-1.73-.1055-2.687-.2051l-3.032-.308c-1.0636-.0733-2.1474-.3209-3.27-.49-1.1168-.2066-2.2777-.3375-3.4225-.6166a77.3164,77.3164,0,0,1-13.1937-3.9979c-.4818-.1987-.9585-.38-1.4122-.58l-1.244-.5706-.4976-.2276c-.3056-.1365-.5491-.252-.7075-.3361A16.729,16.729,0,0,0,59.1222,152.1159Z"/><path class="cls-5" d="M95.6222,110.9456h18.2167l-6.5358,8.4181a3.2592,3.2592,0,0,1-5.1452,0Z"/><path class="cls-9" d="M82.6215,120.28a.9149.9149,0,1,1-.9148-.9122A.9135.9135,0,0,1,82.6215,120.28Z"/><path class="cls-9" d="M84.0131,123.3079a.9149.9149,0,1,1-.9149-.9122A.9136.9136,0,0,1,84.0131,123.3079Z"/><path class="cls-10" d="M82.3819,126.4611a.9149.9149,0,1,1-.9149-.9123A.9136.9136,0,0,1,82.3819,126.4611Z"/><path class="cls-9" d="M84.8265,126.8913a.9149.9149,0,1,1-.9149-.9123A.9135.9135,0,0,1,84.8265,126.8913Z"/><path class="cls-9" d="M87.6066,119.85a.9149.9149,0,1,1-.9149-.9123A.9135.9135,0,0,1,87.6066,119.85Z"/><path class="cls-9" d="M142.3317,126.4616a.9149.9149,0,1,1-.9148-.9123A.9136.9136,0,0,1,142.3317,126.4616Z"/><path class="cls-9" d="M88.8529,126.3749a.9149.9149,0,1,1-.9149-.9123A.9135.9135,0,0,1,88.8529,126.3749Z"/><path class="cls-9" d="M135.121,121.29a.9149.9149,0,1,1-.9149-.9123A.9136.9136,0,0,1,135.121,121.29Z"/><path class="cls-9" d="M87.1757,129.363a.9149.9149,0,1,1-.9149-.9123A.9135.9135,0,0,1,87.1757,129.363Z"/><path class="cls-9" d="M138.9655,120.7012a.9149.9149,0,1,1-.9149-.9122A.9136.9136,0,0,1,138.9655,120.7012Z"/><path class="cls-9" d="M138.2836,123.4341a.9149.9149,0,1,1-.9149-.9123A.9136.9136,0,0,1,138.2836,123.4341Z"/><path class="cls-9" d="M87.5107,123.2488a.9149.9149,0,1,1-.9148-.9122A.9136.9136,0,0,1,87.5107,123.2488Z"/><path class="cls-9" d="M134.95,125.3933a.9149.9149,0,1,1-.9149-.9123A.9136.9136,0,0,1,134.95,125.3933Z"/><path class="cls-9" d="M138.7733,126.6764a.9149.9149,0,1,1-.9149-.9122A.9136.9136,0,0,1,138.7733,126.6764Z"/><path class="cls-9" d="M141.4017,124.6364a.9149.9149,0,1,1-.9148-.9122A.9136.9136,0,0,1,141.4017,124.6364Z"/><path class="cls-9" d="M83.2541,130.6244a.9149.9149,0,1,1-.9149-.9122A.9136.9136,0,0,1,83.2541,130.6244Z"/></g></g></svg>