<svg xmlns="http://www.w3.org/2000/svg" xmlns:xlink="http://www.w3.org/1999/xlink" viewBox="0 0 200 200"><defs><style>.cls-1{fill:none;}.cls-2{fill:#ffc762;}.cls-3{clip-path:url(#clip-path);}.cls-4{fill:#656a6b;}.cls-5{fill:#797f7f;}.cls-6{clip-path:url(#clip-path-2);}.cls-7{fill:#fff4e8;}.cls-8{fill:#92714e;}.cls-9{fill:#5b392e;}.cls-10{fill:#503b32;}.cls-11{fill:#ffa2a0;}.cls-12{fill:#1d0505;}.cls-13{fill:#4b3332;}</style><clipPath id="clip-path"><rect class="cls-1" x="-220" width="200" height="200.1186"/></clipPath><clipPath id="clip-path-2"><rect class="cls-1" y="-0.1186" width="200.2372" height="200.2372"/></clipPath></defs><g id="Fondos"><rect class="cls-2" y="-0.1186" width="200" height="200.2372"/></g><g id="Gatos"><g class="cls-3"><path class="cls-4" d="M-51.7171,82.6438a15.4441,15.4441,0,0,0,6.2907-2.0488c5.3955-3.4259,6.4829-10.6792,9.5672-16.2771,4.0078-7.2739,11.8218-11.9423,19.9731-13.5324S.7364,50.3822,8.732,52.6281c3.41.958,6.9216,2.2049,9.3082,4.822s3.2,6.9872.8922,9.6744c-2.5176,2.932-7.0876,2.5222-10.895,1.86L-1.7032,67.29c-3.8484-.6693-7.9306-1.3177-11.5607.1248-5.8917,2.3413-8.3864,9.0875-11.5724,14.5687a42.28,42.28,0,0,1-23.9973,18.9973c-4.16,1.2637-8.6668,1.8641-12.8422.6545s-7.9264-4.5249-8.7115-8.8006C-72.7057,80.2112-58.4431,83.5382-51.7171,82.6438Z"/><path class="cls-5" d="M8.732,52.6266q-1.912-.537-3.8573-.9861a16.5149,16.5149,0,0,1-1.2192,3.4554,67.8914,67.8914,0,0,0-3.9736,10.18A12.0975,12.0975,0,0,0-.7194,67.46q3.2327.5623,6.4648,1.1243c.3947-1.56.2822-3.2161.58-4.8026.7257-3.8655,3.7032-6.7457,6.06-9.9606C11.1917,53.3528,9.9557,52.97,8.732,52.6266Z"/><path class="cls-5" d="M18.04,57.4485a11.3336,11.3336,0,0,0-1.274-1.1882,59.5488,59.5488,0,0,1-2.52,6.1316,28.5427,28.5427,0,0,0-2.7343,7.03c2.8361.1757,5.6409-.2265,7.42-2.2988C21.24,64.4357,20.4269,60.0656,18.04,57.4485Z"/></g><g class="cls-6"><path class="cls-7" d="M73.7677,67.03c-1.0283,1.927-1.946,3.9951-2.9992,6.5516a74.2433,74.2433,0,0,0-11.7256.1031A159.65,159.65,0,0,1,73.7677,67.03Z"/><path class="cls-8" d="M130.9424,134.2708a10.144,10.144,0,0,1-.2995,8.7q-.5494-.0915-1.099-.1965a39.7815,39.7815,0,0,1-8-2.3676,24.3979,24.3979,0,0,1-10.1632-7.5189,6.07,6.07,0,0,1-1.2706-2.52c-.414-2.3466,1.58-4.4472,3.6707-5.5919,4.3614-2.3867,9.3294-2.4611,14.3776-1.9994a6.7828,6.7828,0,0,1,1.8888,3.5142c.2747,1.86-.58,3.7833-.1335,5.6091A13.7469,13.7469,0,0,0,130.9424,134.2708Z"/><path class="cls-7" d="M128.1588,122.776c-5.0482-.4617-10.0162-.3873-14.3776,1.9994-2.091,1.1447-4.0847,3.2453-3.6707,5.5919a6.07,6.07,0,0,0,1.2706,2.52,24.3979,24.3979,0,0,0,10.1632,7.5189,14.4677,14.4677,0,0,1-4.0714,2.8522,72.9641,72.9641,0,0,1-24.2336,7.0782c-.5838.0667-1.1676.1259-1.7552.1736a21.3993,21.3993,0,0,0-7.0515-20.1241,11.9933,11.9933,0,0,0-2.49-1.6541c2.5031-1.1714,5.1226-2.154,7.6982-3.188a55.4013,55.4013,0,0,0,7.2269-3.3693l-.061-.1069a12.7609,12.7609,0,0,0,3.209-4.2278,32.0152,32.0152,0,0,0,4.1515-11.3918,24.8775,24.8775,0,0,0-2.7588-13.7728,54.5283,54.5283,0,0,0-8.2152-11.5864c.2671-6.1624-1.5778-12.2771-4.3022-17.7527-.1145-.2289-.229-.4579-.3491-.6849l.0553-.0286a179.0125,179.0125,0,0,0,17.8442-6.6737c-1.1447,2.0338-2.5413,3.9932-2.7721,6.2845-.332,3.2777,1.8277,6.3093,4.3289,8.4537a24.0156,24.0156,0,0,0,13.7461,5.6759c2.8236.21,5.76-.0687,8.4.9539,5.094,1.9727,7.2537,7.8986,11.1285,11.75a16.8885,16.8885,0,0,0,15.82,4.2564c4.5293-1.1676,8.9669-4.243,13.4714-2.9877,3.7375,1.0436,6.0632,4.7468,9.421,6.6909a11.0594,11.0594,0,0,0,5.2275,1.4557c.04.311.0763.6239.1126.9348.8547,7.4388.8261,15.3564-2.7588,21.9328a31.4166,31.4166,0,0,1-5.9544,7.4635,54.4145,54.4145,0,0,1-45.97,14.1563,10.144,10.144,0,0,0,.2995-8.7,13.7469,13.7469,0,0,1-1.0283-2.3715c-.4465-1.8258.4082-3.7489.1335-5.6091A6.7828,6.7828,0,0,0,128.1588,122.776Z"/><path class="cls-7" d="M74.9525,145.5939l-.0992.0878a9.09,9.09,0,0,1-4.6418,3.6764c-4.764,1.9289-10.0526,1.4767-15.12.2481-.01-.084-.0134-.17-.0153-.25a17.874,17.874,0,0,1,8.8181-15.5795c3.22.3014,6.565.4865,9.0585,2.4477a9.6157,9.6157,0,0,0,1.1753,8.28A10.9406,10.9406,0,0,0,74.9525,145.5939Z"/><path class="cls-7" d="M81.9429,128.7323a36.197,36.197,0,0,0-4.6514,2.5661,12.0328,12.0328,0,0,0-3.5238,3.2719,7.4108,7.4108,0,0,0-.8147,1.6541c-2.4935-1.9612-5.838-2.1463-9.0585-2.4477-.5132-.0477-1.0226-.0992-1.5263-.16a50.6778,50.6778,0,0,1-14.3375-4.5025c-.0763-.0344-.1526-.0668-.2289-.0993a9.9361,9.9361,0,0,1,1.3164-8.1351,17.9567,17.9567,0,0,1,3.6459-3.6688q2.9534-2.4068,6.08-4.5941c1.8888-1.3221,3.9646-2.78,4.5369-5.0119.3663-1.4309.0477-3.0011.601-4.369a25.2331,25.2331,0,0,1,1.656-2.6c1.0951-1.9651.8089-4.432,1.698-6.4963A2.8722,2.8722,0,0,1,69.59,92.2121c1.48-.0706,2.4172,1.5472,2.8656,2.961,1.2477,3.9416,1.6656,8.4976,4.7334,11.27a24.8591,24.8591,0,0,0,3.2376,2.2112,21.9911,21.9911,0,0,1,7.9787,9.2607,13.2011,13.2011,0,0,1,1.2363,7.63C87.0655,126.5783,84.446,127.5609,81.9429,128.7323Z"/><path class="cls-8" d="M72.953,136.2244a7.4108,7.4108,0,0,1,.8147-1.6541,12.0328,12.0328,0,0,1,3.5238-3.2719,36.197,36.197,0,0,1,4.6514-2.5661,11.9933,11.9933,0,0,1,2.49,1.6541,21.3993,21.3993,0,0,1,7.0515,20.1241,27.8972,27.8972,0,0,1-8.7208-.4274,14.6778,14.6778,0,0,1-7.8108-4.4892,10.9406,10.9406,0,0,1-.8242-1.0894A9.6157,9.6157,0,0,1,72.953,136.2244Z"/><path class="cls-8" d="M174.8517,69.3426c6.0957,8.45,9.0738,18.7867,10.3616,29.1406a11.0594,11.0594,0,0,1-5.2275-1.4557c-3.3578-1.9441-5.6835-5.6473-9.421-6.6909-4.5045-1.2553-8.9421,1.82-13.4714,2.9877a16.8885,16.8885,0,0,1-15.82-4.2564c-3.8748-3.8519-6.0345-9.7778-11.1285-11.75-2.6405-1.0226-5.5767-.744-8.4-.9539a24.0156,24.0156,0,0,1-13.7461-5.6759c-2.5012-2.1444-4.6609-5.176-4.3289-8.4537.2308-2.2913,1.6274-4.2507,2.7721-6.2845a101.1723,101.1723,0,0,1,14.7992-4.989,55.2332,55.2332,0,0,1,29.6443,1.0989A48.19,48.19,0,0,1,174.8517,69.3426Z"/><path class="cls-8" d="M73.7677,67.03a46.7,46.7,0,0,1,5.1779-7.6447,4.7962,4.7962,0,0,1,5.8762-1.6294,14.5759,14.5759,0,0,1,3.72,4.8956c.12.227.2346.456.3491.6849,2.7244,5.4756,4.5693,11.59,4.3022,17.7527a54.5283,54.5283,0,0,1,8.2152,11.5864,24.8775,24.8775,0,0,1,2.7588,13.7728A32.0152,32.0152,0,0,1,100.016,117.84a12.7609,12.7609,0,0,1-3.209,4.2278l.061.1069a55.4013,55.4013,0,0,1-7.2269,3.3693,13.2011,13.2011,0,0,0-1.2363-7.63,21.9911,21.9911,0,0,0-7.9787-9.2607,24.8591,24.8591,0,0,1-3.2376-2.2112c-3.0678-2.7721-3.4857-7.3281-4.7334-11.27-.4484-1.4138-1.3851-3.0316-2.8656-2.961a2.8722,2.8722,0,0,0-2.2532,1.9269c-.8891,2.0643-.6029,4.5312-1.698,6.4963a25.2331,25.2331,0,0,0-1.656,2.6c-.5533,1.3679-.2347,2.9381-.601,4.369-.5723,2.2322-2.6481,3.69-4.5369,5.0119q-3.1221,2.1835-6.08,4.5941a17.9567,17.9567,0,0,0-3.6459,3.6688,9.9361,9.9361,0,0,0-1.3164,8.1351c.0763.0325.1526.0649.2289.0993a50.6778,50.6778,0,0,0,14.3375,4.5025c.5037.0611,1.0131.1126,1.5263.16a17.874,17.874,0,0,0-8.8181,15.5795c.0019.08.0057.166.0153.25-1.2707-.3072-2.5279-.664-3.76-1.0436-4.5121-1.3928-8.925-3.0812-13.334-4.77a26.957,26.957,0,0,1-5.5538-2.6252,25.8936,25.8936,0,0,1-10.5676-12.5442,19.7934,19.7934,0,0,1,.7383-15.9115,3.2806,3.2806,0,0,0,.4236-1.0684A3.1036,3.1036,0,0,0,22.87,110.44c-.0039-.0171-.01-.0343-.0134-.0515a23.31,23.31,0,0,1-.5952-5.9964c.0858-5.9906,1.8906-14.3337,8.2343-20.6773a56.6826,56.6826,0,0,1,4.3652-21.679A5.11,5.11,0,0,1,36.7419,59.41a4.22,4.22,0,0,1,3.2682-.1279c3.4188,1.0055,10.44,7.6372,13.95,14.9691q2.5385-.352,5.0826-.5666a74.2433,74.2433,0,0,1,11.7256-.1031C71.8217,71.0253,72.7394,68.9572,73.7677,67.03Z"/><path class="cls-9" d="M22.7777,101.0756c-.731,5.642-.6559,10.0367,3.5875,14.2941,1.7894,1.8569,3.71,3.6342,5.6771,5.3068a29.7021,29.7021,0,0,0,6.4617,4.2485.1365.1365,0,0,1-.1091.25,27.2023,27.2023,0,0,1-6.67-4.1118,71.4046,71.4046,0,0,1-5.7745-5.3016,12.9789,12.9789,0,0,1-3.7363-6.891,22.9042,22.9042,0,0,1,.2941-7.8365.1365.1365,0,0,1,.27.0413Z"/><path class="cls-10" d="M128.1712,122.64c4.7343.39,9.4177,1.1946,14.1452,1.1751a63.7273,63.7273,0,0,0,14.0534-1.4693c9.0718-2.0338,18.47-5.8248,24.1013-13.5715a.1364.1364,0,0,1,.2238.1561,27.7329,27.7329,0,0,1-7.6922,7.3936c-10.6523,6.8746-25.3614,9.1233-37.8043,7.4756-2.3553-.2955-4.6979-.6479-7.052-.8878a.1365.1365,0,0,1,.0248-.2718Z"/><path class="cls-9" d="M101.7939,118.68c-5.3323,5.3313-12.9595,7.1352-19.5849,10.2435a27.278,27.278,0,0,0-6.9715,4.3133,8.0693,8.0693,0,0,0-2.4125,7.3677,9.9882,9.9882,0,0,0,2.2311,4.9.1365.1365,0,0,1-.2073.1775,10.1642,10.1642,0,0,1-2.4357-5.01,8.4991,8.4991,0,0,1,2.4567-7.8185c4.9069-4.37,11.4855-6.0912,17.3687-8.6624a31.2929,31.2929,0,0,0,9.3651-5.7076.1365.1365,0,0,1,.19.1957Z"/><path class="cls-9" d="M41.9552,126.19a25.8024,25.8024,0,0,0,5.6181,2.48,77.0077,77.0077,0,0,0,9.6294,3.596,34.1958,34.1958,0,0,0,6.0228,1.1739,42.5569,42.5569,0,0,1,6.1531.8846,9.79,9.79,0,0,1,3.7321,1.8493.1365.1365,0,0,1-.1665.2164,9.7313,9.7313,0,0,0-3.6693-1.6613c-2.6657-.6392-5.461-.57-8.1673-1.02a48.1126,48.1126,0,0,1-11.828-3.77c-1.26-.5856-2.4949-1.1036-3.8007-1.5773a17.2215,17.2215,0,0,1-3.6746-1.9434.1365.1365,0,0,1,.1509-.2274Z"/><path class="cls-9" d="M73.3085,147.9321a9.6765,9.6765,0,0,0-5.087-2.9487.1378.1378,0,0,1,.03-.2713,6.31,6.31,0,0,1,5.2776,3.0592.1378.1378,0,0,1-.2205.1608Z"/><path class="cls-11" d="M75.9989,73.953c1.52-3.1758,5.7667-11.0393,7.4524-10.9762,2.438.0912,4.1419,8.7072,4.1419,15.4405A36.9327,36.9327,0,0,0,75.9989,73.953Z"/><path class="cls-11" d="M35.68,80.6936A54.6041,54.6041,0,0,1,37.083,68.4292a10.85,10.85,0,0,1,1.2755-3.4626,2.09,2.09,0,0,1,1.7557-1.1493A2.4019,2.4019,0,0,1,41.6216,64.84a40.2244,40.2244,0,0,1,6.4591,10.5774A27.1667,27.1667,0,0,0,35.68,80.6936Z"/><path class="cls-9" d="M79.9873,137.8688a12.4649,12.4649,0,0,0-6.608,4.23.1372.1372,0,0,1-.2224-.1583,8.96,8.96,0,0,1,6.7774-4.34.1372.1372,0,0,1,.053.2677Z"/><path class="cls-9" d="M81.39,141.789c-2.5681,1.3921-3.6278,2.0521-5.0635,4.6877a.1373.1373,0,0,1-.249-.1117c.8668-2.6642,2.6018-3.9953,5.2023-4.8256a.1373.1373,0,0,1,.11.25Z"/><path d="M17.748,117.6346l-.0186-.19c12.8924-1.269,26.2233-2.5812,39.3147-.8015l-.0257.1889C43.9494,115.0554,30.63,116.3663,17.748,117.6346Z"/><path d="M14.2881,128.8887l-.0757-.1751a112.0083,112.0083,0,0,1,42.13-9.0825l.0034.1908A111.8186,111.8186,0,0,0,14.2881,128.8887Z"/><path d="M79.5565,112.625l-.0582-.1819a140.8157,140.8157,0,0,1,37.0155-6.5841l.0082.1907A140.6132,140.6132,0,0,0,79.5565,112.625Z"/><path d="M81.8144,114.9988l-.0283-.1886a149.7228,149.7228,0,0,1,35.1741-1.1154l-.0164.19A149.5418,149.5418,0,0,0,81.8144,114.9988Z"/><path class="cls-12" d="M61.3445,106.9459c.1817-1.1676-.7925-2.1651-1.6665-2.9229a10.4423,10.4423,0,0,0-8.8766-2.285.8019.8019,0,0,0-.3448.1347.2891.2891,0,0,0-.1021.3311.42.42,0,0,0,.2632.1814c1.1293.3911,2.3272.5467,3.4681.9023a10.3533,10.3533,0,0,1,4.4166,2.7545,4.41,4.41,0,0,0,1.6766,1.362C60.5973,107.5393,61.2589,107.4958,61.3445,106.9459Z"/><path class="cls-12" d="M76.67,105.1684c-.4646-1.0865.2329-2.2938.8926-3.244a10.4428,10.4428,0,0,1,8.0368-4.4074.8021.8021,0,0,1,.3675.0454.2891.2891,0,0,1,.1807.2956.42.42,0,0,1-.21.2408c-.9977.6579-2.12,1.1048-3.1377,1.7313A10.3533,10.3533,0,0,0,79.2,103.59a4.4085,4.4085,0,0,1-1.2881,1.7341C77.54,105.5588,76.8885,105.68,76.67,105.1684Z"/><path class="cls-13" d="M70.9045,111.5426c-.01,1.0047-.0349,2.002-.0874,3.0091a4.1193,4.1193,0,0,1-.661,2.28,3.9335,3.9335,0,0,1-5.0936.8731,3.0869,3.0869,0,0,1-1.042-1.1794.1367.1367,0,0,1,.2384-.1328,3.11,3.11,0,0,0,2.35,1.3676,3.7329,3.7329,0,0,0,3.0952-1.2685,3.8816,3.8816,0,0,0,.6072-1.9806c.09-.9911.1946-1.9928.3214-2.9866a.1369.1369,0,0,1,.2723.0184Z"/><path class="cls-13" d="M78.039,114.2392a4.0131,4.0131,0,0,1-5.3364,3.0792,2.8242,2.8242,0,0,1-1.8514-1.8618,12.9956,12.9956,0,0,1-.3591-4.1781.1367.1367,0,0,1,.2729-.0056c.0447.5509.0713,1.1.1312,1.6431a7.0806,7.0806,0,0,0,.7966,3.0349,2.504,2.504,0,0,0,1.2048.83,3.7,3.7,0,0,0,4.1632-1.1968,3.8454,3.8454,0,0,0,.711-1.4.1369.1369,0,0,1,.2672.0553Z"/><path class="cls-11" d="M73.1292,108.24a1.2284,1.2284,0,0,0-1.0943-.3084,2.0092,2.0092,0,0,0-.7387.2779c-.3985.2509-.7341.6575-1.2219.6721a2.3161,2.3161,0,0,1-.9959-.3515,1.62,1.62,0,0,0-1.5278.0053,1.047,1.047,0,0,0-.4405.7706,1.6637,1.6637,0,0,0,.1872.8657c.3.6224,2.1421,2.4021,3.24,2.3619a2.4975,2.4975,0,0,0,1.1841-.7029C73.2243,110.4234,73.84,109.03,73.1292,108.24Z"/><path class="cls-9" d="M111.6188,60.7054a.2262.2262,0,0,0-.2551-.1038,2.3725,2.3725,0,0,0-.31.1389c-.0921.0545-.1847.1077-.2763.163q-.2662.1608-.5465.2966a6.4513,6.4513,0,0,1-1.1548.424.273.273,0,0,0,.145.5261,7.2263,7.2263,0,0,0,1.2573-.4474,3.1751,3.1751,0,0,0,1.1055-.7238A.2333.2333,0,0,0,111.6188,60.7054Z"/><path class="cls-9" d="M112.72,61.6289a7.6315,7.6315,0,0,0-.9607.3169l-.9492.3591a.2091.2091,0,0,0-.1421.25.2051.2051,0,0,0,.25.1422l.9676-.3624a7.918,7.918,0,0,0,.96-.4077C113.0135,61.8376,112.8959,61.5878,112.72,61.6289Z"/><path class="cls-9" d="M113.841,60.3318a.1807.1807,0,0,0-.1635-.11,1.341,1.341,0,0,0-.46.0658l-.4081.134a.255.255,0,1,0,.1355.4916l.4146-.14a1.31,1.31,0,0,0,.2409-.1025,1.7649,1.7649,0,0,0,.2034-.1433A.1772.1772,0,0,0,113.841,60.3318Z"/><path class="cls-9" d="M158.4246,117.3478a.2481.2481,0,0,0-.33-.0866c-.0262.0124-.0526.0243-.079.0363l-.012.0054-.01.0041c-.0471.0189-.0944.037-.1423.0537q-.1384.0485-.2811.0831c-.0926.0226-.1863.04-.2806.0541l-.0292.0039c-.0288.0032-.0576.0061-.0865.0085-.05.0043-.1011.0071-.1518.009a.2415.2415,0,0,0,0,.4829,3.363,3.363,0,0,0,1.3165-.324A.2427.2427,0,0,0,158.4246,117.3478Z"/><path class="cls-9" d="M160.765,116.8987a.6389.6389,0,0,0-.239.0594c-.059.029-.1149.0626-.1716.0957-.11.0644-.2193.13-.333.1876q-.0827.0419-.1672.08l-.0413.0181,0,0c-.0286.0116-.0573.0231-.0862.0341a3.8458,3.8458,0,0,1-.3746.121.2706.2706,0,1,0,.1438.5218,4.1509,4.1509,0,0,0,.79-.3,2.672,2.672,0,0,0,.3411-.1966,1.6371,1.6371,0,0,0,.1888-.1492.5465.5465,0,0,0,.1369-.2258A.1955.1955,0,0,0,160.765,116.8987Z"/><path class="cls-9" d="M160.1969,115.5019a.2665.2665,0,0,0-.3165-.1554c-.5868.1979-1.16.4289-1.7348.6578a.298.298,0,0,0-.203.3575.2939.2939,0,0,0,.3576.203c.6-.2329,1.2-.4633,1.7869-.7279A.2663.2663,0,0,0,160.1969,115.5019Z"/><path class="cls-9" d="M92.0628,127.28a.1412.1412,0,0,0-.17-.0968c-.1591.0326-.3176.0629-.4737.1079l-.4662.1346a.1767.1767,0,1,0,.0939.3406l.4635-.1446c.1555-.0486.305-.1107.4562-.1712A.143.143,0,0,0,92.0628,127.28Z"/><path class="cls-9" d="M94.8962,125.9893a.9951.9951,0,0,0-.1883.0131,1.131,1.131,0,0,0-.1871.0689c-.0964.0411-.1922.0836-.2882.1254l-.5663.2468a.277.277,0,0,0-.1274.1657.2838.2838,0,0,0,.0279.2137.2807.2807,0,0,0,.1657.1274.32.32,0,0,0,.2136-.028l.5535-.2475c.0921-.0412.1853-.0808.2767-.1237a1.0149,1.0149,0,0,0,.1328-.0714.8927.8927,0,0,0,.1373-.1278A.2148.2148,0,0,0,94.8962,125.9893Z"/><path class="cls-9" d="M94.5535,127.4185a19.6861,19.6861,0,0,0-1.8028.7919.2547.2547,0,0,0-.0907.3457.2584.2584,0,0,0,.3457.0906,18.9967,18.9967,0,0,0,1.7132-.8359C94.9216,127.69,94.79,127.3372,94.5535,127.4185Z"/><path class="cls-9" d="M35.7258,140.3515c-.2129-.189-.44-.36-.664-.5359l-.6729-.527a.3.3,0,0,0-.1945-.0805.275.275,0,0,0-.1944.4694l.6743.5443c.2366.1911.47.3855.7182.5616a.2754.2754,0,0,0,.3333-.4319Z"/><path class="cls-9" d="M36.7971,139.3643c-.0328-.0113-.0655-.0229-.098-.0354-.0146-.0056-.03-.0111-.0444-.0176l0,0c-.0661-.03-.1309-.0626-.1972-.0921a2.6356,2.6356,0,0,1-.3748-.2044q-.0433-.0285-.0858-.0587l-.0371-.027.0009.0012-.0011-.0014h0c-.0307-.0227-.022-.0233-.0112-.0145-.019-.0184-.0539-.038-.068-.05q-.0395-.0338-.0776-.069-.0806-.0746-.1545-.1558-.0349-.0384-.0684-.0783l-.0293-.0356-.0051-.0061-.001-.0013a.3555.3555,0,0,0-.1937-.149.3317.3317,0,0,0-.25.0327.3274.3274,0,0,0-.1163.4435,3.0809,3.0809,0,0,0,.7529.7141,2.6418,2.6418,0,0,0,.3948.2159,2.0671,2.0671,0,0,0,.5116.1452.2885.2885,0,1,0,.1533-.5562Z"/><path class="cls-9" d="M35.96,138.929a.038.038,0,0,0-.0114-.0147.0507.0507,0,0,1,.0112.0145Z"/><path class="cls-9" d="M39.2926,141.8662a1.1231,1.1231,0,0,0-.1716-.164c-.0452-.0314-.0917-.0623-.1387-.091-.0975-.0594-.1991-.1132-.2984-.17l-.607-.3453a.322.322,0,1,0-.325.556l.61.34c.1.0556.1984.1146.3.1671.049.0254.1.0488.15.0717a1.0791,1.0791,0,0,0,.2307.0647.2571.2571,0,0,0,.25-.43Z"/><path class="cls-9" d="M25.5,98.6081a.2328.2328,0,0,0-.3151.0826l-.29.6853-.1425.3366a.9874.9874,0,0,0-.1118.4168.1856.1856,0,0,0,.313.13.8837.8837,0,0,0,.2015-.326l.1426-.3366.2851-.6732A.2369.2369,0,0,0,25.5,98.6081Z"/><path class="cls-9" d="M26.0812,100.4047a.2974.2974,0,0,0-.5076-.21,2.6025,2.6025,0,0,0-.4221.7058,1.4218,1.4218,0,0,0-.0965.3374,1.99,1.99,0,0,0-.025.2257.5278.5278,0,0,0,.0768.258.2144.2144,0,0,0,.1853.1063.2261.2261,0,0,0,.1854-.1063c-.0346.045.0138-.0171.0223-.029l.02-.0305a.514.514,0,0,0,.0553-.1147c.0162-.0506.0259-.1036.0418-.1545.0328-.1053.0638-.2118.1037-.3147l.0094-.0237c.0112-.0234.0215-.0472.0329-.07q.0352-.0723.0758-.1417t.0862-.1355c.014-.02.0286-.04.0429-.0595l.0261-.0321A.3194.3194,0,0,0,26.0812,100.4047Z"/></g></g></svg>