<svg xmlns="http://www.w3.org/2000/svg" width="512" height="512" viewBox="0 0 512 512"><defs><style>.a{fill:#ff9486;}.b{fill:#413a3a;}</style></defs><circle class="a" cx="255.9999" cy="188.8626" r="90.5422"/><path class="a" d="M256,450.4408c52.76,0,102.3624-20.9959,139.67-59.12.284-.29.558-.5878.84-.88-22.7319-56.472-77.0644-96.25-140.51-96.3212-63.445.0722-117.7774,39.8493-140.51,96.3209.2821.2918.5561.5895.84.88C153.6376,429.4449,203.24,450.4408,256,450.4408Z"/><path class="b" d="M256,26a230.0675,230.0675,0,0,1,89.5184,441.9361A230.0663,230.0663,0,0,1,166.4816,44.0639,228.5361,228.5361,0,0,1,256,26m0-26C114.6151,0,0,114.6151,0,256S114.6151,512,256,512,512,397.3849,512,256,397.3849,0,256,0Z"/></svg>