<svg xmlns="http://www.w3.org/2000/svg" width="37.2337" height="50" viewBox="0 0 37.2337 50"><defs><style>.a{fill:#ff9486;}</style></defs><path class="a" d="M43.6023,31.6719c.0015-.0971.0146-.1913.0146-.2888,0-.2064-.0088-.3929-.0156-.5844a21.1178,21.1178,0,0,0-2.6-8.94,1.0752,1.0752,0,0,0-1.072-.6434,1.1424,1.1424,0,0,0-1.0259.8133,19.29,19.29,0,0,1-.7924,1.8572,5.0251,5.0251,0,0,1-4.6664,2.9286c-2.1591-.02-4.27-1.6112-3.5469-4.4826.4269-1.6952.79-3.4084,1.1218-5.1251a15.2349,15.2349,0,0,0-.1869-7.2606A22.0637,22.0637,0,0,0,24.4714.2952a1.06,1.06,0,0,0-1.7228.4016c-.1444.3261-.2055.6888-.3476,1.0162-.7785,1.7942-1.4654,3.6384-2.3812,5.3605-1.6031,3.0146-3.9318,5.5119-6.0782,8.1387a73.6355,73.6355,0,0,0-4.6339,6.07A17.1626,17.1626,0,0,0,6.4,30.77c-.0073.2-.0164.3965-.0164.613a18.6069,18.6069,0,0,0,37.2057.5559c.0028-.054.0112-.1059.0136-.16C43.6041,31.7429,43.6009,31.708,43.6023,31.6719Z" transform="translate(-6.3831 0)"/></svg>