<svg xmlns="http://www.w3.org/2000/svg" width="512" height="512" viewBox="0 0 512 512"><defs><style>.a{fill:#413a3a;}</style></defs><path class="a" d="M85.333,0h64a85.3331,85.3331,0,0,1,85.333,85.333v64a85.3331,85.3331,0,0,1-85.333,85.333h-64A85.3319,85.3319,0,0,1,0,149.333v-64A85.3331,85.3331,0,0,1,85.333,0Z"/><path class="a" d="M362.667,0h64A85.3331,85.3331,0,0,1,512,85.333v64a85.3331,85.3331,0,0,1-85.333,85.333h-64a85.3331,85.3331,0,0,1-85.333-85.333v-64A85.3319,85.3319,0,0,1,362.667,0Z"/><path class="a" d="M85.333,277.333h64a85.3331,85.3331,0,0,1,85.333,85.333v64a85.3331,85.3331,0,0,1-85.333,85.333h-64A85.3317,85.3317,0,0,1,0,426.667v-64A85.3334,85.3334,0,0,1,85.333,277.333Z"/><path class="a" d="M362.667,277.333h64A85.3331,85.3331,0,0,1,512,362.666v64A85.3334,85.3334,0,0,1,426.667,512h-64a85.3331,85.3331,0,0,1-85.333-85.333v-64A85.3321,85.3321,0,0,1,362.667,277.333Z"/></svg>