<?xml version="1.0" encoding="utf-8"?>
<!-- Generator: Adobe Illustrator 25.2.3, SVG Export Plug-In . SVG Version: 6.00 Build 0)  -->
<svg version="1.1" id="Capa_1" xmlns="http://www.w3.org/2000/svg" xmlns:xlink="http://www.w3.org/1999/xlink" x="0px" y="0px"
	 viewBox="0 0 666.7 666.7" style="enable-background:new 0 0 666.7 666.7;" xml:space="preserve">
<style type="text/css">
	.st0{fill:#413A3A;}
</style>
<g>
	<path class="st0" d="M633.3,666.7c-8.5,0-17-3.2-23.5-9.7L458.5,506.1c-49.7,39.3-110.8,60.6-175.2,60.6
		c-75.7,0-146.8-29.5-200.3-83C29.5,430.2,0,359,0,283.3C0,207.7,29.5,136.5,83,83S207.7,0,283.3,0C359,0,430.2,29.5,483.7,83
		c53.5,53.5,83,124.7,83,200.3c0,64.6-21.4,125.8-61,175.7l151.2,150.7c13,13,13.1,34.1,0.1,47.1
		C650.4,663.4,641.9,666.7,633.3,666.7z M283.3,66.7c-119.5,0-216.7,97.2-216.7,216.7S163.9,500,283.3,500S500,402.8,500,283.3
		S402.8,66.7,283.3,66.7z"/>
</g>
</svg>
