<svg xmlns="http://www.w3.org/2000/svg" width="2000" height="11.7649" viewBox="0 0 2000 11.7649"><defs><style>.a{fill:#1b1b1b;}</style></defs><path class="a" d="M2000,0c-9.8036,0-9.8036,7.1766-19.6071,7.1766S1970.5892,0,1960.7857,0s-9.8045,7.1766-19.6092,7.1766S1931.3728,0,1921.5694,0s-9.8028,7.1766-19.6054,7.1766S1892.1606,0,1882.3571,0s-9.8034,7.1766-19.6065,7.1766S1852.9464,0,1843.1422,0s-9.8044,7.1766-19.6088,7.1766S1813.729,0,1803.9245,0s-9.8045,7.1766-19.6089,7.1766S1774.5112,0,1764.7069,0s-9.804,7.1766-19.6082,7.1766S1735.2947,0,1725.4909,0s-9.8037,7.1766-19.6076,7.1766S1696.0794,0,1686.2756,0s-9.8045,7.1766-19.6089,7.1766S1656.8628,0,1647.0588,0s-9.8036,7.1766-19.6072,7.1766S1617.6476,0,1607.8433,0s-9.8038,7.1766-19.6075,7.1766S1578.4323,0,1568.6286,0s-9.804,7.1766-19.6082,7.1766S1539.217,0,1529.4136,0s-9.8042,7.1766-19.6084,7.1766S1500.0018,0,1490.1984,0s-9.8039,7.1766-19.608,7.1766S1460.7871,0,1450.9839,0s-9.8041,7.1766-19.6083,7.1766S1421.5724,0,1411.7694,0s-9.8041,7.1766-19.6084,7.1766S1382.3579,0,1372.5548,0s-9.8036,7.1766-19.6071,7.1766S1343.1442,0,1333.3409,0s-9.803,7.1766-19.6061,7.1766S1303.9306,0,1294.1266,0s-9.8028,7.1766-19.6056,7.1766S1264.7176,0,1254.9143,0s-9.8034,7.1766-19.6071,7.1766S1225.5045,0,1215.7018,0s-9.8033,7.1766-19.6066,7.1766S1186.2918,0,1176.4886,0c-9.8073,0-9.8073,7.1766-19.6144,7.1766S1147.0685,0,1137.2628,0s-9.8061,7.1766-19.6122,7.1766S1107.8451,0,1098.0394,0s-9.8054,7.1766-19.6107,7.1766S1068.6244,0,1058.82,0s-9.804,7.1766-19.6081,7.1766S1029.4064,0,1019.6011,0s-9.8053,7.1766-19.6106,7.1766S990.1856,0,980.3809,0s-9.8047,7.1766-19.6093,7.1766S950.9672,0,941.1628,0s-9.8048,7.1766-19.61,7.1766S911.749,0,901.9447,0s-9.8051,7.1766-19.61,7.1766S872.53,0,862.7261,0s-9.8038,7.1766-19.6076,7.1766S833.315,0,823.5114,0s-9.8035,7.1766-19.6069,7.1766S794.1009,0,784.2972,0s-9.8046,7.1766-19.6091,7.1766S754.8845,0,745.0808,0s-9.8027,7.1766-19.6054,7.1766S715.672,0,705.8686,0s-9.8033,7.1766-19.6065,7.1766S676.4579,0,666.6537,0s-9.8044,7.1766-19.6087,7.1766S637.24,0,627.436,0s-9.8045,7.1766-19.6089,7.1766S598.0227,0,588.2185,0,578.4143,7.1766,568.61,7.1766,558.8063,0,549.0024,0s-9.8038,7.1766-19.6076,7.1766S519.591,0,509.787,0s-9.8044,7.1766-19.6088,7.1766S480.3742,0,470.5705,0s-9.8037,7.1766-19.6073,7.1766S441.159,0,431.3548,0s-9.8037,7.1766-19.6074,7.1766S401.9438,0,392.14,0s-9.8041,7.1766-19.6083,7.1766S362.7285,0,352.9252,0s-9.8043,7.1766-19.6085,7.1766S323.5134,0,313.71,0s-9.804,7.1766-19.6081,7.1766S284.2987,0,274.4954,0s-9.8041,7.1766-19.6082,7.1766S245.084,0,235.2809,0s-9.8042,7.1766-19.6084,7.1766S205.8694,0,196.0663,0s-9.8036,7.1766-19.6072,7.1766S166.6558,0,156.8525,0s-9.8031,7.1766-19.6062,7.1766S127.4423,0,117.6382,0s-9.8029,7.1766-19.6058,7.1766S88.2291,0,78.4259,0,68.6224,7.1766,58.8188,7.1766,49.0161,0,39.2133,0,29.41,7.1766,19.6067,7.1766,9.8033,0,0,0V11.7649H2000Z"/></svg>