<?xml version="1.0" encoding="utf-8"?>
<!-- Generator: Adobe Illustrator 25.2.3, SVG Export Plug-In . SVG Version: 6.00 Build 0)  -->
<svg version="1.1" id="Capa_1" xmlns="http://www.w3.org/2000/svg" xmlns:xlink="http://www.w3.org/1999/xlink" x="0px" y="0px"
	 viewBox="0 0 28 28" style="enable-background:new 0 0 28 28;" xml:space="preserve">
<g>
	<path d="M24.1,28H3.9c-2.1,0-3.8-1.7-3.8-3.8v-9.9c0-1.7,0.7-3.4,2-4.6L11.4,1c1.5-1.4,3.7-1.4,5.2,0l9.3,8.8c1.3,1.2,2,2.9,2,4.6
		v9.9C27.8,26.3,26.1,28,24.1,28z M14,2.5c-0.3,0-0.6,0.1-0.9,0.3l-9.3,8.8c-0.8,0.7-1.2,1.7-1.2,2.7v9.9c0,0.7,0.6,1.3,1.3,1.3
		h20.1c0.7,0,1.3-0.6,1.3-1.3v-9.9c0-1-0.4-2-1.2-2.7l-9.3-8.8C14.6,2.6,14.3,2.5,14,2.5z"/>
</g>
</svg>
