<?xml version="1.0" encoding="utf-8"?>
<!-- Generator: Adobe Illustrator 25.2.3, SVG Export Plug-In . SVG Version: 6.00 Build 0)  -->
<svg version="1.1" id="Capa_1" xmlns="http://www.w3.org/2000/svg" xmlns:xlink="http://www.w3.org/1999/xlink" x="0px" y="0px"
	 viewBox="0 0 20.7 25.5" style="enable-background:new 0 0 20.7 25.5;" xml:space="preserve">
<path d="M4.2,24c-1.7,0-3-1.4-3-3V4.5c0-1.7,1.4-3,3-3h12.3c1.7,0,3,1.4,3,3V21c0,1.7-1.4,3-3,3c-0.5,0-0.9-0.1-1.3-0.3l-4.5-2.2
	c-0.2-0.1-0.5-0.1-0.7,0l-4.5,2.2C5.1,23.9,4.7,24,4.2,24z M10.4,19.2c0.5,0,0.9,0.1,1.4,0.3l4.5,2.2c0.4,0.2,0.8,0,1-0.3
	c0.1-0.1,0.1-0.2,0.1-0.3V4.5c0-0.4-0.3-0.8-0.8-0.8H4.2c-0.4,0-0.8,0.3-0.8,0.8V21c0,0.4,0.3,0.8,0.8,0.8c0.1,0,0.2,0,0.3-0.1
	L9,19.5C9.4,19.3,9.9,19.1,10.4,19.2z"/>
</svg>
