<?xml version="1.0" encoding="utf-8"?>
<!-- Generator: Adobe Illustrator 25.2.3, SVG Export Plug-In . SVG Version: 6.00 Build 0)  -->
<svg version="1.1" id="Capa_1" xmlns="http://www.w3.org/2000/svg" xmlns:xlink="http://www.w3.org/1999/xlink" x="0px" y="0px"
	 viewBox="0 0 800 800" style="enable-background:new 0 0 800 800;" xml:space="preserve">
<g>
	<path d="M400,525c-68.9,0-125-56.1-125-125s56.1-125,125-125s125,56.1,125,125S468.9,525,400,525z M400,325c-41.4,0-75,33.6-75,75
		c0,41.4,33.6,75,75,75c41.4,0,75-33.6,75-75C475,358.6,441.4,325,400,325z"/>
</g>
<g>
	<path d="M400,758.3c-33.2,0-51.6,0-68.4-7c-22.6-9.4-40.2-27-49.6-49.6c-5.1-12.3-6.2-25.2-6.7-37.4c-0.4-10.5-5.6-19.6-13.9-24.4
		c-8.3-4.8-18.8-4.7-28,0.2c-10.8,5.7-22.6,11.2-35.7,12.9c-24.3,3.2-48.3-3.3-67.8-18.2c-14.5-11.1-23.6-26.9-40.2-55.7
		c-16.6-28.8-25.8-44.7-28.2-62.8c-3.2-24.3,3.3-48.3,18.2-67.8c8.1-10.5,18.7-18,29.1-24.5c8.9-5.6,14.2-14.6,14.2-24.2
		c0-9.6-5.3-18.6-14.2-24.2c-10.3-6.5-21-13.9-29.1-24.5c-14.9-19.4-21.4-43.5-18.2-67.8c2.4-18.1,11.5-33.9,28.2-62.7
		c16.6-28.8,25.8-44.7,40.3-55.8c19.4-14.9,43.5-21.4,67.8-18.2c13.2,1.7,24.9,7.2,35.7,12.9c9.3,4.9,19.8,5,28,0.2
		c8.3-4.8,13.5-13.9,13.9-24.4c0.5-12.2,1.6-25.1,6.7-37.4c9.4-22.6,27-40.2,49.6-49.6c16.8-7,35.2-7,68.4-7s51.6,0,68.4,7l0,0
		c22.6,9.4,40.2,27,49.6,49.6c5.1,12.3,6.2,25.2,6.7,37.4c0.4,10.5,5.6,19.6,13.9,24.4c8.3,4.8,18.8,4.7,28-0.2
		c10.8-5.7,22.6-11.2,35.7-12.9c24.3-3.2,48.3,3.3,67.8,18.2c14.5,11.1,23.6,27,40.2,55.8c16.6,28.8,25.8,44.7,28.2,62.7
		c3.2,24.3-3.3,48.3-18.2,67.8c-8.1,10.5-18.7,18-29.1,24.5c-8.9,5.6-14.2,14.6-14.2,24.2c0,9.6,5.3,18.6,14.2,24.2
		c10.3,6.5,21,13.9,29.1,24.5c14.9,19.4,21.4,43.5,18.2,67.8c-2.4,18.1-11.5,33.9-28.2,62.7c-16.6,28.8-25.8,44.7-40.2,55.8
		c-19.4,14.9-43.5,21.4-67.8,18.2c-13.2-1.7-24.9-7.2-35.7-12.9c-9.3-4.9-19.8-5-28-0.2c-8.3,4.8-13.5,13.9-13.9,24.4
		c-0.5,12.2-1.6,25.2-6.7,37.4c-9.4,22.6-27,40.2-49.6,49.6C451.6,758.3,433.2,758.3,400,758.3z M248,586.4
		c13.4,0,26.6,3.4,38.4,10.3c23.3,13.4,37.8,38,38.8,65.8c0.4,10.2,1.2,16.2,2.9,20.1c4.3,10.3,12.3,18.3,22.5,22.6
		c7.7,3.2,22.4,3.2,49.3,3.2c26.8,0,41.6,0,49.3-3.2c10.3-4.3,18.3-12.3,22.5-22.5c1.6-4,2.5-10,2.9-20.1
		c1-27.8,15.5-52.4,38.8-65.8c23.3-13.4,51.8-13.7,76.4-0.7c9,4.7,14.6,7,18.9,7.6c11,1.5,22-1.5,30.8-8.2c6.6-5,14-17.9,27.4-41.1
		c13.4-23.2,20.8-36,21.9-44.3c1.5-11-1.5-22-8.3-30.8c-2.6-3.4-7.4-7.2-16-12.6c-23.5-14.8-37.6-39.7-37.6-66.5
		c0-26.9,14.1-51.7,37.6-66.5c8.6-5.4,13.4-9.2,16-12.6c6.8-8.8,9.7-19.8,8.3-30.8c-1.1-8.2-8.5-21-21.9-44.3
		c-13.4-23.2-20.8-36-27.4-41.1c-8.8-6.8-19.8-9.7-30.8-8.3c-4.3,0.6-9.9,2.8-18.9,7.6c-24.6,13-53.1,12.7-76.4-0.7
		c-23.3-13.4-37.8-38-38.8-65.8c-0.4-10.1-1.2-16.2-2.9-20.1c-4.3-10.3-12.3-18.3-22.5-22.6c-7.7-3.2-22.4-3.2-49.3-3.2
		c-26.8,0-41.6,0-49.3,3.2c-10.3,4.3-18.3,12.3-22.5,22.5c-1.6,4-2.5,10-2.9,20.1c-1,27.8-15.6,52.4-38.8,65.8
		c-23.3,13.4-51.8,13.7-76.4,0.7c-9-4.7-14.6-7-18.9-7.6c-11-1.5-22,1.5-30.8,8.3c-6.6,5-14,17.8-27.4,41.1
		c-13.4,23.2-20.8,36-21.9,44.3c-1.5,11,1.5,22,8.3,30.8c2.6,3.4,7.4,7.2,16,12.6c23.5,14.8,37.6,39.7,37.6,66.5
		c0,26.9-14.1,51.7-37.6,66.5c-8.6,5.4-13.4,9.2-16,12.6c-6.8,8.8-9.7,19.8-8.3,30.8c1.1,8.2,8.5,21,21.9,44.3
		c13.4,23.3,20.8,36,27.4,41.1c8.8,6.8,19.8,9.7,30.8,8.3c4.2-0.6,9.9-2.8,18.9-7.6C222.1,589.6,235.1,586.4,248,586.4z"/>
</g>
</svg>
