<?xml version="1.0" encoding="utf-8"?>
<!-- Generator: Adobe Illustrator 25.2.3, SVG Export Plug-In . SVG Version: 6.00 Build 0)  -->
<svg version="1.1" id="Capa_1" xmlns="http://www.w3.org/2000/svg" xmlns:xlink="http://www.w3.org/1999/xlink" x="0px" y="0px"
	 viewBox="0 0 800 800" style="enable-background:new 0 0 800 800;" xml:space="preserve">
<g>
	<path d="M735,640L631.6,451c51.6-91.8,48.8-206.3-8.2-295.6C594,109.4,552.4,73.7,503,52.3c-65.5-28.4-140.6-28.4-206.1,0
		c-49.4,21.5-91,57.1-120.3,103.1c-29.4,46.1-45,99.5-45,154.6c-0.1,49.7,12.6,98.2,36.7,141.1L65,640c-4.5,8.2-3.8,18.3,1.7,25.9
		c5.5,7.6,15,11.2,24.2,9.4l94.8-18.8l30.5,95.7c2.9,9.2,11.1,15.8,20.7,16.7c9.6,0.9,18.9-4,23.5-12.5l93.5-171.5
		c30.5,5.5,61.8,5.5,92.2,0l93.5,171.5c4.3,7.8,12.4,12.6,21.2,12.6c0.8,0,1.5,0,2.3-0.1c9.6-0.9,17.8-7.5,20.7-16.7l30.5-95.7
		l94.8,18.8c9.2,1.8,18.6-1.8,24.2-9.4C738.9,658.3,739.5,648.2,735,640z M457,533.4c-1.5,0.1-3,0.3-4.4,0.7
		c-34.4,8.9-70.8,8.9-105.2,0c-1.6-0.4-3.3-0.6-4.9-0.7c-50.6-14.3-94.1-47-123.5-90.8c-0.6-1.7-1.4-3.3-2.3-4.9
		c-24-38.1-36.7-82.2-36.6-127.6c0,0,0,0,0,0c0-45.8,12.9-90.3,37.4-128.6c24.1-37.8,58.3-67.1,98.8-84.7
		c53.3-23.1,114.4-23.1,167.6,0c40.5,17.6,74.7,46.9,98.8,84.7c49.6,77.7,49.9,178.3,0.7,256.3c-0.6,1-1.2,2-1.6,3.1
		C552.3,485.5,508.4,518.9,457,533.4z M245,683.7l-19.9-62.5c-3.7-11.7-15.7-18.7-27.7-16.3l-65.2,13l67.3-123
		c28.9,33.8,65.5,60.2,106.9,76.2L245,683.7z M602.6,604.9c-12-2.4-24,4.6-27.7,16.3L555,683.7l-61.5-112.8
		c41.4-16.1,78-42.6,106.8-76.4l67.5,123.3L602.6,604.9z"/>
	<path d="M499.8,245.1c-0.3-0.1-0.5-0.1-0.8-0.2l-44.4-9.1l-21.5-43.4c-6.2-12.6-19.2-20.8-33.1-20.8c-14,0-27,8.2-33.2,20.9
		l-21.5,43.2l-44.3,9.2c-13.1,2.7-23.9,12.2-28.2,25c-4.2,12.5-1.6,26.6,6.9,36.7c0.1,0.1,0.1,0.2,0.2,0.2l32.6,37.9l-6.1,51.3
		c-1.7,13.6,3.9,27,14.9,35.1c11.3,8.4,26.1,9.6,38.7,3.2c0.1,0,0.1-0.1,0.2-0.1l39.5-20.6l39.5,20.6c0.1,0,0.1,0.1,0.2,0.1
		c5.3,2.7,11.1,4,16.8,4c7.7,0,15.4-2.5,21.9-7.3c10.9-8.1,16.6-21.5,14.9-35l-6.1-51.5l32.6-37.9c0.1-0.1,0.2-0.2,0.2-0.3
		c8.4-10.1,11-23.5,7-36C522.9,257.8,512.5,248.1,499.8,245.1z M457,240.5C457,240.5,457,240.5,457,240.5L457,240.5
		C457,240.5,457,240.5,457,240.5z M447.3,316.6c-6.9,8-10.1,18.7-8.8,29.2l4.2,35.7l-25.9-13.5c-5.3-2.8-11.2-4.2-17-4.2
		c-5.8,0-11.6,1.4-16.9,4.2l-26,13.5l4.2-35.6c1.2-10.5-2-21.1-8.9-29.2L328,288.6l32.6-6.7c0.1,0,0.1,0,0.2,0
		c11.2-2.4,20.5-9.7,25.6-20l13.7-27.6l13.7,27.7h0c5.1,10.3,14.4,17.6,25.6,20c0.1,0,0.1,0,0.2,0l32.1,6.6L447.3,316.6z"/>
</g>
</svg>
