<?xml version="1.0" encoding="utf-8"?>
<!-- Generator: Adobe Illustrator 25.2.3, SVG Export Plug-In . SVG Version: 6.00 Build 0)  -->
<svg version="1.1" id="Capa_1" xmlns="http://www.w3.org/2000/svg" xmlns:xlink="http://www.w3.org/1999/xlink" x="0px" y="0px"
	 viewBox="0 0 800 800" style="enable-background:new 0 0 800 800;" xml:space="preserve">
<g>
	<path d="M433.3,733.3h-66.7c-18.4,0-33.3-14.9-33.3-33.3s14.9-33.3,33.3-33.3h66.7c18.4,0,33.3,14.9,33.3,33.3
		S451.7,733.3,433.3,733.3z M588.7,633.3H211.3c-33.3,0-62.4-18.9-76-49.2c-13.6-30.3-8.4-64.6,13.7-89.5l42.5-47.8
		c5.4-6.1,8.4-14,8.4-22.1l0-74.7c0-98.9,72.2-181.3,166.7-197.2V100c0-18.4,14.9-33.3,33.3-33.3s33.3,14.9,33.3,33.3v52.8
		C527.8,168.7,600,251.1,600,350v74.7c0,8.2,3,16,8.4,22.1l42.5,47.8c22.1,24.9,27.4,59.2,13.7,89.5
		C651.1,614.5,621.9,633.3,588.7,633.3z M400,216.7c-73.5,0-133.3,59.8-133.3,133.3l0,74.7c0,24.5-9,48.1-25.3,66.4l-42.5,47.8
		c-6.5,7.3-4.1,14.9-2.7,17.9c1.3,3,5.5,9.8,15.2,9.8h377.3c9.7,0,13.9-6.9,15.2-9.8c1.3-3,3.7-10.6-2.7-17.9l-42.5-47.8
		c-16.3-18.3-25.3-41.9-25.3-66.4V350C533.3,276.5,473.5,216.7,400,216.7z"/>
</g>
</svg>
