<svg xmlns="http://www.w3.org/2000/svg" width="20.7383" height="25.4878" viewBox="0 0 20.7383 25.4878"><path d="M7.05,26.7441a3.4291,3.4291,0,0,1-3.4194-3.4248V4.6782A3.4259,3.4259,0,0,1,7.0527,1.2563H20.9473a3.4259,3.4259,0,0,1,3.4218,3.4219V23.3193a3.4221,3.4221,0,0,1-4.9443,3.0645L14.38,23.8779a.8576.8576,0,0,0-.7593-.0009L8.5747,26.3838A3.43,3.43,0,0,1,7.05,26.7441ZM14,21.2227a3.4175,3.4175,0,0,1,1.5225.3554l5.0449,2.5059a.854.854,0,0,0,1.2334-.7647V4.6782a.8544.8544,0,0,0-.8535-.8535H7.0527a.8544.8544,0,0,0-.8535.8535V23.3193a.8535.8535,0,0,0,1.2329.7647l5.0454-2.5069A3.43,3.43,0,0,1,14,21.2227Z" transform="translate(-3.6309 -1.2563)"/></svg>