<?xml version="1.0" encoding="utf-8"?>
<!-- Generator: Adobe Illustrator 25.2.3, SVG Export Plug-In . SVG Version: 6.00 Build 0)  -->
<svg version="1.1" id="Layer_1" xmlns="http://www.w3.org/2000/svg" xmlns:xlink="http://www.w3.org/1999/xlink" x="0px" y="0px"
	 viewBox="0 0 512 512" style="enable-background:new 0 0 512 512;" xml:space="preserve">
<path d="M512,234.7c0-33.5-16-64.9-42.7-84.9c0-40.5-28.4-74.9-66.1-83.6C394.5,28.4,360.5,0,320,0c-25.4,0-48.4,11.3-64,29
	c-15.6-17.7-38.6-29-64-29c-40.5,0-74.5,28.4-83.2,66.1c-37.8,8.7-66.1,43.1-66.1,83.6C16,169.8,0,201.2,0,234.7
	c0,19,5.1,37.1,14.7,53.3C5.1,304.2,0,322.3,0,341.3c0,36.1,18.3,69.1,48.4,89C63.8,478.9,108.4,512,160,512
	c39.7,0,74.7-19.8,96-49.9c21.3,30.1,56.3,49.9,96,49.9c51.6,0,96.2-33.3,111.6-81.7c30.1-19.6,48.4-52.9,48.4-89
	c0-19-5.1-37.1-14.7-53.3C506.9,271.8,512,253.7,512,234.7z M234.7,394.7c0,41.2-33.5,74.7-74.7,74.7c-34.8,0-64.6-23.9-72.5-57.8
	c-1.3-6-5.3-11.1-10.7-14.1c-20.9-11.3-34.1-32.9-34.1-56.1c0-14.3,4.9-28.2,14.5-39.9c6.4-7.9,6.4-19,0-26.9
	c-9.4-11.7-14.5-25.6-14.5-39.9c0-22.8,12.6-44.2,32.9-55.5c7.9-4.5,12.2-13.4,10.5-22.4c-0.4-2.3-0.9-4.9-0.9-7.5
	c0-23.5,19.2-42.7,42.7-42.7c11.7,0,21.3-9.6,21.3-21.3c0-23.5,19.2-42.7,42.7-42.7s42.7,19.2,42.7,42.7v309.3H234.7z M454.8,301.4
	c9.4,11.7,14.5,25.6,14.5,39.9c0,23.5-13,44.8-34.1,56.1c-5.3,3-9.4,8.1-10.7,14.1c-7.9,34.1-37.8,57.8-72.5,57.8
	c-41.2,0-74.7-33.5-74.7-74.7V85.3c0-23.5,19.2-42.7,42.7-42.7s42.7,19.2,42.7,42.7c0,11.7,9.6,21.3,21.3,21.3
	c23.5,0,42.7,19.2,42.7,42.7c0,2.6-0.4,5.1-0.9,7.5c-1.7,9,2.6,17.9,10.5,22.4c20.3,11.5,32.9,32.6,32.9,55.5
	c0,14.5-4.9,28.2-14.5,39.9c-6.4,7.9-6.4,19,0,26.9H454.8z"/>
</svg>
