<?xml version="1.0" encoding="utf-8"?>
<!-- Generator: Adobe Illustrator 25.2.3, SVG Export Plug-In . SVG Version: 6.00 Build 0)  -->
<svg version="1.1" id="Capa_1" xmlns="http://www.w3.org/2000/svg" xmlns:xlink="http://www.w3.org/1999/xlink" x="0px" y="0px"
	 viewBox="0 0 28 28" style="enable-background:new 0 0 28 28;" xml:space="preserve">
<g>
	<g>
		<path d="M14,24.6c-2.7,0-5.5-1.1-8.2-3.2c-2.2-1.7-3.9-3.7-5-5.1C0.3,15.5,0,14.8,0,14c0-0.8,0.3-1.5,0.7-2.2
			c1.1-1.4,2.8-3.4,5-5.1c2.8-2.2,5.5-3.2,8.2-3.2c2.7,0,5.5,1.1,8.2,3.2c2.2,1.7,3.9,3.7,5,5.1c0,0,0,0,0,0
			c0.5,0.6,0.7,1.4,0.7,2.2c0,0.8-0.3,1.5-0.7,2.2c-1.1,1.4-2.8,3.4-5,5.1C19.5,23.5,16.7,24.6,14,24.6z M14,6.1
			c-5,0-9.5,5.1-11.2,7.3c-0.3,0.3-0.3,0.8,0,1.1C4.5,16.8,9,21.9,14,21.9c5,0,9.5-5.1,11.2-7.3c0.3-0.3,0.3-0.8,0-1.1l0,0
			C23.5,11.2,19,6.1,14,6.1z"/>
	</g>
	<g>
		<path d="M14,19.3c-2.9,0-5.3-2.4-5.3-5.3c0-2.9,2.4-5.3,5.3-5.3c2.9,0,5.3,2.4,5.3,5.3C19.3,16.9,16.9,19.3,14,19.3z M14,11.4
			c-1.5,0-2.6,1.2-2.6,2.6s1.2,2.6,2.6,2.6s2.6-1.2,2.6-2.6S15.5,11.4,14,11.4z"/>
	</g>
</g>
</svg>
