<?xml version="1.0" encoding="utf-8"?>
<!-- Generator: Adobe Illustrator 25.2.3, SVG Export Plug-In . SVG Version: 6.00 Build 0)  -->
<svg version="1.1" id="Capa_1" xmlns="http://www.w3.org/2000/svg" xmlns:xlink="http://www.w3.org/1999/xlink" x="0px" y="0px"
	 viewBox="0 0 28 28" style="enable-background:new 0 0 28 28;" xml:space="preserve">
<g>
	<path d="M17.8,11.2h-2.5V8.6c0-0.7-0.6-1.3-1.3-1.3c-0.7,0-1.3,0.6-1.3,1.3v2.5h-2.5c-0.7,0-1.3,0.6-1.3,1.3c0,0.7,0.6,1.3,1.3,1.3
		h2.5v2.5c0,0.7,0.6,1.3,1.3,1.3c0.7,0,1.3-0.6,1.3-1.3v-2.5h2.5c0.7,0,1.3-0.6,1.3-1.3C19.1,11.7,18.5,11.2,17.8,11.2z"/>
	<path d="M27.8,6.7c-0.2-1.7-0.7-2.9-1.7-3.8c-0.9-0.9-2.1-1.4-3.8-1.7C20.8,1,19,1,16.5,1h-5.1C9,1,7.2,1,5.7,1.2
		C4,1.4,2.8,1.9,1.9,2.8C0.9,3.8,0.4,4.9,0.2,6.7C0,8.1,0,9.9,0,12.4s0,4.3,0.2,5.8c0.2,1.7,0.7,2.9,1.7,3.8c0.9,0.9,2,1.4,3.6,1.6
		c0,0.2,0,0.5,0,0.7c0,0.5,0,1.7,1,2.4C6.9,26.9,7.3,27,7.7,27c0.5,0,1.1-0.2,1.5-0.3c0.8-0.3,1.7-0.8,3.1-1.5
		c1.7-0.9,3.1-1.3,4.3-1.3c2.5,0,4.3,0,5.8-0.2c1.7-0.2,2.9-0.7,3.8-1.7c0.9-0.9,1.4-2.1,1.7-3.8c0.2-1.5,0.2-3.3,0.2-5.8
		S28,8.1,27.8,6.7z M24.3,20.2c-1.1,1.1-3.3,1.1-7.8,1.1c-1.6,0-3.4,0.5-5.5,1.6c-1,0.5-1.8,0.9-2.4,1.2c-0.3,0.1-0.5,0.2-0.6,0.3
		c0-0.1,0-0.3,0-0.6c0-0.6,0.1-1.4,0.2-2.4l0.1-0.6c0.1-0.7-0.5-1.3-1.2-1.4c-0.7-0.1-1.3,0.5-1.4,1.2l0,0.5c-1-0.2-1.6-0.4-2-0.9
		c-1.1-1.1-1.1-3.3-1.1-7.8c0-4.4,0-6.7,1.1-7.8C4.8,3.5,7,3.5,11.5,3.5h5.1c4.4,0,6.7,0,7.8,1.1c1.1,1.1,1.1,3.3,1.1,7.8
		C25.5,16.9,25.5,19.1,24.3,20.2z"/>
</g>
</svg>
