<?xml version="1.0" encoding="utf-8"?>
<!-- Generator: Adobe Illustrator 25.2.3, SVG Export Plug-In . SVG Version: 6.00 Build 0)  -->
<svg version="1.1" id="Capa_1" xmlns="http://www.w3.org/2000/svg" xmlns:xlink="http://www.w3.org/1999/xlink" x="0px" y="0px"
	 viewBox="0 0 691.5 420.8" style="enable-background:new 0 0 691.5 420.8;" xml:space="preserve">
<style type="text/css">
	.st0{fill:#EBEBEB;}
	.st1{fill:#E0E0E0;}
	.st2{display:none;}
	.st3{display:inline;fill:#EBEBEB;}
	.st4{display:inline;}
	.st5{fill:#E86E75;}
	.st6{opacity:0.8;}
	.st7{fill:#FFFFFF;}
	.st8{opacity:0.8;fill:#FFFFFF;enable-background:new    ;}
	.st9{opacity:0.4;}
	.st10{fill:#455A64;}
	.st11{fill:#263238;}
	.st12{fill:#FFBE9D;}
	.st13{fill:#EB996E;}
	.st14{opacity:0.3;}
</style>
<g id="Background_Complete">
	<g>
		<path class="st0" d="M433.6,408c4.8-2.7,10.9-2.8,15.8-0.3s8.3,7.6,8.9,13.1C448.2,420.8,438.3,418.4,433.6,408"/>
		<g>
			<path class="st0" d="M445.4,397.6c6.8,2.2,14.6,0.8,20.1-3.6c5.6-4.4,8.7-11.8,8-18.8C460.7,377.7,448.7,383.1,445.4,397.6"/>
			<g>
				<path class="st1" d="M401.4,414.7c0,0,0.2-0.1,0.6-0.3c0.5-0.2,1.1-0.4,1.8-0.6c1.6-0.5,3.9-1.3,6.8-2.3c5.7-2,13.5-4.8,22-8.5
					c4.2-1.9,8.2-3.7,11.7-5.5s6.7-3.6,9.2-5.2s4.6-3,5.9-4s2-1.7,2-1.7s-0.1,0.2-0.5,0.5c-0.3,0.3-0.8,0.8-1.4,1.3
					c-1.3,1.1-3.3,2.5-5.8,4.2c-2.6,1.6-5.7,3.4-9.2,5.3c-3.6,1.8-7.5,3.7-11.7,5.6c-8.5,3.7-16.3,6.5-22.1,8.4
					c-2.9,0.9-5.2,1.7-6.8,2.1c-0.8,0.2-1.4,0.4-1.9,0.5C401.6,414.7,401.4,414.7,401.4,414.7z"/>
			</g>
		</g>
		<g>
			<path class="st1" d="M446.6,413.8c-0.1,0.1-1.2-0.7-3.2-1.8c-2-1.1-4.9-2.4-8.3-3.3s-6.5-1.3-8.8-1.4s-3.7,0-3.7-0.1
				c0,0,0.3-0.1,1-0.2c0.6-0.1,1.6-0.1,2.7-0.1c2.3,0,5.5,0.3,8.9,1.2c3.4,0.9,6.3,2.3,8.3,3.5c1,0.6,1.8,1.1,2.3,1.5
				C446.3,413.6,446.6,413.8,446.6,413.8z"/>
		</g>
	</g>
	<g>
		<path class="st0" d="M208.3,368.9c-2.4,6.5-1.4,14.2,2.7,19.8c4.1,5.6,11.1,8.9,18,8.6C227.1,384.6,222.3,372.7,208.3,368.9"/>
		<g>
			<path class="st1" d="M206.4,362.7c0.1,0,0.4,1.4,1.2,3.6c0.7,2.2,1.9,5.2,3.6,8.3c1.7,3.1,3.5,5.7,4.9,7.5s2.4,2.9,2.3,2.9
				c0,0-0.3-0.2-0.8-0.7s-1.1-1.1-1.9-2c-1.5-1.8-3.4-4.4-5.1-7.5s-2.8-6.2-3.4-8.4c-0.3-1.1-0.5-2-0.7-2.7
				C206.4,363.1,206.3,362.7,206.4,362.7z"/>
		</g>
	</g>
	<g>
		<path class="st0" d="M8.5,116.5c-3.8,10-2.1,21.9,4.2,30.6s17.2,13.8,27.9,13.3C37.6,141,30.1,122.5,8.5,116.5"/>
		<g>
			<path class="st1" d="M5.4,107c0,0,0.2,0.5,0.5,1.5s0.7,2.4,1.2,4.1c1.1,3.4,2.9,8,5.5,12.9c2.6,4.8,5.5,8.9,7.7,11.7
				c1.1,1.4,2,2.5,2.7,3.3s1,1.2,1,1.2s-0.4-0.4-1.1-1.1c-0.7-0.7-1.7-1.8-2.8-3.2c-2.3-2.8-5.3-6.8-7.9-11.7
				c-2.6-4.9-4.4-9.5-5.4-13c-0.5-1.7-0.9-3.1-1.1-4.1C5.5,107.5,5.4,107,5.4,107z"/>
		</g>
	</g>
	<g>
		<path class="st0" d="M42.3,315.6c-5.4,4.3-8.4,11.5-7.7,18.4c0.7,6.9,5,13.3,11.1,16.6C50.4,338.7,52.3,326,42.3,315.6"/>
		<g>
			<path class="st1" d="M43.7,309.3c0.1,0-0.3,1.4-0.8,3.7c-0.5,2.3-1,5.4-1.2,8.9c-0.1,3.5,0.1,6.7,0.4,9s0.6,3.7,0.5,3.7
				c0,0-0.1-0.3-0.3-1c-0.2-0.6-0.4-1.5-0.6-2.7c-0.4-2.3-0.7-5.5-0.6-9.1c0.2-3.6,0.7-6.7,1.3-9c0.3-1.1,0.6-2,0.8-2.6
				C43.5,309.6,43.7,309.3,43.7,309.3z"/>
		</g>
	</g>
	<g>
		<path class="st0" d="M227.9,62.7c6.2,3.1,14,2.8,19.9-0.7c6-3.5,10-10.1,10.4-17C245.5,45.7,233.1,49.2,227.9,62.7"/>
		<g>
			<path class="st1" d="M221.5,64.1c0-0.1,1.4-0.3,3.7-0.8c2.3-0.5,5.3-1.3,8.6-2.7c3.3-1.3,6.1-2.9,8-4.1c2-1.2,3.1-2.1,3.2-2
				c0,0-0.2,0.3-0.7,0.7c-0.5,0.4-1.3,1-2.2,1.6c-1.9,1.3-4.7,2.9-8,4.3c-3.3,1.3-6.4,2.2-8.7,2.6c-1.1,0.2-2.1,0.3-2.7,0.4
				C221.9,64.1,221.5,64.1,221.5,64.1z"/>
		</g>
	</g>
	<g>
		<path class="st0" d="M201.9,60.9c8.9-1.9,16.7-8.6,20-17.1c3.3-8.5,2-18.7-3.3-26.1C206.1,28.8,196.2,42.7,201.9,60.9"/>
		<g>
			<path class="st1" d="M196.5,67.5c0,0,0.3-0.4,0.8-1c0.6-0.6,1.4-1.6,2.3-2.8c1.9-2.4,4.4-5.8,6.7-9.8c2.3-4.1,3.9-8,4.8-10.9
				c0.5-1.4,0.9-2.6,1.1-3.4c0.2-0.8,0.4-1.3,0.4-1.3s-0.1,0.5-0.2,1.3c-0.2,0.8-0.5,2-1,3.5c-0.9,2.9-2.5,6.9-4.7,11
				c-2.3,4.1-4.8,7.5-6.9,9.8c-1,1.2-1.9,2.1-2.5,2.7C196.9,67.2,196.5,67.5,196.5,67.5z"/>
		</g>
	</g>
	<g>
		<path class="st0" d="M284,403.5c1.9,3.7,5.7,6.4,9.9,6.9c4.1,0.5,8.5-1.3,11.1-4.5C298.6,401.6,291.3,398.8,284,403.5"/>
		<g>
			<path class="st1" d="M280.4,401.8c0.1-0.1,3.1,1.6,7.2,2.6c4.1,1.1,7.6,1,7.6,1.1s-0.9,0.2-2.3,0.1c-1.4,0-3.4-0.2-5.4-0.8
				c-2.1-0.5-3.9-1.3-5.1-1.9C281.1,402.4,280.4,401.9,280.4,401.8z"/>
		</g>
	</g>
	<g>
		<path class="st0" d="M376.7,44.4c2.6,3.3,6.8,5.2,11,4.8c4.2-0.3,8.1-2.9,10.1-6.6C390.7,39.7,383,38.5,376.7,44.4"/>
		<g>
			<path class="st1" d="M372.9,43.5c0-0.2,3.3,1,7.6,1.2c4.2,0.3,7.6-0.5,7.7-0.3c0,0.1-0.8,0.3-2.2,0.6c-1.4,0.2-3.3,0.4-5.5,0.3
				c-2.1-0.1-4.1-0.5-5.4-0.9C373.7,43.9,372.9,43.6,372.9,43.5z"/>
		</g>
	</g>
	<g>
		<path class="st0" d="M616.9,75.2c6.7,1.8,14.2,0.1,19.4-4.5s7.9-11.8,6.9-18.7C630.9,55.1,619.5,61,616.9,75.2"/>
		<g>
			<path class="st1" d="M610.9,77.7c0-0.1,1.3-0.5,3.5-1.5c2.1-0.9,5-2.3,7.9-4.3c2.9-1.9,5.4-4,7.1-5.6c1.7-1.6,2.6-2.6,2.7-2.6
				c0,0-0.2,0.3-0.6,0.8c-0.4,0.5-1,1.2-1.9,2c-1.6,1.7-4.1,3.8-7,5.8c-3,2-5.9,3.3-8.1,4.2c-1.1,0.4-2,0.7-2.6,0.9
				C611.3,77.7,610.9,77.7,610.9,77.7z"/>
		</g>
	</g>
	<g>
		<path class="st0" d="M640.6,380c11.7-2.7,21.9-11.6,26-22.9c4.2-11.3,2.3-24.7-4.9-34.4C645.3,337.6,632.7,356.1,640.6,380"/>
		<g>
			<path class="st1" d="M633.5,388.8c0,0,0.4-0.5,1.1-1.4c0.7-0.8,1.8-2.1,3.1-3.7s2.7-3.5,4.2-5.7s3-4.7,4.5-7.4
				c1.4-2.7,2.7-5.4,3.7-7.8c1-2.5,1.8-4.7,2.4-6.6c0.6-1.9,1.1-3.5,1.4-4.6c0.3-1.1,0.5-1.7,0.5-1.7s-0.1,0.6-0.3,1.7
				s-0.6,2.7-1.2,4.6c-0.6,1.9-1.4,4.2-2.3,6.7c-1,2.5-2.2,5.2-3.7,7.9c-1.5,2.7-3,5.2-4.5,7.4c-1.5,2.2-3,4.1-4.3,5.7
				s-2.4,2.8-3.2,3.6C634,388.4,633.5,388.8,633.5,388.8z"/>
		</g>
	</g>
</g>
<g id="Background_Simple" class="st2">
	<path class="st3" d="M213.6,24.9c-7.9-6.5-20.9-5.5-27.9,2.1l0,0c-6,5.3-4.2,20.4,3.3,27.5c7.5,7,20.9,6,27.4-1.9
		C223,44.6,221.5,31.4,213.6,24.9z"/>
	<path class="st3" d="M394.8,38.7c8.3,3.4,17.2-4.5,26.1-3.6c4.5,0.5,8.5,3.2,12.7,4.9c4.2,1.7,12.6,2.2,14.3-3.5
		c3.9-6.9-2.5-15.1-8.6-19.8s-17.1-6.2-24.8-6.6c-5.5-0.3-11.2,0.2-16.2,2.6c-5,2.4-9.2,6.8-10.3,12.3
		C387,30.4,389.7,36.6,394.8,38.7z"/>
	<g class="st4">
		<ellipse class="st0" cx="89.7" cy="100.3" rx="47.7" ry="47.7"/>
	</g>
	<g class="st4">
		<path class="st0" d="M161.9,323.9c-18.1-22-37.7-34.1-55.9-35.7c-19.5-1.3-40.7,6.8-50.4,23.8s-3.3,42.6,15,49.4
			c7.5,2.8,16.2,2.5,23.1,6.6c10.7,6.5,12.9,21.1,21,30.7c10,11.7,28.8,13.7,42.1,6.1c13.4-7.6,21.1-23.3,21.2-38.7
			C178.3,350.7,171.7,335.8,161.9,323.9z"/>
	</g>
	<g class="st4">
		
			<ellipse transform="matrix(0.9998 -2.218984e-02 2.218984e-02 0.9998 -4.9801 14.3058)" class="st0" cx="642.1" cy="231.6" rx="49.4" ry="49.4"/>
	</g>
</g>
<g id="Capa_8">
	<g>
		<path class="st5" d="M504.8,253.9c-6.3-35.2-36.6-66-72.3-68.9c-19.4-1.6-39,4.5-58.4,2.2c-16.3-2-31.7-10.1-42.5-22.4
			c-16-18.2-21.4-44.1-38.3-61.4c-23.3-23.9-64.1-24.3-92.5-6.7s-45.6,49.3-53.4,81.7l-0.3,9.9c-1.7,33.7,7.1,72.8,26.7,102.8
			c19.8,30.4,32.8,42.9,68.9,64.8c30.6,18.6,90.6,26.7,126.4,27.6s72.6-9.8,99.5-33.4C495.5,326.4,511.1,289.1,504.8,253.9z"/>
		<g class="st6">
			<path class="st7" d="M504.8,253.9c-6.3-35.2-36.6-66-72.3-68.9c-19.4-1.6-39,4.5-58.4,2.2c-16.3-2-31.7-10.1-42.5-22.4
				c-16-18.2-21.4-44.1-38.3-61.4c-23.3-23.9-64.1-24.3-92.5-6.7s-45.6,49.3-53.4,81.7l-0.3,9.9c-1.7,33.7,7.1,72.8,26.7,102.8
				c19.8,30.4,32.8,42.9,68.9,64.8c30.6,18.6,90.6,26.7,126.4,27.6s72.6-9.8,99.5-33.4C495.5,326.4,511.1,289.1,504.8,253.9z"/>
		</g>
	</g>
	<g>
		<ellipse class="st5" cx="522.8" cy="377.3" rx="17.3" ry="17.3"/>
		<ellipse class="st8" cx="522.8" cy="377.3" rx="17.3" ry="17.3"/>
	</g>
</g>
<g id="_x34_04">
	<g>
		<g>
			<path class="st5" d="M401.8,244.6c0.3,34.4-7.2,60.8-22.5,79s-36.4,27.4-63,27.7c-26.8,0.3-48.1-8.6-63.9-26.5
				s-23.9-44.1-24.2-78.5l-0.6-60.6c-0.3-34.3,7.2-60.6,22.5-79c15.3-18.3,36.4-27.6,63.2-27.9c26.7-0.3,47.9,8.6,63.7,26.7
				c15.8,18,23.9,44.2,24.2,78.5L401.8,244.6z M356.9,177.6c-0.2-21.7-4-37.7-11.4-48s-18-15.5-32-15.3
				c-13.9,0.1-24.5,5.4-31.6,15.9s-10.6,26.6-10.4,48.3l0.7,73.6c0.2,21.8,4,37.9,11.5,48.3c7.4,10.4,18.1,15.5,32.1,15.4
				c13.9-0.1,24.4-5.4,31.5-15.9s10.5-26.7,10.3-48.6L356.9,177.6z"/>
		</g>
		<g class="st9">
			<path d="M401.8,244.6c0.3,34.4-7.2,60.8-22.5,79s-36.4,27.4-63,27.7c-26.8,0.3-48.1-8.6-63.9-26.5s-23.9-44.1-24.2-78.5
				l-0.6-60.6c-0.3-34.3,7.2-60.6,22.5-79c15.3-18.3,36.4-27.6,63.2-27.9c26.7-0.3,47.9,8.6,63.7,26.7c15.8,18,23.9,44.2,24.2,78.5
				L401.8,244.6z M356.9,177.6c-0.2-21.7-4-37.7-11.4-48s-18-15.5-32-15.3c-13.9,0.1-24.5,5.4-31.6,15.9s-10.6,26.6-10.4,48.3
				l0.7,73.6c0.2,21.8,4,37.9,11.5,48.3c7.4,10.4,18.1,15.5,32.1,15.4c13.9-0.1,24.4-5.4,31.5-15.9s10.5-26.7,10.3-48.6L356.9,177.6
				z"/>
		</g>
		<g>
			<path class="st5" d="M427.2,244.3c0.3,34.4-7.2,60.8-22.5,79s-36.4,27.4-63,27.7c-26.8,0.3-48.1-8.6-63.9-26.5
				s-23.9-44.1-24.2-78.5l-0.6-60.6c-0.3-34.3,7.2-60.6,22.5-79c15.3-18.3,36.4-27.6,63.2-27.9c26.7-0.3,47.9,8.6,63.7,26.7
				c15.8,18,23.9,44.2,24.2,78.5L427.2,244.3z M382.4,177.4c-0.2-21.7-4-37.7-11.4-48s-18-15.5-32-15.3
				c-13.9,0.1-24.5,5.4-31.6,15.9s-10.6,26.6-10.4,48.3l0.7,73.6c0.2,21.8,4,37.9,11.5,48.3c7.4,10.4,18.1,15.5,32.1,15.4
				c13.9-0.1,24.4-5.4,31.5-15.9s10.5-26.7,10.3-48.6L382.4,177.4z"/>
		</g>
		<g>
			<path class="st5" d="M253.2,189c0.1,0.1-5.9,2.5-13.2,5.2c-7.3,2.8-13.3,4.9-13.4,4.8c-0.1-0.1,5.9-2.5,13.2-5.2
				C247.1,191,253.1,188.9,253.2,189z"/>
		</g>
		<g>
			<path class="st5" d="M254.6,212.9c0.1,0.1-5.9,2.5-13.2,5.2c-7.3,2.8-13.3,4.9-13.4,4.8s5.9-2.5,13.2-5.2
				C248.6,214.9,254.6,212.8,254.6,212.9z"/>
		</g>
		<g>
			<path class="st5" d="M256.1,236.9c0.1,0.1-5.9,2.5-13.2,5.2c-7.3,2.8-13.3,4.9-13.4,4.8s5.9-2.5,13.2-5.2
				C250,238.9,256,236.7,256.1,236.9z"/>
		</g>
		<g>
			<path class="st5" d="M257.6,260.8c0.1,0.1-5.9,2.5-13.2,5.2c-7.3,2.8-13.3,4.9-13.4,4.8s5.9-2.5,13.2-5.2
				C251.5,262.8,257.5,260.7,257.6,260.8z"/>
		</g>
		<g>
			<path class="st5" d="M259,284.7c0,0-0.3,0.2-0.9,0.5s-1.5,0.6-2.6,1.1c-2.2,0.9-5.2,2-8.5,3.3s-6.4,2.4-8.6,3.1
				c-1.1,0.4-2,0.7-2.6,0.9c-0.6,0.2-1,0.3-1,0.3s0.3-0.2,0.9-0.5s1.5-0.6,2.6-1.1c2.2-0.9,5.2-2,8.5-3.3s6.4-2.4,8.6-3.1
				c1.1-0.4,2-0.7,2.6-0.9C258.7,284.8,259,284.7,259,284.7z"/>
		</g>
		<g>
			<path class="st5" d="M265.9,306.6c0,0.1-1.1,0.6-3,1.3c-1.9,0.8-4.5,1.8-7.4,2.9s-5.6,2.1-7.5,2.7c-1.9,0.7-3.1,1.1-3.2,1
				c0-0.1,1.1-0.6,3-1.3c1.9-0.8,4.5-1.8,7.4-2.9s5.6-2.1,7.5-2.7C264.6,306.9,265.8,306.6,265.9,306.6z"/>
		</g>
		<g>
			<path class="st5" d="M280.5,326.7c0,0.1-1,0.5-2.7,1.2s-4,1.6-6.6,2.6s-5,1.8-6.7,2.4s-2.8,0.9-2.8,0.9c0-0.1,1-0.5,2.7-1.2
				s4-1.6,6.6-2.6s5-1.8,6.7-2.4C279.4,327,280.5,326.6,280.5,326.7z"/>
		</g>
		<g>
			<path class="st5" d="M304.8,339.9c0,0.1-1,0.5-2.7,1.2s-4,1.6-6.6,2.6s-5,1.8-6.7,2.4S286,347,286,347c0-0.1,1-0.5,2.7-1.2
				s4-1.6,6.6-2.6s5-1.8,6.7-2.4C303.7,340.1,304.8,339.8,304.8,339.9z"/>
		</g>
		<g>
			<path class="st5" d="M378.1,288.8c0.1,0.1-7.5,3.7-17,7.9c-9.4,4.2-17.1,7.6-17.2,7.4c-0.1-0.1,7.5-3.7,17-7.9
				C370.4,292,378.1,288.7,378.1,288.8z"/>
		</g>
		<g>
			<path class="st5" d="M383.1,268.3c0.1,0.1-6.2,3.1-14,6.6s-14.2,6.2-14.2,6.1c-0.1-0.1,6.2-3.1,14-6.6
				C376.7,270.9,383,268.2,383.1,268.3z"/>
		</g>
		<g>
			<path class="st5" d="M385.4,245.3c0.1,0.1-6.2,3.1-14,6.6s-14.2,6.2-14.2,6.1c-0.1-0.1,6.2-3.1,14-6.6
				C379,247.9,385.3,245.1,385.4,245.3z"/>
		</g>
		<g>
			<path class="st5" d="M387.7,222.2c0.1,0.1-6.2,3.1-14,6.6s-14.2,6.2-14.2,6.1c-0.1-0.1,6.2-3.1,14-6.6
				C381.3,224.8,387.6,222.1,387.7,222.2z"/>
		</g>
		<g>
			<path class="st5" d="M390,199.2c0.1,0.1-6.2,3.1-14,6.6s-14.2,6.2-14.2,6.1c-0.1-0.1,6.2-3.1,14-6.6
				C383.6,201.8,389.9,199.1,390,199.2z"/>
		</g>
		<g>
			<path class="st5" d="M385.4,178.7c0.1,0.1-6.2,3.1-14,6.6s-14.2,6.2-14.2,6.1c-0.1-0.1,6.2-3.1,14-6.6
				C379,181.3,385.3,178.6,385.4,178.7z"/>
		</g>
		<g>
			<path class="st5" d="M385.4,156.6c0.1,0.1-6.2,3.1-14,6.6s-14.2,6.2-14.2,6.1c-0.1-0.1,6.2-3.1,14-6.6
				C379,159.2,385.3,156.5,385.4,156.6z"/>
		</g>
		<g>
			<path class="st5" d="M383.1,135.8c0.1,0.1-6.2,3.1-14,6.6s-14.2,6.2-14.2,6.1c-0.1-0.1,6.2-3.1,14-6.6
				C376.7,138.4,383,135.7,383.1,135.8z"/>
		</g>
		<g>
			<path class="st5" d="M363.3,121.3c0.1,0.1-3.7,2-8.5,4.1c-4.7,2.1-8.6,3.8-8.7,3.6c-0.1-0.1,3.7-2,8.5-4.1
				S363.3,121.2,363.3,121.3z"/>
		</g>
		<g>
			<path class="st5" d="M352.8,112.5c0.1,0.1-3.7,2-8.5,4.1c-4.7,2.1-8.6,3.7-8.7,3.6c-0.1-0.1,3.7-2,8.5-4.1
				C348.8,114,352.7,112.3,352.8,112.5z"/>
		</g>
		<g>
			<path class="st5" d="M254.3,160c0.1,0.1-5.9,2.5-13.2,5.2c-7.3,2.8-13.3,4.9-13.4,4.8s5.9-2.5,13.2-5.2
				C248.2,162,254.2,159.9,254.3,160z"/>
		</g>
		<g>
			<path class="st5" d="M261.6,130.2c0.1,0.1-6.4,2.7-14.3,5.7c-8,3-14.5,5.3-14.5,5.2c-0.1-0.1,6.4-2.7,14.3-5.7
				C255.1,132.3,261.6,130,261.6,130.2z"/>
		</g>
		<g>
			<path class="st5" d="M280.9,100.6c0.1,0.1-8.1,3.3-18.2,7.1s-18.3,6.7-18.3,6.6c-0.1-0.1,8.1-3.3,18.2-7.1
				C272.6,103.5,280.8,100.5,280.9,100.6z"/>
		</g>
		<g>
			<path class="st7" d="M422.9,289.1c0,0-0.1,0-0.4-0.1s-0.7-0.3-1.2-0.5s-1.2-0.3-2-0.6c-0.8-0.1-1.8-0.3-2.8-0.3
				c-4.3-0.3-10.7,1.3-16.9,5.9c-3.1,2.2-6.1,5.3-8.9,8.8c-2.9,3.5-5.7,7.5-8.9,11.5c-3.2,4-6.9,8-11.5,11.2
				c-4.6,3.1-10.1,5.4-15.9,6.5s-11.8,0.8-17.2-0.6c-5.4-1.3-10.4-3.4-15.1-5.6c-4.6-2.2-9-4.3-13.1-6.2c-4.1-1.8-8.2-3.2-11.9-4.1
				c-3.8-0.9-7.2-1.2-10.3-1.2c-3.1,0-5.7,0.5-7.8,1.1c-2.1,0.6-3.6,1.3-4.6,1.8c-0.5,0.3-0.9,0.5-1.1,0.6c-0.3,0.1-0.4,0.2-0.4,0.2
				s0.1-0.1,0.4-0.2c0.3-0.2,0.6-0.4,1.1-0.7c1-0.6,2.5-1.2,4.6-1.9c2.1-0.6,4.7-1.1,7.8-1.2c3.1-0.1,6.6,0.3,10.4,1.1
				c3.8,0.9,7.8,2.2,12,4s8.5,4,13.2,6.1c4.6,2.1,9.6,4.2,15,5.5s11.2,1.6,17,0.6s11.2-3.3,15.7-6.4c4.6-3.1,8.2-7.1,11.4-11
				c3.2-4,6-7.9,8.9-11.5c2.9-3.5,5.9-6.6,9-8.9c6.3-4.6,12.8-6.2,17.1-5.8c1.1,0,2,0.3,2.9,0.4c0.8,0.2,1.5,0.4,2,0.6
				s0.9,0.4,1.2,0.5C422.8,289.1,422.9,289.1,422.9,289.1z"/>
		</g>
		<g>
			<path class="st7" d="M429.2,222.4c0,0.1-0.7,0.1-1.9,0.6c-1.2,0.4-2.9,1.2-4.8,2.6c-1.9,1.3-4,3.2-6.4,5.1s-5.4,3.7-8.6,5.3
				c-6.5,3.1-13,4.3-17.7,4.6c-1.2,0.1-2.2,0.1-3.2,0.1c-0.9,0-1.7-0.1-2.4-0.1c-0.6-0.1-1.1-0.1-1.5-0.2c-0.3,0-0.5-0.1-0.5-0.1
				s0.2,0,0.5,0c0.4,0,0.9,0,1.5,0.1c0.7,0,1.5,0,2.4,0s2,0,3.1-0.2c4.6-0.3,11.1-1.6,17.5-4.7c3.2-1.5,6.1-3.3,8.5-5.2
				c2.4-1.9,4.5-3.7,6.5-5c1.9-1.3,3.7-2.1,5-2.5c0.6-0.2,1.1-0.3,1.5-0.3C429,222.4,429.2,222.4,429.2,222.4z"/>
		</g>
		<g>
			<path class="st7" d="M298.6,245.6c0,0-0.2,0-0.5-0.1c-0.4-0.1-0.9-0.2-1.6-0.3c-1.3-0.4-3.2-1.1-5.4-2.3c-2.1-1.2-4.5-3-7-5.1
				s-5.2-4.4-8.3-6.6c-3.1-2.1-6.3-3.6-9.5-4.3c-3.1-0.8-6.1-0.9-8.5-0.8s-4.4,0.5-5.7,0.9c-1.3,0.3-2,0.6-2.1,0.5
				c0,0,0.2-0.1,0.5-0.2s0.8-0.3,1.5-0.5c1.3-0.4,3.3-0.9,5.8-1c2.5-0.2,5.5-0.1,8.6,0.7c3.2,0.7,6.6,2.2,9.7,4.4
				c3.1,2.2,5.8,4.5,8.3,6.6s4.8,3.9,6.9,5.2c2.1,1.3,3.9,2,5.2,2.5C297.9,245.3,298.6,245.5,298.6,245.6z"/>
		</g>
		<g>
			<path class="st7" d="M298.8,151c0,0-0.6,0.2-1.7,0.6c-0.5,0.2-1.2,0.4-2,0.6c-0.8,0.2-1.7,0.5-2.7,0.6c-1,0.2-2.1,0.4-3.3,0.6
				c-1.2,0.2-2.5,0.3-3.8,0.4c-2.7,0.2-5.7,0.2-8.8-0.1c-3.1-0.3-6-0.9-8.7-1.5c-1.3-0.4-2.5-0.7-3.7-1.1c-1.1-0.4-2.2-0.8-3.1-1.2
				c-1-0.4-1.8-0.8-2.5-1.1s-1.4-0.7-1.9-1c-1-0.6-1.5-0.9-1.5-0.9s0.6,0.2,1.6,0.7c0.5,0.3,1.1,0.6,1.9,0.9
				c0.7,0.3,1.6,0.7,2.5,1.1c0.9,0.4,2,0.8,3.1,1.1c1.1,0.4,2.4,0.7,3.7,1.1c2.6,0.6,5.5,1.2,8.6,1.5s6,0.3,8.7,0.1
				c1.3-0.1,2.6-0.2,3.8-0.4c1.2-0.1,2.3-0.3,3.3-0.5s1.9-0.4,2.7-0.6c0.8-0.2,1.5-0.3,2-0.5C298.1,151.2,298.8,151,298.8,151z"/>
		</g>
		<g>
			<path class="st7" d="M423.5,150.8c0,0-0.2-0.1-0.4-0.2c-0.3-0.2-0.7-0.4-1.2-0.7s-1.1-0.7-1.9-1c-0.7-0.4-1.6-0.8-2.5-1.2
				c-0.5-0.2-1-0.4-1.5-0.6c-0.5-0.2-1.1-0.4-1.7-0.6c-1.1-0.4-2.4-0.7-3.7-1.1c-2.7-0.6-5.7-1-8.8-1c-3.2,0-6.2,0.3-8.8,0.9
				c-1.3,0.3-2.6,0.6-3.8,1c-0.6,0.2-1.1,0.3-1.7,0.5c-0.5,0.2-1,0.4-1.5,0.6c-1,0.3-1.8,0.8-2.6,1.1c-0.8,0.3-1.4,0.7-1.9,1
				s-0.9,0.5-1.2,0.6c-0.3,0.1-0.4,0.2-0.4,0.2s0.1-0.1,0.4-0.3s0.7-0.4,1.1-0.7c0.5-0.3,1.1-0.7,1.8-1.1c0.7-0.4,1.6-0.9,2.5-1.2
				c0.5-0.2,1-0.4,1.5-0.6c0.5-0.2,1.1-0.4,1.7-0.6c1.2-0.4,2.4-0.7,3.8-1c2.7-0.6,5.8-0.9,9-0.9s6.2,0.5,8.9,1.1
				c1.3,0.4,2.6,0.7,3.8,1.1c0.6,0.2,1.1,0.4,1.7,0.6c0.5,0.2,1,0.5,1.5,0.7c1,0.4,1.8,0.9,2.5,1.3c0.7,0.4,1.3,0.8,1.8,1.1
				c0.4,0.3,0.8,0.5,1.1,0.8C423.4,150.7,423.6,150.8,423.5,150.8z"/>
		</g>
		<g>
			<path class="st7" d="M362.4,82.9c0,0-0.2,0.2-0.7,0.4c-0.5,0.3-1.2,0.7-2.1,1.1c-1.8,1-4.5,2.4-7.9,4.1
				c-6.7,3.3-16.1,7.8-27.3,10.7c-5.6,1.4-11,2.1-16,2.2c-5,0.1-9.5-0.3-13.1-1.1c-3.7-0.8-6.6-1.8-8.5-2.6c-1-0.4-1.7-0.8-2.2-1
				s-0.8-0.4-0.7-0.4c0,0,0.3,0.1,0.8,0.3s1.2,0.6,2.2,0.9c1.9,0.8,4.8,1.7,8.5,2.4s8.1,1.1,13,1s10.3-0.9,15.9-2.2
				c11.1-2.8,20.5-7.3,27.2-10.5c3.3-1.6,6-3,8-3.9c0.9-0.4,1.6-0.8,2.2-1.1C362.1,83,362.4,82.8,362.4,82.9z"/>
		</g>
	</g>
	<g>
		<g>
			<path class="st5" d="M161.7,257.1l33.4,1.5l-1.5,35.4l-33.4-1.5l-2.6,58.9l-44-1.9l2.6-58.9l-113.6-5l0.1-27l121-173.8l45.4,2
				L161.7,257.1z M46.6,252.1l71,3.1l4.7-107.4l-1.1-0.4l-4,7.7L46.6,252.1z"/>
		</g>
		<g class="st9">
			<path d="M161.7,257.1l33.4,1.5l-1.5,35.4l-33.4-1.5l-2.6,58.9l-44-1.9l2.6-58.9l-113.6-5l0.1-27l121-173.8l45.4,2L161.7,257.1z
				 M46.6,252.1l71,3.1l4.7-107.4l-1.1-0.4l-4,7.7L46.6,252.1z"/>
		</g>
		<g>
			<path class="st5" d="M189.6,258.3l33.4,1.5l-1.5,35.4l-33.4-1.5l-2.6,58.9l-44-1.9l2.6-58.9l-113.6-5l0.1-27l121-173.7l45.4,2
				L189.6,258.3z M74.6,253.3l71,3.1l4.7-107.4l-1.1-0.4l-4,7.7L74.6,253.3z"/>
		</g>
		<g>
			<g>
				<path class="st5" d="M31.2,265c0,0-0.4,0.2-1.1,0.6c-0.7,0.4-1.7,0.9-3,1.5c-2.6,1.2-6.2,2.8-10.2,4.5s-7.7,3.1-10.3,4.1
					c-1.3,0.5-2.4,0.9-3.2,1.2c-0.8,0.3-1.2,0.4-1.2,0.4s0.4-0.2,1.1-0.5c0.8-0.4,1.9-0.8,3.1-1.3c2.7-1.1,6.3-2.6,10.3-4.3
					c3.9-1.7,7.5-3.2,10.2-4.4c1.2-0.5,2.3-1,3.1-1.3C30.8,265.1,31.2,265,31.2,265z"/>
			</g>
			<g>
				<path class="st5" d="M47.5,235.1c0,0-0.5,0.3-1.5,0.8s-2.4,1.2-4.2,2c-3.6,1.6-8.5,3.8-14,6.1c-5.5,2.3-10.5,4.4-14.2,5.8
					c-1.8,0.7-3.3,1.3-4.3,1.6c-1,0.4-1.6,0.6-1.6,0.5c0,0,0.5-0.3,1.5-0.7c1.1-0.5,2.5-1.1,4.3-1.8c3.7-1.5,8.6-3.6,14.1-5.9
					s10.4-4.4,14.1-6c1.7-0.7,3.2-1.4,4.3-1.8C46.9,235.3,47.5,235,47.5,235.1z"/>
			</g>
			<g>
				<path class="st5" d="M67.3,208.4c0,0-0.5,0.3-1.6,0.8c-1,0.5-2.5,1.2-4.4,2c-3.7,1.6-8.9,3.8-14.6,6.1s-11,4.4-14.8,5.8
					c-1.9,0.7-3.4,1.3-4.5,1.6c-1.1,0.4-1.7,0.6-1.7,0.5c0,0,0.6-0.3,1.6-0.7c1.1-0.5,2.6-1.1,4.5-1.8c3.8-1.5,9-3.6,14.7-5.9
					c5.7-2.3,10.9-4.4,14.7-6c1.8-0.7,3.3-1.4,4.5-1.8C66.7,208.6,67.3,208.3,67.3,208.4z"/>
			</g>
			<g>
				<path class="st5" d="M146.9,239.2c0,0-0.4,0.2-1.1,0.6c-0.7,0.3-1.8,0.8-3,1.4c-2.6,1.2-6.2,2.7-10.2,4.3c-4,1.6-7.7,3-10.3,4
					c-1.3,0.5-2.4,0.9-3.2,1.1s-1.2,0.4-1.2,0.3c0,0,0.4-0.2,1.1-0.5c0.8-0.3,1.9-0.8,3.1-1.3c2.7-1.1,6.3-2.5,10.3-4.1
					c3.9-1.6,7.5-3.1,10.2-4.2c1.2-0.5,2.3-0.9,3.1-1.3C146.5,239.3,146.9,239.2,146.9,239.2z"/>
			</g>
			<g>
				<path class="st5" d="M143.7,294.2c0,0-0.4,0.2-1.1,0.6c-0.7,0.3-1.7,0.8-2.9,1.4c-2.5,1.2-6,2.7-9.9,4.3c-3.9,1.6-7.4,3-10,4
					c-1.3,0.5-2.3,0.9-3.1,1.1c-0.7,0.2-1.1,0.4-1.2,0.3c0,0,0.4-0.2,1.1-0.5c0.8-0.3,1.8-0.8,3-1.3c2.7-1.1,6.1-2.5,10-4.1
					c3.8-1.6,7.3-3.1,9.9-4.2c1.2-0.5,2.2-0.9,3-1.3C143.3,294.3,143.7,294.1,143.7,294.2z"/>
			</g>
			<g>
				<path class="st5" d="M143.2,313.4c0,0-0.4,0.2-1.1,0.6c-0.7,0.3-1.7,0.8-2.9,1.4c-2.5,1.2-6,2.7-9.9,4.3c-3.9,1.6-7.4,3-10,4
					c-1.3,0.5-2.3,0.9-3.1,1.1c-0.7,0.2-1.1,0.4-1.2,0.3s0.4-0.2,1.1-0.5c0.8-0.3,1.8-0.8,3-1.3c2.7-1.1,6.1-2.5,10-4.1
					c3.8-1.6,7.3-3.1,9.9-4.2c1.2-0.5,2.2-0.9,3-1.3C142.8,313.5,143.2,313.4,143.2,313.4z"/>
			</g>
			<g>
				<path class="st5" d="M142.8,332.7c0,0-0.4,0.2-1.1,0.6c-0.7,0.3-1.7,0.8-2.9,1.4c-2.5,1.2-6,2.7-9.9,4.3c-3.9,1.6-7.4,3-10,4
					c-1.3,0.5-2.3,0.9-3.1,1.1c-0.7,0.2-1.1,0.4-1.2,0.3c0,0,0.4-0.2,1.1-0.5c0.8-0.3,1.8-0.8,3-1.3c2.7-1.1,6.1-2.5,10-4.1
					c3.8-1.6,7.3-3.1,9.9-4.2c1.2-0.5,2.2-0.9,3-1.3C142.3,332.8,142.8,332.6,142.8,332.7z"/>
			</g>
			<g>
				<path class="st5" d="M147.4,218.9c0,0-0.4,0.2-1.1,0.6c-0.7,0.3-1.8,0.8-3,1.4c-2.6,1.2-6.2,2.7-10.2,4.3c-4,1.6-7.7,3-10.3,4
					c-1.3,0.5-2.4,0.9-3.2,1.1s-1.2,0.4-1.2,0.3s0.4-0.2,1.1-0.5c0.8-0.3,1.9-0.8,3.1-1.3c2.7-1.1,6.3-2.5,10.3-4.1
					c3.9-1.6,7.5-3.1,10.2-4.2c1.2-0.5,2.3-0.9,3.1-1.3C147,219,147.4,218.8,147.4,218.9z"/>
			</g>
			<g>
				<path class="st5" d="M148,198.5c0,0-0.4,0.2-1.1,0.6c-0.7,0.3-1.8,0.8-3,1.4c-2.6,1.2-6.2,2.7-10.2,4.3s-7.7,3-10.3,4
					c-1.3,0.5-2.4,0.9-3.2,1.1c-0.8,0.2-1.2,0.4-1.2,0.3c0,0,0.4-0.2,1.1-0.5c0.8-0.3,1.9-0.8,3.1-1.3c2.7-1.1,6.3-2.5,10.3-4.1
					c3.9-1.6,7.5-3.1,10.2-4.2c1.2-0.5,2.3-0.9,3.1-1.3C147.5,198.6,148,198.5,148,198.5z"/>
			</g>
			<g>
				<path class="st5" d="M148.5,178.2c0,0-0.4,0.2-1,0.6c-0.7,0.3-1.7,0.8-2.9,1.4c-2.5,1.1-5.9,2.6-9.7,4.2
					c-3.8,1.5-7.3,2.9-9.9,3.8c-1.3,0.5-2.3,0.8-3,1s-1.1,0.3-1.1,0.3s0.4-0.2,1.1-0.5c0.8-0.3,1.8-0.7,3-1.2c2.6-1,6-2.4,9.8-3.9
					c3.8-1.5,7.1-2.9,9.8-4c1.2-0.5,2.2-0.9,3-1.2C148.1,178.3,148.5,178.2,148.5,178.2z"/>
			</g>
			<g>
				<path class="st5" d="M150.8,159.2c0.1,0.1-2.2,1.1-5,2.1c-2.8,1-5.1,1.8-5.2,1.6c0-0.1,2.2-1.1,5-2.1
					C148.4,159.8,150.7,159,150.8,159.2z"/>
			</g>
			<g>
				<path class="st5" d="M87.2,180.7c0,0-0.5,0.3-1.6,0.8c-1,0.5-2.5,1.2-4.4,2c-3.7,1.6-8.9,3.8-14.6,6.1s-11,4.4-14.8,5.8
					c-1.9,0.7-3.4,1.3-4.5,1.6c-1.1,0.4-1.7,0.6-1.7,0.5c0,0,0.6-0.3,1.6-0.7c1.1-0.5,2.6-1.1,4.5-1.8c3.8-1.5,9-3.6,14.7-5.9
					c5.7-2.3,10.9-4.4,14.7-6c1.8-0.7,3.3-1.4,4.5-1.8C86.6,180.9,87.2,180.7,87.2,180.7z"/>
			</g>
			<g>
				<path class="st5" d="M107,153c0,0-0.5,0.3-1.6,0.8c-1,0.5-2.5,1.2-4.4,2c-3.7,1.6-8.9,3.8-14.6,6.1s-11,4.4-14.8,5.8
					c-1.9,0.7-3.4,1.3-4.5,1.6c-1.1,0.4-1.7,0.6-1.7,0.5c0,0,0.6-0.3,1.6-0.7c1.1-0.5,2.6-1.1,4.5-1.8c3.8-1.5,9-3.6,14.7-5.9
					c5.7-2.3,10.9-4.4,14.7-6c1.8-0.7,3.3-1.4,4.5-1.8C106.4,153.2,107,153,107,153z"/>
			</g>
			<g>
				<path class="st5" d="M125.3,125.3c0,0-0.5,0.3-1.6,0.8c-1,0.5-2.5,1.2-4.4,2c-3.7,1.6-8.9,3.8-14.6,6.1
					c-5.7,2.3-11,4.4-14.8,5.8c-1.9,0.7-3.4,1.3-4.5,1.6c-1.1,0.4-1.7,0.6-1.7,0.5c0,0,0.6-0.3,1.6-0.7c1.1-0.5,2.6-1.1,4.5-1.8
					c3.8-1.5,9-3.6,14.7-5.9c5.7-2.3,10.9-4.4,14.7-6c1.8-0.7,3.3-1.4,4.5-1.8C124.7,125.5,125.3,125.3,125.3,125.3z"/>
			</g>
			<g>
				<path class="st5" d="M144.4,98.7c0,0-0.5,0.3-1.6,0.8c-1,0.5-2.5,1.2-4.4,2c-3.7,1.6-8.9,3.8-14.6,6.1c-5.7,2.3-11,4.4-14.8,5.8
					c-1.9,0.7-3.4,1.3-4.5,1.6c-1.1,0.4-1.7,0.6-1.7,0.5c0,0,0.6-0.3,1.6-0.7c1.1-0.5,2.6-1.1,4.5-1.8c3.8-1.5,9-3.6,14.7-5.9
					c5.7-2.3,10.9-4.4,14.7-6c1.8-0.7,3.3-1.4,4.5-1.8C143.8,98.9,144.4,98.7,144.4,98.7z"/>
			</g>
			<g>
				<path class="st7" d="M195,139.4c0,0-0.2,0.2-0.6,0.7c-0.4,0.4-1,1-1.8,1.8c-1.6,1.4-4.2,3.4-7.8,5s-8.2,2.9-13.4,3
					c-2.6,0.1-5.3-0.2-8.1-0.9c-2.8-0.7-5.5-1.8-8.2-3.1c-5.4-2.6-10.2-5.7-14.8-7.9s-9.2-3.3-13.1-3.4c-3.9-0.1-7,0.7-8.9,1.7
					c-1,0.5-1.7,0.9-2.2,1.2s-0.7,0.5-0.7,0.5s0.2-0.2,0.7-0.6c0.4-0.4,1.2-0.8,2.1-1.3c1.9-1,5.1-2,9-1.9c3.9,0.1,8.6,1.2,13.3,3.4
					c4.7,2.1,9.5,5.2,14.9,7.8c2.7,1.3,5.4,2.4,8.1,3c2.7,0.7,5.4,1,8,0.9c5.1-0.1,9.7-1.3,13.2-2.9c3.5-1.6,6.1-3.4,7.8-4.8
					c0.9-0.7,1.5-1.3,1.9-1.7C194.8,139.6,195,139.4,195,139.4z"/>
			</g>
			<g>
				<path class="st7" d="M181.1,89.9c0,0-0.4,0.3-1.3,0.7c-0.8,0.5-2.1,1-3.6,1.7c-1.6,0.7-3.5,1.4-5.6,2s-4.5,1.2-7.1,1.6
					c-2.6,0.4-5,0.6-7.2,0.7c-2.2,0.1-4.3,0-5.9-0.1c-1.7-0.1-3-0.3-4-0.5c-0.9-0.2-1.4-0.3-1.4-0.3s0.5,0,1.5,0.1
					c0.9,0.1,2.3,0.2,4,0.3c1.7,0.1,3.7,0.1,5.9,0c2.2-0.1,4.7-0.3,7.2-0.7s4.9-1,7-1.6s4-1.3,5.6-1.9s2.8-1.1,3.7-1.5
					C180.6,90.1,181.1,89.9,181.1,89.9z"/>
			</g>
			<g>
				<path class="st7" d="M110.1,201c0,0-0.3-0.3-0.9-1c-0.6-0.7-1.4-1.7-2.4-2.8c-2-2.4-4.9-5.5-8.4-8.8c-1.7-1.6-3.5-3-5.2-4
					c-1.8-1-3.5-1.7-5-1.9c-3-0.6-5,0.1-5,0c0,0,0.1-0.1,0.3-0.1c0.2-0.1,0.6-0.2,1-0.2c0.9-0.1,2.2-0.2,3.7,0
					c1.6,0.3,3.4,0.9,5.2,1.9c1.8,1,3.6,2.4,5.4,4.1c3.5,3.2,6.3,6.5,8.3,8.9c1,1.2,1.7,2.2,2.2,2.9
					C109.9,200.6,110.2,201,110.1,201z"/>
			</g>
			<g>
				<path class="st7" d="M189.9,231.2c0,0-0.1,0.1-0.4,0.3c-0.3,0.2-0.7,0.5-1.2,0.8c-1,0.6-2.6,1.5-4.7,2.2
					c-4.1,1.6-10.3,2.7-16.9,1.3c-6.6-1.4-11.9-4.8-15-7.9c-1.6-1.5-2.7-2.9-3.4-3.9c-0.4-0.5-0.6-0.9-0.8-1.2
					c-0.2-0.3-0.3-0.4-0.2-0.4c0,0,0.4,0.5,1.2,1.5c0.8,1,1.9,2.3,3.5,3.7c3.2,2.9,8.4,6.3,14.9,7.6c6.5,1.3,12.6,0.3,16.7-1.2
					c2-0.7,3.6-1.5,4.7-2.1C189.3,231.5,189.9,231.2,189.9,231.2z"/>
			</g>
			<g>
				<path class="st7" d="M219,294.5c0,0-0.1-0.2-0.3-0.5c-0.2-0.3-0.5-0.8-0.8-1.4c-0.6-1.2-1.8-3-3.4-5.1c-0.4-0.5-0.9-1-1.4-1.6
					c-0.2-0.3-0.5-0.6-0.7-0.9c-0.3-0.3-0.6-0.5-0.8-0.8c-0.6-0.6-1.2-1.2-1.8-1.8c-0.7-0.6-1.4-1.1-2.1-1.7c-3-2.3-6.6-4.7-11-6.5
					s-9.5-3.2-15-3.5c-5.6-0.3-11.6,0.5-17.4,2.8s-11.5,5.8-17.5,9.1c-3,1.7-6.1,3.3-9.4,4.7c-3.3,1.3-6.8,2.4-10.5,2.7
					c-3.6,0.4-7.3,0.1-10.8-0.7c-3.5-0.7-6.8-2-9.9-3.4c-6.3-2.9-11.8-6.6-16.9-10.3c-5.1-3.7-10-7.2-14.8-10s-9.6-5-14.2-6.1
					s-9-1.3-12.7-0.8c-3.8,0.4-6.9,1.5-9.2,2.7c-2.4,1.2-4,2.6-5,3.4c-0.5,0.5-0.9,0.9-1.1,1.1c-0.3,0.3-0.4,0.4-0.4,0.4
					s0.1-0.1,0.4-0.4s0.6-0.7,1.1-1.2c1.1-0.9,2.6-2.3,5-3.6c2.4-1.2,5.5-2.3,9.3-2.8s8.2-0.3,12.8,0.8c4.7,1.1,9.5,3.3,14.4,6.1
					c4.9,2.8,9.7,6.3,14.9,10c5.1,3.6,10.6,7.4,16.8,10.2c3.1,1.4,6.4,2.6,9.8,3.4c3.4,0.7,7,1.1,10.6,0.6c3.6-0.4,7-1.4,10.3-2.7
					c3.3-1.3,6.4-3,9.3-4.6c6-3.3,11.6-6.8,17.5-9.1c1.5-0.5,3-1.1,4.5-1.4c0.7-0.2,1.5-0.4,2.2-0.6c0.8-0.1,1.5-0.2,2.2-0.4
					c3-0.5,5.9-0.5,8.7-0.4c5.6,0.3,10.8,1.7,15.2,3.6s8.1,4.3,11,6.6c0.7,0.6,1.4,1.2,2.1,1.8c0.6,0.6,1.2,1.2,1.8,1.8
					c0.3,0.3,0.6,0.6,0.8,0.8c0.2,0.3,0.5,0.6,0.7,0.9c0.5,0.6,0.9,1.1,1.3,1.6c1.6,2.1,2.7,3.9,3.4,5.1c0.3,0.6,0.6,1.1,0.8,1.4
					C219,294.3,219,294.5,219,294.5z"/>
			</g>
			<g>
				<path class="st7" d="M188.8,336.3c0,0-0.2,0.1-0.5,0.1c-0.4,0.1-0.9,0.2-1.5,0.3c-0.6,0.1-1.4,0.3-2.4,0.3
					c-0.9,0.1-2,0.2-3.1,0.3c-0.6,0-1.2,0.1-1.8,0.1s-1.3,0-2,0c-1.4,0-2.8-0.1-4.4-0.3c-3.1-0.3-6.4-0.9-9.9-1.9
					c-3.4-1-6.6-2.3-9.4-3.7c-1.4-0.7-2.7-1.4-3.8-2.1c-0.6-0.4-1.2-0.7-1.7-1.1s-1-0.7-1.5-1.1c-1-0.6-1.8-1.3-2.5-1.9
					c-0.7-0.6-1.3-1.1-1.8-1.6c-0.4-0.4-0.8-0.8-1.1-1c-0.2-0.2-0.4-0.4-0.4-0.4s0.2,0.1,0.4,0.3c0.3,0.3,0.7,0.6,1.2,1
					s1.1,0.9,1.8,1.5c0.7,0.5,1.6,1.2,2.5,1.8c0.5,0.3,1,0.7,1.5,1c0.5,0.4,1.1,0.7,1.7,1c1.2,0.7,2.5,1.4,3.8,2.1
					c2.8,1.3,5.9,2.6,9.3,3.6c3.4,1,6.7,1.6,9.8,1.9c1.5,0.1,3,0.3,4.3,0.3c0.7,0,1.3,0.1,2,0c0.6,0,1.2,0,1.8,0
					c1.2,0,2.2-0.1,3.1-0.2s1.7-0.2,2.4-0.3c0.6-0.1,1.1-0.1,1.5-0.2C188.6,336.3,188.8,336.3,188.8,336.3z"/>
			</g>
		</g>
	</g>
	<g>
		<g>
			<path class="st5" d="M595.9,257.5l33.3-3.3l3.5,35.3l-33.3,3.3l5.7,58.6l-43.8,4.3l-5.7-58.6l-113.1,11.1l-3.7-26.7l95.3-189.1
				l45.2-4.4L595.9,257.5z M481.3,268.7l70.8-6.9l-10.5-107l-1.1-0.3l-2.9,8.1L481.3,268.7z"/>
		</g>
		<g class="st9">
			<path d="M595.9,257.5l33.3-3.3l3.5,35.3l-33.3,3.3l5.7,58.6l-43.8,4.3l-5.7-58.6l-113.1,11.1l-3.7-26.7l95.3-189.1l45.2-4.4
				L595.9,257.5z M481.3,268.7l70.8-6.9l-10.5-107l-1.1-0.3l-2.9,8.1L481.3,268.7z"/>
		</g>
		<g>
			<path class="st5" d="M623.8,254.8l33.3-3.3l3.5,35.3l-33.3,3.3l5.7,58.6l-43.8,4.3l-5.7-58.6l-113.1,11.1l-3.7-26.7L562,89.7
				l45.2-4.4L623.8,254.8z M509.2,266l70.8-6.9l-10.5-107l-1.1-0.3l-2.9,8.1L509.2,266z"/>
		</g>
		<g>
			<g>
				<path class="st5" d="M467.9,283.7c0,0-0.3,0.3-1,0.8s-1.6,1.1-2.8,1.9c-2.4,1.6-5.7,3.7-9.4,5.9c-3.7,2.2-7.1,4.2-9.6,5.6
					c-1.2,0.7-2.3,1.2-3,1.6S441,300,441,300s0.3-0.3,1-0.7c0.8-0.5,1.7-1,2.9-1.7c2.5-1.5,5.9-3.5,9.6-5.7s7-4.2,9.5-5.8
					c1.1-0.7,2.1-1.3,2.9-1.7C467.5,283.9,467.8,283.7,467.9,283.7z"/>
			</g>
			<g>
				<path class="st5" d="M479.8,251.8c0,0-0.5,0.4-1.4,1s-2.2,1.5-3.9,2.5c-3.3,2.1-7.9,5-13,8c-5.1,3.1-9.8,5.8-13.2,7.7
					c-1.7,1-3.1,1.7-4.1,2.2s-1.5,0.8-1.5,0.7c0,0,0.5-0.4,1.4-0.9c1-0.6,2.4-1.4,4-2.4c3.4-2.1,8-4.8,13.1-7.9s9.7-5.8,13.1-7.9
					c1.6-1,3-1.8,4-2.4C479.2,252,479.7,251.7,479.8,251.8z"/>
			</g>
			<g>
				<path class="st5" d="M495.7,222.5c0,0-0.5,0.4-1.4,1c-1,0.6-2.3,1.5-4.1,2.6c-3.5,2.1-8.3,5-13.6,8.1
					c-5.4,3.1-10.3,5.9-13.8,7.8c-1.8,1-3.2,1.7-4.2,2.3c-1,0.5-1.6,0.8-1.6,0.8s0.5-0.4,1.5-0.9c1.1-0.6,2.5-1.4,4.2-2.4
					c3.6-2.1,8.4-4.9,13.7-7.9c5.3-3.1,10.1-5.9,13.7-8c1.7-1,3.1-1.8,4.2-2.4C495.1,222.8,495.7,222.5,495.7,222.5z"/>
			</g>
			<g>
				<path class="st5" d="M578.8,241.9c0,0-0.3,0.3-1,0.7c-0.7,0.4-1.6,1.1-2.8,1.8c-2.4,1.5-5.7,3.6-9.5,5.7
					c-3.7,2.2-7.2,4.1-9.7,5.4c-1.3,0.7-2.3,1.2-3,1.5c-0.7,0.4-1.1,0.5-1.1,0.5s0.4-0.3,1-0.7c0.8-0.5,1.8-1,2.9-1.7
					c2.6-1.5,5.9-3.4,9.6-5.5c3.7-2.2,7-4.1,9.5-5.6c1.2-0.7,2.1-1.2,2.9-1.7C578.4,242,578.8,241.8,578.8,241.9z"/>
			</g>
			<g>
				<path class="st5" d="M583.3,296.7c0,0-0.3,0.3-1,0.7c-0.6,0.4-1.6,1.1-2.7,1.8c-2.3,1.5-5.5,3.5-9.2,5.7c-3.6,2.2-6.9,4-9.4,5.3
					c-1.2,0.7-2.2,1.2-2.9,1.5s-1.1,0.5-1.1,0.5s0.3-0.3,1-0.7c0.8-0.5,1.7-1,2.8-1.7c2.5-1.5,5.7-3.4,9.3-5.5s6.8-4.1,9.2-5.6
					c1.1-0.7,2.1-1.2,2.8-1.7C582.9,296.9,583.3,296.7,583.3,296.7z"/>
			</g>
			<g>
				<path class="st5" d="M585.6,315.9c0,0-0.3,0.3-1,0.7c-0.6,0.4-1.6,1.1-2.7,1.8c-2.3,1.5-5.5,3.5-9.2,5.7c-3.6,2.2-6.9,4-9.4,5.3
					c-1.2,0.7-2.2,1.2-2.9,1.5s-1.1,0.5-1.1,0.5s0.3-0.3,1-0.7c0.8-0.5,1.7-1,2.8-1.7c2.5-1.5,5.7-3.4,9.3-5.5s6.8-4.1,9.2-5.6
					c1.1-0.7,2.1-1.2,2.8-1.7C585.2,316,585.6,315.8,585.6,315.9z"/>
			</g>
			<g>
				<path class="st5" d="M587.8,335c0,0-0.3,0.3-1,0.7c-0.6,0.4-1.6,1.1-2.7,1.8c-2.3,1.5-5.5,3.5-9.2,5.7c-3.6,2.2-6.9,4-9.4,5.3
					c-1.2,0.7-2.2,1.2-2.9,1.5s-1.1,0.5-1.1,0.5s0.3-0.3,1-0.7c0.8-0.5,1.7-1,2.8-1.7c2.5-1.5,5.7-3.4,9.3-5.5s6.8-4.1,9.2-5.6
					c1.1-0.7,2.1-1.2,2.8-1.7C587.4,335.2,587.8,335,587.8,335z"/>
			</g>
			<g>
				<path class="st5" d="M576.5,221.7c0,0-0.3,0.3-1,0.7c-0.7,0.4-1.6,1.1-2.8,1.8c-2.4,1.5-5.7,3.6-9.5,5.7
					c-3.7,2.2-7.2,4.1-9.7,5.4c-1.3,0.7-2.3,1.2-3,1.5c-0.7,0.4-1.1,0.5-1.1,0.5s0.4-0.3,1-0.7c0.8-0.5,1.8-1,2.9-1.7
					c2.6-1.5,5.9-3.4,9.6-5.5c3.7-2.2,7-4.1,9.5-5.6c1.2-0.7,2.1-1.2,2.9-1.7C576.1,221.8,576.5,221.6,576.5,221.7z"/>
			</g>
			<g>
				<path class="st5" d="M574.1,201.5c0,0-0.3,0.3-1,0.7s-1.6,1.1-2.8,1.8c-2.4,1.5-5.7,3.6-9.5,5.7c-3.7,2.2-7.2,4.1-9.7,5.4
					c-1.3,0.7-2.3,1.2-3,1.5c-0.7,0.4-1.1,0.5-1.1,0.5s0.4-0.3,1-0.7c0.8-0.5,1.8-1,2.9-1.7c2.6-1.5,5.9-3.4,9.6-5.5
					c3.7-2.2,7-4.1,9.5-5.6c1.2-0.7,2.1-1.2,2.9-1.7C573.7,201.6,574.1,201.4,574.1,201.5z"/>
			</g>
			<g>
				<path class="st5" d="M571.8,181.2c0,0-0.3,0.3-0.9,0.7c-0.6,0.4-1.5,1-2.7,1.7c-2.3,1.4-5.5,3.4-9,5.5c-3.6,2.1-6.8,3.9-9.2,5.1
					c-1.2,0.6-2.2,1.1-2.8,1.5c-0.7,0.3-1.1,0.5-1.1,0.5s0.3-0.3,1-0.6c0.7-0.4,1.7-1,2.8-1.6c2.4-1.4,5.6-3.2,9.1-5.2
					c3.5-2.1,6.7-3.9,9.1-5.3c1.1-0.6,2-1.2,2.8-1.6C571.4,181.4,571.8,181.2,571.8,181.2z"/>
			</g>
			<g>
				<path class="st5" d="M571.4,162.1c0.1,0.1-2,1.4-4.7,2.8c-2.6,1.4-4.8,2.5-4.9,2.4c-0.1-0.1,2-1.4,4.7-2.8
					C569.1,163,571.3,162,571.4,162.1z"/>
			</g>
			<g>
				<path class="st5" d="M511.4,192.3c0,0-0.5,0.4-1.4,1c-1,0.6-2.3,1.5-4.1,2.6c-3.5,2.1-8.3,5-13.6,8.1
					c-5.4,3.1-10.3,5.9-13.8,7.8c-1.8,1-3.2,1.7-4.2,2.3c-1,0.5-1.6,0.8-1.6,0.8s0.5-0.4,1.5-0.9c1.1-0.6,2.5-1.4,4.2-2.4
					c3.6-2.1,8.4-4.9,13.7-7.9c5.3-3.1,10.1-5.9,13.7-8c1.7-1,3.1-1.8,4.2-2.4C510.9,192.6,511.4,192.3,511.4,192.3z"/>
			</g>
			<g>
				<path class="st5" d="M527.2,162.1c0,0-0.5,0.4-1.4,1c-1,0.6-2.3,1.5-4.1,2.6c-3.5,2.1-8.3,5-13.6,8.1
					c-5.4,3.1-10.3,5.9-13.8,7.8c-1.8,1-3.2,1.7-4.2,2.3c-1,0.5-1.6,0.8-1.6,0.8s0.5-0.4,1.5-0.9c1.1-0.6,2.5-1.4,4.2-2.4
					c3.6-2.1,8.4-4.9,13.7-7.9c5.3-3.1,10.1-5.9,13.7-8c1.7-1,3.1-1.8,4.2-2.4C526.6,162.4,527.2,162.1,527.2,162.1z"/>
			</g>
			<g>
				<path class="st5" d="M541.4,132.2c0,0-0.5,0.4-1.4,1c-1,0.6-2.3,1.5-4.1,2.6c-3.5,2.1-8.3,5-13.6,8.1
					c-5.4,3.1-10.3,5.9-13.8,7.8c-1.8,1-3.2,1.7-4.2,2.3c-1,0.5-1.6,0.8-1.6,0.8s0.5-0.4,1.5-0.9c1.1-0.6,2.5-1.4,4.2-2.4
					c3.6-2.1,8.4-4.9,13.7-7.9c5.3-3.1,10.1-5.9,13.7-8c1.7-1,3.1-1.8,4.2-2.4C540.9,132.4,541.4,132.1,541.4,132.2z"/>
			</g>
			<g>
				<path class="st5" d="M556.6,103.1c0,0-0.5,0.4-1.4,1c-1,0.6-2.3,1.5-4.1,2.6c-3.5,2.1-8.3,5-13.6,8.1
					c-5.4,3.1-10.3,5.9-13.8,7.8c-1.8,1-3.2,1.7-4.2,2.3c-1,0.5-1.6,0.8-1.6,0.8s0.5-0.4,1.5-0.9c1.1-0.6,2.5-1.4,4.2-2.4
					c3.6-2.1,8.4-4.9,13.7-7.9c5.3-3.1,10.1-5.9,13.7-8c1.7-1,3.1-1.8,4.2-2.4C556,103.4,556.5,103.1,556.6,103.1z"/>
			</g>
			<g>
				<path class="st7" d="M612.4,136.3c0,0-0.2,0.3-0.5,0.7c-0.3,0.5-0.8,1.2-1.5,2c-1.4,1.7-3.7,3.9-7,6.1c-3.3,2.1-7.7,4-12.8,4.9
					c-2.6,0.4-5.3,0.5-8.1,0.2s-5.7-1-8.5-1.9c-5.7-1.8-10.9-4.2-15.8-5.7c-4.9-1.5-9.6-2-13.4-1.5c-3.9,0.4-6.8,1.7-8.6,2.9
					c-0.9,0.6-1.6,1.1-2,1.5s-0.7,0.6-0.7,0.6s0.2-0.2,0.6-0.6c0.4-0.4,1-1,1.9-1.6c1.8-1.3,4.8-2.6,8.7-3.1s8.7-0.1,13.6,1.4
					c5,1.5,10.2,3.8,15.8,5.7c2.8,0.9,5.6,1.6,8.4,1.9c2.8,0.3,5.5,0.2,8-0.2c5.1-0.8,9.4-2.7,12.7-4.7c3.3-2.1,5.6-4.3,7-5.9
					c0.7-0.8,1.3-1.5,1.6-1.9C612.2,136.5,612.4,136.3,612.4,136.3z"/>
			</g>
			<g>
				<path class="st7" d="M591.7,89.3c0,0-0.4,0.4-1.2,0.9c-0.8,0.6-1.9,1.3-3.4,2.2c-1.4,0.9-3.2,1.8-5.3,2.8
					c-2,0.9-4.3,1.8-6.8,2.6s-4.9,1.3-7.1,1.7c-2.2,0.4-4.2,0.6-5.9,0.7c-1.7,0.1-3.1,0.1-4,0.1s-1.5-0.1-1.5-0.1s0.5-0.1,1.5-0.1
					c0.9,0,2.3-0.1,4-0.3c1.7-0.1,3.7-0.4,5.8-0.8c2.2-0.4,4.6-1,7-1.7c2.4-0.8,4.7-1.7,6.8-2.6c2-0.9,3.8-1.8,5.3-2.7
					c1.5-0.8,2.6-1.5,3.4-2C591.2,89.5,591.7,89.2,591.7,89.3z"/>
			</g>
			<g>
				<path class="st7" d="M537,209.2c0,0-0.4-0.3-1-0.9c-0.7-0.6-1.6-1.5-2.7-2.5c-2.3-2-5.6-4.8-9.5-7.5c-1.9-1.3-3.9-2.5-5.8-3.3
					c-1.9-0.8-3.7-1.1-5.2-1.2c-3.1-0.2-4.9,0.8-4.9,0.7c0,0,0.1-0.1,0.3-0.2c0.2-0.1,0.5-0.2,0.9-0.4c0.8-0.3,2.1-0.5,3.7-0.5
					c1.6,0,3.5,0.4,5.4,1.1c1.9,0.8,3.9,1.9,5.9,3.3c3.9,2.7,7.2,5.5,9.5,7.6c1.1,1.1,2,2,2.6,2.6C536.7,208.8,537,209.2,537,209.2z
					"/>
			</g>
			<g>
				<path class="st7" d="M620.2,227.9c0,0-0.1,0.1-0.3,0.4c-0.2,0.2-0.6,0.5-1.1,0.9c-0.9,0.8-2.4,1.8-4.3,2.9
					c-3.8,2.1-9.8,4.1-16.6,3.7s-12.5-3.1-16-5.7c-1.8-1.3-3.1-2.5-3.9-3.4c-0.4-0.4-0.7-0.8-0.9-1s-0.3-0.4-0.3-0.4
					s0.5,0.5,1.4,1.3s2.2,2,4,3.2c3.5,2.5,9.2,5.1,15.8,5.5s12.5-1.5,16.4-3.5c1.9-1,3.4-2,4.4-2.7
					C619.7,228.3,620.2,227.9,620.2,227.9z"/>
			</g>
			<g>
				<path class="st7" d="M658,286.5c0,0-0.1-0.1-0.3-0.4s-0.6-0.7-1-1.3c-0.8-1.1-2.2-2.7-4.1-4.5c-0.5-0.4-1-0.9-1.6-1.4
					c-0.3-0.2-0.6-0.5-0.8-0.8c-0.3-0.2-0.6-0.5-1-0.7c-0.7-0.5-1.3-1-2-1.5s-1.5-0.9-2.3-1.4c-3.3-1.9-7.2-3.7-11.8-4.9
					c-4.6-1.2-9.8-1.8-15.4-1.3c-5.6,0.5-11.4,2.2-16.9,5.2c-5.5,3.1-10.6,7.3-16,11.5c-2.7,2.1-5.6,4.1-8.6,5.9
					c-3.1,1.8-6.4,3.3-10,4.2c-3.6,0.9-7.2,1.1-10.8,0.9s-7-1-10.3-2c-6.6-1.9-12.6-4.9-18.2-7.8c-5.6-2.9-10.9-5.7-16.1-7.8
					c-5.2-2.1-10.2-3.6-14.9-4s-9.1,0-12.7,1c-3.7,0.9-6.6,2.4-8.8,3.9c-2.2,1.5-3.6,3.1-4.5,4.1c-0.4,0.5-0.7,1-1,1.3
					c-0.2,0.3-0.3,0.4-0.3,0.4s0.1-0.2,0.3-0.5c0.2-0.3,0.5-0.7,0.9-1.3c0.9-1.1,2.2-2.7,4.5-4.2c2.2-1.6,5.1-3.1,8.8-4.1
					s8-1.5,12.8-1c4.8,0.4,9.9,1.9,15.1,4c5.2,2.1,10.5,4.9,16.1,7.8s11.5,5.8,18.1,7.7c3.3,1,6.7,1.7,10.2,1.9
					c3.5,0.2,7.1,0.1,10.6-0.9c3.5-0.9,6.8-2.4,9.8-4.1c3-1.8,5.9-3.8,8.6-5.9c5.4-4.2,10.6-8.4,16.1-11.5c1.4-0.7,2.8-1.5,4.2-2.1
					c0.7-0.3,1.4-0.6,2.1-0.9c0.7-0.2,1.4-0.5,2.2-0.7c2.9-0.9,5.8-1.3,8.6-1.6c5.6-0.5,10.9,0.2,15.5,1.4c4.6,1.2,8.6,3.1,11.8,5
					c0.8,0.5,1.6,1,2.3,1.5s1.4,1,2,1.5c0.3,0.2,0.6,0.5,1,0.7c0.3,0.3,0.6,0.5,0.8,0.8c0.5,0.5,1.1,1,1.6,1.4
					c1.9,1.9,3.3,3.5,4,4.6c0.4,0.6,0.7,1,0.9,1.3C657.9,286.3,658,286.5,658,286.5z"/>
			</g>
			<g>
				<path class="st7" d="M633.9,332.1c0,0-0.2,0.1-0.5,0.2c-0.4,0.1-0.9,0.3-1.4,0.5c-0.6,0.2-1.4,0.5-2.3,0.7
					c-0.9,0.2-1.9,0.5-3.1,0.7c-0.6,0.1-1.2,0.2-1.8,0.3c-0.6,0.1-1.3,0.2-2,0.3c-1.4,0.2-2.8,0.3-4.4,0.4c-3.1,0.1-6.5,0-10-0.5
					s-6.8-1.4-9.8-2.3c-1.5-0.5-2.8-1-4.1-1.6c-0.6-0.3-1.2-0.5-1.8-0.8s-1.1-0.6-1.6-0.8c-1.1-0.5-1.9-1.1-2.7-1.5
					c-0.8-0.5-1.5-0.9-2-1.3c-0.5-0.3-0.9-0.6-1.2-0.9c-0.3-0.2-0.4-0.3-0.4-0.3s0.2,0.1,0.5,0.2c0.3,0.2,0.8,0.5,1.3,0.8
					c0.5,0.4,1.2,0.8,2,1.2c0.8,0.4,1.7,1,2.8,1.5c0.5,0.3,1.1,0.5,1.6,0.8c0.6,0.3,1.2,0.5,1.8,0.8c1.2,0.6,2.6,1,4.1,1.5
					c2.9,0.9,6.2,1.8,9.7,2.3s6.9,0.6,9.9,0.5c1.5-0.1,3-0.1,4.3-0.3c0.7-0.1,1.3-0.1,2-0.2c0.6-0.1,1.2-0.2,1.8-0.3
					c1.2-0.2,2.2-0.4,3.1-0.6c0.9-0.2,1.7-0.4,2.3-0.6s1.1-0.3,1.4-0.4C633.7,332.1,633.9,332.1,633.9,332.1z"/>
			</g>
		</g>
	</g>
	<g>
		<g>
			<g>
				<path class="st10" d="M425.7,185.6l-7-1.1l-43.4-14l-25.4-7.3c-5.9-2-13.6-2.8-21.9,1.5c-12,6.1-45.1,36.9-45.1,36.9l23.8,24.5
					l-11.2,49.7c12.6,35.7,37.1,39.8,37.1,39.8s16.1,1.4,35.2-5.8c22.8-8.7,46.8-29.1,49.8-37.9c1.8-5.3,3.3-16.3,4.5-28.8
					l36.1-14.7l9.8-50L425.7,185.6z"/>
				<g>
					<path class="st11" d="M372.9,274.1c0,0-0.1,0.1-0.4,0.3c-0.2,0.2-0.6,0.5-1.1,0.8c-1,0.7-2.4,1.5-4.3,2.3
						c-3.8,1.6-9.7,2.9-16,1.5s-11.2-5-13.9-8c-1.4-1.5-2.4-2.9-3-3.9c-0.3-0.5-0.5-0.9-0.7-1.2c-0.1-0.3-0.2-0.4-0.2-0.4
						s0.4,0.5,1,1.5s1.6,2.3,3.1,3.8c2.8,3,7.6,6.4,13.8,7.8c6.2,1.3,12,0.2,15.8-1.3c1.9-0.8,3.4-1.6,4.4-2.2
						C372.4,274.4,372.9,274,372.9,274.1z"/>
				</g>
				<g>
					<path class="st11" d="M359.2,172.6c0,0,0,0.1,0.1,0.2c0,0.2,0.1,0.4,0.2,0.7c0.2,0.6,0.4,1.5,0.6,2.7c0.5,2.4,1.2,5.9,1.4,10.2
						c0.1,2.2,0,4.6-0.4,7.1c-0.5,2.5-1.4,5.2-2.8,7.7c-1.5,2.5-3.6,4.8-5.9,6.9c-2.4,2.1-5,4-7.6,6.1c-5.6,4.2-11.1,8.1-16,11.5
						c-4.9,3.5-9.2,6.6-12.7,9.2L316,235l-0.1-0.1c-3.1-2.5-5.4-4.7-6.9-6.2c-0.8-0.8-1.3-1.5-1.6-1.9c-0.2-0.2-0.3-0.4-0.4-0.5
						s-0.1-0.2-0.1-0.2s0.2,0.2,0.5,0.7c0.4,0.4,0.9,1.1,1.7,1.8c1.5,1.5,3.9,3.7,7,6.1h-0.2c3.4-2.7,7.7-5.8,12.6-9.3
						s10.4-7.3,16-11.6c2.6-2,5.2-4,7.6-6c2.3-2.1,4.4-4.3,5.9-6.7s2.4-5,2.8-7.5c0.5-2.5,0.5-4.9,0.5-7.1
						c-0.2-4.3-0.8-7.8-1.3-10.2c-0.2-1.2-0.4-2.1-0.5-2.8c-0.1-0.3-0.1-0.5-0.1-0.7C359.2,172.7,359.2,172.6,359.2,172.6z"/>
				</g>
			</g>
			<g>
				<path class="st11" d="M547.5,195.1c10.2-8.7,13.6-24.4,8-36.5c-4.8-0.5-9.5-1-14.3-1.5c7.3-3.8,11.6-12.5,10.4-20.6
					c-7.7,8.3-21.1,10.8-31.2,5.8c-6.7-3.3-12.1-9.5-19.4-10.7c-6.7-1.2-13.2,2-19.6,4.2c-6.4,2.3-14.1,3.5-19.4-0.7
					c-4.2-3.4-5.5-9.2-5.2-14.6c0.3-5.4,1.8-10.6,2.2-15.9c0.7-10.5-3.9-21.1-11.6-28.2c-2.4-7.6-8.2-14.2-15.6-17.3
					c-8.9-3.8-19.9-2.3-27.5,3.6c-3.1,2.4-5.8,5.5-9.3,7.3c-4,2-8.7,2-13,3c-4.3,1.1-8.9,3.9-9.4,8.4l-1.7,9.1
					c-0.3,0.7-0.6,1.3-1,1.9c-3.7,6.5-11.2,10.7-12.9,18c-0.9,4.1,0.2,8.5-1.1,12.4c-1.8,5.2-7.4,8.1-10,12.9
					c-3.6,6.6-1.2,18.3,4.6,23.2c5.7,4.9,17.5,10.1,24.9,11.7c2-7.7,3.8-15.9,5.5-24.3c3,2.9,6.2,5.6,9.3,8.4
					c8.2,7.1,16.6,14.4,22.3,23.7c10.8,17.6,11,41,24.6,56.5c2.7,3.1,5.9,5.8,9.8,6.9c3.9,1.2,8.5,0.6,11.4-2.3
					c3.4-3.4,3.8-9.1,7.6-12c5-4,12.3-0.8,17.6,2.6c3.9,2.5,7.8,5.1,12.2,6.5s9.5,1.3,13.2-1.4c3.7-2.7,5.4-8.4,2.7-12.1
					c-1.1-1.5-2.7-2.5-3.8-4s-1.4-3.9,0.1-5c1.6-1.2,3.9,0,5.6,1c8.5,5,19.4,6,28.7,2.5s16.9-11.3,20.1-20.7
					C557.2,197.6,552.1,197,547.5,195.1z"/>
				<g>
					<path class="st11" d="M538.6,116.6c0,0,0.5,0.3,1.3,1.1s2,2,2.9,3.9c0.5,0.9,0.9,2.1,1.1,3.4c0.2,1.3,0.1,2.8-0.5,4.2
						s-1.6,2.8-3.1,3.7c-0.7,0.5-1.6,0.8-2.5,0.9c-0.9,0.1-1.9,0-2.8-0.4c-3.7-1.5-5.6-5.8-9.6-7.7c-3.9-2.1-8.9-2.2-13.7-1.1
						c-4.9,1.1-9.5,3.7-14.2,6.4c-4.7,2.6-9.8,5.5-15.6,6.5c-2.9,0.5-5.8,0.6-8.6-0.1c-1.4-0.3-2.7-0.8-4-1.5
						c-1.2-0.7-2.4-1.5-3.4-2.5c-2-1.9-3.4-4.4-4.3-6.8c-0.9-2.5-1.5-5-1.8-7.5c-0.5-5-0.1-9.8-0.1-14.2c0.1-4.4-0.2-8.6-1.2-12.2
						c-0.5-1.8-1.2-3.5-1.9-5c-0.7-1.5-1.6-2.9-2.4-4.1c-1.7-2.5-3.5-4.3-5.1-5.7c-1.6-1.4-3-2.3-3.9-2.9c-0.5-0.3-0.8-0.5-1.1-0.6
						c-0.2-0.1-0.4-0.2-0.4-0.2s0.1,0.1,0.4,0.2s0.6,0.3,1.1,0.6c0.9,0.6,2.4,1.4,4,2.8s3.5,3.2,5.2,5.7c0.9,1.2,1.7,2.6,2.5,4.1
						s1.5,3.2,2,5.1c1.1,3.7,1.4,7.9,1.3,12.3c0,4.5-0.4,9.2,0.1,14.2c0.3,2.5,0.8,5,1.8,7.4c0.9,2.4,2.3,4.8,4.2,6.6
						c1,0.9,2,1.8,3.2,2.4c1.2,0.6,2.5,1.1,3.8,1.4c2.7,0.6,5.6,0.6,8.4,0.1c5.7-1,10.7-3.8,15.4-6.4c4.7-2.6,9.4-5.3,14.4-6.4
						c2.5-0.5,4.9-0.8,7.3-0.6c1.2,0.1,2.4,0.3,3.5,0.6s2.2,0.7,3.2,1.3c4.1,2,6,6.3,9.5,7.8c1.7,0.7,3.6,0.5,5-0.4s2.4-2.2,3-3.6
						c0.6-1.4,0.7-2.8,0.5-4c-0.2-1.3-0.6-2.4-1-3.3c-0.9-1.9-2.1-3.1-2.8-3.9c-0.4-0.4-0.7-0.7-0.9-0.9
						C538.7,116.8,538.6,116.7,538.6,116.6z"/>
				</g>
				<g>
					<path class="st11" d="M375.2,174.4c0,0,0-0.2-0.1-0.5c0-0.3-0.1-0.7-0.3-1.3c-0.3-1.1-1-2.8-2.5-4.5s-3.7-3.3-6.6-4.6
						s-6.5-2-10.4-2.7c-3.9-0.8-8.4-1.6-12.4-4.3s-7.1-7.2-7.9-12.6c-0.8-5.3,0.9-11.3,5-15.5s10-6.4,14.8-10.1c1.2-1,2.3-2,3.1-3.2
						c0.8-1.2,1.5-2.5,1.9-4c0.8-2.8,0.7-5.8,1-8.7c0.1-1.4,0.3-2.9,0.8-4.3c0.4-1.4,1.2-2.7,2.1-3.7c1.9-2.1,4.6-3.3,7.2-4
						s5.1-1.2,7.5-1.9c2.4-0.7,4.7-1.6,6.6-2.9s3.5-3,4.9-4.6c1.4-1.7,2.6-3.4,3.7-5.1c2.2-3.3,4.1-6.5,6.1-9s4-4.5,5.8-5.8
						s3.5-2,4.6-2.4s1.8-0.4,1.8-0.4s-0.6,0.1-1.7,0.5s-2.7,1.1-4.5,2.4s-3.8,3.3-5.7,5.8c-2,2.5-3.8,5.6-6,9
						c-1.1,1.7-2.3,3.4-3.7,5.1c-1.4,1.7-3,3.4-5,4.7c-1.9,1.4-4.3,2.3-6.7,3c-2.4,0.7-5,1.2-7.5,1.9c-2.5,0.7-5.1,1.8-6.9,3.9
						c-0.9,1-1.6,2.2-2,3.6c-0.4,1.3-0.6,2.7-0.8,4.2c-0.3,2.9-0.2,5.9-1,8.8c-0.4,1.5-1.1,2.9-2,4.1c-0.9,1.2-2,2.3-3.2,3.3
						c-2.4,1.9-5.1,3.4-7.7,4.9s-5,3.1-7,5.1c-4,4.1-5.7,10-4.9,15.1c0.8,5.2,3.8,9.7,7.7,12.3c3.9,2.6,8.3,3.5,12.2,4.3
						c3.9,0.8,7.6,1.4,10.5,2.8c2.9,1.3,5.2,3,6.7,4.7s2.1,3.4,2.4,4.6c0.2,0.6,0.2,1,0.2,1.3C375.2,174.2,375.2,174.4,375.2,174.4z
						"/>
				</g>
				<g>
					<path class="st10" d="M455,84.6c0,0-0.3,0-0.8-0.2s-1.2-0.4-2-0.8c-1.7-0.8-3.8-2-6-3.9c-2.1-1.8-3.7-3.8-4.7-5.3
						c-0.5-0.8-0.9-1.4-1.1-1.9s-0.3-0.7-0.3-0.7c0.1,0,0.6,0.9,1.7,2.4s2.7,3.4,4.8,5.1c2.1,1.8,4.2,3.1,5.8,3.9
						C454,84.1,455,84.5,455,84.6z"/>
				</g>
				<g>
					<path class="st10" d="M488.2,152.8c0,0-0.6-0.2-1.8-0.4c-1.1-0.2-2.8-0.5-4.9-0.6c-2.1-0.1-4.5,0-7.3,0.2
						c-2.7,0.2-5.8,0.5-8.9,0.4c-3.2-0.1-6.3-0.6-8.8-1.7c-2.6-1.1-4.6-2.7-5.9-4.3s-2-3.2-2.3-4.4c-0.1-0.6-0.2-1-0.2-1.3
						s0-0.5,0-0.5c0.1,0,0.1,0.6,0.4,1.7c0.3,1.1,1,2.6,2.4,4.2c1.3,1.5,3.3,3.1,5.8,4.1s5.5,1.5,8.7,1.6s6.2-0.2,8.9-0.4
						c2.7-0.2,5.2-0.2,7.3-0.1c2.1,0.1,3.8,0.5,4.9,0.8c0.6,0.2,1,0.3,1.3,0.4C488.1,152.7,488.2,152.8,488.2,152.8z"/>
				</g>
				<g>
					<path class="st10" d="M547.2,198.3c0,0-0.1,0.1-0.3,0.1c-0.2,0.1-0.5,0.2-0.9,0.3c-0.8,0.2-2.1,0.3-3.6-0.2s-3.2-1.4-4.8-3
						s-2.8-3.9-3.9-6.5c-1.1-2.6-2-5.5-3.8-8.2c-0.8-1.4-2-2.6-3.2-3.9c-1.3-1.2-2.7-2.3-4.2-3.2c-6.3-3.8-14.5-5.3-23-4.8
						c-8.5,0.4-16.4,2.1-23.8,2.6c-7.4,0.7-14.1-0.2-19.4-2s-9-4.7-11.1-7c-0.6-0.6-1-1.1-1.3-1.6c-0.4-0.5-0.7-0.9-0.9-1.2
						c-0.2-0.3-0.4-0.6-0.5-0.8s-0.2-0.3-0.1-0.3c0,0,0.1,0.1,0.2,0.3s0.3,0.4,0.5,0.8c0.2,0.3,0.5,0.8,0.9,1.2
						c0.4,0.5,0.8,1,1.4,1.5c2.1,2.2,5.8,5,11.1,6.8c5.3,1.8,11.9,2.6,19.3,1.9c7.3-0.5,15.3-2.2,23.8-2.7s16.8,1.1,23.2,5
						c1.6,0.9,3,2.1,4.3,3.3c1.2,1.3,2.4,2.5,3.2,4c1.8,2.8,2.7,5.8,3.8,8.3c1,2.6,2.2,4.8,3.7,6.4c1.5,1.6,3.2,2.6,4.6,3
						c1.5,0.5,2.7,0.4,3.5,0.3C546.8,198.4,547.2,198.2,547.2,198.3z"/>
				</g>
			</g>
			<g>
				<g>
					<g>
						<g>
							<g>
								<g>
									<g>
										<g>
											<g>
												<g>
													<g>
														<g>
															<g>
																<g>
																	<g>
																		<path class="st12" d="M389.9,84.6c-3.9-0.1-7.2,2.8-7.6,6.6l0,0l-8.1,84.2c-1.4,11.8,14.1,37.2,26.8,38.6l0,0
																			c12.8,1.4,14.1-4.8,15.7-16c2.8-18.7,3.7-25.8,3.7-25.7c0,0,16.5-0.6,22.6-21.2c3-10.3,4.8-27.5,5.7-41.7
																			c0.9-12.7-5.5-29.4-18.2-29.7L389.9,84.6z"/>
																	</g>
																</g>
															</g>
														</g>
													</g>
												</g>
											</g>
											<g>
												<g>
													<g>
														<g>
															<g>
																<g>
																	<g>
																		<g>
																			<path class="st11" d="M443.2,120.7c-0.1,1.4-1.5,2.5-3,2.4s-2.6-1.4-2.5-2.8c0.1-1.4,1.5-2.5,3-2.4
																				C442.2,118,443.3,119.3,443.2,120.7z"/>
																		</g>
																	</g>
																</g>
															</g>
														</g>
													</g>
												</g>
												<g>
													<g>
														<g>
															<g>
																<g>
																	<g>
																		<g>
																			<g>
																				<path class="st11" d="M444.3,115.2c-0.3,0.4-2.5-1-5.4-0.8s-5,1.8-5.3,1.5c-0.2-0.1,0.1-0.8,1-1.6
																					c0.9-0.7,2.4-1.5,4.2-1.6c1.8-0.1,3.4,0.4,4.3,1.1C444.1,114.5,444.5,115.1,444.3,115.2z"/>
																			</g>
																		</g>
																	</g>
																</g>
															</g>
														</g>
													</g>
												</g>
											</g>
											<g>
												<g>
													<g>
														<g>
															<g>
																<g>
																	<g>
																		<g>
																			<g>
																				<path class="st11" d="M417.5,122.2c-0.3,0.3-2.4-1.2-5.3-1.3s-5.1,1.3-5.4,1c-0.2-0.2,0.2-0.8,1.2-1.5
																					c0.9-0.7,2.5-1.3,4.4-1.2c1.8,0.1,3.3,0.8,4.2,1.5C417.3,121.4,417.6,122.1,417.5,122.2z"/>
																			</g>
																		</g>
																	</g>
																</g>
															</g>
														</g>
													</g>
												</g>
											</g>
											<g>
												<g>
													<g>
														<g>
															<g>
																<g>
																	<g>
																		<g>
																			<path class="st11" d="M422.9,137.7c0-0.2,1.9-0.2,4.8-0.2c0.8,0,1.5,0,1.7-0.5s0-1.4-0.2-2.3
																				c-0.5-1.9-0.9-3.9-1.5-5.9c-2-8.5-3.3-15.4-3-15.4c0.3-0.1,2.2,6.7,4.2,15.2c0.5,2.1,0.9,4.1,1.4,6
																				c0.2,0.9,0.5,1.9,0,3c-0.3,0.5-0.9,0.9-1.4,0.9c-0.5,0.1-0.9,0-1.3,0C424.7,138.1,422.9,137.9,422.9,137.7z"/>
																		</g>
																	</g>
																</g>
															</g>
														</g>
													</g>
												</g>
											</g>
											<g>
												<g>
													<g>
														<g>
															<g>
																<g>
																	<g>
																		<path class="st13" d="M420.4,172.4c0,0-14.3-1-27.2-11.2c0,0,5.2,15.4,26.6,16.2L420.4,172.4z"/>
																	</g>
																</g>
															</g>
														</g>
													</g>
												</g>
											</g>
										</g>
									</g>
								</g>
								<g>
									<g>
										<g>
											<g>
												<g>
													<g>
														<g>
															<path class="st11" d="M417.9,117.2c-0.5,0.7-3.2-0.3-6.7-0.7c-3.4-0.4-6.4-0.1-6.7-0.9c-0.1-0.4,0.5-1,1.8-1.5
																s3.2-0.8,5.2-0.6c2.1,0.3,3.8,1,4.9,1.8C417.6,116.1,418.1,116.9,417.9,117.2z"/>
														</g>
													</g>
												</g>
											</g>
										</g>
									</g>
								</g>
								<g>
									<g>
										<g>
											<g>
												<g>
													<g>
														<g>
															<path class="st11" d="M443.9,111.3c-0.5,0.7-2.5,0.1-5,0.2c-2.4,0-4.5,0.7-5,0c-0.2-0.3,0.1-1,0.9-1.7
																c0.9-0.7,2.3-1.3,4-1.3s3.1,0.5,4,1.1C443.8,110.3,444.1,111,443.9,111.3z"/>
														</g>
													</g>
												</g>
											</g>
										</g>
									</g>
								</g>
							</g>
						</g>
					</g>
				</g>
				<path class="st13" d="M415.8,143c1.3-0.9,3-1.2,4.6-1c0.8,0.1,1.6,0.5,2.1,1.1c0.7,0.8,0.8,2,0.7,3.1c0,0.6-0.1,1.3-0.3,1.9
					c-0.2,0.6-0.6,1.2-1.2,1.4c-0.6,0.3-1.3,0.2-2,0.1c-1.1-0.2-2.2-0.5-3.1-1.1s-1.6-1.6-1.7-2.7c-0.1-1.1,0.5-2.3,1.5-2.7"/>
				<g>
					<path class="st11" d="M423.7,149.4c-0.2,0.1-0.6-0.6-1.3-1.4c-0.7-0.9-1.8-2-3.2-2.8c-1.4-0.8-2.9-1.2-4.1-1.3
						c-1.1-0.2-1.9-0.2-1.9-0.4s0.7-0.6,1.9-0.7c1.2-0.1,3.1,0.1,4.8,1.1c1.7,1,2.9,2.4,3.4,3.6
						C423.9,148.6,423.9,149.4,423.7,149.4z"/>
				</g>
			</g>
			<path class="st11" d="M373.1,169.7c6.9-1.4,12.3-7.4,14.7-14c2.4-6.7,2.3-14,1.6-21c-0.1-0.9-0.2-1.9-1-2.5
				c-1.1-0.8-2.6-0.1-3.7,0.5c-4.4,2.7-8.6,5.6-12.6,8.8c-3.7,3-7.4,6.4-8.8,11c-2.2,7,2.4,15.3,9.5,17.2"/>
			<g>
				<path class="st12" d="M532.8,168L500,115.3l-9.1-18.5c0,0-2.9-3.8-5.9-7.1c-4.9-5.4-9.8-1.2-9.8-1.2s-0.7-2.1-3.3-2
					c-3.1,0-4.5,2.3-4.5,2.3s-1.3-1.5-5.1-1.7c-0.8,0-1.6,0.3-2.4,0.8c-1.2-1.1-3.5-2.6-5.6-1.8c-1.7,0.6-11.9,8.4-14.4,12.3
					c-1.2,1.9,1.1,4.4,4.2,3.3c1.4-0.5,2.7-0.9,3.7-1.5c1.7-1,2.5-2,2.5-2s-2.6,4.5,0,5.3c1.1,0.3,3.3,0.1,4.8-1.2
					c1-0.8,2.1-1.9,3.2-2.9c0,0.1-0.1,0.1-0.1,0.2c-1.4,2.1,2.3,5.2,4.1,3.9c0.9-0.6,1.7-1.3,2.4-1.9c4.2,3-1.6,6.9-4.1,6.7
					c-3.8-0.3-8.2-0.3-11.3,0c-2.1,0.2-4,0.7-5.2,1.9c-1.4,1.4,0.1,4.4,2,4.7c3.6,0.6,8.2,1.4,12.9,2.6c5.6,1.4,20.3,6.2,20.3,6.2
					l1.4,1.2l19.9,48.6l-34.1,7.2l-7.6,43.2l61.6-16.7C534.6,199.7,541.2,181.2,532.8,168z"/>
				<g>
					<path class="st13" d="M479.5,123.4c0,0-0.3,0-0.8-0.2c-0.6-0.2-1.3-0.4-2.2-0.6c-2-0.6-4.7-1.4-8.1-2.4
						c-1.7-0.5-3.6-1.1-5.6-1.7c-2-0.6-4.2-1.3-6.4-1.8c-2.3-0.6-4.7-1.2-7.2-1.5c-1.2-0.2-2.6-0.1-3.9-0.7
						c-0.3-0.2-0.6-0.4-0.9-0.7c-0.1-0.2-0.2-0.3-0.3-0.5l-0.1-0.5c-0.1-0.7-0.1-1.4,0.1-2.1c0.2-0.7,0.8-1.3,1.4-1.6
						s1.3-0.5,1.9-0.8c1.3-0.4,2.7-0.5,4-0.5c2.6,0,5,0.4,7.4,0.3c1.2,0,2.3-0.1,3.4-0.3s2.1-0.5,3.1-0.7c2-0.5,4-0.9,5.8-0.7
						s3.4,0.7,4.7,1.2c1.3,0.5,2.4,1.1,3.3,1.6c0.9,0.5,1.5,0.9,2,1.2c0.4,0.3,0.7,0.4,0.7,0.5s-0.3-0.1-0.7-0.4
						c-0.5-0.3-1.2-0.6-2-1.1c-0.9-0.5-2-1-3.3-1.5s-2.9-1-4.6-1.1c-1.8-0.2-3.7,0.2-5.7,0.8c-1,0.3-2.1,0.6-3.2,0.8
						s-2.3,0.3-3.5,0.4c-2.4,0.1-4.9-0.2-7.4-0.3c-1.3,0-2.6,0.1-3.8,0.5c-1.2,0.4-2.6,0.8-3,2.1c-0.2,0.6-0.2,1.3-0.1,1.9l0.1,0.5
						c0,0.1,0.1,0.2,0.2,0.3c0.2,0.2,0.4,0.4,0.7,0.5c1.1,0.6,2.5,0.5,3.8,0.7c2.6,0.3,5,0.9,7.3,1.5s4.4,1.3,6.4,1.9
						c2,0.6,3.9,1.2,5.6,1.8c3.4,1.1,6.1,1.9,8.1,2.6c0.9,0.3,1.6,0.5,2.2,0.7C479.3,123.3,479.5,123.4,479.5,123.4z"/>
				</g>
				<g>
					<path class="st13" d="M454.3,86.1c0.1,0.1-1.5,1-3.9,2.8c-1.2,0.9-2.5,2-3.9,3.4s-2.9,3-4.6,4.4c-0.8,0.7-1.7,1.5-1.8,2.5
						c-0.1,0.5-0.1,1,0.2,1.3c0.2,0.4,0.6,0.7,1,0.8c0.9,0.3,1.8,0.2,2.6,0.1c0.8-0.2,1.6-0.4,2.3-0.7c2.7-1.1,4-2.6,4.1-2.5
						c0,0-0.3,0.4-0.9,0.9s-1.6,1.3-3,1.9c-0.7,0.3-1.5,0.6-2.4,0.7c-0.9,0.2-1.9,0.3-2.9,0c-0.5-0.2-1-0.5-1.3-1s-0.4-1.1-0.2-1.7
						c0.2-1.2,1.2-2,2-2.8c1.7-1.5,3.2-3,4.6-4.4s2.8-2.5,4-3.3c1.2-0.9,2.2-1.5,3-1.9C453.8,86.3,454.2,86,454.3,86.1z"/>
				</g>
				<g>
					<path class="st13" d="M466.8,90.2c0,0-0.4,0.5-1.2,1.4c-0.8,0.9-1.9,2.1-3.3,3.6s-3.1,3.3-4.9,5.3c-0.9,1-2.1,2-3.5,2.6
						c-0.7,0.3-1.5,0.6-2.3,0.6s-1.7-0.3-2.3-0.9c-0.3-0.3-0.5-0.8-0.5-1.2s0-0.9,0.1-1.3c0.2-0.8,0.6-1.5,1.1-2.2l0,0l0,0
						c1.8-1.9,3.4-3.6,4.9-5.3c1.5-1.6,2.9-2.9,4.1-4c0.6-0.5,1.1-1.1,1.7-1.4s1.2-0.3,1.6-0.4c0.9-0.1,1.4,0,1.4,0.1
						c0,0-0.5,0-1.3,0.1c-0.4,0.1-1,0.1-1.5,0.4s-1,0.8-1.6,1.4c-1.1,1.1-2.6,2.5-4,4.1s-3.1,3.4-4.8,5.3l0,0c-0.4,0.6-0.8,1.3-1,2
						c-0.1,0.4-0.1,0.7-0.1,1.1c0.1,0.4,0.2,0.7,0.4,1c0.5,0.5,1.2,0.7,1.9,0.8c0.7,0,1.4-0.2,2.1-0.5c1.3-0.6,2.4-1.5,3.3-2.5
						c1.9-2,3.6-3.7,5-5.2c1.4-1.4,2.5-2.6,3.4-3.5c0.4-0.4,0.7-0.7,0.9-0.9C466.6,90.3,466.8,90.2,466.8,90.2z"/>
				</g>
				<g>
					<path class="st13" d="M482.1,95c0.1,0,0,0.3-0.4,0.6c-0.3,0.3-1,0.5-1.7,0.4s-1.2-0.6-1.4-0.9c-0.2-0.4-0.2-0.7-0.2-0.7
						c0.1,0,0.2,0.2,0.5,0.5c0.3,0.3,0.7,0.6,1.2,0.7c0.5,0.1,1,0,1.4-0.2C481.8,95.2,482,95,482.1,95z"/>
				</g>
				<g>
					<path class="st13" d="M483.3,99.6c-0.1,0.1-0.9-0.7-1.5-1.8c-0.7-1.1-1-2.1-0.8-2.2c0.1-0.1,0.6,0.8,1.3,1.9
						C482.9,98.7,483.4,99.5,483.3,99.6z"/>
				</g>
				<g>
					<path class="st13" d="M485.5,117.5c-0.1,0-0.5-0.7-0.9-2.1c-0.5-1.3-0.8-3.3-0.8-5.5s0.5-4.1,1-5.4c0.5-1.3,1-2.1,1-2.1
						c0.2,0.1-1.4,3.2-1.4,7.5C484.2,114.2,485.7,117.5,485.5,117.5z"/>
				</g>
				<g>
					<path class="st13" d="M512.4,186.8c-0.1,0-0.2-1.1-0.7-2.7c-0.3-0.8-0.7-1.8-1.2-2.7c-0.6-1-1.2-2-2.1-3
						c-0.9-1-1.8-1.8-2.7-2.5s-1.8-1.2-2.6-1.5c-1.5-0.7-2.6-1-2.6-1.1c0,0,0.3,0,0.8,0.1s1.2,0.3,2,0.6s1.7,0.8,2.7,1.5
						c0.9,0.7,1.9,1.5,2.8,2.5c0.9,1,1.6,2.1,2.1,3.1s0.9,2,1.1,2.9c0.2,0.8,0.3,1.5,0.4,2C512.5,186.5,512.5,186.8,512.4,186.8z"/>
				</g>
			</g>
			<g>
				<path class="st12" d="M398,283.1c-4.4-0.9-8.3,1.1-8.3,1.1c-4.5-2-9.9,1.4-9.9,1.4c-1.6-0.8-11.3,5.6-11.3,5.6l-12.1,5.7
					L291.9,249l18.3-19l-25.6-26.7l-30,30.9c-3.7,3.9-5.6,9.1-6,14.5c-0.8,11.7,5.9,22.7,16.4,28l76,39c0,0,8.1-0.3,17.3-2.7
					c6.6-1.7,17.8-6.7,17.8-6.7s0,0.3,2,4.2c3.6,7,8.9-0.6,8.9-0.6s1.1,2.5,2.1,3.4c4.6,4.4,7.7-1.5,7.7-1.5s1.4,2.4,5.5,0.6
					s-0.6-14.1-0.6-14.1s1.4,2.7,4-0.7C408.2,294.4,402.4,284,398,283.1z"/>
				<g>
					<path class="st13" d="M388.9,284.8c0,0,0.3-0.2,0.8-0.3c0.6-0.1,1.4-0.2,2.4,0.1c1,0.3,2.1,0.8,3.2,1.7
						c0.5,0.4,1.1,0.9,1.6,1.4c0.5,0.6,0.9,1.3,1.3,2c1.4,2.8,2.4,5.5,3,7.4c0.3,1,0.5,1.8,0.6,2.3c0.1,0.6,0.2,0.9,0.1,0.9
						s-0.4-1.2-1.1-3.1s-1.7-4.5-3.1-7.3c-0.3-0.7-0.7-1.3-1.2-1.9c-0.5-0.5-1-1-1.5-1.4c-1-0.8-2.1-1.4-3-1.7
						C390.2,284.3,388.9,284.9,388.9,284.8z"/>
				</g>
				<g>
					<path class="st13" d="M396.7,311.9c0,0-0.2-0.4-0.6-1.1c-0.4-0.8-0.9-1.8-1.4-3.1c-1.2-2.6-2.9-6.1-4.6-10.2
						c-0.8-2-1.6-4-2.6-5.5s-2.4-2.5-3.7-3.1c-1.3-0.6-2.4-0.7-3.2-0.6c-0.8,0.1-1.2,0.3-1.2,0.3s0.1-0.1,0.3-0.2
						c0.2-0.1,0.5-0.2,0.9-0.3c0.8-0.2,2-0.1,3.4,0.4c1.3,0.5,2.8,1.6,4,3.2c1.1,1.6,1.9,3.5,2.7,5.5c1.7,4,3.3,7.6,4.4,10.2
						c0.6,1.3,1,2.4,1.3,3.1C396.6,311.5,396.7,311.9,396.7,311.9z"/>
				</g>
				<g>
					<path class="st13" d="M367.1,296.5c0,0,0.4-0.2,1-0.6c0.8-0.4,1.7-0.8,2.9-1.4c0.6-0.3,1.3-0.6,2-0.9c0.8-0.3,1.7-0.5,2.6-0.4
						s1.9,0.4,2.7,1c0.8,0.6,1.4,1.5,2,2.4c0.5,0.9,1,1.8,1.4,2.7c0.4,0.9,0.9,1.7,1.3,2.5c0.9,1.6,1.7,2.9,2.3,4.2
						c0.6,1.2,1,2.2,1.3,2.9c0.3,0.7,0.4,1.1,0.3,1.1s-0.6-1.6-1.9-3.9c-0.6-1.2-1.5-2.5-2.4-4.1c-0.4-0.8-0.9-1.6-1.3-2.5
						s-0.9-1.8-1.4-2.6c-0.5-0.9-1.1-1.7-1.8-2.2c-0.7-0.6-1.6-0.9-2.5-1c-0.8-0.1-1.7,0-2.4,0.3c-0.7,0.3-1.4,0.6-2,0.9
						c-1.2,0.5-2.2,0.9-3,1.2C367.5,296.4,367.1,296.5,367.1,296.5z"/>
				</g>
				<g>
					<path class="st13" d="M368.5,291.2c0,0-0.3,0.2-0.9,0.6c-0.6,0.3-1.4,0.8-2.5,1.3c-2.1,1.1-5,2.6-8.3,4.3
						c-3.3,1.6-6.2,3.1-8.4,4.1c-1.1,0.5-2,0.9-2.6,1.2c-0.6,0.3-1,0.4-1,0.4s0.3-0.2,0.9-0.6c0.6-0.3,1.4-0.8,2.5-1.3
						c2.1-1.1,5.1-2.6,8.3-4.3c3.3-1.6,6.2-3.1,8.4-4.1c1.1-0.5,2-0.9,2.6-1.2C368.1,291.3,368.4,291.1,368.5,291.2z"/>
				</g>
				<g>
					<path class="st13" d="M292.7,249c0,0.2-3.4-0.8-7.6-0.2c-4.2,0.5-7.3,2.2-7.4,2c0-0.1,0.7-0.5,2-1.1s3.2-1.2,5.3-1.4
						c2.1-0.3,4.1-0.1,5.5,0.1C291.9,248.7,292.7,249,292.7,249z"/>
				</g>
			</g>
			<g>
				<path class="st11" d="M435.2,75.8c-16-0.2-32,1.5-47.5,5c-3.6,0.8-7.4,1.9-9.9,4.7c-2.6,2.9-3,7.1-3.4,11
					c-0.4,4.8-0.8,9.5-1.2,14.2c-0.7,1.2-1.5,2.3-2.3,3.4c-3.8,4.9-8.5,9-12,14.2c-3.4,5.2-5.3,12-2.5,17.5c1.7,3.3,4.8,5.7,7.1,8.7
					c3.9,5,5.1,11.5,7.4,17.4s6.3,12,12.6,13.2c3,0.6,6.1-0.1,9,0.4c4.5,0.7,8.2,3.6,11.8,6.4c3.6,2.8,7.4,5.6,11.9,6.1
					c4.5,0.4,9.6-2.6,9.7-7.1c-3.3,1.9-7.7,1.8-10.9-0.3c-2.6-1.7-4.3-4.5-6.6-6.7c-5.5-5.4-14.4-7.1-18.3-13.7
					c-3-5.3-1.8-11.9-0.5-17.8c1.2-5.1,2.4-10.7,0.9-15.7c0.1-0.8,0.2-1.6,0.2-2.4c0-5.3-2-10.9,0.4-15.6
					c3.2-6.2,12.6-6.9,15.9-13.1c1.9-3.6,1.2-8.1,3.3-11.6c2-3.3,5.9-4.8,9.6-5.6c3.7-0.8,7.6-1.2,10.9-3.1
					C434.3,83.4,436.7,79.3,435.2,75.8z"/>
				<g>
					<path class="st11" d="M447.3,183.1c0,0,0,0.1-0.2,0.2c-0.1,0.2-0.3,0.4-0.5,0.7c-0.4,0.6-1.2,1.4-2.3,2.3
						c-1.1,0.9-2.6,1.8-4.6,2.4c-1.9,0.7-4.3,1.1-6.8,0.8c-2.5-0.2-5.3-1.2-7.7-3.1c-2.4-1.8-4.5-4.3-7.2-6.2
						c-1.3-0.9-2.9-1.7-4.6-1.9s-3.4,0.2-5.1,0.9s-3.4,1.5-5.3,1.8s-3.9-0.1-5.7-1c-1.8-0.9-3.3-2-4.8-3.2s-2.9-2.3-4.2-3.7
						c-1.3-1.3-2.4-2.8-3-4.5c-0.7-1.7-0.7-3.5-0.3-5.2c0.3-1.7,0.9-3.2,1.5-4.7s1.1-2.9,1.5-4.3c0.9-2.8,1.5-5.5,1.8-8
						c0.8-5,0.8-9.1,0.6-11.9c-0.1-1.4-0.2-2.5-0.2-3.2c0-0.3-0.1-0.6-0.1-0.8s0-0.3,0-0.3s0,0.1,0.1,0.3c0,0.2,0.1,0.5,0.1,0.8
						c0.1,0.7,0.2,1.8,0.3,3.2c0.2,2.8,0.3,7-0.5,12c-0.4,2.5-0.9,5.2-1.8,8.1c-0.4,1.4-0.9,2.9-1.5,4.4s-1.2,3-1.5,4.6
						s-0.3,3.3,0.3,4.9c0.6,1.6,1.7,3.1,2.9,4.3c1.2,1.3,2.7,2.5,4.2,3.6s3,2.3,4.7,3.1s3.6,1.3,5.4,1s3.5-1.1,5.2-1.8
						s3.5-1.2,5.3-0.9c1.8,0.2,3.4,1,4.8,2c2.7,2,4.8,4.4,7.2,6.2c2.3,1.9,4.9,2.9,7.4,3.1c2.5,0.3,4.8-0.1,6.7-0.7
						c1.9-0.6,3.4-1.5,4.5-2.3C446.5,184.5,447.3,183,447.3,183.1z"/>
				</g>
				<g>
					<path class="st10" d="M347.4,151.3c0,0-0.3-0.4-0.8-1.1c-0.5-0.8-1.1-2-1.4-3.6c-0.4-1.7-0.4-3.8,0.1-6.2s1.6-5,3.5-7.4
						c1.8-2.4,4.3-4.7,7.2-6.8c2.9-2.1,6.1-4.1,9.4-6.4c3.2-2.3,6.5-5,8.9-8.6c1.2-1.8,2.1-3.8,2.7-6c0.6-2.1,1.1-4.4,1.6-6.6
						c0.5-2.3,1.1-4.5,2-6.6s2.2-4,3.9-5.4c1.7-1.4,3.7-2.5,5.7-3.1c2-0.7,4.1-1,6.1-1.2c4-0.3,7.9,0.1,11.4,0.4s6.9,0.5,9.9,0.1
						c3-0.3,5.6-1.2,7.7-2.3c2.1-1.1,3.7-2.5,4.7-3.8c1.1-1.3,1.6-2.5,1.9-3.3s0.4-1.3,0.4-1.3s-0.1,0.5-0.3,1.3
						c-0.3,0.9-0.8,2.1-1.9,3.4c-1,1.4-2.6,2.8-4.8,3.9c-2.1,1.2-4.8,2.1-7.8,2.4c-3,0.4-6.4,0.2-9.9-0.1c-3.6-0.2-7.4-0.7-11.3-0.3
						c-2,0.2-4,0.5-6,1.2c-2,0.6-3.9,1.6-5.5,3s-2.9,3.2-3.8,5.3c-0.9,2-1.5,4.2-2,6.5c-0.5,2.2-1,4.5-1.6,6.7
						c-0.7,2.2-1.5,4.3-2.8,6.1c-2.4,3.7-5.8,6.4-9,8.8c-3.3,2.3-6.5,4.3-9.4,6.4c-2.9,2.1-5.3,4.3-7.2,6.7
						c-1.9,2.4-2.9,4.9-3.5,7.3c-0.5,2.3-0.5,4.4-0.2,6.1C346.1,149.8,347.5,151.3,347.4,151.3z"/>
				</g>
				<g>
					<path class="st10" d="M350.4,156.5c0,0-1.2-0.9-3.1-2.9c-0.9-1-2-2.4-2.7-4.2c-0.3-0.9-0.6-2-0.5-3.1s0.6-2.3,1.3-3.3
						c1.6-2,4.3-3.1,7.1-3.6c1.4-0.3,2.9-0.5,4.4-0.9s3-0.9,4.3-1.8c1.3-0.9,2.3-2.2,3.1-3.7c0.8-1.5,1.3-3.1,1.9-4.8s1.2-3.4,2-5
						s2.1-3.1,3.8-4.2c1.6-1,3.4-1.6,5.2-2c1.8-0.5,3.5-0.8,5.2-1.4c3.3-1,6-3.3,7.9-5.8c2-2.5,3.5-5.2,4.9-7.7s2.9-4.8,4.5-6.7
						s3.4-3.3,5.1-4.2c1.7-0.9,3.4-1.3,4.8-1.4s2.5,0.1,3.2,0.3c0.7,0.2,1,0.4,1,0.4s-0.4-0.1-1.1-0.3c-0.7-0.2-1.8-0.3-3.1-0.2
						c-1.3,0.2-3,0.6-4.7,1.5c-1.7,0.9-3.4,2.3-5,4.2s-3,4.1-4.4,6.6s-2.9,5.2-4.9,7.8c-1,1.3-2.2,2.5-3.5,3.6s-2.9,1.9-4.6,2.5
						s-3.5,1-5.2,1.4c-1.7,0.5-3.5,1-5.1,2s-2.7,2.4-3.6,4c-0.8,1.6-1.4,3.3-2,4.9c-0.6,1.7-1.1,3.3-2,4.8c-0.8,1.5-1.9,2.9-3.3,3.8
						c-1.4,0.9-2.9,1.5-4.4,1.8c-1.5,0.4-3,0.6-4.4,0.9c-2.8,0.6-5.4,1.6-6.9,3.5c-0.7,0.9-1.2,2-1.3,3.1c-0.1,1.1,0.1,2.1,0.4,3
						c0.7,1.8,1.7,3.2,2.6,4.2s1.6,1.8,2.1,2.3c0.2,0.2,0.4,0.4,0.6,0.6C350.3,156.5,350.4,156.5,350.4,156.5z"/>
				</g>
			</g>
		</g>
		<g>
			<path class="st13" d="M473.5,91.9c0,0-0.2,0.3-0.5,0.8c-0.4,0.5-0.9,1.2-1.6,2c-1.4,1.6-3.3,3.8-5.6,6.1
				c-1.1,1.1-2.2,2.4-3.7,2.8c-0.7,0.2-1.5,0.2-2.1,0c-0.6-0.3-1.1-0.8-1.4-1.2c-0.5-1-0.4-2-0.4-2.5c0.1-0.6,0.2-0.9,0.2-0.9
				s0,0.3,0,0.9c0,0.6,0,1.5,0.5,2.3c0.3,0.4,0.7,0.8,1.2,1s1.2,0.2,1.8,0c1.3-0.4,2.3-1.6,3.5-2.7c2.3-2.3,4.3-4.5,5.7-6
				C472.5,92.9,473.4,91.9,473.5,91.9z"/>
		</g>
		<g>
			<path class="st13" d="M481.1,92c0,0-0.2,0.3-0.6,0.8c-0.4,0.5-1,1.2-1.8,2c-0.8,0.9-1.7,1.8-2.7,2.9c-0.5,0.5-1,1.1-1.6,1.7
				c-0.6,0.6-1.2,1.2-1.9,1.7c-0.7,0.5-1.6,0.9-2.4,1c-0.9,0.1-1.8-0.3-2.3-1c-0.2-0.3-0.4-0.8-0.4-1.2s0.2-0.8,0.3-1.1
				c0.4-0.6,0.7-1.1,1.1-1.5c0.7-0.9,1.2-1.6,1.6-2.1s0.6-0.8,0.6-0.7c0,0-0.1,0.3-0.5,0.9c-0.3,0.5-0.8,1.3-1.5,2.2
				c-0.3,0.5-0.7,1-1,1.5s-0.4,1.2,0,1.7s1.1,0.8,1.8,0.8c0.7-0.1,1.5-0.4,2.2-0.9s1.3-1.1,1.8-1.7c0.6-0.6,1.1-1.1,1.6-1.7
				c1-1,1.9-2,2.8-2.8c0.8-0.8,1.4-1.4,1.9-1.9S481.1,91.9,481.1,92z"/>
		</g>
	</g>
</g>
<g id="Plants">
	<g>
		<path class="st5" d="M585.5,398.1c1.7-3.7,5.3-6.5,9.4-7.2c4-0.7,8.4,0.7,11.2,3.6c-1.9,3.5-5.4,5.8-9.2,7.1
			C592.5,403.1,587.7,401.3,585.5,398.1"/>
		<g>
			<path class="st11" d="M578.4,399.7c0-0.1,1.1-0.5,2.9-0.9c1.8-0.4,4.3-0.9,7.1-1.4s5.3-0.8,7.2-1c1.8-0.2,3-0.3,3-0.2
				c0,0.1-1.1,0.3-2.9,0.6c-2,0.3-4.4,0.7-7.1,1.2c-2.8,0.5-5.3,0.9-7.1,1.2C579.5,399.5,578.4,399.8,578.4,399.7z"/>
		</g>
	</g>
	<g>
		<path class="st5" d="M228.1,334.8c4.2,3.5,6.6,9.2,6,14.6c-0.6,5.5-4.1,10.5-9,13C221.4,353.1,220,342.9,228.1,334.8"/>
		<g>
			<path class="st5" d="M242,342c0.4,7.1,4.5,13.9,10.7,17.5c6.1,3.6,14.1,3.8,20.5,0.7C266.1,349.1,256.7,339.8,242,342"/>
			<g>
				<path class="st11" d="M210.1,307.2c0,0,0.2,0.2,0.5,0.5c0.3,0.4,0.7,0.9,1.2,1.5c1.1,1.3,2.6,3.2,4.6,5.5
					c3.9,4.6,9.4,10.9,15.9,17.4c3.3,3.3,6.4,6.3,9.4,8.9s5.8,4.9,8.2,6.8c2.4,1.8,4.4,3.2,5.9,4c1.4,0.9,2.3,1.2,2.3,1.3
					c0,0-0.2-0.1-0.6-0.2c-0.4-0.2-1-0.4-1.8-0.9c-1.5-0.8-3.6-2.1-6-3.9s-5.2-4.1-8.3-6.7c-3-2.6-6.2-5.7-9.5-8.9
					c-6.5-6.5-12-12.9-15.8-17.5c-1.9-2.3-3.4-4.3-4.4-5.6c-0.5-0.6-0.9-1.2-1.2-1.6C210.2,307.4,210.1,307.2,210.1,307.2z"/>
			</g>
		</g>
		<g>
			<path class="st11" d="M227.3,349c-0.1,0,0.2-1.4,0.5-3.7c0.3-2.3,0.5-5.4,0.1-8.9s-1.2-6.5-1.9-8.7c-0.7-2.2-1.4-3.5-1.3-3.5
				c0,0,0.2,0.3,0.5,0.9s0.7,1.4,1.1,2.5c0.8,2.1,1.7,5.3,2.1,8.8s0.1,6.7-0.3,9c-0.2,1.1-0.4,2.1-0.6,2.7
				C227.5,348.7,227.3,349,227.3,349z"/>
		</g>
	</g>
	<g>
		<path class="st5" d="M668.6,146.6c-2.5-3.3-3.2-7.8-1.9-11.7s4.6-7,8.5-8.2c2.1,3.4,2.5,7.5,1.9,11.5
			C676.3,142.9,672.5,146.3,668.6,146.6"/>
		<g>
			<path class="st11" d="M666.7,153.7c-0.1,0,0.1-1.2,0.6-3s1.2-4.3,2.1-6.9c0.9-2.7,1.8-5.1,2.5-6.8s1.2-2.8,1.2-2.7
				c0.1,0-0.3,1.1-0.9,2.9c-0.7,1.9-1.5,4.3-2.4,6.8c-0.9,2.7-1.7,5.1-2.3,6.9C667.1,152.6,666.8,153.7,666.7,153.7z"/>
		</g>
	</g>
	<g>
		<g>
			<path class="st5" d="M624.5,221c-2.1-7.6-0.1-16.2,5-22.3c5.1-6,13.3-9.3,21.2-8.5c1.4,7.6-1,15.3-4.9,21.9
				C641.1,219.9,631.7,223.2,624.5,221"/>
			<g>
				<path class="st11" d="M595,250.6c0,0,0.1-0.2,0.4-0.5c0.3-0.4,0.8-0.9,1.3-1.5c1.1-1.3,2.8-3.1,4.9-5.3
					c4.2-4.4,10.1-10.4,16.6-17s12.5-12.5,16.8-16.8c2.1-2.1,3.9-3.8,5.1-5c0.6-0.6,1.1-1,1.4-1.4c0.3-0.3,0.5-0.5,0.5-0.4
					s-0.1,0.2-0.4,0.5c-0.3,0.4-0.8,0.8-1.3,1.4c-1.2,1.3-2.9,3-5,5.2c-4.3,4.4-10.2,10.3-16.7,16.9s-12.4,12.5-16.7,16.9
					c-2.1,2.1-3.8,3.9-5,5.1c-0.6,0.6-1,1-1.4,1.4C595.2,250.5,595,250.6,595,250.6z"/>
			</g>
			<g class="st14">
				<path d="M624.5,221c-2.1-7.6-0.1-16.2,5-22.3c5.1-6,13.3-9.3,21.2-8.5c1.4,7.6-1,15.3-4.9,21.9
					C641.1,219.9,631.7,223.2,624.5,221"/>
			</g>
		</g>
		<g>
			<path class="st5" d="M610.9,224c-4.3-2.2-7.4-6.7-8-11.5s1.3-9.9,4.9-13.1c4,2.5,6.6,6.8,7.9,11.3
				C617.2,216,614.9,221.6,610.9,224"/>
			<g class="st14">
				<path d="M610.9,224c-4.3-2.2-7.4-6.7-8-11.5s1.3-9.9,4.9-13.1c4,2.5,6.6,6.8,7.9,11.3C617.2,216,614.9,221.6,610.9,224"/>
			</g>
			<g>
				<path class="st11" d="M612.5,232.5c0,0-0.1-0.3-0.3-0.9s-0.4-1.5-0.6-2.6c-0.4-2.2-0.9-5.2-1.3-8.5c-0.4-3.3-0.7-6.4-0.8-8.6
					c-0.2-2.2-0.2-3.6-0.1-3.6c0.1,0,0.3,1.3,0.5,3.5c0.3,2.3,0.6,5.3,1,8.5c0.4,3.3,0.8,6.3,1.1,8.5
					C612.3,231.2,612.5,232.5,612.5,232.5z"/>
			</g>
		</g>
	</g>
	<g>
		<path class="st5" d="M423.6,339.9c3-7.2,9.9-12.6,17.6-14s16,1.3,21.4,7C451.2,341.6,438,347.6,423.6,339.9"/>
		<g class="st14">
			<path d="M423.6,339.9c3-7.2,9.9-12.6,17.6-14s16,1.3,21.4,7C451.2,341.6,438,347.6,423.6,339.9"/>
		</g>
		<g>
			<path class="st11" d="M417.2,343.4c0,0,0.3-0.3,0.9-0.7c0.6-0.4,1.5-1,2.6-1.7c2.3-1.3,5.5-2.9,9.3-4.2c3.8-1.3,7.4-1.9,10-2.2
				c1.3-0.1,2.4-0.2,3.1-0.2s1.1,0,1.1,0c0,0.1-1.6,0.2-4.2,0.6s-6.1,1.1-9.9,2.3c-3.8,1.2-7,2.8-9.3,4
				C418.6,342.6,417.3,343.5,417.2,343.4z"/>
		</g>
	</g>
	<g>
		<path class="st5" d="M160,209.6c5.5-2.5,12.2-2.2,17.3,1s8.5,9,8.7,15C175,224.8,164.3,221.4,160,209.6"/>
		<g class="st14">
			<path d="M160,209.6c5.5-2.5,12.2-2.2,17.3,1s8.5,9,8.7,15C175,224.8,164.3,221.4,160,209.6"/>
		</g>
		<g>
			<path class="st11" d="M154.5,208.3c0,0,0.3,0,0.9,0c0.6,0.1,1.4,0.2,2.4,0.4c2,0.4,4.7,1.2,7.5,2.4c2.8,1.3,5.2,2.7,6.9,3.9
				c0.8,0.6,1.5,1.1,1.9,1.5s0.6,0.6,0.6,0.6c-0.1,0.1-1-0.7-2.7-1.8c-1.7-1.1-4.1-2.5-6.9-3.8c-2.8-1.2-5.5-2-7.4-2.5
				C155.8,208.6,154.5,208.4,154.5,208.3z"/>
		</g>
	</g>
	<g>
		<path class="st5" d="M518.4,327.7c-0.6-5.4,1.6-11,5.7-14.5c4.1-3.5,10-4.7,15.2-3.2C535.5,319.2,529.6,327.3,518.4,327.7"/>
		<g>
			<path class="st11" d="M515.7,332c-0.1,0,0.4-1.1,1.2-2.7c0.9-1.6,2.3-3.7,4.1-5.7c1.9-2.1,3.8-3.7,5.3-4.7
				c1.5-1.1,2.5-1.6,2.5-1.5s-0.9,0.7-2.3,1.8c-1.4,1.1-3.3,2.8-5.1,4.8s-3.3,4.1-4.2,5.6C516.3,331,515.8,332,515.7,332z"/>
		</g>
	</g>
	<g>
		<path class="st5" d="M597.1,275.7c-1.6-5.1-0.5-11.1,2.9-15.3c3.4-4.2,9-6.5,14.3-6C612.3,264.2,608,273.3,597.1,275.7"/>
		<g class="st14">
			<path d="M597.1,275.7c-1.6-5.1-0.5-11.1,2.9-15.3c3.4-4.2,9-6.5,14.3-6C612.3,264.2,608,273.3,597.1,275.7"/>
		</g>
		<g>
			<path class="st11" d="M595.3,280.4c-0.1,0,0.2-1.1,0.7-2.8c0.6-1.7,1.6-4,3-6.4s3-4.3,4.3-5.7c1.3-1.3,2.1-2,2.2-2
				c0.1,0.1-0.7,0.9-1.9,2.2c-1.2,1.4-2.7,3.3-4.1,5.7c-1.4,2.3-2.4,4.6-3.1,6.3C595.7,279.4,595.4,280.5,595.3,280.4z"/>
		</g>
	</g>
	<g>
		<path class="st5" d="M3.9,204.2c1.2-5.3,5.1-9.8,10.2-11.7c5-1.9,11-1.1,15.4,2C22.8,201.9,14.6,207.6,3.9,204.2"/>
		<g>
			<path class="st11" d="M0,207.4c0,0,0.7-0.9,2.1-2.1c1.4-1.2,3.4-2.7,5.8-4c2.4-1.3,4.8-2.2,6.5-2.7s2.9-0.7,2.9-0.6
				c0,0.1-1.1,0.4-2.8,1s-4,1.5-6.4,2.8s-4.4,2.8-5.8,3.9C0.9,206.7,0,207.5,0,207.4z"/>
		</g>
	</g>
</g>
<g id="Speech_Bubble">
	<g>
		<g>
			<g>
				<g>
					<path class="st7" d="M461,73.7l8-14.5c-3.7-5.8-5.8-12.7-5.9-20.1C462.9,17.8,480,0.4,501.3,0.2C522.6,0,540,17.1,540.2,38.4
						S523.3,77.1,502,77.3c-8.9,0.1-17.1-2.9-23.7-7.8l0,0L461,73.7z"/>
					<g>
						<path class="st11" d="M461,73.7c0.9-0.2,6.3-1.6,17.4-4.4l-0.1,0.2l0,0l-0.6-0.8l0.8,0.6c2.2,1.7,4.9,3.3,7.9,4.6
							c3.1,1.3,6.6,2.4,10.5,2.8c1.9,0.2,4,0.4,6.1,0.2c1-0.1,2.1-0.1,3.2-0.2c1.1-0.2,2.1-0.3,3.2-0.5c4.3-0.9,8.7-2.6,12.8-5.2
							s7.9-6.1,10.9-10.4s5.3-9.3,6.3-14.8s0.9-11.3-0.6-16.9s-4.2-11.1-8.3-15.6l-1.6-1.7c-0.5-0.6-1.1-1-1.7-1.6
							c-0.6-0.5-1.1-1.1-1.7-1.5l-1.8-1.3c-0.6-0.5-1.3-0.9-1.9-1.2l-1.9-1.2c-0.7-0.3-1.4-0.6-2-1c-0.7-0.3-1.3-0.7-2-0.9
							c-5.5-2.1-11.5-2.9-17.1-2.5c-5.6,0.5-11,2.1-15.6,4.8c-4.6,2.6-8.5,6.1-11.5,10s-5.1,8.2-6.4,12.4c-1.3,4.3-1.6,8.5-1.6,12.4
							c0.3,7.9,2.9,14.4,5.8,19v0.1v0.1C463.9,68.5,461.4,72.9,461,73.7c0.4-0.8,2.9-5.3,7.9-14.5v0.1c-2.9-4.6-5.6-11.1-5.9-19.1
							c-0.1-4,0.3-8.2,1.6-12.6c1.3-4.3,3.4-8.6,6.5-12.6c3-3.9,7-7.5,11.6-10.1c4.7-2.7,10.1-4.4,15.8-4.8
							c5.7-0.5,11.7,0.3,17.3,2.5c0.7,0.2,1.4,0.6,2.1,0.9c0.7,0.3,1.4,0.6,2.1,1l2,1.2c0.7,0.4,1.3,0.8,1.9,1.2l1.9,1.4
							c0.6,0.4,1.2,1,1.8,1.5s1.2,1,1.7,1.6l1.6,1.7c4.1,4.5,6.9,10.1,8.4,15.8c1.5,5.7,1.7,11.6,0.6,17.2c-1,5.5-3.3,10.6-6.4,15
							c-3,4.3-6.9,7.9-11,10.5s-8.6,4.3-12.9,5.2c-1.1,0.2-2.2,0.4-3.3,0.5s-2.1,0.1-3.2,0.2c-2.1,0.1-4.1,0-6.1-0.3
							c-3.9-0.5-7.5-1.6-10.6-2.9c-3.1-1.4-5.8-3-8-4.7l0.2-0.2l0,0l0.1,0.2h-0.2C467.3,72.2,461.9,73.5,461,73.7z"/>
					</g>
				</g>
			</g>
		</g>
		<g>
			<g>
				<path class="st5" d="M491,32.1h5c0,0,0-4.2,4.3-4.3c2.3-0.1,3.5,1.4,4,2.6c0.6,1.3,0.4,2.8-0.3,4.1c-0.8,1.4-2.7,2.7-6.1,2.1
					l0.1,11.3h5l-0.1-6.6c0,0,6.9-1.9,6.9-9.5c-0.1-7.3-6.7-9-9.5-8.9C498.1,22.7,490.8,23.3,491,32.1z"/>
				
					<rect x="498" y="50.1" transform="matrix(1 -9.598448e-03 9.598448e-03 1 -0.4808 4.8067)" class="st5" width="5" height="4.7"/>
			</g>
		</g>
	</g>
</g>
</svg>
