<?xml version="1.0" encoding="utf-8"?>
<!-- Generator: Adobe Illustrator 25.2.3, SVG Export Plug-In . SVG Version: 6.00 Build 0)  -->
<svg version="1.1" id="Capa_1" xmlns="http://www.w3.org/2000/svg" xmlns:xlink="http://www.w3.org/1999/xlink" x="0px" y="0px"
	 viewBox="0 0 312 244.3" style="enable-background:new 0 0 312 244.3;" xml:space="preserve">
<style type="text/css">
	.st0{fill:#B7AC95;}
	.st1{fill:#E0E0E0;}
	.st2{fill:#EB996E;}
	.st3{fill:#FF725E;}
	.st4{opacity:0.3;}
	.st5{fill:#455A64;}
	.st6{fill:#263238;}
	.st7{fill:#936754;}
	.st8{fill:#7C5142;}
	.st9{fill:#FFBE9D;}
	.st10{fill:#FAFAFA;}
</style>
<path class="st0" d="M227.8,241.8c-21.3-8.8-30.8-31.8-34.9-53.5c-0.7-3.6-1.9-7.3-0.9-10.8c1-3.5,4.5-6.6,8.1-5.8
	c2.9,0.7,4.8,3.5,6.9,5.7c2.8,3,6.3,5.1,10.2,6.2c2.6,0.7,5.5,0.8,7.5-1c2.7-2.4,2.1-6.7,1.3-10.3l-4.6-19.9
	c-0.8-3.6-1.6-7.2-1.3-10.9c0.4-3.6,2.1-7.3,5.3-9c3.2-1.7,7.8-0.7,9.3,2.7c0.6,1.4,0.7,3,1.1,4.4c0.4,1.5,1.5,2.9,3,3
	c1.5,0.1,2.7-1.2,3.6-2.5c2.9-4.4,4.4-9.6,5.7-14.8c1.3-5.1,2.5-10.4,5-15.1c2.5-4.7,6.4-8.8,11.4-10.3c5-1.4,11.2,0.5,13.6,5.3
	s0.6,10.5-1.7,15.3c-3.4,7.1-7.8,13.7-13.1,19.5c-0.9,1.1-2,2.2-2.1,3.6c-0.2,2.6,2.5,4.4,5.1,4.7c2.9,0.3,5.7-0.6,8.5-0.9
	c2.9-0.3,6.2,0.3,7.8,2.7c2.3,3.3,0.1,7.8-2.4,11c-4.9,6.4-10.9,11.8-17.6,16.2c-2.4,1.5-5,3-6.7,5.3c-1.7,2.3-2.3,5.8-0.4,8
	c1.8,2.2,5.3,2.3,7.9,1.2c2.6-1.1,4.8-3.2,7.2-4.7c4.5-2.9,10.9-4,15-0.5c2.7,2.3,3.7,6.2,3.4,9.7c-0.3,3.6-1.8,6.9-3.5,10
	c-5.8,11-14.2,20.6-24.7,27.1C250.3,240,240,243.4,227.8,241.8"/>
<path class="st1" d="M230.3,227.1c0.7-11.6,2.6-24.2,5-37.3c0.6-3.3,1.2-6.5,1.8-9.7c0.6-3.2,1.2-6.3,2-9.4
	c1.5-5.9,3.3-11.6,5.5-17.3c2-5.4,4.1-10.5,6.1-15.2c2-4.7,4-9.1,5.9-13c3.1-6.2,6.6-12.1,10.6-17.7c1.4-2,2.6-3.5,3.4-4.5
	c0.4-0.5,0.7-0.9,0.9-1.1c0.1-0.1,0.2-0.3,0.3-0.4c-0.1,0.1-0.2,0.3-0.3,0.4c-0.2,0.3-0.5,0.7-0.9,1.2c-0.7,1-1.9,2.6-3.2,4.6
	c-3.9,5.7-7.4,11.6-10.4,17.8c-1.9,3.9-3.8,8.3-5.8,13c-2,4.7-4,9.8-6.1,15.2c-2.1,5.6-3.9,11.4-5.4,17.2c-0.8,3-1.3,6.2-2,9.4
	c-0.6,3.2-1.2,6.4-1.8,9.7c-2.4,13.1-4.3,25.7-5.1,37.2"/>
<path class="st1" d="M239.3,170.6c-0.3-0.5-0.5-0.9-0.7-1.4c-0.4-0.9-0.9-2.3-1.6-4c-1.3-3.4-2.9-8.3-4.7-13.6
	c-1.8-5.3-3.5-10.1-4.8-13.5c-0.7-1.7-1.2-3.1-1.6-4c-0.2-0.5-0.4-1-0.5-1.5c0.3,0.4,0.6,0.9,0.8,1.4c0.5,0.9,1.1,2.3,1.8,4
	c1.5,3.4,3.2,8.2,5,13.5c1.8,5.3,3.3,10,4.5,13.6c0.6,1.6,1,3,1.4,4.1C239.1,169.6,239.2,170.1,239.3,170.6z"/>
<path class="st1" d="M283.3,151.8c-0.6,0.3-1.2,0.5-1.8,0.6c-1.2,0.4-2.8,0.9-4.9,1.6c-4.1,1.4-9.7,3.5-15.8,6.1
	c-6.1,2.6-11.5,5.2-15.3,7.2c-1.9,1-3.5,1.8-4.5,2.4c-0.5,0.3-1.1,0.6-1.7,0.8c0.5-0.4,1-0.8,1.6-1.1c1-0.6,2.5-1.5,4.4-2.6
	c3.8-2.1,9.2-4.8,15.3-7.4c5.2-2.3,10.5-4.2,15.9-5.9c2.1-0.7,3.8-1.1,5-1.4C282.1,152,282.7,151.9,283.3,151.8z"/>
<path class="st1" d="M230.7,226.1c0,0-0.2-0.2-0.4-0.5l-1.2-1.5c-1-1.3-2.4-3.2-4.1-5.6c-3.4-4.8-7.9-11.5-12.7-19
	c-4.8-7.5-9.2-14.3-12.5-19.1l-3.9-5.7l-1.1-1.6c-0.1-0.2-0.3-0.4-0.3-0.6c0.2,0.1,0.3,0.3,0.4,0.5l1.2,1.5c1,1.3,2.4,3.2,4.1,5.6
	c3.4,4.8,7.9,11.5,12.7,19c4.8,7.5,9.2,14.3,12.5,19.1c1.6,2.3,2.9,4.3,3.9,5.7c0.4,0.6,0.8,1.1,1.1,1.6
	C230.5,225.7,230.6,225.9,230.7,226.1z"/>
<path class="st1" d="M287.3,192.8c-0.2,0.2-0.3,0.3-0.5,0.4l-1.6,1l-6.1,3.6c-5.1,3-12.1,7.3-19.9,12c-7.8,4.7-14.8,8.9-20,11.8
	c-2.6,1.5-4.7,2.6-6.2,3.4l-1.7,0.9c-0.2,0.1-0.4,0.2-0.6,0.3c0,0,0.2-0.2,0.5-0.4l1.6-1l6.1-3.6c5.1-3,12.1-7.3,19.9-12
	c7.8-4.7,14.8-8.9,20-11.8c2.6-1.5,4.7-2.6,6.2-3.4l1.7-0.9C286.9,193,287.1,192.9,287.3,192.8z"/>
<path class="st1" d="M196,77.9c1.7-1.8,3.5-3.5,5.3-5.1c1.8-1.7,3.7-3.3,5.6-4.8c-1.7,1.8-3.5,3.5-5.3,5.1
	C198.6,75.9,196.1,78,196,77.9z"/>
<path class="st0" d="M4.4,110.4c0,0-7.4,2.1-0.9,18s11.2,23.9,11.2,23.9s1.1,3.6-1.9,3.9c-3,0.3-9.5-1.3-11.1,2.2
	c-1.7,3.7,0.7,7.5,6.1,11.1c5.3,3.6,16.6,11.9,17.6,12.7s1.9,2.5-0.1,3c-2,0.5-16.9,0.8-16.3,7.9c0.6,7,16.9,14.6,18.7,15.5
	c1.8,0.8,2.1,1.7,1.9,2.7c-0.2,1-5.2,0.6-9.5,0.9c-4.2,0.3-9.1,1.3-8.4,5.3c0.7,4,10,13.2,34.1,17.7l11.3,1.3l7-9.1
	c13.8-20.3,13.8-33.4,11.4-36.7c-2.4-3.3-6.5-0.6-9.7,2.2c-3.2,2.8-6.4,6.6-7.3,6.1c-0.9-0.5-1.2-1.3-0.6-3.2
	c0.6-1.9,6.7-18.8,2.1-24.2c-4.6-5.4-15.3,5-17.1,6.1c-1.8,1.1-2.4-0.8-2.2-2c0.2-1.2,2.2-15.1,3.4-21.4c1.2-6.3,0.2-10.7-3.6-12.1
	c-3.7-1.3-7.1,4.4-9.4,6.3c-2.4,1.9-4.2-1.4-4.2-1.4s-2.4-9-9.1-24.7C11,106.6,4.2,110.5,4.2,110.5"/>
<path class="st1" d="M55.6,234.4C50.7,222.8,44,206.7,36.7,189c-7.3-17.8-13.9-33.9-18.7-45.5l-5.8-13.8l-1.6-3.7l-0.4-1
	c-0.1-0.2-0.1-0.3-0.1-0.3s0.1,0.1,0.2,0.3l0.4,1l1.6,3.7c1.4,3.2,3.4,7.9,5.9,13.7C23.1,155,29.8,171,37,188.8s13.9,33.9,18.8,45.5
	"/>
<path class="st1" d="M10.5,161c0.3,0.1,0.5,0.2,0.8,0.3c0.5,0.2,1.2,0.5,2,0.9c1.7,0.8,4,2,6.6,3.3l6.6,3.4l2,1
	c0.3,0.1,0.5,0.2,0.7,0.4c-0.3-0.1-0.5-0.2-0.8-0.3c-0.5-0.2-1.2-0.5-2-0.9c-1.7-0.8-4-2-6.6-3.4l-6.6-3.4l-2-1
	C11,161.3,10.8,161.2,10.5,161z"/>
<path class="st1" d="M30.1,169.7c-0.1,0,2.1-5,4.9-11s5.1-10.9,5.2-10.9c0.1,0-2.1,5-4.9,11C32.5,164.9,30.1,169.8,30.1,169.7z"/>
<path class="st1" d="M40,197.6c0.1-0.2,0.3-0.5,0.5-0.7l1.5-1.7c1.3-1.5,3-3.5,4.8-5.8c1.8-2.3,3.4-4.4,4.6-6l1.3-1.8
	c0.2-0.2,0.3-0.5,0.5-0.7c-0.1,0.3-0.2,0.5-0.4,0.7c-0.3,0.5-0.7,1.1-1.3,1.9c-1.1,1.6-2.7,3.8-4.5,6.1c-1.8,2.3-3.6,4.3-4.9,5.7
	c-0.7,0.7-1.2,1.3-1.6,1.6C40.4,197.2,40.2,197.4,40,197.6z"/>
<path class="st1" d="M20.6,193.5c0.3,0,0.5,0,0.8,0.1c0.5,0.1,1.2,0.2,2.1,0.3c1.8,0.3,4.2,0.8,6.9,1.3c2.7,0.5,5.1,1,6.8,1.4
	l2.1,0.5c0.3,0,0.5,0.1,0.7,0.2c-0.3,0-0.5,0-0.8-0.1c-0.5-0.1-1.2-0.2-2.1-0.3c-1.8-0.3-4.2-0.8-6.9-1.3c-2.7-0.5-5.1-1-6.8-1.4
	c-0.9-0.2-1.6-0.4-2.1-0.5C21.1,193.7,20.9,193.6,20.6,193.5z"/>
<path class="st1" d="M26.3,219.2c0.3,0,0.7,0,1,0.1l2.7,0.4c2.3,0.4,5.4,0.9,8.8,1.6c3.4,0.6,6.5,1.2,8.8,1.7l2.7,0.6
	c0.3,0.1,0.7,0.1,1,0.3c-0.3,0-0.7,0-1-0.1l-2.7-0.4c-2.3-0.4-5.4-0.9-8.8-1.6c-3.4-0.6-6.5-1.2-8.8-1.7l-2.7-0.5
	C27,219.4,26.6,219.3,26.3,219.2z"/>
<path class="st1" d="M50.6,223.5c0.2-0.3,0.4-0.6,0.7-0.9c0.5-0.6,1.1-1.3,1.8-2.3c1.5-1.9,3.6-4.6,5.9-7.5c2.3-3,4.2-5.7,5.6-7.7
	l1.7-2.4c0.2-0.3,0.4-0.6,0.7-0.8c-0.1,0.3-0.3,0.6-0.5,0.9c-0.4,0.6-0.9,1.4-1.6,2.4c-1.3,2-3.3,4.8-5.6,7.8s-4.4,5.6-6,7.5
	c-0.8,0.9-1.4,1.7-1.9,2.2C51.2,223,50.9,223.3,50.6,223.5z"/>
<path class="st1" d="M64.5,45.9c0.4,0.3,0.9,0.7,1.2,1.1c0.7,0.7,1.7,1.7,2.8,2.7c1.1,1.1,2,2.1,2.7,2.8c0.4,0.4,0.7,0.8,1,1.2
	c-0.5-0.3-0.9-0.7-1.2-1.1c-0.7-0.7-1.7-1.7-2.8-2.7c-1.1-1.1-2-2.1-2.7-2.8C65.1,46.8,64.8,46.4,64.5,45.9z"/>
<path class="st1" d="M158,1.7c0.5,0.3,0.9,0.7,1.2,1.1c0.7,0.7,1.7,1.6,2.8,2.7c1.1,1.1,2,2.1,2.7,2.8c0.4,0.4,0.7,0.8,1,1.2
	c-0.4-0.3-0.9-0.7-1.2-1.1c-0.7-0.7-1.7-1.7-2.8-2.7c-1.1-1.1-2-2.1-2.7-2.8C158.6,2.5,158.3,2.1,158,1.7z"/>
<path class="st2" d="M123.6,96.2l-4.4-0.1c1.1,8,2.3,16,3.4,23.9c33.4,0.7,66.6-16.6,85.1-44.3L123.6,96.2z"/>
<path class="st3" d="M90.8,100.2c1.8,0,35.2-6.1,35.2-6.1l6.3,30.2l-31.9,21.3L90.8,100.2z"/>
<g class="st4">
	<path d="M90.8,100.2c1.8,0,35.2-6.1,35.2-6.1l6.3,30.2l-31.9,21.3L90.8,100.2z"/>
</g>
<path class="st5" d="M151,99c0,0-25.2,4-32.5,13.9c-7.4,9.9-14.4,12.2-11,36.2c0,0,30.5,10.5,30.5,11.3c0,0.8,6.1,83.2,6.1,83.2H228
	l-6.1-98.2l28-19c0,0-11.7-42.1-37.2-40C175.2,89.4,151,99,151,99z"/>
<path class="st6" d="M195.1,193.2c0,0.1-0.1,0.3-0.1,0.4l-0.4,1.1c-0.2,0.5-0.4,1-0.7,1.7c-0.3,0.6-0.6,1.3-1,2.2
	c-0.4,0.8-0.8,1.6-1.3,2.6c-0.5,0.9-1,1.9-1.6,2.8c-1.3,2.1-2.8,4.2-4.3,6.1c-1.6,1.9-3.3,3.8-5.1,5.5c-0.8,0.8-1.6,1.5-2.4,2.2
	c-0.8,0.7-1.5,1.3-2.2,1.8c-0.7,0.5-1.3,1-1.9,1.4c-0.6,0.4-1.1,0.7-1.5,1l-1,0.6c-0.1,0.1-0.2,0.1-0.3,0.2c0,0,0.1-0.1,0.3-0.2
	l0.9-0.7c0.4-0.3,0.9-0.6,1.4-1c0.6-0.4,1.2-0.9,1.9-1.4c0.7-0.6,1.4-1.1,2.2-1.8c0.8-0.7,1.6-1.4,2.4-2.2c1.8-1.7,3.5-3.6,5.1-5.5
	c1.6-1.9,3-4,4.3-6.1c0.6-1,1.2-1.9,1.7-2.8c0.5-0.9,0.9-1.7,1.3-2.5c0.4-0.8,0.7-1.5,1-2.1c0.3-0.6,0.5-1.2,0.7-1.6
	c0.2-0.5,0.3-0.8,0.4-1C194.9,193.4,195,193.3,195.1,193.2z"/>
<path class="st6" d="M197.4,182.5c-0.2,0.3-0.4,0.6-0.6,0.9c-0.4,0.6-1.1,1.4-1.9,2.4c-4.2,5.3-9,10.1-14.2,14.4
	c-1,0.8-1.8,1.5-2.4,1.9c-0.3,0.2-0.6,0.4-0.9,0.6c0.3-0.3,0.5-0.5,0.8-0.7c0.6-0.5,1.3-1.1,2.3-2c2-1.7,4.6-4,7.4-6.9
	c2.8-2.8,5.1-5.5,6.8-7.5c0.8-1,1.5-1.8,1.9-2.4C196.9,183.1,197.2,182.8,197.4,182.5z"/>
<path class="st6" d="M120.9,16.5c-1.1-1.2-3.1,0.2-3.6,1.7c-0.5,1.5-0.7,3.4-2,4.2c-1.8,1.1-4.8-0.2-5.8,1.6
	c-0.8,1.4,0.7,3.1,0.5,4.7c-0.4,2.9-5.3,2.7-6.4,5.3c-0.7,1.6,0.4,3.3,1.2,4.8c0.8,1.5,1.3,3.7-0.1,4.7c-1.4,1-3.6,0.2-4.7,1.5
	c-1.4,1.7,1.2,4.1,1,6.4c-0.2,1.6-1.9,2.6-3.5,3.1c-1.6,0.5-3.3,0.9-4.3,2.3c-2.1,3,1.8,6.9,1.2,10.5c-0.4,2.2-2.4,4.2-1.6,6.3
	c0.9,2.7,5.4,2.6,6.3,5.2c0.8,2.3-1.6,5.2,0.1,6.9c1.6,1.7,4.6-0.4,6.7,0.6c2.5,1.1,2.5,5.5,5.1,5.8c1.2,0.2,2.3-0.7,3.5-0.6
	c2.9,0.1,4.2,5,7.1,4.5c1.7-0.3,2.8-2.4,4.5-2.2c1.7,0.2,2.1,2.5,3.6,3.3c2.3,1.2,4.5-2,7.1-2.3c1.6-0.2,3.3,0.7,4.8,0.2
	c1.5-0.5,2.4-2,2.6-3.6c0.1-1.5-0.1-3.1-0.6-4.6c-1.8-8.4-1.2-17,1.7-25.1"/>
<path class="st7" d="M138.3,106l-1.1-13.3c0,0-13.3-0.6-18.1-17.3c-2.4-8.3-3.6-22.3-4.3-33.8c-0.7-12.6,11.6-27.3,21.9-27.4
	l31.5,7.7l0.6,5.5l6.8,75.3c0.4,4.9-1.1,9.8-4.2,13.6c-3.1,3.8-7.6,6.2-12.5,6.7c-2.5,0.3-5,0-7.3-0.7c-2.4-0.7-4.6-1.9-6.5-3.5
	c-1.9-1.6-3.5-3.5-4.6-5.7C139.2,110.9,138.5,108.5,138.3,106z"/>
<path class="st6" d="M127.6,49.6c-0.4-0.2-1.4,1.6-3.6,2.5c-2.2,0.9-4.3,0.4-4.4,0.8c-0.1,0.2,0.4,0.5,1.3,0.8
	c1.2,0.3,2.5,0.2,3.7-0.3c1.1-0.5,2.1-1.3,2.8-2.3C127.7,50.2,127.8,49.6,127.6,49.6z"/>
<path class="st6" d="M150.1,48c-0.2-0.3-2.1,0.7-4.4,0.3c-2.3-0.3-3.9-1.7-4.2-1.5c-0.1,0.1,0.1,0.7,0.7,1.3
	c0.9,0.9,2.1,1.4,3.3,1.6c1.2,0.2,2.5,0,3.6-0.6C149.9,48.6,150.3,48.1,150.1,48z"/>
<path class="st6" d="M135.5,64.7c0-0.1-1.5-0.2-3.9-0.2c-0.6,0-1.2,0-1.3-0.4c-0.1-0.6-0.1-1.3,0.2-1.8c0.4-1.5,0.8-3.1,1.2-4.8
	c1.7-6.8,2.8-12.4,2.5-12.5c-0.3-0.1-1.9,5.4-3.5,12.2c-0.4,1.7-0.8,3.3-1.2,4.8c-0.1,0.7-0.4,1.5,0,2.4c0.1,0.2,0.3,0.4,0.5,0.5
	c0.2,0.1,0.4,0.2,0.6,0.3c0.3,0,0.7,0,1,0C134,65,135.5,64.8,135.5,64.7z"/>
<path class="st8" d="M137.2,92.8c8.1-0.8,15.7-3.9,22.1-8.9c0,0-4.5,12.5-21.8,13L137.2,92.8z"/>
<path class="st8" d="M137.2,70.2c0.4-0.6,0.9-1.1,1.5-1.5c0.6-0.4,1.3-0.5,2.1-0.5c0.5,0,1,0.1,1.5,0.3c0.5,0.2,0.9,0.5,1.3,0.8
	c0.4,0.4,0.6,0.8,0.7,1.3c0.1,0.5,0,1-0.2,1.5c-0.5,1-1.8,1.3-3,1.2c-1.2-0.3-2.3-0.7-3.2-1.4c-0.3-0.2-0.5-0.4-0.8-0.6
	c-0.1-0.1-0.2-0.3-0.2-0.4c0-0.2,0-0.3,0.1-0.5"/>
<path class="st6" d="M136.9,73.9c0.3,0.2,1.4-2.2,4.1-3s5.1,0.5,5.3,0.2c0.1-0.1-0.4-0.7-1.4-1.2c-1.4-0.6-2.9-0.7-4.4-0.3
	c-1.4,0.4-2.6,1.3-3.3,2.6C136.8,73.2,136.8,73.9,136.9,73.9z"/>
<path class="st6" d="M140.2,37c0.3,0.6,2.6,0,5.4,0c2.8,0,5.1,0.5,5.4-0.1c0.1-0.3-0.3-0.8-1.3-1.3c-1.3-0.6-2.7-0.9-4.1-0.9
	c-1.4,0-2.8,0.4-4.1,1C140.5,36.2,140.1,36.7,140.2,37z"/>
<path class="st6" d="M118.8,41.6c0.5,0.5,2-0.3,4-0.5c2-0.3,3.6-0.1,4-0.7c0.1-0.3-0.2-0.8-1-1.2c-1-0.5-2.2-0.7-3.4-0.5
	c-1.1,0.2-2.2,0.7-3.1,1.5C118.7,40.8,118.5,41.4,118.8,41.6z"/>
<path class="st6" d="M121.9,19c0,0.2,0.6,0.3,1.3,0.2c0.7-0.1,1.3-0.3,1.3-0.5c0-0.2-0.6-0.3-1.3-0.2
	C122.5,18.6,121.9,18.8,121.9,19z"/>
<path class="st6" d="M123.4,22.2c-5.3-8.3,4-16.6,8.5-19.5c4.5-2.9,10.5-3.7,15.4-1.4c2.2,1,4.2,2.6,6.7,3
	c5.6,0.8,10.9-5.4,16.2-3.5c4.4,1.6,5.7,7.7,10.1,9.3c2.1,0.7,4.4,0.2,6.7,0.2c2.2,0,4.9,1,5.4,3.1c0.6,2.4-1.8,5.3-0.2,7.3
	c1.9,2.4,6.4-0.5,8.7,1.6c2.1,1.9,0.3,6.4,2.8,7.8c1.8,1,4.6-0.7,6.1,0.8c1.5,1.5-0.8,4.1-0.8,6.4s2.3,3.8,4.3,5
	c2,1.2,4.1,3.2,3.5,5.4c-0.8,2.5-4.8,3.2-5.2,5.8s3.4,5.2,2,7.6c-0.9,1.6-3.4,1.4-4.6,2.8c-2,2.3-7.5,6.5-8.3,9.4
	c-1.1,4,0.6,2.4-1.6,5.9c-1.2,2-0.7,5-2.6,6.3c-1.9,1.4-4.7-0.2-7,0.3c-3.8,0.8-5.6,6.9-9.4,6.2c-2-0.4-3.6-2.6-5.5-2
	c-1.6,0.6-2,3-3.7,3.5c-2.3,0.6-3.2-2.7-4.8-4.4c-2.1-2.3-6.1-2-8.1-4.4c-1.8-2.2-1-5.4,0.1-8s2.4-5.4,1.5-8c-1.1-3-4.9-5.3-3.9-8.3
	c1-3.3,7-3.6,7.1-7.1c0.1-3.3-5.6-4.6-5.3-7.8c0.2-2.2,3.1-3.4,3.4-5.5c0.4-2.5-2.8-4.3-3-6.9c-0.1-1.6,1-3.1,1.7-4.5
	c0.7-1.5,1-3.6-0.3-4.5c-2.2-1.5-4.8,1.9-7.4,1.4c-1.8-0.3-2.6-2.3-3.4-4c0,0-5.3-6.5-13.5-4.7C126.5,18.6,123.4,22.2,123.4,22.2z"
	/>
<path class="st6" d="M122.9,19.1c-1.5,1.8-0.4,5.1,1.9,5.6c2.1,0.5,4.2-1,5.9-2.4c1.7-1.4,3.8-2.8,5.9-2.2c3.8,1.2,3.5,7.9,7.4,9
	c1.6,0.4,3.2-0.3,4.8-0.8c1.6-0.5,3.6-0.7,4.6,0.6c1.4,1.7,0.1,4.8,1.8,6.2c0.7,0.6,1.8,0.6,2.5,1.2c1.1,1,0.5,2.9-0.5,4
	c-1,1.1-2.3,2-2.7,3.5c-0.6,2.3,1.5,4.4,3.5,5.6s4.4,2.4,5.1,4.7c1,3.7-3.2,7.8-1.3,11.1c1.1,1.9,3.8,2.3,5.7,1.3
	c1.9-1,3.2-2.9,4-4.9c3.5-8.1,1.3-17.4-1-25.9c-1.5-5.6-3.2-11.3-7-15.7c-3.9-4.5-9.7-7-15.6-8.4c-4.5-1.1-9.2-1.6-13.6-0.5
	c-4.5,1-8.7,3.7-10.8,7.8"/>
<path class="st5" d="M180,91.6c0.1,0.1,0.2,0.1,0.3,0.1c0.2,0,0.4,0,0.5,0c0.2,0,0.3-0.1,0.5-0.2c0.5-0.3,0.8-0.8,0.9-1.4
	c0.1-0.4,0.1-0.7,0-1.1c-0.1-0.4-0.3-0.8-0.6-1.1c-0.7-0.7-1.5-1.2-2.4-1.6c-1-0.4-2-1-2.8-1.7c-0.4-0.4-0.7-0.9-0.8-1.5
	c0-0.6,0.1-1.2,0.5-1.8c0.4-0.6,0.9-1.1,1.3-1.6c0.5-0.5,1-1.2,1.3-1.9c0.1-0.4,0.2-0.8,0.1-1.3c-0.1-0.4-0.3-0.8-0.5-1.1
	c-0.6-0.6-1.3-1.1-2.1-1.4c-0.8-0.3-1.6-0.6-2.3-1c-0.7-0.3-1.3-1-1.6-1.7c-0.1-0.4-0.1-0.8,0-1.2c0.1-0.4,0.3-0.8,0.6-1.1
	c0.6-0.7,1.2-1.4,1.9-2c0.7-0.7,1.3-1.5,1.7-2.4c0.2-0.5,0.2-1.1,0.1-1.6c-0.1-0.5-0.3-1-0.6-1.5c-0.6-0.9-1.4-1.6-2.3-2.2
	c-0.9-0.6-1.8-1-2.6-1.6c-0.8-0.5-1.5-1.3-2-2.2c-0.2-0.5-0.3-0.9-0.3-1.4c0-0.5,0.1-1,0.4-1.4c0.5-1,1.1-1.9,1.8-2.7
	c0.8-0.9,1.3-2,1.5-3.1c0.1-0.6-0.1-1.3-0.3-1.8c-0.3-0.5-0.7-1-1.2-1.3c-1-0.6-2-1.2-3.1-1.6c-1-0.4-1.9-1-2.6-1.9
	c-0.2-0.5-0.4-1-0.4-1.5c0-0.5,0.1-1,0.4-1.5c0.5-1,1.1-1.9,1.7-2.8c0.7-0.9,1.1-2,1.3-3.2c0.1-0.6-0.1-1.2-0.3-1.8
	c-0.3-0.5-0.7-1-1.3-1.2c-1-0.4-2.2-0.6-3.3-0.4c-1,0.1-2,0.1-3-0.1c-0.5-0.1-0.9-0.2-1.3-0.5c-0.4-0.3-0.7-0.7-0.8-1.1
	c-0.4-0.9-0.5-1.9-0.8-2.8c-0.2-0.5-0.4-0.9-0.8-1.3c-0.4-0.4-0.8-0.7-1.3-0.9c-1.9-0.8-3.9-0.3-5.6-0.1c-0.8,0.1-1.7,0.1-2.5,0
	c-0.8-0.2-1.6-0.5-2.2-0.9c-1.3-0.9-2.5-1.9-3.6-3c-1.1-1-2.3-1.8-3.7-2.3c-1.3-0.4-2.6-0.4-3.9-0.2c-1,0.2-2,0.6-2.9,1.2
	c-0.9,0.6-1.6,1.4-2.1,2.3c-0.7,1.1-1.1,2.4-1.2,3.7c0,0.5,0,0.9,0.1,1.3c0,0,0-0.5,0-1.3c0.1-1.3,0.5-2.5,1.2-3.6
	c0.5-0.9,1.3-1.6,2.1-2.2c0.8-0.6,1.8-1,2.8-1.1c1.2-0.2,2.5-0.2,3.7,0.2c1.3,0.5,2.6,1.2,3.6,2.2c1.1,1.1,2.4,2.2,3.7,3.1
	c0.7,0.5,1.6,0.8,2.4,1c0.9,0.1,1.8,0.1,2.7,0c1.8-0.2,3.6-0.6,5.3,0.1c0.4,0.2,0.8,0.4,1.1,0.7c0.3,0.3,0.5,0.7,0.7,1.1
	c0.3,0.9,0.4,1.9,0.8,2.9c0.2,0.5,0.6,1,1,1.3c0.4,0.3,1,0.6,1.5,0.6c1.1,0.2,2.1,0.2,3.2,0.1c1-0.1,2,0,3,0.4c0.4,0.2,0.8,0.6,1,1
	c0.2,0.4,0.3,0.9,0.2,1.4c-0.2,1-0.6,2-1.2,2.9c-0.7,0.9-1.3,1.9-1.8,2.9c-0.3,0.6-0.4,1.1-0.4,1.8c0,0.6,0.2,1.2,0.5,1.8
	c0.7,1,1.7,1.7,2.9,2.2c1,0.4,2,0.9,3,1.6c0.4,0.3,0.8,0.7,1,1.2c0.2,0.5,0.3,1,0.3,1.5c-0.2,1-0.7,2-1.4,2.8
	c-0.7,0.9-1.3,1.8-1.8,2.8c-0.3,0.5-0.4,1.1-0.4,1.7c0,0.6,0.1,1.2,0.3,1.7c0.5,1,1.3,1.8,2.2,2.4c0.9,0.6,1.8,1.1,2.7,1.6
	c0.8,0.5,1.6,1.2,2.1,2c0.3,0.4,0.4,0.8,0.5,1.2c0.1,0.4,0,0.9-0.1,1.3c-0.3,0.9-0.9,1.6-1.6,2.2c-0.7,0.6-1.3,1.3-1.9,2.1
	c-0.3,0.4-0.6,0.8-0.7,1.3c-0.1,0.5-0.1,1,0,1.5c0.3,0.9,1,1.6,1.9,2c0.8,0.4,1.6,0.7,2.3,1c0.7,0.3,1.4,0.7,1.9,1.2
	c0.2,0.3,0.4,0.6,0.5,0.9c0.1,0.3,0,0.7-0.1,1c-0.5,1.3-1.8,2.2-2.5,3.4c-0.4,0.6-0.6,1.2-0.5,1.9c0.1,0.7,0.4,1.3,0.9,1.8
	c0.9,0.8,1.8,1.3,2.9,1.7c0.9,0.3,1.7,0.8,2.3,1.5c0.3,0.2,0.5,0.6,0.6,0.9c0.1,0.3,0.1,0.7,0,1.1c-0.1,0.5-0.4,1-0.8,1.3
	c-0.1,0.1-0.3,0.2-0.4,0.2c-0.2,0-0.3,0.1-0.5,0C180.1,91.6,180,91.6,180,91.6z"/>
<path class="st5" d="M107,84.9c-0.2,0.2-0.4,0.3-0.7,0.4c-0.4,0-0.8-0.1-1.1-0.2c-0.3-0.2-0.6-0.4-0.8-0.8c-0.6-0.8-0.4-2.1-0.5-3.6
	c0-0.8-0.2-1.6-0.6-2.3c-0.4-0.8-0.7-1.6-1-2.4c-0.2-0.4-0.2-0.9-0.1-1.3c0.1-0.4,0.3-0.8,0.6-1.2c0.7-0.7,1.6-1.2,2.6-1.5
	c1-0.4,2.1-0.8,2.9-1.8c0.2-0.3,0.3-0.6,0.4-0.9c0.1-0.3,0-0.7-0.1-1c-0.2-0.6-0.6-1.2-1.1-1.6c-0.9-0.8-2.1-1.5-2.6-2.5
	c-0.5-1,0.1-2.2,1.2-2.9c1-0.7,2.4-1,3.6-1.7c0.7-0.4,1.2-0.9,1.6-1.5c0.4-0.7,0.5-1.4,0.4-2.2c-0.2-1.4-0.8-2.8-1.6-4
	c-0.8-1.1-1.3-2.3-1.7-3.5c-0.1-0.6-0.1-1.2,0-1.8c0.1-0.6,0.4-1.1,0.8-1.6c0.7-1,1.7-1.8,2.5-2.7c0.8-0.9,1.4-2.1,1.6-3.3
	c0.1-1.1,0.1-2.3,0-3.4c-0.3-2.1-0.6-4.1-0.2-5.9c0.4-1.6,1.1-3,2.2-4.2c0.8-0.9,1.8-1.7,2.9-2.2c0.9-0.5,2-0.8,3-1
	c-0.3,0-0.6,0-0.8,0c-0.8,0.1-1.6,0.3-2.3,0.7c-1.3,0.6-2.5,1.5-3.5,2.7c-0.9,1.1-1.6,2.5-2,3.9c-0.5,1.9-0.1,3.9,0.1,6.1
	c0.1,1.1,0.1,2.2,0,3.3c-0.2,1.1-0.7,2.2-1.5,3c-0.8,0.9-1.8,1.7-2.6,2.7c-0.4,0.5-0.8,1.2-0.9,1.8c-0.2,0.7-0.2,1.4,0,2.1
	c0.6,2.8,3,4.7,3.3,7.4c0.1,0.6,0,1.3-0.3,1.8c-0.3,0.6-0.8,1-1.3,1.3c-1.1,0.7-2.5,0.9-3.7,1.7c-0.6,0.4-1.1,0.9-1.4,1.6
	c-0.2,0.3-0.2,0.7-0.2,1.1c0,0.4,0.1,0.7,0.2,1.1c0.7,1.3,1.9,1.9,2.7,2.7c0.4,0.3,0.8,0.8,0.9,1.3c0.1,0.2,0.1,0.5,0,0.7
	c0,0.2-0.1,0.5-0.3,0.7c-0.6,0.8-1.7,1.2-2.7,1.7c-1,0.4-2,0.9-2.7,1.7c-0.4,0.4-0.6,0.9-0.7,1.4c-0.1,0.5,0,1,0.2,1.5
	c0.3,0.8,0.7,1.6,1.1,2.4c0.3,0.7,0.5,1.4,0.6,2.2c0.1,1.4-0.1,2.8,0.6,3.7c0.2,0.3,0.6,0.6,0.9,0.8c0.4,0.2,0.8,0.2,1.2,0.2
	c0.2,0,0.3-0.1,0.4-0.2S106.9,85,107,84.9z"/>
<path class="st5" d="M199.7,70.7c0.9-0.2,1.7-0.7,2.4-1.3c0.8-0.8,1.3-1.8,1.6-2.8c0.2-0.7,0.3-1.5,0.2-2.2
	c-0.1-0.7-0.3-1.4-0.7-2.1h0.2c-0.1,0.3-0.2,0.5-0.3,0.7c-0.2,0.2-0.4,0.4-0.6,0.5c-0.5,0.3-1,0.4-1.6,0.4c-0.6,0-1.2-0.2-1.6-0.6
	c-0.4-0.4-0.8-1-0.9-1.6c-0.2-0.6-0.2-1.3-0.1-1.9c0.1-0.6,0.3-1.3,0.7-1.8c0.8-1.2,1.7-2.2,2.8-3.1l0.1,0.2c-1.7,0.2-3.4,0.2-5,0
	c-0.9-0.1-1.7-0.5-2.5-0.9c-0.8-0.5-1.5-1.2-1.9-2c-0.5-0.8-0.7-1.8-0.6-2.8c0.2-1,0.8-1.9,1.5-2.5c0.7-0.7,1.5-1.3,2.3-1.9
	c0.7-0.7,1.3-1.5,1.5-2.5c0.1-0.5,0.1-1,0-1.4c-0.2-0.5-0.5-0.8-0.9-1c-0.9-0.4-2-0.2-3,0.1c-1,0.2-2.2,0.5-3.3,0.1
	c-0.6-0.2-1-0.6-1.3-1.1c-0.3-0.5-0.5-1.1-0.5-1.6c-0.3-2.3,1.1-4.5,0.7-6.7c-0.1-0.5-0.4-1-0.7-1.5c-0.4-0.4-0.8-0.7-1.3-0.9
	c-1.1-0.4-2.2-0.5-3.4-0.4c-1.2,0.2-2.5,0.4-3.7,0.8c-1.2,0.4-2.5,0.5-3.8,0.5c-1.3,0-2.5-0.6-3.4-1.5c-0.8-1-1.4-2.1-1.6-3.4
	c-0.5-2.4-0.4-4.8-0.9-7c-0.2-1.1-0.7-2.1-1.5-3c-0.8-0.8-1.8-1.2-2.9-1.3c-1.1,0-2.2,0.1-3.2,0.3c-1,0.2-2.1,0.4-3.2,0.5
	c-1.1,0.1-2.1-0.1-3.1-0.5c-0.9-0.4-1.8-0.9-2.6-1.5c-0.8-0.6-1.6-1.1-2.4-1.6c-0.8-0.5-1.7-0.7-2.6-0.8c-0.9,0-1.7,0.2-2.5,0.6
	c-0.8,0.3-1.5,0.8-2.3,1.2c-0.7,0.4-1.5,0.7-2.3,0.9c-0.8,0.2-1.5,0.3-2.3,0.3c-1.4,0-2.8-0.1-4.3-0.3c-1.2-0.2-2.4-0.3-3.7-0.3
	c-1,0.1-2,0.3-3,0.7c-1.4,0.5-2.5,1.4-3.2,2.7c-0.2,0.5-0.3,0.9-0.4,1.4c0,0,0-0.1,0-0.4c0-0.2,0-0.3,0.1-0.5c0-0.2,0.1-0.4,0.2-0.6
	c0.3-0.7,0.8-1.2,1.3-1.7s1.2-0.8,1.9-1.1c1-0.4,2-0.6,3-0.7c1.2,0,2.5,0.1,3.7,0.2c1.4,0.2,2.8,0.3,4.2,0.3c0.8,0,1.5-0.1,2.3-0.3
	c0.8-0.2,1.5-0.5,2.2-0.9c0.7-0.4,1.5-0.8,2.3-1.2c0.8-0.4,1.7-0.6,2.7-0.6c0.9,0.1,1.9,0.3,2.7,0.8c0.8,0.5,1.7,1,2.4,1.6
	c0.8,0.6,1.6,1.1,2.5,1.5c0.9,0.4,2,0.5,3,0.4c1-0.1,2.1-0.3,3.1-0.5c1.1-0.3,2.2-0.4,3.3-0.3c1.2,0,2.3,0.5,3.1,1.3
	c0.8,0.9,1.3,2,1.6,3.1c0.5,2.3,0.4,4.7,0.9,7c0.2,1.2,0.7,2.3,1.5,3.2c0.8,0.9,2,1.4,3.2,1.4c1.2,0,2.5-0.2,3.6-0.5
	c1.2-0.4,2.5-0.7,3.7-0.8c1.2-0.1,2.4,0,3.5,0.4c0.6,0.2,1.1,0.6,1.5,1c0.4,0.5,0.7,1,0.8,1.6c0.5,2.4-1,4.5-0.7,6.7
	c0,0.5,0.2,1,0.5,1.5c0.3,0.4,0.7,0.8,1.2,1c1,0.3,2.1,0.1,3.1-0.2c0.5-0.1,1.1-0.2,1.6-0.3c0.6-0.1,1.1,0,1.6,0.2
	c0.5,0.3,0.9,0.7,1.1,1.2c0.2,0.5,0.2,1.1,0.1,1.6c-0.2,1-0.8,2-1.6,2.7c-0.7,0.7-1.6,1.3-2.3,1.9c-0.7,0.6-1.2,1.4-1.4,2.4
	c-0.1,0.9,0,1.8,0.5,2.6c0.4,0.8,1.1,1.4,1.8,1.9c0.7,0.4,1.6,0.7,2.4,0.9c1.6,0.2,3.3,0.3,5,0.1h0.4l-0.3,0.3c-1,0.9-1.9,1.9-2.7,3
	c-0.3,0.5-0.6,1.1-0.7,1.7c-0.1,0.6-0.1,1.2,0.1,1.8c0.1,0.6,0.4,1.1,0.9,1.5c0.4,0.4,0.9,0.6,1.5,0.6c0.5,0.1,1,0,1.4-0.3
	s0.7-0.7,0.9-1.2l0-0.2l0.1,0.2c0.4,0.7,0.6,1.4,0.7,2.2c0.1,0.8,0,1.5-0.2,2.3c-0.3,1.1-0.9,2.1-1.7,2.9c-0.5,0.5-1.1,0.9-1.8,1.1
	C200,70.7,199.7,70.7,199.7,70.7z"/>
<path class="st8" d="M120.9,61c-0.1,0-0.2-0.2-0.3-0.6c-0.1-0.3,0-0.6,0.1-0.6c0.1,0,0.2,0.2,0.3,0.6C121.1,60.7,121,61,120.9,61z"
	/>
<path class="st8" d="M125.3,59.5c-0.1,0-0.2-0.1-0.3-0.3c-0.1-0.2-0.1-0.4,0-0.4c0.1,0,0.2,0.1,0.3,0.3
	C125.4,59.3,125.4,59.5,125.3,59.5z"/>
<path class="st8" d="M123.7,63.5c-0.1,0-0.2-0.3-0.1-0.6c0-0.3,0.1-0.6,0.2-0.6c0.1,0,0.2,0.3,0.1,0.6
	C123.9,63.2,123.8,63.5,123.7,63.5z"/>
<path class="st8" d="M146.7,57.3c-0.1,0.1-0.3,0-0.5-0.2c-0.2-0.2-0.3-0.4-0.2-0.5c0.1-0.1,0.3,0,0.5,0.2
	C146.6,57,146.7,57.2,146.7,57.3z"/>
<path class="st8" d="M150.7,56.2c-0.1,0.1-0.3,0-0.5-0.1c-0.2-0.1-0.3-0.3-0.3-0.4c0.1-0.1,0.3,0,0.5,0.1
	C150.7,56,150.8,56.2,150.7,56.2z"/>
<path class="st8" d="M149.2,59.7c-0.1,0-0.1-0.2-0.1-0.5c0-0.3,0.1-0.5,0.2-0.5c0.1,0,0.1,0.2,0.1,0.5
	C149.4,59.5,149.3,59.8,149.2,59.7z"/>
<path class="st8" d="M143.1,59.7c-0.1,0-0.1-0.3,0-0.5c0.1-0.2,0.3-0.4,0.3-0.4c0.1,0,0.1,0.3,0,0.5
	C143.4,59.6,143.2,59.8,143.1,59.7z"/>
<path class="st8" d="M155.6,55.8c-0.1,0-0.3-0.2-0.4-0.5c-0.1-0.3-0.1-0.6-0.1-0.6c0.1,0,0.3,0.2,0.4,0.5
	C155.6,55.5,155.7,55.8,155.6,55.8z"/>
<path class="st8" d="M120,65.7c-0.1,0,0-0.3,0.1-0.6c0.1-0.3,0.3-0.5,0.4-0.5c0.1,0,0,0.3-0.1,0.6C120.3,65.5,120.1,65.7,120,65.7z"
	/>
<path class="st7" d="M106.7,141.8c0.1,1.3,12.6,73.5,16.4,85.7c3.3,10.6,18.4,23.1,31,10.6c12-12,16.9-65.8,16.9-65.8l-28.2,1.3
	l-0.4-31.8c0,0-20.9-7.5-37.3,0"/>
<path class="st9" d="M222.3,77.7c-3.6-8.7-19.5-6.5-19.5-6.5s-49.4,44.4-56.6,51c-7.2,6.6-8.5,13-8.3,14.9c0,0-1.7,17.6-0.6,24.2
	c1.1,6.6,7,17.4,12,16.2c0,0,4-2.1,1.9-4.8c0,0,4.1,2.7,5.7-0.3c1.5-3-2.5-6.7-2.5-6.7s5.1,3.8,6.3-0.5c1.3-4.3-3.9-6.9-3.9-6.9
	s-3.6-7-2.4-10.9c1.2-3.9,6.7-4.6,7.1-11.3c0.2-2.9,0.3-5.1,0.4-6.7l58.7-35.1C220.7,94.4,225.8,86.4,222.3,77.7z"/>
<path class="st6" d="M110.9,101.7c-0.3-0.8-0.3-1.7-0.2-2.5c0.2-1,0.6-1.9,1.2-2.7c0.8-1.1,1.7-2,2.7-2.9c1.3-1.1,2.4-2.4,3.3-3.8
	c1-1.7,1.7-3.6,1.9-5.5c0.3-2.2,0.1-4.4-0.6-6.4c-0.8-2.1-1.7-4.2-2.9-6.2c-1.1-1.9-2-4-2.6-6.1c-0.6-1.9-0.6-4-0.1-6
	c1-3.8,3.3-6.7,4.4-9.6c1.1-2.2,1.4-4.7,0.9-7.2c-0.1-0.7-0.4-1.3-0.7-1.9c-0.2-0.4-0.4-0.6-0.4-0.5c0.3,0.8,0.6,1.6,0.8,2.5
	c0.3,2.3-0.1,4.7-1.2,6.8c-1.2,2.7-3.5,5.6-4.7,9.7c-0.6,2.1-0.5,4.4,0.1,6.5c0.7,2.2,1.6,4.3,2.7,6.3c1.1,1.9,2.1,4,2.8,6.1
	c0.7,1.9,0.9,4,0.7,6c-0.2,1.8-0.8,3.6-1.7,5.2c-0.8,1.4-1.9,2.7-3.1,3.7c-1,0.9-1.9,2-2.7,3.1c-0.6,0.9-0.9,1.9-1.1,3
	c-0.1,0.7,0,1.4,0.2,2C110.6,101.4,110.7,101.6,110.9,101.7z"/>
<path class="st6" d="M58.2,83.5c-0.7,1.6-1.9,3-3.4,4c-1.5,1-3.2,1.5-5,1.5c-1.8,0-3.5-0.5-5.1-1.4s-2.9-2.1-3.9-3.6
	c-1.9-3-2.6-6.7-1.9-10.2c0.3-1.6,0.8-3.2,0.7-4.8c-0.3-2.3-1.9-4.1-2.5-6.3c-1-4,1.9-8.2,5.7-9.8c3.8-1.6,8.1-1.1,12.1,0"/>
<path class="st6" d="M115.7,37.5c3.6,3.7,2.2,8.5,0.6,11.7s-3.7,6.5-3.8,10.2c0,3.7,2,7.2,3,10.8c1.3,4.6,0.9,9.5-1.1,13.9
	c-1.5,3.2-3.8,6-5.4,9.2s-2.1,7.3,0,10.2c-1-0.2-1.9-0.6-2.7-1.3c-0.8-0.6-1.4-1.4-1.8-2.3c-0.8-1.8-1.2-3.8-1.1-5.8
	c0.2-7.6,3.8-14.9,2.9-22.4c-0.5-4.4-2.6-8.5-2.3-12.9c0.3-4.4,2.9-8.3,4.7-12.2c1.8-4,3-9,0.5-12.6"/>
<path class="st6" d="M106.8,23.2c4.5,0.6,8.9,2.9,11,6.9c2.2,3.9,1.4,9.5-2.3,12.1c-3.5,2.4-8.4,1.6-12-0.7
	c-2.7-1.6-4.7-4.2-5.8-7.2c-0.5-1.5-0.6-3.1-0.4-4.6s0.9-3,1.8-4.3c1.9-2.5,5.5-3.7,8.4-2.6"/>
<path class="st6" d="M110.4,22.8c-2-5.4-6.8-9.5-12.2-11.4c-5.4-1.9-11.4-1.9-17.1-0.8S70,13.6,64.6,15.6c-3.9,1.5-7.9,3-11.1,5.8
	c-3.2,2.7-5.3,6.4-6.7,10.3c-2.7,7.3-2.8,12.7,0.3,19.8c1.3,3.1,0.3,6.6,1.5,9.8c1.2,3.2,6.9,6.9,5.2,9.8"/>
<path class="st9" d="M113.3,42.7c-0.1-10.3-6.2-23.2-16.4-22.6l-32.2,6.3c-1.5,0.1-2.9,0.7-4,1.8c-1.1,1.1-1.7,2.5-1.7,4l-2.5,74.3
	l38.1,8.7c0.3-6,0-20.4,0-20.4c0,0,13.2-1.5,16.8-18.4C113.1,68.1,113.4,54.1,113.3,42.7z"/>
<path class="st6" d="M101.4,51.4c0.3-0.3,1.9,1,4.2,1.2c2.3,0.1,4.1-1,4.4-0.7c0.1,0.1-0.2,0.6-1,1.1c-1.1,0.6-2.3,1-3.5,0.9
	c-1.2-0.1-2.4-0.5-3.4-1.3C101.4,52.1,101.2,51.6,101.4,51.4z"/>
<path class="st6" d="M78.2,50.8c0.3-0.3,1.9,1,4.2,1.2c2.3,0.1,4.1-1,4.4-0.7c0.1,0.1-0.2,0.6-1,1.1c-1.1,0.7-2.3,1-3.5,0.9
	c-1.2-0.1-2.4-0.5-3.4-1.3C78.2,51.5,78,51,78.2,50.8z"/>
<path class="st6" d="M94.3,66.9c0-0.1,1.5-0.3,3.9-0.5c0.6,0,1.2-0.1,1.3-0.5c0.1-0.6,0-1.2-0.3-1.8c-0.5-1.5-1-3-1.5-4.7
	c-2.1-6.6-3.6-12.1-3.4-12.2c0.2-0.1,2.2,5.2,4.3,11.9c0.5,1.6,1,3.2,1.5,4.7c0.2,0.7,0.5,1.5,0.2,2.4c-0.1,0.2-0.2,0.4-0.4,0.5
	c-0.2,0.1-0.4,0.2-0.6,0.3c-0.3,0.1-0.7,0.1-1,0.1C95.8,67.1,94.3,67,94.3,66.9z"/>
<path class="st2" d="M94.5,94.8c-8-0.3-15.8-2.8-22.5-7.3c0,0,5.4,12.1,22.6,11.4L94.5,94.8z"/>
<path class="st6" d="M88.2,42.2c-0.3,0.6-2.6,0.2-5.4,0.4c-2.8,0.2-5.1,0.8-5.4,0.2c-0.1-0.3,0.3-0.9,1.2-1.4c1.2-0.7,2.6-1.1,4-1.2
	c1.4-0.1,2.8,0.2,4.1,0.7C87.8,41.3,88.3,41.9,88.2,42.2z"/>
<path class="st6" d="M109.4,43c-0.4,0.5-2-0.1-4-0.3c-2-0.1-3.6,0.2-4-0.4c-0.1-0.3,0.1-0.8,0.9-1.3c1-0.6,2.1-0.8,3.3-0.7
	c1.1,0.1,2.2,0.5,3.1,1.2C109.4,42.1,109.6,42.7,109.4,43z"/>
<path class="st2" d="M93,72.3c-0.4-0.5-0.9-1-1.5-1.3c-0.6-0.3-1.3-0.4-1.9-0.4c-0.5,0-1,0.1-1.4,0.3c-0.4,0.2-0.8,0.5-1.2,0.9
	c-0.3,0.3-0.5,0.8-0.6,1.3c-0.1,0.5,0,0.9,0.3,1.4c0.3,0.4,0.8,0.7,1.3,0.9c0.5,0.2,1,0.2,1.6,0c1.1-0.3,2-0.8,2.9-1.5
	c0.3-0.2,0.5-0.4,0.7-0.6c0.1-0.1,0.1-0.3,0.1-0.4c0-0.1,0-0.3-0.1-0.4"/>
<path class="st6" d="M87.7,68.2c0.4,0,0.2,2.4,2.2,4.2c2,1.8,4.5,1.7,4.5,2c0,0.1-0.6,0.4-1.7,0.4c-1.4-0.1-2.7-0.6-3.8-1.5
	c-1-0.9-1.6-2.2-1.7-3.5C87.3,68.7,87.6,68.2,87.7,68.2z"/>
<path class="st6" d="M110.7,27.3c-1.1,5.3-9.7,5.7-15,4.4c-1.9,2.2-4.4,3.9-7.1,4.9c-2.7,1-5.7,1.3-8.6,0.9c-0.8-0.2-1.6-0.2-2.3,0
	c-0.7,0.4-1.4,0.9-1.9,1.6c-2.4,2.9-5.9,4.8-9.6,5.3c-0.6,2.7-1.9,5.1-3.9,7c-2,1.9-4.4,3.2-7.1,3.6c0,0-1.7-1-0.7-7.8
	c1-6.9,1.1-21.2,1.1-21.2l19.1-7.4l22.5-2.9C97.3,15.7,112.6,18.3,110.7,27.3z"/>
<path class="st5" d="M47.4,52.3c0.1,0,0-1.9,1.4-4.7c0.8-1.7,2.1-3.2,3.6-4.3c2-1.5,4.3-2.3,6.7-2.4h0.3l0.1-0.3
	c0.8-2.7,2.3-5.6,4.9-7.6c2.6-2,6.4-2.8,9.4-1.1l0.5,0.3l0.2-0.6c0.1-0.2,0.2-0.4,0.2-0.6c1-2.2,2.6-4.1,4.6-5.5
	c2-1.4,4.4-2.2,6.8-2.4c1.1,0,2.2,0.1,3.3,0.3c1.1,0.3,2.3,0.3,3.4,0c1-0.4,1.9-1,2.6-1.8c0.6-0.7,1.3-1.3,2-1.8
	c1.1-0.7,2.4-1.2,3.8-1.4c1.3-0.2,2.7-0.1,4,0.3c1,0.3,1.9,0.8,2.7,1.3c0,0-0.2-0.2-0.6-0.6c-0.6-0.5-1.3-0.8-2-1.1
	c-1.4-0.5-2.8-0.7-4.2-0.5c-1.4,0.1-2.8,0.6-4,1.4c-1.6,0.9-2.7,2.8-4.5,3.4c-1.8,0.5-4-0.6-6.5-0.4c-2.6,0.1-5.2,1-7.4,2.5
	c-2.2,1.5-3.9,3.5-5,6c-0.1,0.2-0.2,0.5-0.3,0.7l0.7-0.3c-3.5-2-7.8-1-10.5,1.2c-2.5,2.1-4.3,4.9-5.1,8.1l0.4-0.3
	c-2.6,0.2-5.1,1.1-7.1,2.7c-1.6,1.2-2.8,2.8-3.6,4.6c-0.5,1.1-0.9,2.4-1,3.6C47.3,51.5,47.3,51.9,47.4,52.3z"/>
<path class="st5" d="M77.8,36c0.4,0.3,0.9,0.4,1.3,0.5c1.3,0.3,2.7,0.5,4,0.5c2.3-0.1,4.5-0.6,6.6-1.6c2.1-1,3.9-2.3,5.4-4.1
	l-0.6,0.1l0.5,0.3c2.4,1.1,5,1.5,7.6,1.1c2.1-0.3,4.1-1.2,5.7-2.5c1.1-0.9,2.1-1.9,2.8-3.2c0.3-0.4,0.5-0.9,0.6-1.4
	c-0.2-0.1-1.1,2-3.8,4c-1.6,1.2-3.5,1.9-5.4,2.2c-2.4,0.3-4.8-0.1-7-1.1L95,30.6l-0.4-0.2l-0.3,0.3c-2.9,3.2-6.9,5.2-11.2,5.6
	C79.9,36.5,77.9,35.8,77.8,36z"/>
<path class="st5" d="M88,26.4c0,0.3,2.5,0.2,5.4,1.1c2.9,0.8,4.9,2.2,5.1,2c0.2-0.2-1.7-2-4.8-2.9C90.5,25.6,87.9,26.2,88,26.4z"/>
<path class="st5" d="M94.5,26.2c0.2,0.2,1.1-0.5,2.3-1.2c1.1-0.7,2.1-1.3,2-1.6c-0.1-0.3-1.3-0.1-2.6,0.7
	C94.9,25,94.2,26.1,94.5,26.2z"/>
<path class="st5" d="M67.4,34.6c0.1,0.3,2.3-0.3,5,0c2.7,0.2,4.8,1.1,4.9,0.9c0.1-0.3-1.9-1.6-4.8-1.9
	C69.5,33.4,67.3,34.4,67.4,34.6z"/>
<path class="st5" d="M62.2,43.5c0,0.3,3.2,0.6,7-0.5c3.8-1.1,6.3-3.1,6.2-3.3c-0.2-0.2-2.8,1.3-6.5,2.3C65.3,43,62.2,43.2,62.2,43.5
	z"/>
<path class="st5" d="M50.2,49.4c0.2,0.2,1.9-1.5,4.6-2.2c2.7-0.8,5-0.3,5.1-0.6c0.1-0.3-2.3-1.3-5.3-0.4S50,49.2,50.2,49.4z"/>
<path class="st5" d="M51.9,24.9c0.1,0,0.3-0.6,1-1.4c1-1.2,2.2-2.2,3.6-2.8c3.5-1.7,9-2.8,15.1-2.5c5.2,0.3,10.3,1.3,15.2,2.9
	c3.8,1.2,6.1,2.1,6.2,1.9c-0.5-0.4-1-0.6-1.5-0.8c-1-0.5-2.5-1.1-4.4-1.8c-4.9-1.8-10.1-2.9-15.4-3.2c-6.2-0.3-11.8,0.9-15.4,2.9
	c-1.5,0.7-2.7,1.9-3.6,3.2C52.2,23.7,52,24.3,51.9,24.9z"/>
<path class="st5" d="M50,34.1c0.2,0.1,0.7-2.1,2.9-4.7c2.9-3.3,6.8-5.6,11.1-6.5c5-1.1,9.8-0.7,13.2-0.3c3.4,0.4,5.5,0.8,5.5,0.7
	c0-0.2-2-0.8-5.4-1.4c-4.5-0.9-9.1-0.9-13.5,0c-5.3,1.2-9.4,4.2-11.4,7.1c-0.9,1.1-1.5,2.3-2,3.6C50.1,33,50,33.6,50,34.1z"/>
<path class="st6" d="M42.4,67.6c0.1-0.2-1.6-1.1-4-2.9c-1.4-1.1-2.6-2.4-3.4-3.9c-0.5-0.9-0.8-1.9-0.9-3c-0.1-1,0.1-2.1,0.6-3
	c0.4-1,1-1.8,1.8-2.6c0.8-0.7,1.6-1.3,2.6-1.7c1.6-0.6,3.4-0.7,5.1-0.3c3,0.7,4.4,2.1,4.5,1.9c0,0-0.3-0.4-1-1
	c-1-0.8-2.1-1.3-3.4-1.6c-1.8-0.5-3.8-0.5-5.6,0.1c-1.1,0.4-2.1,1-3,1.8c-0.9,0.8-1.5,1.8-2,2.9c-0.5,1.1-0.7,2.3-0.6,3.5
	c0.1,1.2,0.4,2.3,1,3.4c1,1.6,2.3,3,3.8,4c1,0.7,2.1,1.3,3.2,1.9C41.9,67.5,42.3,67.7,42.4,67.6z"/>
<path class="st6" d="M41.6,67.7c-0.3,0.4-0.6,0.9-0.8,1.5c-0.6,1.4-1.2,2.8-1.6,4.2c-0.7,2.2-1.1,4.4-1.1,6.7c0,2.8,0.8,5.6,2.3,8
	c0.8,1.2,1.8,2.2,3.1,3c1.2,0.8,2.6,1.3,4,1.5c1.2,0.2,2.4,0.1,3.5-0.3c1.1-0.4,2.1-1,2.9-1.9c1.1-1.1,1.9-2.6,2-4.1
	c0.1-0.6,0-1.2-0.2-1.7c-0.1,0,0,0.6-0.2,1.6c-0.4,1.8-1.4,3.3-2.9,4.3c-1.5,1-3.3,1.4-5.1,1.2c-1.3-0.2-2.5-0.7-3.6-1.4
	c-1.1-0.7-2-1.6-2.8-2.7c-1.4-2.2-2.2-4.8-2.2-7.5c0-2.2,0.3-4.4,0.8-6.5C40.9,70,41.8,67.8,41.6,67.7z"/>
<path class="st6" d="M68,35.8c2.1,4.2,0.5,9.4-1.7,13.6c-2.2,4.2-5,8.4-5.1,13.1c-0.3,7.9,6.8,14.9,5.8,22.8c-0.3,2.3-1.4,4.5-3,6.3
	s-3.7,3-6,3.5c3.8-2.5,4.1-8,2.7-12.3c-1.4-4.3-8.4-15.6-9.4-20C48,48,49.4,46.3,54.6,41.1"/>
<path class="st5" d="M53.7,46.4c0,0.1,1,0.4,2.7,0.1c2.2-0.3,4.3-1.4,6-2.9c1.7-1.5,2.8-3.5,3.4-5.7c0.4-1.7,0.2-2.8,0.1-2.8
	c-0.1,0-0.3,1-0.8,2.5c-0.7,2-1.8,3.8-3.4,5.2c-1.6,1.4-3.4,2.4-5.4,2.9C54.7,46.2,53.7,46.2,53.7,46.4z"/>
<path class="st5" d="M59.9,90.5c0,0,0.2-0.1,0.5-0.3c0.5-0.4,0.9-0.8,1.2-1.3c1.3-1.8,2.1-4,2-6.3c0-1.6-0.4-3.1-1.2-4.5
	c-0.9-1.5-2-2.9-3.3-4.1c-1.3-1.3-2.4-2.8-3.2-4.4c-0.8-1.8-1.1-3.8-1.1-5.7c0.1-2,0.6-3.9,1.6-5.6c1-1.6,2.1-3.1,3.3-4.5
	c2.2-2.4,4-5.1,5.4-8.1c0.9-2,1.5-4.2,1.6-6.4c0.1-0.8,0-1.6-0.2-2.4c-0.2,0,0.3,3.5-2.1,8.4c-1.5,2.8-3.3,5.4-5.5,7.8
	c-1.3,1.4-2.5,3-3.5,4.6c-1.1,1.8-1.7,3.9-1.8,6.1c-0.1,2.1,0.3,4.2,1.2,6.2c0.8,1.8,2,3.4,3.4,4.7c1.2,1.1,2.3,2.4,3.2,3.8
	c0.7,1.2,1.1,2.7,1.2,4.1c0.1,2.1-0.5,4.2-1.6,6C60.5,89.8,59.8,90.4,59.9,90.5z"/>
<path class="st5" d="M52,45.8c0,0-0.5,0.2-1.1,0.9c-0.9,1-1.6,2.1-2.1,3.3c-1.4,3-2,7.8-0.5,12.6c1.4,4.1,3.5,7.8,6.4,11
	c2.1,2.5,3.6,3.8,3.7,3.7c0.1-0.1-1.2-1.6-3.2-4.2c-2-2.5-4.5-6.2-6-10.8c-1.2-3.9-1.2-8.2,0.2-12C50.6,47.3,52.1,46,52,45.8z"/>
<path class="st3" d="M118.6,196.6c-1-2.6-1.3-5.4-1.1-8.2s1.2-5.5,2.6-7.9c7.2-11.6,5.8-28.1-8.8-49.5c-0.2-0.3-0.4-0.6-0.5-0.8
	c-2.1-3.5-18.3-30.1-44.2-32.7c-5.3-0.5-11.5,0.9-15.5,4.5c-5,4.5-10.8,11.6-13.2,19.5c-4.1,13.2-8.4,41.6-2.8,59.2
	c3.9,12.2,15.4,37,22,50.9c2.9,6.2-5.2,11.9,1.6,12.2h71.4C127.9,233.3,120.7,202.5,118.6,196.6z"/>
<path class="st9" d="M89.8,167.3c0,0,62.2,19.4,72.1,16.9s67.4-77.2,67.4-77.2l-21-15.6L155.7,144l-50.2-18L89.8,167.3z"/>
<path class="st2" d="M161,144.5c-0.2,0-0.3-0.1-0.4-0.1l-1.2-0.4l-4.6-1.3c-3.8-1.2-9.2-2.8-15-4.6c-5.8-1.8-11.1-3.6-14.9-5
	c-1.9-0.7-3.4-1.2-4.5-1.6l-1.2-0.5c-0.1,0-0.3-0.1-0.4-0.2c0.1,0,0.3,0.1,0.4,0.1l1.2,0.4l4.5,1.5c3.8,1.3,9.1,3,14.9,4.9l15,4.7
	l4.5,1.5l1.2,0.4C160.8,144.4,160.9,144.5,161,144.5z"/>
<path class="st9" d="M201.9,97.8c0,0-1.2-3.8,0-7.2c0.7-1.7,1.7-3.4,2.9-4.8c0.3-0.4,0.8-0.8,1.3-1.1c0.5-0.3,1-0.4,1.6-0.5
	c0.6,0,1.1,0,1.7,0.2c0.5,0.2,1,0.5,1.4,0.9l10.6-13.1c0,0,5.1-3.4,8.2,1.7c0,0,0.7-3.3,3.1-1.4c2.4,1.9,1.2,7.2,1.2,7.2
	s2.9,0.5,1.7,7.7c0,0,1.3,2.7,0.3,7.5c-1.1,4.8-7.8,15.5-9.7,17.9l-6.3,8.6"/>
<path class="st2" d="M220,121.5c0-0.1,0.1-0.1,0.1-0.2l0.3-0.5c0.3-0.4,0.7-1,1.3-1.8l4.7-6.5c1-1.3,2-3,3.1-4.7
	c1.1-1.7,2.2-3.6,3.3-5.7c0.5-1,1.1-2.1,1.6-3.2c0.6-1.1,1-2.3,1.3-3.5c0.3-1.3,0.5-2.6,0.5-3.9c0-1.4-0.2-2.7-0.7-4v-0.1v0
	c0.2-1.4,0.3-2.7,0.2-4.1c0-0.7-0.2-1.4-0.5-2c-0.1-0.3-0.3-0.6-0.5-0.8c-0.2-0.2-0.5-0.4-0.8-0.6l-0.2,0l0-0.2
	c0.2-0.9,0.3-1.7,0.3-2.6c0-0.9-0.1-1.8-0.3-2.7c-0.2-0.5-0.4-1-0.7-1.4c-0.4-0.4-0.8-0.7-1.3-0.8c-0.2-0.1-0.5-0.1-0.7,0
	c-0.2,0.1-0.4,0.2-0.6,0.4c-0.3,0.4-0.5,0.9-0.7,1.3l-0.1,0.4l-0.2-0.3c-0.4-0.7-0.9-1.3-1.5-1.7c-0.6-0.5-1.4-0.8-2.1-0.9
	c-1.5-0.2-3,0.2-4.3,1h0l-9.3,11.4l-1,1.3l-0.3,0.3l-0.1,0.1c-0.4,0-0.1,0-0.2,0h0l-0.1-0.1c-0.2-0.2-0.4-0.3-0.6-0.4
	c-0.9-0.5-1.9-0.6-2.8-0.3c-0.9,0.2-1.7,0.7-2.2,1.5c-0.5,0.7-1,1.4-1.5,2.1c-0.4,0.6-0.8,1.3-1.1,2c-0.3,0.6-0.5,1.3-0.6,1.9
	c-0.2,1.1-0.2,2.1-0.2,3.2c0.1,0.7,0.2,1.4,0.3,2c0,0.2,0.1,0.4,0.1,0.5c0,0.1,0,0.1,0,0.2c0-0.1-0.1-0.1-0.1-0.2l-0.1-0.5
	c-0.2-0.7-0.3-1.3-0.3-2c-0.1-1.1-0.1-2.2,0.1-3.3c0.1-0.7,0.3-1.3,0.6-2c0.3-0.7,0.7-1.4,1.1-2c0.4-0.7,0.9-1.4,1.5-2.1
	c0.6-0.8,1.4-1.3,2.3-1.6c1-0.3,2.1-0.1,3,0.4c0.2,0.1,0.5,0.3,0.7,0.4l0.2,0.1h0c-0.1,0,0.2,0-0.2,0l0.1-0.1l0.3-0.3l1-1.3
	l9.3-11.4c1.3-0.9,2.9-1.2,4.5-1.1c0.8,0.2,1.6,0.5,2.3,1c0.7,0.5,1.2,1.1,1.7,1.8l-0.3,0.1c0.1-0.6,0.4-1.1,0.7-1.5
	c0.2-0.2,0.5-0.4,0.7-0.5c0.3-0.1,0.6-0.1,0.9,0c0.6,0.2,1.1,0.5,1.4,0.9c0.4,0.4,0.7,1,0.8,1.5c0.3,0.9,0.4,1.8,0.3,2.8
	c0,0.9-0.1,1.8-0.3,2.7l-0.1-0.2c0.4,0.1,0.7,0.3,1,0.6c0.3,0.3,0.5,0.6,0.6,1c0.3,0.7,0.4,1.4,0.5,2.1c0.1,1.4,0,2.8-0.3,4.2v-0.1
	c0.5,1.3,0.7,2.7,0.7,4.1c0,1.3-0.2,2.7-0.5,4c-0.3,1.2-0.8,2.4-1.3,3.6c-0.5,1.1-1.1,2.2-1.6,3.2c-1.1,2.1-2.2,4-3.4,5.7
	c-1.1,1.7-2.1,3.3-3.2,4.7c-2,2.7-3.7,4.9-4.8,6.5c-0.6,0.7-1,1.3-1.3,1.7L220,121.5C220,121.4,220,121.5,220,121.5z"/>
<path class="st2" d="M223.6,81.8c1-1.3,2.1-2.5,3.2-3.7c1.1-1.2,2.2-2.4,3.5-3.5c-1,1.3-2.1,2.5-3.2,3.7
	C226,79.6,224.9,80.8,223.6,81.8z"/>
<path class="st2" d="M207.3,90.7c0.5-1.1,1.1-2.2,1.8-3.2c0.6-1.1,1.2-2.1,1.9-3.1c-0.4,1.1-0.9,2.2-1.6,3.3
	C208.8,88.7,208.1,89.7,207.3,90.7z"/>
<path class="st2" d="M229.9,87.3c-0.1-0.1,1-1.9,2.2-4.2s2.1-4.2,2.2-4.2c-0.1,0.5-0.2,0.9-0.5,1.3c-0.3,0.8-0.8,1.9-1.4,3
	c-0.6,1.2-1.2,2.2-1.7,2.9C230.5,86.6,230.2,87,229.9,87.3z"/>
<path class="st2" d="M233.1,94.7c0.3-1.5,0.8-3,1.3-4.5c0.4-1.5,1-3,1.6-4.4c-0.3,1.5-0.8,3-1.3,4.5
	C234.2,91.8,233.7,93.3,233.1,94.7z"/>
<path class="st3" d="M69,99.5c0,0,17.2,2.2,28.8,13.4c17,16.5,21.2,17.5,21.2,17.7c0,0.2-26.4,42.7-26.4,42.7L69,161.7l-14-41.5
	L69,99.5z"/>
<path class="st6" d="M89.5,170.6c-0.2,0-0.3,0-0.5-0.1l-1.4-0.3c-0.6-0.1-1.3-0.3-2.2-0.5c-0.9-0.2-1.8-0.4-2.9-0.8l-1.7-0.5
	c-0.6-0.2-1.2-0.4-1.8-0.6c-1.2-0.4-2.5-0.9-3.9-1.4c-2.9-1.2-5.8-2.6-8.5-4.1c-2.7-1.6-5.4-3.3-7.9-5.2c-1.2-0.9-2.3-1.7-3.2-2.6
	c-0.5-0.4-1-0.8-1.4-1.2c-0.4-0.4-0.8-0.8-1.3-1.2c-0.8-0.7-1.5-1.5-2.1-2.1c-0.6-0.6-1.1-1.2-1.5-1.6l-0.9-1.1
	c-0.1-0.1-0.2-0.2-0.3-0.4c0.1,0.1,0.3,0.2,0.4,0.3l1,1c0.4,0.5,0.9,1,1.6,1.6c0.6,0.6,1.3,1.3,2.2,2l1.3,1.2
	c0.5,0.4,0.9,0.8,1.4,1.2c1,0.8,2.1,1.7,3.2,2.6c2.5,1.9,5.2,3.6,7.9,5.2c2.8,1.5,5.6,2.9,8.5,4.1c1.3,0.5,2.6,1.1,3.9,1.5
	c0.6,0.2,1.2,0.4,1.8,0.6l1.7,0.5c1,0.3,2,0.6,2.9,0.8c0.8,0.2,1.6,0.4,2.2,0.5l1.3,0.3C89.2,170.5,89.4,170.5,89.5,170.6z"/>
<path class="st6" d="M111.1,236c-0.2,0-0.3,0-0.5,0l-1.3-0.1c-0.6,0-1.3-0.1-2.1-0.2c-0.8-0.1-1.7-0.2-2.7-0.4
	c-1-0.2-2.1-0.3-3.3-0.6c-1.2-0.3-2.4-0.6-3.7-0.9c-5.7-1.5-11.2-3.8-16.3-6.7c-1.2-0.7-2.3-1.3-3.3-2c-1-0.7-1.9-1.3-2.8-1.9
	c-0.8-0.6-1.6-1.2-2.2-1.7c-0.6-0.5-1.2-1-1.6-1.3l-1-0.9c-0.1-0.1-0.2-0.2-0.3-0.3c0.1,0.1,0.3,0.2,0.4,0.3l1,0.8
	c0.4,0.4,1,0.8,1.6,1.3c0.7,0.5,1.4,1.1,2.2,1.6c0.8,0.6,1.8,1.2,2.8,1.9c1,0.6,2.1,1.3,3.3,2c5.1,2.9,10.6,5.1,16.2,6.7
	c1.3,0.3,2.6,0.7,3.7,0.9c1.2,0.2,2.3,0.5,3.3,0.6c1,0.2,1.9,0.3,2.7,0.4c0.8,0.1,1.5,0.2,2.1,0.2l1.3,0.1
	C110.8,235.9,110.9,236,111.1,236z"/>
<path class="st6" d="M119,130.5l-0.2-0.1l-0.5-0.2c-0.3-0.1-0.6-0.2-0.9-0.4c-0.4-0.2-0.8-0.4-1.1-0.7c-2.3-1.5-4.4-3.3-6.3-5.2
	c-2.6-2.3-5.5-5.2-8.9-8.3c-1.7-1.5-3.6-3-5.5-4.5c-1.9-1.6-4-3.1-6.1-4.6c-4-2.9-8.3-5.3-12.9-7.2c-3.8-1.4-7.8-2.2-11.8-2.2
	c-2.7,0-5.4,0.4-8,1.3l-1.2,0.5c-0.3,0.1-0.6,0.3-0.9,0.4l-0.5,0.2c-0.1,0-0.1,0.1-0.2,0.1c0,0,0.1,0,0.2-0.1l0.5-0.3
	c0.2-0.1,0.5-0.3,0.8-0.4l1.2-0.5c2.6-0.9,5.3-1.4,8-1.4c4.1,0,8.1,0.7,11.9,2.1c4.6,1.8,9,4.2,13,7.2c2.1,1.5,4.2,3.1,6.1,4.7
	c1.9,1.5,3.8,3,5.5,4.5c3.4,3,6.3,6,8.8,8.3c1.9,1.9,4,3.7,6.3,5.2c0.3,0.2,0.7,0.5,1.1,0.7c0.3,0.2,0.5,0.3,0.8,0.4l0.5,0.2
	C118.9,130.4,119,130.5,119,130.5z"/>
<path class="st6" d="M44.1,133.4c-0.1-0.3-0.1-0.5-0.2-0.8c-0.1-0.5-0.2-1.3-0.3-2.2c-0.3-2.5-0.3-4.9-0.2-7.4
	c0.1-2.5,0.4-4.9,0.8-7.3c0.2-0.9,0.3-1.7,0.5-2.2c0.1-0.3,0.1-0.5,0.2-0.8c0,0.3,0,0.5-0.1,0.8c-0.1,0.5-0.2,1.3-0.4,2.2
	c-0.8,4.8-1,9.8-0.6,14.6c0.1,0.9,0.1,1.7,0.2,2.2C44.2,132.8,44.2,133.1,44.1,133.4z"/>
<path class="st6" d="M85.4,230.3c-0.1,0-5.1-15.4-11.2-34.3c-6.1-19-11-34.4-10.9-34.5c0.1,0,5.1,15.4,11.2,34.4
	C80.7,214.9,85.6,230.3,85.4,230.3z"/>
<path class="st6" d="M84.3,242.4c-0.1,0-1.3-3.5-2.7-8c-1.4-4.4-2.5-8.1-2.4-8.1c0.1,0,1.3,3.5,2.7,8
	C83.4,238.7,84.4,242.4,84.3,242.4z"/>
<g class="st4">
	<path d="M95.3,168.9c-5.9,5.5-35.2-8.5-47-21.6c0.6,3.1,2.1,5.9,4.3,8.1c5.4,5.2,10.8,9.3,17.1,14.2c7.6,6.1,15.9,11.7,25.4,13.8
		c9.5,2.2,19.8,0,26.4-7.1C112.5,174,101.8,170.8,95.3,168.9z"/>
</g>
<path class="st10" d="M42.9,131.4c0,0.1-0.5-0.2-1.4-0.3c-0.5-0.1-1-0.1-1.5,0c-0.6,0.1-1.2,0.2-1.8,0.4c-0.6,0.2-1.1,0.5-1.7,0.9
	c-0.4,0.3-0.8,0.6-1.2,1c-0.6,0.7-0.8,1.1-0.9,1.1c0.1-0.5,0.4-0.9,0.7-1.3c0.3-0.4,0.7-0.8,1.2-1.1c1.1-0.8,2.3-1.2,3.6-1.3
	c0.5,0,1.1,0,1.6,0.1C42,130.9,42.5,131.1,42.9,131.4z"/>
<path class="st10" d="M102.3,119.4c-0.7-0.5-1.4-1-2.2-1.3c-2.2-0.9-4.6-1.1-6.9-0.5c-2.9,0.7-6,2.7-8.7,5.7
	c-2.7,2.9-5,6.7-8.1,10.1c-1.5,1.7-3.2,3.2-5.1,4.4c-1.8,1.1-3.8,1.9-5.8,2.3c-1.9,0.4-3.8,0.5-5.7,0.4l-0.7,0l-0.7-0.1
	c-0.4-0.1-0.8-0.1-1.3-0.2c-0.8-0.2-1.5-0.4-2.3-0.6c-2.3-0.7-4.4-1.8-6.3-3.4c-0.5-0.4-1-0.9-1.4-1.3l-0.4-0.4c0,0-0.1-0.1-0.1-0.1
	c0,0,0,0,0.1,0.1l0.4,0.3c0.5,0.5,1,0.9,1.5,1.3c1.9,1.5,4,2.6,6.3,3.2c0.8,0.2,1.6,0.4,2.3,0.6c0.4,0.1,0.8,0.1,1.2,0.2l0.6,0.1
	l0.7,0c1.9,0.1,3.8,0,5.6-0.4c2-0.4,4-1.2,5.7-2.3c1.9-1.2,3.6-2.7,5-4.4c3-3.4,5.3-7.2,8.1-10.1c2.7-2.9,5.8-5.1,8.8-5.7
	c2.4-0.6,4.8-0.4,7.1,0.6c0.6,0.3,1.2,0.6,1.7,1l0.4,0.3L102.3,119.4z"/>
<path class="st10" d="M101.7,154.6c0,0.1-0.1,0.2-0.2,0.3c-0.1,0.2-0.3,0.5-0.6,0.8c-0.7,1-1.6,2-2.5,2.8c-3,2.9-6.6,5.1-10.6,6.2
	c-4,1.2-8.2,1.3-12.3,0.5c-1.2-0.3-2.4-0.6-3.6-1c-0.4-0.1-0.7-0.3-0.9-0.4c-0.1,0-0.2-0.1-0.3-0.2c0.4,0.1,0.9,0.3,1.3,0.4
	c1.2,0.4,2.4,0.7,3.6,0.9c4,0.8,8.2,0.6,12.1-0.6c3.9-1.2,7.5-3.3,10.5-6.1c0.9-0.9,1.7-1.8,2.5-2.7
	C101.1,155.2,101.4,154.9,101.7,154.6z"/>
<path class="st10" d="M66.9,174.9c-0.1,0-0.1,0-0.2,0h-0.5c-0.3,0-0.6,0-0.8,0c-0.4,0-0.7,0-1.1,0.1c-2.4,0.2-4.7,1.1-6.6,2.5
	c-1.3,1-2.5,2.2-3.3,3.6c-1,1.6-1.5,3.4-1.4,5.3c0.1,1,0.4,1.9,1.1,2.7c0.6,0.8,1.6,1.4,2.6,1.6c0.5,0.1,1.1,0,1.6-0.2
	c0.5-0.2,1-0.4,1.4-0.8c0.8-0.8,1.4-1.8,1.5-2.9c0.2-2.2-0.3-4.5-1.6-6.3c-1.1-1.7-2.7-3.2-4.5-4.2c-1.6-0.9-3.4-1.6-5.3-1.8
	c-1.6-0.2-3.3-0.2-4.9,0c-2.4,0.3-4.7,1-6.9,2.1c-0.8,0.4-1.3,0.7-1.8,0.9l-0.5,0.2c-0.1,0.1-0.2,0.1-0.2,0.1l0.1-0.1l0.4-0.3
	c0.4-0.2,1-0.6,1.7-0.9c2.2-1.1,4.5-1.8,6.9-2.2c1.7-0.3,3.3-0.3,5,0c1.9,0.3,3.8,0.9,5.4,1.9c1.9,1,3.5,2.5,4.6,4.3
	c1.3,1.9,1.9,4.2,1.7,6.6c-0.2,1.2-0.7,2.3-1.6,3.1c-0.4,0.4-0.9,0.7-1.5,0.9c-0.6,0.2-1.1,0.2-1.7,0.2c-1.1-0.2-2.1-0.8-2.8-1.7
	c-0.6-0.8-1-1.9-1.1-2.9c-0.1-2,0.5-3.9,1.5-5.5c0.9-1.4,2-2.7,3.4-3.6c2-1.4,4.3-2.3,6.7-2.5c0.4,0,0.8,0,1.1,0
	c0.3,0,0.6,0,0.8,0.1l0.5,0.1C66.8,174.9,66.8,174.9,66.9,174.9z"/>
<path class="st10" d="M118.3,196.4l-0.2,0.1l-0.6,0.4c-0.8,0.5-1.6,0.9-2.5,1.3c-1.4,0.6-2.8,1.1-4.2,1.3c-1.9,0.4-3.9,0.5-5.8,0.2
	c-1.1-0.1-2.3-0.4-3.4-0.8c-1.2-0.4-2.3-1-3.3-1.7c-2.3-1.6-4-3.8-5.1-6.3c-0.6-1.4-0.9-2.9-0.9-4.3c0-0.8,0.1-1.5,0.2-2.3
	c0.4-1.6,1.1-3,2.2-4.2c0.6-0.6,1.2-1.1,1.9-1.5c0.7-0.4,1.6-0.6,2.4-0.7c0.9,0,1.7,0.2,2.5,0.6c0.7,0.4,1.3,1,1.8,1.8
	c0.5,0.7,0.8,1.5,0.9,2.3c0.3,1.6,0,3.3-0.7,4.7c-0.8,1.3-2,2.4-3.4,3.2c-1.3,0.7-2.7,1.1-4.2,1.3c-1.4,0.2-2.8,0.2-4.2,0.1
	c-1.3-0.1-2.6-0.3-3.9-0.7c-2.3-0.6-4.5-1.5-6.6-2.6c-3-1.6-5.9-3.4-8.7-5.5c-1-0.7-1.7-1.3-2.2-1.7l-0.6-0.4
	c-0.1,0-0.1-0.1-0.2-0.2c0.1,0,0.1,0.1,0.2,0.1l0.6,0.4l2.3,1.6c2.8,2,5.7,3.8,8.8,5.4c2.1,1.1,4.3,1.9,6.6,2.5
	c1.3,0.3,2.6,0.6,3.9,0.7c1.4,0.1,2.8,0.1,4.1-0.1c1.4-0.2,2.8-0.7,4.1-1.3c1.3-0.7,2.4-1.8,3.2-3c0.7-1.4,1-3,0.7-4.5
	c-0.1-0.8-0.4-1.5-0.8-2.2s-1-1.2-1.7-1.7c-0.7-0.4-1.5-0.6-2.3-0.6c-0.8,0-1.6,0.2-2.2,0.6c-1.4,0.8-2.5,1.9-3.2,3.3
	c-0.4,0.7-0.6,1.4-0.8,2.1c-0.2,0.7-0.2,1.5-0.2,2.2c0,1.5,0.3,2.9,0.9,4.2c0.7,1.8,1.9,3.4,3.3,4.8c1.4,1.4,3.1,2.4,4.9,3.1
	c1.1,0.4,2.2,0.7,3.3,0.8c1.9,0.3,3.9,0.2,5.8-0.2c1.4-0.3,2.8-0.7,4.2-1.3c0.9-0.4,1.7-0.8,2.5-1.2l0.6-0.4
	C118.1,196.5,118.2,196.4,118.3,196.4z"/>
<path class="st10" d="M76.9,207.2c-0.4,0-0.8,0-1.2,0c-0.4,0-0.8,0-1.3,0s-1.1,0-1.8,0.1c-0.7,0.1-1.4,0.1-2.2,0.2
	c-0.8,0.1-1.6,0.2-2.5,0.4c-3.7,0.7-7.4,2-10.7,3.8c-0.8,0.4-1.5,0.8-2.1,1.3c-0.7,0.4-1.3,0.8-1.8,1.2c-0.5,0.4-1,0.8-1.4,1.1
	c-0.4,0.3-0.8,0.6-1.1,0.9c-0.3,0.3-0.6,0.5-0.9,0.7c0.2-0.3,0.5-0.6,0.8-0.8c0.3-0.3,0.6-0.6,1-0.9c0.4-0.3,0.9-0.7,1.4-1.1
	c0.5-0.4,1.1-0.8,1.8-1.3c0.7-0.4,1.3-0.9,2.1-1.3c3.4-1.9,7-3.2,10.8-3.9c0.9-0.1,1.7-0.3,2.5-0.4c0.8-0.1,1.5-0.1,2.2-0.2
	c0.7,0,1.3,0,1.8,0c0.4,0,0.9,0,1.3,0.1C76.2,207.1,76.5,207.1,76.9,207.2z"/>
<path class="st10" d="M123.1,216.9c-0.1,0.1-0.2,0.2-0.3,0.3c-0.2,0.2-0.6,0.5-1,0.8c-1.3,0.9-2.6,1.8-4,2.5
	c-4.7,2.4-9.8,3.8-15,3.9c-5.2,0.1-10.5-0.9-15.2-3.1c-1.4-0.6-2.8-1.4-4.2-2.2c-0.5-0.3-0.8-0.6-1.1-0.7c-0.1-0.1-0.2-0.2-0.4-0.3
	c0.1,0.1,0.3,0.1,0.4,0.2c0.3,0.1,0.6,0.4,1.1,0.7c1.4,0.8,2.8,1.5,4.2,2.1c4.8,2.1,9.9,3.1,15.1,2.9c5.2-0.1,10.3-1.4,14.9-3.8
	c1.4-0.7,2.8-1.5,4.1-2.4c0.5-0.3,0.8-0.6,1.1-0.7C122.8,217.1,122.9,217,123.1,216.9z"/>
<path class="st10" d="M84.6,104.6c0,0,0,0.1,0,0.2l-0.1,0.6c-0.2,0.7-0.5,1.4-0.8,2c-0.9,1.7-3,3.7-6,5.3c-1.6,0.9-3.3,1.6-5.1,2.3
	c-2,0.7-4.1,1.1-6.3,1c-2.4-0.1-4.7-1-6.5-2.6c-0.9-0.9-1.7-1.9-2.1-3.1c-0.5-1.2-0.6-2.6-0.3-3.8c0.3-1.3,1-2.4,2-3.2
	c1-0.8,2.2-1.3,3.6-1.4c0.6,0,1.2,0.2,1.8,0.4c0.6,0.3,1.1,0.6,1.5,1.1c0.8,0.9,1.3,2,1.3,3.2c0,0.6-0.1,1.1-0.4,1.6
	c-0.2,0.5-0.6,1-1,1.3c-0.8,0.7-1.8,1.1-2.8,1.3c-1.8,0.3-3.7,0.3-5.5-0.2c-2.6-0.6-5.1-1.7-7.3-3.3c-0.8-0.6-1.5-1.2-2.2-2
	c0.1,0,0.1,0.1,0.2,0.1l0.4,0.4c0.5,0.5,1.1,0.9,1.7,1.3c2.2,1.5,4.6,2.6,7.2,3.1c1.8,0.4,3.6,0.5,5.4,0.1c1-0.2,1.9-0.6,2.7-1.3
	c0.4-0.3,0.7-0.8,0.9-1.2s0.3-1,0.3-1.5c0-1.1-0.5-2.2-1.3-3c-0.4-0.4-0.9-0.8-1.4-1c-0.5-0.2-1.1-0.4-1.7-0.4
	c-1.2,0.1-2.4,0.5-3.3,1.3c-0.9,0.8-1.6,1.9-1.9,3.1c-0.2,1.2-0.1,2.5,0.3,3.6c0.4,1.1,1.1,2.2,2,3c1.8,1.5,4,2.4,6.3,2.5
	c2.1,0.1,4.2-0.2,6.2-0.9c1.7-0.6,3.4-1.3,5-2.2c3-1.6,5-3.5,6-5.1C84,106.4,84.4,105.5,84.6,104.6z"/>
<path class="st10" d="M82.2,238.1c-0.6,0.1-1.2,0.1-1.8,0.1c-2.9,0.2-5.7,1-8.4,2.3c-0.5,0.3-1.1,0.6-1.6,0.8c0.5-0.4,1-0.8,1.5-1
	c1.3-0.7,2.7-1.3,4.1-1.7c1.4-0.4,2.9-0.6,4.4-0.6C81,238,81.6,238,82.2,238.1z"/>
<path class="st10" d="M107.8,241.1c-0.3,0.1-0.6,0.2-0.9,0.2c-0.8,0.1-1.6,0.3-2.4,0.3c-5.3,0.5-10.7-0.4-15.5-2.6
	c-0.9-0.4-1.7-0.8-2.2-1.1c-0.3-0.1-0.5-0.3-0.7-0.5c0.3,0.1,0.6,0.2,0.8,0.3c0.5,0.2,1.3,0.6,2.2,1c4.9,2,10.1,2.9,15.4,2.5
	c1-0.1,1.8-0.1,2.4-0.2C107.2,241.2,107.5,241.1,107.8,241.1z"/>
<path class="st7" d="M133.2,136.1c0,0,3.6-6.6,7.4-5.5c3.8,1.1,4.3,1.9,4.3,1.9s2.3-3.2,6.3-0.2c0,0,4.5-3,8.9,0.2
	c0,0,4-2.4,6.2,0.8c2.3,3.2,6.8,10.9,6.2,19.8c-0.6,8.9-3.9,38.1-3.9,38.1l-30.6,5.3c0,0,6.8-27.6,4-30.2
	c-5.7-5.2-8.2-16.2-8.2-16.2l-6.7-10.8c0,0,1.3-5.7,4.9-2.1c2.5,2.6,4.9,5.3,7.2,8.2l-0.8-7.4C138.5,138.2,133.5,139.9,133.2,136.1z
	"/>
<path class="st8" d="M138.2,135c0.2,0.6,0.3,1.3,0.3,2c0.1,0.7,0.1,1.4,0,2.1c-0.2-0.6-0.3-1.3-0.3-2
	C138.1,136.4,138.1,135.7,138.2,135z"/>
<path class="st8" d="M148.2,141.5c-0.1,0-0.5-2.1-1.4-4.6c-0.9-2.5-1.9-4.4-1.8-4.4c0.3,0.3,0.6,0.7,0.8,1.2c0.5,1,1,2,1.4,3.1
	c0.4,1.1,0.7,2.2,0.9,3.3C148.1,140.5,148.2,141,148.2,141.5z"/>
<path class="st8" d="M154.1,138.8c-0.3-1.3-0.8-2.5-1.3-3.7c-0.7-1.1-1.5-2.2-2.3-3.2c1.1,0.8,2,1.8,2.7,3
	C153.7,136.1,154,137.5,154.1,138.8L154.1,138.8z"/>
<path class="st8" d="M162.6,138.3c-0.1,0-0.6-1.5-1.4-3.3c-0.8-1.8-1.6-3.2-1.6-3.3C161.2,133.7,162.2,135.9,162.6,138.3z"/>
<path class="st8" d="M142.7,167.2c0,0.1,0,0.1,0,0.2c0,0.1,0,0.3,0,0.5c0,0.4,0,1.1,0,2c-0.1,2.4-0.3,4.8-0.7,7.2
	c-0.6,3.6-1.4,7.1-2.6,10.5c-1.3,3.9-3,8-4.6,12.4c-1.6,4.1-2.7,8.3-3.5,12.7c-0.6,3.5-0.7,7.1-0.3,10.7c0.3,2.4,0.9,4.7,1.9,7
	c0.1,0.4,0.3,0.7,0.5,1l0.4,0.7c0.1,0.2,0.2,0.3,0.2,0.5c0,0.1,0,0.1,0.1,0.2c0,0-0.1-0.1-0.1-0.1l-0.3-0.4l-0.4-0.7
	c-0.2-0.3-0.4-0.7-0.5-1c-1-2.2-1.7-4.6-2-7c-0.5-3.6-0.4-7.2,0.2-10.8c0.7-4.4,1.9-8.6,3.5-12.7c1.6-4.4,3.4-8.5,4.6-12.3
	c1.2-3.4,2.1-6.9,2.7-10.4c0.4-2.4,0.6-4.8,0.8-7.2c0-0.8,0-1.5,0.1-2c0-0.2,0-0.4,0-0.5C142.6,167.4,142.7,167.3,142.7,167.2z"/>
<path class="st7" d="M195.4,140.1c0,0,9.6,33.4,11.5,44.6c1.9,11.2,10.5,40.2,28,34.4c17.5-5.7,20.8-20.5,20.1-36.4
	c-0.6-15.9-9.3-53.5-9.3-53.5L223,144.6l-4-17L195.4,140.1z"/>
<path class="st7" d="M198.8,95.9c0,0-5.2-4-8.9,2c0,0-2.4-2.9-5.2-0.7c-2.8,2.2-0.6,7.5-0.6,7.5s-3.2-0.4-1.8,8.1c0,0-4,2.6-0.9,8.8
	c2.6,5.1,11.8,15.8,14,18.6l3.4,5.6l19.9-16.4c0,0,4.4-7.9,3-11.9c-0.8-2-2-3.9-3.4-5.6c-0.4-0.5-0.9-1-1.5-1.3
	c-0.6-0.3-1.2-0.5-1.9-0.6c-0.7-0.1-1.3,0-2,0.2s-1.2,0.6-1.7,1L198.8,95.9z"/>
<path class="st8" d="M196.7,107c-0.1,0.1-1.6-2-3.4-4.6c-0.9-1.3-1.8-2.4-2.4-3.3c-0.4-0.4-0.7-0.9-1-1.3c0.5,0.3,0.9,0.7,1.2,1.2
	c0.7,0.8,1.6,1.9,2.5,3.2c0.9,1.3,1.7,2.5,2.3,3.4L196.7,107z"/>
<path class="st8" d="M215.3,117.3c0,0-0.3-0.3-0.8-0.9c-0.5-0.6-1.1-1.4-1.8-2.4c-0.9-1.1-1.6-2.3-2.1-3.6c0.1,0,1,1.6,2.4,3.4
	C213.9,114.9,214.7,116.1,215.3,117.3z"/>
<path class="st8" d="M188.9,113.5c-0.4-0.4-0.7-0.9-0.9-1.3c-0.5-0.8-1.2-2-1.9-3.4c-0.7-1.3-1.3-2.6-1.7-3.5
	c-0.2-0.5-0.4-1-0.6-1.5c0.3,0.4,0.6,0.9,0.8,1.4c0.4,0.9,1.1,2.1,1.8,3.5c0.7,1.3,1.3,2.6,1.8,3.4
	C188.5,112.5,188.7,113,188.9,113.5z"/>
<path class="st8" d="M185.8,121.5c-0.2-0.4-0.4-0.8-0.6-1.3c-0.3-0.8-0.8-1.9-1.3-3.1c-0.7-1.4-1.2-2.9-1.6-4.4
	c0.2,0.4,0.4,0.8,0.6,1.3c0.3,0.8,0.8,1.9,1.3,3.1C184.9,118.4,185.4,119.9,185.8,121.5z"/>
<path class="st6" d="M236.8,143.7c0,0,0-0.1,0.1-0.2c0.2-0.2,0.3-0.4,0.5-0.5c0.7-0.5,1.6-0.8,2.5-0.7c0.6,0.1,1.2,0.3,1.7,0.7
	c0.6,0.4,1,1.1,1.3,1.7c0.3,0.8,0.4,1.7,0.2,2.5c-0.2,0.9-0.7,1.7-1.3,2.3c-0.6,0.6-1.4,0.9-2.2,1c-0.8,0.1-1.7-0.2-2.3-0.7
	c-0.6-0.4-1-0.9-1.3-1.6c-0.3-0.6-0.4-1.3-0.3-2C235.7,145.2,236.1,144.4,236.8,143.7c0.2-0.2,0.4-0.4,0.6-0.5
	c0.1,0,0.2-0.1,0.2-0.1c-0.3,0.2-0.5,0.4-0.7,0.7c-0.6,0.7-0.9,1.5-1,2.4c0,0.6,0.1,1.3,0.4,1.8c0.3,0.6,0.7,1.1,1.2,1.4
	c0.6,0.4,1.3,0.6,2,0.6c0.8,0,1.5-0.4,2.1-0.9c0.6-0.5,1-1.2,1.2-2c0.2-0.7,0.1-1.5-0.2-2.2c-0.2-0.6-0.6-1.2-1.2-1.6
	c-0.5-0.4-1-0.6-1.6-0.6c-0.8-0.1-1.7,0.1-2.4,0.5C237,143.5,236.8,143.8,236.8,143.7z"/>
<path class="st6" d="M240.9,149.8c-0.1-0.4-0.3-0.7-0.4-1.1c-0.3-0.8-0.8-1.6-1.4-2.2c-0.6-0.6-1.4-1-2.2-1.2
	c-0.4-0.1-0.7-0.1-1.1-0.2c0.4-0.1,0.7-0.1,1.1,0c0.9,0.1,1.7,0.6,2.4,1.2c0.7,0.7,1.2,1.5,1.4,2.4C241,149,241,149.4,240.9,149.8z"
	/>
<path class="st6" d="M239.6,146.9c-0.1,0.1-0.4-1,0-2.3c0.4-1.3,1.3-1.9,1.4-1.9c-0.4,0.6-0.7,1.3-1,2
	C239.8,145.4,239.6,146.1,239.6,146.9z"/>
<path class="st6" d="M249.5,159.5c0,0,0.1,0,0.2,0.2c0.2,0.2,0.3,0.4,0.4,0.6c0.3,0.7,0.5,1.5,0.4,2.3c-0.1,0.8-0.4,1.6-0.9,2.2
	c-0.5,0.6-1.1,1-1.8,1.2c-0.8,0.3-1.6,0.3-2.3,0c-0.8-0.3-1.5-0.9-1.9-1.6c-0.5-0.8-0.7-1.7-0.6-2.6c0.1-0.8,0.4-1.6,0.9-2.3
	c0.4-0.6,0.9-1,1.6-1.3c0.6-0.3,1.3-0.3,2-0.2c0.9,0.2,1.7,0.7,2.2,1.5c0.1,0.2,0.3,0.4,0.3,0.7c0,0.1,0.1,0.2,0,0.3
	c-0.1-0.3-0.3-0.6-0.5-0.8c-0.5-0.7-1.3-1.1-2.1-1.3c-0.6-0.1-1.3,0-1.8,0.3c-0.6,0.3-1.1,0.7-1.4,1.2c-0.5,0.6-0.8,1.3-0.8,2.1
	c-0.1,0.8,0.1,1.6,0.5,2.3c0.4,0.7,1,1.2,1.7,1.5c0.7,0.2,1.4,0.2,2.1,0c0.6-0.2,1.2-0.6,1.6-1.1c0.4-0.5,0.7-1,0.8-1.6
	c0.2-0.9,0.2-1.8-0.2-2.6C249.8,160.1,249.6,159.8,249.5,159.5z"/>
<path class="st6" d="M243.2,163.4c0.3-0.1,0.7-0.2,1.1-0.3c0.8-0.3,1.6-0.7,2.2-1.3c0.6-0.6,1.1-1.4,1.4-2.3
	c0.1-0.4,0.2-0.7,0.4-1.1c0.1,0.4,0,0.8-0.1,1.2c-0.3,0.9-0.8,1.8-1.4,2.5c-0.7,0.7-1.5,1.1-2.4,1.3
	C243.7,163.6,243.2,163.5,243.2,163.4z"/>
<path class="st6" d="M246.2,162.2c0.4-0.1,0.7-0.2,1.1-0.2c0.4,0,0.7,0.2,1.1,0.3c0.4,0.1,0.7,0.4,0.9,0.6c0.3,0.3,0.5,0.6,0.6,1
	c-0.1,0.1-0.7-0.7-1.7-1.2C247.1,162.3,246.2,162.3,246.2,162.2z"/>
<path class="st6" d="M238.8,157.7c0,0-0.3,0-0.7-0.3c-0.5-0.5-0.9-1.1-1-1.8c-0.1-0.5-0.1-1.1,0.1-1.6c0.2-0.5,0.5-1,0.9-1.4
	c0.5-0.4,1-0.7,1.7-0.8c0.7-0.1,1.3,0.1,1.9,0.5c0.6,0.4,1,0.9,1.2,1.6c0.2,0.6,0.2,1.3,0,1.9c-0.1,0.5-0.4,1-0.8,1.4
	c-0.4,0.4-0.8,0.7-1.4,0.8C240,158.3,239.3,158.1,238.8,157.7c-0.5-0.2-0.6-0.5-0.6-0.5C238.3,157.4,238.5,157.5,238.8,157.7
	c0.6,0.2,1.2,0.2,1.8,0.1c0.5-0.2,0.9-0.4,1.2-0.8c0.3-0.4,0.5-0.8,0.7-1.2c0.2-0.6,0.2-1.1,0-1.7c-0.2-0.6-0.5-1.1-1-1.4
	c-0.5-0.3-1-0.5-1.6-0.4c-0.6,0-1.1,0.3-1.5,0.7c-0.3,0.3-0.5,0.6-0.7,1c-0.2,0.4-0.3,0.8-0.3,1.2c0,0.4,0.1,0.8,0.2,1.2
	c0.2,0.4,0.4,0.7,0.7,1C238.5,157.6,238.8,157.7,238.8,157.7z"/>
<path class="st6" d="M242,153c-0.7,0.6-1.4,1.4-1.8,2.2c-0.3,0.9-0.4,1.9-0.4,2.9c0,0-0.2-0.3-0.3-0.8c-0.1-0.7,0-1.5,0.3-2.2
	c0.3-0.7,0.7-1.3,1.3-1.7C241.7,153,242,153,242,153z"/>
<path class="st6" d="M240.3,154.8c0.1,0.1-0.6,0.7-1.6,0.6s-1.6-0.6-1.5-0.7c0.1-0.1,0.7,0.2,1.5,0.2
	C239.6,155,240.2,154.7,240.3,154.8z"/>
<path class="st6" d="M242,148.9c0,0,0.2,0.1,0.6,0.2c0.5,0.2,1,0.2,1.6,0.1c0.8-0.2,1.5-0.6,2-1.3c0.6-0.8,0.9-1.8,0.9-2.8
	c0-0.4-0.1-0.8-0.2-1.2l0.2,0.1c-0.7,0.2-1.5,0.5-2.1,0.9c-0.6,0.4-1.1,1-1.5,1.7c-0.3,0.6-0.6,1.2-0.8,1.8c0-0.2,0-0.4,0.1-0.5
	c0.1-0.5,0.3-0.9,0.5-1.3c0.4-0.7,0.9-1.4,1.6-1.9c0.7-0.5,1.4-0.8,2.2-1l0.2,0l0,0.2c0.1,0.4,0.2,0.9,0.2,1.3c0,1.1-0.3,2.2-1,3.1
	c-0.5,0.7-1.3,1.2-2.2,1.3c-0.6,0.1-1.1,0-1.7-0.2C242.2,149,242,148.9,242,148.9z"/>
<path class="st6" d="M246.1,145.7c-0.5,0.7-1.1,1.4-1.8,1.9c-0.6,0.6-1.4,1-2.2,1.3c0.6-0.6,1.3-1.2,2-1.6
	C245.1,146.3,246,145.6,246.1,145.7z"/>
<path class="st6" d="M240.1,150c-0.1,0.2-0.2,0.3-0.3,0.5c-0.3,0.4-0.7,0.7-1.2,1c-0.6,0.4-1.4,0.6-2.1,0.7c-0.9,0-1.8-0.2-2.6-0.7
	c-0.6-0.4-1.1-0.9-1.5-1.6l-0.1-0.1l0.1-0.1c0.4-0.4,1-0.7,1.5-0.9c0.6-0.2,1.2-0.2,1.8,0c0.5,0.1,0.9,0.3,1.2,0.6
	c-0.4-0.2-0.8-0.3-1.2-0.4c-0.5-0.1-1.1,0-1.6,0.1c-0.5,0.2-1,0.5-1.4,0.8l0-0.2c0.3,0.6,0.8,1.1,1.4,1.4c0.7,0.5,1.5,0.7,2.4,0.7
	c0.7,0,1.4-0.2,2-0.6C239.1,150.9,239.6,150.4,240.1,150z"/>
<path class="st6" d="M234.7,150.7c0.8-0.4,1.6-0.7,2.5-0.7c1.4-0.1,2.5,0.1,2.5,0.2c0,0.1-1.1,0.1-2.5,0.2
	C235.8,150.6,234.7,150.8,234.7,150.7z"/>
<path class="st6" d="M232.8,169.1c0,0,0-0.1-0.1-0.3c0-0.3,0-0.5,0-0.8c0.1-0.9,0.5-1.8,1.1-2.6c0.9-1.1,1.9-1.9,3.2-2.6
	c1.5-0.7,2.8-1.6,4.1-2.5c0.7-0.5,1.2-1.2,1.6-1.9c0.4-0.7,0.6-1.5,0.7-2.2c0.2-1.3,0-2.7-0.5-4c-0.3-0.8-0.8-1.6-1.3-2.3
	c-0.2-0.2-0.4-0.5-0.6-0.8c0.3,0.2,0.5,0.4,0.7,0.7c0.6,0.7,1.1,1.5,1.5,2.3c0.6,1.3,0.8,2.7,0.6,4.1c-0.1,0.8-0.4,1.6-0.8,2.4
	c-0.4,0.8-1,1.5-1.7,2c-1.3,1-2.7,1.8-4.2,2.5c-1.2,0.6-2.2,1.4-3.1,2.4c-0.6,0.7-1,1.5-1.2,2.4
	C232.8,168.8,232.9,169.1,232.8,169.1z"/>
<path class="st6" d="M243.7,154.7c-0.1,0-0.2-0.5-0.6-0.9c-0.4-0.4-0.8-0.5-0.8-0.7c0-0.1,0.1-0.1,0.4-0.1c0.3,0.1,0.6,0.2,0.7,0.4
	c0.2,0.2,0.3,0.5,0.4,0.8C243.8,154.5,243.8,154.7,243.7,154.7z"/>
<path class="st6" d="M247.9,155.1c0,0.1-1-0.1-2.1,0.2c-1.1,0.2-1.9,0.7-2,0.6c-0.1-0.1,0.7-0.8,1.9-1.1
	C247,154.7,248,155,247.9,155.1z"/>
<path class="st6" d="M243.6,156.3c0.7,0,1.4,0,2.1,0.1c0.8,0,1.5,0,2.3-0.2c0.9-0.2,1.8-0.7,2.4-1.4v0.3l-0.1-0.1
	c-0.7-0.6-1.6-1-2.5-1.1c-0.8-0.1-1.5,0-2.3,0.2c-0.7,0.3-1.3,0.6-2,1c0,0,0.1-0.2,0.4-0.5c0.4-0.4,0.9-0.6,1.4-0.8
	c0.8-0.3,1.6-0.4,2.4-0.3c1,0.1,2,0.5,2.7,1.2l0.1,0.1l0.2,0.1l-0.1,0.2c-0.7,0.8-1.6,1.3-2.6,1.5c-0.8,0.2-1.6,0.2-2.4,0.1
	c-0.5-0.1-1.1-0.1-1.6-0.2C243.8,156.4,243.6,156.3,243.6,156.3z"/>
<path class="st6" d="M237.4,162.4c0,0-0.2,0-0.5-0.1c-0.4-0.2-0.9-0.4-1.2-0.7c-0.6-0.5-1.2-1.1-1.5-1.8c-0.4-0.7-0.6-1.5-0.6-2.3
	v-0.2h0.2c0.2,0,0.4-0.1,0.5-0.1c1,0,1.9,0.3,2.6,1c0.6,0.6,1,1.3,1.1,2.1c0.1,0.5,0.1,1.1,0,1.6c0,0.2-0.1,0.4-0.2,0.6
	c0.1-0.7,0.1-1.4-0.1-2.1c-0.2-0.7-0.5-1.3-1.1-1.8c-0.6-0.6-1.5-0.9-2.3-0.9c-0.2,0-0.3,0-0.5,0.1l0.2-0.2c0,0.8,0.2,1.5,0.5,2.2
	c0.3,0.7,0.8,1.3,1.4,1.8C236.4,161.8,236.9,162.2,237.4,162.4z"/>
<path class="st6" d="M237.7,162.6c-0.1,0-0.1-0.2-0.3-0.6c-0.2-0.5-0.5-0.9-0.9-1.3c-0.4-0.4-0.7-0.8-1-1.3
	c-0.2-0.4-0.2-0.7-0.2-0.7s0.2,0.2,0.4,0.5c0.2,0.3,0.6,0.7,1,1.2c0.4,0.4,0.7,0.9,0.8,1.4C237.8,162.3,237.7,162.5,237.7,162.6z"/>
<path class="st6" d="M243.5,163.6c0,0.1-1.2,0.4-2.6-0.1c-0.9-0.2-1.6-0.8-2.1-1.5c0.1-0.1,1,0.7,2.3,1.1
	C242.4,163.6,243.5,163.6,243.5,163.6z"/>
<path class="st6" d="M236.5,164c0,0,0.2,0,0.5,0.2c0.5,0.2,0.9,0.5,1.2,0.9c0.5,0.6,0.9,1.3,1.1,2c0.2,1,0.2,2-0.1,2.9l0,0.2H239
	c-0.2,0-0.5,0-0.7-0.1c-1-0.2-1.9-0.8-2.5-1.7c-0.5-0.7-0.7-1.6-0.7-2.5c0-0.6,0.1-1.2,0.4-1.7c0.2-0.4,0.3-0.5,0.3-0.5
	c-0.3,0.7-0.4,1.5-0.4,2.2c0,0.8,0.3,1.6,0.7,2.2c0.5,0.8,1.3,1.3,2.3,1.5c0.2,0,0.4,0.1,0.6,0.1l-0.2,0.1c0.3-0.9,0.3-1.8,0.1-2.7
	c-0.2-0.7-0.5-1.4-1-1.9C237.6,164.8,237,164.4,236.5,164z"/>
<path class="st6" d="M237.9,168.5c-0.1,0.1-0.9-0.8-1.3-2.2c-0.3-0.9-0.4-1.8-0.1-2.7c0.1,0,0.1,1.2,0.5,2.5
	C237.3,167.5,238,168.4,237.9,168.5z"/>
<path class="st6" d="M233.7,165.7c-0.2,0.1-0.5,0.1-0.7,0c-0.2,0-0.5-0.1-0.7-0.3c-0.5-0.3-0.9-0.7-1.2-1.2
	c-0.3-0.7-0.4-1.4-0.3-2.1c0-0.1,0-0.2,0.1-0.3l0-0.2h0.2c0.6,0.1,1.1,0.3,1.6,0.7c0.5,0.4,0.8,0.9,1,1.5c0.2,0.5,0.2,1,0.1,1.5
	c-0.1-0.5-0.2-0.9-0.3-1.3c-0.2-0.5-0.5-0.9-0.9-1.3c-0.4-0.3-0.9-0.6-1.4-0.6l0.2-0.2c0,0.1,0,0.2-0.1,0.2
	c-0.1,0.6-0.1,1.3,0.2,1.9c0.2,0.5,0.5,0.9,1,1.1C232.8,165.4,233.3,165.6,233.7,165.7z"/>
<path class="st6" d="M241.6,165.7c0,0,0.3-0.1,0.7,0.2c0.1,0.1,0.2,0.2,0.3,0.4c0.1,0.1,0.1,0.3,0.1,0.5c0,0.2-0.1,0.4-0.2,0.6
	s-0.3,0.3-0.5,0.3c-0.2,0-0.4,0-0.6-0.2c-0.2-0.1-0.3-0.3-0.3-0.5c-0.1-0.2-0.1-0.3,0-0.5c0-0.2,0.1-0.3,0.2-0.4
	c0.3-0.4,0.7-0.4,0.7-0.4s-0.3,0.2-0.4,0.5c0,0.1-0.1,0.2-0.1,0.3c0,0.1,0,0.2,0.1,0.3c0,0.1,0.1,0.2,0.2,0.3
	c0.1,0.1,0.2,0.1,0.3,0.1c0.1,0,0.2-0.1,0.3-0.1c0.1-0.1,0.1-0.2,0.2-0.3c0-0.1,0-0.2,0-0.3c0-0.1-0.1-0.2-0.2-0.3
	C241.9,165.8,241.6,165.7,241.6,165.7z"/>
<path class="st6" d="M233.9,162.3c0,0,0.2-0.1,0.5-0.1c0.1,0,0.2,0.1,0.3,0.1c0.1,0.1,0.1,0.2,0.2,0.3c0,0.1,0,0.2,0,0.2
	c0,0.1,0,0.2-0.1,0.2c0,0.1-0.1,0.1-0.2,0.2c-0.1,0-0.2,0.1-0.2,0.1c-0.1,0-0.3-0.1-0.4-0.1c-0.1-0.1-0.2-0.2-0.2-0.3
	c0-0.1-0.1-0.2-0.1-0.3c0-0.1,0-0.2,0.1-0.3c0-0.1,0.1-0.1,0.2-0.2c0.1,0,0.1-0.1,0.2-0.1c0.1,0,0.1,0.1,0.1,0.1
	c0,0-0.2,0.1-0.3,0.3c0,0.1,0,0.2,0,0.4c0.1,0.1,0.2,0.2,0.3,0.2c0.2,0,0.1-0.3-0.1-0.4C234.1,162.3,233.9,162.3,233.9,162.3z"/>
<path class="st6" d="M235.1,154.2c0,0,0.2-0.2,0.5,0c0.1,0.1,0.2,0.2,0.2,0.3c0,0.1,0,0.2,0,0.4c-0.1,0.1-0.1,0.2-0.3,0.3
	c-0.1,0.1-0.3,0.1-0.4,0.1c-0.1,0-0.3-0.1-0.4-0.2c-0.1-0.1-0.1-0.2-0.2-0.4c0-0.1,0-0.2,0-0.3s0.1-0.2,0.2-0.3
	c0.3-0.2,0.5-0.1,0.5-0.1c0,0-0.2,0.1-0.3,0.3c0,0-0.1,0.1-0.1,0.2c0,0.1,0,0.1,0,0.2c0,0.1,0,0.1,0.1,0.2c0,0,0.1,0.1,0.2,0.1
	c0.1,0,0.1,0,0.2,0c0,0,0.1-0.1,0.1-0.1c0,0,0-0.1,0-0.1c0,0,0-0.1,0-0.1C235.3,154.2,235.1,154.2,235.1,154.2z"/>
<path class="st6" d="M245.2,150.2c0,0.1-0.1,0.2-0.1,0.4c0,0.2,0.1,0.5,0.4,0.4c0.1,0,0.1-0.1,0.2-0.1c0,0,0.1-0.1,0.1-0.2
	c0-0.1,0-0.1,0-0.2c0-0.1,0-0.1-0.1-0.2c-0.1-0.2-0.3-0.2-0.3-0.2c0-0.1,0.2-0.2,0.5,0c0.1,0.1,0.2,0.2,0.2,0.3
	c0,0.1,0.1,0.2,0.1,0.3c0,0.1-0.1,0.3-0.1,0.4c-0.1,0.1-0.2,0.2-0.4,0.3c-0.1,0-0.3,0.1-0.4,0c-0.1,0-0.2-0.1-0.3-0.2
	c-0.1-0.1-0.1-0.2-0.1-0.3c0-0.1,0-0.2,0-0.3C244.9,150.2,245.2,150.2,245.2,150.2z"/>
<path class="st6" d="M250.3,157.3c0,0,0.2-0.2,0.4,0c0.1,0.1,0.1,0.1,0.2,0.2c0,0.1,0.1,0.2,0.1,0.3c0,0.1-0.1,0.3-0.1,0.4
	c-0.1,0.1-0.2,0.2-0.3,0.2c-0.1,0-0.3,0-0.4,0c-0.1-0.1-0.2-0.2-0.3-0.3c0-0.1-0.1-0.2,0-0.3c0-0.1,0.1-0.2,0.2-0.3
	c0.3-0.2,0.5,0,0.4,0s-0.2,0-0.2,0.2c0,0,0,0.1,0,0.1c0,0,0,0.1,0,0.1c0,0,0.1,0.1,0.1,0.1c0,0,0.1,0,0.1,0c0,0,0.1,0,0.1-0.1
	c0,0,0-0.1,0.1-0.1c0,0,0-0.1,0-0.1c0,0,0-0.1-0.1-0.1C250.4,157.4,250.3,157.3,250.3,157.3z"/>
<path class="st6" d="M244.3,141.2c0,0.1-0.2,0-0.3,0.2c-0.2,0.2-0.2,0.4,0,0.6c0.3,0.1,0.4-0.1,0.4-0.4
	C244.4,141.4,244.3,141.3,244.3,141.2c0,0,0.3,0,0.4,0.3c0,0.1,0,0.2,0,0.3c0,0.1-0.1,0.2-0.1,0.3c-0.1,0.1-0.2,0.2-0.3,0.2
	c-0.1,0-0.3,0-0.4,0c-0.1-0.1-0.2-0.2-0.3-0.3c-0.1-0.1-0.1-0.3-0.1-0.4c0-0.1,0.1-0.2,0.1-0.3c0.1-0.1,0.2-0.2,0.2-0.2
	C244.2,141,244.3,141.2,244.3,141.2z"/>
<path class="st6" d="M240.4,140.4c0.5-0.4,1-0.9,1.4-1.3c0.5-0.6,0.9-1.3,1.1-2.1c0.2-0.8,0.2-1.6,0.1-2.4l0.2,0.2l-0.2,0.1
	c-0.8,0.3-1.5,0.9-2,1.6c-0.4,0.6-0.7,1.3-0.7,2.1c0,0.7,0,1.4,0.2,2c0,0-0.1-0.2-0.3-0.5c-0.2-0.5-0.2-1-0.2-1.6
	c0-0.8,0.3-1.6,0.7-2.3c0.5-0.8,1.3-1.4,2.2-1.8l0.2-0.1l0.2-0.1l0,0.2c0.1,0.9,0.1,1.9-0.2,2.8c-0.2,0.7-0.6,1.4-1.1,2
	c-0.3,0.4-0.7,0.7-1.1,0.9C240.6,140.3,240.5,140.4,240.4,140.4z"/>
<path class="st6" d="M242.2,136c-0.4,0.6-0.7,1.3-1,2c-0.4,1.1-0.3,2.1-0.4,2.1c-0.1,0-0.4-1,0-2.3
	C241.3,136.6,242.1,135.9,242.2,136z"/>
<path class="st6" d="M245,167.6c0,0,0.1-0.2,0.5-0.4c0.3-0.1,0.6-0.1,0.9,0c0.3,0.1,0.6,0.2,0.8,0.4c0.7,0.5,1.3,1.1,1.8,1.8
	c0.3,0.4,0.5,0.9,0.7,1.4c0.1,0.3,0.2,0.5,0.2,0.8c0.1,0.3,0.1,0.6,0,0.9c0,0.2-0.1,0.4-0.3,0.5c-0.1,0.1-0.3,0.2-0.5,0.2
	c-0.3,0-0.5-0.1-0.8-0.2c-0.5-0.2-0.9-0.5-1.3-0.8c-0.7-0.5-1.2-1.2-1.5-2c-0.2-0.5-0.4-1.1-0.5-1.7c0-0.2,0-0.5,0-0.7
	c0.1,0.8,0.4,1.5,0.7,2.2c0.4,0.7,0.9,1.4,1.5,1.9c0.4,0.3,0.8,0.5,1.2,0.7c0.2,0.1,0.4,0.2,0.7,0.2c0.2,0,0.3-0.1,0.4-0.3
	c0-0.5,0-1-0.2-1.5c-0.2-0.5-0.4-0.9-0.6-1.3c-0.4-0.7-1-1.3-1.6-1.8c-0.2-0.2-0.4-0.3-0.7-0.4c-0.3-0.1-0.5-0.1-0.8-0.1
	C245.3,167.5,245.1,167.5,245,167.6z"/>
<path class="st6" d="M248.6,171.2c-0.1,0.1-1-0.6-1.9-1.6c-0.6-0.6-1.1-1.3-1.5-2.1c0.1-0.1,0.8,0.8,1.8,1.8
	C247.9,170.2,248.7,171.1,248.6,171.2z"/>
<path class="st8" d="M236.9,191.3c0-0.1,0-0.1-0.1-0.2c0-0.1-0.1-0.3-0.1-0.5c-0.1-0.5-0.3-1.1-0.5-1.8c-0.4-1.6-1.1-3.9-1.9-6.7
	c-1.6-5.7-3.9-13.5-6.5-22.1c-2.6-8.6-4.9-16.4-6.4-22.1c-0.8-2.8-1.3-5.2-1.8-6.7c-0.2-0.8-0.3-1.4-0.4-1.8l-0.1-0.5
	c0-0.1,0-0.1,0-0.2c0,0.1,0,0.1,0.1,0.2c0,0.1,0.1,0.3,0.1,0.5c0.1,0.4,0.3,1.1,0.5,1.8l1.9,6.7c1.6,5.7,3.9,13.5,6.5,22.1
	c2.6,8.6,4.9,16.4,6.4,22.1c0.8,2.8,1.3,5.2,1.8,6.7c0.2,0.8,0.3,1.4,0.5,1.8c0,0.2,0.1,0.4,0.1,0.5
	C236.9,191.2,236.9,191.2,236.9,191.3z"/>
<path class="st6" d="M297.7,243.6c0,0.1-64.6,0.2-144.2,0.2c-79.6,0-144.2-0.1-144.2-0.2c0-0.1,64.5-0.2,144.2-0.2
	C233.2,243.4,297.7,243.5,297.7,243.6z"/>
<path class="st6" d="M270.4,219.1c0.1-0.1,0.1-0.3,0.2-0.4l0.6-1.2c0.7-1.5,1.2-3.1,1.6-4.8c1.1-4.2,1.5-10.7-0.1-18.4
	c-0.9-4.2-2-8.3-3.4-12.4c-1.4-4.4-3.1-9-4.5-14.1s-2.4-10.5-2.2-16.2c0.2-5.7,1.9-11.4,3.8-17.1c1.9-5.7,3.8-11.3,4.4-16.8
	c0.6-5.4-0.4-10.8-3.1-15.6c-2.5-4.5-5.6-8.4-7.9-12.4c-2.2-3.7-3.7-7.8-4.7-12c-1.4-6.1-1.5-12.4-0.3-18.5c0.4-2.2,1.1-4.4,1.9-6.5
	c0,0.1-0.1,0.3-0.1,0.4c-0.1,0.3-0.2,0.7-0.4,1.3c-0.5,1.6-0.9,3.2-1.2,4.9c-1.1,6.1-0.9,12.4,0.5,18.4c1,4.1,2.6,8.1,4.7,11.8
	c2.3,4,5.4,7.8,7.9,12.4c2.7,4.8,3.8,10.4,3.2,15.9c-0.6,5.7-2.5,11.3-4.4,17c-1.9,5.7-3.5,11.3-3.7,16.9c-0.2,5.6,0.8,11,2.2,16
	c1.3,5,3,9.7,4.4,14c1.4,4.1,2.5,8.2,3.4,12.4c1.6,7.7,1.1,14.3,0,18.5c-0.4,1.6-1,3.2-1.8,4.8c-0.3,0.5-0.5,0.9-0.6,1.2
	C270.6,218.8,270.5,218.9,270.4,219.1z"/>
<path class="st3" d="M262.8,93.7c0,0-4.7-15.1,3.7-23.9c0.1-0.1,0.1-0.1,0.2-0.2c0.1,0,0.2,0,0.3,0c0.1,0,0.2,0.1,0.2,0.2
	c0.1,0.1,0.1,0.2,0.1,0.3C267.9,72.6,268.5,80.1,262.8,93.7z"/>
<path class="st6" d="M265.6,74.8c0,0.9-0.1,1.9-0.3,2.8c-0.3,1.9-0.7,4.2-1.1,6.6c-0.4,2.5-0.8,4.7-1.1,6.7
	c-0.1,0.9-0.2,1.8-0.5,2.7c-0.1-0.9-0.1-1.9,0.1-2.8c0.2-1.7,0.5-4.1,0.9-6.7c0.4-2.6,0.9-4.9,1.3-6.6
	C265.1,76.6,265.3,75.7,265.6,74.8z"/>
<path class="st3" d="M268.4,129.3c0,0,2.9-15.5,14.5-19.4c0.1,0,0.2,0,0.3,0c0.1,0,0.2,0.1,0.3,0.1c0.1,0.1,0.1,0.2,0.1,0.3
	c0,0.1,0,0.2,0,0.3C282.7,112.9,279.7,119.9,268.4,129.3z"/>
<path class="st6" d="M279.7,113.9c-0.5,0.8-1,1.6-1.6,2.3l-4,5.4l-4,5.4c-0.5,0.8-1.1,1.5-1.7,2.2c0.4-0.9,0.8-1.7,1.4-2.4
	c0.9-1.4,2.3-3.4,3.9-5.5c1.6-2.1,3.1-4,4.2-5.3C278.3,115.2,279,114.5,279.7,113.9z"/>
<path class="st3" d="M265.2,168.2c0,0-1.8-15.7,8.2-22.7c0.1-0.1,0.2-0.1,0.3-0.1c0.1,0,0.2,0,0.3,0.1c0.1,0,0.2,0.1,0.2,0.2
	c0.1,0.1,0.1,0.2,0.1,0.3C274.3,148.4,273.4,156,265.2,168.2z"/>
<path class="st6" d="M271.6,150.2c-0.2,0.9-0.5,1.8-0.8,2.7c-0.7,1.8-1.5,4-2.3,6.3l-2.3,6.3c-0.3,0.9-0.6,1.8-1,2.6
	c0.1-0.9,0.3-1.9,0.6-2.7c0.5-1.7,1.2-3.9,2.1-6.4c0.9-2.5,1.8-4.7,2.5-6.3C270.7,151.9,271.1,151,271.6,150.2z"/>
<path class="st3" d="M274,207.4c0,0-1.2-15.7,9-22.4c0.1-0.1,0.2-0.1,0.3-0.1c0.1,0,0.2,0,0.3,0.1c0.1,0,0.2,0.1,0.2,0.2
	c0,0.1,0.1,0.2,0.1,0.3C283.7,187.9,282.5,195.4,274,207.4z"/>
<path class="st6" d="M281,189.6c-0.2,0.9-0.5,1.8-0.9,2.6l-2.6,6.2l-2.5,6.2c-0.3,0.9-0.7,1.7-1.1,2.6c0.1-0.9,0.4-1.8,0.7-2.7
	c0.5-1.6,1.3-3.9,2.4-6.3c1-2.4,2-4.6,2.7-6.2C280,191.2,280.4,190.4,281,189.6z"/>
<path class="st3" d="M256,80.5c0,0-14-7.3-14.3-19.5c0-0.1,0-0.2,0.1-0.3c0-0.1,0.1-0.2,0.2-0.2c0.1,0,0.2-0.1,0.3-0.1
	c0.1,0,0.2,0,0.3,0.1C244.7,61.9,250.5,66.9,256,80.5z"/>
<path class="st6" d="M244.7,65.1c0.7,0.7,1.2,1.4,1.7,2.2l3.9,5.5l4,5.4c0.6,0.7,1.1,1.5,1.6,2.3c-0.7-0.6-1.4-1.3-1.9-2
	c-1.1-1.3-2.6-3.2-4.1-5.4c-1.5-2.2-2.9-4.1-3.8-5.6C245.5,66.8,245.1,66,244.7,65.1z"/>
<path class="st3" d="M271.1,112.8c0,0-14.4-6.4-15.4-18.6c0-0.1,0-0.2,0.1-0.3c0-0.1,0.1-0.2,0.2-0.2c0.1-0.1,0.2-0.1,0.3-0.1
	c0.1,0,0.2,0,0.3,0.1C258.6,95,264.7,99.6,271.1,112.8z"/>
<path class="st6" d="M258.8,98.3c0.7,0.6,1.3,1.3,1.9,2.1c1.2,1.5,2.7,3.3,4.3,5.2l4.3,5.2c0.6,0.7,1.2,1.4,1.7,2.2
	c-0.8-0.6-1.4-1.2-2-1.9c-1.2-1.3-2.8-3-4.4-5.1c-1.7-2-3.1-3.9-4.1-5.3C259.8,99.9,259.2,99.1,258.8,98.3z"/>
<path class="st3" d="M262.8,148.9c0,0-9.9-12.3-5.3-23.6c0-0.1,0.1-0.2,0.2-0.2c0.1-0.1,0.2-0.1,0.3-0.1c0.1,0,0.2,0,0.3,0.1
	c0.1,0,0.2,0.1,0.2,0.2C259.8,127.4,263.1,134.2,262.8,148.9z"/>
<path class="st6" d="M258.5,130.3c0.3,0.9,0.6,1.8,0.7,2.7c0.4,1.9,0.9,4.1,1.4,6.6c0.5,2.5,1,4.7,1.4,6.6c0.3,0.9,0.4,1.8,0.5,2.7
	c-0.4-0.8-0.7-1.7-0.9-2.6c-0.5-1.7-1.1-4-1.6-6.6c-0.6-2.6-1-4.9-1.3-6.6C258.6,132.2,258.5,131.3,258.5,130.3z"/>
<path class="st3" d="M272.6,191.4c0,0-14.3-6.7-15.1-18.8c0-0.1,0-0.2,0.1-0.3c0-0.1,0.1-0.2,0.2-0.2c0.1-0.1,0.2-0.1,0.3-0.1
	c0.1,0,0.2,0,0.3,0.1C260.4,173.4,266.4,178.1,272.6,191.4z"/>
<path class="st6" d="M260.6,176.6c0.7,0.6,1.3,1.3,1.8,2.1l4.2,5.3l4.2,5.3c0.6,0.7,1.2,1.4,1.7,2.2c-0.8-0.6-1.4-1.2-2-2
	c-1.2-1.3-2.7-3.1-4.3-5.2c-1.6-2.1-3.1-4-4-5.4C261.5,178.2,261,177.4,260.6,176.6z"/>
<path class="st6" d="M301.1,129.3c0,0.1,0,0.2,0,0.3c0,0.3,0,0.6,0,1c0,0.9-0.1,2.2-0.2,3.8c-0.2,3.4-0.4,8.1-0.8,13.7v0
	c-1,5.7-3.9,12-7.8,18.2c-2.9,4.5-5.9,8.6-8.5,12.5c-2.4,3.3-4.5,6.9-6.3,10.5c-1.2,2.5-2.2,5-3,7.7c-0.3,0.9-0.4,1.7-0.6,2.2
	c0,0.3-0.1,0.5-0.2,0.8c0-0.3,0-0.5,0.1-0.8c0.1-0.5,0.2-1.3,0.4-2.2c0.7-2.7,1.6-5.3,2.8-7.8c1.8-3.7,3.9-7.2,6.3-10.6
	c2.6-3.9,5.6-8,8.4-12.5c3.9-6.1,6.8-12.4,7.8-18v0c0.4-5.6,0.7-10.3,1-13.7c0.1-1.6,0.2-2.9,0.3-3.8c0-0.4,0.1-0.7,0.1-1
	C301,129.6,301,129.4,301.1,129.3z"/>
<path class="st3" d="M292.6,165.2c0,0,6.1-14.6-1.6-24.1c-0.1-0.1-0.1-0.1-0.2-0.2s-0.2,0-0.3,0c-0.1,0-0.2,0.1-0.3,0.1
	c-0.1,0.1-0.1,0.2-0.1,0.2C289.4,143.7,288.2,151.2,292.6,165.2z"/>
<path class="st6" d="M291.5,146.2c0.3,0.9,0.4,1.8,0.5,2.8c0.2,1.7,0.5,4.1,0.6,6.7c0.2,2.6,0.3,5,0.3,6.7c0.1,0.9,0,1.9-0.2,2.8
	c-0.2-0.9-0.2-1.9-0.2-2.8c-0.1-1.9-0.3-4.2-0.5-6.7c-0.2-2.5-0.3-4.8-0.5-6.7C291.4,148.1,291.4,147.1,291.5,146.2z"/>
<g class="st4">
	<path d="M292.6,165.2c0,0,6.1-14.6-1.6-24.1c-0.1-0.1-0.1-0.1-0.2-0.2s-0.2,0-0.3,0c-0.1,0-0.2,0.1-0.3,0.1
		c-0.1,0.1-0.1,0.2-0.1,0.2C289.4,143.7,288.2,151.2,292.6,165.2z"/>
</g>
<path class="st3" d="M273.8,200.4c0,0,4.9-15-3.5-23.9c-0.1-0.1-0.1-0.1-0.2-0.2c-0.1,0-0.2,0-0.3,0c-0.1,0-0.2,0.1-0.2,0.2
	c-0.1,0.1-0.1,0.2-0.1,0.3C268.9,179.2,268.3,186.8,273.8,200.4z"/>
<path class="st6" d="M271.1,181.5c0.3,0.9,0.6,1.8,0.7,2.7c0.4,1.7,0.8,4,1.2,6.6s0.7,5,0.8,6.7c0.1,0.9,0.1,1.9,0.1,2.8
	c-0.2-0.9-0.4-1.8-0.5-2.8c-0.3-1.9-0.6-4.2-1-6.7c-0.4-2.5-0.7-4.7-1-6.7C271.2,183.3,271.1,182.4,271.1,181.5z"/>
<g class="st4">
	<path d="M273.8,200.4c0,0,4.9-15-3.5-23.9c-0.1-0.1-0.1-0.1-0.2-0.2c-0.1,0-0.2,0-0.3,0c-0.1,0-0.2,0.1-0.2,0.2
		c-0.1,0.1-0.1,0.2-0.1,0.3C268.9,179.2,268.3,186.8,273.8,200.4z"/>
</g>
<path class="st3" d="M300.3,147.4c0,0,12.9-9.1,11.6-21.2c0-0.1,0-0.2-0.1-0.3c-0.1-0.1-0.1-0.1-0.2-0.2c-0.1,0-0.2-0.1-0.3,0
	c-0.1,0-0.2,0.1-0.3,0.1C309.2,127.6,304.1,133.3,300.3,147.4z"/>
<g class="st4">
	<path d="M300.3,147.4c0,0,12.9-9.1,11.6-21.2c0-0.1,0-0.2-0.1-0.3c-0.1-0.1-0.1-0.1-0.2-0.2c-0.1,0-0.2-0.1-0.3,0
		c-0.1,0-0.2,0.1-0.3,0.1C309.2,127.6,304.1,133.3,300.3,147.4z"/>
</g>
<path class="st6" d="M309.6,130.8c-0.3,0.9-0.6,1.8-1.1,2.6c-0.7,1.6-1.8,3.7-3.1,6c-1.3,2.3-2.4,4.4-3.4,5.8
	c-0.5,0.8-1,1.6-1.6,2.3c0.3-0.9,0.8-1.7,1.3-2.5l3.2-5.9c1.2-2.2,2.3-4.2,3.2-5.9C308.5,132.3,309,131.5,309.6,130.8z"/>
<path class="st3" d="M279,185.5c0,0,15.6-2.4,19.8-13.9c0-0.1,0-0.2,0-0.3c0-0.1-0.1-0.2-0.1-0.2c-0.1-0.1-0.1-0.1-0.2-0.1
	s-0.2,0-0.3,0C295.7,171.6,288.7,174.4,279,185.5z"/>
<g class="st4">
	<path d="M279,185.5c0,0,15.6-2.4,19.8-13.9c0-0.1,0-0.2,0-0.3c0-0.1-0.1-0.2-0.1-0.2c-0.1-0.1-0.1-0.1-0.2-0.1s-0.2,0-0.3,0
		C295.7,171.6,288.7,174.4,279,185.5z"/>
</g>
<path class="st6" d="M294.7,174.6c-0.6,0.7-1.3,1.3-2.1,1.8c-1.3,1.1-3.3,2.5-5.4,4c-2.1,1.5-4.1,2.9-5.6,3.7
	c-0.8,0.6-1.6,1-2.5,1.3c0.7-0.6,1.5-1.2,2.2-1.7l5.5-3.9l5.5-3.9C293.1,175.6,293.9,175,294.7,174.6z"/>
<path class="st5" d="M260.6,214.2l4.5,29.3l17.9,0l6-29.3H260.6z"/>
<path class="st6" d="M286.3,225.5l-0.1,0.1c-0.2,0.1-0.3,0.2-0.5,0.3c-0.6,0.3-1.3,0.5-2,0.6c-1.1,0.2-2.2,0-3.3-0.3
	c-1.4-0.5-2.7-1.4-3.5-2.6c-0.5-0.7-0.8-1.6-0.8-2.4c0-0.5,0-1,0.3-1.4c0.2-0.4,0.5-0.8,1-1.1c0.5-0.2,1-0.3,1.5-0.3
	c0.5,0,1,0.2,1.5,0.5c0.9,0.7,1.5,1.6,1.7,2.7c0.2,1.1,0.3,2.2,0.2,3.3c-0.1,1.2-0.3,2.3-0.7,3.4c-0.4,1.1-1.1,2.2-2.1,3
	c-1,0.8-2.2,1.3-3.4,1.4c-1.3,0-2.5-0.3-3.6-1c-1-0.6-1.9-1.5-2.7-2.4c-0.8-0.9-1.2-2-1.3-3.2c0-0.6,0-1.2,0.3-1.7
	c0.2-0.5,0.6-1,1-1.4c0.5-0.3,1-0.5,1.6-0.6c0.6,0,1.1,0.1,1.6,0.4c0.5,0.2,0.9,0.6,1.2,1c0.3,0.4,0.5,0.9,0.6,1.4
	c0.1,0.9,0,1.8-0.4,2.7c-0.4,0.8-1,1.5-1.8,2c-1.3,0.7-2.8,0.9-4.3,0.6c-1.1-0.2-2.1-0.6-3.1-1.2c-0.6-0.4-1.2-0.7-1.7-1.2
	c-0.2-0.1-0.4-0.3-0.6-0.5c0.2,0.1,0.4,0.2,0.6,0.4c0.4,0.3,1,0.7,1.8,1.1c0.9,0.5,2,0.9,3,1.1c1.4,0.3,2.8,0,4.1-0.7
	c0.7-0.4,1.3-1.1,1.7-1.8c0.4-0.8,0.5-1.6,0.4-2.4c-0.1-0.4-0.3-0.9-0.6-1.2c-0.3-0.4-0.6-0.7-1.1-0.9c-0.4-0.2-0.9-0.3-1.4-0.3
	c-0.5,0-0.9,0.2-1.3,0.5c-0.4,0.3-0.7,0.8-0.9,1.2c-0.2,0.5-0.3,1-0.2,1.5c0.1,1.1,0.6,2.1,1.3,3c0.7,0.9,1.6,1.7,2.5,2.3
	c1,0.6,2.1,1,3.3,1c1.2-0.1,2.3-0.6,3.1-1.3c0.9-0.7,1.5-1.7,1.9-2.8c0.4-1,0.6-2.1,0.7-3.2c0.1-1.1,0-2.1-0.2-3.2
	c-0.2-1-0.7-1.9-1.5-2.4c-0.4-0.3-0.8-0.4-1.2-0.5c-0.4,0-0.9,0-1.3,0.2c-0.4,0.2-0.6,0.6-0.8,0.9c-0.2,0.4-0.3,0.8-0.2,1.2
	c0,0.8,0.3,1.6,0.7,2.3c0.8,1.2,2,2,3.3,2.5c1,0.4,2.1,0.5,3.2,0.4C284.6,226.1,285.5,225.9,286.3,225.5z"/>
</svg>
