<svg xmlns="http://www.w3.org/2000/svg" width="490.5795" height="481.2253" viewBox="0 0 490.5795 481.2253"><defs><style>.a{isolation:isolate;}.b{fill:#f3686f;}.c{fill:#fccf7c;}.d,.n{fill:#b8b5c8;}.d{opacity:0.5;mix-blend-mode:multiply;}.e{fill:#fdfdfd;}.f{fill:#3b3946;}.g{fill:#c4c6d1;}.h{fill:#8a8e9a;}.i{fill:#a4a8b4;}.j{fill:#4b4957;}.k{fill:#fda622;}.l{fill:#e08427;}.m{fill:#010204;}.o{fill:#d1cfdd;}</style></defs><g class="a"><path class="b" d="M237.708,485.5811a221.187,221.187,0,0,1-156.4028-377.59A221.1872,221.1872,0,0,1,394.1113,420.7969,219.7389,219.7389,0,0,1,237.708,485.5811Z" transform="translate(-4.7103 -10.494)"/><path class="c" d="M237.7081,49.3451c118.7682,0,215.0489,96.2806,215.0489,215.0489S356.4763,479.4429,237.7081,479.4429,22.6591,383.1622,22.6591,264.394,118.94,49.3451,237.7081,49.3451m0-12.2765A227.3821,227.3821,0,0,0,149.219,473.85,227.381,227.381,0,0,0,326.1971,54.938a225.9143,225.9143,0,0,0-88.489-17.8694Z" transform="translate(-4.7103 -10.494)"/><path class="d" d="M17.9437,273.6442c9.2155,17.4294,32.9592,32.8376,72.5868,47.1056a93.5368,93.5368,0,0,0,25.8641,5.5,224.916,224.916,0,0,0-1.8239,44.1756c1.19,17.5883,6.18,33.2535,14.8472,46.6416-23.5475,9.8789-27.4278,24.89-28.0144,28.3258l-.0341.1963a11.98,11.98,0,0,0-.176,2.0489v.2262a24.9219,24.9219,0,0,0,24.8935,24.8935h94.769a24.8686,24.8686,0,0,0,15.5618-5.4546A25.7964,25.7964,0,0,0,261.93,489.506h96.08A25.7859,25.7859,0,0,0,383.7661,463.75v-.6591h17.4667a12.0347,12.0347,0,0,0,2.1348-.191l.23-.0416c28.3339-5.0141,48.0117-13.0957,61.8861-25.4278,12.9523-11.5119,18.7173-24.708,24.2925-37.4688,1.0127-2.3188,2.0457-4.6835,3.1246-7.0375a25.9333,25.9333,0,0,0-33.476-34.7831c-10.8484,4.4606-19.5791,4.4925-26.6907.0928a24.3916,24.3916,0,0,1-5.9693-5.2872,311.0755,311.0755,0,0,0-13.6-69.9448,223.442,223.442,0,0,0-22.6616-49.395,163.429,163.429,0,0,0-19.7189-25.7922q.3376-.3488.67-.7c17.943-18.9765,24.1325-44.4326,17.9206-73.65a156.7335,156.7335,0,0,0-8.0289-33.3442,155.1893,155.1893,0,0,0-14.8636-30.955,127.0161,127.0161,0,0,0-26.862-30.714c-27.416-22.4595-63.1015-31.4574-106.07-26.7382-28.6181,3.1417-52.734,11.7721-71.6791,25.6508A110.1463,110.1463,0,0,0,138.083,61.107c-.1387.1754-.2741.3557-.4042.54l-.6357.9c-.4278.6037-.8608,1.2319-1.29,1.8644l-.13.1926c-.3818.5669-.7146,1.0714-1.0453,1.578l-.1077.1685-.0011-.0005a115.1258,115.1258,0,0,0-8.168,14.9543A130.96,130.96,0,0,0,114.9547,136.71c-.1909.5483-.3957,1.1541-.608,1.8138l-.1247.3914c-.0128.039-.0246.0784-.0374.1179-.017.0565-.0373.1194-.0544.1786l-.272.8811c-.0106.0341-.0213.0682-.0309.1024l-.016.0543a93.2824,93.2824,0,0,0-3.0643,14.2115,80.4884,80.4884,0,0,0,.2315,23.9945,19.2246,19.2246,0,0,0-1.3-2.5248l-2.3028-3.6888a19.4232,19.4232,0,0,0-21.1433-8.5932l-2.7519.6747a19.4174,19.4174,0,0,0-5.4421,2.2734l-3.4544-12.7854a18.8714,18.8714,0,0,0-6.3773-9.8,19.0827,19.0827,0,0,0-8.2214-3.8622l-.76-.152a19.042,19.042,0,0,0-14.8109,3.2078l-7.0268,5.0584a18.8485,18.8485,0,0,0-5.1528,5.5815L30.8,156.2135a19.0612,19.0612,0,0,0-2.7166,8.7825l-.5845,10.4767a19.0027,19.0027,0,0,0,3.9624,12.7033,29.86,29.86,0,0,0,13.0925,9.7754,28.6523,28.6523,0,0,0-4.069,2.962c-9.8555,8.615-21.7534,21.9475-22.4691,36.543a50.99,50.99,0,0,0,.9012,12.9784A22.9321,22.9321,0,0,0,17.9437,273.6442Z" transform="translate(-4.7103 -10.494)"/><path class="e" d="M123.1892,172.8773c-8.1867,0-15.371-2.2718-19.4528-5.6907.2927,17.8777,7.8279,39.8049,38.4876,52.3594a126.2236,126.2236,0,0,0,27.68,7.4712c8.06,1.3051,16.2991,2.3786,24.6177,3.1906q1.5735.1512,3.147.2915c.207.0191.4114.0382.6157.0545,1.0708.0954,2.1444.1826,3.2152.27q1.23.0939,2.46.1852c9.6046.6976,19.2609,1.0354,28.8028.9673.4-.0027.8038-.0082,1.207-.0109q7.2382-.0777,14.37-.4741c.79-.0436,1.58-.0926,2.3678-.1417q1.7738-.1145,3.534-.2479c.4413-.0354.8828-.0681,1.3214-.1036q1.0993-.09,2.1934-.188,1.7493-.1552,3.4876-.3324c.36-.0381.7166-.0735,1.0763-.1117l.1553-.0163q1.1157-.1227,2.2315-.248a.3036.3036,0,0,1,.049-.0054q1.1239-.1308,2.2425-.27c.7629-.0954,1.52-.1934,2.2778-.2943.3815-.0517.7575-.1035,1.1362-.1553.3761-.0545.7548-.1062,1.1308-.1607.4768-.0681.9509-.139,1.425-.21.6512-.0981,1.3-.1962,1.9454-.3.3733-.06.7466-.12,1.1172-.18s.7411-.1226,1.1116-.1852q1.1118-.1881,2.2125-.3842,1.1036-.1962,2.1961-.406,1.0953-.2085,2.18-.4251,1.2669-.2574,2.5176-.5231l.7193-.1553q2.1458-.47,4.2506-.9782c.3515-.0872.7-.1716,1.0517-.2588q1.0462-.2616,2.0817-.5313c.0054,0,.0082-.0028.0109-.0028.3433-.09.6866-.18,1.0272-.2724.3732-.0981.7438-.1989,1.1144-.3,1-.2779,1.9917-.5585,2.9753-.85.6758-.1989,1.3461-.4032,2.0136-.6076.3324-.1035.6648-.2071.9972-.3133,12.9941-15.6153,22.0183-34.7563,22.9638-55.4232,3.3405-72.9048-35.7889-95.1683-75.1309-95.1683-29.5085,0-54.8237,23.9692-65.638,58.126l-9.8308.51.0518.9972c1.2452-.0572,2.5449-.0817,3.9018-.0817,17.3672,0,27.8274,3.6156,31.4431,23.931-8.6265,16.9722-14.0759,23.9311-31.4431,23.9311-16.9506,0-20.4515-6-30.68-22.6875.3968-4.67,3.0763-19.18,20.941-25.6625,0,0-1.8783-62.4014-39.6531-61.984,0,0-23.1658,27.2771-20.4526,70.5094,0,0-3.5284,10.1662-4.09,13.8963,0,0,22.6639-9.5745,37.899,3.62l2.6173.5451a7.019,7.019,0,0,1,.8256,3.2491C146.2158,167.4007,135.9055,172.8773,123.1892,172.8773Zm108.0726-12.2366c0-6.7572,10.7489-12.2339,24.01-12.2339s24.01,5.4767,24.01,12.2339c0,6.76-10.7489,12.2366-24.01,12.2366S231.2618,167.4007,231.2618,160.6407Zm-6.6755-35.887c0-7.5474,7.09-13.6671,15.836-13.6671,8.7435,0,15.8332,6.12,15.8332,13.6671a11.9632,11.9632,0,0,1-.7766,4.2287,24.4274,24.4274,0,0,0-14.2311-4.2287c-6.2749,0-11.8606,2.0408-15.4653,5.2151A12.04,12.04,0,0,1,224.5863,124.7537Z" transform="translate(-4.7103 -10.494)"/><path class="e" d="M103.73,165.5379c-.001.1209-.002.2416-.0024.3628C103.7277,165.7794,103.7287,165.6587,103.73,165.5379Z" transform="translate(-4.7103 -10.494)"/><path class="e" d="M103.7273,165.9007q-.0015.5853.007,1.1771Q103.7256,166.4861,103.7273,165.9007Z" transform="translate(-4.7103 -10.494)"/><path class="e" d="M103.7343,167.0778l.0021.1088-.0015-.0012C103.7343,167.1493,103.7348,167.1139,103.7343,167.0778Z" transform="translate(-4.7103 -10.494)"/><path class="e" d="M103.73,165.5379c.0032-.4038.0087-.8062.0188-1.2052C103.7381,164.7315,103.733,165.1342,103.73,165.5379Z" transform="translate(-4.7103 -10.494)"/><path class="f" d="M13.5473,256.6973a8.5907,8.5907,0,0,0-5.5829,12.3484c5.6265,10.6426,22.1791,25.2579,65.9923,41.034,23.1082,8.3185,38.9169,3.5039,39.1839,3.4222l.0027-.0027c5.6946-29.7729,14.9532-57.4831,21.4924-74.9784,2.3733-6.3512,4.3895-11.3592,5.7437-14.6289a198.9892,198.9892,0,0,0-22.1218,11.234v.0027c-.18.33-13.8851,25.871-18.52,50.8838a9.348,9.348,0,0,1-10.5637,7.5447C71.6952,290.96,34.3777,282.5438,18.1929,256.91a9.79,9.79,0,0,0-1.0326-.2724c-.21-.0409-.4224-.0763-.6294-.1036a8.9308,8.9308,0,0,0-1.3406-.06c-.1226.0054-.2452.0109-.3678.0218-.0463.0054-.0927.0082-.139.0109A8.1329,8.1329,0,0,0,13.55,256.7v-.0027Z" transform="translate(-4.7103 -10.494)"/><path class="g" d="M9.76,239.8151c-.3352,6.8553.782,11.5336,2.4386,14.7243a42.0075,42.0075,0,0,1-.2943-7.7709,19.4388,19.4388,0,0,1,.9891-5.117c2.8282-8.6591,10.9642-17.1656,15.8087-21.6641a12.8623,12.8623,0,0,1,12.2094-3.0625c5.6537,1.5558,14.539,5.8008,27.7974,16.3727a19.965,19.965,0,0,1,4.256,5.2232c1.0136,1.643,1.9945,3.425,3.0789,5.2042a7.869,7.869,0,0,1,1.019,4.4685c1.891-4.1279,2.8065-8.3921.8474-11.4192-2.5966-4.0162-4.6483-8.0706-7.7926-10.43C56.0309,215.775,46.59,211.53,40.5818,209.9741A14.2723,14.2723,0,0,0,27.61,213.0367C21.4462,218.4234,10.2641,229.5593,9.76,239.8151Z" transform="translate(-4.7103 -10.494)"/><path class="h" d="M11.9043,246.7685a42.0075,42.0075,0,0,0,.2943,7.7709v.0027a15.2249,15.2249,0,0,0,1.3487,2.1552H13.55a8.1978,8.1978,0,0,1,1.1335-.1907c.0463-.0027.0927-.0055.139-.0109.1226-.0109.2452-.0191.3678-.0218a8.9308,8.9308,0,0,1,1.3406.06c.207.0273.42.06.6294.1036a9.79,9.79,0,0,1,1.0326.2724c8.5147,2.7738,18.7868,3.91,29.2388,3.82.3161-.0028.6321-.0055.9482-.0137.0981,0,.1962,0,.297-.0054q.4372-.0041.8746-.0163c.51-.0109,1.0218-.0273,1.5313-.0464.36-.0109.7166-.0245,1.0763-.0408.2125-.0082.4223-.0164.6348-.03.9237-.0409,1.8446-.0954,2.7656-.1553.4169-.0273.831-.0572,1.2452-.09.1553-.0109.3079-.0218.4632-.0355.4087-.03.8147-.0653,1.2234-.1008.0545-.0027.1089-.0081.1634-.0136.4769-.0409.951-.0872,1.4278-.1335.4632-.0436.9291-.0926,1.3923-.1417.0409-.0054.079-.0082.12-.0136.4632-.0491.9237-.1008,1.3841-.158q.1023-.0083.2044-.0246c.4714-.0545.9427-.1117,1.4141-.1743l.0681-.0082c.4741-.06.9482-.1254,1.4169-.1908.4659-.0653.9291-.1307,1.39-.1989.1144-.019.2289-.0354.3406-.0517.4059-.0627.8092-.1254,1.21-.1908q.6744-.1062,1.3433-.2234l.1063-.0163a56.3854,56.3854,0,0,0,6.591-10.46v-.0027a7.869,7.869,0,0,0-1.019-4.4685c-1.0844-1.7792-2.0653-3.5612-3.0789-5.2042l-5.8636,4.6838a22.6676,22.6676,0,0,1-14.1548,4.959H41.2957a22.7,22.7,0,0,1-5.5993-.7l-22.803-5.8118A19.4388,19.4388,0,0,0,11.9043,246.7685Z" transform="translate(-4.7103 -10.494)"/><path class="i" d="M12.8934,241.6515l22.803,5.8118a22.7,22.7,0,0,0,5.5993.7H52.9465a22.6676,22.6676,0,0,0,14.1548-4.959l5.8636-4.6838a19.965,19.965,0,0,0-4.256-5.2232c-13.2584-10.5719-22.1437-14.8169-27.7974-16.3727a12.8623,12.8623,0,0,0-12.2094,3.0625C23.8576,224.4859,15.7216,232.9924,12.8934,241.6515Z" transform="translate(-4.7103 -10.494)"/><path class="j" d="M47.4317,260.73c-10.452.09-20.7241-1.0463-29.2388-3.82,16.1848,25.634,53.5023,34.0506,70.9812,36.6473a9.348,9.348,0,0,0,10.5637-7.5447c4.6347-25.0128,18.34-50.5541,18.52-50.8838a96.1685,96.1685,0,0,0-16.3891,11.8579c-5.2532,4.9508-17.2828,9.25-31.3967,11.67l-.1063.0163c-.4441.079-.8937.1526-1.3433.2234-.4032.0654-.8065.1281-1.21.1908-.1117.0163-.2262.0327-.3406.0517-.4605.0682-.9237.1363-1.39.1989-.4714.0682-.9428.1308-1.4169.1908l-.0681.0082c-.4686.0626-.94.12-1.4141.1743q-.1022.0163-.2044.0246c-.46.0572-.9209.1089-1.3841.158-.0409.0054-.079.0082-.12.0136-.4632.0491-.9291.0981-1.3923.1417-.4741.0463-.9509.0926-1.4278.1335-.0545.0055-.1089.0109-.1634.0136-.406.0355-.8147.0709-1.2234.1008-.1553.0137-.3079.0246-.4632.0355-.4142.0327-.8311.0626-1.2452.09-.921.06-1.8419.1144-2.7656.1553-.2125.0109-.4223.0218-.6348.03-.357.0163-.7166.03-1.0763.0408-.5095.0191-1.0218.0355-1.5313.0464q-.4372.0122-.8746.0163c-.1008.0054-.1989.0054-.297.0054C48.0638,260.7244,47.7478,260.7271,47.4317,260.73Z" transform="translate(-4.7103 -10.494)"/><path class="i" d="M19.4463,176.58a4.4123,4.4123,0,0,0,.9237,2.9536c5.58,7.1959,14.024,6.4848,15.746,6.2532a4.45,4.45,0,0,0,.5368-.1063l1.801-.48-7.937-30.2524-7.1824,5.1688a4.38,4.38,0,0,0-1.1906,1.2915l-1.4714,2.43a4.3689,4.3689,0,0,0-.6294,2.0326Z" transform="translate(-4.7103 -10.494)"/><path class="g" d="M30.5168,154.9488l7.937,30.2524,1.5722-.4169a4.396,4.396,0,0,0,3.0653-2.9291l.4659-1.4768a4.413,4.413,0,0,0,.049-2.4658l-5.5093-20.3889a4.3941,4.3941,0,0,0-3.3787-3.1634l-.7738-.1526A4.3946,4.3946,0,0,0,30.5168,154.9488Z" transform="translate(-4.7103 -10.494)"/><path class="i" d="M60.8917,183.0105a4.8813,4.8813,0,0,0-.4714,4.8009l1.2589,2.8337A4.8857,4.8857,0,0,0,64.9,193.3862l2.3841.6266a4.893,4.893,0,0,0,3.5421-.4114l2.7656-1.4768a4.8705,4.8705,0,0,0,2.4277-3.0734l.2806-1.0681a4.8955,4.8955,0,0,0-.5831-3.8228S69.03,187.1439,60.8917,183.0105Z" transform="translate(-4.7103 -10.494)"/><path class="g" d="M62.4176,180.85l-1.5259,2.1607c8.1387,4.1334,14.8251,1.15,14.8251,1.15l-2.3541-3.771a4.8819,4.8819,0,0,0-5.305-2.1552l-2.8146.6894A4.8861,4.8861,0,0,0,62.4176,180.85Z" transform="translate(-4.7103 -10.494)"/><path class="k" d="M94.7707,454.0828l58.8535.5559c-22.1219-4.8691-28.762-21.705-28.762-21.705C97.1275,440.2822,94.7707,454.0828,94.7707,454.0828Z" transform="translate(-4.7103 -10.494)"/><path class="l" d="M153.6242,454.6387l-58.8535-.5559a10.4364,10.4364,0,0,0,10.4356,10.4356h96.8385a10.4348,10.4348,0,0,0,10.4193-9.88H191.3313s-31.7373-2.7193-56.0008-23.9311c-3.8391.6376-7.3185,1.39-10.4683,2.2261C124.8622,432.9337,131.5023,449.77,153.6242,454.6387Z" transform="translate(-4.7103 -10.494)"/><path class="b" d="M103.7485,164.3327q-.0368,1.406-.0136,2.8527c4.0816,3.4195,11.2667,5.6919,19.4544,5.6919,12.7162,0,23.0264-5.4766,23.0264-12.2366a7.2451,7.2451,0,0,0-1.21-3.9236c-3.079-4.8336-11.6836-8.31-21.8167-8.31-7.4711,0-14.1085,1.8909-18.3155,4.82-.0463.27-.0926.5422-.1389.82-.0354.21-.0681.4224-.1008.6349-.0409.2479-.0763.4959-.1145.7466-.0354.2506-.0708.504-.1062.7574-.0355.2561-.0681.5123-.1008.7711q-.0941.7439-.1772,1.5068a.4492.4492,0,0,1-.0054.0626c-.0545.5314-.1063,1.0681-.1526,1.6131-.0463.5422-.0844,1.09-.12,1.643,0,.0163-.0027.0327-.0027.0517Q103.7813,163.0644,103.7485,164.3327Z" transform="translate(-4.7103 -10.494)"/><path class="e" d="M113.1406,313.5019c-3.8309,20.0374-6.0489,41.0122-4.7328,60.4393,1.5749,23.2907,10.37,39.9141,21.6831,51.7584h191.007c-2.5149-7.0433-2.4577-31.3668-1.801-53.4532v-.0027c.624-20.95,1.7847-39.89,1.801-40.1648-8.0133,11.94-16.4,22.1518-25.1381,29.0616-36.6363,28.9636-76.36,29.25-98.8576,26.19a6.7713,6.7713,0,0,1-3.0761-12.1767,95.2266,95.2266,0,0,0,7.82-6.4712c26.9065-24.6613,49.59-69.5888,56.0771-83.147a21.1836,21.1836,0,0,1,5.3377-6.9534l14.1821-12.1358A85.4042,85.4042,0,0,0,269.5793,250a216.9963,216.9963,0,0,1-29.157,1.8746c-63.4229-.2316-88.046-4.3514-105.7866-13.3538-6.5392,17.4953-15.7978,45.2055-21.4924,74.9784Z" transform="translate(-4.7103 -10.494)"/><path class="m" d="M117.1568,124.7537a12.2944,12.2944,0,0,0,1.1662,5.2151c3.52-3.1743,8.97-5.2151,15.0921-5.2151a23.4287,23.4287,0,0,1,13.8878,4.2287,12.2,12.2,0,0,0,.7574-4.2287c0-7.5474-6.918-13.6671-15.4517-13.6671S117.1568,117.2063,117.1568,124.7537Z" transform="translate(-4.7103 -10.494)"/><path class="n" d="M128.53,69.1916a29.9826,29.9826,0,0,1,10.343,1.3378s18.5089-33.0125,93.825-35.5165c75.3135-2.5067,109.5929,57.1833,116.6881,83.4794s7.7408,60.6628,7.7408,60.6628c4.9535-12.1549,6.0788-26.71,2.2779-43.9685,0,0-11.2449-126.3008-142.7525-111.8626C170.1686,28.4273,143.6327,47.7727,128.53,69.1916Z" transform="translate(-4.7103 -10.494)"/><path class="j" d="M321.0979,425.7c-2.5149-7.0434-2.4577-31.3668-1.801-53.4532v-.0027c40.5381-64.1967,33.8435-96.547,33.7345-97.0675v-.0027q.6744-1.3282,1.3433-2.6484c1.5994-3.1607.2725-6.5148-2.0435-9.1959q-1.1772-1.361-2.3678-2.5966c-23.6177-24.4487-51.5949-12.0187-70.9349,4.3568l-1.5857,1.3569A85.4042,85.4042,0,0,0,269.5793,250c47.5678-6.2695,79.0735-26.1081,79.0735-26.1081a154.402,154.402,0,0,1,10.6291,13.9914l2.3895,26.5086s19.8549,36.0859,26.5332,105.375c5.4276,18.8386,36.7671,21.3617,64.8233,17.6071a3.5983,3.5983,0,0,1,4.068,3.3186c.2943,4.2642.0082,14.9723-11.114,37.6745-10.58,11.3293-27.5631,20.5551-59.8644,26.2715H191.3313s-31.7373-2.7192-56.0007-23.931c-1.7929-1.564-3.5449-3.2315-5.2369-5.008Z" transform="translate(-4.7103 -10.494)"/><path class="o" d="M140.3794,223.8919c-1.3542,3.27-3.37,8.2777-5.7437,14.6289,17.7406,9.0024,42.3637,13.1222,105.7866,13.3538A216.9963,216.9963,0,0,0,269.5793,250a121.4653,121.4653,0,0,0-13.3238-18.013l-.0872-1.0381-.6049.049c-.4387.0355-.88.0682-1.3215.1036q-1.7614.1389-3.5339.2479c-.7874.0518-1.5776.1008-2.3678.1417q-7.1156.4047-14.37.4741c-.4006.0082-.8038.0109-1.2071.0109-9.5446.0708-19.1982-.267-28.8028-.9673q-1.23-.09-2.46-.1852-1.61-.1267-3.2151-.27c-.2044-.0163-.4087-.0354-.6158-.0545q-1.5777-.1389-3.1471-.2915c-8.3185-.812-16.558-1.8855-24.6176-3.1907a126.2183,126.2183,0,0,1-27.68-7.4711v.0027S141.5456,221.08,140.3794,223.8919Z" transform="translate(-4.7103 -10.494)"/><path class="k" d="M147.3656,155.224c.1689.2752.3378.5477.5013.8174,10.4329,17.0131,13.8469,23.1137,30.9417,23.1137,17.3672,0,22.8166-6.9589,31.443-23.9311h-62.886Z" transform="translate(-4.7103 -10.494)"/><path class="c" d="M147.3656,155.224h.0027c.2043-.2534,13.7679-16.6915,31.44-15.8632,17.8086.8365,31.443,15.8632,31.443,15.8632-3.6156-20.3154-14.0758-23.931-31.443-23.931-1.3569,0-2.6566.0245-3.9018.0817C160.21,132.04,153.0084,137.0094,147.3656,155.224Z" transform="translate(-4.7103 -10.494)"/><path class="k" d="M147.3683,155.224h62.8833s-13.6344-15.0267-31.443-15.8632C161.1362,138.5325,147.5726,154.9706,147.3683,155.224Z" transform="translate(-4.7103 -10.494)"/><path class="j" d="M138.8727,70.5294c28.32,9.0515,29.0834,60.205,29.0834,60.205l6.899-.3569,9.8307-.51c10.8143-34.1568,36.13-58.126,65.638-58.126,39.342,0,78.4714,22.2635,75.1309,95.1684-.9455,20.6668-9.97,39.8078-22.9638,55.4231-.3324.1063-.6648.21-.9972.3133,12.005-3.7137,22.7976-8.6264,31.8191-14.8877,10.8088-7.5066,19.07-16.95,23.8138-28.6039,0,0-.6457-34.3667-7.7408-60.6628S308.0112,32.5062,232.6977,35.0129C157.3816,37.5169,138.8727,70.5294,138.8727,70.5294Z" transform="translate(-4.7103 -10.494)"/><path class="f" d="M353.0314,275.1735q.6744-1.3282,1.3433-2.6484c1.5994-3.1607.2725-6.5148-2.0435-9.1959q-1.1771-1.361-2.3678-2.5966l-.0027.0027s-26.8329,68.1257-70.6788,95.2583c-43.8458,27.13-77.436,12.6889-77.436,12.6889a95.2266,95.2266,0,0,1-7.82,6.4712,6.7713,6.7713,0,0,0,3.0761,12.1767c22.4979,3.06,62.2213,2.7737,98.8576-26.19,8.7381-6.91,17.1248-17.122,25.1381-29.0616v-.0027c11.4111-16.994,22.07-37.4837,31.9335-56.9Z" transform="translate(-4.7103 -10.494)"/><path class="j" d="M201.8459,368.6825s33.59,14.4409,77.436-12.6889c43.8459-27.1326,70.6788-95.2583,70.6788-95.2583l.0027-.0027c-23.6177-24.4487-51.5949-12.0187-70.9349,4.3568l-1.5857,1.3569-14.1821,12.1358a21.1836,21.1836,0,0,0-5.3377,6.9534C251.4355,299.0937,228.7524,344.0212,201.8459,368.6825Z" transform="translate(-4.7103 -10.494)"/><path class="m" d="M224.5863,124.7537a12.0416,12.0416,0,0,0,1.1961,5.2151c3.6048-3.1743,9.1905-5.2151,15.4654-5.2151a24.428,24.428,0,0,1,14.2312,4.2287,11.9654,11.9654,0,0,0,.7765-4.2287c0-7.5474-7.09-13.6671-15.8332-13.6671C231.676,111.0866,224.5863,117.2063,224.5863,124.7537Z" transform="translate(-4.7103 -10.494)"/><path class="k" d="M232.6977,470.3139a11.2339,11.2339,0,0,0,.0981,1.4931c3.4059.0245,93.8632.6239,105.7375-.1935,12.1058-.8364,14.9749-8.9261,14.9749-8.9261a11.2783,11.2783,0,0,0-3.3622-8.0487H246.5774A26.7164,26.7164,0,0,0,232.6977,470.3139Z" transform="translate(-4.7103 -10.494)"/><path class="l" d="M232.7958,471.807a11.3158,11.3158,0,0,0,11.2176,9.8225H342.19a11.3167,11.3167,0,0,0,11.3184-11.3156v-7.6265s-2.8691,8.09-14.9749,8.9261C326.659,472.4309,236.2017,471.8315,232.7958,471.807Z" transform="translate(-4.7103 -10.494)"/><path class="b" d="M255.2719,148.4068c-13.2611,0-24.01,5.4767-24.01,12.2339,0,6.76,10.749,12.2366,24.01,12.2366s24.01-5.4766,24.01-12.2366C279.2819,153.8835,268.533,148.4068,255.2719,148.4068Z" transform="translate(-4.7103 -10.494)"/><path class="f" d="M256.1683,230.9489l.0872,1.0381A121.4653,121.4653,0,0,1,269.5793,250c47.5678-6.2695,79.0735-26.1081,79.0735-26.1081-8.6128-10.0432-14.85-14.3755-14.85-14.3755l-.49-1.7574c-9.0215,6.2613-19.8141,11.174-31.8191,14.8877-.6676.2071-1.3378.4115-2.0136.6076-.9836.2943-1.9754.5749-2.9753.85-.3706.1009-.7411.2017-1.1144.3-.3406.0953-.6839.1852-1.0272.2724-.0028,0-.0055.0028-.0109.0028q-1.0341.2738-2.0817.5313c-.3515.0872-.7.1716-1.0517.2588q-2.1049.5109-4.2506.9782-.36.0817-.7193.1553-1.2507.2656-2.5176.5231c-.7248.1472-1.45.2889-2.18.4251-.7275.1417-1.46.2752-2.1961.406q-1.0994.1962-2.2125.3842c-.3678.0653-.7383.1253-1.1116.1852-.3706.0627-.7439.1226-1.1172.18-.6457.1062-1.2942.2043-1.9454.3-.4741.0708-.9482.1417-1.425.21-.376.0572-.752.109-1.1308.1607s-.7547.1036-1.1362.1553q-1.1361.1554-2.2778.2943c-.7439.0954-1.4931.1853-2.2424.27a.3035.3035,0,0,0-.0491.0054q-1.1116.1308-2.2315.248l-.1553.0163c-.357.0409-.7166.0763-1.0763.1117q-1.737.18-3.4876.3324Q256.9639,230.8836,256.1683,230.9489Z" transform="translate(-4.7103 -10.494)"/><path class="f" d="M321.0979,332.0789c-.0163.2752-1.177,19.2146-1.801,40.1648,40.5381-64.1967,33.8435-96.547,33.7345-97.0675-9.8634,19.4163-20.5224,39.906-31.9335,56.9Z" transform="translate(-4.7103 -10.494)"/><path class="n" d="M359.2819,237.8833l2.3895,26.5086s19.8549,36.0859,26.5332,105.375c5.4276,18.8386,36.7671,21.3617,64.8233,17.6071a3.5983,3.5983,0,0,1,4.068,3.3186c.2943,4.2642.0082,14.9723-11.114,37.6745,10.0214-10.7326,14.3019-23.3534,20.408-36.6745a11.4994,11.4994,0,0,0-14.866-15.4191c-37.9442,15.6044-53.72-14.0186-53.72-14.0186C393.3134,300.8647,375.126,261.3184,359.2819,237.8833Z" transform="translate(-4.7103 -10.494)"/><path class="m" d="M79.4305,188.6728a7.6405,7.6405,0,0,0-.9071-5.9556l-2.3543-3.77a7.5937,7.5937,0,0,0-8.2654-3.36l-2.8128.69a7.608,7.608,0,0,0-4.4042,3.002l-1.5249,2.16a7.6433,7.6433,0,0,0-.7368,7.4781l1.26,2.8358a7.5716,7.5716,0,0,0,5.0165,4.268l2.3851.6277a7.5891,7.5891,0,0,0,5.5154-.6439l2.767-1.4751a7.6284,7.6284,0,0,0,3.7819-4.7894Zm-5.2719-1.3789-.2794,1.0674a2.1657,2.1657,0,0,1-1.0734,1.3595l-2.767,1.4752a2.1536,2.1536,0,0,1-1.5651.1827l-2.3852-.6279a2.1479,2.1479,0,0,1-1.4233-1.2108l-1.26-2.8363a2.169,2.169,0,0,1,.2088-2.1222l1.525-2.16a2.1593,2.1593,0,0,1,1.25-.8519l2.8127-.69a2.1557,2.1557,0,0,1,2.3456.9534l2.3543,3.77A2.1687,2.1687,0,0,1,74.1586,187.2939Z" transform="translate(-4.7103 -10.494)"/><path class="m" d="M46.65,181.198a7.1076,7.1076,0,0,0,.0824-3.9946l-5.5084-20.3893a7.12,7.12,0,0,0-5.4774-5.1245l-.7716-.1544a7.1415,7.1415,0,0,0-5.5559,1.2031l-7.18,5.1684a7.0777,7.0777,0,0,0-1.931,2.0908l-1.472,2.43a7.1438,7.1438,0,0,0-1.0185,3.2927L17.2208,176.43a7.1412,7.1412,0,0,0,1.4906,4.7728,19.585,19.585,0,0,0,15.7836,7.4369,19.0232,19.0232,0,0,0,2.4772-.151,7.1179,7.1179,0,0,0,.8771-.1751l3.3731-.8959a7.0843,7.0843,0,0,0,4.9633-4.7434Zm-5.1977-1.6365-.4649,1.4761a1.6614,1.6614,0,0,1-1.1644,1.1127l-3.3734.8961a1.6119,1.6119,0,0,1-.2014.0407c-1.3887.1861-8.5538.8081-13.23-5.2242a1.69,1.69,0,0,1-.3563-1.13l.5968-10.71a1.6786,1.6786,0,0,1,.2392-.7726l1.472-2.43a1.6581,1.6581,0,0,1,.4529-.49l7.18-5.1686a1.6735,1.6735,0,0,1,1.3033-.2823l.7719.1545a1.6753,1.6753,0,0,1,.7233.3394l0,0a1.6593,1.6593,0,0,1,.5615.8627l5.5084,20.3889A1.6683,1.6683,0,0,1,41.4526,179.5615Z" transform="translate(-4.7103 -10.494)"/><path class="m" d="M6.0517,270.32c7.8122,14.7749,30.515,29.0141,67.4784,42.3223a81.1016,81.1016,0,0,0,27.45,5.0559,59.3833,59.3833,0,0,0,9.24-.6863q-.3387,1.8909-.6549,3.763c-3.3037,19.73-4.4409,37.68-3.3806,53.35,1.1777,17.4024,6.4206,32.6274,15.5835,45.2523a79.7531,79.7531,0,0,0,8.2737,9.6477c-34.0921,7.202-37.3332,23.8587-37.46,24.5987l-.0388.2275v.2309a13.1745,13.1745,0,0,0,13.16,13.16h96.837a13.1573,13.1573,0,0,0,12.747-9.8787h23.0625a28.4435,28.4435,0,0,0-7.79,12.2527l-.0908.3427v.3544A14.0581,14.0581,0,0,0,244.51,484.3554h98.176a14.058,14.058,0,0,0,14.0421-14.0423v-7.6268a14.0142,14.0142,0,0,0-1.042-5.323h31.1661l.2356-.0417c26.6623-4.7188,44.8578-12.0518,57.2627-23.0772,11.22-9.9726,16.3244-21.6569,21.7287-34.0271,1.0538-2.4124,2.1435-4.9066,3.2817-7.39a14.2225,14.2225,0,0,0-18.3779-19.0726c-14.7762,6.0763-27.6956,5.8009-38.3988-.819a36.7546,36.7546,0,0,1-11.613-11.5092c-1.9472-26.0034-6.5227-50.2285-13.6017-72.0114a216.0712,216.0712,0,0,0-21.89-47.7583c-12.31-19.6905-23.8727-29.87-28.0242-33.1675a75.8424,75.8424,0,0,0,10.0488-8.8453c15.7787-16.6876,20.8562-38.515,15.0925-64.8778a153.6541,153.6541,0,0,0-21.64-61.1035,117.5365,117.5365,0,0,0-24.84-28.4312c-25.3671-20.78-58.767-29.0615-99.2652-24.6156-27.0757,2.9725-49.7279,11.0173-67.3275,23.9111a99.9408,99.9408,0,0,0-21.9352,21.9908l-.0133.0005-.6489.92q-.603.851-1.1882,1.7168c-.0507.0749-.1.15-.151.2249q-.4652.69-.92,1.3891l-.0971.15A104.8151,104.8151,0,0,0,117.1,84.6a119.4314,119.4314,0,0,0-10.4044,53.4868c-.279.7031-.7527,1.9582-1.3042,3.67l-.0006.0019c-.04.1242-.0807.2526-.1215.3816l-.0313.0982c-.0266.0846-.0538.1729-.0807.26-.0252.0811-.05.16-.0756.2432l-.0377.1244c-.04.1317-.08.2637-.1212.4l-.0026.009a83.5169,83.5169,0,0,0-2.7268,12.6483c-1.93,14.272.1991,27.5645,6.1578,38.4406q.9481,1.7309,2.0207,3.3846.5363.827,1.1035,1.6345.2837.4038.5749.8027,9.4854,12.9888,27.0892,20.8027-.1638.3887-.35.8334c-4.9693,2.1565-26.1249,11.7149-38.2954,23.1835-3.9313,3.7047-12.592,7.2171-23.3607,9.6531,4.1786-6.61,6.9977-14.0485,3.56-19.3633-.53-.82-1.0489-1.66-1.55-2.4732-2.0566-3.3332-3.9995-6.4815-6.8956-8.6549-12.0616-9.0507-22.3189-14.7131-30.4866-16.83a16.9812,16.9812,0,0,0-15.4493,3.65c-6.7775,5.924-18.2292,17.53-18.7768,28.6973-.3135,6.3988.55,11.6753,2.5611,15.75a11.6233,11.6233,0,0,0-2.6931,2.3552A11.0881,11.0881,0,0,0,6.0517,270.32Zm63.4091-14.1752c-.0829.0135-.1653.0274-.2483.0409q-.5007.0812-1.0016.1577c-.2281.0352-.4553.0712-.6845.1054-.19.0284-.38.055-.57.0827-.3343.0485-.6682.0974-1.0045.1437-4.3627.6007-8.6886.9982-12.9109,1.1963l-.0794.0037q-.69.0319-1.3766.0562-.1824.0064-.3646.0126-.5592.0187-1.1154.0325-.3282.0081-.6555.0145-.4233.0086-.845.0146-.4848.0064-.9673.0091c-.1814.0011-.3629.0025-.5438.0029q-.6749.0012-1.3453-.0046c-.0575,0-.1152-.0006-.1727-.0012a100.53,100.53,0,0,1-19.5756-1.98l-.0818-.0172q-.6043-.1288-1.1964-.2665c-.0568-.0131-.1141-.0258-.1707-.0391-.363-.0848-.7215-.1729-1.0778-.2624-.081-.02-.1631-.04-.2437-.0606-.3321-.0848-.66-.1727-.9857-.2615-.0963-.0263-.1941-.0515-.29-.0782-.3195-.0887-.6341-.1807-.9475-.2733-.0943-.0279-.1906-.0546-.2844-.0828q-.6024-.1815-1.1895-.3725c-.1592-.0519-.3188-.0992-.4785-.144-.038-.0107-.0762-.02-.1144-.0305q-.1978-.0534-.3959-.1l-.0811-.0185a11.3386,11.3386,0,0,0-3.0973-.27c-1.8735-3.27-2.6759-7.9034-2.3867-13.8057.4657-9.4973,11.9879-20.55,16.92-24.861a11.54,11.54,0,0,1,10.496-2.4779c5.14,1.3321,14.2711,5.1743,28.583,15.9136,2.0709,1.554,3.7507,4.2761,5.5287,7.1577.5165.837,1.05,1.7023,1.6125,2.5711C78.0914,241.3037,75.5434,248.111,69.4608,256.1451Zm74.8822-38.8736c-.3791-.1521-.7484-.31-1.1219-.466-.3146-.1311-.6341-.259-.9447-.3926-.3649-.157-.72-.32-1.0793-.4805-.31-.1382-.6242-.2733-.93-.4141-.3585-.1652-.7072-.3365-1.06-.5052-.2968-.1419-.5984-.2807-.8912-.4251-.3414-.1684-.6731-.3429-1.0091-.5147-.2948-.1507-.5946-.2985-.8852-.4518-.3219-.17-.6342-.3457-.9509-.5188-.295-.1612-.5948-.3194-.8853-.4834-.3055-.1724-.6015-.3507-.902-.5262-.2922-.1706-.5891-.3383-.8766-.5118-.2912-.1758-.573-.3574-.8595-.5361s-.5786-.3553-.8608-.5374-.5542-.37-.8313-.5544-.5587-.3669-.8309-.5547-.5366-.3826-.8047-.574-.5377-.3776-.7994-.5707c-.2646-.1953-.52-.3963-.7792-.5945-.2556-.1952-.5158-.3876-.7666-.5857-.253-.2-.4964-.4053-.7445-.608s-.5-.4023-.7433-.6078c-.2393-.2024-.4692-.4105-.7038-.6157-.242-.2118-.4885-.4208-.7255-.6355-.2288-.2074-.4481-.42-.6721-.63-.2331-.2185-.4705-.4343-.6985-.6559-.2189-.2129-.4285-.4315-.6428-.6472-.2232-.2247-.451-.4468-.6692-.6746-.2053-.2144-.4013-.4344-.6022-.6515-.2174-.2352-.4393-.4676-.6515-.706-.1922-.2158-.3752-.4372-.563-.6557-.2109-.2452-.426-.4879-.6314-.7365-.18-.2183-.3516-.442-.5278-.6628-.2031-.2547-.41-.5069-.608-.7649-.1709-.2233-.3327-.452-.4994-.6778-.1927-.2611-.39-.52-.5768-.7841-.1626-.23-.3161-.4653-.4745-.6978-.1815-.2663-.3671-.53-.543-.8-.1528-.2344-.2965-.4741-.4451-.711-.1714-.2734-.3471-.5444-.5129-.8211-.143-.2388-.2769-.4829-.4158-.7242-.1622-.2818-.3285-.5612-.4849-.8465a51.535,51.535,0,0,1-5.9982-20.9286l-.0015-.02c-.0242-.3154-.0447-.6287-.0638-.9412q-.0127-.2145-.0241-.4284-.0136-.2526-.0251-.5035a75.1189,75.1189,0,0,1,4.7-28.7478l.0122-.0312.0354-.09c.1149-.2911.1832-.4525.1877-.4627l.0179-.0417.2535-.5871-.0594-.6851a112.2335,112.2335,0,0,1,3.6157-33.5369c.0316-.1219.0629-.2435.0951-.3659q.0672-.2575.1363-.5164a104.7421,104.7421,0,0,1,14.4451-31.98A25.5833,25.5833,0,0,1,148.47,79.1087c15.1284,14.3476,17.0167,45.4877,17.231,50.8668a23.9,23.9,0,0,0-7.918,3.6551c-5.4026,3.8535-9.2656,10.2642-12.5259,20.7859l-.3656,1.18,1.7247,2.8109c10.1748,16.6005,14.3864,23.4716,32.6877,23.4716,18.8871,0,25.0917-8.1411,33.8733-25.4214l.4135-.8136-.16-.8985c-1.8791-10.5521-5.6133-17.3465-11.7519-21.382a30.6166,30.6166,0,0,0-13.3549-4.3506c11.0833-33.197,35.4648-54.5451,62.4949-54.5451,15.0874,0,36.3555,3.4371,51.9972,19.8117,15.0282,15.7322,21.8962,40.1269,20.4132,72.5064-.8444,18.4344-8.3894,36.8106-21.8295,53.19a178.72,178.72,0,0,1-18.1629,4.5669,274.52,274.52,0,0,1-52.4037,4.6577,380.7107,380.7107,0,0,1-56.4813-4.3216l-.0468-.0072q-1.7468-.266-3.4693-.5452-1.36-.2205-2.6916-.4593c-.4243-.0761-.8394-.1582-1.2594-.237-.4588-.0862-.922-.1694-1.3756-.2589-.4387-.0865-.868-.1792-1.302-.2688-.4257-.0879-.8562-.1728-1.2773-.2637-.4154-.09-.8215-.1854-1.2324-.278-.43-.0969-.8648-.1909-1.29-.291-.4318-.1016-.8541-.2094-1.2808-.3143-.3947-.0971-.7942-.191-1.1846-.2909-.43-.11-.8507-.2262-1.2755-.34-.3777-.1008-.76-.1985-1.1336-.302-.4144-.1148-.8191-.2358-1.2282-.3539-.3745-.1081-.7539-.2131-1.124-.324-.4117-.1234-.8137-.2529-1.22-.38-.3581-.1117-.7211-.22-1.075-.3346-.4148-.134-.82-.2742-1.229-.4119-.3359-.113-.6768-.2229-1.0089-.3383-.3834-.1334-.7573-.2728-1.1356-.4095-.3487-.1259-.7021-.2487-1.0464-.3774-.3746-.14-.7395-.2861-1.1089-.4294C145.0191,217.5333,144.6765,217.4053,144.343,217.2715Zm7.2959-64.7732c2.5918-7.213,5.5248-11.7321,9.3088-14.4315,4.0328-2.8766,9.351-4.05,18.3564-4.05,9.4265,0,15.2229,1.1664,19.381,3.9,4.203,2.763,7.0109,7.4379,8.7177,14.5815Zm54.6263,5.4494c-7.1012,13.3345-12.245,18.4817-26.9611,18.4817-14.4641,0-17.878-4.3542-26.5755-18.4817Zm104.4216,58.8284c11.0137-15.5648,17.201-32.601,17.9861-49.7411,1.5536-33.9244-5.82-59.6693-21.9164-76.52C293.3224,76.4516,273.98,69.0182,250.8188,69.0182c-14.9607,0-29.3646,5.863-41.6545,16.9551-11.4469,10.3314-20.41,24.5713-25.9951,41.27l-12.1108.6289a130.3935,130.3935,0,0,0-2.407-18.2391C165.4432,94.0575,159.918,82.46,152.229,75.1632a30.6711,30.6711,0,0,0-17.99-8.4984c17.9322-22.8874,45.8134-36.5267,83.2066-40.632a183.1055,183.1055,0,0,1,19.97-1.1315c30.054,0,55.2877,8.2116,75.2082,24.5137,20.4853,16.7643,31.5026,39.2049,37.1376,55.0782a141.5585,141.5585,0,0,1,7.4242,30.9376l.0154.1725.0374.17c5.4091,24.5662.8017,44.7957-13.6941,60.1264C335.08,204.8523,323.7805,211.6924,310.6868,216.7761Zm-62.97,240.5872H349.4317a8.5206,8.5206,0,0,1,1.8472,5.323v7.6268a8.6025,8.6025,0,0,1-8.5927,8.5929H244.51a8.6037,8.6037,0,0,1-8.5848-8.2193A24.0065,24.0065,0,0,1,247.7173,457.3633Zm-31.8863-5.4494H191.955a108.8314,108.8314,0,0,1-25.5656-6.4,95.5251,95.5251,0,0,1-28.77-16.8575l-.2664-.2328H325.4577l-1.2989-3.64c-3.836-10.7505-1.2614-69.1972.1086-91.8072q2.692-4.0336,5.4513-8.5012c9.6485-15.6274,18.5518-32.9084,27.5806-50.7188,1.9119-3.7715,1.033-8.2207-2.4114-12.2069-11.5373-13.3515-25.2087-19.0169-40.6317-16.8394-13.9847,1.9746-26.5984,10.1765-35.1174,17.1566-5.08-12.6-13.3966-23.4877-17.6781-28.62q1.9908-.2,3.9566-.4263,1.029-.118,2.0488-.2445l.0411-.005q1.3757-.1693,2.7375-.3509c.57-.0766,1.1319-.1593,1.6973-.2393.0823-.0117.1649-.0231.2471-.0349a209.2783,209.2783,0,0,0,23.4963-4.6713c.0826-.0217.166-.0426.2484-.0644q.7777-.2052,1.5461-.4168.4311-.1177.86-.2373.6939-.1936,1.3826-.3907c.3608-.1039.7182-.21,1.0764-.3161q1.0128-.2993,2.0111-.6082c.3331-.1031.6684-.2046.9991-.3094l.46-.1459c.0776-.0248.1561-.049.2336-.074l.067-.0212.0011-.0013q5.0653-1.6327,9.7393-3.52a110.35,110.35,0,0,0,18.4437-9.435l-.0123.0176c.1363.0953,13.81,9.8027,28.3129,33.1078,13.4024,21.5373,30.272,59.4212,34.5285,117.5933l.042.574.27.5079a40.95,40.95,0,0,0,13.5859,13.8883c8.4676,5.318,22.9,9.873,43.5743,1.3719a8.773,8.773,0,0,1,11.3518,11.7617c-1.1586,2.5278-2.2584,5.045-3.3218,7.4791-10.3145,23.61-19.2238,44.0047-74.7123,53.8783H215.831Zm78.9339-92.91c-36.424,28.7967-76.2829,28.4178-96.8,25.6276a3.917,3.917,0,0,1-3.367-2.9961,3.9577,3.9577,0,0,1,1.5387-4.2863c30.6173-22.5352,57.293-75.0722,64.74-90.6376a18.3412,18.3412,0,0,1,4.65-6.0579l15.7678-13.4923c7.9443-6.7258,20.2544-15.1535,33.7236-17.0554,13.4721-1.9019,25.4988,3.1469,35.7466,15.0065,1.3821,1.5994,2.7945,3.97,1.6741,6.18C337.4026,300.9527,316.81,341.5747,294.7649,359.0035ZM136.2682,434.645c.2126.1735.429.3442.6438.5161q.4528.3621.9081.7167a95.3393,95.3393,0,0,0,13.1218,8.5634,114.2731,114.2731,0,0,0,40.6515,12.9123l.1163.01h17.8114a7.71,7.71,0,0,1-6.9818,4.4293h-96.837a7.72,7.72,0,0,1-7.7047-7.4118c.2389-.836,1.4145-4.1855,5.73-8.0437,4.611-4.1219,13.7643-9.6293,31.2942-12.7268Q135.6424,434.1358,136.2682,434.645Zm-9.5666-162.5334a504.6655,504.6655,0,0,1,17.4793-49.0567,133.3246,133.3246,0,0,0,25.7826,6.6508,382.0711,382.0711,0,0,0,60.7392,5.0294c8.2391,0,16.2793-.3008,24.0567-.8959l-.0031.0029c.1406.151,13.6659,14.8153,19.9849,31.7543l-12.7575,10.9162A23.757,23.757,0,0,0,255.96,284.36c-7.3085,15.2767-33.455,66.8147-63.0539,88.6a9.4963,9.4963,0,0,0,4.3246,17.0711,143.4462,143.4462,0,0,0,19.2161,1.2868,137.7347,137.7347,0,0,0,25.7891-2.3969,128.0811,128.0811,0,0,0,55.9083-25.6425c6.5435-5.1733,13.2219-12.3879,20.2-21.8439-.4106,7.9049-.9671,19.8206-1.3181,32.2111-.6975,24.6143-.3241,41.1573,1.1085,49.3285H131.6878c-11.9969-12.93-18.7257-29.3962-20.0667-49.2168C109.28,339.1547,118.5294,299.3828,126.7016,272.1116ZM11.5719,261.298a5.81,5.81,0,0,1,4.7519-2.0915c.028.0017.0561.0049.0841.007q.18.0134.3634.0389c.0441.0061.0882.013.1324.02.1122.0181.2256.04.34.0657.044.01.0879.0185.132.0293.1544.0377.31.08.4675.1316.4622.1507.9329.2958,1.4081.438.1311.0392.2641.0771.3962.1156q.55.1606,1.1106.314c.1246.0339.2491.0678.3745.1012q.6828.1821,1.3807.3537l.092.023c8.9666,2.1865,19.8141,3.019,31.3156,2.4343.2309-.0116.4614-.0227.6927-.0354.2167-.0121.434-.0256.6511-.0387q.5283-.0315,1.0576-.0664c.1417-.01.2836-.02.4255-.03q.6541-.0457,1.31-.0974.1221-.01.2443-.02.7557-.061,1.5133-.13l.0913-.0083c2.7352-.2508,5.4878-.5789,8.241-.9874.0507-.0075.1019-.0145.1526-.022.189-.0282.378-.0586.5671-.0876q1.3208-.2022,2.6185-.4238l.9815-.1682.0052-.0068c14.4922-2.6013,26.3766-7.1152,31.76-12.1878,8.8857-8.3733,23.3913-15.9073,31.5753-19.7924-3.6718,9.3051-9.1172,23.9883-14.3259,41.37-4.2261,14.1034-7.6379,27.7547-10.1827,40.716-4.3865.9074-17.8794,2.7478-35.9224-3.7481C30.976,291.53,15.79,277.08,10.8689,267.7731A5.7417,5.7417,0,0,1,11.5719,261.298Z" transform="translate(-4.7103 -10.494)"/></g></svg>