<svg width="250" height="351" viewBox="0 0 250 351" fill="none" xmlns="http://www.w3.org/2000/svg">
<path d="M42.978 188.193C42.978 188.193 20.1293 184.988 25.4917 157.398C25.4626 157.398 51.0022 163.13 42.978 188.193Z" fill="#FFC727"/>
<path opacity="0.1" d="M42.978 188.193C42.978 188.193 20.1293 184.988 25.4917 157.398C25.4626 157.398 51.0022 163.13 42.978 188.193Z" fill="#1B1B1B"/>
<path d="M41.8219 182.433C41.3732 181.038 40.8545 179.666 40.2675 178.323C40.2675 178.139 40.2675 177.964 40.2093 177.799C40.2093 177.42 40.1413 177.041 40.1121 176.662C40.0538 175.836 39.9955 175.011 39.947 174.185C39.8498 172.543 39.743 170.892 39.7235 169.24C39.7235 169.153 39.5875 169.153 39.5778 169.24C39.5778 170.892 39.5778 172.543 39.5778 174.195C39.5778 175.02 39.6555 175.846 39.7138 176.672C39.7138 176.847 39.7138 177.031 39.7138 177.216C38.4273 174.468 36.8925 171.844 35.1285 169.376C34.3417 168.278 33.5159 167.229 32.6319 166.209C31.7479 165.189 30.757 164.179 29.8341 163.149C29.7758 163.081 29.6786 163.149 29.7369 163.246C31.3766 165.055 32.8526 167.005 34.1474 169.075C34.8371 170.124 35.4977 171.203 36.0903 172.3L35.8766 172.213L35.0605 171.883L33.2925 171.183C32.0684 170.727 30.8347 170.28 29.6204 169.813C29.5426 169.813 29.4941 169.91 29.5621 169.94C30.7861 170.425 31.981 170.911 33.1856 171.455L34.9537 172.213C35.2548 172.349 35.5463 172.465 35.8474 172.582C36.0381 172.679 36.2406 172.751 36.4497 172.796C36.916 173.631 37.4212 174.457 37.7903 175.302C38.8524 177.44 39.7867 179.64 40.5881 181.889C40.5881 182.044 40.695 182.199 40.7533 182.365C40.1509 182.019 39.5243 181.717 38.8784 181.461C38.0915 181.092 37.2949 180.742 36.508 180.383C34.9051 179.645 33.3119 178.896 31.777 178.032C31.6993 177.983 31.6313 178.11 31.709 178.148C33.2828 179.013 34.8177 179.926 36.3914 180.781C37.1783 181.209 37.9749 181.617 38.7715 182.005C39.4396 182.4 40.1634 182.691 40.9184 182.87C41.6858 184.959 42.1916 187.136 42.4242 189.349C42.6768 192.468 42.6476 195.615 42.7156 198.743H42.803C43.0265 195.907 43.1625 193.041 43.1722 190.195C43.1397 187.552 42.6838 184.931 41.8219 182.433Z" fill="#263238"/>
<path d="M38.3052 166.209C38.0859 167.818 38.0111 169.444 38.0818 171.066C38.0818 171.066 38.1401 171.066 38.1498 171.066C38.2372 169.454 38.2567 167.851 38.4412 166.209C38.4509 166.151 38.3149 166.122 38.3052 166.209Z" fill="#263238"/>
<path d="M31.7673 167.589C30.753 167.198 29.7773 166.713 28.853 166.141C28.7752 166.093 28.7072 166.219 28.785 166.267C29.6829 166.878 30.6645 167.356 31.6993 167.686C31.7868 167.696 31.8256 167.608 31.7673 167.589Z" fill="#263238"/>
<path d="M43.6872 231.987C43.6872 229.461 43.6192 226.935 43.59 224.409C43.59 216.026 43.4735 207.642 43.3277 199.249C43.1982 192.597 43.0428 185.943 42.8614 179.285C42.8601 179.267 42.854 179.249 42.8438 179.234C42.8336 179.218 42.8196 179.206 42.8031 179.198V173.738C42.8031 173.738 42.7449 173.67 42.6963 173.68C42.6477 173.689 42.5894 173.68 42.5894 173.748C42.5894 175.564 42.5894 177.391 42.5894 179.207C42.5841 179.22 42.5813 179.233 42.5813 179.246C42.5813 179.26 42.5841 179.273 42.5894 179.285C42.2494 191.137 41.9483 202.989 41.8803 214.84C41.8803 217.25 41.8803 219.698 41.8803 222.068C41.7961 229.801 41.7637 237.527 41.7831 245.247C41.7831 246.481 41.7831 247.715 41.7831 248.939C41.7831 256.011 41.8511 263.083 41.8511 270.155C41.8511 270.534 42.2786 270.719 42.7254 270.738C43.1723 270.758 43.7843 270.554 43.7843 270.116C43.7843 262.345 43.8426 254.573 43.8426 246.733C43.6872 241.818 43.7455 236.902 43.6872 231.987Z" fill="#263238"/>
<path d="M34.1668 224.312C34.1668 224.312 23.1699 216.171 12.7364 221.699C2.30295 227.227 0.670904 248.414 0.670904 248.414C0.670904 248.414 15.9908 250.6 25.6374 241.42C34.9439 232.55 34.1668 224.312 34.1668 224.312Z" fill="#FFC727"/>
<path d="M37.1589 224.817C35.1388 224.02 32.9525 223.736 30.7958 223.992C30.3498 223.912 29.8984 223.867 29.4455 223.856L27.9009 223.739L24.6951 223.516C22.519 223.35 20.3429 223.224 18.1863 223.001C18.1086 223.001 18.0891 223.127 18.1863 223.137C20.3332 223.409 22.4607 223.72 24.6076 223.933C25.7151 224.05 26.8226 224.157 27.93 224.234L28.7363 224.322C28.406 224.39 28.0757 224.468 27.7649 224.555C26.0312 225.053 24.3519 225.723 22.7521 226.556C21.8875 226.712 21.0327 226.954 20.1778 227.149C18.8177 227.469 17.4674 227.819 16.1171 228.179C13.4456 228.878 10.8032 229.665 8.15113 230.432C8.07341 230.432 8.15113 230.588 8.15113 230.568C10.7935 229.917 13.4553 229.325 16.1074 228.693L19.9932 227.722C20.3235 227.635 20.6635 227.557 20.9647 227.489C18.0223 229.319 15.3974 231.616 13.193 234.289C11.0414 236.91 9.21774 239.784 7.76255 242.848C7.76255 242.925 7.83055 243.003 7.87912 242.925C9.69762 239.787 11.9148 236.897 14.4753 234.328L14.3296 234.765L13.7176 236.708C13.3193 238.01 12.9016 239.302 12.513 240.594C12.513 240.612 12.5201 240.629 12.5329 240.642C12.5456 240.655 12.5629 240.662 12.581 240.662C12.599 240.662 12.6163 240.655 12.6291 240.642C12.6418 240.629 12.649 240.612 12.649 240.594C13.1153 239.341 13.5524 238.078 13.9993 236.815C14.213 236.193 14.4365 235.581 14.6502 234.959C14.7668 234.639 14.8736 234.318 14.9805 233.988C15.0102 233.885 15.0459 233.785 15.0873 233.687C16.3092 232.496 17.6072 231.386 18.9732 230.364C20.7834 229.033 22.7388 227.912 24.8019 227.022L24.6854 227.586L24.3648 229.092C24.151 230.131 23.947 231.171 23.743 232.22C23.335 234.347 23.0727 236.494 22.6744 238.622C22.6744 238.709 22.791 238.748 22.8104 238.622C23.3059 236.484 23.9373 234.376 24.4133 232.229C24.6562 231.161 24.8991 230.083 25.1225 229.014C25.2197 228.509 25.3265 228.043 25.4237 227.508C25.4895 227.229 25.5414 226.947 25.5791 226.663C25.7831 226.585 25.9774 226.488 26.1717 226.42C29.0861 225.352 32.2433 224.574 35.3228 225.167C36.7759 225.437 38.1399 226.062 39.2939 226.985C40.4478 227.909 41.3562 229.103 41.9384 230.461C42.0356 230.704 42.4145 230.559 42.3562 230.306C41.9719 229.052 41.3028 227.904 40.4012 226.952C39.4996 226 38.3899 225.269 37.1589 224.817Z" fill="#263238"/>
<path d="M20.3721 233.881L19.4007 238.058C19.0581 239.394 18.8017 240.75 18.6332 242.119C18.6332 242.177 18.7109 242.177 18.7304 242.119C19.1414 240.778 19.4659 239.412 19.7018 238.029C19.9738 236.65 20.2361 235.28 20.5081 233.9C20.5107 233.882 20.506 233.864 20.4951 233.849C20.4842 233.835 20.4679 233.825 20.4499 233.823C20.4318 233.82 20.4135 233.825 20.3989 233.836C20.3844 233.847 20.3747 233.863 20.3721 233.881Z" fill="#263238"/>
<path d="M9.68603 237.417C8.28713 238.126 6.92709 238.933 5.46019 239.515C5.37276 239.515 5.46019 239.69 5.51848 239.642C6.95429 238.993 8.35511 238.27 9.71518 237.475C9.71518 237.475 9.73461 237.398 9.68603 237.417Z" fill="#263238"/>
<path d="M36.6343 209.361C36.6343 209.361 23.199 210.216 16.9525 201.357C10.7061 192.497 12.0952 179.848 12.0952 179.848C12.0952 179.848 26.2105 181.558 31.8158 187.921C37.4212 194.284 36.6343 209.361 36.6343 209.361Z" fill="#FFC727"/>
<path d="M42.9391 222.612C42.4728 221.174 41.8996 219.756 41.3556 218.347C40.8116 216.939 40.2773 215.647 39.6847 214.326C38.4871 211.614 37.1412 208.971 35.6532 206.408C34.6817 204.776 33.7102 203.193 32.6514 201.629C32.6514 201.386 32.5834 201.153 32.5445 200.91C32.4765 200.492 32.4182 200.084 32.3599 199.666C32.2239 198.811 32.0782 197.966 31.9325 197.121C31.6216 195.266 31.2427 193.42 30.961 191.564C30.961 191.477 30.8153 191.477 30.825 191.564C31.097 193.4 31.2816 195.246 31.5342 197.082C31.6605 197.976 31.777 198.879 31.913 199.783C31.9713 200.103 32.0199 200.434 32.0685 200.754C30.0207 197.757 27.8021 194.88 25.4237 192.137C25.1031 191.768 24.7728 191.399 24.4522 191.04C24.4186 190.933 24.3763 190.829 24.326 190.729L24.0345 189.961L23.4516 188.358C23.0825 187.309 22.7425 186.241 22.4802 185.162C22.4843 185.152 22.4859 185.141 22.4847 185.13C22.4835 185.119 22.4796 185.108 22.4733 185.099C22.4671 185.09 22.4587 185.082 22.4489 185.077C22.4391 185.072 22.4282 185.069 22.417 185.069C22.4059 185.069 22.395 185.072 22.3852 185.077C22.3754 185.082 22.367 185.09 22.3607 185.099C22.3545 185.108 22.3506 185.119 22.3494 185.13C22.3482 185.141 22.3498 185.152 22.3539 185.162C22.6259 186.27 22.9076 187.368 23.2282 188.456C23.3836 188.98 23.5585 189.505 23.7431 190.02L23.8402 190.282C22.1208 188.407 20.3333 186.6 18.5264 184.822C18.4584 184.754 18.3612 184.822 18.4292 184.92C21.899 188.554 25.082 192.451 27.9495 196.577C27.6316 196.471 27.3071 196.387 26.978 196.324C25.9483 196.12 24.8991 195.975 23.8597 195.839C21.6642 195.567 19.4881 195.285 17.3023 194.945C17.2843 194.945 17.267 194.952 17.2542 194.965C17.2415 194.978 17.2343 194.995 17.2343 195.013C17.2343 195.031 17.2415 195.048 17.2542 195.061C17.267 195.074 17.2843 195.081 17.3023 195.081C19.3812 195.489 21.4504 195.955 23.5099 196.431C24.4814 196.655 25.4529 196.849 26.4243 197.043C27.2226 197.212 28.0081 197.436 28.7752 197.714C28.9987 198.024 29.2221 198.326 29.4358 198.685C30.4073 200.113 31.3787 201.599 32.2919 203.057L30.9222 202.785C29.8827 202.59 28.8432 202.396 27.8038 202.231C25.754 201.891 23.7042 201.531 21.6739 201.075C21.6558 201.075 21.6386 201.082 21.6258 201.095C21.613 201.108 21.6059 201.125 21.6059 201.143C21.6059 201.161 21.613 201.178 21.6258 201.191C21.6386 201.204 21.6558 201.211 21.6739 201.211C23.7237 201.687 25.7637 202.25 27.8038 202.794C28.7752 203.057 29.7467 203.299 30.7182 203.513L32.2142 203.843C32.4119 203.892 32.6134 203.925 32.8165 203.941C34.7594 207.127 36.6246 210.381 38.3247 213.655C39.0824 215.122 39.8013 216.57 40.5007 218.085C41.2002 219.601 41.8316 221.165 42.4437 222.709C42.5602 223.078 43.046 222.952 42.9391 222.612Z" fill="#263238"/>
<path d="M29.193 191.739C28.9307 190.457 28.6586 189.184 28.3769 187.853C28.3769 187.766 28.2312 187.853 28.2506 187.853C28.5032 189.116 28.7461 190.379 28.9695 191.642C29.1617 192.907 29.4178 194.162 29.737 195.401C29.6393 194.17 29.4575 192.946 29.193 191.739Z" fill="#263238"/>
<path d="M21.3436 191.37C20.7219 191.059 20.0613 190.806 19.4007 190.554L18.4292 190.156L17.9144 189.942C17.7163 189.887 17.5267 189.805 17.3509 189.699C17.244 189.621 17.1858 189.796 17.2829 189.816C17.4825 189.871 17.6748 189.949 17.8561 190.049L18.3612 190.282L19.3327 190.719C19.9666 191.014 20.6151 191.277 21.2756 191.506C21.3436 191.525 21.431 191.399 21.3436 191.37Z" fill="#263238"/>
<path d="M50.3901 198.792C50.3901 198.792 58.5212 183.608 70.8879 181.257C83.2546 178.906 90.8319 191.632 90.8319 191.632C90.8319 191.632 81.8071 203.154 70.4313 205.165C59.0555 207.176 50.3901 198.792 50.3901 198.792Z" fill="#FFC727"/>
<path d="M79.1746 188.067C75.9483 187.628 72.6748 187.667 69.46 188.184L70.0137 187.882L72.7532 186.474C74.6471 185.431 76.5925 184.484 78.582 183.637C78.6694 183.637 78.582 183.462 78.5237 183.511C76.5808 184.405 74.5796 185.162 72.6464 186.056C71.6749 186.503 70.7035 186.969 69.732 187.465C69.12 187.795 68.4497 188.096 67.8474 188.485C65.1301 189.029 62.4904 189.907 59.9883 191.098L61.5329 189.408C62.6889 188.154 63.8158 186.824 65.0884 185.677C65.1564 185.619 65.0884 185.522 64.9816 185.58C63.6895 186.756 62.3198 187.844 61.0957 189.068C60.4837 189.66 59.9008 190.272 59.3374 190.904C59.0557 191.224 58.774 191.545 58.5019 191.875C54.2521 194.146 50.5599 197.334 47.692 201.206C44.8242 205.079 42.8524 209.54 41.9192 214.267C41.9192 214.355 42.026 214.403 42.0454 214.316C43.7868 208.526 46.907 203.246 51.1383 198.928C55.6869 194.283 61.4172 190.968 67.7114 189.34C71.4467 188.388 75.3096 188.037 79.1551 188.3C79.3203 188.32 79.33 188.086 79.1746 188.067Z" fill="#263238"/>
<path opacity="0.1" d="M90.832 191.632C90.832 191.632 81.8072 203.154 70.4314 205.165C61.7757 206.7 54.6549 202.182 51.76 199.958L51.1383 198.938C51.1383 198.938 56.967 194.003 68.0708 191.166C79.1745 188.329 90.832 191.632 90.832 191.632Z" fill="#1B1B1B"/>
<path d="M71.9955 182.646C71.047 183.202 70.1293 183.808 69.2462 184.463C68.3841 185.116 67.5841 185.848 66.8564 186.649C66.7982 186.717 66.8564 186.804 66.9633 186.746C67.789 186.037 68.6148 185.318 69.4697 184.647C70.2946 183.966 71.1609 183.337 72.0635 182.763C72.1412 182.724 72.0732 182.598 71.9955 182.646Z" fill="#263238"/>
<path d="M78.7859 185.221C78.3196 185.415 77.8144 185.58 77.3967 185.765L76.0173 186.338C75.9201 186.338 75.9687 186.542 76.0658 186.493L77.4453 185.94C77.9116 185.755 78.3585 185.541 78.8248 185.357C78.9025 185.318 78.8636 185.182 78.7859 185.221Z" fill="#263238"/>
<path d="M48.7679 217.91C48.7679 217.91 50.9342 232.978 62.2711 238.243C73.608 243.508 87.4027 238.214 87.4027 238.214C87.4027 238.214 81.9723 205.65 48.7679 217.91Z" fill="#FFC727"/>
<path d="M79.6311 228.499C78.5819 228.373 77.5425 228.198 76.5127 228.004L74.9875 227.722L74.1909 227.557C73.8898 227.275 73.5886 226.984 73.2778 226.712C71.1315 224.824 68.8124 223.143 66.3513 221.689C65.0093 220.894 63.6208 220.181 62.1934 219.552H62.4071L66.1376 219.717C68.6245 219.834 71.1114 219.892 73.5984 220.047C73.6858 220.047 73.6858 219.911 73.5984 219.911C71.1114 219.737 68.6245 219.465 66.1376 219.251L62.514 218.93L60.6488 218.765L60.1728 218.717C59.5219 218.474 58.871 218.25 58.2299 218.046C55.1417 216.983 51.819 216.798 48.6319 217.512C45.7855 218.241 42.9391 220.106 42.2008 223.117C42.2008 223.214 42.3368 223.292 42.3854 223.185C43.4443 220.679 46.2712 219.416 48.7484 218.891C50.4402 218.569 52.174 218.533 53.8777 218.785C53.9917 219.563 54.1838 220.328 54.4509 221.067C54.7618 222.126 55.0726 223.185 55.4224 224.244C56.0635 226.362 56.7727 228.46 57.3653 230.578C57.3612 230.588 57.3596 230.6 57.3608 230.611C57.362 230.622 57.3659 230.632 57.3721 230.641C57.3784 230.651 57.3867 230.658 57.3966 230.663C57.4064 230.669 57.4173 230.671 57.4284 230.671C57.4395 230.671 57.4505 230.669 57.4603 230.663C57.4701 230.658 57.4785 230.651 57.4847 230.641C57.491 230.632 57.4948 230.622 57.496 230.611C57.4972 230.6 57.4957 230.588 57.4916 230.578C56.967 228.46 56.5201 226.333 56.015 224.205C55.7624 223.166 55.5001 222.136 55.2475 221.097C55.1041 220.369 54.9127 219.652 54.6743 218.95C55.658 219.129 56.6309 219.362 57.5887 219.649C59.3362 220.166 61.0494 220.792 62.718 221.524C62.8832 222.602 63.126 223.661 63.3689 224.72C63.6798 226.051 64.0295 227.372 64.4472 228.674C64.4523 228.687 64.461 228.697 64.4722 228.705C64.4835 228.713 64.4968 228.717 64.5104 228.717C64.524 228.717 64.5372 228.713 64.5485 228.705C64.5597 228.697 64.5685 228.687 64.5735 228.674C64.5781 228.59 64.5781 228.506 64.5735 228.421C64.3209 227.188 64.0489 225.964 63.7866 224.73C63.5729 223.758 63.3883 222.738 63.1649 221.747C64.5757 222.377 65.9537 223.077 67.2936 223.846C67.2936 224.147 67.4004 224.468 67.449 224.74C67.5267 225.264 67.6239 225.779 67.7113 226.294C67.925 227.45 68.1582 228.606 68.4399 229.762C68.9513 231.983 69.6002 234.169 70.3828 236.31C70.376 236.323 70.3724 236.338 70.3724 236.353C70.3724 236.369 70.376 236.384 70.3828 236.397L70.4508 236.475C70.4508 236.533 70.5771 236.475 70.5674 236.407C70.0428 234.172 69.4405 231.958 68.9548 229.713C68.7119 228.596 68.4593 227.479 68.2359 226.352L67.9153 224.672C67.9153 224.506 67.8667 224.341 67.8376 224.166C71.9961 226.62 75.7594 229.689 78.9997 233.269C79.0774 233.356 79.2425 233.269 79.1648 233.133C78.3215 231.99 77.4201 230.891 76.4642 229.84C75.9007 229.228 75.3081 228.645 74.7058 228.062H74.8904C75.4247 228.149 75.9493 228.227 76.4836 228.295C77.5328 228.441 78.5819 228.538 79.6311 228.655C79.6311 228.587 79.6894 228.499 79.6311 228.499Z" fill="#263238"/>
<path d="M71.636 233.551C71.636 233.424 71.636 233.288 71.5777 233.162C71.5221 233 71.4767 232.834 71.4417 232.667C71.2085 231.695 71.0143 230.646 70.8297 229.626C70.8297 229.558 70.7034 229.577 70.7131 229.626C70.7782 230.976 71.0671 232.305 71.568 233.56C71.568 233.56 71.6554 233.56 71.6457 233.56L71.636 233.551Z" fill="#263238"/>
<path d="M62.1449 233.356C62.1449 233.356 62.1449 233.298 62.0769 233.298C61.7661 231.967 61.4552 230.627 61.1832 229.286C61.0375 228.577 60.8917 227.877 60.7557 227.168C60.678 226.78 60.61 226.401 60.542 226.022C60.5097 225.688 60.4279 225.36 60.2991 225.05C60.2941 225.038 60.2854 225.027 60.2741 225.019C60.2629 225.012 60.2496 225.008 60.236 225.008C60.2224 225.008 60.2091 225.012 60.1979 225.019C60.1866 225.027 60.1779 225.038 60.1729 225.05C60.1608 225.735 60.2558 226.416 60.4546 227.071C60.5906 227.809 60.7363 228.548 60.9015 229.276C61.2317 230.763 61.6009 232.239 62.0186 233.706C62.0186 233.727 62.0268 233.746 62.0414 233.761C62.056 233.776 62.0757 233.784 62.0963 233.784C62.117 233.784 62.1367 233.776 62.1513 233.761C62.1659 233.746 62.1741 233.727 62.1741 233.706L62.1449 233.356Z" fill="#263238"/>
<path d="M78.5721 224.108C76.5029 223.826 74.4337 223.525 72.3548 223.273C72.2673 223.273 72.2382 223.399 72.3548 223.409C74.424 223.71 76.4932 223.972 78.5624 224.244C78.6595 224.254 78.6595 224.118 78.5721 224.108Z" fill="#263238"/>
<path d="M42.9585 182.578C42.9585 182.578 36.032 152.162 68.7022 139.834C68.7022 139.854 77.7561 179.926 42.9585 182.578Z" fill="#FFC727"/>
<path d="M50.0114 165.354L50.3611 165.141L52.2166 164.111L56.0053 161.993C58.4922 160.594 60.9597 159.147 63.4661 157.777C63.5438 157.777 63.4661 157.622 63.3981 157.66C60.882 159.03 58.3174 160.312 55.7916 161.643L52.0417 163.586L50.4874 164.383C51.5754 162.323 52.7412 160.293 54.0235 158.34C55.7236 155.737 57.5985 153.26 59.5511 150.831C59.5642 150.808 59.5692 150.782 59.5653 150.756C59.5615 150.73 59.549 150.706 59.5299 150.688C59.5108 150.67 59.4862 150.659 59.4601 150.657C59.434 150.655 59.4079 150.661 59.386 150.676C56.5172 153.459 53.9809 156.566 51.828 159.934C51.828 159.827 51.828 159.72 51.828 159.623C51.828 158.865 51.8863 158.107 51.896 157.349C51.896 155.863 51.896 154.377 51.896 152.891C51.896 152.803 51.76 152.813 51.7503 152.891C51.692 154.348 51.5171 155.805 51.4297 157.262C51.4297 158 51.3617 158.719 51.3423 159.458C51.3423 159.846 51.3423 160.293 51.3423 160.73C50.672 161.799 50.0211 162.887 49.3994 163.985C48.3055 165.967 47.3322 168.014 46.485 170.114C46.485 169.357 46.4073 168.599 46.3587 167.841C46.2616 166.18 46.0576 164.519 45.9896 162.848C45.9896 162.83 45.9824 162.813 45.9696 162.8C45.9569 162.787 45.9396 162.78 45.9216 162.78C45.9035 162.78 45.8862 162.787 45.8735 162.8C45.8607 162.813 45.8535 162.83 45.8535 162.848C45.8535 164.509 45.8535 166.18 45.8535 167.841C45.8535 168.677 45.9118 169.512 45.9604 170.338L46.0187 171.309C44.9801 174.026 44.1551 176.819 43.5512 179.664C42.992 182.702 42.5867 185.766 42.3369 188.844C42.6802 186.07 43.2587 183.331 44.0661 180.655C44.4741 179.227 44.9015 177.799 45.3581 176.38C46.7181 175.739 48.0199 174.943 49.3314 174.214C50.6428 173.485 52.0709 172.718 53.4309 171.97C56.1607 170.474 58.8808 168.949 61.6883 167.628C61.7757 167.628 61.6883 167.472 61.6203 167.511C58.7739 168.803 55.8984 170.027 53.1006 171.397C51.7114 172.096 50.3417 172.844 48.9816 173.602C47.845 174.243 46.6793 174.884 45.601 175.623C45.9118 174.651 46.2421 173.728 46.5724 172.796C47.6507 170.289 48.7679 167.773 50.0114 165.354Z" fill="#263238"/>
<path d="M47.2621 158.37C47.2566 158.355 47.2467 158.342 47.2336 158.333C47.2206 158.324 47.2051 158.319 47.1893 158.319C47.1734 158.319 47.1579 158.324 47.1449 158.333C47.1319 158.342 47.1219 158.355 47.1164 158.37C47.2427 160.099 47.301 161.838 47.4759 163.567C47.4759 163.664 47.641 163.664 47.6313 163.567C47.573 161.838 47.3884 160.108 47.2621 158.37Z" fill="#263238"/>
<path d="M62.922 164.179C60.8819 165.005 58.8224 165.791 56.7824 166.637C56.7241 166.637 56.7824 166.753 56.7824 166.734C58.8516 165.957 60.8819 165.121 62.9414 164.315C63.0483 164.286 63.0094 164.15 62.922 164.179Z" fill="#263238"/>
<path d="M66.0306 150.151C64.0266 151.072 62.0801 152.113 60.2018 153.269C60.1812 153.281 60.1661 153.3 60.1597 153.323C60.1533 153.346 60.1562 153.37 60.1678 153.391C60.1794 153.411 60.1987 153.427 60.2215 153.433C60.2443 153.439 60.2686 153.436 60.2893 153.425C62.2322 152.317 64.1168 151.249 66.118 150.277C66.186 150.238 66.1083 150.122 66.0306 150.151Z" fill="#263238"/>
<path d="M65.5352 248.346H18.4097V298.017H65.5352V248.346Z" fill="#455A64"/>
<path d="M17.5841 265.92H15.1749V351H17.5841V265.92Z" fill="#263238"/>
<path d="M68.5273 265.92H66.1181V351H68.5273V265.92Z" fill="#263238"/>
<path d="M44.3379 265.92H41.9287V351H44.3379V265.92Z" fill="#263238"/>
<path d="M67.3226 294.83H16.3793V301.708H67.3226V294.83Z" fill="#263238"/>
<path d="M211.829 228.383L213.578 241.488L235.028 349.359H241.167L224.235 241.488L222.855 228.383H211.829Z" fill="#FFC727"/>
<path opacity="0.3" d="M211.829 228.383L213.578 241.488L235.028 349.359H241.167L224.235 241.488L222.855 228.383H211.829Z" fill="#1B1B1B"/>
<path d="M153.726 349.359H159.876L181.335 241.488L183.074 228.383H172.048L170.678 241.488L153.726 349.359Z" fill="#FFC727"/>
<path opacity="0.3" d="M153.726 349.359H159.876L181.335 241.488L183.074 228.383H172.048L170.678 241.488L153.726 349.359Z" fill="#1B1B1B"/>
<path d="M163.722 318.369H232.201V315.29H163.722V318.369Z" fill="#FFC727"/>
<path opacity="0.3" d="M163.722 318.369H232.201V315.29H163.722V318.369Z" fill="#1B1B1B"/>
<path opacity="0.3" d="M224.235 241.022H213.578L211.829 228.383H222.855L224.235 241.022Z" fill="#1B1B1B"/>
<path opacity="0.3" d="M170.678 241.022H181.335L183.074 228.383H172.048L170.678 241.022Z" fill="#1B1B1B"/>
<path d="M164.879 232.337H230.025V219.679H164.879V232.337Z" fill="#FFC727"/>
<path opacity="0.3" d="M164.879 232.337H230.025V219.679H164.879V232.337Z" fill="#1B1B1B"/>
<path d="M125.593 347.921C127.886 347.921 188.621 328.278 190.418 326.112C190.632 325.869 188.971 320.342 186.533 312.813V312.657C185.036 307.887 166.53 270.943 166.53 270.943L127.322 285.33L145.78 319.409C145.78 319.409 138.659 325.471 132.597 331.164C129.905 333.543 127.358 336.084 124.971 338.77C123.232 341.364 123.31 347.902 125.593 347.921Z" fill="#AD6359"/>
<path d="M190.467 326.112C188.679 328.278 127.924 347.95 125.632 347.911C123.339 347.873 123.281 341.354 124.981 338.799C127.365 336.11 129.908 333.567 132.597 331.183C134.919 329.007 137.386 326.763 139.572 324.849C132.121 333.174 128.08 345.055 185.804 310.918C186.09 311.494 186.337 312.088 186.542 312.696V312.842C188.971 320.342 190.642 325.869 190.467 326.112Z" fill="#FFC727"/>
<path d="M141.632 317.981L185.036 306.061C185.036 306.061 151.23 231.191 152.434 227.451C153.241 224.944 206.525 226.013 222.457 212.354C238.972 198.22 227.033 169.426 227.033 169.426L182.248 168.153C182.248 168.153 182.802 177.518 181.063 178.936C179.907 179.908 118.54 183.842 106.261 206.088C95.1765 226.275 141.632 317.981 141.632 317.981Z" fill="#37474F"/>
<path d="M152.434 227.441C152.23 228.072 153.027 230.754 154.513 234.775L121.406 273.576C110.535 247.142 100.442 216.706 106.29 206.088C118.55 183.842 179.907 179.859 181.092 178.936C182.831 177.518 182.278 168.153 182.278 168.153L210.702 168.959L162.129 225.896C156.378 226.392 152.648 226.79 152.434 227.441Z" fill="#263238"/>
<path d="M140.777 308.84C141.929 308.349 143.113 307.94 144.323 307.615L148.082 306.45C150.569 305.721 153.056 305.022 155.553 304.371C160.594 303.069 165.636 301.806 170.707 300.64C173.359 300.028 179.023 298.697 179.373 298.765C179.538 298.765 179.567 299.076 179.373 299.125C174.515 300.757 169.483 302.136 164.5 303.526C159.516 304.915 154.542 306.294 149.51 307.411C148.111 307.732 146.712 308.014 145.313 308.315C143.848 308.698 142.358 308.981 140.854 309.16C140.748 309.199 140.621 308.917 140.777 308.84Z" fill="#263238"/>
<path d="M224.468 177.897C224.371 176.401 224.235 174.905 224.099 173.408C224.099 173.234 223.817 173.234 223.827 173.408C224.283 179.48 224.798 185.697 223.496 191.701C222.348 197.25 219.421 202.274 215.161 206.011C206.078 214.093 193.605 216.25 181.976 217.95C175.322 218.921 168.629 219.63 161.925 220.136C158.632 220.378 155.349 220.563 152.055 220.699C148.762 220.835 145.518 220.777 142.263 220.884C141.233 220.884 140.32 221.369 140.437 222.545C140.587 223.267 140.832 223.966 141.165 224.624L142.137 227.023C143.367 230.002 144.611 232.988 145.867 235.98C148.458 242.12 151.084 248.246 153.746 254.36C159.031 266.497 164.535 278.54 170.261 290.489L172.388 294.928C172.388 295.025 172.573 294.928 172.534 294.85C167.094 282.759 161.728 270.635 156.437 258.479C153.814 252.446 151.181 246.414 148.587 240.371C147.292 237.347 145.997 234.322 144.702 231.298C144.054 229.782 143.406 228.267 142.759 226.751C142.438 225.984 142.127 225.226 141.787 224.468C141.447 223.711 140.544 222.321 141.253 221.758C141.729 221.379 142.7 221.535 143.264 221.525H145.858C147.509 221.525 149.151 221.476 150.802 221.437C154.134 221.34 157.476 221.195 160.799 220.981C167.327 220.573 173.836 219.893 180.315 219.038C191.856 217.454 204.417 215.657 213.801 208.148C218.003 204.89 221.174 200.488 222.933 195.47C224.866 189.807 224.837 183.745 224.468 177.897Z" fill="#263238"/>
<path d="M29.7681 288.798C31.3516 290.45 87.9876 319.934 90.7854 319.691C91.1157 319.691 93.8844 314.61 97.5857 307.615L97.6633 307.479C100.014 303.059 121.26 265.891 121.26 265.891L86.0447 247.016L64.2257 283.203C64.2257 283.203 54.9192 282.377 46.6035 282.047C43.0174 281.802 39.42 281.77 35.83 281.949C32.7894 282.513 28.1749 287.157 29.7681 288.798Z" fill="#AD6359"/>
<path d="M97.9937 306.858C97.8479 307.101 97.7314 307.314 97.644 307.479L97.5662 307.625C93.8844 314.62 91.1157 319.681 90.766 319.691C87.9682 319.934 31.3322 290.459 29.7585 288.789C28.1847 287.118 32.7602 282.503 35.7815 281.93C39.3742 281.735 42.9756 281.764 46.5647 282.018C50.1105 282.163 53.8215 282.387 56.9107 282.61C45.5252 282.571 31.2059 287.477 97.9937 306.858Z" fill="#FFC727"/>
<path d="M64.5367 277.238L107.019 299.717C107.019 299.717 142.146 232.289 145.935 227.975C150.977 222.234 214.685 231.987 230.2 213.403C246.238 194.198 233.454 169.581 233.454 169.581L184.803 168.425C184.803 168.425 184.541 173.817 187.154 181.773C187.154 181.773 131.616 177.168 115.519 192.109C103.162 203.592 64.5367 277.238 64.5367 277.238Z" fill="#37474F"/>
<path d="M195.907 186.912C193.456 185.136 190.91 183.495 188.281 181.996C186.426 180.973 184.473 180.137 182.452 179.5C181.044 179.121 180.422 179.004 181.743 179.665L185.279 181.442L184.531 181.394L181.724 181.2C179.849 181.112 177.974 181.083 176.109 181.025C172.31 180.918 168.541 181.19 164.752 181.287C164.655 181.287 164.655 181.442 164.752 181.442C168.541 181.442 172.33 181.705 176.109 181.773C177.983 181.773 179.849 181.909 181.724 181.986L184.463 182.093C185.236 182.152 186.011 182.171 186.785 182.152L187.815 182.667C190.535 184.036 193.245 185.445 195.868 186.999C195.907 187.028 195.985 186.96 195.907 186.912Z" fill="#263238"/>
<path d="M183.667 166.628C184.114 168.94 184.483 171.252 185.007 173.544C185.24 174.594 185.483 175.662 185.814 176.692C186.095 177.557 186.542 178.547 187.504 178.8C188.621 179.082 189 178.13 188.961 177.197C188.882 176.142 188.749 175.091 188.563 174.05C188.398 172.855 188.223 171.66 188.077 170.465C187.999 169.872 187.922 169.27 187.854 168.668C187.854 168.522 187.795 167.376 187.737 167.045C187.737 167.045 187.737 167.104 187.669 167.045C187.669 167.045 187.601 167.045 187.601 166.987C187.592 166.955 187.593 166.92 187.606 166.888C187.618 166.857 187.64 166.83 187.669 166.812C187.685 166.803 187.704 166.798 187.723 166.798C187.741 166.798 187.76 166.803 187.776 166.812C187.98 166.948 187.98 167.24 188.038 167.463C188.184 168.046 188.339 168.639 188.475 169.221C188.728 170.329 188.971 171.436 189.185 172.544C189.398 173.651 189.612 174.768 189.816 175.876C190.055 176.704 190.082 177.58 189.894 178.421C189.767 178.817 189.516 179.162 189.179 179.405C188.841 179.648 188.435 179.777 188.019 179.771C188.058 179.847 188.094 179.925 188.126 180.005C188.213 180.228 188.281 180.471 188.349 180.704C188.417 180.937 188.485 181.19 188.543 181.433C188.553 181.552 188.553 181.673 188.543 181.792C188.543 181.918 188.543 182.045 188.543 182.181C188.544 182.223 188.531 182.265 188.506 182.3C188.481 182.334 188.445 182.359 188.405 182.372C188.364 182.384 188.32 182.382 188.28 182.367C188.24 182.352 188.206 182.324 188.184 182.288C188.127 182.173 188.062 182.063 187.99 181.957C187.936 181.831 187.89 181.701 187.854 181.569C187.786 181.336 187.737 181.102 187.689 180.869C187.64 180.636 187.591 180.403 187.562 180.16C187.552 180.021 187.552 179.881 187.562 179.742C187.09 179.672 186.647 179.474 186.28 179.169C185.668 178.584 185.237 177.835 185.036 177.013C184.745 176.041 184.541 175.07 184.327 174.098C183.766 171.663 183.422 169.182 183.298 166.686C183.308 166.648 183.329 166.613 183.358 166.586C183.387 166.56 183.424 166.542 183.463 166.536C183.502 166.53 183.542 166.535 183.579 166.552C183.615 166.568 183.645 166.594 183.667 166.628Z" fill="#263238"/>
<path d="M206.982 173.681C207.127 174.817 207.186 175.963 207.39 177.1C207.594 178.237 207.817 179.325 208.109 180.403C208.378 181.458 208.789 182.471 209.333 183.415C209.911 184.301 210.611 185.103 211.412 185.795C212.947 187.161 214.697 188.267 216.59 189.068C217.537 189.478 218.511 189.825 219.504 190.108C220.019 190.254 220.543 190.38 221.078 190.477C221.517 190.51 221.944 190.636 222.331 190.846C222.367 190.872 222.396 190.908 222.414 190.949C222.432 190.989 222.439 191.034 222.434 191.079C222.429 191.123 222.413 191.166 222.386 191.202C222.359 191.238 222.323 191.266 222.282 191.283C221.504 191.468 220.69 191.448 219.922 191.225C219.077 191.09 218.242 190.895 217.425 190.642C215.771 190.103 214.202 189.335 212.762 188.359C211.307 187.42 210.023 186.241 208.964 184.872C207.986 183.434 207.348 181.793 207.098 180.073C206.694 177.967 206.58 175.817 206.758 173.681C206.766 173.656 206.78 173.635 206.8 173.62C206.821 173.605 206.845 173.597 206.87 173.597C206.895 173.597 206.92 173.605 206.94 173.62C206.96 173.635 206.975 173.656 206.982 173.681Z" fill="#263238"/>
<path d="M73.4449 269.602C74.6183 270.039 75.7608 270.555 76.8644 271.147C78.0496 271.72 79.2251 272.293 80.4006 272.886C82.7029 274.052 84.9956 275.246 87.2591 276.5C91.8152 279.016 96.3519 281.551 100.859 284.194C103.201 285.563 108.233 288.487 108.447 288.779C108.544 288.915 108.369 289.138 108.223 289.07C103.541 286.885 98.9651 284.466 94.3895 282.056C89.814 279.647 85.2481 277.199 80.7891 274.605C79.5554 273.877 78.3508 273.119 77.1268 272.381C75.7955 271.66 74.5195 270.842 73.3089 269.933C73.1826 269.865 73.2797 269.602 73.4449 269.602Z" fill="#263238"/>
<path d="M233.153 180.918C233.153 180.875 233.136 180.835 233.106 180.804C233.076 180.774 233.035 180.758 232.992 180.758C232.95 180.758 232.909 180.774 232.879 180.804C232.849 180.835 232.832 180.875 232.832 180.918C232.677 191.478 230.773 203.261 222.467 210.635C213.364 218.737 200.473 219.436 188.903 219.067C182.268 218.853 175.633 218.533 168.988 218.591C162.343 218.649 155.562 218.814 148.917 219.514C146.33 219.692 143.891 220.787 142.04 222.603C140.249 224.548 138.685 226.689 137.377 228.986C133.912 234.445 130.56 239.966 127.322 245.549C120.846 256.649 114.819 267.999 109.243 279.599C108.553 281.036 107.873 282.513 107.193 283.922C107.145 284.019 107.29 284.106 107.329 284.009C112.983 272.351 119.074 260.956 125.505 249.746C128.744 244.144 132.069 238.597 135.482 233.105C137.095 230.53 138.659 227.888 140.446 225.42C142.02 223.244 143.983 221.214 146.644 220.476C148.277 220.105 149.944 219.903 151.618 219.873C153.318 219.757 155.018 219.65 156.718 219.562C160.031 219.397 163.353 219.3 166.676 219.252C173.379 219.164 180.062 219.407 186.756 219.679C198.413 220.155 211.042 220.058 220.903 212.879C225.1 209.744 228.313 205.473 230.161 200.57C231.971 195.539 232.955 190.247 233.075 184.901C233.133 183.58 233.153 182.249 233.153 180.918Z" fill="#263238"/>
<path d="M162.46 225.566C160.089 225.566 157.719 225.566 155.349 225.615C153.372 225.539 151.392 225.67 149.442 226.003C147.635 226.411 146.207 226.596 144.692 228.568C142.749 231.035 132.364 250.095 127.973 258.537C126.762 260.875 125.561 263.223 124.369 265.58C123.155 268.019 122.067 270.525 120.843 272.964C120.843 273.051 120.93 273.129 120.979 273.041C122.057 271.001 123.242 269.019 124.35 266.999C125.457 264.978 126.545 262.938 127.623 260.908C129.799 256.789 131.979 252.673 134.161 248.56C136.337 244.49 138.951 240.527 141.146 236.476C143.001 233.066 145.518 228.412 147.227 227.732C149.603 226.86 152.087 226.317 154.61 226.12C157.224 225.994 159.847 225.896 162.47 225.731C162.483 225.722 162.494 225.709 162.501 225.694C162.508 225.679 162.512 225.662 162.511 225.646C162.51 225.629 162.505 225.613 162.496 225.599C162.487 225.585 162.474 225.574 162.46 225.566Z" fill="#263238"/>
<path d="M197.461 122.145C193.255 140.68 184.492 162.946 180.743 166.531C176.002 171.106 146.537 177.217 144.964 177.343C141.078 177.741 135.579 152.92 137.862 152.882C144.225 152.804 164.587 149.316 165.957 147.908C167.327 146.499 177.012 134.21 186.921 120.415C193.76 110.876 200.075 110.643 197.461 122.145Z" fill="#AD6359"/>
<path d="M147.169 176.964C143.982 178.604 140.684 180.019 137.299 181.2C134.608 181.986 126.778 184.056 125.641 181.2C124.855 179.257 129.304 177.479 132.442 176.167C134.093 175.478 136.114 173.748 135.628 172.69C134.773 170.844 130.538 172.69 127.749 174.341C122.368 177.489 115.188 183.142 111.886 180.413C110.642 179.383 112.09 177.498 114.198 175.643C110.768 177.809 107.106 179.529 105.678 178.489C105.311 178.207 105.065 177.797 104.99 177.341C104.914 176.885 105.014 176.417 105.27 176.031C104.838 176.235 104.354 176.305 103.882 176.233C103.409 176.16 102.969 175.948 102.618 175.623C101.501 174.458 102.045 172.709 103.259 170.97C103.057 170.939 102.864 170.863 102.696 170.747C102.528 170.631 102.388 170.478 102.288 170.3C99.9075 166.705 111.72 156.33 115.801 155.359C123.913 153.572 132.21 152.769 140.514 152.969C145.177 156.69 147.179 176.954 147.169 176.964Z" fill="#AD6359"/>
<path d="M129.45 165.919C126.586 166.38 123.852 167.439 121.425 169.027C118.375 171.048 116.364 173.418 113.809 175.827C113.741 175.886 113.809 175.993 113.906 175.934C115.121 174.798 120.162 170.543 121.464 169.581C123.822 167.794 126.557 166.568 129.459 165.996C129.459 165.996 129.479 165.919 129.45 165.919Z" fill="#263238"/>
<path d="M127.186 160.799C123.975 161.568 120.85 162.662 117.86 164.063C114.654 165.705 112.138 168.376 109.68 170.951C108.191 172.492 106.743 174.072 105.338 175.691C105.28 175.759 105.338 175.866 105.435 175.798C107.928 173.136 110.519 170.546 113.207 168.027C115.658 165.688 118.547 163.856 121.707 162.635C123.524 161.945 125.379 161.392 127.235 160.838C127.235 160.867 127.225 160.799 127.186 160.799Z" fill="#263238"/>
<path d="M123.805 156.359C120.726 157.001 118.054 157.545 115.334 159.206C112.282 161.239 109.498 163.647 107.048 166.375C105.707 167.819 104.412 169.296 103.162 170.805C103.113 170.873 103.22 170.96 103.269 170.902C106.185 167.603 109.31 164.495 112.624 161.596C114.182 160.192 115.948 159.038 117.86 158.176C119.795 157.406 121.794 156.808 123.834 156.389C123.834 156.389 123.815 156.359 123.805 156.359Z" fill="#263238"/>
<path d="M140.709 150.016L150.423 180.656C150.423 180.656 176.653 173.117 181.384 167.939C186.115 162.761 194.984 136.075 197.51 123.145C200.036 110.215 193.546 110.516 187.552 118.715C181.558 126.914 166.666 146.664 165.831 147.092C164.995 147.519 140.709 150.016 140.709 150.016Z" fill="#FFC727"/>
<path d="M152.745 148.976L152.104 148.811L154.251 148.568C155.024 148.802 155.835 148.887 156.641 148.821C157.338 148.735 158.005 148.481 158.584 148.083L159.914 147.927C159.382 148.485 158.74 148.928 158.03 149.229C156.301 149.967 154.523 149.443 152.745 148.976ZM170.435 163.354C168.948 162.685 167.333 162.352 165.703 162.377C164.073 162.402 162.468 162.786 161.002 163.5C159.591 164.187 158.353 165.183 157.379 166.414C156.411 167.727 155.771 169.252 155.514 170.863C155.183 172.641 154.911 174.613 153.328 175.721C152.122 176.541 150.655 176.887 149.209 176.692L149.452 177.45C150.469 177.597 151.508 177.472 152.461 177.088C153.415 176.704 154.25 176.075 154.882 175.264C155.941 173.807 156.048 171.961 156.427 170.261C156.8 168.592 157.654 167.068 158.885 165.88C160.145 164.68 161.693 163.827 163.379 163.401C165.066 162.976 166.834 162.993 168.512 163.451C170.263 163.965 171.889 164.834 173.29 166.004C174.69 167.174 175.835 168.62 176.653 170.251C176.769 170.475 176.876 170.698 176.983 170.922L177.663 170.562C176.208 167.362 173.639 164.801 170.435 163.354ZM178.741 164.238C178.413 165.922 178.762 167.667 179.713 169.095L179.81 169.251C180.033 169.095 180.237 168.95 180.432 168.794C179.948 168.04 179.618 167.198 179.46 166.317C179.091 164.228 180.218 162.382 181.597 160.906C183.444 159.092 185.436 157.432 187.552 155.942L188.106 154.523C185.849 156.178 183.677 157.945 181.597 159.818C180.243 160.989 179.252 162.522 178.741 164.238ZM192.954 135.444C190.739 133.608 187.407 134.162 185.114 135.551C182.103 137.367 180.684 140.836 179.285 143.866C177.76 147.072 175.701 150.667 172.029 151.687C168.745 152.6 165.947 150.288 165.073 147.267L164.296 147.383C164.554 148.471 165.065 149.484 165.787 150.338C166.51 151.192 167.423 151.863 168.454 152.299C171.698 153.552 175.011 151.522 177.061 149.093C179.431 146.295 180.412 142.662 182.345 139.592C184.045 136.901 186.892 134.647 190.263 135.104C191.044 135.207 191.783 135.52 192.399 136.012C193.015 136.503 193.486 137.153 193.76 137.892C193.877 137.523 193.983 137.154 194.09 136.785C193.803 136.267 193.417 135.812 192.954 135.444ZM197.267 124.156C195.217 124.719 193.158 125.263 191.108 125.885C187.047 127.128 183.016 128.527 179.081 130.149C178.77 130.548 178.469 130.956 178.158 131.364L179.596 130.771C183.667 129.12 187.815 127.682 192.021 126.429C193.721 125.914 195.45 125.457 197.16 124.991C197.228 124.7 197.286 124.418 197.345 124.136L197.267 124.156Z" fill="white"/>
<path d="M152.939 167.026C151.754 163.422 150.55 159.818 149.501 156.155C148.908 154.076 148.296 152.007 147.723 149.919C147.723 149.841 147.839 149.792 147.868 149.87C149.19 153.455 150.521 157.039 151.677 160.682C152.833 164.325 154.028 167.91 155.145 171.553C155.776 173.622 156.34 175.691 156.845 177.799C156.845 177.799 156.786 177.867 156.777 177.799C155.32 174.292 154.125 170.669 152.939 167.026Z" fill="#263238"/>
<path opacity="0.1" d="M197.539 123.155C194.974 136.075 186.192 162.761 181.413 167.939C176.633 173.117 150.462 180.656 150.462 180.656L147.033 169.892C161.819 152.124 184.016 126.264 195.47 112.964C197.733 113.256 198.88 116.384 197.539 123.155Z" fill="#1B1B1B"/>
<path d="M178.256 178.752L238.807 178.003C238.807 178.003 222.234 127.653 209.391 114.752C203.562 108.923 198.054 109.982 193.488 114.014C192.351 114.985 178.586 134.298 177.566 140.738C176.653 146.441 181.287 152.153 181.287 152.153L178.256 178.752Z" fill="#FFC727"/>
<path d="M180.529 178.722H179.722C179.344 177.595 179.004 176.459 178.644 175.322L178.848 173.515C179.45 175.245 179.936 177.003 180.529 178.722Z" fill="white"/>
<path d="M231.385 177.722C232.042 177.774 232.693 177.891 233.327 178.071L226.741 178.149C228.259 177.779 229.824 177.635 231.385 177.722Z" fill="white"/>
<path d="M192.011 126.429C188.929 127.342 185.888 128.362 182.889 129.489L183.54 128.411C186.037 127.497 188.563 126.662 191.098 125.885C193.148 125.263 195.207 124.719 197.257 124.156C199.231 123.677 201.129 122.932 202.901 121.941C205.816 120.173 208.186 116.734 206.787 113.198C206.654 112.862 206.495 112.537 206.311 112.226C206.748 112.493 207.17 112.785 207.574 113.1C207.73 113.515 207.84 113.945 207.904 114.383C208.41 117.754 206.175 120.775 203.436 122.475C201.759 123.45 199.954 124.186 198.073 124.661C196.082 125.302 194.032 125.826 192.011 126.429Z" fill="white"/>
<path d="M182.307 139.592C180.81 141.972 179.878 144.692 178.421 147.092C178.294 146.771 178.178 146.441 178.071 146.12C178.489 145.372 178.877 144.614 179.227 143.876C180.665 140.845 182.083 137.377 185.056 135.56C187.348 134.171 190.681 133.618 192.895 135.454C194.128 136.662 194.878 138.279 195.003 140C195.308 141.867 195.291 143.773 194.955 145.634C194.193 149.104 192.241 152.197 189.437 154.378C186.843 156.602 183.88 158.429 181.529 160.935C180.924 161.561 180.408 162.267 179.994 163.033L180.189 161.304C180.599 160.786 181.044 160.296 181.52 159.837C183.939 157.447 186.863 155.66 189.388 153.396C190.684 152.28 191.798 150.969 192.691 149.511C193.704 147.767 194.293 145.811 194.411 143.798C194.634 140.554 194.168 135.638 190.166 135.104C186.853 134.647 184.007 136.901 182.307 139.592Z" fill="white"/>
<path d="M202.319 128.459C199.929 131.325 200.376 135.405 202.26 138.397C204.145 141.389 206.962 143.157 209.838 144.848C212.53 146.241 215.061 147.925 217.386 149.87C218.442 150.839 219.323 151.982 219.989 153.251C220.708 154.689 221.252 156.437 220.465 157.962C220.103 158.565 219.609 159.078 219.02 159.464C218.431 159.849 217.763 160.096 217.065 160.187C215.385 160.376 213.687 160.037 212.208 159.215C210.454 158.225 208.648 157.33 206.797 156.534C204.903 155.765 202.82 155.586 200.823 156.019C197.908 156.787 195.256 160.401 197.121 163.266C198.986 166.132 203.514 166.404 204.388 170.067C205.233 173.554 201.153 175.118 198.481 175.653C195.031 176.349 191.459 176.152 188.106 175.079C184.871 174.03 181.578 172.068 179.732 169.124C179.616 168.94 179.509 168.745 179.412 168.551L179.586 166.977C180.135 168.572 181.117 169.982 182.423 171.048C185.255 173.442 188.763 174.892 192.458 175.196C194.27 175.365 196.097 175.29 197.889 174.973C199.595 174.784 201.22 174.147 202.6 173.127C204.116 171.796 203.922 169.911 202.6 168.493C201.279 167.075 199.686 166.55 198.258 165.491C197.609 165.094 197.051 164.564 196.621 163.936C196.191 163.308 195.898 162.597 195.761 161.848C195.623 160.437 196.022 159.025 196.878 157.894C198.996 154.98 202.649 154.543 205.932 155.466C207.784 156.061 209.563 156.863 211.237 157.855C212.859 158.749 214.685 159.711 216.599 159.497C218.183 159.332 219.892 158.331 220.048 156.583C220.203 154.834 219.135 153.115 218.105 151.852C216.162 149.452 213.442 147.879 210.829 146.363C208.215 144.848 205.243 143.186 203.057 140.826C200.764 138.31 199.297 134.929 199.997 131.49C200.247 129.977 200.987 128.587 202.103 127.534C203.219 126.481 204.65 125.823 206.175 125.661C207.619 125.548 209.056 125.955 210.226 126.808C211.464 127.855 212.264 129.328 212.47 130.936C212.801 132.685 212.81 134.531 213.51 136.202C214.189 137.797 215.333 139.151 216.793 140.087C217.878 140.836 219.153 141.261 220.47 141.314C221.788 141.368 223.093 141.047 224.235 140.389L224.555 141.127C223.665 141.657 222.671 141.988 221.641 142.098C220.072 142.187 218.507 141.856 217.107 141.141C215.707 140.426 214.523 139.351 213.675 138.028C212.781 136.605 212.235 134.99 212.082 133.316C211.839 131.587 211.713 129.654 210.625 128.207C208.594 125.467 204.33 126.03 202.319 128.459Z" fill="white"/>
<path d="M226.411 153.668C225.995 152.5 225.826 151.258 225.913 150.021C226 148.784 226.341 147.579 226.916 146.48C227.062 146.81 227.198 147.131 227.324 147.451L227.275 147.568C226.178 150.317 226.401 154.368 229.218 156.01C229.771 156.346 230.391 156.556 231.035 156.622L231.326 157.37C230.234 157.304 229.185 156.918 228.311 156.26C227.436 155.602 226.775 154.7 226.411 153.668Z" fill="white"/>
<path d="M235.154 167.424L229.442 167.23C225.507 167.094 221.243 166.608 217.473 168.027C214.481 169.144 211.994 172.029 212.257 175.371C212.348 176.492 212.866 177.535 213.704 178.285H212.645C212.011 177.408 211.621 176.379 211.513 175.303C211.406 174.226 211.585 173.14 212.033 172.155C213.296 169.027 216.152 167.298 219.368 166.647C223.254 165.87 227.479 166.346 231.453 166.482L234.872 166.599C234.93 166.9 235.028 167.162 235.154 167.424Z" fill="white"/>
<path d="M198.501 151.735C196 151.614 193.494 151.672 191.001 151.91C189.767 152.046 188.543 152.24 187.319 152.464C186.707 152.571 186.105 152.658 185.483 152.746C184.842 152.858 184.189 152.887 183.54 152.833C183.527 152.833 183.515 152.838 183.506 152.847C183.497 152.856 183.492 152.869 183.492 152.882C183.492 152.894 183.497 152.907 183.506 152.916C183.515 152.925 183.527 152.93 183.54 152.93C184.144 153.041 184.754 153.112 185.367 153.144C185.96 153.161 186.555 153.135 187.144 153.066C188.398 152.94 189.641 152.755 190.894 152.61C193.43 152.328 195.956 152.046 198.501 151.949C198.529 151.949 198.556 151.938 198.576 151.918C198.596 151.898 198.608 151.87 198.608 151.842C198.608 151.814 198.596 151.787 198.576 151.767C198.556 151.747 198.529 151.735 198.501 151.735Z" fill="#263238"/>
<path d="M204.291 154.786C202.288 154.284 200.257 153.898 198.209 153.63C197.189 153.494 196.16 153.426 195.13 153.377H193.653C193.109 153.377 192.565 153.435 192.021 153.426C191.963 153.426 191.953 153.503 192.021 153.513C192.526 153.513 192.993 153.649 193.546 153.717L195.081 153.892C196.053 154.008 197.121 154.135 198.151 154.242C200.201 154.465 202.241 154.708 204.281 154.99C204.378 154.97 204.388 154.815 204.291 154.786Z" fill="#263238"/>
<path d="M211.305 115.694C223.088 124.282 254.486 159.41 248.346 168.153C242.207 176.896 198.501 175.157 185.668 171.825C181.86 170.854 190.943 146.48 194.945 145.178C198.287 144.1 217.289 148.733 217.629 147.626C217.969 146.519 213.588 138.523 206.457 124.146C198.238 107.514 206.098 111.896 211.305 115.694Z" fill="#AD6359"/>
<path d="M176.235 141.447C167.492 141.894 165.335 143.39 157.777 139.825C152.813 137.513 149.199 139.689 152.658 144.216C158.302 151.628 169.678 153.406 173.797 152.891L176.235 141.447Z" fill="#AD6359"/>
<path d="M200.366 145.256C200.366 145.256 189.806 141.797 180.461 141.37C174.001 141.069 159.876 141.972 149.296 158.127C146.79 161.955 145.925 169.192 152.298 164.422C156.825 161.032 158.671 157.525 161.663 156.029C161.663 156.029 161.663 165.365 165.549 167.687C168.978 169.754 172.549 171.575 176.235 173.136C176.676 172.516 177.076 171.867 177.43 171.194C177.43 171.194 181.316 173.059 187.601 171.194L200.366 145.256Z" fill="#AD6359"/>
<path d="M174.253 142.069C171.591 144.177 166.044 148.743 162.8 154.047C159.196 159.954 153.843 172.282 158.224 174.905C161.44 176.847 163.898 172.291 163.898 172.291C163.898 172.291 162.751 177.858 166.035 178.956C169.027 179.927 170.717 176.333 170.717 176.333C170.717 176.333 170.61 179.83 173.631 180.218C177.323 180.704 176.944 173.302 181.112 170.572C182.093 169.979 174.253 142.069 174.253 142.069Z" fill="#AD6359"/>
<path d="M169.668 156.816C166.212 161.222 164.18 166.576 163.839 172.165C163.839 172.311 163.946 172.388 163.975 172.252C165.265 166.906 167.2 161.735 169.736 156.855L169.668 156.816Z" fill="#263238"/>
<path d="M175.516 160.634C173.855 162.888 170.513 169.95 170.601 176.294C170.601 176.439 170.707 176.507 170.737 176.381C171.754 170.974 173.383 165.701 175.594 160.663L175.516 160.634Z" fill="#263238"/>
<path d="M161.644 155.942C159.04 157.292 157.496 159.002 155.475 161.071C154.488 162.104 153.44 163.077 152.337 163.985C151.366 164.811 149.85 166.055 148.451 165.336C148.109 165.096 147.837 164.768 147.666 164.387C147.495 164.005 147.431 163.584 147.48 163.169C147.599 161.982 147.907 160.821 148.393 159.73C148.393 159.682 148.335 159.653 148.315 159.73C147.837 160.732 147.462 161.78 147.198 162.858C147.028 163.593 147.085 164.362 147.363 165.064C148.063 166.511 149.899 166.365 151.094 165.705C151.789 165.279 152.44 164.784 153.037 164.228C153.629 163.713 154.202 163.169 154.756 162.616C155.902 161.469 156.981 160.265 158.108 159.109C159.215 158.014 160.39 156.988 161.624 156.039C161.751 156.029 161.702 155.942 161.644 155.942Z" fill="#263238"/>
<path d="M157.729 166.841C158.819 163.157 160.15 159.549 161.712 156.039C161.712 156.039 161.712 155.951 161.644 156.039C159.885 158.497 157.466 164.597 156.99 166.492C156.379 168.487 156.178 170.585 156.398 172.66C156.952 175.575 158.972 175.73 159.71 175.73C160.584 175.723 161.428 175.414 162.1 174.856C162.873 174.146 163.495 173.287 163.927 172.33C163.927 172.33 163.927 172.243 163.859 172.33C163.072 173.661 161.624 175.109 159.973 175.245C159.268 175.301 158.57 175.078 158.03 174.623C157.466 174.009 157.141 173.212 157.117 172.379C156.995 170.511 157.202 168.637 157.729 166.841Z" fill="#263238"/>
<path d="M200.366 145.256L192.41 176.022C192.41 176.022 247.035 177.693 249.804 167.706C252.572 157.719 225.352 125.933 214.19 117.336C201.25 107.369 200.687 111.701 205.039 121.941C209.643 132.627 217.483 147.888 217.483 147.888L200.366 145.256Z" fill="#FFC727"/>
<path d="M204.893 121.484C204.776 121.222 204.679 120.969 204.572 120.726C206.642 118.783 207.914 116.063 206.816 113.256C206.68 112.901 206.51 112.56 206.311 112.236C206.661 112.381 207.04 112.566 207.448 112.78C207.684 113.309 207.847 113.868 207.934 114.441C208.065 115.776 207.855 117.123 207.323 118.355C206.791 119.587 205.955 120.664 204.893 121.484ZM219.989 153.251C219.323 151.982 218.442 150.839 217.386 149.87C216.351 148.925 215.229 148.079 214.034 147.344L212.092 147.043C214.389 148.258 216.446 149.881 218.163 151.832C219.135 153.095 220.232 154.893 220.106 156.563C219.98 158.234 218.241 159.303 216.657 159.478C214.714 159.692 212.917 158.73 211.295 157.836C209.622 156.844 207.843 156.042 205.991 155.446C202.863 154.562 199.395 154.922 197.248 157.486L195.965 162.46C196.383 163.705 197.217 164.769 198.326 165.472C199.764 166.443 201.454 167.152 202.668 168.473C203.883 169.795 204.164 171.776 202.668 173.107C201.288 174.128 199.663 174.765 197.957 174.953C196.216 175.264 194.443 175.342 192.682 175.186L192.487 175.944C194.512 176.137 196.555 176.032 198.549 175.633C201.221 175.099 205.35 173.535 204.456 170.047C203.582 166.404 199.025 166.093 197.189 163.247C195.353 160.401 198.005 156.767 200.891 156C202.888 155.566 204.971 155.746 206.865 156.515C208.716 157.311 210.522 158.206 212.276 159.196C213.755 160.017 215.453 160.357 217.133 160.168C217.831 160.077 218.499 159.829 219.088 159.444C219.677 159.059 220.171 158.546 220.533 157.943C221.252 156.437 220.708 154.689 219.989 153.251ZM213.714 138.009C214.562 139.332 215.746 140.406 217.146 141.122C218.546 141.837 220.11 142.167 221.68 142.079C223.165 141.892 224.567 141.285 225.718 140.328C226.87 139.371 227.724 138.104 228.179 136.678C229.986 130.985 224.07 127.711 220.184 125.088C218.241 123.777 216.123 122.174 215.404 119.881C215.227 119.309 215.142 118.712 215.152 118.113L214.452 117.54C214.289 118.916 214.579 120.307 215.278 121.503C217.813 125.885 223.564 127.002 226.469 131.053C227.29 132.144 227.727 133.476 227.713 134.842C227.627 136.455 226.961 137.984 225.838 139.145C224.701 140.348 223.17 141.101 221.524 141.269C219.878 141.437 218.227 141.007 216.871 140.058C215.411 139.122 214.267 137.768 213.588 136.173C212.888 134.502 212.878 132.656 212.548 130.907C212.342 129.299 211.542 127.826 210.304 126.779C209.261 126.009 207.996 125.599 206.7 125.613L207.059 126.409C207.757 126.417 208.444 126.583 209.068 126.894C209.692 127.205 210.238 127.654 210.663 128.207C211.751 129.654 211.878 131.587 212.121 133.316C212.277 134.984 212.822 136.591 213.714 138.009ZM226.411 153.668C226.645 154.358 227.014 154.994 227.498 155.539C227.982 156.083 228.57 156.525 229.227 156.838C229.885 157.152 230.599 157.33 231.326 157.363C232.054 157.396 232.781 157.283 233.464 157.03C236.922 155.767 239.098 152.347 240.623 149.2C240.866 148.695 241.099 148.228 241.303 147.675L240.788 146.927C240.103 148.658 239.247 150.318 238.233 151.881C236.436 154.63 232.696 158.098 229.209 156.01C226.401 154.319 226.178 150.317 227.266 147.568C228.052 145.806 229.093 144.17 230.355 142.71C231.56 141.205 232.793 139.728 233.92 138.164L234.008 138.047L233.493 137.426C232.774 138.397 232.036 139.369 231.258 140.34C230.064 141.746 228.942 143.211 227.897 144.731C226.217 147.383 225.245 150.589 226.411 153.668ZM249.794 164.423C248.22 165.622 246.356 166.383 244.392 166.628C242.328 166.854 240.247 166.897 238.175 166.754L231.375 166.521C227.402 166.385 223.224 165.909 219.29 166.686C216.074 167.327 213.218 169.066 211.955 172.194C211.451 173.39 211.302 174.705 211.528 175.983H212.266C212.228 175.789 212.198 175.594 212.179 175.4C211.917 172.058 214.404 169.173 217.396 168.056C221.165 166.637 225.43 167.084 229.364 167.259L236.164 167.492C238.272 167.56 240.4 167.696 242.508 167.599C244.429 167.572 246.327 167.17 248.094 166.414C248.74 166.118 249.352 165.753 249.92 165.326C249.91 165.023 249.881 164.722 249.833 164.423H249.794Z" fill="white"/>
<path d="M200.492 145.168C200.774 145.168 216.036 147.16 216.512 147.286C216.414 147.082 212.373 139.961 211.781 138.922L211.606 138.601C211.246 138.154 210.887 137.717 210.547 137.251L209.255 135.473L210.625 137.183L211.227 137.999L210.042 135.774C209.41 134.579 208.818 133.375 208.235 132.16H208.293C209.478 134.239 210.731 136.27 211.926 138.349C213.121 140.427 217.638 148.063 217.619 148.015C217.6 147.966 200.774 145.489 200.444 145.421C200.41 145.414 200.381 145.395 200.361 145.367C200.342 145.338 200.335 145.304 200.342 145.27C200.348 145.237 200.368 145.207 200.396 145.188C200.424 145.169 200.459 145.162 200.492 145.168Z" fill="#263238"/>
<path d="M203.096 163.713C203.96 160.284 204.806 156.855 205.796 153.455C206.37 151.512 206.923 149.569 207.506 147.675C207.506 147.597 207.652 147.626 207.642 147.675C206.904 151.143 206.156 154.63 205.262 158.069C204.368 161.508 203.513 164.928 202.581 168.337C202.047 170.28 201.464 172.223 200.813 174.098C200.813 174.098 200.735 174.098 200.745 174.098C201.328 170.62 202.192 167.172 203.096 163.713Z" fill="#263238"/>
<path d="M191.817 176.585C192.177 175.614 192.594 174.244 192.993 173.292C193.1 173.039 193.274 173.049 193.206 173.292C192.954 174.157 192.798 175.109 192.556 175.983H194.848H197.5C199.229 175.983 200.959 175.983 202.688 175.983C206.185 175.983 209.692 175.857 213.189 175.682C220.216 175.394 227.223 174.746 234.183 173.739C236.125 173.438 238.068 173.098 240.011 172.699C241.954 172.301 244.072 171.844 245.655 171.33C245.655 171.33 245.733 171.398 245.655 171.417C244.081 172.077 242.457 172.613 240.798 173.02C239.069 173.438 237.32 173.817 235.572 174.127C232.084 174.759 228.558 175.206 225.031 175.555C218.037 176.242 211.023 176.637 203.99 176.741C202.047 176.741 200.075 176.741 198.073 176.741C197.102 176.741 196.131 176.741 195.101 176.692C194.005 176.751 192.907 176.715 191.817 176.585Z" fill="#263238"/>
<path d="M190.069 181.666H125.632V184.551H190.069V181.666Z" fill="#C7C7C7"/>
<path d="M125.632 181.666V184.551H169.445L167.23 181.666H125.632Z" fill="#A6A6A6"/>
<path d="M164.451 184.551H101.646L96.4199 141.904H159.225L164.451 184.551Z" fill="#C7C7C7"/>
<path d="M134.258 163.228C134.269 163.727 134.179 164.223 133.994 164.687C133.81 165.151 133.534 165.574 133.184 165.93C132.833 166.285 132.415 166.568 131.954 166.759C131.493 166.951 130.998 167.048 130.499 167.045C129.48 167.046 128.502 166.646 127.775 165.931C127.048 165.217 126.631 164.246 126.613 163.228C126.602 162.728 126.692 162.231 126.876 161.766C127.061 161.302 127.336 160.879 127.687 160.522C128.037 160.166 128.455 159.883 128.916 159.69C129.377 159.497 129.872 159.399 130.372 159.4C131.393 159.4 132.373 159.801 133.1 160.517C133.827 161.234 134.243 162.207 134.258 163.228Z" fill="white"/>
<path d="M204.232 113.333C204.028 114.402 199.249 121.513 194.382 121.494C192.798 121.494 192.439 112.828 192.439 112.828L192.274 112.197L189.894 103.337L200.182 96.1581L201.668 95.1866C201.668 95.1866 202.154 97.6541 202.736 100.734L202.824 101.171C202.824 101.346 202.892 101.511 202.921 101.666C203.018 102.133 203.106 102.638 203.193 103.065C203.28 103.493 203.319 103.774 203.368 104.143C203.416 104.513 203.484 104.891 203.552 105.27C203.96 107.94 204.187 110.634 204.232 113.333Z" fill="#AD6359"/>
<path d="M202.697 100.743C201.9 103.296 200.558 105.645 198.763 107.628C196.968 109.61 194.764 111.179 192.303 112.226L189.923 103.366L200.181 96.1581L201.668 95.1866C201.668 95.1866 202.124 97.6541 202.697 100.743Z" fill="#263238"/>
<path d="M210.683 88.4447C211.035 88.5609 211.407 88.6036 211.776 88.5702C212.146 88.5368 212.504 88.428 212.83 88.2505C213.024 88.1144 213.189 87.9493 213.384 87.823C213.676 87.6486 214.015 87.5673 214.355 87.5898C214.748 87.603 215.142 87.577 215.53 87.5121C216.141 87.4633 216.724 87.2381 217.209 86.8638C217.693 86.4895 218.059 85.9823 218.26 85.4041C219.125 85.6282 220.04 85.5477 220.852 85.1762C221.664 84.8046 222.324 84.1647 222.719 83.364C222.82 83.1459 222.898 82.918 222.952 82.684C222.975 82.3449 223.068 82.0142 223.224 81.7125C223.486 81.4679 223.789 81.2706 224.118 81.1297C224.358 80.9876 224.582 80.8216 224.788 80.6342C225.071 80.394 225.255 80.058 225.305 79.6905C225.356 79.323 225.268 78.9499 225.06 78.6427C225.505 78.4415 225.881 78.1143 226.142 77.7016C226.402 77.289 226.537 76.809 226.527 76.3209C226.559 75.7024 226.456 75.0844 226.227 74.5092C225.997 73.934 225.645 73.4154 225.196 72.9888C225.44 72.689 225.622 72.3436 225.732 71.9728C225.841 71.602 225.875 71.2131 225.833 70.8289C225.79 70.4446 225.672 70.0727 225.484 69.7347C225.296 69.3967 225.043 69.0994 224.74 68.8601C224.921 68.5337 225.03 68.1725 225.06 67.8006C225.09 67.4287 225.041 67.0546 224.915 66.7033C224.789 66.3521 224.589 66.0318 224.329 65.7637C224.07 65.4957 223.756 65.2862 223.409 65.1492C223.455 64.5162 223.346 63.8816 223.09 63.3007C222.834 62.7198 222.44 62.2105 221.942 61.8171C221.74 61.6623 221.577 61.4627 221.466 61.2342C221.54 60.8058 221.518 60.3662 221.4 59.9477C221.282 59.5291 221.073 59.1422 220.786 58.8153C220.468 58.475 220.052 58.2424 219.596 58.1501C219.14 58.0578 218.666 58.1103 218.241 58.3004C217.853 57.6981 217.322 57.2009 216.696 56.8529C216.257 56.5913 215.759 56.4476 215.248 56.4357C214.737 56.4238 214.232 56.5441 213.782 56.7849C213.407 56.3206 212.938 55.9411 212.406 55.6714C211.874 55.4017 211.291 55.248 210.695 55.2205C210.099 55.1929 209.504 55.2922 208.949 55.5116C208.395 55.731 207.893 56.0657 207.477 56.4935C207.121 56.0109 206.631 55.6438 206.068 55.4382C205.504 55.2326 204.893 55.1975 204.31 55.3374C202.93 55.738 201.747 56.634 200.988 57.8535C200.63 57.4975 200.157 57.2798 199.654 57.2389C199.151 57.198 198.649 57.3366 198.238 57.6301C197.928 57.8711 197.683 58.1857 197.526 58.5453C197.368 58.9049 197.302 59.2982 197.335 59.6896C196.486 59.8973 195.753 60.4314 195.295 61.1759C195.111 61.505 195.027 61.8804 195.053 62.2565C195.079 62.6325 195.214 62.9929 195.441 63.2937C194.985 63.481 194.585 63.7806 194.277 64.1645C193.969 64.5485 193.763 65.0042 193.678 65.4892C193.594 65.9742 193.634 66.4727 193.794 66.9382C193.955 67.4036 194.23 67.8209 194.595 68.151C193.925 68.2664 193.303 68.5761 192.806 69.0416C192.31 69.507 191.961 70.1079 191.803 70.7697C191.645 71.4316 191.684 72.1253 191.916 72.7649C192.149 73.4045 192.563 73.962 193.109 74.3683C192.608 74.7046 192.217 75.1796 191.982 75.7353C191.747 76.2909 191.68 76.903 191.788 77.4964C191.944 78.1925 192.26 78.8424 192.712 79.394C193.164 79.9457 193.74 80.3837 194.391 80.6731C194.12 81.2199 194.014 81.8345 194.088 82.4407C194.163 83.0469 194.413 83.6179 194.809 84.0829C195.18 84.4886 195.63 84.8142 196.131 85.0397C196.632 85.2653 197.174 85.3859 197.724 85.3944C197.182 85.611 196.588 85.6601 196.018 85.5354C195.448 85.4107 194.929 85.1179 194.527 84.6949C194.048 84.1417 193.768 83.4428 193.735 82.7112C193.701 81.9796 193.916 81.2581 194.343 80.6633C193.822 81.2458 193.534 81.9997 193.534 82.7811C193.534 83.5625 193.822 84.3165 194.343 84.8989C194.861 85.4243 195.539 85.7628 196.271 85.8613C197.002 85.9597 197.745 85.8126 198.384 85.4429C198.278 86.1268 198.37 86.8268 198.649 87.4602C198.928 88.0935 199.382 88.6338 199.958 89.0169C200.535 89.4001 201.209 89.6103 201.901 89.6225C202.593 89.6347 203.274 89.4485 203.863 89.0859C205.563 91.6603 209.741 91.738 210.683 88.4447ZM221.369 60.8068V60.7096C221.299 60.4521 221.198 60.2042 221.068 59.9713C220.758 59.4522 220.302 59.0364 219.756 58.7764C219.494 58.6513 219.217 58.5631 218.93 58.5141C218.775 58.5141 218.454 58.5141 218.454 58.5141C218.438 58.4768 218.419 58.441 218.396 58.4073C218.867 58.2826 219.366 58.3093 219.821 58.4837C220.276 58.658 220.664 58.9712 220.932 59.3787C221.195 59.8087 221.336 60.3025 221.34 60.8068H221.369ZM197.636 59.6021C197.587 59.2611 197.63 58.9131 197.759 58.5938C197.889 58.2746 198.101 57.9956 198.374 57.7855C198.754 57.5094 199.218 57.3748 199.687 57.4049C200.155 57.4351 200.598 57.6282 200.939 57.9507V58.009C200.522 57.8091 200.054 57.7411 199.598 57.814C199.141 57.8869 198.718 58.0972 198.384 58.417C198.014 58.7271 197.744 59.1393 197.607 59.6021H197.636ZM205.039 89.8825C205.961 90.4005 207.049 90.539 208.071 90.2688C209.094 89.9986 209.972 89.3409 210.518 88.435C209.42 91.126 206.982 91.1454 205.039 89.8825Z" fill="#263238"/>
<path d="M178.557 86.4727C173.797 101.851 182.442 106.446 185.784 107.466C188.796 108.437 199.171 111.177 205.495 96.3718C211.819 81.5668 206.175 74.4946 199.404 71.998C192.633 69.5013 183.317 71.0945 178.557 86.4727Z" fill="#AD6359"/>
<path d="M181.549 84.4909C181.916 84.541 182.286 84.5669 182.656 84.5686C183.043 84.6521 183.446 84.6042 183.803 84.4326C183.904 84.3579 183.978 84.2517 184.014 84.1305C184.049 84.0093 184.043 83.8799 183.997 83.7623C183.87 83.5441 183.687 83.3641 183.466 83.241C183.246 83.118 182.996 83.0565 182.744 83.0629C182.228 82.9908 181.704 83.1157 181.277 83.4126C181.186 83.486 181.118 83.5841 181.08 83.6951C181.043 83.8061 181.039 83.9254 181.067 84.0389C181.096 84.1524 181.157 84.2553 181.242 84.3354C181.327 84.4156 181.434 84.4695 181.549 84.4909Z" fill="#263238"/>
<path d="M192.177 87.4927C191.843 87.3368 191.518 87.1616 191.205 86.9681C190.826 86.7641 190.506 86.6475 190.302 86.2492C190.254 86.1319 190.247 86.002 190.282 85.8804C190.318 85.7588 190.393 85.6526 190.496 85.5789C190.72 85.461 190.971 85.405 191.224 85.417C191.477 85.4289 191.722 85.5083 191.934 85.6469C192.403 85.8612 192.777 86.2419 192.983 86.7155C193.206 87.2013 192.633 87.687 192.177 87.4927Z" fill="#263238"/>
<path d="M188.631 90.5916C188.631 90.5916 188.699 90.6694 188.689 90.7082C188.33 91.7477 188.096 92.9912 188.932 93.6226C188.932 93.6226 188.932 93.7003 188.932 93.6809C187.795 93.166 188.126 91.5145 188.631 90.5916Z" fill="#263238"/>
<path d="M189.913 89.7853C191.633 90.1836 190.72 93.6032 189.117 93.234C187.514 92.8649 188.466 89.4551 189.913 89.7853Z" fill="#263238"/>
<path d="M190.535 90.1448C190.778 90.4265 190.982 90.8442 191.331 90.9705C191.681 91.0968 192.147 90.854 192.507 90.5819C192.507 90.5819 192.575 90.5819 192.507 90.6402C192.342 91.3008 191.914 91.9031 191.186 91.806C190.457 91.7088 190.214 91.0191 190.214 90.3197C190.282 90.1934 190.467 90.0379 190.535 90.1448Z" fill="#263238"/>
<path d="M182.812 88.7848C182.812 88.7848 182.715 88.7848 182.705 88.8625C182.462 89.9311 182.006 91.1163 180.956 91.2134C180.956 91.2134 180.908 91.2717 180.956 91.2717C182.161 91.4174 182.754 89.8825 182.812 88.7848Z" fill="#263238"/>
<path d="M182.151 87.4344C180.48 86.8613 179.451 90.242 181.005 90.7763C182.559 91.3106 183.55 87.9396 182.151 87.4344Z" fill="#263238"/>
<path d="M181.374 87.4441C181.053 87.5413 180.694 87.7841 180.403 87.7064C180.111 87.6287 179.868 87.1721 179.732 86.735C179.732 86.735 179.732 86.735 179.674 86.735C179.46 87.3761 179.47 88.1144 180.053 88.4253C180.636 88.7362 181.17 88.2796 181.52 87.6773C181.549 87.6093 181.51 87.3956 181.374 87.4441Z" fill="#263238"/>
<path d="M183.084 94.2541C183.084 94.2541 182.423 95.7696 182.209 96.5176C182.209 96.5856 182.365 96.673 182.608 96.7508C183.214 97.0468 183.889 97.1707 184.561 97.1091C185.232 97.0474 185.874 96.8025 186.416 96.401C186.425 96.3959 186.433 96.3891 186.439 96.381C186.445 96.3728 186.45 96.3635 186.453 96.3536C186.455 96.3437 186.456 96.3333 186.455 96.3231C186.453 96.3129 186.45 96.3031 186.445 96.2942C186.44 96.2852 186.433 96.2774 186.425 96.2711C186.417 96.2648 186.408 96.2602 186.398 96.2575C186.388 96.2548 186.377 96.254 186.367 96.2553C186.357 96.2566 186.347 96.2599 186.338 96.265C185.206 96.6393 183.983 96.6393 182.851 96.265C182.851 96.0416 184.065 93.7101 183.948 93.6615C183.356 93.5517 182.751 93.5223 182.151 93.5741C183.443 90.378 185.231 87.415 186.464 84.2092C186.471 84.1858 186.469 84.1609 186.459 84.1386C186.45 84.1163 186.433 84.098 186.411 84.0867C186.39 84.0754 186.365 84.0717 186.341 84.0763C186.317 84.081 186.296 84.0936 186.28 84.1121C184.269 87.2308 182.571 90.54 181.209 93.9918C181.063 94.429 182.754 94.3027 183.084 94.2541Z" fill="#263238"/>
<path d="M204.563 95.7112C201.571 95.7112 201.648 88.8527 201.648 88.8527C201.648 88.8527 189.369 85.1126 189.622 74.7569C187.503 78.6991 183.953 81.6787 179.703 83.0823C179.703 83.0823 181.588 71.9397 190.748 70.9002C190.748 70.9002 202.28 68.3064 207.36 77.8461C212.441 87.3858 206.574 95.7112 204.563 95.7112Z" fill="#263238"/>
<path d="M189.699 74.0186C189.359 75.5805 189.359 77.1974 189.699 78.7593C190.003 80.3458 190.627 81.8533 191.535 83.1892C191.761 83.5277 192.008 83.8522 192.274 84.1606L192.662 84.6269L193.09 85.0543C193.391 85.3264 193.673 85.6081 193.974 85.8704L194.945 86.5698C195.11 86.6767 195.266 86.803 195.441 86.9098L195.965 87.1916L197.014 87.755C197.743 88.0659 198.491 88.3379 199.229 88.5905C198.549 88.1824 197.84 87.8522 197.18 87.4441L196.208 86.8127L195.722 86.4921L195.276 86.123C194.984 85.8704 194.693 85.6275 194.382 85.3944C194.071 85.1612 193.848 84.8503 193.576 84.5783L193.177 84.1703L192.818 83.7137C192.569 83.4237 192.339 83.1187 192.128 82.8006C191.264 81.5362 190.624 80.1332 190.234 78.6524C190.031 77.9077 189.891 77.1473 189.816 76.3792C189.708 75.5973 189.669 74.8074 189.699 74.0186Z" fill="#263238"/>
<path d="M203.31 101.365C203.055 101.398 202.797 101.398 202.542 101.365C202.287 101.358 202.035 101.312 201.794 101.229C201.481 101.124 201.194 100.955 200.949 100.734C200.757 100.564 200.59 100.367 200.454 100.151C200.266 99.8521 200.132 99.5236 200.055 99.1794L201.833 95.1575C201.833 95.1575 206.34 90.9997 208.293 92.7095C210.246 94.4193 206.136 100.967 203.31 101.365Z" fill="#AD6359"/>
<path d="M207.069 94.5455V94.6135C205.078 94.9632 203.737 96.4495 202.678 98.0719C202.825 97.9106 203.005 97.7831 203.206 97.6983C203.407 97.6136 203.624 97.5735 203.842 97.5809C204.06 97.5883 204.274 97.6429 204.469 97.7411C204.664 97.8393 204.835 97.9787 204.971 98.1496C204.971 98.1496 204.971 98.2565 204.893 98.237C204.592 98.0561 204.242 97.9755 203.893 98.0069C203.544 98.0384 203.213 98.1802 202.95 98.4119C202.514 98.793 202.12 99.2196 201.775 99.6845C201.648 99.8302 201.376 99.6845 201.473 99.4999C201.979 97.1101 204.514 94.2346 207.069 94.5455Z" fill="#263238"/>
<path d="M203.242 100.656C203.207 100.753 203.154 100.841 203.084 100.917C203.014 100.992 202.929 101.052 202.835 101.093C202.741 101.134 202.64 101.155 202.537 101.155C202.435 101.155 202.333 101.135 202.239 101.094C202.145 101.053 202.06 100.993 201.99 100.918C201.92 100.844 201.866 100.755 201.831 100.658C201.797 100.562 201.783 100.459 201.79 100.357C201.797 100.254 201.825 100.154 201.872 100.063C201.906 99.9666 201.96 99.8779 202.029 99.8028C202.099 99.7276 202.184 99.6676 202.278 99.6266C202.372 99.5855 202.473 99.5642 202.576 99.5641C202.679 99.5639 202.78 99.5848 202.874 99.6255C202.968 99.6663 203.053 99.726 203.123 99.8009C203.193 99.8758 203.247 99.9643 203.282 100.061C203.316 100.158 203.33 100.26 203.324 100.363C203.317 100.465 203.289 100.565 203.242 100.656Z" fill="white"/>
<path d="M204.971 99.8788C204.929 99.974 204.861 100.055 204.774 100.111C204.686 100.167 204.584 100.196 204.481 100.195C204.377 100.193 204.276 100.16 204.191 100.101C204.105 100.042 204.039 99.9591 204.001 99.8626C203.963 99.766 203.955 99.6604 203.977 99.5589C203.999 99.4575 204.05 99.3649 204.125 99.2928C204.2 99.2207 204.294 99.1724 204.396 99.1539C204.498 99.1354 204.604 99.1477 204.699 99.1891C204.763 99.2155 204.821 99.2545 204.869 99.3038C204.918 99.3531 204.956 99.4117 204.981 99.4761C205.007 99.5405 205.019 99.6094 205.017 99.6786C205.015 99.7477 204.999 99.8158 204.971 99.8788Z" fill="white"/>
<path d="M204.504 100.957C204.359 101.676 206.884 99.5777 207.05 99.2182C207.215 98.8588 208.837 98.0428 209.332 97.3822C210.003 96.3979 210.576 95.3502 211.042 94.2541C211.178 93.7586 212.315 92.6415 212.461 91.7574C212.606 90.8734 213.529 82.8589 209.06 76.6707C204.592 70.4825 199.909 69.375 199.909 69.375C197.587 68.6249 195.189 68.1298 192.759 67.8984C188.825 67.539 181.753 75.7575 181.704 75.9615C181.749 76.424 181.696 76.8906 181.549 77.3313C181.277 77.8559 180.577 78.3027 180.81 78.8953C181.044 79.4879 180.033 80.6925 179.956 81.2657C179.878 81.8389 179.956 81.9943 179.839 82.3634C179.722 82.7326 183.093 73.1346 195.557 71.6191C195.557 71.6191 207.681 85.4429 204.504 100.957Z" fill="#FFC727"/>
<path d="M179.868 82.2566C179.873 82.2925 179.873 82.3289 179.868 82.3648C179.868 82.3648 179.829 82.355 179.868 82.2566Z" fill="#FFC727"/>
<path d="M179.878 82.2566C179.878 82.2566 179.878 82.3247 179.878 82.3636C179.878 82.4026 179.829 82.3539 179.878 82.2566Z" fill="#FFC727"/>
<path opacity="0.3" d="M186.989 72.9014C186.868 73.1461 186.654 73.3328 186.396 73.4202C186.137 73.5077 185.854 73.4888 185.61 73.3677C185.429 73.2795 185.278 73.1408 185.174 72.9684C185.071 72.7959 185.019 72.5972 185.027 72.3962C185.367 72.0757 185.716 71.7648 186.076 71.4248C186.22 71.4327 186.361 71.4656 186.494 71.5219C186.742 71.6398 186.933 71.851 187.026 72.1095C187.119 72.3679 187.105 72.6527 186.989 72.9014ZM191.671 71.5608C191.484 71.4733 191.274 71.4443 191.07 71.4777C190.866 71.5111 190.676 71.6052 190.526 71.7478C190.376 71.8904 190.273 72.0749 190.229 72.2772C190.186 72.4795 190.204 72.6903 190.282 72.882C190.918 72.6389 191.566 72.4314 192.225 72.2602C192.192 72.1093 192.125 71.9679 192.029 71.8468C191.933 71.7256 191.811 71.6278 191.671 71.5608ZM184.094 75.7478C183.86 75.6575 183.602 75.6555 183.367 75.7421C183.132 75.8288 182.936 75.9982 182.817 76.2186C182.698 76.439 182.663 76.6953 182.719 76.9395C182.776 77.1836 182.919 77.3989 183.123 77.545C183.582 77.0709 184.065 76.6202 184.57 76.1946C184.468 75.9952 184.3 75.8373 184.094 75.7478ZM205.66 72.8334C205.514 72.9299 205.397 73.0642 205.32 73.222C205.207 73.4697 205.195 73.752 205.288 74.0081C205.381 74.2643 205.57 74.4739 205.816 74.5917C206.032 74.7053 206.283 74.7334 206.519 74.6704C206.754 74.6074 206.958 74.4579 207.088 74.2517C206.603 73.7369 206.127 73.2608 205.66 72.8431V72.8334ZM205.019 81.4114C204.835 81.3223 204.629 81.2901 204.427 81.3187C204.224 81.3473 204.035 81.4355 203.883 81.5721C203.731 81.7086 203.623 81.8873 203.573 82.0854C203.522 82.2836 203.532 82.4922 203.601 82.6846C203.67 82.8771 203.794 83.0448 203.959 83.1663C204.123 83.2878 204.32 83.3577 204.524 83.367C204.728 83.3763 204.93 83.3246 205.105 83.2186C205.28 83.1125 205.419 82.9568 205.505 82.7714C205.617 82.5297 205.631 82.254 205.544 82.0022C205.457 81.7504 205.276 81.5421 205.039 81.4211L205.019 81.4114ZM195.305 68.2384C194.693 68.1315 194.042 68.0344 193.362 67.9567C193.298 68.101 193.268 68.2582 193.275 68.4158C193.283 68.5735 193.326 68.7274 193.403 68.8653C193.48 69.0033 193.587 69.1216 193.717 69.2108C193.848 69.3001 193.997 69.358 194.153 69.3799C194.309 69.4017 194.469 69.3871 194.618 69.3369C194.768 69.2868 194.904 69.2027 195.016 69.0911C195.127 68.9795 195.211 68.8436 195.262 68.6939C195.312 68.5443 195.326 68.385 195.305 68.2287V68.2384ZM199.841 70.6573C199.657 70.5683 199.451 70.536 199.249 70.5647C199.046 70.5933 198.857 70.6815 198.705 70.818C198.553 70.9546 198.445 71.1333 198.395 71.3314C198.344 71.5295 198.354 71.7381 198.423 71.9306C198.492 72.1231 198.616 72.2908 198.781 72.4123C198.945 72.5338 199.142 72.6036 199.346 72.6129C199.55 72.6222 199.752 72.5706 199.927 72.4645C200.102 72.3585 200.241 72.2028 200.327 72.0174C200.441 71.7792 200.46 71.5062 200.378 71.2549C200.297 71.0035 200.122 70.7931 199.89 70.667L199.841 70.6573ZM201.94 76.0101C201.756 75.921 201.549 75.8888 201.347 75.9174C201.145 75.946 200.955 76.0342 200.803 76.1707C200.651 76.3073 200.543 76.486 200.493 76.6841C200.443 76.8823 200.453 77.0909 200.521 77.2833C200.59 77.4758 200.715 77.6435 200.879 77.765C201.043 77.8865 201.24 77.9564 201.444 77.9657C201.649 77.975 201.851 77.9233 202.026 77.8173C202.2 77.7112 202.339 77.5555 202.425 77.3701C202.54 77.1319 202.558 76.8589 202.477 76.6076C202.395 76.3563 202.22 76.1458 201.988 76.0198L201.94 76.0101ZM209.342 78.3707C209.158 78.2826 208.953 78.2512 208.751 78.2802C208.549 78.3092 208.36 78.3975 208.209 78.5338C208.057 78.6701 207.95 78.8483 207.899 79.0459C207.849 79.2434 207.859 79.4515 207.927 79.6436C207.995 79.8357 208.119 80.0033 208.282 80.1251C208.446 80.2469 208.641 80.3175 208.845 80.3278C209.049 80.3382 209.251 80.2879 209.426 80.1834C209.601 80.0788 209.741 79.9247 209.828 79.7405C209.945 79.5012 209.965 79.2259 209.884 78.9723C209.802 78.7187 209.625 78.5066 209.391 78.3804L209.342 78.3707ZM208.157 86.0841C208.034 86.0117 207.897 85.9659 207.754 85.9495C207.612 85.933 207.468 85.9464 207.332 85.9886C207.195 86.0309 207.069 86.1012 206.961 86.195C206.853 86.2888 206.766 86.4041 206.705 86.5334C206.644 86.6628 206.61 86.8035 206.607 86.9465C206.603 87.0895 206.629 87.2316 206.684 87.3639C206.738 87.4962 206.82 87.6157 206.923 87.7148C207.026 87.8139 207.148 87.8905 207.283 87.9396C207.403 88.0043 207.535 88.043 207.67 88.0533C207.806 88.0637 207.943 88.0454 208.071 87.9996C208.199 87.9538 208.316 87.8815 208.415 87.7875C208.513 87.6935 208.591 87.5798 208.643 87.4538C208.76 87.2146 208.78 86.9393 208.698 86.6857C208.617 86.4321 208.44 86.2199 208.206 86.0938L208.157 86.0841ZM205.495 97.3627C205.319 97.2811 205.124 97.2508 204.932 97.2753C204.932 97.9359 204.835 98.6062 204.738 99.2182C204.995 99.3187 205.282 99.3127 205.535 99.2016C205.789 99.0904 205.987 98.8833 206.088 98.6256C206.188 98.368 206.182 98.0809 206.071 97.8277C205.96 97.5745 205.753 97.3758 205.495 97.2753V97.3627ZM204.398 88.8333C204.326 88.8032 204.251 88.7804 204.174 88.7653C204.31 89.3676 204.436 89.9796 204.543 90.6014C204.691 90.5022 204.809 90.3645 204.883 90.2031C205 89.9638 205.02 89.6885 204.939 89.4349C204.857 89.1813 204.681 88.9691 204.446 88.843L204.398 88.8333ZM212.043 83.704C211.812 83.7018 211.586 83.7775 211.403 83.919C211.22 84.0605 211.09 84.2595 211.034 84.4839C210.978 84.7084 210.999 84.9452 211.094 85.1562C211.189 85.3672 211.352 85.54 211.557 85.6469C211.685 85.7061 211.824 85.7368 211.965 85.7368C212.106 85.7368 212.245 85.7061 212.373 85.6469C212.344 85.0252 212.237 84.3937 212.091 83.7137L212.043 83.704ZM208.497 92.1265C208.377 92.0619 208.245 92.0231 208.109 92.0128C207.974 92.0024 207.837 92.0208 207.709 92.0666C207.581 92.1124 207.463 92.1846 207.365 92.2786C207.266 92.3726 207.189 92.4863 207.137 92.6123C207.065 92.7357 207.019 92.8728 207.002 93.0148C206.986 93.1569 206.999 93.3009 207.042 93.4375C207.084 93.5742 207.154 93.7005 207.248 93.8085C207.342 93.9164 207.457 94.0037 207.586 94.0647C207.716 94.1256 207.856 94.159 207.999 94.1626C208.142 94.1662 208.285 94.1399 208.417 94.0855C208.549 94.0312 208.669 93.9498 208.768 93.8467C208.867 93.7436 208.943 93.6209 208.993 93.4866C209.057 93.3696 209.096 93.2406 209.108 93.1077C209.12 92.9748 209.105 92.8408 209.063 92.7141C209.021 92.5874 208.954 92.4707 208.865 92.3713C208.775 92.2719 208.667 92.1919 208.546 92.1363L208.497 92.1265ZM209.799 95.7695C209.737 95.9 209.704 96.0427 209.704 96.1873C209.704 96.3318 209.737 96.4745 209.799 96.605C210.061 96.1678 210.353 95.6335 210.586 95.1964C210.432 95.2304 210.289 95.3012 210.169 95.4028C210.049 95.5043 209.955 95.6335 209.896 95.7792L209.799 95.7695ZM212.577 89.3385C212.431 89.3015 212.278 89.2973 212.129 89.3262C211.981 89.355 211.84 89.4162 211.718 89.5054C211.596 89.5946 211.495 89.7096 211.423 89.8422C211.35 89.9748 211.307 90.1218 211.298 90.2728C211.288 90.4237 211.312 90.5749 211.368 90.7155C211.424 90.8561 211.509 90.9828 211.619 91.0865C211.73 91.1902 211.861 91.2684 212.005 91.3155C212.148 91.3626 212.301 91.3775 212.451 91.3591C212.549 90.6928 212.607 90.0213 212.626 89.3482L212.577 89.3385Z" fill="white"/>
<path opacity="0.1" d="M207.05 99.2182C207.25 98.5202 207.384 97.8045 207.448 97.081C207.535 96.3622 207.594 95.6336 207.652 94.9147C207.759 93.4575 207.866 92.0003 207.905 90.5528C207.905 90.1934 207.905 89.8242 207.905 89.4745C207.864 89.1239 207.786 88.7787 207.671 88.4448C207.448 87.755 207.176 87.075 206.923 86.395C206.671 85.715 206.379 85.0447 206.098 84.3744L205.252 82.3634C205.913 83.6652 206.525 84.9864 207.098 86.327C207.39 86.9746 207.652 87.6547 207.885 88.3671C208.018 88.7206 208.106 89.0894 208.147 89.4648C208.147 89.834 208.147 90.1934 208.147 90.5625C208.089 92.0197 207.992 93.4769 207.837 94.9244C207.759 95.653 207.671 96.3816 207.555 97.1005C207.497 97.4599 207.438 97.8193 207.361 98.1788C207.295 98.5356 207.191 98.8842 207.05 99.2182Z" fill="#050400"/>
<path opacity="0.1" d="M208.75 84.3161C209.208 85.0575 209.614 85.8301 209.964 86.6281C210.321 87.4248 210.619 88.2462 210.858 89.0859C211.102 89.9251 211.255 90.7882 211.314 91.6603C211.38 92.5342 211.288 93.4128 211.042 94.2541C211.042 94.0404 211.101 93.8266 211.139 93.6129C211.149 93.5063 211.149 93.399 211.139 93.2923V92.962C211.139 92.8552 211.139 92.7483 211.139 92.6415V92.3209C211.139 92.1072 211.139 91.8934 211.139 91.6797L211.062 91.0386L210.935 90.4071C210.935 90.1934 210.848 89.9894 210.79 89.7757C210.731 89.5619 210.693 89.3579 210.634 89.1539C210.401 88.3185 210.11 87.5122 209.799 86.6961C209.653 86.2978 209.478 85.8995 209.303 85.5013C209.129 85.103 208.925 84.7047 208.75 84.3161Z" fill="#050400"/>
<path opacity="0.1" d="M181.724 76.9038C182.229 76.2466 182.798 75.6413 183.424 75.0969C184.016 74.5238 184.648 73.9797 185.27 73.4454C185.891 72.9111 186.532 72.3865 187.212 71.9202C187.919 71.4875 188.685 71.1602 189.486 70.9488C189.102 71.1012 188.728 71.2798 188.368 71.4831C188.002 71.6688 187.652 71.8832 187.319 72.1243C186.999 72.3574 186.678 72.6197 186.348 72.8917L185.376 73.6786L183.492 75.2815C183.171 75.5438 182.87 75.8158 182.52 76.0878C182.24 76.3453 181.974 76.6177 181.724 76.9038Z" fill="#050400"/>
<path opacity="0.1" d="M180.82 79.2742C181.139 78.7707 181.493 78.2903 181.879 77.8364C182.252 77.3702 182.651 76.9258 183.074 76.5055C183.297 76.3015 183.511 76.0878 183.754 75.9032L184.483 75.3883L185.211 74.8735L185.959 74.3877C185.746 74.5917 185.512 74.786 185.289 74.9803L184.599 75.5438L183.909 76.0975C183.679 76.2796 183.461 76.4776 183.259 76.6901C182.831 77.0981 182.433 77.5352 182.025 77.9627C181.821 78.1764 181.617 78.3901 181.423 78.6136C181.228 78.837 181.024 79.0507 180.82 79.2742Z" fill="#050400"/>
<path opacity="0.1" d="M208.118 75.4466C205.991 75.9906 201.104 77.1564 200.075 76.9135C199.741 76.8127 199.417 76.686 199.103 76.5347C198.061 74.809 196.889 73.1657 195.596 71.6191C194.149 71.788 192.721 72.0937 191.331 72.5323C190.302 71.6061 189.362 70.5848 188.524 69.4819C190.03 68.4521 191.535 67.743 192.75 67.8595C195.18 68.0909 197.577 68.586 199.9 69.3362C199.9 69.3362 203.96 70.3368 208.118 75.4466Z" fill="#050400"/>
<path d="M196.606 69.5402C196.606 69.5402 193.391 63.7114 187.708 62.8371C187.708 62.8371 187.708 68.5202 189.651 70.4825C190.622 71.454 195.072 72.0465 195.625 71.3277C196.013 70.7675 196.342 70.1685 196.606 69.5402Z" fill="#FFC727"/>
<path opacity="0.3" d="M192.468 64.9257C192.32 65.034 192.145 65.1002 191.962 65.1173C191.779 65.1344 191.595 65.1018 191.429 65.0229C191.224 64.9246 191.058 64.7623 190.954 64.5606C190.851 64.3589 190.816 64.1289 190.855 63.9057C191.42 64.201 191.959 64.5422 192.468 64.9257ZM188.757 66.8686C188.543 66.7619 188.298 66.7377 188.067 66.8006C188.193 67.4607 188.368 68.1102 188.592 68.7435C188.735 68.7039 188.868 68.6339 188.982 68.5384C189.096 68.4428 189.188 68.324 189.253 68.1898C189.365 67.9449 189.376 67.6655 189.283 67.4125C189.19 67.1594 189.001 66.9535 188.757 66.8395V66.8686ZM194.78 67.5098C194.596 67.4234 194.39 67.3936 194.189 67.4242C193.987 67.4548 193.799 67.5445 193.649 67.6818C193.499 67.819 193.392 67.9979 193.344 68.1956C193.295 68.3933 193.306 68.601 193.375 68.7925C193.444 68.984 193.569 69.1507 193.733 69.2715C193.897 69.3922 194.093 69.4616 194.296 69.471C194.5 69.4803 194.701 69.429 194.876 69.3238C195.05 69.2185 195.189 69.0639 195.276 68.8795C195.338 68.7556 195.374 68.6205 195.383 68.4822C195.391 68.3439 195.372 68.2053 195.326 68.0747C195.279 67.9441 195.207 67.8241 195.113 67.7221C195.02 67.62 194.906 67.5379 194.78 67.4806V67.5098Z" fill="white"/>
<path opacity="0.1" d="M196.606 69.5402C196.322 70.1647 195.977 70.7601 195.577 71.3179C195.557 71.3531 195.526 71.3806 195.489 71.3957C195.451 71.4345 195.405 71.4643 195.353 71.4831H195.237C194.419 71.6487 193.577 71.6487 192.759 71.4831C192.924 70.652 193.168 69.8387 193.488 69.0544C193.906 68.3833 194.529 67.8653 195.266 67.5778C195.772 68.1892 196.221 68.8461 196.606 69.5402Z" fill="#050400"/>
<path d="M197.976 70.3756C197.976 70.3756 206.01 69.4819 209.741 71.4248C209.741 71.4248 207.467 75.4855 203.436 76.3307C201.629 76.7095 196.548 73.2317 196.869 72.2991C197.148 71.6103 197.521 70.9631 197.976 70.3756Z" fill="#FFC727"/>
<path opacity="0.3" d="M207.176 74.1157C207.124 74.2417 207.046 74.3554 206.948 74.4494C206.849 74.5434 206.732 74.6156 206.604 74.6614C206.476 74.7072 206.339 74.7256 206.204 74.7152C206.068 74.7049 205.936 74.6661 205.816 74.6015C205.681 74.5524 205.559 74.4758 205.456 74.3767C205.353 74.2776 205.271 74.1581 205.217 74.0258C205.162 73.8935 205.136 73.7514 205.14 73.6084C205.143 73.4654 205.177 73.3247 205.238 73.1953C205.299 73.0659 205.386 72.9507 205.494 72.8569C205.602 72.7631 205.728 72.6928 205.865 72.6505C206.002 72.6082 206.145 72.5949 206.288 72.6113C206.43 72.6278 206.567 72.6736 206.69 72.746C206.936 72.8636 207.125 73.0738 207.216 73.3305C207.307 73.5873 207.293 73.8696 207.176 74.1157ZM199.89 70.667C199.706 70.578 199.5 70.5458 199.297 70.5744C199.095 70.603 198.906 70.6912 198.754 70.8277C198.601 70.9643 198.493 71.143 198.443 71.3411C198.393 71.5392 198.403 71.7478 198.472 71.9403C198.54 72.1328 198.665 72.3005 198.829 72.422C198.994 72.5435 199.19 72.6134 199.395 72.6227C199.599 72.632 199.801 72.5803 199.976 72.4742C200.151 72.3682 200.29 72.2125 200.376 72.0271C200.489 71.782 200.502 71.5021 200.411 71.2476C200.32 70.9932 200.133 70.7847 199.89 70.667ZM201.988 76.0198C201.831 75.9456 201.657 75.9122 201.483 75.9226C201.729 76.0287 201.982 76.1163 202.241 76.1849C202.169 76.1135 202.083 76.0573 201.988 76.0198Z" fill="white"/>
<path opacity="0.1" d="M199.793 70.2396C199.964 71.124 199.873 72.039 199.531 72.8723C199.256 73.3622 198.882 73.7891 198.433 74.1255C197.461 73.3774 196.752 72.6391 196.869 72.2797C197.145 71.5834 197.518 70.9293 197.976 70.3368C197.976 70.3368 198.685 70.2979 199.793 70.2396Z" fill="#050400"/>
<path d="M198.724 72.2214C198.466 72.6708 198.08 73.0336 197.615 73.2638C197.151 73.494 196.628 73.5813 196.114 73.5148C195.6 73.4483 195.117 73.2308 194.726 72.89C194.335 72.5491 194.055 72.1001 193.919 71.5996C193.783 71.0992 193.799 70.5698 193.964 70.0783C194.129 69.5868 194.436 69.1553 194.847 68.8382C195.257 68.5211 195.752 68.3328 196.269 68.2969C196.786 68.261 197.303 68.3793 197.753 68.6367C198.054 68.8061 198.319 69.0338 198.531 69.3065C198.744 69.5793 198.9 69.8916 198.99 70.2253C199.081 70.559 199.104 70.9074 199.058 71.2501C199.012 71.5928 198.899 71.923 198.724 72.2214Z" fill="#FFC727"/>
<path d="M188.942 117.006C188.942 117.006 189.466 123.349 195.373 124.01C201.279 124.67 211.013 114.995 211.013 114.995C211.013 114.995 206.156 110.273 199.356 110.516C193.848 110.72 188.942 117.006 188.942 117.006Z" fill="#AD6359"/>
<path d="M99.7413 27.8527C99.7386 33.0155 101.172 38.0774 103.883 42.4731C106.593 46.8688 110.473 50.4251 115.089 52.7449C119.706 55.0647 124.877 56.0566 130.025 55.6098C135.173 55.163 140.095 53.2952 144.242 50.2149L157.909 53.7L152.191 40.9935C154.189 37.2591 155.309 33.1188 155.465 28.8872C155.622 24.6555 154.811 20.4439 153.094 16.5724C151.377 12.7009 148.799 9.27147 145.556 6.54467C142.314 3.81787 138.492 1.8655 134.381 0.835948C130.27 -0.193606 125.978 -0.273254 121.831 0.603066C117.685 1.47939 113.793 3.28861 110.451 5.89322C107.109 8.49784 104.406 11.8293 102.546 15.6344C100.686 19.4395 99.7193 23.6181 99.7184 27.8527H99.7413Z" fill="white"/>
<path d="M130.252 30.8449L130.317 31.4172L124.936 32.0316L124.766 30.5453C124.396 27.3023 126.439 25.9418 127.794 25.0463L128.437 24.6105C129.537 23.881 130.249 23.4132 130.121 22.3005C129.992 21.1639 128.83 20.5799 127.121 20.775C124.943 21.0237 123.977 22.2935 124.256 24.7337L124.3 25.1232L117.973 25.8456L117.917 25.3528C117.254 19.5505 120.146 16.3136 126.481 15.5902C132.402 14.914 136.057 17.025 136.558 21.4125C136.995 25.2356 134.584 26.759 133.06 27.7222L132.421 28.1252C131.249 28.8629 130.109 29.597 130.252 30.8449ZM130.654 32.6026L131.333 38.548L125.554 39.2078L124.875 33.2625L130.654 32.6026Z" fill="#605D5D"/>
</svg>
