<svg width="300" height="251" viewBox="0 0 300 251" fill="none" xmlns="http://www.w3.org/2000/svg">
<path d="M46.8486 160.265C39.5817 145.331 26.872 137.673 12.5486 141.903C-1.77479 146.133 -3.98995 166.119 6.69497 171.161C17.3799 176.203 28.0848 161.478 33.7581 158.451C39.4313 155.424 46.8486 160.265 46.8486 160.265Z" fill="#FFC727"/>
<path d="M53.875 200.008C53.875 198.204 53.7748 196.41 53.7046 194.606C53.5843 191.017 53.464 187.419 53.3237 183.83C53.0832 177.255 52.3214 170.8 49.6552 164.786C47.2449 159.295 43.2257 154.664 38.1283 151.505C36.2496 150.37 34.2268 149.494 32.1143 148.899C30.1999 146.953 27.763 145.602 25.0979 145.01C21.7775 144.335 18.3642 144.251 15.0144 144.759C14.8941 144.759 14.9041 144.96 15.0144 144.95C18.2054 144.537 21.4468 144.769 24.5466 145.631C25.8597 145.983 27.1328 146.47 28.3455 147.085C29.1202 147.498 29.8639 147.967 30.5707 148.488C27.6776 147.892 24.6904 147.922 21.8102 148.578C20.7825 148.831 19.7768 149.166 18.8032 149.581C18.0207 149.406 17.2186 149.336 16.4176 149.37C15.3717 149.405 14.3329 149.556 13.3204 149.821C11.2461 150.398 9.26246 151.262 7.42668 152.387C7.31643 152.447 7.42668 152.608 7.52692 152.547C9.33202 151.564 11.2649 150.835 13.2703 150.382C14.2602 150.162 15.2654 150.018 16.2773 149.951C16.8282 149.921 17.3803 149.921 17.9312 149.951C13.8474 151.837 10.5629 155.107 8.65956 159.183C8.60944 159.293 8.77984 159.383 8.82995 159.273C9.95936 156.909 11.6077 154.831 13.6521 153.192C15.6965 151.554 18.0843 150.398 20.6375 149.811C20.9482 149.731 21.269 149.691 21.6398 149.631C21.5655 150.109 21.5153 150.591 21.4895 151.074C21.3892 151.796 21.269 152.517 21.1286 153.239C20.7735 154.729 20.3249 156.196 19.7855 157.629C19.3063 159.081 18.7269 160.498 18.0515 161.869C17.4058 163.321 16.5952 164.693 15.6358 165.959C15.5456 166.059 15.706 166.179 15.7862 166.069C16.6482 164.716 17.6405 163.473 18.4324 162.06C19.1833 160.72 19.8333 159.326 20.3769 157.89C20.921 156.433 21.3467 154.935 21.6499 153.41C21.8102 152.608 21.9305 151.796 22.0307 150.984C22.1209 150.495 22.1512 149.997 22.121 149.5C23.8034 149.247 25.5117 149.213 27.2028 149.4C26.5713 152.958 25.8897 156.667 23.8851 159.764C23.8249 159.865 23.9953 159.965 24.0555 159.855C24.9914 158.215 25.8152 156.514 26.5212 154.763C27.1767 153.062 27.5884 151.277 27.7441 149.46C30.7013 149.854 33.5558 150.81 36.1537 152.277C41.0635 155.119 44.9848 159.397 47.3899 164.535C49.92 170.057 51.3304 176.026 51.5396 182.096C52.0207 189.724 52.1209 197.402 52.8827 205.01C52.8827 205.511 53.7146 205.671 53.8149 205.11C54.0003 203.415 54.0205 201.707 53.875 200.008Z" fill="#263238"/>
<path d="M37.0958 150.272C36.6141 149.694 36.058 149.181 35.442 148.749C34.8513 148.25 34.2357 147.782 33.5977 147.345C32.3373 146.482 30.9416 145.835 29.4681 145.431C29.3578 145.431 29.3077 145.591 29.4681 145.611C30.9478 145.993 32.3331 146.675 33.5375 147.616C34.1465 148.06 34.732 148.535 35.2916 149.039C35.8023 149.564 36.3629 150.037 36.9655 150.453C36.9878 150.454 37.0102 150.45 37.0305 150.441C37.0507 150.432 37.0683 150.417 37.0814 150.399C37.0944 150.381 37.1027 150.36 37.1052 150.337C37.1077 150.315 37.1045 150.293 37.0958 150.272Z" fill="#263238"/>
<path d="M13.9118 155.685C12.7094 157.079 11.5978 158.549 10.584 160.085C9.58759 161.635 8.75454 163.285 8.09825 165.007C8.09825 165.057 8.16841 165.087 8.18846 165.007C9.84914 161.755 11.8124 158.668 14.0521 155.785C14.1223 155.715 13.992 155.625 13.9118 155.685Z" fill="#263238"/>
<path d="M29.5382 154.201C29.3807 155.135 29.1045 156.044 28.7163 156.908C28.3211 157.74 27.862 158.541 27.3431 159.303C27.3351 159.314 27.3317 159.327 27.3336 159.34C27.3355 159.354 27.3425 159.365 27.3531 159.373C27.3638 159.381 27.3771 159.385 27.3903 159.383C27.4035 159.381 27.4153 159.374 27.4233 159.363C28.6777 157.923 29.4795 156.145 29.7287 154.251C29.7387 154.131 29.5583 154.081 29.5382 154.201Z" fill="#263238"/>
<path d="M52.8627 160.636C52.8627 160.636 63.1466 147.706 83.003 152.287C101.867 156.647 110.577 191.238 91.5128 195.387C72.4483 199.537 75.8062 167.512 68.86 162.08C63.7581 158.08 56.4109 158.942 52.8627 160.636Z" fill="#FFC727"/>
<path d="M98.3287 171.181C97.0366 170.046 95.6704 168.998 94.2392 168.044C92.8916 167.123 91.4246 166.392 89.879 165.869C89.1068 164.692 88.2421 163.579 87.2929 162.541C85.5379 160.659 83.5107 159.051 81.2789 157.77C81.4759 157.759 81.6733 157.759 81.8703 157.77C82.9187 157.715 83.9692 157.715 85.0176 157.77C87.1369 157.908 89.2144 158.424 91.152 159.293C91.1631 159.298 91.1753 159.301 91.1876 159.302C91.2 159.303 91.2123 159.301 91.2239 159.297C91.2356 159.292 91.2463 159.286 91.2554 159.278C91.2646 159.269 91.272 159.259 91.2772 159.248C91.2825 159.237 91.2855 159.225 91.2861 159.212C91.2867 159.2 91.2848 159.188 91.2806 159.176C91.2765 159.164 91.27 159.154 91.2617 159.145C91.2534 159.135 91.2433 159.128 91.2321 159.123C89.2689 158.273 87.2137 157.655 85.1079 157.279C84.086 157.093 83.0492 157.003 82.0106 157.008C81.4593 157.008 80.898 157.058 80.3468 157.108H80.026C78.2062 156.187 76.2856 155.481 74.3027 155.003L74.8539 154.853C75.8264 154.637 76.8103 154.477 77.8008 154.372C79.7741 154.141 81.7692 154.171 83.7346 154.462C83.8549 154.462 83.895 154.292 83.7346 154.271C81.7396 154.031 79.7285 153.95 77.7206 154.031C76.0326 154.075 74.3535 154.29 72.7089 154.672C71.5133 154.455 70.3045 154.317 69.0905 154.261C62.1643 153.971 54.6167 156.557 50.3568 162.28C46.0969 168.004 45.3852 175.561 44.6034 182.427C43.4382 191.997 43.1831 201.656 43.8416 211.274C43.8416 211.846 44.6836 211.746 44.7036 211.204C44.9642 203.045 45.2449 194.886 46.0267 186.757C46.3876 182.988 46.7885 179.21 47.42 175.481C47.8709 172.269 48.7929 169.142 50.1563 166.199C51.6248 163.189 53.9555 160.684 56.852 159.003C59.7609 157.338 63.0027 156.338 66.3441 156.076C69.3375 155.826 72.3513 156.111 75.2449 156.918C75.1425 157.497 75.1256 158.088 75.1947 158.672C75.2615 159.407 75.4094 160.134 75.6358 160.837C75.8508 161.503 76.1294 162.148 76.4677 162.761C76.8285 163.443 77.2896 164.054 77.7006 164.706C77.7707 164.806 77.9311 164.706 77.8609 164.596C77.0458 163.432 76.5169 162.093 76.3174 160.686C76.1985 160.023 76.1182 159.354 76.0768 158.682C76.0768 158.171 76.0768 157.679 76.0768 157.148C79.2264 158.111 82.165 159.662 84.737 161.719C85.2281 162.11 85.7393 162.521 86.1503 162.932C85.4952 163.542 84.9284 164.24 84.4664 165.007C83.7799 165.994 83.1892 167.044 82.7022 168.144C81.7848 170.354 81.1646 172.677 80.8579 175.05C80.8579 175.17 81.0283 175.21 81.0484 175.05C81.4149 172.754 82.178 170.539 83.3036 168.505C83.8294 167.499 84.4186 166.528 85.0678 165.598C85.3985 165.117 85.7493 164.596 86.0701 164.185C86.2605 163.944 86.471 163.693 86.6615 163.423C88.9959 165.709 90.9035 168.394 92.2946 171.351C91.3537 172.342 90.5695 173.471 89.9692 174.699C89.2555 175.991 88.6326 177.33 88.1048 178.708C87.1512 181.354 86.3612 184.055 85.7393 186.797C85.7393 186.918 85.8997 186.958 85.9298 186.797C86.524 184.032 87.4706 181.354 88.7463 178.829C89.3377 177.576 89.9592 176.353 90.6207 175.15C91.3107 174.029 91.9333 172.867 92.4851 171.672C93.8084 174.571 94.5768 177.692 94.7503 180.874C94.7503 180.994 94.9508 180.974 94.9408 180.874C94.5745 175.894 93.0506 171.068 90.4904 166.781C91.7032 167.302 92.9261 167.783 94.0888 168.424C95.5838 169.213 96.9716 170.19 98.2184 171.331C98.2986 171.411 98.4289 171.261 98.3287 171.181Z" fill="#263238"/>
<path d="M96.3541 167.051C95.5738 166.298 94.6852 165.667 93.7179 165.177C92.7478 164.735 91.7418 164.376 90.7109 164.104C90.5906 164.104 90.5505 164.255 90.7109 164.285C91.7359 164.553 92.7203 164.958 93.6377 165.488C94.5766 165.98 95.4808 166.536 96.344 167.152C96.3529 167.147 96.3605 167.14 96.3661 167.132C96.3717 167.124 96.3752 167.114 96.3762 167.104C96.3772 167.094 96.3757 167.084 96.3718 167.075C96.368 167.066 96.3619 167.058 96.3541 167.051Z" fill="#263238"/>
<path d="M62.6455 143.366C62.6455 143.366 64.5399 120.152 81.8002 112.624C96.2238 106.34 104.473 122.537 94.2793 132.451C86.04 140.469 72.8192 136.851 62.6455 143.366Z" fill="#FFC727"/>
<path d="M91.0918 117.115C88.4646 118.179 85.901 119.394 83.4139 120.753C81.3256 121.96 79.3168 123.299 77.3999 124.763C77.6905 124.171 77.9311 123.56 78.2218 122.989C78.6676 122.088 79.1594 121.212 79.6952 120.362C80.7525 118.604 82.029 116.987 83.4941 115.551C83.5843 115.461 83.4941 115.331 83.3538 115.421C81.8929 116.859 80.5519 118.415 79.3444 120.072C78.7473 120.919 78.1985 121.799 77.7006 122.708C77.1895 123.537 76.798 124.435 76.5379 125.374L76.3474 125.514C73.3354 127.9 70.5747 130.587 68.1082 133.533C68.1082 133.303 68.1984 133.082 68.2585 132.872C68.5893 131.739 68.9301 130.616 69.311 129.494C70.0483 127.108 71.0964 124.83 72.4283 122.718C72.4984 122.618 72.328 122.527 72.2579 122.628C70.9032 124.743 69.6975 126.95 68.6495 129.233C68.1671 130.348 67.7684 131.497 67.4567 132.671C67.2016 133.428 67.0138 134.206 66.8954 134.997C66.1436 135.949 65.4019 136.911 64.7002 137.903C57.293 148.458 53.5743 161.218 52.6722 173.987C52.4083 177.794 52.3448 181.611 52.4818 185.424C52.4994 189.274 52.8346 193.116 53.4841 196.911C53.4841 197.151 53.9051 197.071 53.895 196.841C53.8149 193.483 53.464 190.145 53.3939 186.817C53.3237 183.49 53.454 180.082 53.7247 176.734C54.2672 170.033 55.5273 163.41 57.4834 156.978C59.4905 150.392 62.4486 144.135 66.2639 138.404C66.9956 138.254 67.7173 138.054 68.4289 137.873C69.2909 137.653 70.153 137.432 71.015 137.192C72.6731 136.764 74.2848 136.173 75.8262 135.428C75.9365 135.367 75.8262 135.207 75.726 135.267C74.2044 136.097 72.5544 136.667 70.8446 136.951C69.4914 137.222 68.0881 137.392 66.735 137.703C67.9798 135.878 69.318 134.118 70.7443 132.431C74.0366 132.728 77.3554 132.481 80.5673 131.699C82.2705 131.285 83.9447 130.759 85.5789 130.125C87.313 129.464 88.9468 128.612 90.6508 127.89C90.6734 127.879 90.6908 127.86 90.6993 127.837C90.7077 127.813 90.7065 127.787 90.6959 127.765C90.6852 127.742 90.6661 127.725 90.6426 127.716C90.6191 127.708 90.5932 127.709 90.5706 127.72C87.4824 129.411 84.1077 130.515 80.6174 130.977C77.5381 131.475 74.4248 131.733 71.3057 131.749C72.5285 130.346 73.8015 128.972 75.1546 127.74C79.6852 123.42 85.0677 119.45 91.0417 117.385C91.2622 117.255 91.2021 117.075 91.0918 117.115Z" fill="#263238"/>
<path d="M77.039 117.195C76.2604 118.172 75.5536 119.203 74.9241 120.282C74.2792 121.422 73.768 122.633 73.4005 123.891C73.4005 123.891 73.4005 123.951 73.4707 123.891C74.042 122.758 74.5332 121.575 75.1145 120.443C75.6858 119.324 76.3782 118.272 77.1794 117.305C77.2595 117.225 77.1192 117.095 77.039 117.195Z" fill="#263238"/>
<path d="M93.0965 124.923C91.9695 125.539 90.78 126.033 89.5482 126.396C88.3676 126.795 87.1664 127.13 85.9498 127.399C85.8897 127.399 85.9498 127.509 85.9498 127.499C87.2221 127.361 88.4757 127.086 89.6885 126.677C90.8822 126.228 92.0471 125.706 93.1766 125.114C93.2969 125.033 93.1967 124.863 93.0965 124.923Z" fill="#263238"/>
<path d="M49.2241 139.186C49.1139 140.189 46.608 130.757 32.014 122.387C18.7531 114.779 2.94623 94.9933 15.9766 82.4941C26.421 72.4306 54.0654 94.4019 49.2241 139.186Z" fill="#FFC727"/>
<path d="M59.2675 193.272C59.0524 183.454 58.2793 173.655 56.9521 163.924C55.7998 154.979 53.7342 146.176 50.7878 137.653C49.6919 134.586 48.4657 131.579 47.1092 128.632C47.1846 127.476 47.1645 126.316 47.0491 125.164C46.9789 123.67 46.8486 122.157 46.7083 120.703C46.5679 119.25 46.4176 117.746 46.2472 116.263C46.0768 114.779 45.756 113.316 45.6959 111.843C45.7008 111.828 45.7021 111.811 45.6997 111.796C45.6973 111.78 45.6912 111.765 45.6819 111.752C45.6726 111.74 45.6604 111.729 45.6463 111.722C45.6321 111.715 45.6165 111.711 45.6007 111.711C45.5848 111.711 45.5692 111.715 45.5551 111.722C45.541 111.729 45.5288 111.74 45.5195 111.752C45.5102 111.765 45.5041 111.78 45.5016 111.796C45.4992 111.811 45.5005 111.828 45.5055 111.843C45.8027 113.39 45.9803 114.959 46.0367 116.533C46.1469 117.967 46.2271 119.4 46.2672 120.834C46.3073 122.267 46.2672 123.71 46.2672 125.144C46.2672 125.665 46.2672 126.216 46.2672 126.767C44.894 123.871 43.4306 121.014 41.8369 118.227C42.8392 112.213 41.5362 105.849 40.3033 99.9348C40.3033 99.8145 40.0928 99.8746 40.1229 99.9949C40.7422 103.082 41.0777 106.219 41.1252 109.367C41.1252 111.853 41.0651 114.378 41.0551 116.824C40.7043 116.233 40.3534 115.631 39.9926 115.05C38.1082 111.956 36.1035 108.949 33.9786 106.029C34.1577 104.594 34.1104 103.139 33.8382 101.719C33.6195 100.123 33.2845 98.5451 32.8359 96.9979C32.3648 95.4543 31.8336 93.9909 31.2121 92.4473C30.5907 90.9037 29.7387 89.4403 29.1373 87.9168C29.0771 87.7865 28.8867 87.9168 28.9569 87.9969C29.7391 89.4498 30.3545 90.9864 30.7911 92.5776C31.2696 94.0688 31.6678 95.5845 31.9839 97.1182C32.2946 98.6518 32.5452 100.195 32.7557 101.739C32.9061 102.741 32.9963 103.834 33.1667 104.876C30.0459 100.675 26.6329 96.6995 22.9529 92.9786C22.8626 92.8884 22.7424 93.0287 22.8226 93.1189C28.3835 99.3727 33.3498 106.131 37.6572 113.306L38.1283 114.118C37.3264 113.617 36.4042 113.216 35.6424 112.795C34.1189 111.946 32.6521 111.151 31.2422 110.409C29.8322 109.667 28.4524 108.912 27.1025 108.144C26.3909 107.753 25.6993 107.342 24.9776 106.971C24.1155 106.583 23.2874 106.124 22.5018 105.598C22.3915 105.518 22.2713 105.688 22.3915 105.748C23.7948 106.52 25.0377 107.673 26.4009 108.535C27.7641 109.397 29.1573 110.249 30.5706 111.041C33.1667 112.484 35.9832 113.526 38.5893 115.05C40.3668 118.157 42.004 121.335 43.5008 124.582C41.9472 123.58 40.3735 122.638 38.7597 121.746C37.7574 121.164 36.6949 120.593 35.6424 120.042C34.5969 119.558 33.6085 118.96 32.6956 118.258C32.6054 118.187 32.4851 118.318 32.5653 118.398C34.2646 119.929 36.1506 121.239 38.1784 122.297C40.0527 123.4 41.9471 124.452 43.9017 125.414C45.4587 128.836 46.8653 132.317 48.1216 135.859C54.2659 153.259 56.5211 171.722 57.6037 190.065C57.9244 195.538 58.0848 201.001 58.155 206.473C58.2251 211.946 57.9344 217.409 57.9445 222.872C57.9445 223.032 58.2151 223.072 58.2351 222.872C58.8967 218.03 59.0069 213.099 59.2375 208.207C59.468 203.316 59.4179 198.244 59.2675 193.272Z" fill="#263238"/>
<path d="M32.7457 114.529C30.0808 113.351 27.49 112.012 24.9876 110.519C22.4513 109.095 19.9952 107.533 17.6305 105.839C17.6305 105.839 17.5403 105.839 17.6305 105.909C19.8514 107.717 22.1959 109.368 24.6468 110.85C27.2354 112.302 29.9137 113.588 32.6655 114.699C32.7658 114.729 32.856 114.529 32.7457 114.529Z" fill="#263238"/>
<path d="M36.9756 94.8529C36.7651 94.0009 36.4945 93.169 36.2038 92.3471C36.2152 92.3328 36.2214 92.3152 36.2214 92.297C36.2214 92.2787 36.2152 92.261 36.2038 92.2468C36.0234 91.7757 35.8229 91.3046 35.6325 90.8436C35.6144 90.7847 35.5909 90.7277 35.5623 90.6732C35.5623 90.583 35.4921 90.4927 35.452 90.4025C35.452 90.4025 35.5423 90.7233 35.5924 90.8837C35.6112 90.976 35.638 91.0666 35.6726 91.1543C36.6354 94.4013 37.3591 97.7146 37.8376 101.067C37.8438 101.085 37.8553 101.1 37.8705 101.111C37.8858 101.122 37.9041 101.128 37.9228 101.128C37.9415 101.128 37.9598 101.122 37.9751 101.111C37.9903 101.1 38.0018 101.085 38.008 101.067C37.8591 98.9682 37.5134 96.8875 36.9756 94.8529Z" fill="#263238"/>
<path d="M74.6936 196.801L73.6511 209.149L70.4637 246.807H36.3041L33.1166 209.149L32.0742 196.801H74.6936Z" fill="#37474F"/>
<path d="M74.6936 196.801L73.6511 209.149H33.1166L32.0742 196.801H74.6936Z" fill="#263238"/>
<path d="M78.0414 191.849H28.7263V203.697H78.0414V191.849Z" fill="#37474F"/>
<path d="M249.843 100.314C277.544 100.314 300 77.8579 300 50.157C300 22.4561 277.544 0 249.843 0C222.142 0 199.686 22.4561 199.686 50.157C199.686 77.8579 222.142 100.314 249.843 100.314Z" fill="#A6A6A6"/>
<path d="M281.447 34.2198C281.447 34.2198 276.976 70.0333 269.629 78.0921C260.799 87.7546 254.394 86.3413 250.835 91.333C247.267 86.3213 240.862 87.7647 232.032 78.0921C224.674 70.0734 220.214 34.2198 220.214 34.2198C239.589 24.8078 250.835 14.2733 250.835 14.2733C251.176 14.604 262.382 24.9582 281.447 34.2198Z" fill="#FFC727"/>
<path opacity="0.1" d="M250.795 14.2833V91.333C247.227 86.3213 240.822 87.7647 231.991 78.0921C224.634 70.0734 220.174 34.2198 220.174 34.2198C239.549 24.8078 250.795 14.2733 250.795 14.2733V14.2833Z" fill="#1B1B1B"/>
<path d="M224.955 37.1066C224.955 37.1066 228.734 67.3571 234.978 74.1931C242.436 82.3721 247.848 81.2094 250.865 85.3892C253.872 81.1794 259.285 82.3822 266.752 74.1931C272.957 67.3872 276.726 37.1066 276.726 37.1066C260.368 29.158 250.865 20.2473 250.865 20.2473C250.865 20.2473 241.323 29.158 224.955 37.1066Z" fill="#FFC727"/>
<path opacity="0.3" d="M276.696 37.1065C276.696 37.1065 272.917 67.3571 266.672 74.193C259.215 82.3621 253.812 81.2094 250.795 85.3691V20.2572C251.116 20.5379 260.578 29.2783 276.696 37.1065Z" fill="white"/>
<path d="M256.458 46.6388V51.3398H254.805V46.6388C254.831 46.1148 254.751 45.5909 254.569 45.0988C254.387 44.6068 254.107 44.1569 253.745 43.7766C253.384 43.3963 252.949 43.0935 252.467 42.8865C251.984 42.6796 251.465 42.5729 250.941 42.5729C250.416 42.5729 249.897 42.6796 249.415 42.8865C248.932 43.0935 248.497 43.3963 248.136 43.7766C247.775 44.1569 247.494 44.6068 247.312 45.0988C247.13 45.5909 247.05 46.1148 247.077 46.6388V51.3398H245.383V46.6388C245.326 45.8745 245.428 45.1069 245.682 44.3838C245.936 43.6607 246.336 42.9978 246.858 42.4364C247.379 41.875 248.011 41.4272 248.714 41.121C249.416 40.8148 250.174 40.6567 250.941 40.6567C251.707 40.6567 252.465 40.8148 253.167 41.121C253.87 41.4272 254.502 41.875 255.023 42.4364C255.545 42.9978 255.945 43.6607 256.199 44.3838C256.453 45.1069 256.555 45.8745 256.499 46.6388H256.458Z" fill="white"/>
<path d="M243.167 47.8115V61.8443H258.634V47.8115H243.167ZM252.189 58.4162H249.442L250.094 55.3391C249.89 55.2132 249.723 55.0362 249.608 54.8256C249.494 54.615 249.437 54.3782 249.443 54.1387C249.448 53.8993 249.516 53.6654 249.64 53.4604C249.764 53.2554 249.939 53.0864 250.149 52.9701C250.358 52.8539 250.595 52.7945 250.834 52.7977C251.074 52.801 251.308 52.8669 251.514 52.9888C251.721 53.1108 251.891 53.2845 252.01 53.4929C252.128 53.7012 252.19 53.9368 252.189 54.1763C252.189 54.4086 252.13 54.6371 252.018 54.8404C251.905 55.0437 251.744 55.2153 251.547 55.3391L252.189 58.4162Z" fill="white"/>
<path d="M177.193 66.1209C188.49 71.1326 195.416 91.8809 187.457 110.755C180.21 127.915 160.144 137.277 148.366 133.057C135.847 128.587 131.988 114.794 137.621 106.505C143.074 98.4864 152.085 96.0908 154.49 88.7837C155.643 85.2856 154.38 79.1914 155.854 73.9491C157.538 68.1055 168.122 62.0614 177.193 66.1209Z" fill="#263238"/>
<path d="M160.986 134.24C167.221 132.948 173.026 130.092 177.855 125.94C182.678 121.757 186.475 116.52 188.951 110.635C191.545 104.778 192.518 98.3323 191.767 91.9711C190.916 85.6531 188.366 79.6844 184.39 74.7009C188.097 79.8078 190.44 85.7763 191.196 92.0413C191.531 95.1494 191.443 98.2885 190.935 101.373C190.409 104.459 189.507 107.468 188.249 110.334C187.021 113.211 185.495 115.952 183.698 118.513C180.068 123.645 175.291 127.86 169.746 130.822C166.988 132.339 164.043 133.488 160.986 134.24Z" fill="#263238"/>
<path d="M135.667 108.77C136.428 106.976 137.466 105.311 138.744 103.839C140.004 102.366 141.43 101.044 142.994 99.8997C144.577 98.757 146.141 97.5642 147.654 96.3113C149.201 95.0676 150.596 93.648 151.814 92.0814C152.421 91.2808 152.958 90.429 153.418 89.5355C153.838 88.62 154.135 87.6526 154.3 86.6588C154.578 84.709 154.739 82.7442 154.781 80.7751C154.853 78.8384 155.169 76.9187 155.723 75.0617C156.309 73.2 157.229 71.4609 158.44 69.9297C157.119 71.3875 156.098 73.0903 155.433 74.9414C154.789 76.8128 154.395 78.7607 154.26 80.7349C154.059 82.7396 154.029 84.6441 153.669 86.5285C153.505 87.4622 153.215 88.3692 152.807 89.2248C152.363 90.0694 151.843 90.8713 151.253 91.6203C148.957 94.7075 145.73 96.9929 142.693 99.4286C141.133 100.651 139.723 102.054 138.493 103.608C137.267 105.157 136.311 106.903 135.667 108.77Z" fill="#263238"/>
<path d="M258.613 247.013C258.032 244.747 222.288 190.26 219.672 189.078C219.372 188.927 200.989 200.234 200.989 200.234C200.207 201.146 167.34 191.854 167.34 191.854L164.333 232.058L225.155 234.854C225.155 234.854 233.044 240.227 240.28 244.667C243.355 246.673 246.545 248.497 249.833 250.13C252.76 251.112 259.215 249.268 258.613 247.013Z" fill="#EB9481"/>
<path d="M249.813 250.12C248.66 249.749 244.721 247.424 240.271 244.667C233.034 240.237 225.155 234.854 225.155 234.854L211.614 234.233L192.72 198.66C197.31 199.793 200.738 200.524 200.999 200.224C200.999 200.224 219.372 188.927 219.672 189.078C222.289 190.26 258.032 244.747 258.613 247.013C259.195 249.278 252.76 251.112 249.813 250.12Z" fill="white"/>
<path d="M258.974 247.113C258.353 244.788 222.429 190.31 219.743 189.098C218.74 188.637 209.789 193.358 200.989 200.234L224.193 235.315C224.193 235.315 246.846 249.348 249.923 250.351C253 251.353 259.586 249.428 258.974 247.113Z" fill="#FFC727"/>
<path d="M256.278 247.764C250.033 238.743 225.687 201.958 220.194 192.636C220.194 192.526 220.194 192.556 220.194 192.636C226.589 201.406 250.635 238.423 256.378 247.764C256.548 247.865 256.408 247.955 256.278 247.764Z" fill="#263238"/>
<path d="M245.653 248.145C244.957 247.147 244.476 246.015 244.239 244.821C244.003 243.627 244.017 242.397 244.28 241.209C244.739 239.068 246.006 237.187 247.818 235.957C247.818 235.957 247.938 236.017 247.888 236.067C246.277 237.57 245.199 239.557 244.818 241.727C244.436 243.897 244.772 246.133 245.773 248.095C245.774 248.109 245.77 248.123 245.762 248.135C245.754 248.146 245.743 248.156 245.73 248.161C245.717 248.166 245.703 248.168 245.689 248.165C245.675 248.162 245.663 248.155 245.653 248.145Z" fill="#263238"/>
<path d="M226.999 237.621C224.544 234.002 223.04 228.911 224.524 224.671C224.584 224.51 224.814 224.59 224.834 224.731C225.267 229.033 226.158 233.277 227.491 237.39C227.521 237.455 227.525 237.53 227.5 237.598C227.476 237.665 227.425 237.721 227.36 237.751C227.295 237.782 227.221 237.785 227.153 237.761C227.085 237.736 227.03 237.686 226.999 237.621Z" fill="#263238"/>
<path d="M229.966 239.676C227.501 236.057 225.957 230.965 227.491 226.725C227.551 226.565 227.781 226.645 227.791 226.796C228.229 231.095 229.122 235.335 230.458 239.445C230.473 239.477 230.481 239.512 230.483 239.548C230.485 239.583 230.479 239.619 230.467 239.652C230.455 239.686 230.437 239.717 230.413 239.743C230.389 239.769 230.36 239.791 230.327 239.806C230.295 239.821 230.26 239.83 230.225 239.831C230.189 239.833 230.153 239.828 230.12 239.816C230.086 239.803 230.056 239.785 230.029 239.761C230.003 239.737 229.982 239.708 229.966 239.676Z" fill="#263238"/>
<path d="M232.923 241.771C230.468 238.152 228.914 233.06 230.448 228.82C230.508 228.66 230.738 228.74 230.758 228.89C231.187 233.19 232.078 237.431 233.415 241.54C233.445 241.605 233.448 241.68 233.424 241.747C233.4 241.815 233.349 241.87 233.284 241.901C233.219 241.931 233.144 241.935 233.077 241.91C233.009 241.886 232.954 241.836 232.923 241.771Z" fill="#263238"/>
<path d="M235.88 243.865C233.424 240.247 231.921 235.165 233.414 230.915C233.414 230.755 233.705 230.835 233.715 230.985C234.151 235.285 235.045 239.525 236.381 243.635C236.397 243.698 236.391 243.765 236.362 243.824C236.334 243.883 236.286 243.931 236.226 243.958C236.167 243.985 236.1 243.991 236.037 243.974C235.973 243.957 235.918 243.919 235.88 243.865Z" fill="#263238"/>
<path d="M213.047 200.645C210.361 196.545 216.736 192.345 219.432 196.465C222.128 200.584 215.753 204.764 213.047 200.645Z" fill="#263238"/>
<path d="M225.015 244.136C226.268 240.488 225.887 236.428 225.967 232.639C225.962 232.555 225.937 232.473 225.894 232.4C225.851 232.327 225.792 232.265 225.72 232.22C225.648 232.175 225.567 232.148 225.483 232.14C225.398 232.133 225.314 232.146 225.235 232.178C225.23 232.16 225.22 232.144 225.207 232.131C225.194 232.117 225.177 232.108 225.159 232.103C225.141 232.098 225.122 232.098 225.104 232.102C225.086 232.106 225.069 232.115 225.055 232.128C221.881 234.612 219.413 237.885 217.898 241.62C217.066 243.805 217.096 247.123 219.853 247.965C222.609 248.807 224.293 246.271 225.015 244.136ZM222.108 246.301C217.888 248.566 218.58 242.963 219.261 241.37C219.724 240.35 220.253 239.362 220.845 238.413C222.101 236.467 223.456 234.587 224.905 232.78C224.744 234.634 224.754 236.498 224.664 238.353C224.564 240.628 224.423 245.058 222.108 246.301Z" fill="#263238"/>
<path d="M214.17 220.691C211.974 222.546 213.247 225.613 214.891 227.287C217.756 230.12 221.317 232.149 225.215 233.17C225.233 233.175 225.251 233.176 225.268 233.172C225.286 233.169 225.302 233.162 225.317 233.151C225.331 233.14 225.343 233.127 225.351 233.111C225.36 233.095 225.365 233.078 225.366 233.06C225.45 233.056 225.532 233.032 225.605 232.99C225.678 232.948 225.74 232.89 225.787 232.82C225.834 232.75 225.864 232.67 225.874 232.586C225.884 232.503 225.875 232.418 225.847 232.339C224.273 228.9 223.01 225.011 220.424 222.155C218.911 220.491 216.244 218.927 214.17 220.691ZM222.389 227.607C223.211 229.281 223.932 230.985 224.814 232.619C222.769 231.538 220.782 230.35 218.861 229.061C217.94 228.421 217.062 227.722 216.234 226.966C214.971 225.773 212.125 220.902 216.886 221.313C219.522 221.583 221.416 225.593 222.389 227.597V227.607Z" fill="#263238"/>
<path d="M177.504 183.334C177.504 183.334 126.385 159.779 103.602 160C76.4584 160.26 55.2891 192.435 88.5166 215.74C117.885 236.338 210.661 235.055 210.661 235.055L189.081 196.094C170.049 189.399 150.107 185.651 129.943 184.978L176.722 194.6L177.504 183.334Z" fill="#455A64"/>
<path d="M176.582 191.082C172.573 190.08 168.493 189.358 164.424 188.617C160.354 187.875 156.204 187.203 152.075 186.612C143.848 185.336 135.561 184.479 127.247 184.046C126.475 184.046 125.693 183.986 124.911 183.956L124.41 183.795C124.019 183.675 123.628 183.545 123.238 183.444C122.496 183.254 121.744 183.094 121.002 182.923C119.449 182.582 117.885 182.302 116.341 181.921C116.332 181.918 116.322 181.916 116.313 181.917C116.303 181.917 116.293 181.92 116.285 181.924C116.276 181.928 116.268 181.934 116.261 181.941C116.255 181.948 116.25 181.957 116.246 181.966C116.243 181.975 116.241 181.985 116.242 181.995C116.242 182.005 116.245 182.014 116.249 182.023C116.253 182.032 116.259 182.04 116.266 182.046C116.274 182.053 116.282 182.058 116.291 182.061C117.845 182.512 119.359 183.064 120.902 183.525L122.245 183.906C119.188 183.855 116.141 183.906 113.084 183.956C112.984 183.956 112.974 184.106 113.084 184.106C117.234 184.106 121.393 184.397 125.533 184.748C129.673 185.098 133.742 185.459 137.832 185.97C146.101 186.973 154.35 188.306 162.559 189.729C167.17 190.531 171.781 191.423 176.432 191.924C176.487 191.934 176.544 191.933 176.598 191.921C176.653 191.909 176.705 191.886 176.751 191.854C176.797 191.822 176.837 191.781 176.867 191.734C176.897 191.687 176.918 191.634 176.928 191.578C176.938 191.523 176.937 191.466 176.924 191.412C176.912 191.357 176.89 191.305 176.858 191.259C176.826 191.213 176.785 191.173 176.737 191.143C176.69 191.113 176.637 191.092 176.582 191.082Z" fill="#263238"/>
<path d="M201.179 233.271C199.856 230.795 198.764 228.179 197.571 225.633C196.378 223.087 195.175 220.531 193.972 217.985C191.567 212.903 182.887 195.773 181.944 194.56C181.932 194.542 181.914 194.528 181.892 194.522C181.871 194.517 181.848 194.519 181.828 194.529C181.809 194.539 181.793 194.556 181.785 194.576C181.777 194.597 181.776 194.62 181.784 194.641C182.155 195.944 187.537 207.27 188.8 209.796C191.286 214.808 193.922 219.819 196.518 224.831C197.26 226.254 198.022 227.668 198.784 229.091C199.545 230.514 200.337 231.907 201.019 233.361C201.089 233.431 201.229 233.361 201.179 233.271Z" fill="#263238"/>
<path d="M80.3575 246.481C81.0291 244.236 118.907 191.203 121.564 190.13C121.864 189.99 139.786 202.008 139.786 202.008C140.538 202.96 173.745 194.991 173.745 194.991L175.199 235.285L114.307 235.676C114.307 235.676 106.218 240.688 98.8105 244.878C95.6634 246.767 92.403 248.461 89.0478 249.95C86.0508 250.802 79.706 248.707 80.3575 246.481Z" fill="#EB9481"/>
<path d="M89.0678 249.93C92.4226 248.446 95.68 246.752 98.8206 244.858C106.228 240.718 114.317 235.646 114.317 235.646L127.868 235.566L148.126 200.765C143.495 201.717 140.037 202.308 139.796 202.008C139.796 202.008 121.884 189.98 121.574 190.13C118.917 191.203 81.0391 244.256 80.3676 246.471C79.696 248.687 86.0508 250.802 89.0678 249.93Z" fill="white"/>
<path d="M80.0368 246.562C80.7485 244.256 118.807 191.253 121.534 190.15C122.536 189.719 131.306 194.791 139.826 202.008L115.249 236.157C115.249 236.157 92.0649 249.268 88.9476 250.19C85.8303 251.112 79.3552 248.857 80.0368 246.562Z" fill="#FFC727"/>
<path d="M82.703 247.323C89.2984 238.593 115.089 202.76 120.942 193.628C120.992 193.558 120.942 193.518 120.892 193.628C114.166 202.138 88.6669 238.172 82.5627 247.253C82.4324 247.404 82.5627 247.504 82.703 247.323Z" fill="#263238"/>
<path d="M93.2977 248.115C94.0326 247.147 94.559 246.037 94.8436 244.855C95.1283 243.674 95.165 242.446 94.9516 241.249C94.5789 239.09 93.3867 237.158 91.6238 235.857C91.5737 235.857 91.5036 235.917 91.5537 235.957C93.0965 237.522 94.0898 239.546 94.3844 241.724C94.679 243.902 94.259 246.116 93.1875 248.035C93.1474 248.115 93.2476 248.185 93.2977 248.115Z" fill="#263238"/>
<path d="M112.362 238.302C114.958 234.784 116.662 229.752 115.369 225.462C115.369 225.292 115.088 225.362 115.068 225.513C114.463 229.792 113.405 233.996 111.911 238.052C111.9 238.108 111.906 238.167 111.931 238.219C111.955 238.271 111.995 238.314 112.045 238.342C112.095 238.37 112.153 238.381 112.21 238.374C112.267 238.367 112.32 238.342 112.362 238.302Z" fill="#263238"/>
<path d="M109.315 240.277C111.921 236.759 113.625 231.737 112.322 227.437C112.272 227.267 112.031 227.347 112.011 227.487C111.412 231.768 110.354 235.972 108.854 240.026C108.839 240.085 108.844 240.146 108.868 240.202C108.892 240.257 108.934 240.303 108.987 240.331C109.04 240.36 109.101 240.37 109.16 240.361C109.22 240.351 109.274 240.321 109.315 240.277Z" fill="#263238"/>
<path d="M106.278 242.262C108.874 238.733 110.588 233.712 109.285 229.412C109.285 229.241 108.994 229.321 108.974 229.462C108.37 233.742 107.312 237.945 105.817 242.001C105.807 242.058 105.814 242.117 105.839 242.17C105.864 242.223 105.904 242.266 105.955 242.295C106.006 242.323 106.064 242.336 106.122 242.33C106.18 242.324 106.234 242.3 106.278 242.262Z" fill="#263238"/>
<path d="M103.231 244.236C105.837 240.708 107.541 235.686 106.238 231.386C106.188 231.226 105.957 231.296 105.927 231.446C105.327 235.727 104.268 239.931 102.77 243.986C102.755 244.044 102.76 244.106 102.784 244.161C102.808 244.216 102.85 244.262 102.903 244.291C102.956 244.319 103.017 244.33 103.076 244.32C103.136 244.31 103.19 244.281 103.231 244.236Z" fill="#263238"/>
<path d="M127.758 201.948C130.615 197.938 124.4 193.508 121.544 197.517C118.687 201.527 124.901 205.957 127.758 201.948Z" fill="#263238"/>
<path d="M119.088 248.957C121.874 248.226 122.045 244.948 121.293 242.693C119.926 238.902 117.59 235.536 114.517 232.93C114.447 232.87 114.377 232.93 114.337 232.93C114.26 232.897 114.176 232.882 114.092 232.886C114.008 232.891 113.926 232.915 113.853 232.957C113.78 232.999 113.718 233.057 113.671 233.127C113.625 233.197 113.595 233.277 113.585 233.361C113.525 237.15 112.984 241.199 114.076 244.888C114.718 247.093 116.442 249.649 119.088 248.957ZM114.668 239.164C114.668 237.3 114.728 235.446 114.668 233.591C116.042 235.453 117.32 237.383 118.497 239.375C119.055 240.343 119.547 241.347 119.97 242.382C120.581 244.006 121.052 249.629 116.963 247.203C114.638 245.88 114.678 241.39 114.668 239.164Z" fill="#263238"/>
<path d="M119.539 223.147C116.843 225.903 115.429 229.732 113.715 233.11C113.686 233.189 113.674 233.273 113.683 233.356C113.691 233.44 113.719 233.52 113.763 233.591C113.808 233.662 113.869 233.722 113.94 233.765C114.012 233.809 114.093 233.835 114.176 233.842C114.174 233.86 114.176 233.879 114.183 233.896C114.189 233.913 114.2 233.928 114.214 233.94C114.228 233.952 114.245 233.96 114.263 233.964C114.28 233.968 114.299 233.967 114.317 233.962C118.254 233.1 121.894 231.216 124.871 228.5C126.575 226.886 127.979 223.879 125.874 221.934C123.769 219.99 121.113 221.583 119.539 223.147ZM123.107 222.455C127.888 222.235 124.841 226.996 123.538 228.129C122.687 228.863 121.782 229.533 120.832 230.133C118.859 231.346 116.825 232.457 114.738 233.461C115.68 231.857 116.482 230.183 117.364 228.54C118.446 226.595 120.451 222.586 123.107 222.455Z" fill="#263238"/>
<path d="M175.289 182.562C175.289 182.562 226.789 166.826 254.323 170.003C281.286 173.11 292.482 206.859 266.271 225.282C237.654 245.399 129.572 238.834 129.572 238.834L152.526 197.437C152.526 197.437 189.282 188.627 222.84 188.827L175.73 196.585L175.289 182.562Z" fill="#455A64"/>
<path d="M150.952 200.103C150.979 200.036 150.996 199.965 151.002 199.893V199.722C151.002 199.592 151.073 199.462 151.103 199.332C151.173 199.051 151.263 198.79 151.353 198.52C151.443 198.249 151.564 197.998 151.674 197.738C151.802 197.485 151.946 197.241 152.105 197.006C152.105 197.006 152.105 197.006 152.165 196.956H152.225H152.285C156.295 196.084 183.849 191.373 187.949 190.792C192.048 190.21 196.218 189.699 200.367 189.238C208.635 188.291 216.945 187.759 225.266 187.644H227.701C227.862 187.584 228.042 187.554 228.212 187.504C228.603 187.394 228.994 187.283 229.395 187.203C230.147 187.033 230.899 186.903 231.65 186.772C233.214 186.482 234.788 186.271 236.351 185.94C236.442 185.94 236.482 186.061 236.351 186.081C234.788 186.472 233.254 186.973 231.68 187.364L230.327 187.684C233.384 187.765 236.432 187.915 239.489 188.105C239.579 188.105 239.589 188.256 239.489 188.256C235.339 188.125 231.169 188.256 227.02 188.396C222.87 188.536 218.79 188.787 214.691 189.138C206.382 189.839 198.092 190.822 189.823 191.914C185.192 192.526 157.137 197.417 152.476 197.748H152.416C152.382 197.857 152.342 197.964 152.295 198.069C152.175 198.329 152.055 198.58 151.914 198.83C151.774 199.081 151.664 199.322 151.524 199.552L151.303 199.893L151.193 200.063C151.149 200.121 151.109 200.181 151.072 200.244C151.062 200.274 150.902 200.204 150.952 200.103Z" fill="#263238"/>
<path d="M138.172 236.117C139.596 233.702 140.799 231.106 142.092 228.63L145.991 221.132C148.587 216.121 157.949 199.382 158.891 198.199C158.891 198.119 159.071 198.199 159.041 198.289C158.62 199.572 152.797 210.668 151.453 213.144C148.767 218.095 145.931 222.957 143.144 227.848C142.352 229.251 141.52 230.625 140.718 232.018C139.916 233.411 139.044 234.774 138.313 236.197C138.307 236.207 138.3 236.215 138.292 236.221C138.284 236.228 138.274 236.233 138.264 236.235C138.254 236.238 138.243 236.239 138.232 236.238C138.222 236.236 138.212 236.233 138.202 236.228C138.193 236.222 138.185 236.215 138.179 236.207C138.172 236.198 138.167 236.189 138.165 236.179C138.162 236.168 138.161 236.158 138.162 236.147C138.164 236.137 138.167 236.127 138.172 236.117Z" fill="#263238"/>
<path d="M162.469 108.66C139.826 120.869 118.627 135.613 114.758 145.686C112.322 152.031 115.109 161.363 117.765 168.199C119.058 171.527 148.657 161.343 146.923 157.945C142.723 149.746 141.26 146.428 141.26 146.428C141.691 145.536 166.318 123.485 173.184 113.602C182.736 99.8395 172.372 103.308 162.469 108.66Z" fill="#EB9481"/>
<path d="M138.042 141.487C138.972 142.153 139.757 143.002 140.347 143.982C140.981 144.938 141.392 146.024 141.55 147.16C140.869 146.228 140.307 145.306 139.716 144.383C139.125 143.461 138.553 142.519 138.042 141.487Z" fill="#263238"/>
<path d="M129.783 126.933L146.732 143.06C146.732 143.06 168.403 123.274 174.607 112.579C180.812 101.884 176.081 100.972 163.481 107.197C150.882 113.421 129.783 126.933 129.783 126.933Z" fill="#FFC727"/>
<path d="M129.783 126.933L146.732 143.06C146.732 143.06 168.403 123.274 174.607 112.579C180.812 101.884 176.081 100.972 163.481 107.197C150.882 113.421 129.783 126.933 129.783 126.933Z" fill="#FFC727"/>
<path d="M150.14 138.72C144.858 134.217 139.86 129.39 135.175 124.266C135.115 124.206 135.225 124.116 135.286 124.176C136.549 125.519 144.397 132.496 150.261 138.63C150.331 138.7 150.22 138.79 150.14 138.72Z" fill="#263238"/>
<path opacity="0.1" d="M174.577 112.569C168.383 123.264 146.712 143.06 146.712 143.06L140.839 137.477L176.923 104.19C177.835 105.483 177.123 108.209 174.577 112.569Z" fill="#1B1B1B"/>
<path d="M155.683 140.214L151.022 167.337C151.022 167.337 172.071 179.445 207.604 168.53C207.604 168.53 201.53 124.527 188.009 109.322C181.243 101.714 173.134 102.135 167.882 107.317C166.559 108.61 155.603 122.011 153.849 129.85C152.275 136.736 155.683 140.214 155.683 140.214Z" fill="#EB9481"/>
<path d="M155.683 140.214L152.606 151.42L168.493 146.589L205.65 151.42C205.65 151.42 201.51 124.557 187.989 109.322C181.223 101.714 173.114 102.135 167.862 107.317C166.539 108.61 155.583 122.011 153.829 129.85C152.275 136.736 155.683 140.214 155.683 140.214Z" fill="#FFC727"/>
<path d="M158.881 141.978C160.847 141.571 162.835 141.274 164.835 141.086C165.837 141.006 166.839 140.975 167.842 140.965H169.275C169.806 140.965 170.277 141.066 170.859 141.076C170.919 141.076 170.919 141.156 170.859 141.156C170.357 141.156 169.856 141.256 169.365 141.296L167.872 141.406L164.865 141.637C162.86 141.767 160.855 141.918 158.851 142.118C158.839 142.109 158.83 142.096 158.825 142.082C158.82 142.068 158.819 142.053 158.822 142.039C158.825 142.024 158.832 142.011 158.843 142C158.853 141.989 158.866 141.981 158.881 141.978Z" fill="#263238"/>
<path d="M167.01 147.962C167.01 147.962 165.005 153.244 160.274 154.677C160.274 154.677 159.582 149.886 160.976 148.002C161.667 147.06 165.376 145.997 165.927 146.578C166.335 147.001 166.698 147.464 167.01 147.962Z" fill="#FFC727"/>
<path d="M167.01 147.962C167.01 147.962 165.005 153.244 160.274 154.677C160.274 154.677 159.582 149.886 160.976 148.002C161.667 147.06 165.376 145.997 165.927 146.578C166.335 147.001 166.698 147.464 167.01 147.962Z" fill="#FFC727"/>
<path d="M167.01 147.962C166.441 149.511 165.58 150.937 164.474 152.162C163.919 152.785 163.289 153.337 162.599 153.805C161.9 154.272 161.142 154.643 160.344 154.908L160.083 154.998V154.718C159.91 153.55 159.856 152.368 159.923 151.189C159.905 149.969 160.254 148.771 160.925 147.751C161.392 147.356 161.935 147.06 162.519 146.879C163.078 146.681 163.651 146.527 164.233 146.418C164.524 146.363 164.819 146.333 165.115 146.328C165.428 146.284 165.747 146.359 166.007 146.538C166.397 146.972 166.733 147.449 167.01 147.962ZM167.01 147.962C166.677 147.49 166.301 147.051 165.887 146.649C165.651 146.523 165.377 146.484 165.115 146.538C164.832 146.574 164.551 146.624 164.273 146.689C163.715 146.816 163.168 146.99 162.639 147.21C162.12 147.395 161.64 147.678 161.226 148.042C160.638 148.992 160.339 150.092 160.364 151.209C160.326 152.357 160.372 153.506 160.504 154.647L160.204 154.457C160.963 154.219 161.688 153.882 162.359 153.455C163.037 153.024 163.662 152.516 164.223 151.941C165.363 150.776 166.304 149.431 167.01 147.962Z" fill="#263238"/>
<path opacity="0.1" d="M167.01 147.962C166.699 147.466 166.34 147.003 165.937 146.579L165.847 146.518L165.727 146.468H165.616C164.907 146.415 164.194 146.507 163.521 146.739C163.759 147.434 164.061 148.105 164.424 148.744C164.862 149.246 165.448 149.597 166.097 149.746C166.455 149.18 166.76 148.583 167.01 147.962Z" fill="#050400"/>
<path d="M167.561 148.142C167.561 148.142 171.27 153.936 174.577 155.409C174.577 155.409 176.051 151.731 174.457 148.593C173.745 147.19 168.704 145.676 168.263 146.388C167.947 146.937 167.711 147.527 167.561 148.142Z" fill="#FFC727"/>
<path d="M167.561 148.142C167.561 148.142 171.27 153.936 174.577 155.409C174.577 155.409 176.051 151.731 174.457 148.593C173.745 147.19 168.704 145.676 168.263 146.388C167.947 146.937 167.711 147.527 167.561 148.142Z" fill="#FFC727"/>
<path d="M167.561 148.142C168.549 149.516 169.62 150.828 170.768 152.071C171.332 152.693 171.935 153.279 172.573 153.825C173.175 154.373 173.849 154.835 174.577 155.199L174.267 155.329C174.688 154.115 174.889 152.835 174.858 151.55C174.835 150.915 174.731 150.285 174.547 149.676C174.459 149.369 174.345 149.071 174.206 148.784C174.08 148.515 173.882 148.286 173.635 148.122C172.572 147.394 171.387 146.861 170.137 146.548C169.808 146.457 169.473 146.387 169.135 146.338C168.839 146.256 168.528 146.256 168.232 146.338C167.907 146.896 167.68 147.507 167.561 148.142ZM167.561 148.142C167.672 147.481 167.903 146.846 168.242 146.268C168.553 146.116 168.903 146.063 169.245 146.117C169.583 146.144 169.918 146.198 170.247 146.278C171.563 146.544 172.817 147.054 173.946 147.781C174.248 147.987 174.493 148.267 174.657 148.593C174.809 148.897 174.937 149.212 175.038 149.535C175.24 150.186 175.358 150.86 175.389 151.54C175.448 152.906 175.23 154.27 174.748 155.549L174.667 155.78L174.437 155.67C173.657 155.281 172.935 154.785 172.292 154.196C171.658 153.621 171.065 153.001 170.518 152.342C169.417 151.027 168.427 149.622 167.561 148.142Z" fill="#263238"/>
<path opacity="0.1" d="M168.413 149.415C169.088 149.051 169.644 148.502 170.017 147.831C170.202 147.388 170.288 146.909 170.267 146.428C169.265 146.168 168.373 146.107 168.202 146.428C167.895 146.978 167.665 147.569 167.521 148.182C167.521 148.182 167.852 148.663 168.413 149.415Z" fill="#050400"/>
<path d="M169.215 146.588C169.141 146.152 168.939 145.748 168.635 145.426C168.332 145.105 167.939 144.881 167.508 144.782C167.077 144.684 166.626 144.716 166.213 144.874C165.799 145.032 165.442 145.309 165.187 145.67C164.931 146.031 164.788 146.46 164.776 146.902C164.765 147.344 164.884 147.78 165.12 148.154C165.356 148.528 165.698 148.824 166.102 149.004C166.506 149.184 166.955 149.24 167.391 149.164C167.974 149.064 168.493 148.736 168.835 148.254C169.177 147.771 169.314 147.172 169.215 146.588Z" fill="#FFC727"/>
<path d="M169.215 146.589C169.131 146.113 168.886 145.68 168.521 145.364C168.156 145.047 167.693 144.866 167.21 144.85C166.727 144.834 166.253 144.985 165.869 145.278C165.484 145.57 165.211 145.986 165.097 146.455C164.982 146.924 165.033 147.419 165.24 147.856C165.447 148.292 165.798 148.644 166.234 148.853C166.67 149.061 167.164 149.113 167.634 149C168.104 148.887 168.52 148.616 168.814 148.232C168.989 148 169.114 147.734 169.183 147.452C169.252 147.169 169.263 146.875 169.215 146.589ZM169.215 146.589C169.295 147.042 169.241 147.509 169.058 147.932C168.876 148.355 168.573 148.715 168.188 148.968C167.803 149.221 167.352 149.355 166.892 149.355C166.431 149.354 165.981 149.218 165.596 148.964C165.33 148.784 165.104 148.552 164.932 148.281C164.76 148.01 164.644 147.707 164.594 147.39C164.541 147.085 164.549 146.772 164.618 146.47C164.686 146.168 164.813 145.882 164.992 145.629C165.17 145.375 165.397 145.16 165.659 144.994C165.921 144.829 166.213 144.717 166.518 144.664C166.824 144.611 167.137 144.619 167.439 144.688C167.741 144.756 168.027 144.883 168.28 145.062C168.533 145.24 168.749 145.467 168.914 145.729C169.08 145.991 169.192 146.283 169.245 146.589H169.215Z" fill="#263238"/>
<path d="M166.288 154.908C166.731 155.124 167.121 155.434 167.431 155.816C167.741 156.199 167.963 156.645 168.082 157.123C168.229 157.597 168.304 158.09 168.303 158.587C168.328 159.085 168.284 159.584 168.172 160.07C168.11 160.342 167.997 160.6 167.842 160.832C167.748 160.975 167.622 161.093 167.474 161.179C167.326 161.264 167.16 161.313 166.99 161.323C166.816 161.331 166.644 161.293 166.489 161.214C166.334 161.135 166.203 161.017 166.108 160.872C165.956 160.633 165.863 160.362 165.837 160.08C165.796 159.582 165.854 159.082 166.007 158.607C166.133 158.134 166.39 157.706 166.749 157.374C166.514 157.77 166.377 158.217 166.348 158.677C166.297 159.115 166.317 159.558 166.408 159.99C166.609 160.932 167.29 160.782 167.411 159.89C167.571 159.025 167.571 158.138 167.411 157.273C167.332 156.837 167.197 156.412 167.01 156.01C166.856 155.593 166.609 155.216 166.288 154.908Z" fill="#263238"/>
<path d="M191.437 108.82C219.873 129.519 244.631 158.466 242.436 167.788C240.12 177.641 220.855 188.917 203.725 191.423C200.217 191.934 188.951 166.365 192.539 165.092C195.326 164.089 208.025 160.3 209.579 158.526C210.581 157.293 190.394 129.759 183.739 115.316C176.712 100.2 183.829 103.308 191.437 108.82Z" fill="#EB9481"/>
<path d="M199.766 164.2C199.766 164.2 189.061 165.432 182.095 166.575C178.206 167.217 171.64 168.901 168.994 170.675C165.045 173.331 150.22 186.953 153.448 190.621C156.365 193.939 160.615 188.546 160.615 188.546C160.615 188.546 155.413 193.999 159.322 196.405C163.231 198.81 168.122 191.273 168.122 191.273C168.122 191.273 162.198 196.675 166.619 198.84C170.448 200.725 176.983 192.626 176.983 192.626C176.983 192.626 170.147 197.638 173.886 199.933C178.015 202.479 189.332 191.573 189.332 191.573C198.533 192.466 204.176 191.754 210.611 189.839C211.794 189.509 199.766 164.2 199.766 164.2Z" fill="#EB9481"/>
<path d="M166.559 193.087L167.801 191.373C168.569 190.234 169.409 189.146 170.317 188.115C171.209 187.113 172.152 186.161 173.124 185.239C174.096 184.317 175.279 183.384 176.271 182.382C176.278 182.372 176.286 182.363 176.296 182.356C176.307 182.35 176.318 182.346 176.33 182.344C176.342 182.343 176.354 182.344 176.366 182.348C176.377 182.352 176.388 182.359 176.396 182.367C176.405 182.376 176.411 182.386 176.415 182.398C176.419 182.409 176.421 182.421 176.419 182.433C176.418 182.445 176.414 182.457 176.407 182.467C176.401 182.477 176.392 182.486 176.381 182.492C175.386 183.475 174.445 184.512 173.565 185.6C172.663 186.602 171.781 187.684 170.889 188.727C169.997 189.769 169.095 190.731 168.202 191.734C167.761 192.225 167.33 192.736 166.909 193.257C166.542 193.777 166.13 194.264 165.677 194.711C165.666 194.718 165.654 194.721 165.641 194.721C165.628 194.721 165.616 194.716 165.606 194.708C165.596 194.701 165.589 194.69 165.585 194.678C165.582 194.666 165.582 194.653 165.586 194.641C165.853 194.089 166.179 193.568 166.559 193.087Z" fill="#263238"/>
<path d="M159.542 189.709C160.912 187.556 162.429 185.499 164.083 183.555C165.762 181.623 167.632 179.867 169.666 178.313C169.681 178.303 169.699 178.299 169.717 178.301C169.735 178.303 169.752 178.312 169.764 178.324C169.777 178.337 169.785 178.354 169.787 178.371C169.789 178.389 169.786 178.407 169.776 178.423C168.092 180.357 166.388 182.262 164.684 184.176C163.842 185.108 160.194 189.469 159.753 189.88C159.653 189.97 159.542 189.819 159.542 189.709Z" fill="#263238"/>
<path d="M173.004 196.445C174.334 194.445 175.798 192.536 177.384 190.731C179.164 189.043 181.063 187.485 183.067 186.071C183.147 186.071 183.248 186.121 183.177 186.191C181.403 187.875 179.609 189.539 177.925 191.313C177.103 192.175 174.016 195.813 173.164 196.565C173.084 196.635 172.964 196.525 173.004 196.445Z" fill="#263238"/>
<path d="M223.1 134.38L201.901 148.583C201.901 148.583 185.603 124.246 181.343 112.659C177.083 101.072 181.854 100.972 193.211 109.241C204.567 117.511 223.1 134.38 223.1 134.38Z" fill="#FFC727"/>
<path d="M218.189 131.373C212.569 135.834 206.677 139.942 200.548 143.672C200.468 143.672 200.398 143.602 200.468 143.551C202.081 142.549 210.712 135.984 218.099 131.243C218.189 131.203 218.259 131.373 218.189 131.373Z" fill="#263238"/>
<path d="M203.254 147.621C202.814 147.83 202.385 148.065 201.971 148.323C199.525 144.253 199.966 145.185 197.501 141.146L193.852 135.192C192.599 133.127 191.447 130.962 190.073 128.967C190.073 128.907 189.953 128.967 189.973 129.028C190.835 131.032 191.978 132.907 192.98 134.801C192.75 134.51 192.539 134.21 192.299 133.939C191.767 133.318 191.236 132.696 190.745 132.035C190.675 131.934 190.504 132.035 190.575 132.135C191.046 132.766 191.457 133.418 191.878 134.079C192.299 134.741 192.74 135.382 193.201 136.014C193.662 136.645 194.133 137.207 194.614 137.778L194.794 137.998C195.466 139.181 196.117 140.374 196.799 141.547C198.272 144.081 199.931 146.503 201.761 148.794C202.298 148.482 202.81 148.13 203.294 147.741C203.384 147.691 203.314 147.611 203.254 147.621Z" fill="#263238"/>
<path d="M206.251 160.331C203.999 161.219 201.741 162.088 199.475 162.937C197.21 163.785 194.925 164.624 192.619 165.452C190.675 165.663 188.74 165.944 186.796 166.194C184.851 166.445 182.917 166.756 180.992 167.096C179.068 167.437 177.143 167.788 175.239 168.259C173.325 168.653 171.481 169.328 169.766 170.264C170.557 169.673 171.423 169.191 172.342 168.83C173.253 168.447 174.183 168.113 175.129 167.828C177.023 167.287 178.937 166.826 180.872 166.435C182.807 166.044 184.751 165.743 186.696 165.432C188.64 165.122 190.595 164.931 192.549 164.731H192.479C194.764 163.949 197.06 163.191 199.365 162.456C201.67 161.72 203.966 161.012 206.251 160.331Z" fill="#263238"/>
<path d="M181.413 105.864C181.092 107.377 177.264 114.163 172.623 113.882C170.247 113.722 170.468 105.362 170.468 105.362L170.367 104.741L169.004 96.0907L180.932 89.5355C180.932 89.5355 181.503 105.433 181.413 105.864Z" fill="#EB9481"/>
<path d="M181.143 95.4493C180.089 97.6586 178.587 99.6242 176.732 101.221C174.877 102.817 172.709 104.009 170.367 104.721L168.994 96.0707L180.942 89.5054C180.942 89.5054 181.042 92.2217 181.143 95.4493Z" fill="#263238"/>
<path d="M156.214 85.9571C157.297 101.303 166.609 102.385 169.916 102.155C172.923 101.934 183.117 100.822 183.628 85.4559C184.14 70.0901 176.662 65.7299 169.766 65.8602C162.87 65.9905 155.142 70.6213 156.214 85.9571Z" fill="#EB9481"/>
<path d="M159.612 83.9825C159.963 83.8823 160.264 83.7319 160.615 83.6016C160.981 83.5168 161.309 83.3122 161.547 83.0203C161.605 82.9143 161.627 82.7921 161.609 82.6725C161.591 82.553 161.534 82.4427 161.447 82.3587C161.247 82.2226 161.015 82.1417 160.774 82.1241C160.532 82.1065 160.291 82.1528 160.073 82.2585C159.602 82.4073 159.202 82.725 158.951 83.1506C158.899 83.2503 158.877 83.363 158.887 83.4751C158.898 83.5871 158.941 83.6936 159.011 83.7817C159.081 83.8698 159.175 83.9356 159.282 83.9713C159.389 84.0069 159.503 84.0108 159.612 83.9825Z" fill="#263238"/>
<path d="M169.475 82.479C169.104 82.479 168.774 82.479 168.413 82.4289C168.037 82.4612 167.66 82.3696 167.34 82.1683C167.252 82.0855 167.193 81.9758 167.173 81.8562C167.153 81.7366 167.173 81.6138 167.23 81.5067C167.376 81.314 167.572 81.164 167.795 81.0723C168.019 80.9806 168.264 80.9507 168.503 80.9855C168.996 80.9785 169.474 81.1534 169.846 81.4767C169.929 81.555 169.986 81.6558 170.012 81.7666C170.038 81.8775 170.031 81.9934 169.991 82.1001C169.952 82.2068 169.882 82.2996 169.79 82.367C169.698 82.4343 169.589 82.4733 169.475 82.479Z" fill="#263238"/>
<path d="M168.072 86.6387C168.072 86.5886 168.162 86.6387 168.162 86.7189C168.272 87.7212 168.573 88.934 169.565 89.1445V89.2047C168.393 89.2047 168.012 87.641 168.072 86.6387Z" fill="#263238"/>
<path d="M168.844 85.4259C170.498 85.065 171.089 88.4329 169.566 88.7236C168.042 89.0143 167.461 85.7266 168.844 85.4259Z" fill="#263238"/>
<path d="M169.566 85.486C169.886 85.6163 170.227 85.897 170.568 85.8669C170.909 85.8368 171.219 85.4359 171.43 85.055C171.43 85.055 171.43 85.055 171.49 85.055C171.6 85.3492 171.591 85.6744 171.466 85.9623C171.34 86.2502 171.108 86.4783 170.818 86.5986C170.217 86.7991 169.666 86.318 169.395 85.7065C169.335 85.6163 169.405 85.4259 169.566 85.486Z" fill="#263238"/>
<path d="M162.218 87.4506C162.218 87.4506 162.148 87.5107 162.158 87.5508C162.379 88.5532 162.459 89.786 161.587 90.3073C161.587 90.3073 161.587 90.3674 161.587 90.3574C162.72 89.9865 162.549 88.3828 162.218 87.4506Z" fill="#263238"/>
<path d="M161.096 86.5385C159.422 86.7189 159.903 90.0667 161.457 89.9063C163.01 89.746 162.549 86.3981 161.096 86.5385Z" fill="#263238"/>
<path d="M160.434 86.8592C160.194 87.0797 159.983 87.4406 159.662 87.5007C159.342 87.5609 158.981 87.2601 158.66 86.9494C158.73 87.5909 159.041 88.2224 159.662 88.2625C160.284 88.3026 160.575 87.6811 160.665 87.0296C160.645 86.9394 160.545 86.779 160.434 86.8592Z" fill="#263238"/>
<path d="M170.177 94.467C170.057 94.7977 169.977 95.2087 169.646 95.3991C169.295 95.5669 168.912 95.6526 168.523 95.6497C168.523 95.6497 168.473 95.6998 168.523 95.7199C168.746 95.8438 168.999 95.9039 169.253 95.8932C169.508 95.8826 169.755 95.8018 169.967 95.6598C170.134 95.5164 170.256 95.3269 170.317 95.1147C170.377 94.9026 170.374 94.6773 170.307 94.467C170.277 94.4068 170.197 94.4169 170.177 94.467Z" fill="#263238"/>
<path d="M164.734 91.8509C164.734 91.8509 164.855 93.4245 165.005 94.1462C165.721 94.1644 166.429 93.9875 167.052 93.6343C167.675 93.2812 168.191 92.7652 168.543 92.1415C168.543 92.0714 168.463 92.0112 168.413 92.0714C167.626 92.8978 166.592 93.4465 165.466 93.635C165.376 93.4446 165.366 90.9287 165.246 90.9488C164.694 91.1172 164.168 91.36 163.682 91.6705C163.351 88.3928 163.542 85.0951 163.161 81.8375C163.161 81.8109 163.15 81.7854 163.131 81.7666C163.112 81.7478 163.087 81.7373 163.06 81.7373C163.034 81.7373 163.008 81.7478 162.99 81.7666C162.971 81.7854 162.96 81.8109 162.96 81.8375C162.644 85.3675 162.684 88.9203 163.081 92.4422C163.111 92.8933 164.474 92.0413 164.734 91.8509Z" fill="#263238"/>
<path d="M165.977 93.8655C166.482 94.2812 167.087 94.5577 167.731 94.6674C168.075 94.7133 168.424 94.6539 168.734 94.497C169.415 94.1261 169.285 93.4947 169.014 92.9133C168.867 92.622 168.685 92.3494 168.473 92.1014C167.849 92.9394 166.975 93.5573 165.977 93.8655Z" fill="#263238"/>
<path d="M167.731 94.6674C168.075 94.7133 168.424 94.6539 168.734 94.497C169.415 94.1262 169.285 93.4947 169.014 92.9133C168.635 93.0206 168.303 93.2515 168.071 93.5694C167.838 93.8872 167.719 94.2738 167.731 94.6674Z" fill="#FF9ABB"/>
<path d="M182.706 86.4783C179.9 87.2501 178.226 80.8151 178.226 80.8151C178.226 80.8151 165.767 80.5244 163.291 70.7917C162.347 75.0442 159.797 78.7679 156.174 81.186C156.174 81.186 155.022 70.2705 163.321 66.9127C163.321 66.9127 173.435 61.48 180.671 69.0778C187.908 76.6755 184.601 85.9571 182.706 86.4783Z" fill="#263238"/>
<path d="M181.273 86.7991C181.273 86.7991 183.839 81.5368 186.174 82.3787C188.51 83.2207 187.106 90.4877 184.731 91.8308C184.437 92.0223 184.108 92.1526 183.763 92.2139C183.418 92.2752 183.064 92.2663 182.723 92.1877C182.381 92.1091 182.059 91.9625 181.775 91.7565C181.492 91.5505 181.253 91.2894 181.072 90.9888L181.273 86.7991Z" fill="#EB9481"/>
<path d="M185.723 84.4536V84.5138C184.069 85.5161 183.398 87.3002 183.007 89.1145C183.083 88.9215 183.2 88.7471 183.349 88.603C183.499 88.4589 183.677 88.3485 183.873 88.2792C184.069 88.2098 184.277 88.1832 184.484 88.2011C184.69 88.219 184.891 88.2809 185.072 88.3828C185.082 88.3874 185.092 88.3952 185.098 88.405C185.104 88.4148 185.108 88.4262 185.108 88.4379C185.108 88.4496 185.104 88.4611 185.098 88.4709C185.092 88.4806 185.082 88.4884 185.072 88.493C184.745 88.4414 184.41 88.4927 184.114 88.64C183.817 88.7873 183.574 89.0232 183.418 89.315C183.158 89.8057 182.953 90.3233 182.806 90.8585C182.746 91.0289 182.446 90.9888 182.486 90.7984C182.075 88.503 183.338 85.065 185.723 84.4536Z" fill="#263238"/>
<path d="M184.35 91.2795C184.331 91.4523 184.245 91.6106 184.11 91.7197C183.974 91.8287 183.801 91.8795 183.628 91.8609C183.456 91.8423 183.297 91.7558 183.188 91.6204C183.079 91.4851 183.028 91.312 183.047 91.1392C183.056 91.0536 183.082 90.9707 183.123 90.8952C183.165 90.8197 183.22 90.753 183.287 90.699C183.354 90.6451 183.431 90.6048 183.514 90.5806C183.597 90.5564 183.683 90.5486 183.769 90.5578C183.854 90.5671 183.937 90.593 184.013 90.6343C184.088 90.6755 184.155 90.7313 184.209 90.7983C184.263 90.8653 184.303 90.9423 184.327 91.0249C184.352 91.1074 184.359 91.194 184.35 91.2795Z" fill="white"/>
<path d="M163.151 70.05C163.227 71.5983 163.634 73.1123 164.343 74.4904C165.039 75.8957 166.018 77.1415 167.22 78.1489C167.516 78.4058 167.831 78.6403 168.162 78.8505L168.643 79.1913C168.804 79.2916 168.984 79.3818 169.155 79.472C169.505 79.6524 169.846 79.8429 170.157 80.0032L171.249 80.4042L171.801 80.5946L172.362 80.7249L173.495 80.9755C174.256 81.0757 175.028 81.1359 175.79 81.186C175.048 80.9755 174.297 80.8552 173.565 80.6447L172.492 80.3039L171.951 80.1335L171.44 79.903C171.099 79.7526 170.758 79.5923 170.438 79.4519C170.117 79.3116 169.786 79.0811 169.435 78.9006L168.954 78.63L168.503 78.2993C168.194 78.0921 167.899 77.8644 167.621 77.6177C166.476 76.6665 165.508 75.5193 164.764 74.2298C164.373 73.5917 164.038 72.921 163.762 72.2251C163.492 71.5203 163.287 70.7922 163.151 70.05Z" fill="#263238"/>
<path d="M160.114 185.98C157.107 187.694 153.538 180.047 153.538 180.047C153.449 181.519 152.846 182.913 151.834 183.986C149.97 185.79 146.321 183.655 146.321 183.655C145.907 185.161 145.052 186.508 143.866 187.524C141.861 189.078 137.912 187.444 137.912 187.444C136.764 188.605 135.239 189.316 133.612 189.448C129.232 189.649 125.433 184.146 122.977 180.678C120.521 177.21 116.823 165.052 115.88 162.806L138.032 146.869C138.032 146.869 153.458 159.308 155.763 163.809C157.708 167.628 164.624 183.354 160.114 185.98Z" fill="#EB9481"/>
<path d="M153.588 179.936C152.486 175.426 150.311 171.176 148.166 167.096C148.16 167.087 148.153 167.079 148.145 167.073C148.137 167.066 148.127 167.061 148.117 167.058C148.106 167.056 148.096 167.055 148.085 167.056C148.075 167.058 148.065 167.061 148.055 167.066C148.046 167.072 148.038 167.079 148.032 167.087C148.025 167.095 148.02 167.105 148.017 167.115C148.015 167.125 148.014 167.136 148.015 167.147C148.017 167.157 148.02 167.167 148.025 167.177C150.2 171.186 151.363 175.907 153.378 180.016C153.388 180.044 153.41 180.067 153.437 180.079C153.464 180.091 153.495 180.092 153.523 180.082C153.551 180.071 153.574 180.05 153.586 180.022C153.598 179.995 153.599 179.964 153.588 179.936Z" fill="#263238"/>
<path d="M146.562 183.374C146.21 182.373 145.728 181.423 145.129 180.548C144.557 179.545 143.966 178.623 143.364 177.671C142.148 175.78 140.892 173.916 139.596 172.078C139.536 171.998 139.395 172.078 139.455 172.158C140.658 174.043 141.831 175.957 142.954 177.902C143.515 178.904 144.066 179.846 144.617 180.828C145.068 181.787 145.627 182.692 146.281 183.525C146.307 183.547 146.34 183.561 146.374 183.565C146.408 183.569 146.443 183.562 146.473 183.546C146.504 183.53 146.529 183.505 146.544 183.474C146.56 183.443 146.566 183.409 146.562 183.374Z" fill="#263238"/>
<path d="M137.862 187.364C137.534 186.461 137.056 185.621 136.448 184.878C135.877 184.026 135.306 183.174 134.754 182.312C133.632 180.598 132.509 178.874 131.457 177.12C131.407 177.04 131.266 177.12 131.316 177.2C132.379 178.984 133.421 180.788 134.504 182.572C135.035 183.444 135.576 184.317 136.118 185.189C136.539 186.024 137.102 186.78 137.782 187.424C137.782 187.424 137.872 187.404 137.862 187.364Z" fill="#263238"/>
<path d="M202.061 193.779H122.376V197.357H202.061V193.779Z" fill="#C7C7C7"/>
<path d="M184.42 193.779L185.072 197.347H122.376V193.779H184.42Z" fill="#A6A6A6"/>
<path d="M181.604 197.347H113.946L108.313 151.39H175.971L181.604 197.347Z" fill="#C7C7C7"/>
<path d="M149.078 174.373C149.092 174.909 149 175.442 148.805 175.942C148.61 176.441 148.317 176.896 147.943 177.28C147.569 177.664 147.122 177.969 146.629 178.178C146.135 178.386 145.604 178.493 145.068 178.493C143.971 178.488 142.919 178.055 142.136 177.285C141.353 176.515 140.902 175.471 140.879 174.373C140.864 173.838 140.957 173.304 141.152 172.805C141.346 172.306 141.639 171.851 142.013 171.467C142.387 171.083 142.834 170.777 143.328 170.569C143.822 170.361 144.352 170.254 144.888 170.254C145.986 170.259 147.038 170.692 147.82 171.462C148.603 172.231 149.054 173.276 149.078 174.373Z" fill="white"/>
</svg>
