<svg xmlns="http://www.w3.org/2000/svg" xmlns:xlink="http://www.w3.org/1999/xlink" width="100" height="100" viewBox="0 0 100 100"><defs><style>.a,.j,.k,.l{fill:none;}.b,.p{fill:#e17fc5;}.c{fill:#115adc;}.d{isolation:isolate;}.e{fill:#f7d4e2;}.f{clip-path:url(#a);}.g{fill:#7521c1;}.h{clip-path:url(#b);}.i{fill:#2d0276;}.j{stroke:#2d0276;}.j,.k,.l{stroke-linecap:round;stroke-miterlimit:10;stroke-width:0.6519px;}.k{stroke:#e17fc5;}.l{stroke:#f7d4e2;}.m{clip-path:url(#c);}.n{clip-path:url(#d);}.o{opacity:0.5;}.p{mix-blend-mode:multiply;}</style><clipPath id="a"><path class="a" d="M93.8226,55.74a44.26,44.26,0,0,1-88.52,0C5.3028,31.296-5.3481,0,49.5627,0S93.8226,31.296,93.8226,55.74Z"/></clipPath><clipPath id="b"><path class="b" d="M42.9749,70.2663H36.56s-3.9992,13.7049-1.516,15.9812,27.08,1.7991,29.2813,0S61.29,70.2663,61.29,70.2663H55.66V62.0124H42.9749Z"/></clipPath><clipPath id="c"><circle class="c" cx="76.6289" cy="12.9653" r="7.7759"/></clipPath><clipPath id="d"><circle class="c" cx="21.9905" cy="12.9653" r="7.7759"/></clipPath></defs><g class="d"><circle class="e" cx="49.5627" cy="55.7401" r="44.2599"/><g class="f"><path class="c" d="M84.4405,54.4367c-2.891-5.6824-9.57-7.8755-11.0428-12.3557s2.8681-17.95-3.8339-26.125C63.1092,8.0832,50.2509,8.1624,49.31,8.1789c-.9412-.0165-13.7994-.0957-20.2541,7.7771-6.702,8.1746-2.3615,21.645-3.8339,26.125S17.07,48.7543,14.179,54.4367s0,11.6639,0,11.6639L24.37,66.628a12.6158,12.6158,0,0,1,1.9921-7.4159,12.5511,12.5511,0,0,0,.8846,7.5648l3.6931.1912a8.4031,8.4031,0,0,1,.5708-4.0342,8.1989,8.1989,0,0,0,.8839,4.11l16.8554.8724v.0061l.06-.0031.06.0031v-.0061l15.6764-.8114a14.3488,14.3488,0,0,0,2.6248-6.0765,15.1059,15.1059,0,0,1,.2559,5.9274l5.6361-.2918a12.5129,12.5129,0,0,0,1.114-3.3715,12.7071,12.7071,0,0,1,.5074,3.2876l9.256-.479S87.3315,60.1192,84.4405,54.4367Z"/><path class="g" d="M13.1664,102.2286H85.4688L81.4675,84.2248A17.826,17.826,0,0,0,64.0661,70.2663H34.5692A17.8258,17.8258,0,0,0,17.1678,84.2248Z"/><path class="b" d="M42.9749,70.2663H36.56s-3.9992,13.7049-1.516,15.9812,27.08,1.7991,29.2813,0S61.29,70.2663,61.29,70.2663H55.66V62.0124H42.9749Z"/><g class="h"><path class="i" d="M68.1387,32.71c0,10.3946,1.54,33.5064-18.8211,33.5064S30.4965,43.1044,30.4965,32.71a18.8211,18.8211,0,0,1,37.6422,0Z"/></g><path class="j" d="M26.5063,80.8705a96.7962,96.7962,0,0,0,4.4355,21.27"/><path class="j" d="M73.9117,81.8029a120.4845,120.4845,0,0,1-5.33,20.3376"/><path class="k" d="M20.7286,81.2225a8.2145,8.2145,0,0,1,1.5547-3.0757"/><path class="k" d="M23.91,76.3726a10.4407,10.4407,0,0,1,5.8236-3.9287"/><path class="l" d="M39.7647,70.2663s1.8923,8.3881,9.5529,8.3881,9.289-8.3881,9.289-8.3881"/><path class="e" d="M51.985,81.2225a2.4362,2.4362,0,1,1-2.4362-2.4362A2.4363,2.4363,0,0,1,51.985,81.2225Z"/><path class="b" d="M50.6288,81.2225a1.08,1.08,0,1,1-1.08-1.08A1.08,1.08,0,0,1,50.6288,81.2225Z"/><circle class="c" cx="76.6289" cy="12.9653" r="7.7759"/><g class="m"><path class="j" d="M83.3753,6.7916a13.9012,13.9012,0,0,1-3.2838,8.6022,13.9027,13.9027,0,0,1-7.9694,4.6118"/><path class="j" d="M74.3416,3.5637a8.8618,8.8618,0,0,1,.8872,8.0731,19.6969,19.6969,0,0,1-4.6722,6.9622"/></g><path class="b" d="M68.2385,16.9529s-2.0036-3.2295-.6166-4.3864,8.5442,7.2775,6.75,9.57S68.2385,16.9529,68.2385,16.9529Z"/><circle class="c" cx="21.9905" cy="12.9653" r="7.7759"/><g class="n"><path class="j" d="M19.1973,2.6386a4.6862,4.6862,0,0,0-.97,2.2511,13.2377,13.2377,0,0,0-.1624,6.4035c.8958,3.1912,3.7009,5.53,6.725,6.8867"/><path class="j" d="M25.0017,3.318a11.9771,11.9771,0,0,0-1.4092,7.4905,8.1169,8.1169,0,0,0,4.3761,6.0375"/></g><path class="b" d="M30.3809,16.9529s2.0036-3.2295.6166-4.3864-8.5442,7.2775-6.75,9.57S30.3809,16.9529,30.3809,16.9529Z"/><path class="b" d="M32.8454,42.6553c0,2.0571,1.1048,5.8073-.255,7.2631-.5794.62-3.431.4772-4.6218.111a7.4211,7.4211,0,0,1-5.3-7.013c0-2.9336,1.9318-5.6728,4.8654-5.6728C33.2688,37.3436,32.8454,39.7217,32.8454,42.6553Z"/><path class="j" d="M25.9,40.3346a34.8693,34.8693,0,0,1,6.0014,5.2888"/><path class="j" d="M27.0238,45.7972a11.0878,11.0878,0,0,1,2.02-2.9561"/><path class="b" d="M65.79,42.6553c0,2.0571-1.1048,5.8073.255,7.2631.58.62,3.4311.4772,4.6219.111a7.421,7.421,0,0,0,5.3-7.013c0-2.9336-1.9317-5.6728-4.8653-5.6728C65.3665,37.3436,65.79,39.7217,65.79,42.6553Z"/><path class="j" d="M72.7357,40.3346a34.8693,34.8693,0,0,0-6.0014,5.2888"/><path class="j" d="M71.6114,45.7972a11.0854,11.0854,0,0,0-2.02-2.9561"/><path class="b" d="M68.1387,30.9714c0,10.3946,1.54,33.5064-18.8211,33.5064S30.4965,41.366,30.4965,30.9714a18.8211,18.8211,0,0,1,37.6422,0Z"/><path class="j" d="M30.4422,37.4578c.0584,2.73.8432,9.7576,1.2332,12.4606"/><path class="j" d="M68.1931,37.4578c-.0481,2.2466-.9774,10.0334-1.25,12.2638"/><circle class="i" cx="40.906" cy="38.3141" r="2.3962"/><circle class="i" cx="57.7293" cy="38.3141" r="2.3962"/><g class="o"><circle class="p" cx="37.9942" cy="44.9066" r="2.3962"/><circle class="p" cx="60.6411" cy="44.9066" r="2.3962"/></g><path class="i" d="M44.7063,32.9546a10.0385,10.0385,0,0,0-8.7616,2.9633,13.3623,13.3623,0,0,1,3.0406-3.6225,6.428,6.428,0,0,1,4.1484-1.3416,1.9961,1.9961,0,0,1,1.3156.4961A1.3539,1.3539,0,0,1,44.7063,32.9546Z"/><path class="i" d="M53.929,32.9546a10.0385,10.0385,0,0,1,8.7616,2.9633A13.364,13.364,0,0,0,59.65,32.2954a6.4282,6.4282,0,0,0-4.1484-1.3416,1.9966,1.9966,0,0,0-1.3157.4961A1.3539,1.3539,0,0,0,53.929,32.9546Z"/><path class="j" d="M45.4355,48.3235s1.16,2.7962,3.8,2.7962,3.96-2.7962,3.96-2.7962"/><path class="j" d="M50.3556,36.0528a98.0408,98.0408,0,0,0,1.3017,11.5518l-3.1867.3335"/><path class="c" d="M69.5222,31.729a37.214,37.214,0,0,0-1.3-6.5417,22.4651,22.4651,0,0,0-2.17-5.94,17.2984,17.2984,0,0,0-5.21-5.144,21.69,21.69,0,0,0-7.378-3.4746,19.0158,19.0158,0,0,0-7.7248-.0148,16.0521,16.0521,0,0,0-5.0959,1.7775,20.9426,20.9426,0,0,0-5.3814,4.9917,24.228,24.228,0,0,0-4.9544,8.7945c-1.8253,6.5538-.6558,9.74.2689,12.4057a10.3994,10.3994,0,0,0,3.4179-3.5815,15.778,15.778,0,0,0,1.4019-6.2375,98.0756,98.0756,0,0,0,12.5705.8293q.4506-2.1074.9013-4.2148a22.0817,22.0817,0,0,1,1.148,4.2087l.2439-.0032c.3941-1.0792.7574-2.1631,1.076-3.2523q.5487,1.5953.9411,3.21c3.7657-.1093,7.4982-.38,11.0568-.7779a17.42,17.42,0,0,0,1.463,5.4984A9.0994,9.0994,0,0,0,68.4585,38.37,12.9517,12.9517,0,0,0,69.5222,31.729Z"/><path class="j" d="M28.54,26.5505a29.6186,29.6186,0,0,0,3.2215,1.1642"/><path class="j" d="M34.174,28.5247a32.1034,32.1034,0,0,0,9.6566.9971"/><path class="j" d="M57.364,29.2412q3.74-.1548,7.4627-.5682"/><path class="j" d="M67.4573,28.1444q1.3314-.3088,2.6362-.72"/><path class="j" d="M45.9965,12.33a28.1764,28.1764,0,0,0-5.4416,14.5745"/><path class="j" d="M42.4344,11.3185a26.554,26.554,0,0,0-9.08,14.1229"/><path class="j" d="M53.3388,12.7186a49.5452,49.5452,0,0,1,4.0264,13.8242"/><path class="j" d="M57.6275,11.8618a23.961,23.961,0,0,1,7.9294,13.8034"/><path class="j" d="M22.9606,50.0648a16.6681,16.6681,0,0,0-4.4827,5.5227,10.1323,10.1323,0,0,0-.7609,6.9755"/><path class="j" d="M24.6731,52.465a13.3457,13.3457,0,0,0-2.3516,8.4588"/><path class="j" d="M74.4307,50.5823a12.1507,12.1507,0,0,1,3.887,12.3253"/><path class="j" d="M70.7932,53.736a12.9613,12.9613,0,0,1,.7355,8.2782"/><path class="j" d="M31.0956,54.4093a11.3257,11.3257,0,0,0-.6257,8.1891"/></g></g></svg>