<?xml version="1.0" encoding="utf-8"?>
<!-- Generator: Adobe Illustrator 25.2.3, SVG Export Plug-In . SVG Version: 6.00 Build 0)  -->
<svg version="1.1" id="Capa_1" xmlns="http://www.w3.org/2000/svg" xmlns:xlink="http://www.w3.org/1999/xlink" x="0px" y="0px"
	 viewBox="0 0 100 100" style="enable-background:new 0 0 100 100;" xml:space="preserve">
<style type="text/css">
	.st0{fill:#F7D4E2;}
	.st1{clip-path:url(#SVGID_2_);}
	.st2{fill:#2D0276;}
	.st3{clip-path:url(#SVGID_4_);}
	.st4{fill:#7521C1;}
	.st5{fill:#E19A9C;}
	.st6{fill:#115ADC;stroke:#F7D4E2;stroke-width:0.6503;stroke-linecap:round;stroke-miterlimit:10;}
	.st7{clip-path:url(#SVGID_6_);}
	.st8{fill:none;stroke:#F7D4E2;stroke-width:0.6503;stroke-linecap:round;stroke-miterlimit:10;}
	.st9{fill:none;stroke:#2D0276;stroke-width:0.6503;stroke-linecap:round;stroke-miterlimit:10;}
	.st10{opacity:0.5;}
	.st11{fill:none;stroke:#7521C1;stroke-width:0.6503;stroke-linecap:round;stroke-linejoin:round;}
</style>
<g>
	<circle class="st0" cx="50" cy="55.8" r="44.2"/>
	<g>
		<g>
			<defs>
				<path id="SVGID_1_" d="M94.2,55.8C94.2,80.2,74.4,100,50,100S5.8,80.2,5.8,55.8C5.8,31.5,25.6,0,50,0S94.2,31.5,94.2,55.8z"/>
			</defs>
			<clipPath id="SVGID_2_">
				<use xlink:href="#SVGID_1_"  style="overflow:visible;"/>
			</clipPath>
			<g class="st1">
				<path class="st2" d="M14.1,100.2h72.1l-4-18c-1.8-8.1-9-13.9-17.4-13.9H35.5c-8.3,0-15.6,5.8-17.4,13.9L14.1,100.2z"/>
				<g>
					<g>
						<defs>
							<path id="SVGID_3_" d="M14.1,100.2h72.1l-4-18c-1.8-8.1-9-13.9-17.4-13.9H35.5c-8.3,0-15.6,5.8-17.4,13.9L14.1,100.2z"/>
						</defs>
						<clipPath id="SVGID_4_">
							<use xlink:href="#SVGID_3_"  style="overflow:visible;"/>
						</clipPath>
						<g class="st3">
							<circle class="st4" cx="50.5" cy="68.3" r="9"/>
							<polygon class="st5" points="11.5,91.1 27.2,91.1 28.9,101.4 7.6,102.5 							"/>
							<polygon class="st5" points="88.6,91.1 73,91.1 71.7,101.4 92.5,102.5 							"/>
						</g>
					</g>
				</g>
				<path class="st6" d="M24.7,74.4c0.9-1.1,2.1-2,3.5-2.6"/>
				<path class="st6" d="M29.6,71.1c0.8-0.4,1.7-0.7,2.6-0.9"/>
				<path class="st5" d="M50.5,74.4L50.5,74.4c3.5,0,6.3-2.8,6.3-6.3l0,0v-8H44.2v8C44.2,71.5,47,74.4,50.5,74.4z"/>
				<g>
					<g>
						<defs>
							<path id="SVGID_5_" d="M50.5,74.4L50.5,74.4c3.5,0,6.3-2.8,6.3-6.3l0,0v-8H44.2v8C44.2,71.5,47,74.4,50.5,74.4z"/>
						</defs>
						<clipPath id="SVGID_6_">
							<use xlink:href="#SVGID_5_"  style="overflow:visible;"/>
						</clipPath>
						<g class="st7">
							<path class="st2" d="M69.3,30.8c0,10.4,1.5,33.4-18.8,33.4s-18.8-23-18.8-33.4S40.1,12,50.5,12S69.3,20.5,69.3,30.8z"/>
						</g>
					</g>
				</g>
				<path class="st8" d="M28.2,79.8c-1.5,6.6-1.2,13.5,0.7,20"/>
				<path class="st8" d="M71.9,79.8c1.5,6.6,1.8,13.9-0.2,20.4"/>
				<path class="st2" d="M30.6,14.7c0,0,1.3-5.3,3.1-5.4c1.8-0.1,1.5,3.1,1.5,3.1s5.7-7,16.9-6.3s16,8.3,20.1,9.6s4.7-0.7,5.9,0.6
					s1.1,3.7,0,6c-0.5,1.3-1.4,2.3-2.6,3c0,0,2.3,2.8,1.6,5.8c-0.5,1.8-1.4,3.5-2.6,5H27.6c0,0-4.2-1.4-4.7-7.4s4.5-10.3,4.5-10.3
					s-2.5,0.5-3-0.7C23.5,14.9,30.6,14.7,30.6,14.7z"/>
				<path class="st5" d="M34.1,40.8c0,2.1,1.1,5.8-0.3,7.2c-0.6,0.6-3.4,0.5-4.6,0.1c-3.1-0.9-5.2-3.8-5.3-7c0-2.9,1.9-5.7,4.9-5.7
					C34.5,35.5,34.1,37.8,34.1,40.8z"/>
				<path class="st9" d="M27.2,38.4c2.2,1.5,4.2,3.3,6,5.3"/>
				<path class="st9" d="M28.3,43.9c0.5-1.1,1.2-2.1,2-2.9"/>
				<path class="st5" d="M66.9,40.8c0,2.1-1.1,5.8,0.3,7.2c0.6,0.6,3.4,0.5,4.6,0.1c3.1-0.9,5.2-3.8,5.3-7c0-2.9-1.9-5.7-4.9-5.7
					C66.5,35.5,66.9,37.8,66.9,40.8z"/>
				<path class="st9" d="M73.9,38.4c-2.2,1.5-4.2,3.3-6,5.3"/>
				<path class="st9" d="M72.7,43.9c-0.5-1.1-1.2-2.1-2-2.9"/>
				<path class="st5" d="M69.3,29.1c0,10.4,1.5,33.4-18.8,33.4s-18.8-23-18.8-33.4s8.4-18.8,18.8-18.8S69.3,18.7,69.3,29.1z"/>
				<path class="st9" d="M32,35.3c0.1,2.7,0.5,9.9,1.4,13"/>
				<path class="st9" d="M69.3,35.6c-0.2,4.3-0.8,8.5-1.6,12.7"/>
				<g class="st10">
					<circle class="st5" cx="39.2" cy="43" r="2.4"/>
					<circle class="st5" cx="61.8" cy="43" r="2.4"/>
				</g>
				<path class="st9" d="M47.6,46.4c0,0,1.2,2.8,3.8,2.8s4-2.8,4-2.8"/>
				<path class="st2" d="M45,29.8c0.2,0.7-1,1.7-2.8,2.3c-1.7,0.6-3.3,0.5-3.6-0.2s1-1.7,2.8-2.3S44.8,29.1,45,29.8z"/>
				<path class="st2" d="M56.8,29.8c-0.2,0.7,1,1.7,2.8,2.3c1.7,0.6,3.3,0.5,3.6-0.2s-1-1.7-2.8-2.3S57,29.1,56.8,29.8z"/>
				<path class="st9" d="M51.4,33.3c-0.1,1.6-0.2,3.3,0.6,4.7c0.5,0.8,1.2,1.3,1.7,2.1c1.2,1.8,0.6,4.3-1.2,5.5
					c-0.4,0.3-0.8,0.4-1.3,0.5"/>
				<path class="st2" d="M31.8,35.8c1.8-1.2,3.1-3,3.7-5c0.6-2,0.9-4.2,0.9-6.3c0,0,6.3,4.9,10.7,3.9s1.3-3.9,1.3-3.9
					c3,1.4,6.3,2,9.5,1.9c4.9-0.3,6.9-1.9,6.9-1.9s-0.3,5.1,1,8.3s3.5,3.6,3.5,3.6l3.1-9.9L67,15.9L54.7,8L44.1,8.8l-9.3,6.9l-5,7.3
					L31.8,35.8z"/>
				<path class="st4" d="M31.6,48.1c0,1.3-1.1,2.4-2.4,2.4s-2.4-1.1-2.4-2.4c0-1.3,1.1-2.4,2.4-2.4C30.6,45.7,31.6,46.8,31.6,48.1z"
					/>
				<path class="st4" d="M73.9,48.1c0,1.3-1.1,2.4-2.4,2.4s-2.4-1.1-2.4-2.4c0-1.3,1.1-2.4,2.4-2.4l0,0
					C72.8,45.7,73.9,46.8,73.9,48.1z"/>
				<path class="st11" d="M38.6,15.4c1.7,2.6,4.2,4.5,7.2,5.4c1.2,0.5,2.6,0.5,3.8,0s1.9-1.8,1.6-3.1c4.3,3.9,10.2,5.3,15.8,3.8"/>
				<path class="st11" d="M46.1,10.6c2.5,2.3,5.8,3.7,9.3,4c3.4,0.2,6.9-0.1,10.2-0.9"/>
				<path class="st11" d="M34.7,18.8c0.2,4.1-1.9,8-5.5,10"/>
			</g>
		</g>
	</g>
</g>
<path class="st9" d="M39.7,35.7c0,0,3.8-0.1,5.9,1.4"/>
<path class="st9" d="M56.6,37c0,0,2.6-2.4,6.5-1.5"/>
</svg>
