<?xml version="1.0" encoding="utf-8"?>
<!-- Generator: Adobe Illustrator 25.2.3, SVG Export Plug-In . SVG Version: 6.00 Build 0)  -->
<svg version="1.1" id="Capa_1" xmlns="http://www.w3.org/2000/svg" xmlns:xlink="http://www.w3.org/1999/xlink" x="0px" y="0px"
	 viewBox="0 0 100 100" style="enable-background:new 0 0 100 100;" xml:space="preserve">
<style type="text/css">
	.st0{fill:#FFB8DA;}
	.st1{clip-path:url(#SVGID_2_);}
	.st2{fill:#FAE5EE;}
	.st3{clip-path:url(#SVGID_4_);}
	.st4{fill:#E17FC5;}
	.st5{fill:none;stroke:#E17FC5;stroke-width:0.6706;stroke-linecap:round;stroke-miterlimit:10;}
	.st6{fill:#EE692B;}
	.st7{clip-path:url(#SVGID_6_);}
	.st8{fill:#2D0276;}
	.st9{fill:none;stroke:#2D0276;stroke-width:0.6706;stroke-linecap:round;stroke-miterlimit:10;}
	.st10{fill:#7521C1;}
	.st11{opacity:0.5;}
	.st12{clip-path:url(#SVGID_8_);}
	.st13{fill:#F7D4E2;}
	.st14{fill:none;stroke:#2D0276;stroke-width:0.6706;stroke-linecap:round;stroke-linejoin:round;}
</style>
<g>
	<circle class="st0" cx="49.6" cy="54.5" r="45.5"/>
	<g>
		<defs>
			<path id="SVGID_1_" d="M95.1,54.5c0,25.1-20.5,45.5-45.6,45.5C24.4,99.9,4.1,79.6,4,54.5C4,29.3,8.5,0,49.6,0
				S95.1,29.3,95.1,54.5z"/>
		</defs>
		<clipPath id="SVGID_2_">
			<use xlink:href="#SVGID_1_"  style="overflow:visible;"/>
		</clipPath>
		<g class="st1">
			<path class="st2" d="M12.4,101.3h74.4l-4.1-18.5c-1.9-8.4-9.3-14.4-17.9-14.4H34.4c-8.6,0-16,6-17.9,14.4L12.4,101.3z"/>
			<g>
				<defs>
					<path id="SVGID_3_" d="M12.4,101.3h74.4l-4.1-18.5c-1.9-8.4-9.3-14.4-17.9-14.4H34.4c-8.6,0-16,6-17.9,14.4L12.4,101.3z"/>
				</defs>
				<clipPath id="SVGID_4_">
					<use xlink:href="#SVGID_3_"  style="overflow:visible;"/>
				</clipPath>
				<g class="st3">
					<path class="st4" d="M39.2,67.3c0,0,0.6,10.2,10.2,10.2s9.9-11.2,9.9-11.2L39.2,67.3z"/>
				</g>
			</g>
			<path class="st5" d="M18.6,82.1c0.8-3.2,2.6-6.1,5.2-8.2"/>
			<path class="st5" d="M25.3,72.7c1-0.7,2-1.2,3.2-1.6"/>
			<path class="st6" d="M43.1,68.4c0,0,1.1,5.4,6.6,5.4s6.5-5.4,6.5-5.4v-8.5h-13V68.4z"/>
			<g>
				<defs>
					<path id="SVGID_5_" d="M43.1,68.4c0,0,1.1,5.4,6.6,5.4s6.5-5.4,6.5-5.4v-8.5h-13V68.4z"/>
				</defs>
				<clipPath id="SVGID_6_">
					<use xlink:href="#SVGID_5_"  style="overflow:visible;"/>
				</clipPath>
				<g class="st7">
					<path class="st8" d="M69,29.8c0,10.7,1.6,34.5-19.4,34.5S30.2,40.5,30.2,29.8c0-10.7,8.7-19.4,19.4-19.4S69,19.1,69,29.8z"/>
				</g>
			</g>
			<path class="st9" d="M25,81.2c0,1.6,0,3.2,0,4.8"/>
			<path class="st9" d="M25.1,88.4c0,4.2,0.2,8.3,0.5,12.5"/>
			<path class="st9" d="M71.3,80.7c0,1.6,0,3.2,0,4.8"/>
			<path class="st9" d="M71.1,87.9c0,4.2-0.2,8.3-0.5,12.5"/>
			<path class="st10" d="M28.2,45.7c2.3,1,3.4,3.7,2.4,6.1c-0.4,1-1.1,1.7-2.1,2.2c-2.4,1.2-5.2,0.2-6.4-2.2
				c-0.1-0.3-0.2-0.5-0.3-0.8c-0.6-2.5,0.9-5,3.4-5.6C26.2,45.1,27.3,45.2,28.2,45.7z M28.2,45.7c-1.5-0.7-3.3,0-4,1.5
				c-0.1,0.2-0.2,0.5-0.2,0.8c-0.2,1.7,1.1,3.3,2.8,3.4c1,0.1,2-0.3,2.6-1c1-1.3,0.8-3.2-0.5-4.3C28.7,45.9,28.4,45.8,28.2,45.7z"/>
			<path class="st10" d="M70.6,45.7c2.3-1.1,5.1,0,6.1,2.3c0.4,0.9,0.5,2,0.3,3c-0.7,2.5-3.3,4-5.9,3.3c-0.3-0.1-0.6-0.2-0.8-0.3
				c-2.3-1.2-3.1-4-1.9-6.2C68.9,46.8,69.7,46.1,70.6,45.7L70.6,45.7z M70.6,45.7c-1.5,0.7-2.3,2.5-1.6,4c0.1,0.2,0.2,0.5,0.4,0.7
				c1.2,1.3,3.2,1.4,4.4,0.2c0.7-0.7,1.1-1.7,1-2.6c-0.3-1.7-1.9-2.8-3.5-2.5C71.1,45.5,70.9,45.6,70.6,45.7z"/>
			<path class="st6" d="M32.7,40c0,2.1,1.1,6-0.3,7.5c-0.6,0.6-3.5,0.5-4.8,0.1c-3.2-1-5.4-3.9-5.5-7.2c0-3,2-5.8,5-5.8
				C33.1,34.6,32.7,37,32.7,40z"/>
			<path class="st9" d="M25.5,37.6c2.3,1.6,4.3,3.4,6.2,5.4"/>
			<path class="st9" d="M26.7,43.2c0.5-1.1,1.2-2.1,2.1-3"/>
			<path class="st6" d="M66.6,40c0,2.1-1.1,6,0.3,7.5c0.6,0.6,3.5,0.5,4.8,0.1c3.2-1,5.4-3.9,5.5-7.2c0-3-2-5.8-5-5.8
				C66.1,34.6,66.6,37,66.6,40z"/>
			<path class="st9" d="M73.7,37.6c-2.3,1.6-4.3,3.4-6.2,5.4"/>
			<path class="st9" d="M72.5,43.2c-0.5-1.1-1.2-2.1-2.1-3"/>
			<path class="st6" d="M69,28c0,10.7,1.6,34.5-19.4,34.5S30.2,38.7,30.2,28c0-10.7,8.7-19.4,19.4-19.4S69,17.3,69,28z"/>
			<path class="st9" d="M30.1,34.7c0.1,4.6,0.7,9.2,1.7,13.7"/>
			<path class="st9" d="M69,34.7c-0.1,4.6-0.7,9.2-1.7,13.7"/>
			<circle class="st8" cx="41" cy="35.6" r="2.5"/>
			<circle class="st8" cx="58.3" cy="35.6" r="2.5"/>
			<path class="st9" d="M46.2,45.3c0,0,1.2,2.9,3.9,2.9s4.1-2.9,4.1-2.9"/>
			<path class="st9" d="M50.4,32.3c0,3.4,1.4,6.7,3.8,9c-0.9,1.1-2.1,2-3.5,2.5"/>
			<g class="st11">
				<circle class="st6" cx="38" cy="42.3" r="2.5"/>
				<circle class="st6" cx="61.3" cy="42.3" r="2.5"/>
			</g>
			<path class="st8" d="M44.4,31.2c-3.1-0.4-6.3,0.5-8.8,2.4c1-2,2.9-3.4,5.1-3.8c0.6-0.1,1.2-0.1,1.8,0.1
				C43.2,30.1,44.2,30.6,44.4,31.2z"/>
			<path class="st8" d="M53.9,31.2c3.1-0.4,6.3,0.5,8.8,2.4c-1-2-2.9-3.4-5.1-3.8c-0.6-0.1-1.2-0.1-1.8,0.1
				C55.1,30.1,54.1,30.6,53.9,31.2z"/>
			<circle class="st10" cx="29" cy="16.1" r="2.7"/>
			<path class="st4" d="M26.2,14.1c-0.6-0.2-1.1-0.6-1.6-1c-1.5-1.8-1.9-4.3-0.8-6.4c1.3,0.5,2.4,1.5,2.9,2.9
				C27.2,10.9,26.5,12.7,26.2,14.1z"/>
			<path class="st4" d="M25.8,15.7c-0.5,0.3-1.2,0.5-1.8,0.5c-2.3,0-4.4-1.5-5.3-3.6c1.2-0.7,2.7-0.8,4-0.2
				C24,12.9,24.9,14.6,25.8,15.7z"/>
			<path class="st4" d="M30.5,35.1c0,0,2.8-7.8,19.1-7.8s19.3,7.9,19.3,7.9l3.1-0.7C72,34.6,76.8,4,49.3,4S27.2,34.6,27.2,34.6
				L30.5,35.1z"/>
			<g>
				<defs>
					<path id="SVGID_7_" d="M30.5,35.1c0,0,2.8-7.8,19.1-7.8s19.3,7.9,19.3,7.9l3.1-0.7C72,34.6,76.8,4,49.3,4S27.2,34.6,27.2,34.6
						L30.5,35.1z"/>
				</defs>
				<clipPath id="SVGID_8_">
					<use xlink:href="#SVGID_7_"  style="overflow:visible;"/>
				</clipPath>
				<g class="st12">
					<path class="st13" d="M25.5,33.1c0,0,6.9-9.5,24.6-9.5c10.3-0.2,19.9,4.8,25.8,13.2l-25.6,9.1L26,36.6L25.5,33.1z"/>
				</g>
			</g>
			<path class="st13" d="M33.2,22.2L33.1,22c-0.2-0.4-0.7-0.6-1.1-0.5c-0.1,0-0.3,0.1-0.4,0.1l-0.2,0.2c-0.1,0.1-0.2,0.3-0.3,0.5
				l0,0.3c0,0.2,0.1,0.4,0.2,0.6l0.1,0.2c0.2,0.4,0.7,0.6,1.1,0.5c0.1,0,0.3-0.1,0.4-0.1l0.2-0.2c0.1-0.1,0.2-0.3,0.3-0.5l0-0.3
				C33.3,22.6,33.3,22.4,33.2,22.2L33.2,22.2z"/>
			<path class="st13" d="M34.3,16.5c0.6,0,1.1-0.5,1.1-1.2c0-0.6-0.5-1.1-1.1-1.1c-0.6,0-1.1,0.5-1.1,1.2
				C33.3,16,33.8,16.5,34.3,16.5z"/>
			<path class="st13" d="M40.4,20.9v-0.2c0-0.5-0.3-0.9-0.7-1c-0.1-0.1-0.3-0.1-0.4-0.1l-0.3,0c-0.2,0.1-0.4,0.2-0.5,0.3l-0.2,0.2
				c-0.1,0.2-0.2,0.4-0.2,0.6v0.2c0,0.5,0.3,0.9,0.7,1C39,22,39.2,22,39.3,22l0.3,0c0.2-0.1,0.4-0.2,0.5-0.3l0.2-0.2
				C40.4,21.3,40.4,21.1,40.4,20.9L40.4,20.9z"/>
			<path class="st13" d="M40.6,10.4c0.6,0,1.1-0.5,1.1-1.2c0-0.6-0.5-1.1-1.1-1.1c-0.6,0-1.1,0.5-1.1,1.2
				C39.6,9.9,40,10.4,40.6,10.4z"/>
			<path class="st13" d="M43.3,15.3c0.6,0,1.1-0.5,1.1-1.2c0-0.6-0.5-1.1-1.1-1.1c-0.6,0-1.1,0.5-1.1,1.2
				C42.2,14.8,42.7,15.3,43.3,15.3z"/>
			<path class="st13" d="M47.4,21c0.6,0,1.1-0.5,1.1-1.2c0-0.6-0.5-1.1-1.1-1.1c-0.6,0-1.1,0.5-1.1,1.2C46.3,20.5,46.8,21,47.4,21z"
				/>
			<path class="st13" d="M50.9,15.1c0.6,0,1.1-0.5,1.1-1.2c0-0.6-0.5-1.1-1.1-1.1c-0.6,0-1.1,0.5-1.1,1.2
				C49.8,14.6,50.3,15.1,50.9,15.1z"/>
			<path class="st13" d="M51.2,8.6c0.6,0,1.1-0.5,1.1-1.2c0-0.6-0.5-1.1-1.1-1.1c-0.6,0-1.1,0.5-1.1,1.2C50.2,8.1,50.6,8.5,51.2,8.6
				z"/>
			<path class="st13" d="M58.6,10.8L58.6,10.8c0.5,0.5,1.2,0.5,1.7,0.1l0.2-0.2c0.1-0.2,0.2-0.4,0.2-0.6l0-0.3
				c-0.1-0.2-0.2-0.4-0.3-0.5l-0.1-0.1c-0.4-0.4-1.1-0.4-1.6,0l-0.2,0.2c-0.1,0.2-0.2,0.4-0.2,0.6l0,0.3
				C58.4,10.5,58.5,10.7,58.6,10.8z"/>
			<path class="st13" d="M57.3,17.7c0.6,0,1.1-0.5,1.1-1.2c0-0.6-0.5-1.1-1.1-1.1c-0.6,0-1.1,0.5-1.1,1.2
				C56.3,17.2,56.7,17.7,57.3,17.7z"/>
			<path class="st13" d="M62.2,22.8c0.6,0,1.1-0.5,1.1-1.2c0-0.6-0.5-1.1-1.1-1.1c-0.6,0-1.1,0.5-1.1,1.2
				C61.1,22.3,61.6,22.7,62.2,22.8z"/>
			<path class="st13" d="M66.1,18.2c0.6,0,1.1-0.5,1.1-1.2c0-0.6-0.5-1.1-1.1-1.1c-0.6,0-1.1,0.5-1.1,1.2
				C65,17.7,65.5,18.1,66.1,18.2z"/>
			<path class="st13" d="M69.6,25.6c0.6,0,1.1-0.5,1.1-1.2c0-0.6-0.5-1.1-1.1-1.1c-0.6,0-1.1,0.5-1.1,1.2
				C68.5,25.1,69,25.6,69.6,25.6z"/>
			<path class="st14" d="M29.4,19.6c0.3-1.1,0.7-2.1,1.2-3.1"/>
			<path class="st14" d="M31.2,14.9c1.4-2.7,3.6-4.9,6.3-6.3"/>
		</g>
	</g>
</g>
</svg>
