<?xml version="1.0" encoding="utf-8"?>
<!-- Generator: Adobe Illustrator 25.2.3, SVG Export Plug-In . SVG Version: 6.00 Build 0)  -->
<svg version="1.1" id="Layer_1" xmlns="http://www.w3.org/2000/svg" xmlns:xlink="http://www.w3.org/1999/xlink" x="0px" y="0px"
	 viewBox="0 0 24 24" style="enable-background:new 0 0 24 24;" xml:space="preserve">
<style type="text/css">
	.st0{fill:#D78E55;}
	.st1{fill:#FFFFFF;}
</style>
<rect class="st0" width="24" height="24"/>
<g>
	<path class="st1" d="M9.3,3.2c-2.4,0-4.4,2-4.4,4.4s2,4.4,4.4,4.4s4.4-2,4.4-4.4S11.7,3.2,9.3,3.2z M9.3,9.8c-1.2,0-2.2-1-2.2-2.2
		s1-2.2,2.2-2.2s2.2,1,2.2,2.2S10.5,9.8,9.3,9.8z M11.5,14.8c-0.1,0.6-0.6,1-1.2,0.9c-0.2,0-0.4,0-0.6,0c-2.2,0-4,1.8-4,4
		c0,0.6-0.5,1.1-1.1,1.1s-1.1-0.5-1.1-1.1c0-3.4,2.8-6.2,6.2-6.2c0.3,0,0.6,0,0.9,0.1C11.1,13.6,11.6,14.2,11.5,14.8z M20,17.1
		L19.9,17c0-0.2,0.1-0.4,0.1-0.6s0-0.4-0.1-0.6l0.2-0.1c0.5-0.3,0.7-1,0.4-1.5c-0.3-0.5-1-0.7-1.5-0.4l-0.2,0.1
		c-0.3-0.3-0.6-0.5-1-0.6v-0.2c0-0.6-0.5-1.1-1.1-1.1s-1.1,0.5-1.1,1.1v0.2c-0.4,0.1-0.7,0.3-1,0.6l-0.2-0.1
		c-0.5-0.3-1.2-0.1-1.5,0.4s-0.1,1.2,0.4,1.5l0.2,0.1c0,0.2-0.1,0.4-0.1,0.6s0,0.4,0.1,0.6l-0.2,0.1c-0.5,0.3-0.7,1-0.4,1.5
		c0.2,0.4,0.6,0.5,1,0.5c0.2,0,0.4,0,0.6-0.2l0.2-0.1c0.3,0.3,0.6,0.5,1,0.6v0.2c0,0.6,0.5,1.1,1.1,1.1s1.1-0.5,1.1-1.1v-0.2
		c0.4-0.1,0.7-0.3,1-0.6l0.2,0.1c0.2,0.1,0.4,0.2,0.6,0.2c0.4,0,0.7-0.2,1-0.5C20.7,18.1,20.6,17.4,20,17.1L20,17.1z M17.7,16.4
		c0,0.6-0.5,1.1-1.1,1.1s-1.1-0.5-1.1-1.1s0.5-1.1,1.1-1.1S17.7,15.8,17.7,16.4z"/>
</g>
</svg>
