<?xml version="1.0" encoding="utf-8"?>
<!-- Generator: Adobe Illustrator 25.2.3, SVG Export Plug-In . SVG Version: 6.00 Build 0)  -->
<svg version="1.1" id="Capa_1" xmlns="http://www.w3.org/2000/svg" xmlns:xlink="http://www.w3.org/1999/xlink" x="0px" y="0px"
	 viewBox="0 0 80 80" style="enable-background:new 0 0 80 80;" xml:space="preserve">
<style type="text/css">
	.st0{fill:#FFFFFF;}
	.st1{fill:#CE746E;}
</style>
<path class="st0" d="M40,0C17.9,0,0,17.9,0,40s17.9,40,40,40s40-17.9,40-40S62.1,0,40,0z"/>
<path class="st1" d="M60.5,30.6L38.3,57.2c-0.4,0.4-0.9,0.7-1.4,0.7h-0.1c-0.5,0-1-0.2-1.4-0.5L19.7,42.8c-0.8-0.8-0.9-2.1-0.1-2.9
	l5.6-6c0.4-0.4,0.9-0.6,1.4-0.7c0.5,0,1.1,0.2,1.5,0.5l7.7,7.2L51,22.8c0.3-0.4,0.8-0.7,1.4-0.7c0.5-0.1,1.1,0.1,1.5,0.5l6.3,5.2
	C61.1,28.5,61.2,29.8,60.5,30.6z"/>
</svg>
