<svg xmlns="http://www.w3.org/2000/svg" width="512.231" height="511.912" viewBox="0 0 512.231 511.912"><defs><style>.a{fill:#47403e;}</style></defs><path class="a" d="M508.5014,100.3733C492.224,33.9627,400.768-1.152,344.7467,34.5813a131.4136,131.4136,0,0,0-177.4934,0C30.0587-35.3707-76.5227,164.9067,70.9547,228.544a19.9253,19.9253,0,0,1,14.3786,18.1547V416a96,96,0,0,0,96,96H330.6667a96,96,0,0,0,96-96V246.6987a19.9253,19.9253,0,0,1,14.3786-18.1547A107.0294,107.0294,0,0,0,508.5014,100.3733ZM384,416a53.3333,53.3333,0,0,1-53.3333,53.3333H181.3333a55.2106,55.2106,0,0,1-53.3333-64H384Zm42.6667-227.6693A62.1226,62.1226,0,0,0,384,246.6987v115.968H128V246.6987a62.1226,62.1226,0,0,0-42.6667-58.368A64.576,64.576,0,0,1,44.8,110.9333c12.5013-44.8,79.552-63.552,110.5707-32a21.4617,21.4617,0,0,0,32.9173-2.9866c26.6027-44.3734,108.6933-44.3734,135.296,0a21.4828,21.4828,0,0,0,32.9174,2.9866A67.5837,67.5837,0,0,1,418.368,65.2587h0a64.2773,64.2773,0,0,1,8.2987,123.072Z" transform="translate(0.1482 -0.088)"/></svg>