<?xml version="1.0" encoding="utf-8"?>
<!-- Generator: Adobe Illustrator 25.2.3, SVG Export Plug-In . SVG Version: 6.00 Build 0)  -->
<svg version="1.1" id="Capa_1" xmlns="http://www.w3.org/2000/svg" xmlns:xlink="http://www.w3.org/1999/xlink" x="0px" y="0px"
	 viewBox="0 0 100 100" style="enable-background:new 0 0 100 100;" xml:space="preserve">
<g>
	<g>
		<path d="M32.2,20.3h6c0.9,0,1.5-0.7,1.5-1.5v-4.5h20.8v4.5c0,0.9,0.7,1.5,1.5,1.5h5.9c0.9,0,1.5-0.7,1.5-1.5v-4.5
			c0-4.8-4-8.9-8.9-8.9H39.6c-4.9,0-8.9,4-8.9,8.9v4.5C30.6,19.7,31.3,20.3,32.2,20.3z"/>
	</g>
	<g>
		<path d="M85.7,29.2H14.3c-4.9,0-8.9,4-8.9,8.9v47.6c0,4.9,4,8.9,8.9,8.9h71.4c4.9,0,8.9-4,8.9-8.9V38.1
			C94.6,33.2,90.5,29.2,85.7,29.2z"/>
	</g>
</g>
</svg>
