<?xml version="1.0" encoding="utf-8"?>
<!-- Generator: Adobe Illustrator 25.2.3, SVG Export Plug-In . SVG Version: 6.00 Build 0)  -->
<svg version="1.1" id="Capa_1" xmlns="http://www.w3.org/2000/svg" xmlns:xlink="http://www.w3.org/1999/xlink" x="0px" y="0px"
	 viewBox="0 0 24 24" style="enable-background:new 0 0 24 24;" xml:space="preserve">
<style type="text/css">
	.st0{fill:#47403E;}
</style>
<path class="st0" d="M13.5,12c1.2-1,2.1-2.3,2.4-3.8c0.1-0.5-0.1-1-0.5-1.4C15.2,6.3,14.6,6,14.1,6H9.9C9.3,6,8.8,6.2,8.4,6.7
	C8,7.1,7.9,7.7,8,8.2C8.4,9.7,9.2,11,10.5,12c-1.2,1-2.1,2.3-2.4,3.8c-0.1,0.5,0,1.1,0.4,1.5c0.4,0.4,1,0.7,1.5,0.6h4.1
	c0.6,0,1.1-0.3,1.4-0.8c0.4-0.4,0.5-0.9,0.5-1.4C15.6,14.3,14.8,13,13.5,12z M12,10.7C11.1,10,10.4,9.1,10,8h3.9l0,0
	C13.6,9.1,12.9,10,12,10.7z M14,16C14,16,13.9,16,14,16L10,16c0.4-1.1,1.1-2,2-2.7C12.9,14,13.6,14.9,14,16z M15,1.4
	c-0.1,0.5-0.5,0.8-1,0.8c-0.1,0-0.1,0-0.2,0C13.2,2.1,12.6,2,12,2c-0.6,0-1-0.4-1-1s0.4-1,1-1c0.7,0,1.5,0.1,2.2,0.2
	C14.7,0.3,15.1,0.8,15,1.4L15,1.4z M22.4,15.7c-0.5-0.1-0.9-0.7-0.7-1.2c0.1-0.6,0.2-1.2,0.3-1.8c0-0.6,0.5-1,1.1-0.9s1,0.5,0.9,1.1
	c0,0.7-0.2,1.4-0.3,2.2c-0.1,0.4-0.5,0.8-1,0.8C22.6,15.7,22.5,15.7,22.4,15.7L22.4,15.7z M20.1,4.4c-0.4,0.4-1,0.4-1.4,0.1
	c-0.5-0.4-0.9-0.8-1.5-1.1l0,0c-0.5-0.3-0.6-0.9-0.3-1.4c0.3-0.5,0.9-0.6,1.4-0.3C18.8,2.1,19.4,2.6,20,3C20.4,3.4,20.4,4,20.1,4.4
	L20.1,4.4z M1,4C0.4,4,0,3.6,0,3s0.4-1,1-1h4c0,0,0,0,0,0c1.1,0,2,0.9,2,2v4c0,0.6-0.4,1-1,1S5,8.6,5,8V4.9c-3.5,3.4-4,8.7-1.3,12.7
	C5,19.6,7,21,9.2,21.6c4.2,1.2,8.8-0.5,11.2-4.2c0.3-0.5,0.9-0.6,1.4-0.3c0.5,0.3,0.6,0.9,0.3,1.4c-0.3,0.5-0.7,1-1.1,1.5
	C16.5,25,8.9,25.4,4,20.9S-1.3,8.9,3.1,4H1z M23.5,8.5c0.2,0.5-0.1,1.1-0.7,1.2c-0.1,0-0.2,0-0.3,0c-0.4,0-0.8-0.3-1-0.7
	c-0.2-0.6-0.4-1.1-0.7-1.7c-0.2-0.5-0.1-1.1,0.4-1.3c0.5-0.3,1.1-0.1,1.4,0.4C23,7.1,23.3,7.8,23.5,8.5L23.5,8.5z"/>
</svg>
