<svg xmlns="http://www.w3.org/2000/svg" width="24.0009" height="20.001" viewBox="0 0 24.0009 20.001"><defs><style>.a{fill:#47403e;}</style></defs><path class="a" d="M7.388,13.297c.06.066-.075-.048,0,0Zm9.151.046c-.058.063.072-.046,0,0Zm7.433-1.614A12.1986,12.1986,0,0,1,12,22,12.2,12.2,0,0,1,.028,11.729a2.3638,2.3638,0,0,1,2.7-2.701,11.9527,11.9527,0,0,1,4.311,1.555,14.8787,14.8787,0,0,1,3.001-7.64,2.5109,2.5109,0,0,1,3.924,0,14.862,14.862,0,0,1,2.997,7.639,11.941,11.941,0,0,1,4.31-1.555,2.3638,2.3638,0,0,1,2.701,2.7ZM10.944,19.944a10.39,10.39,0,0,0-3.556-6.647,10.6527,10.6527,0,0,0-4.964-2.292.4945.4945,0,0,0-.317.102.35.35,0,0,0-.102.318A10.1961,10.1961,0,0,0,10.944,19.944ZM12,16.223a12.3209,12.3209,0,0,1,3.018-4.199,12.7148,12.7148,0,0,0-2.623-7.842.5132.5132,0,0,0-.784,0,12.7227,12.7227,0,0,0-2.629,7.842A12.3209,12.3209,0,0,1,12,16.223Zm9.893-5.116a.3668.3668,0,0,0-.318-.102,10.9516,10.9516,0,0,0-5.036,2.337,10.1892,10.1892,0,0,0-3.483,6.602,10.1961,10.1961,0,0,0,8.939-8.52A.3658.3658,0,0,0,21.893,11.107Z" transform="translate(0.0005 -1.999)"/></svg>