<svg xmlns="http://www.w3.org/2000/svg" width="511.3643" height="510.7647" viewBox="0 0 511.3643 510.7647"><defs><style>.a{fill:#47403e;}</style></defs><path class="a" d="M492.8,19.2a66.9653,66.9653,0,0,0-92.3733,0L161.344,258.1333A118.3529,118.3529,0,0,0,138.7734,256a116.4161,116.4161,0,0,0-82.88,34.3253C14.9333,331.3707,3.968,461.3973,2.1333,487.04L.512,511.488l24.4267-1.7067c25.6-1.7493,155.7333-12.6507,196.736-53.6747a117.2053,117.2053,0,0,0,32-105.408L492.8,111.5733a65.4506,65.4506,0,0,0,0-92.3733ZM191.5093,425.9413c-19.84,19.8187-91.0293,33.28-144.512,39.04,6.0374-55.4666,20.1174-125.5253,39.0614-144.4906A74.6666,74.6666,0,0,1,191.5093,425.9413ZM462.6773,81.408,236.096,308.0107a114.7313,114.7313,0,0,0-32-32.1707L430.592,49.3227a23.1679,23.1679,0,0,1,32,0,22.6559,22.6559,0,0,1,.13,32.04l-.0449.0452Z" transform="translate(-0.512 -0.7233)"/></svg>