<svg xmlns="http://www.w3.org/2000/svg" width="512.1203" height="512.0001" viewBox="0 0 512.1203 512.0001"><defs><style>.a{fill:#47403e;}</style></defs><path class="a" d="M362.6667,0a21.3334,21.3334,0,0,0-21.3334,21.3333c0,62.912-55.104,85.3334-106.6666,85.3334H85.3333A85.3333,85.3333,0,0,0,0,192v42.6667A84.8852,84.8852,0,0,0,32.2987,300.992l76.2026,170.0694A68.971,68.971,0,0,0,171.4987,512a63.6159,63.6159,0,0,0,58.0266-89.6L182.592,320h52.0747c51.5626,0,106.6666,22.4213,106.6666,85.3333a21.3334,21.3334,0,1,0,42.6667,0v-384A21.3333,21.3333,0,0,0,362.6667,0ZM190.656,439.872a20.9705,20.9705,0,0,1-19.1573,29.4613,26.2824,26.2824,0,0,1-24.0213-15.6586L87.5733,320h48.0854ZM341.3333,311.4667a164.7567,164.7567,0,0,0-106.6666-34.1334H85.3333a42.6666,42.6666,0,0,1-42.6666-42.6666V192a42.6666,42.6666,0,0,1,42.6666-42.6667H234.6667a164.7568,164.7568,0,0,0,106.6666-34.0267Zm168.5334,18.176a21.3335,21.3335,0,0,1-28.6134,9.5653l-.016-.008-42.6666-21.3333A21.3422,21.3422,0,0,1,457.6426,279.68l42.6667,21.3333a21.3334,21.3334,0,0,1,9.5573,28.5227Zm-80.8533-192a21.3333,21.3333,0,0,1,9.5414-28.6214l.0159-.008L481.2374,87.68a21.3422,21.3422,0,1,1,19.0719,38.1867h0L457.6427,147.2a21.3334,21.3334,0,0,1-28.6214-9.5414Zm-2.3467,75.6906A21.3333,21.3333,0,0,1,448,192h42.6667a21.3334,21.3334,0,0,1,0,42.6667H448A21.3333,21.3333,0,0,1,426.6667,213.3333Z"/></svg>