<svg xmlns="http://www.w3.org/2000/svg" width="512" height="469.6915" viewBox="0 0 512 469.6915"><defs><style>.a{fill:#47403e;}</style></defs><path class="a" d="M489.0027,36.2667a63.68,63.68,0,0,0-52.4373-13.824L304.7254,46.4A85.1838,85.1838,0,0,0,256,73.8347,85.1836,85.1836,0,0,0,207.2747,46.336L75.4347,22.3787A64,64,0,0,0,0,85.3333V444.4587l256,46.5707,256-46.5707V85.3333A63.8294,63.8294,0,0,0,489.0027,36.2667ZM234.6667,443.7333l-192-34.8586V85.3333a21.3331,21.3331,0,0,1,25.152-20.9706L199.6373,88.32a42.6666,42.6666,0,0,1,35.0294,41.984ZM469.3333,408.832l-192,34.9013V130.304A42.6667,42.6667,0,0,1,312.3627,88.32L444.1813,64.3627a21.333,21.333,0,0,1,25.152,20.9706Z" transform="translate(0 -21.3378)"/></svg>