<?xml version="1.0" encoding="utf-8"?>
<!-- Generator: Adobe Illustrator 25.2.3, SVG Export Plug-In . SVG Version: 6.00 Build 0)  -->
<svg version="1.1" id="Capa_1" xmlns="http://www.w3.org/2000/svg" xmlns:xlink="http://www.w3.org/1999/xlink" x="0px" y="0px"
	 viewBox="0 0 512 512" style="enable-background:new 0 0 512 512;" xml:space="preserve">
<style type="text/css">
	.st0{fill:#47403E;}
</style>
<g>
	<path class="st0" d="M394.7,42.7H384V32c0-17.7-14.3-32-32-32s-32,14.3-32,32v10.7H192V32c0-17.7-14.3-32-32-32s-32,14.3-32,32
		v10.7h-10.7C52.7,42.7,0,95.3,0,160v234.7C0,459.4,52.7,512,117.3,512h277.3c64.7,0,117.3-52.6,117.3-117.3V160
		C512,95.3,459.3,42.7,394.7,42.7z M394.7,448H117.3C87.9,448,64,424.1,64,394.7V192h384v202.7C448,424.1,424.1,448,394.7,448z
		 M213.3,266.7v42.7c0,17.7-14.3,32-32,32h-42.7c-17.7,0-32-14.3-32-32v-42.7c0-17.7,14.3-32,32-32h42.7
		C199,234.7,213.3,249,213.3,266.7z"/>
</g>
</svg>
