<svg xmlns="http://www.w3.org/2000/svg" width="80" height="80" viewBox="0 0 80 80"><defs><style>.a{isolation:isolate;}</style></defs><path class="a" d="M40,0A40,40,0,1,0,80,40,40,40,0,0,0,40,0ZM60.4906,30.64,38.3269,57.2373a2.0546,2.0546,0,0,1-1.4453.7326c-.044.002-.088.004-.13.004a2.0519,2.0519,0,0,1-1.3973-.55L19.6864,42.8366a2.05,2.05,0,0,1-.1021-2.8966l5.5891-6.0009a2.0386,2.0386,0,0,1,1.4273-.6506,2.0726,2.0726,0,0,1,1.4693.5485l7.7407,7.2081,15.2316-18.28a2.06,2.06,0,0,1,1.3892-.7286,2.0161,2.0161,0,0,1,1.4993.4664l6.2976,5.2487A2.0524,2.0524,0,0,1,60.4906,30.64Z"/></svg>