<svg xmlns="http://www.w3.org/2000/svg" width="512.0005" height="511.6934" viewBox="0 0 512.0005 511.6934"><defs><style>.a{fill:#47403e;}</style></defs><path class="a" d="M493.248,193.472,331.4347,31.6373a106.8374,106.8374,0,0,0-150.8693,0L18.752,193.472A63.53,63.53,0,0,0,0,238.72V448.1493a64,64,0,0,0,64,64H448a64,64,0,0,0,64-64V238.72A63.5306,63.5306,0,0,0,493.248,193.472ZM320,469.4827H192V385.5573a64,64,0,1,1,128,0Zm149.3333-21.3334A21.3333,21.3333,0,0,1,448,469.4827H362.6667V385.5573a106.6667,106.6667,0,0,0-213.3334,0v83.9254H64a21.3333,21.3333,0,0,1-21.3333-21.3334V238.72a21.5037,21.5037,0,0,1,6.2506-15.0827L210.7307,61.8667a64.1705,64.1705,0,0,1,90.5386,0L463.0827,223.7013a21.5038,21.5038,0,0,1,6.2506,15.0187Z" transform="translate(0.0003 -0.456)"/></svg>