<?xml version="1.0" encoding="utf-8"?>
<!-- Generator: Adobe Illustrator 25.2.3, SVG Export Plug-In . SVG Version: 6.00 Build 0)  -->
<svg version="1.1" id="Capa_1" xmlns="http://www.w3.org/2000/svg" xmlns:xlink="http://www.w3.org/1999/xlink" x="0px" y="0px"
	 viewBox="0 0 512 512" style="enable-background:new 0 0 512 512;" xml:space="preserve">
<style type="text/css">
	.st0{fill:#47403E;}
</style>
<g>
	<path class="st0" d="M405.3,179.7v-30.4C405.3,66.9,338.5,0,256,0S106.7,66.9,106.7,149.3v30.4c-38.8,16.9-63.9,55.3-64,97.6v128
		c0.1,58.9,47.8,106.6,106.7,106.7h213.3c58.9-0.1,106.6-47.8,106.7-106.7v-128C469.3,235,444.2,196.7,405.3,179.7z M277.3,362.7
		c0,11.8-9.6,21.3-21.3,21.3c-11.8,0-21.3-9.6-21.3-21.3V320c0-11.8,9.6-21.3,21.3-21.3s21.3,9.6,21.3,21.3V362.7z M362.7,170.7
		H149.3v-21.3c0-58.9,47.8-106.7,106.7-106.7s106.7,47.8,106.7,106.7V170.7z"/>
</g>
</svg>
